<?xml version="1.0" encoding="utf-8" standalone="no"?>
<!DOCTYPE svg PUBLIC "-//W3C//DTD SVG 1.1//EN"
  "http://www.w3.org/Graphics/SVG/1.1/DTD/svg11.dtd">
<svg xmlns:xlink="http://www.w3.org/1999/xlink" width="720pt" height="432pt" viewBox="0 0 720 432" xmlns="http://www.w3.org/2000/svg" version="1.1">
 <metadata>
  <rdf:RDF xmlns:dc="http://purl.org/dc/elements/1.1/" xmlns:cc="http://creativecommons.org/ns#" xmlns:rdf="http://www.w3.org/1999/02/22-rdf-syntax-ns#">
   <cc:Work>
    <dc:type rdf:resource="http://purl.org/dc/dcmitype/StillImage"/>
    <dc:date>2026-01-14T11:44:44.766885</dc:date>
    <dc:format>image/svg+xml</dc:format>
    <dc:creator>
     <cc:Agent>
      <dc:title>Matplotlib v3.10.1, https://matplotlib.org/</dc:title>
     </cc:Agent>
    </dc:creator>
   </cc:Work>
  </rdf:RDF>
 </metadata>
 <defs>
  <style type="text/css">*{stroke-linejoin: round; stroke-linecap: butt}</style>
 </defs>
 <g id="figure_1">
  <g id="patch_1">
   <path d="M 0 432 
L 720 432 
L 720 0 
L 0 0 
z
" style="fill: #ffffff"/>
  </g>
  <g id="axes_1">
   <g id="patch_2">
    <path d="M 363.4 362.68 
L 709.2 362.68 
L 709.2 10.8 
L 363.4 10.8 
z
" style="fill: #ffffff"/>
   </g>
   <g id="PathCollection_1">
    <path d="M 471.858649 359.491703 
C 475.254905 359.491703 478.512518 358.142356 480.914034 355.74084 
C 483.31555 353.339323 484.664897 350.081711 484.664897 346.685455 
C 484.664897 343.289198 483.31555 340.031586 480.914034 337.630069 
C 478.512518 335.228553 475.254905 333.879206 471.858649 333.879206 
C 468.462392 333.879206 465.20478 335.228553 462.803263 337.630069 
C 460.401747 340.031586 459.0524 343.289198 459.0524 346.685455 
C 459.0524 350.081711 460.401747 353.339323 462.803263 355.74084 
C 465.20478 358.142356 468.462392 359.491703 471.858649 359.491703 
z
" clip-path="url(#pdd3a9a1107)" style="fill: #006400; fill-opacity: 0.640662; stroke: #ffa500; stroke-opacity: 0.640662; stroke-width: 6"/>
    <path d="M 472.315578 325.633397 
C 476.158736 325.633397 479.845006 324.106494 482.562529 321.388971 
C 485.280052 318.671448 486.806955 314.985178 486.806955 311.14202 
C 486.806955 307.298862 485.280052 303.612593 482.562529 300.895069 
C 479.845006 298.177546 476.158736 296.650643 472.315578 296.650643 
C 468.47242 296.650643 464.78615 298.177546 462.068627 300.895069 
C 459.351104 303.612593 457.824201 307.298862 457.824201 311.14202 
C 457.824201 314.985178 459.351104 318.671448 462.068627 321.388971 
C 464.78615 324.106494 468.47242 325.633397 472.315578 325.633397 
z
" clip-path="url(#pdd3a9a1107)" style="fill: #006400; stroke: #006400; stroke-width: 6"/>
    <path d="M 472.325994 288.472979 
C 475.740323 288.472979 479.01527 287.116452 481.429565 284.702157 
C 483.84386 282.287861 485.200388 279.012915 485.200388 275.598586 
C 485.200388 272.184257 483.84386 268.90931 481.429565 266.495015 
C 479.01527 264.08072 475.740323 262.724193 472.325994 262.724193 
C 468.911665 262.724193 465.636719 264.08072 463.222424 266.495015 
C 460.808128 268.90931 459.451601 272.184257 459.451601 275.598586 
C 459.451601 279.012915 460.808128 282.287861 463.222424 284.702157 
C 465.636719 287.116452 468.911665 288.472979 472.325994 288.472979 
z
" clip-path="url(#pdd3a9a1107)" style="fill: #006400; fill-opacity: 0.656913; stroke: #ffa500; stroke-opacity: 0.656913; stroke-width: 6"/>
    <path d="M 475.856686 252.890649 
C 479.2607 252.890649 482.525752 251.53822 484.932753 249.131219 
C 487.339755 246.724218 488.692184 243.459165 488.692184 240.055152 
C 488.692184 236.651138 487.339755 233.386085 484.932753 230.979084 
C 482.525752 228.572083 479.2607 227.219654 475.856686 227.219654 
C 472.452672 227.219654 469.18762 228.572083 466.780619 230.979084 
C 464.373617 233.386085 463.021188 236.651138 463.021188 240.055152 
C 463.021188 243.459165 464.373617 246.724218 466.780619 249.131219 
C 469.18762 251.53822 472.452672 252.890649 475.856686 252.890649 
z
" clip-path="url(#pdd3a9a1107)" style="fill: #006400; fill-opacity: 0.795943; stroke: #006400; stroke-opacity: 0.795943; stroke-width: 6"/>
    <path d="M 499.543231 212.996999 
C 501.793554 212.996999 503.952012 212.102936 505.543231 210.511717 
C 507.134449 208.920499 508.028512 206.76204 508.028512 204.511717 
C 508.028512 202.261394 507.134449 200.102936 505.543231 198.511717 
C 503.952012 196.920499 501.793554 196.026436 499.543231 196.026436 
C 497.292908 196.026436 495.134449 196.920499 493.543231 198.511717 
C 491.952012 200.102936 491.057949 202.261394 491.057949 204.511717 
C 491.057949 206.76204 491.952012 208.920499 493.543231 210.511717 
C 495.134449 212.102936 497.292908 212.996999 499.543231 212.996999 
z
" clip-path="url(#pdd3a9a1107)" style="fill: #006400; fill-opacity: 0.549023; stroke: #ffa500; stroke-opacity: 0.549023; stroke-width: 6"/>
    <path d="M 543.18152 174.777758 
C 544.722211 174.777758 546.200006 174.165635 547.289439 173.076202 
C 548.378872 171.986769 548.990995 170.508974 548.990995 168.968283 
C 548.990995 167.427592 548.378872 165.949797 547.289439 164.860364 
C 546.200006 163.770931 544.722211 163.158808 543.18152 163.158808 
C 541.640829 163.158808 540.163034 163.770931 539.073601 164.860364 
C 537.984168 165.949797 537.372045 167.427592 537.372045 168.968283 
C 537.372045 170.508974 537.984168 171.986769 539.073601 173.076202 
C 540.163034 174.165635 541.640829 174.777758 543.18152 174.777758 
z
" clip-path="url(#pdd3a9a1107)" style="fill: #006400; fill-opacity: 0.547807; stroke: #0000ff; stroke-opacity: 0.547807; stroke-width: 6"/>
    <path d="M 558.750617 138.739921 
C 560.160191 138.739921 561.512222 138.179892 562.508942 137.183173 
C 563.505661 136.186453 564.06569 134.834422 564.06569 133.424848 
C 564.06569 132.015275 563.505661 130.663244 562.508942 129.666524 
C 561.512222 128.669805 560.160191 128.109776 558.750617 128.109776 
C 557.341044 128.109776 555.989013 128.669805 554.992293 129.666524 
C 553.995574 130.663244 553.435545 132.015275 553.435545 133.424848 
C 553.435545 134.834422 553.995574 136.186453 554.992293 137.183173 
C 555.989013 138.179892 557.341044 138.739921 558.750617 138.739921 
z
" clip-path="url(#pdd3a9a1107)" style="fill: #006400; fill-opacity: 0.549023; stroke: #0000ff; stroke-opacity: 0.549023; stroke-width: 6"/>
    <path d="M 586.030311 102.46399 
C 587.245624 102.46399 588.411325 101.981141 589.270681 101.121784 
C 590.130038 100.262428 590.612887 99.096727 590.612887 97.881414 
C 590.612887 96.666101 590.130038 95.5004 589.270681 94.641044 
C 588.411325 93.781688 587.245624 93.298838 586.030311 93.298838 
C 584.814998 93.298838 583.649297 93.781688 582.789941 94.641044 
C 581.930584 95.5004 581.447735 96.666101 581.447735 97.881414 
C 581.447735 99.096727 581.930584 100.262428 582.789941 101.121784 
C 583.649297 101.981141 584.814998 102.46399 586.030311 102.46399 
z
" clip-path="url(#pdd3a9a1107)" style="fill: #006400; fill-opacity: 0.549023; stroke: #0000ff; stroke-opacity: 0.549023; stroke-width: 6"/>
    <path d="M 644.538977 65.908694 
C 645.485941 65.908694 646.394248 65.532461 647.063853 64.862856 
C 647.733458 64.193251 648.109691 63.284944 648.109691 62.33798 
C 648.109691 61.391015 647.733458 60.482709 647.063853 59.813104 
C 646.394248 59.143499 645.485941 58.767266 644.538977 58.767266 
C 643.592012 58.767266 642.683705 59.143499 642.0141 59.813104 
C 641.344495 60.482709 640.968262 61.391015 640.968262 62.33798 
C 640.968262 63.284944 641.344495 64.193251 642.0141 64.862856 
C 642.683705 65.532461 643.592012 65.908694 644.538977 65.908694 
z
" clip-path="url(#pdd3a9a1107)" style="fill: #006400; fill-opacity: 0.548766; stroke: #0000ff; stroke-opacity: 0.548766; stroke-width: 6"/>
    <path d="M 693.481818 30.073265 
C 694.351345 30.073265 695.185375 29.727798 695.800223 29.11295 
C 696.415071 28.498102 696.760537 27.664072 696.760537 26.794545 
C 696.760537 25.925019 696.415071 25.090989 695.800223 24.476141 
C 695.185375 23.861293 694.351345 23.515826 693.481818 23.515826 
C 692.612292 23.515826 691.778262 23.861293 691.163414 24.476141 
C 690.548565 25.090989 690.203099 25.925019 690.203099 26.794545 
C 690.203099 27.664072 690.548565 28.498102 691.163414 29.11295 
C 691.778262 29.727798 692.612292 30.073265 693.481818 30.073265 
z
" clip-path="url(#pdd3a9a1107)" style="fill: #006400; fill-opacity: 0.656913; stroke: #0000ff; stroke-opacity: 0.656913; stroke-width: 6"/>
   </g>
   <g id="PathCollection_2"/>
   <g id="PathCollection_3"/>
   <g id="PathCollection_4"/>
   <g id="matplotlib.axis_1">
    <g id="xtick_1">
     <g id="line2d_1">
      <defs>
       <path id="m090d80ee2a" d="M 0 0 
L 0 3.5 
" style="stroke: #000000; stroke-width: 0.8"/>
      </defs>
      <g>
       <use xlink:href="#m090d80ee2a" x="379.118182" y="362.68" style="stroke: #000000; stroke-width: 0.8"/>
      </g>
     </g>
     <g id="text_1">
      <!-- 0 -->
      <g transform="translate(372.16701 387.574531) scale(0.25 -0.25)">
       <defs>
        <path id="ArialMT-30" d="M 266 2259 
Q 266 3072 433 3567 
Q 600 4063 929 4331 
Q 1259 4600 1759 4600 
Q 2128 4600 2406 4451 
Q 2684 4303 2865 4023 
Q 3047 3744 3150 3342 
Q 3253 2941 3253 2259 
Q 3253 1453 3087 958 
Q 2922 463 2592 192 
Q 2263 -78 1759 -78 
Q 1097 -78 719 397 
Q 266 969 266 2259 
z
M 844 2259 
Q 844 1131 1108 757 
Q 1372 384 1759 384 
Q 2147 384 2411 759 
Q 2675 1134 2675 2259 
Q 2675 3391 2411 3762 
Q 2147 4134 1753 4134 
Q 1366 4134 1134 3806 
Q 844 3388 844 2259 
z
" transform="scale(0.015625)"/>
       </defs>
       <use xlink:href="#ArialMT-30"/>
      </g>
     </g>
    </g>
    <g id="xtick_2">
     <g id="line2d_2">
      <g>
       <use xlink:href="#m090d80ee2a" x="426.93401" y="362.68" style="stroke: #000000; stroke-width: 0.8"/>
      </g>
     </g>
     <g id="text_2">
      <!-- 1 -->
      <g transform="translate(419.982838 387.574531) scale(0.25 -0.25)">
       <defs>
        <path id="ArialMT-31" d="M 2384 0 
L 1822 0 
L 1822 3584 
Q 1619 3391 1289 3197 
Q 959 3003 697 2906 
L 697 3450 
Q 1169 3672 1522 3987 
Q 1875 4303 2022 4600 
L 2384 4600 
L 2384 0 
z
" transform="scale(0.015625)"/>
       </defs>
       <use xlink:href="#ArialMT-31"/>
      </g>
     </g>
    </g>
    <g id="xtick_3">
     <g id="line2d_3">
      <g>
       <use xlink:href="#m090d80ee2a" x="474.749838" y="362.68" style="stroke: #000000; stroke-width: 0.8"/>
      </g>
     </g>
     <g id="text_3">
      <!-- 2 -->
      <g transform="translate(467.798666 387.574531) scale(0.25 -0.25)">
       <defs>
        <path id="ArialMT-32" d="M 3222 541 
L 3222 0 
L 194 0 
Q 188 203 259 391 
Q 375 700 629 1000 
Q 884 1300 1366 1694 
Q 2113 2306 2375 2664 
Q 2638 3022 2638 3341 
Q 2638 3675 2398 3904 
Q 2159 4134 1775 4134 
Q 1369 4134 1125 3890 
Q 881 3647 878 3216 
L 300 3275 
Q 359 3922 746 4261 
Q 1134 4600 1788 4600 
Q 2447 4600 2831 4234 
Q 3216 3869 3216 3328 
Q 3216 3053 3103 2787 
Q 2991 2522 2730 2228 
Q 2469 1934 1863 1422 
Q 1356 997 1212 845 
Q 1069 694 975 541 
L 3222 541 
z
" transform="scale(0.015625)"/>
       </defs>
       <use xlink:href="#ArialMT-32"/>
      </g>
     </g>
    </g>
    <g id="xtick_4">
     <g id="line2d_4">
      <g>
       <use xlink:href="#m090d80ee2a" x="522.565666" y="362.68" style="stroke: #000000; stroke-width: 0.8"/>
      </g>
     </g>
     <g id="text_4">
      <!-- 3 -->
      <g transform="translate(515.614494 387.574531) scale(0.25 -0.25)">
       <defs>
        <path id="ArialMT-33" d="M 269 1209 
L 831 1284 
Q 928 806 1161 595 
Q 1394 384 1728 384 
Q 2125 384 2398 659 
Q 2672 934 2672 1341 
Q 2672 1728 2419 1979 
Q 2166 2231 1775 2231 
Q 1616 2231 1378 2169 
L 1441 2663 
Q 1497 2656 1531 2656 
Q 1891 2656 2178 2843 
Q 2466 3031 2466 3422 
Q 2466 3731 2256 3934 
Q 2047 4138 1716 4138 
Q 1388 4138 1169 3931 
Q 950 3725 888 3313 
L 325 3413 
Q 428 3978 793 4289 
Q 1159 4600 1703 4600 
Q 2078 4600 2393 4439 
Q 2709 4278 2876 4000 
Q 3044 3722 3044 3409 
Q 3044 3113 2884 2869 
Q 2725 2625 2413 2481 
Q 2819 2388 3044 2092 
Q 3269 1797 3269 1353 
Q 3269 753 2831 336 
Q 2394 -81 1725 -81 
Q 1122 -81 723 278 
Q 325 638 269 1209 
z
" transform="scale(0.015625)"/>
       </defs>
       <use xlink:href="#ArialMT-33"/>
      </g>
     </g>
    </g>
    <g id="xtick_5">
     <g id="line2d_5">
      <g>
       <use xlink:href="#m090d80ee2a" x="570.381495" y="362.68" style="stroke: #000000; stroke-width: 0.8"/>
      </g>
     </g>
     <g id="text_5">
      <!-- 4 -->
      <g transform="translate(563.430323 387.574531) scale(0.25 -0.25)">
       <defs>
        <path id="ArialMT-34" d="M 2069 0 
L 2069 1097 
L 81 1097 
L 81 1613 
L 2172 4581 
L 2631 4581 
L 2631 1613 
L 3250 1613 
L 3250 1097 
L 2631 1097 
L 2631 0 
L 2069 0 
z
M 2069 1613 
L 2069 3678 
L 634 1613 
L 2069 1613 
z
" transform="scale(0.015625)"/>
       </defs>
       <use xlink:href="#ArialMT-34"/>
      </g>
     </g>
    </g>
    <g id="xtick_6">
     <g id="line2d_6">
      <g>
       <use xlink:href="#m090d80ee2a" x="618.197323" y="362.68" style="stroke: #000000; stroke-width: 0.8"/>
      </g>
     </g>
     <g id="text_6">
      <!-- 5 -->
      <g transform="translate(611.246151 387.574531) scale(0.25 -0.25)">
       <defs>
        <path id="ArialMT-35" d="M 266 1200 
L 856 1250 
Q 922 819 1161 601 
Q 1400 384 1738 384 
Q 2144 384 2425 690 
Q 2706 997 2706 1503 
Q 2706 1984 2436 2262 
Q 2166 2541 1728 2541 
Q 1456 2541 1237 2417 
Q 1019 2294 894 2097 
L 366 2166 
L 809 4519 
L 3088 4519 
L 3088 3981 
L 1259 3981 
L 1013 2750 
Q 1425 3038 1878 3038 
Q 2478 3038 2890 2622 
Q 3303 2206 3303 1553 
Q 3303 931 2941 478 
Q 2500 -78 1738 -78 
Q 1113 -78 717 272 
Q 322 622 266 1200 
z
" transform="scale(0.015625)"/>
       </defs>
       <use xlink:href="#ArialMT-35"/>
      </g>
     </g>
    </g>
    <g id="xtick_7">
     <g id="line2d_7">
      <g>
       <use xlink:href="#m090d80ee2a" x="666.013151" y="362.68" style="stroke: #000000; stroke-width: 0.8"/>
      </g>
     </g>
     <g id="text_7">
      <!-- 6 -->
      <g transform="translate(659.061979 387.574531) scale(0.25 -0.25)">
       <defs>
        <path id="ArialMT-36" d="M 3184 3459 
L 2625 3416 
Q 2550 3747 2413 3897 
Q 2184 4138 1850 4138 
Q 1581 4138 1378 3988 
Q 1113 3794 959 3422 
Q 806 3050 800 2363 
Q 1003 2672 1297 2822 
Q 1591 2972 1913 2972 
Q 2475 2972 2870 2558 
Q 3266 2144 3266 1488 
Q 3266 1056 3080 686 
Q 2894 316 2569 119 
Q 2244 -78 1831 -78 
Q 1128 -78 684 439 
Q 241 956 241 2144 
Q 241 3472 731 4075 
Q 1159 4600 1884 4600 
Q 2425 4600 2770 4297 
Q 3116 3994 3184 3459 
z
M 888 1484 
Q 888 1194 1011 928 
Q 1134 663 1356 523 
Q 1578 384 1822 384 
Q 2178 384 2434 671 
Q 2691 959 2691 1453 
Q 2691 1928 2437 2201 
Q 2184 2475 1800 2475 
Q 1419 2475 1153 2201 
Q 888 1928 888 1484 
z
" transform="scale(0.015625)"/>
       </defs>
       <use xlink:href="#ArialMT-36"/>
      </g>
     </g>
    </g>
    <g id="text_8">
     <!-- Fold enrichment -->
     <g transform="translate(446.682812 414.437813) scale(0.25 -0.25)">
      <defs>
       <path id="ArialMT-46" d="M 525 0 
L 525 4581 
L 3616 4581 
L 3616 4041 
L 1131 4041 
L 1131 2622 
L 3281 2622 
L 3281 2081 
L 1131 2081 
L 1131 0 
L 525 0 
z
" transform="scale(0.015625)"/>
       <path id="ArialMT-6f" d="M 213 1659 
Q 213 2581 725 3025 
Q 1153 3394 1769 3394 
Q 2453 3394 2887 2945 
Q 3322 2497 3322 1706 
Q 3322 1066 3130 698 
Q 2938 331 2570 128 
Q 2203 -75 1769 -75 
Q 1072 -75 642 372 
Q 213 819 213 1659 
z
M 791 1659 
Q 791 1022 1069 705 
Q 1347 388 1769 388 
Q 2188 388 2466 706 
Q 2744 1025 2744 1678 
Q 2744 2294 2464 2611 
Q 2184 2928 1769 2928 
Q 1347 2928 1069 2612 
Q 791 2297 791 1659 
z
" transform="scale(0.015625)"/>
       <path id="ArialMT-6c" d="M 409 0 
L 409 4581 
L 972 4581 
L 972 0 
L 409 0 
z
" transform="scale(0.015625)"/>
       <path id="ArialMT-64" d="M 2575 0 
L 2575 419 
Q 2259 -75 1647 -75 
Q 1250 -75 917 144 
Q 584 363 401 755 
Q 219 1147 219 1656 
Q 219 2153 384 2558 
Q 550 2963 881 3178 
Q 1213 3394 1622 3394 
Q 1922 3394 2156 3267 
Q 2391 3141 2538 2938 
L 2538 4581 
L 3097 4581 
L 3097 0 
L 2575 0 
z
M 797 1656 
Q 797 1019 1065 703 
Q 1334 388 1700 388 
Q 2069 388 2326 689 
Q 2584 991 2584 1609 
Q 2584 2291 2321 2609 
Q 2059 2928 1675 2928 
Q 1300 2928 1048 2622 
Q 797 2316 797 1656 
z
" transform="scale(0.015625)"/>
       <path id="ArialMT-20" transform="scale(0.015625)"/>
       <path id="ArialMT-65" d="M 2694 1069 
L 3275 997 
Q 3138 488 2766 206 
Q 2394 -75 1816 -75 
Q 1088 -75 661 373 
Q 234 822 234 1631 
Q 234 2469 665 2931 
Q 1097 3394 1784 3394 
Q 2450 3394 2872 2941 
Q 3294 2488 3294 1666 
Q 3294 1616 3291 1516 
L 816 1516 
Q 847 969 1125 678 
Q 1403 388 1819 388 
Q 2128 388 2347 550 
Q 2566 713 2694 1069 
z
M 847 1978 
L 2700 1978 
Q 2663 2397 2488 2606 
Q 2219 2931 1791 2931 
Q 1403 2931 1139 2672 
Q 875 2413 847 1978 
z
" transform="scale(0.015625)"/>
       <path id="ArialMT-6e" d="M 422 0 
L 422 3319 
L 928 3319 
L 928 2847 
Q 1294 3394 1984 3394 
Q 2284 3394 2536 3286 
Q 2788 3178 2913 3003 
Q 3038 2828 3088 2588 
Q 3119 2431 3119 2041 
L 3119 0 
L 2556 0 
L 2556 2019 
Q 2556 2363 2490 2533 
Q 2425 2703 2258 2804 
Q 2091 2906 1866 2906 
Q 1506 2906 1245 2678 
Q 984 2450 984 1813 
L 984 0 
L 422 0 
z
" transform="scale(0.015625)"/>
       <path id="ArialMT-72" d="M 416 0 
L 416 3319 
L 922 3319 
L 922 2816 
Q 1116 3169 1280 3281 
Q 1444 3394 1641 3394 
Q 1925 3394 2219 3213 
L 2025 2691 
Q 1819 2813 1613 2813 
Q 1428 2813 1281 2702 
Q 1134 2591 1072 2394 
Q 978 2094 978 1738 
L 978 0 
L 416 0 
z
" transform="scale(0.015625)"/>
       <path id="ArialMT-69" d="M 425 3934 
L 425 4581 
L 988 4581 
L 988 3934 
L 425 3934 
z
M 425 0 
L 425 3319 
L 988 3319 
L 988 0 
L 425 0 
z
" transform="scale(0.015625)"/>
       <path id="ArialMT-63" d="M 2588 1216 
L 3141 1144 
Q 3050 572 2676 248 
Q 2303 -75 1759 -75 
Q 1078 -75 664 370 
Q 250 816 250 1647 
Q 250 2184 428 2587 
Q 606 2991 970 3192 
Q 1334 3394 1763 3394 
Q 2303 3394 2647 3120 
Q 2991 2847 3088 2344 
L 2541 2259 
Q 2463 2594 2264 2762 
Q 2066 2931 1784 2931 
Q 1359 2931 1093 2626 
Q 828 2322 828 1663 
Q 828 994 1084 691 
Q 1341 388 1753 388 
Q 2084 388 2306 591 
Q 2528 794 2588 1216 
z
" transform="scale(0.015625)"/>
       <path id="ArialMT-68" d="M 422 0 
L 422 4581 
L 984 4581 
L 984 2938 
Q 1378 3394 1978 3394 
Q 2347 3394 2619 3248 
Q 2891 3103 3008 2847 
Q 3125 2591 3125 2103 
L 3125 0 
L 2563 0 
L 2563 2103 
Q 2563 2525 2380 2717 
Q 2197 2909 1863 2909 
Q 1613 2909 1392 2779 
Q 1172 2650 1078 2428 
Q 984 2206 984 1816 
L 984 0 
L 422 0 
z
" transform="scale(0.015625)"/>
       <path id="ArialMT-6d" d="M 422 0 
L 422 3319 
L 925 3319 
L 925 2853 
Q 1081 3097 1340 3245 
Q 1600 3394 1931 3394 
Q 2300 3394 2536 3241 
Q 2772 3088 2869 2813 
Q 3263 3394 3894 3394 
Q 4388 3394 4653 3120 
Q 4919 2847 4919 2278 
L 4919 0 
L 4359 0 
L 4359 2091 
Q 4359 2428 4304 2576 
Q 4250 2725 4106 2815 
Q 3963 2906 3769 2906 
Q 3419 2906 3187 2673 
Q 2956 2441 2956 1928 
L 2956 0 
L 2394 0 
L 2394 2156 
Q 2394 2531 2256 2718 
Q 2119 2906 1806 2906 
Q 1569 2906 1367 2781 
Q 1166 2656 1075 2415 
Q 984 2175 984 1722 
L 984 0 
L 422 0 
z
" transform="scale(0.015625)"/>
       <path id="ArialMT-74" d="M 1650 503 
L 1731 6 
Q 1494 -44 1306 -44 
Q 1000 -44 831 53 
Q 663 150 594 308 
Q 525 466 525 972 
L 525 2881 
L 113 2881 
L 113 3319 
L 525 3319 
L 525 4141 
L 1084 4478 
L 1084 3319 
L 1650 3319 
L 1650 2881 
L 1084 2881 
L 1084 941 
Q 1084 700 1114 631 
Q 1144 563 1211 522 
Q 1278 481 1403 481 
Q 1497 481 1650 503 
z
" transform="scale(0.015625)"/>
      </defs>
      <use xlink:href="#ArialMT-46"/>
      <use xlink:href="#ArialMT-6f" transform="translate(61.083984 0)"/>
      <use xlink:href="#ArialMT-6c" transform="translate(116.699219 0)"/>
      <use xlink:href="#ArialMT-64" transform="translate(138.916016 0)"/>
      <use xlink:href="#ArialMT-20" transform="translate(194.53125 0)"/>
      <use xlink:href="#ArialMT-65" transform="translate(222.314453 0)"/>
      <use xlink:href="#ArialMT-6e" transform="translate(277.929688 0)"/>
      <use xlink:href="#ArialMT-72" transform="translate(333.544922 0)"/>
      <use xlink:href="#ArialMT-69" transform="translate(366.845703 0)"/>
      <use xlink:href="#ArialMT-63" transform="translate(389.0625 0)"/>
      <use xlink:href="#ArialMT-68" transform="translate(439.0625 0)"/>
      <use xlink:href="#ArialMT-6d" transform="translate(494.677734 0)"/>
      <use xlink:href="#ArialMT-65" transform="translate(577.978516 0)"/>
      <use xlink:href="#ArialMT-6e" transform="translate(633.59375 0)"/>
      <use xlink:href="#ArialMT-74" transform="translate(689.208984 0)"/>
     </g>
    </g>
   </g>
   <g id="matplotlib.axis_2">
    <g id="ytick_1">
     <g id="line2d_8">
      <defs>
       <path id="ma80e76a22e" d="M 0 0 
L -3.5 0 
" style="stroke: #000000; stroke-width: 0.8"/>
      </defs>
      <g>
       <use xlink:href="#ma80e76a22e" x="363.4" y="346.685455" style="stroke: #000000; stroke-width: 0.8"/>
      </g>
     </g>
     <g id="text_9">
      <!-- FYPO: decreased vegetative cell pop. growth -->
      <g transform="translate(10.795781 354.335689) scale(0.21 -0.21)">
       <defs>
        <path id="ArialNarrow-46" d="M 441 0 
L 441 4581 
L 2975 4581 
L 2975 4041 
L 938 4041 
L 938 2622 
L 2700 2622 
L 2700 2081 
L 938 2081 
L 938 0 
L 441 0 
z
" transform="scale(0.015625)"/>
        <path id="ArialNarrow-59" d="M 1463 0 
L 1463 1941 
L 16 4581 
L 622 4581 
L 1359 3200 
Q 1578 2791 1744 2425 
Q 1909 2784 2153 3234 
L 2881 4581 
L 3459 4581 
L 1959 1941 
L 1959 0 
L 1463 0 
z
" transform="scale(0.015625)"/>
        <path id="ArialNarrow-50" d="M 406 0 
L 406 4581 
L 1822 4581 
Q 2322 4581 2559 4494 
Q 2884 4375 3078 4053 
Q 3272 3731 3272 3263 
Q 3272 2644 2956 2253 
Q 2641 1863 1866 1863 
L 903 1863 
L 903 0 
L 406 0 
z
M 903 2403 
L 1875 2403 
Q 2334 2403 2546 2611 
Q 2759 2819 2759 3238 
Q 2759 3509 2654 3703 
Q 2550 3897 2401 3969 
Q 2253 4041 1866 4041 
L 903 4041 
L 903 2403 
z
" transform="scale(0.015625)"/>
        <path id="ArialNarrow-4f" d="M 266 2231 
Q 266 3403 781 4033 
Q 1297 4663 2066 4663 
Q 2563 4663 2972 4381 
Q 3381 4100 3620 3564 
Q 3859 3028 3859 2288 
Q 3859 1269 3397 628 
Q 2888 -78 2063 -78 
Q 1231 -78 725 647 
Q 266 1303 266 2231 
z
M 778 2222 
Q 778 1375 1151 908 
Q 1525 441 2059 441 
Q 2606 441 2976 912 
Q 3347 1384 3347 2300 
Q 3347 2891 3156 3356 
Q 3009 3713 2714 3927 
Q 2419 4141 2069 4141 
Q 1506 4141 1142 3672 
Q 778 3203 778 2222 
z
" transform="scale(0.015625)"/>
        <path id="ArialNarrow-3a" d="M 484 2678 
L 484 3319 
L 1009 3319 
L 1009 2678 
L 484 2678 
z
M 484 0 
L 484 641 
L 1009 641 
L 1009 0 
L 484 0 
z
" transform="scale(0.015625)"/>
        <path id="ArialNarrow-20" transform="scale(0.015625)"/>
        <path id="ArialNarrow-64" d="M 2103 0 
L 2103 419 
Q 1978 178 1781 51 
Q 1584 -75 1356 -75 
Q 875 -75 523 379 
Q 172 834 172 1659 
Q 172 2225 328 2619 
Q 484 3013 745 3203 
Q 1006 3394 1325 3394 
Q 1553 3394 1748 3273 
Q 1944 3153 2072 2938 
L 2072 4581 
L 2534 4581 
L 2534 0 
L 2103 0 
z
M 644 1656 
Q 644 1013 867 700 
Q 1091 388 1388 388 
Q 1681 388 1897 688 
Q 2113 988 2113 1594 
Q 2113 2291 1897 2611 
Q 1681 2931 1353 2931 
Q 1063 2931 853 2623 
Q 644 2316 644 1656 
z
" transform="scale(0.015625)"/>
        <path id="ArialNarrow-65" d="M 2200 1069 
L 2675 997 
Q 2556 466 2245 195 
Q 1934 -75 1475 -75 
Q 897 -75 539 364 
Q 181 803 181 1631 
Q 181 2491 542 2942 
Q 903 3394 1456 3394 
Q 1984 3394 2337 2950 
Q 2691 2506 2691 1666 
L 2688 1516 
L 656 1516 
Q 684 956 915 672 
Q 1147 388 1478 388 
Q 1997 388 2200 1069 
z
M 684 1978 
L 2203 1978 
Q 2172 2409 2019 2622 
Q 1797 2931 1453 2931 
Q 1144 2931 925 2673 
Q 706 2416 684 1978 
z
" transform="scale(0.015625)"/>
        <path id="ArialNarrow-63" d="M 2122 1216 
L 2575 1144 
Q 2497 550 2183 237 
Q 1869 -75 1428 -75 
Q 894 -75 548 364 
Q 203 803 203 1663 
Q 203 2528 551 2961 
Q 900 3394 1447 3394 
Q 1869 3394 2158 3131 
Q 2447 2869 2528 2344 
L 2081 2259 
Q 2016 2597 1853 2764 
Q 1691 2931 1463 2931 
Q 1122 2931 898 2629 
Q 675 2328 675 1672 
Q 675 994 889 691 
Q 1103 388 1438 388 
Q 1700 388 1886 589 
Q 2072 791 2122 1216 
z
" transform="scale(0.015625)"/>
        <path id="ArialNarrow-72" d="M 338 0 
L 338 3319 
L 753 3319 
L 753 2816 
Q 913 3166 1045 3280 
Q 1178 3394 1344 3394 
Q 1575 3394 1816 3213 
L 1659 2691 
Q 1488 2813 1325 2813 
Q 1178 2813 1056 2709 
Q 934 2606 884 2422 
Q 797 2100 797 1738 
L 797 0 
L 338 0 
z
" transform="scale(0.015625)"/>
        <path id="ArialNarrow-61" d="M 2113 409 
Q 1881 169 1631 47 
Q 1381 -75 1113 -75 
Q 688 -75 434 181 
Q 181 438 181 872 
Q 181 1159 300 1381 
Q 419 1603 625 1728 
Q 831 1853 1250 1913 
Q 1813 1994 2075 2106 
L 2078 2250 
Q 2078 2591 1956 2728 
Q 1784 2928 1428 2928 
Q 1106 2928 947 2795 
Q 788 2663 713 2297 
L 259 2372 
Q 356 2906 651 3150 
Q 947 3394 1497 3394 
Q 1925 3394 2169 3233 
Q 2413 3072 2477 2834 
Q 2541 2597 2541 2141 
L 2541 1391 
Q 2541 603 2570 398 
Q 2600 194 2688 0 
L 2206 0 
Q 2134 172 2113 409 
z
M 2075 1666 
Q 1822 1541 1322 1453 
Q 1031 1403 915 1339 
Q 800 1275 736 1158 
Q 672 1041 672 888 
Q 672 650 819 508 
Q 966 366 1225 366 
Q 1472 366 1673 494 
Q 1875 622 1975 836 
Q 2075 1050 2075 1459 
L 2075 1666 
z
" transform="scale(0.015625)"/>
        <path id="ArialNarrow-73" d="M 163 991 
L 619 1078 
Q 659 728 840 558 
Q 1022 388 1322 388 
Q 1622 388 1786 536 
Q 1950 684 1950 913 
Q 1950 1109 1809 1219 
Q 1713 1294 1341 1406 
Q 803 1572 622 1687 
Q 441 1803 341 1997 
Q 241 2191 241 2438 
Q 241 2863 512 3128 
Q 784 3394 1266 3394 
Q 1569 3394 1798 3284 
Q 2028 3175 2150 2990 
Q 2272 2806 2319 2463 
L 1869 2388 
Q 1806 2931 1278 2931 
Q 978 2931 831 2811 
Q 684 2691 684 2503 
Q 684 2319 825 2213 
Q 909 2150 1325 2013 
Q 1897 1828 2065 1720 
Q 2234 1613 2328 1427 
Q 2422 1241 2422 984 
Q 2422 509 2120 215 
Q 1819 -78 1297 -78 
Q 319 -78 163 991 
z
" transform="scale(0.015625)"/>
        <path id="ArialNarrow-76" d="M 1100 0 
L 66 3319 
L 553 3319 
L 1138 1331 
Q 1238 994 1313 663 
Q 1372 925 1481 1294 
L 2088 3319 
L 2563 3319 
L 1531 0 
L 1100 0 
z
" transform="scale(0.015625)"/>
        <path id="ArialNarrow-67" d="M 250 -275 
L 700 -356 
Q 731 -622 887 -751 
Q 1044 -881 1322 -881 
Q 1625 -881 1804 -736 
Q 1984 -591 2050 -303 
Q 2091 -128 2091 434 
Q 1941 219 1753 109 
Q 1566 0 1338 0 
Q 850 0 528 413 
Q 159 888 159 1684 
Q 159 2219 321 2619 
Q 484 3019 748 3206 
Q 1013 3394 1341 3394 
Q 1581 3394 1779 3275 
Q 1978 3156 2131 2919 
L 2131 3319 
L 2556 3319 
L 2556 450 
Q 2556 -316 2431 -642 
Q 2306 -969 2022 -1158 
Q 1738 -1347 1338 -1347 
Q 809 -1347 525 -1062 
Q 241 -778 250 -275 
z
M 634 1719 
Q 634 1066 850 766 
Q 1066 466 1378 466 
Q 1691 466 1909 759 
Q 2128 1053 2128 1694 
Q 2128 2319 1903 2623 
Q 1678 2928 1356 2928 
Q 1069 2928 851 2623 
Q 634 2319 634 1719 
z
" transform="scale(0.015625)"/>
        <path id="ArialNarrow-74" d="M 1366 503 
L 1428 6 
Q 1238 -44 1084 -44 
Q 844 -44 697 51 
Q 550 147 495 312 
Q 441 478 441 972 
L 441 2881 
L 103 2881 
L 103 3319 
L 441 3319 
L 441 4141 
L 900 4478 
L 900 3319 
L 1366 3319 
L 1366 2881 
L 900 2881 
L 900 941 
Q 900 672 941 594 
Q 1000 481 1163 481 
Q 1241 481 1366 503 
z
" transform="scale(0.015625)"/>
        <path id="ArialNarrow-69" d="M 338 3934 
L 338 4581 
L 797 4581 
L 797 3934 
L 338 3934 
z
M 338 0 
L 338 3319 
L 797 3319 
L 797 0 
L 338 0 
z
" transform="scale(0.015625)"/>
        <path id="ArialNarrow-6c" d="M 325 0 
L 325 4581 
L 784 4581 
L 784 0 
L 325 0 
z
" transform="scale(0.015625)"/>
        <path id="ArialNarrow-70" d="M 338 -1272 
L 338 3319 
L 759 3319 
L 759 2888 
Q 916 3156 1106 3275 
Q 1297 3394 1544 3394 
Q 1866 3394 2125 3203 
Q 2384 3013 2542 2623 
Q 2700 2234 2700 1688 
Q 2700 841 2345 383 
Q 1991 -75 1513 -75 
Q 1300 -75 1115 34 
Q 931 144 797 344 
L 797 -1272 
L 338 -1272 
z
M 753 1641 
Q 753 997 968 692 
Q 1184 388 1491 388 
Q 1784 388 2006 703 
Q 2228 1019 2228 1678 
Q 2228 2328 2012 2640 
Q 1797 2953 1488 2953 
Q 1209 2953 981 2617 
Q 753 2281 753 1641 
z
" transform="scale(0.015625)"/>
        <path id="ArialNarrow-6f" d="M 166 1659 
Q 166 2519 527 2956 
Q 888 3394 1441 3394 
Q 1984 3394 2350 2956 
Q 2716 2519 2716 1694 
Q 2716 800 2356 362 
Q 1997 -75 1441 -75 
Q 894 -75 530 364 
Q 166 803 166 1659 
z
M 638 1659 
Q 638 1016 872 702 
Q 1106 388 1453 388 
Q 1778 388 2011 705 
Q 2244 1022 2244 1659 
Q 2244 2300 2009 2614 
Q 1775 2928 1428 2928 
Q 1100 2928 869 2612 
Q 638 2297 638 1659 
z
" transform="scale(0.015625)"/>
        <path id="ArialNarrow-2e" d="M 484 0 
L 484 641 
L 1009 641 
L 1009 0 
L 484 0 
z
" transform="scale(0.015625)"/>
        <path id="ArialNarrow-77" d="M 838 0 
L 6 3319 
L 484 3319 
L 916 1403 
L 1075 691 
L 1219 1375 
L 1650 3319 
L 2125 3319 
L 2531 1394 
L 2669 759 
L 2825 1400 
L 3291 3319 
L 3741 3319 
L 2888 0 
L 2409 0 
L 1975 1988 
L 1872 2553 
L 1322 0 
L 838 0 
z
" transform="scale(0.015625)"/>
        <path id="ArialNarrow-68" d="M 338 0 
L 338 4581 
L 797 4581 
L 797 2938 
Q 959 3166 1164 3280 
Q 1369 3394 1616 3394 
Q 2050 3394 2301 3117 
Q 2553 2841 2553 2103 
L 2553 0 
L 2094 0 
L 2094 2103 
Q 2094 2534 1941 2721 
Q 1788 2909 1519 2909 
Q 1219 2909 1008 2668 
Q 797 2428 797 1816 
L 797 0 
L 338 0 
z
" transform="scale(0.015625)"/>
       </defs>
       <use xlink:href="#ArialNarrow-46"/>
       <use xlink:href="#ArialNarrow-59" transform="translate(50.097656 0)"/>
       <use xlink:href="#ArialNarrow-50" transform="translate(104.785156 0)"/>
       <use xlink:href="#ArialNarrow-4f" transform="translate(159.472656 0)"/>
       <use xlink:href="#ArialNarrow-3a" transform="translate(223.291016 0)"/>
       <use xlink:href="#ArialNarrow-20" transform="translate(246.09375 0)"/>
       <use xlink:href="#ArialNarrow-64" transform="translate(268.896484 0)"/>
       <use xlink:href="#ArialNarrow-65" transform="translate(314.501953 0)"/>
       <use xlink:href="#ArialNarrow-63" transform="translate(360.107422 0)"/>
       <use xlink:href="#ArialNarrow-72" transform="translate(401.123047 0)"/>
       <use xlink:href="#ArialNarrow-65" transform="translate(428.417969 0)"/>
       <use xlink:href="#ArialNarrow-61" transform="translate(474.023438 0)"/>
       <use xlink:href="#ArialNarrow-73" transform="translate(519.628906 0)"/>
       <use xlink:href="#ArialNarrow-65" transform="translate(560.644531 0)"/>
       <use xlink:href="#ArialNarrow-64" transform="translate(606.25 0)"/>
       <use xlink:href="#ArialNarrow-20" transform="translate(651.855469 0)"/>
       <use xlink:href="#ArialNarrow-76" transform="translate(674.658203 0)"/>
       <use xlink:href="#ArialNarrow-65" transform="translate(715.673828 0)"/>
       <use xlink:href="#ArialNarrow-67" transform="translate(761.279297 0)"/>
       <use xlink:href="#ArialNarrow-65" transform="translate(806.884766 0)"/>
       <use xlink:href="#ArialNarrow-74" transform="translate(852.490234 0)"/>
       <use xlink:href="#ArialNarrow-61" transform="translate(875.292969 0)"/>
       <use xlink:href="#ArialNarrow-74" transform="translate(920.898438 0)"/>
       <use xlink:href="#ArialNarrow-69" transform="translate(943.701172 0)"/>
       <use xlink:href="#ArialNarrow-76" transform="translate(961.914062 0)"/>
       <use xlink:href="#ArialNarrow-65" transform="translate(1002.929688 0)"/>
       <use xlink:href="#ArialNarrow-20" transform="translate(1048.535156 0)"/>
       <use xlink:href="#ArialNarrow-63" transform="translate(1071.337891 0)"/>
       <use xlink:href="#ArialNarrow-65" transform="translate(1112.353516 0)"/>
       <use xlink:href="#ArialNarrow-6c" transform="translate(1157.958984 0)"/>
       <use xlink:href="#ArialNarrow-6c" transform="translate(1176.171875 0)"/>
       <use xlink:href="#ArialNarrow-20" transform="translate(1194.384766 0)"/>
       <use xlink:href="#ArialNarrow-70" transform="translate(1217.1875 0)"/>
       <use xlink:href="#ArialNarrow-6f" transform="translate(1262.792969 0)"/>
       <use xlink:href="#ArialNarrow-70" transform="translate(1308.398438 0)"/>
       <use xlink:href="#ArialNarrow-2e" transform="translate(1354.003906 0)"/>
       <use xlink:href="#ArialNarrow-20" transform="translate(1376.806641 0)"/>
       <use xlink:href="#ArialNarrow-67" transform="translate(1399.609375 0)"/>
       <use xlink:href="#ArialNarrow-72" transform="translate(1445.214844 0)"/>
       <use xlink:href="#ArialNarrow-6f" transform="translate(1472.509766 0)"/>
       <use xlink:href="#ArialNarrow-77" transform="translate(1518.115234 0)"/>
       <use xlink:href="#ArialNarrow-74" transform="translate(1577.294922 0)"/>
       <use xlink:href="#ArialNarrow-68" transform="translate(1600.097656 0)"/>
      </g>
     </g>
    </g>
    <g id="ytick_2">
     <g id="line2d_9">
      <g>
       <use xlink:href="#ma80e76a22e" x="363.4" y="311.14202" style="stroke: #000000; stroke-width: 0.8"/>
      </g>
     </g>
     <g id="text_10">
      <!-- GO: biosynthetic process -->
      <g transform="translate(163.974375 318.792255) scale(0.21 -0.21)">
       <defs>
        <path id="ArialNarrow-47" d="M 2175 1797 
L 2175 2334 
L 3766 2338 
L 3766 638 
Q 3400 281 3009 101 
Q 2619 -78 2206 -78 
Q 1656 -78 1225 197 
Q 794 472 542 1000 
Q 291 1528 291 2269 
Q 291 3019 544 3575 
Q 797 4131 1206 4395 
Q 1616 4659 2175 4659 
Q 2588 4659 2897 4506 
Q 3206 4353 3406 4072 
Q 3606 3791 3706 3300 
L 3259 3150 
Q 3169 3538 3031 3730 
Q 2894 3922 2669 4031 
Q 2444 4141 2163 4141 
Q 1753 4141 1458 3942 
Q 1163 3744 983 3325 
Q 803 2906 803 2303 
Q 803 1384 1187 926 
Q 1572 469 2188 469 
Q 2481 469 2789 609 
Q 3097 750 3278 944 
L 3278 1797 
L 2175 1797 
z
" transform="scale(0.015625)"/>
        <path id="ArialNarrow-62" d="M 763 0 
L 334 0 
L 334 4581 
L 794 4581 
L 794 2947 
Q 941 3172 1127 3283 
Q 1313 3394 1541 3394 
Q 1859 3394 2120 3203 
Q 2381 3013 2537 2625 
Q 2694 2238 2694 1684 
Q 2694 841 2341 383 
Q 1988 -75 1516 -75 
Q 1278 -75 1089 48 
Q 900 172 763 416 
L 763 0 
z
M 756 1684 
Q 756 1169 850 912 
Q 944 656 1116 522 
Q 1288 388 1497 388 
Q 1781 388 2001 708 
Q 2222 1028 2222 1666 
Q 2222 2319 2009 2625 
Q 1797 2931 1488 2931 
Q 1203 2931 979 2611 
Q 756 2291 756 1684 
z
" transform="scale(0.015625)"/>
        <path id="ArialNarrow-79" d="M 325 -1278 
L 275 -750 
Q 428 -800 538 -800 
Q 684 -800 779 -740 
Q 875 -681 938 -556 
Q 959 -513 1119 -6 
L 84 3319 
L 581 3319 
L 1150 1397 
Q 1256 1038 1347 628 
Q 1425 1016 1534 1384 
L 2116 3319 
L 2578 3319 
L 1544 -56 
Q 1341 -713 1223 -933 
Q 1106 -1153 957 -1250 
Q 809 -1347 622 -1347 
Q 491 -1347 325 -1278 
z
" transform="scale(0.015625)"/>
        <path id="ArialNarrow-6e" d="M 338 0 
L 338 3319 
L 753 3319 
L 753 2847 
Q 903 3122 1120 3258 
Q 1338 3394 1619 3394 
Q 1838 3394 2023 3308 
Q 2209 3222 2323 3083 
Q 2438 2944 2494 2722 
Q 2550 2500 2550 2041 
L 2550 0 
L 2088 0 
L 2088 2019 
Q 2088 2384 2025 2553 
Q 1963 2722 1830 2814 
Q 1697 2906 1522 2906 
Q 1191 2906 994 2659 
Q 797 2413 797 1813 
L 797 0 
L 338 0 
z
" transform="scale(0.015625)"/>
       </defs>
       <use xlink:href="#ArialNarrow-47"/>
       <use xlink:href="#ArialNarrow-4f" transform="translate(63.818359 0)"/>
       <use xlink:href="#ArialNarrow-3a" transform="translate(127.636719 0)"/>
       <use xlink:href="#ArialNarrow-20" transform="translate(150.439453 0)"/>
       <use xlink:href="#ArialNarrow-62" transform="translate(173.242188 0)"/>
       <use xlink:href="#ArialNarrow-69" transform="translate(218.847656 0)"/>
       <use xlink:href="#ArialNarrow-6f" transform="translate(237.060547 0)"/>
       <use xlink:href="#ArialNarrow-73" transform="translate(282.666016 0)"/>
       <use xlink:href="#ArialNarrow-79" transform="translate(323.681641 0)"/>
       <use xlink:href="#ArialNarrow-6e" transform="translate(364.697266 0)"/>
       <use xlink:href="#ArialNarrow-74" transform="translate(410.302734 0)"/>
       <use xlink:href="#ArialNarrow-68" transform="translate(433.105469 0)"/>
       <use xlink:href="#ArialNarrow-65" transform="translate(478.710938 0)"/>
       <use xlink:href="#ArialNarrow-74" transform="translate(524.316406 0)"/>
       <use xlink:href="#ArialNarrow-69" transform="translate(547.119141 0)"/>
       <use xlink:href="#ArialNarrow-63" transform="translate(565.332031 0)"/>
       <use xlink:href="#ArialNarrow-20" transform="translate(606.347656 0)"/>
       <use xlink:href="#ArialNarrow-70" transform="translate(629.150391 0)"/>
       <use xlink:href="#ArialNarrow-72" transform="translate(674.755859 0)"/>
       <use xlink:href="#ArialNarrow-6f" transform="translate(702.050781 0)"/>
       <use xlink:href="#ArialNarrow-63" transform="translate(747.65625 0)"/>
       <use xlink:href="#ArialNarrow-65" transform="translate(788.671875 0)"/>
       <use xlink:href="#ArialNarrow-73" transform="translate(834.277344 0)"/>
       <use xlink:href="#ArialNarrow-73" transform="translate(875.292969 0)"/>
      </g>
     </g>
    </g>
    <g id="ytick_3">
     <g id="line2d_10">
      <g>
       <use xlink:href="#ma80e76a22e" x="363.4" y="275.598586" style="stroke: #000000; stroke-width: 0.8"/>
      </g>
     </g>
     <g id="text_11">
      <!-- FYPO: decreased cell pop. growth -->
      <g transform="translate(94.100156 283.24882) scale(0.21 -0.21)">
       <use xlink:href="#ArialNarrow-46"/>
       <use xlink:href="#ArialNarrow-59" transform="translate(50.097656 0)"/>
       <use xlink:href="#ArialNarrow-50" transform="translate(104.785156 0)"/>
       <use xlink:href="#ArialNarrow-4f" transform="translate(159.472656 0)"/>
       <use xlink:href="#ArialNarrow-3a" transform="translate(223.291016 0)"/>
       <use xlink:href="#ArialNarrow-20" transform="translate(246.09375 0)"/>
       <use xlink:href="#ArialNarrow-64" transform="translate(268.896484 0)"/>
       <use xlink:href="#ArialNarrow-65" transform="translate(314.501953 0)"/>
       <use xlink:href="#ArialNarrow-63" transform="translate(360.107422 0)"/>
       <use xlink:href="#ArialNarrow-72" transform="translate(401.123047 0)"/>
       <use xlink:href="#ArialNarrow-65" transform="translate(428.417969 0)"/>
       <use xlink:href="#ArialNarrow-61" transform="translate(474.023438 0)"/>
       <use xlink:href="#ArialNarrow-73" transform="translate(519.628906 0)"/>
       <use xlink:href="#ArialNarrow-65" transform="translate(560.644531 0)"/>
       <use xlink:href="#ArialNarrow-64" transform="translate(606.25 0)"/>
       <use xlink:href="#ArialNarrow-20" transform="translate(651.855469 0)"/>
       <use xlink:href="#ArialNarrow-63" transform="translate(674.658203 0)"/>
       <use xlink:href="#ArialNarrow-65" transform="translate(715.673828 0)"/>
       <use xlink:href="#ArialNarrow-6c" transform="translate(761.279297 0)"/>
       <use xlink:href="#ArialNarrow-6c" transform="translate(779.492188 0)"/>
       <use xlink:href="#ArialNarrow-20" transform="translate(797.705078 0)"/>
       <use xlink:href="#ArialNarrow-70" transform="translate(820.507812 0)"/>
       <use xlink:href="#ArialNarrow-6f" transform="translate(866.113281 0)"/>
       <use xlink:href="#ArialNarrow-70" transform="translate(911.71875 0)"/>
       <use xlink:href="#ArialNarrow-2e" transform="translate(957.324219 0)"/>
       <use xlink:href="#ArialNarrow-20" transform="translate(980.126953 0)"/>
       <use xlink:href="#ArialNarrow-67" transform="translate(1002.929688 0)"/>
       <use xlink:href="#ArialNarrow-72" transform="translate(1048.535156 0)"/>
       <use xlink:href="#ArialNarrow-6f" transform="translate(1075.830078 0)"/>
       <use xlink:href="#ArialNarrow-77" transform="translate(1121.435547 0)"/>
       <use xlink:href="#ArialNarrow-74" transform="translate(1180.615234 0)"/>
       <use xlink:href="#ArialNarrow-68" transform="translate(1203.417969 0)"/>
      </g>
     </g>
    </g>
    <g id="ytick_4">
     <g id="line2d_11">
      <g>
       <use xlink:href="#ma80e76a22e" x="363.4" y="240.055152" style="stroke: #000000; stroke-width: 0.8"/>
      </g>
     </g>
     <g id="text_12">
      <!-- GO: gene expression -->
      <g transform="translate(193.636875 247.705386) scale(0.21 -0.21)">
       <defs>
        <path id="ArialNarrow-78" d="M 38 0 
L 1031 1725 
L 113 3319 
L 688 3319 
L 1106 2541 
Q 1222 2325 1297 2169 
Q 1413 2381 1503 2534 
L 1963 3319 
L 2513 3319 
L 1572 1756 
L 2584 0 
L 2019 0 
L 1459 1031 
L 1313 1309 
L 597 0 
L 38 0 
z
" transform="scale(0.015625)"/>
       </defs>
       <use xlink:href="#ArialNarrow-47"/>
       <use xlink:href="#ArialNarrow-4f" transform="translate(63.818359 0)"/>
       <use xlink:href="#ArialNarrow-3a" transform="translate(127.636719 0)"/>
       <use xlink:href="#ArialNarrow-20" transform="translate(150.439453 0)"/>
       <use xlink:href="#ArialNarrow-67" transform="translate(173.242188 0)"/>
       <use xlink:href="#ArialNarrow-65" transform="translate(218.847656 0)"/>
       <use xlink:href="#ArialNarrow-6e" transform="translate(264.453125 0)"/>
       <use xlink:href="#ArialNarrow-65" transform="translate(310.058594 0)"/>
       <use xlink:href="#ArialNarrow-20" transform="translate(355.664062 0)"/>
       <use xlink:href="#ArialNarrow-65" transform="translate(378.466797 0)"/>
       <use xlink:href="#ArialNarrow-78" transform="translate(424.072266 0)"/>
       <use xlink:href="#ArialNarrow-70" transform="translate(465.087891 0)"/>
       <use xlink:href="#ArialNarrow-72" transform="translate(510.693359 0)"/>
       <use xlink:href="#ArialNarrow-65" transform="translate(537.988281 0)"/>
       <use xlink:href="#ArialNarrow-73" transform="translate(583.59375 0)"/>
       <use xlink:href="#ArialNarrow-73" transform="translate(624.609375 0)"/>
       <use xlink:href="#ArialNarrow-69" transform="translate(665.625 0)"/>
       <use xlink:href="#ArialNarrow-6f" transform="translate(683.837891 0)"/>
       <use xlink:href="#ArialNarrow-6e" transform="translate(729.443359 0)"/>
      </g>
     </g>
    </g>
    <g id="ytick_5">
     <g id="line2d_12">
      <g>
       <use xlink:href="#ma80e76a22e" x="363.4" y="204.511717" style="stroke: #000000; stroke-width: 0.8"/>
      </g>
     </g>
     <g id="text_13">
      <!-- FYPO: slow vegetative cell pop. growth -->
      <g transform="translate(56.775937 212.161952) scale(0.21 -0.21)">
       <use xlink:href="#ArialNarrow-46"/>
       <use xlink:href="#ArialNarrow-59" transform="translate(50.097656 0)"/>
       <use xlink:href="#ArialNarrow-50" transform="translate(104.785156 0)"/>
       <use xlink:href="#ArialNarrow-4f" transform="translate(159.472656 0)"/>
       <use xlink:href="#ArialNarrow-3a" transform="translate(223.291016 0)"/>
       <use xlink:href="#ArialNarrow-20" transform="translate(246.09375 0)"/>
       <use xlink:href="#ArialNarrow-73" transform="translate(268.896484 0)"/>
       <use xlink:href="#ArialNarrow-6c" transform="translate(309.912109 0)"/>
       <use xlink:href="#ArialNarrow-6f" transform="translate(328.125 0)"/>
       <use xlink:href="#ArialNarrow-77" transform="translate(373.730469 0)"/>
       <use xlink:href="#ArialNarrow-20" transform="translate(432.910156 0)"/>
       <use xlink:href="#ArialNarrow-76" transform="translate(455.712891 0)"/>
       <use xlink:href="#ArialNarrow-65" transform="translate(496.728516 0)"/>
       <use xlink:href="#ArialNarrow-67" transform="translate(542.333984 0)"/>
       <use xlink:href="#ArialNarrow-65" transform="translate(587.939453 0)"/>
       <use xlink:href="#ArialNarrow-74" transform="translate(633.544922 0)"/>
       <use xlink:href="#ArialNarrow-61" transform="translate(656.347656 0)"/>
       <use xlink:href="#ArialNarrow-74" transform="translate(701.953125 0)"/>
       <use xlink:href="#ArialNarrow-69" transform="translate(724.755859 0)"/>
       <use xlink:href="#ArialNarrow-76" transform="translate(742.96875 0)"/>
       <use xlink:href="#ArialNarrow-65" transform="translate(783.984375 0)"/>
       <use xlink:href="#ArialNarrow-20" transform="translate(829.589844 0)"/>
       <use xlink:href="#ArialNarrow-63" transform="translate(852.392578 0)"/>
       <use xlink:href="#ArialNarrow-65" transform="translate(893.408203 0)"/>
       <use xlink:href="#ArialNarrow-6c" transform="translate(939.013672 0)"/>
       <use xlink:href="#ArialNarrow-6c" transform="translate(957.226562 0)"/>
       <use xlink:href="#ArialNarrow-20" transform="translate(975.439453 0)"/>
       <use xlink:href="#ArialNarrow-70" transform="translate(998.242188 0)"/>
       <use xlink:href="#ArialNarrow-6f" transform="translate(1043.847656 0)"/>
       <use xlink:href="#ArialNarrow-70" transform="translate(1089.453125 0)"/>
       <use xlink:href="#ArialNarrow-2e" transform="translate(1135.058594 0)"/>
       <use xlink:href="#ArialNarrow-20" transform="translate(1157.861328 0)"/>
       <use xlink:href="#ArialNarrow-67" transform="translate(1180.664062 0)"/>
       <use xlink:href="#ArialNarrow-72" transform="translate(1226.269531 0)"/>
       <use xlink:href="#ArialNarrow-6f" transform="translate(1253.564453 0)"/>
       <use xlink:href="#ArialNarrow-77" transform="translate(1299.169922 0)"/>
       <use xlink:href="#ArialNarrow-74" transform="translate(1358.349609 0)"/>
       <use xlink:href="#ArialNarrow-68" transform="translate(1381.152344 0)"/>
      </g>
     </g>
    </g>
    <g id="ytick_6">
     <g id="line2d_13">
      <g>
       <use xlink:href="#ma80e76a22e" x="363.4" y="168.968283" style="stroke: #000000; stroke-width: 0.8"/>
      </g>
     </g>
     <g id="text_14">
      <!-- GEX: Ribosomal protein module 2 -->
      <g transform="translate(96.022969 176.611955) scale(0.21 -0.21)">
       <defs>
        <path id="ArialNarrow-45" d="M 416 0 
L 416 4581 
L 3131 4581 
L 3131 4041 
L 913 4041 
L 913 2638 
L 2991 2638 
L 2991 2100 
L 913 2100 
L 913 541 
L 3219 541 
L 3219 0 
L 416 0 
z
" transform="scale(0.015625)"/>
        <path id="ArialNarrow-58" d="M 25 0 
L 1478 2388 
L 197 4581 
L 788 4581 
L 1472 3406 
Q 1681 3044 1772 2844 
Q 1894 3088 2069 3366 
L 2828 4581 
L 3366 4581 
L 2047 2422 
L 3469 0 
L 2856 0 
L 1909 1634 
Q 1831 1772 1747 1941 
Q 1619 1691 1566 1597 
L 622 0 
L 25 0 
z
" transform="scale(0.015625)"/>
        <path id="ArialNarrow-52" d="M 403 0 
L 403 4581 
L 2069 4581 
Q 2591 4581 2839 4453 
Q 3088 4325 3247 4026 
Q 3406 3728 3406 3334 
Q 3406 2816 3136 2494 
Q 2866 2172 2350 2084 
Q 2559 1959 2669 1831 
Q 2891 1569 3059 1247 
L 3716 0 
L 3091 0 
L 2591 953 
Q 2300 1513 2151 1706 
Q 2003 1900 1864 1967 
Q 1725 2034 1475 2034 
L 900 2034 
L 900 0 
L 403 0 
z
M 900 2559 
L 1969 2559 
Q 2319 2559 2500 2643 
Q 2681 2728 2787 2909 
Q 2894 3091 2894 3331 
Q 2894 3678 2691 3876 
Q 2488 4075 2088 4075 
L 900 4075 
L 900 2559 
z
" transform="scale(0.015625)"/>
        <path id="ArialNarrow-6d" d="M 344 0 
L 344 3319 
L 756 3319 
L 756 2853 
Q 894 3113 1109 3253 
Q 1325 3394 1581 3394 
Q 1869 3394 2067 3245 
Q 2266 3097 2350 2813 
Q 2513 3103 2723 3248 
Q 2934 3394 3191 3394 
Q 3581 3394 3806 3128 
Q 4031 2863 4031 2278 
L 4031 0 
L 3572 0 
L 3572 2091 
Q 3572 2447 3520 2595 
Q 3469 2744 3353 2825 
Q 3238 2906 3094 2906 
Q 2797 2906 2609 2670 
Q 2422 2434 2422 1928 
L 2422 0 
L 1959 0 
L 1959 2156 
Q 1959 2569 1832 2737 
Q 1706 2906 1484 2906 
Q 1169 2906 986 2651 
Q 803 2397 803 1722 
L 803 0 
L 344 0 
z
" transform="scale(0.015625)"/>
        <path id="ArialNarrow-75" d="M 2122 0 
L 2122 488 
Q 1963 206 1747 65 
Q 1531 -75 1259 -75 
Q 938 -75 709 98 
Q 481 272 404 537 
Q 328 803 328 1263 
L 328 3319 
L 788 3319 
L 788 1478 
Q 788 966 839 792 
Q 891 619 1030 514 
Q 1169 409 1347 409 
Q 1678 409 1891 681 
Q 2072 916 2072 1541 
L 2072 3319 
L 2534 3319 
L 2534 0 
L 2122 0 
z
" transform="scale(0.015625)"/>
        <path id="ArialNarrow-32" d="M 2641 541 
L 2641 0 
L 156 0 
Q 147 328 355 734 
Q 563 1141 1116 1694 
Q 1763 2338 1963 2689 
Q 2163 3041 2163 3344 
Q 2163 3694 1958 3914 
Q 1753 4134 1453 4134 
Q 1131 4134 925 3896 
Q 719 3659 719 3216 
L 244 3275 
Q 294 3934 617 4267 
Q 941 4600 1469 4600 
Q 2044 4600 2339 4212 
Q 2634 3825 2634 3331 
Q 2634 2894 2403 2492 
Q 2172 2091 1525 1422 
Q 1113 1000 992 847 
Q 872 694 797 541 
L 2641 541 
z
" transform="scale(0.015625)"/>
       </defs>
       <use xlink:href="#ArialNarrow-47"/>
       <use xlink:href="#ArialNarrow-45" transform="translate(63.818359 0)"/>
       <use xlink:href="#ArialNarrow-58" transform="translate(118.505859 0)"/>
       <use xlink:href="#ArialNarrow-3a" transform="translate(173.193359 0)"/>
       <use xlink:href="#ArialNarrow-20" transform="translate(195.996094 0)"/>
       <use xlink:href="#ArialNarrow-52" transform="translate(218.798828 0)"/>
       <use xlink:href="#ArialNarrow-69" transform="translate(277.978516 0)"/>
       <use xlink:href="#ArialNarrow-62" transform="translate(296.191406 0)"/>
       <use xlink:href="#ArialNarrow-6f" transform="translate(341.796875 0)"/>
       <use xlink:href="#ArialNarrow-73" transform="translate(387.402344 0)"/>
       <use xlink:href="#ArialNarrow-6f" transform="translate(428.417969 0)"/>
       <use xlink:href="#ArialNarrow-6d" transform="translate(474.023438 0)"/>
       <use xlink:href="#ArialNarrow-61" transform="translate(542.333984 0)"/>
       <use xlink:href="#ArialNarrow-6c" transform="translate(587.939453 0)"/>
       <use xlink:href="#ArialNarrow-20" transform="translate(606.152344 0)"/>
       <use xlink:href="#ArialNarrow-70" transform="translate(628.955078 0)"/>
       <use xlink:href="#ArialNarrow-72" transform="translate(674.560547 0)"/>
       <use xlink:href="#ArialNarrow-6f" transform="translate(701.855469 0)"/>
       <use xlink:href="#ArialNarrow-74" transform="translate(747.460938 0)"/>
       <use xlink:href="#ArialNarrow-65" transform="translate(770.263672 0)"/>
       <use xlink:href="#ArialNarrow-69" transform="translate(815.869141 0)"/>
       <use xlink:href="#ArialNarrow-6e" transform="translate(834.082031 0)"/>
       <use xlink:href="#ArialNarrow-20" transform="translate(879.6875 0)"/>
       <use xlink:href="#ArialNarrow-6d" transform="translate(902.490234 0)"/>
       <use xlink:href="#ArialNarrow-6f" transform="translate(970.800781 0)"/>
       <use xlink:href="#ArialNarrow-64" transform="translate(1016.40625 0)"/>
       <use xlink:href="#ArialNarrow-75" transform="translate(1062.011719 0)"/>
       <use xlink:href="#ArialNarrow-6c" transform="translate(1107.617188 0)"/>
       <use xlink:href="#ArialNarrow-65" transform="translate(1125.830078 0)"/>
       <use xlink:href="#ArialNarrow-20" transform="translate(1171.435547 0)"/>
       <use xlink:href="#ArialNarrow-32" transform="translate(1194.238281 0)"/>
      </g>
     </g>
    </g>
    <g id="ytick_7">
     <g id="line2d_14">
      <g>
       <use xlink:href="#ma80e76a22e" x="363.4" y="133.424848" style="stroke: #000000; stroke-width: 0.8"/>
      </g>
     </g>
     <g id="text_15">
      <!-- GEX: Ribosomal protein module Homol D E -->
      <g transform="translate(22.355625 141.06852) scale(0.21 -0.21)">
       <defs>
        <path id="ArialNarrow-48" d="M 403 0 
L 403 4581 
L 900 4581 
L 900 2700 
L 2853 2700 
L 2853 4581 
L 3350 4581 
L 3350 0 
L 2853 0 
L 2853 2159 
L 900 2159 
L 900 0 
L 403 0 
z
" transform="scale(0.015625)"/>
        <path id="ArialNarrow-44" d="M 394 0 
L 394 4581 
L 1691 4581 
Q 2172 4581 2422 4497 
Q 2750 4388 2990 4097 
Q 3231 3806 3365 3364 
Q 3500 2922 3500 2316 
Q 3500 1538 3272 995 
Q 3044 453 2686 226 
Q 2328 0 1750 0 
L 394 0 
z
M 891 541 
L 1691 541 
Q 2175 541 2425 698 
Q 2675 856 2809 1206 
Q 2988 1672 2988 2322 
Q 2988 3019 2798 3417 
Q 2609 3816 2313 3950 
Q 2113 4041 1678 4041 
L 891 4041 
L 891 541 
z
" transform="scale(0.015625)"/>
       </defs>
       <use xlink:href="#ArialNarrow-47"/>
       <use xlink:href="#ArialNarrow-45" transform="translate(63.818359 0)"/>
       <use xlink:href="#ArialNarrow-58" transform="translate(118.505859 0)"/>
       <use xlink:href="#ArialNarrow-3a" transform="translate(173.193359 0)"/>
       <use xlink:href="#ArialNarrow-20" transform="translate(195.996094 0)"/>
       <use xlink:href="#ArialNarrow-52" transform="translate(218.798828 0)"/>
       <use xlink:href="#ArialNarrow-69" transform="translate(277.978516 0)"/>
       <use xlink:href="#ArialNarrow-62" transform="translate(296.191406 0)"/>
       <use xlink:href="#ArialNarrow-6f" transform="translate(341.796875 0)"/>
       <use xlink:href="#ArialNarrow-73" transform="translate(387.402344 0)"/>
       <use xlink:href="#ArialNarrow-6f" transform="translate(428.417969 0)"/>
       <use xlink:href="#ArialNarrow-6d" transform="translate(474.023438 0)"/>
       <use xlink:href="#ArialNarrow-61" transform="translate(542.333984 0)"/>
       <use xlink:href="#ArialNarrow-6c" transform="translate(587.939453 0)"/>
       <use xlink:href="#ArialNarrow-20" transform="translate(606.152344 0)"/>
       <use xlink:href="#ArialNarrow-70" transform="translate(628.955078 0)"/>
       <use xlink:href="#ArialNarrow-72" transform="translate(674.560547 0)"/>
       <use xlink:href="#ArialNarrow-6f" transform="translate(701.855469 0)"/>
       <use xlink:href="#ArialNarrow-74" transform="translate(747.460938 0)"/>
       <use xlink:href="#ArialNarrow-65" transform="translate(770.263672 0)"/>
       <use xlink:href="#ArialNarrow-69" transform="translate(815.869141 0)"/>
       <use xlink:href="#ArialNarrow-6e" transform="translate(834.082031 0)"/>
       <use xlink:href="#ArialNarrow-20" transform="translate(879.6875 0)"/>
       <use xlink:href="#ArialNarrow-6d" transform="translate(902.490234 0)"/>
       <use xlink:href="#ArialNarrow-6f" transform="translate(970.800781 0)"/>
       <use xlink:href="#ArialNarrow-64" transform="translate(1016.40625 0)"/>
       <use xlink:href="#ArialNarrow-75" transform="translate(1062.011719 0)"/>
       <use xlink:href="#ArialNarrow-6c" transform="translate(1107.617188 0)"/>
       <use xlink:href="#ArialNarrow-65" transform="translate(1125.830078 0)"/>
       <use xlink:href="#ArialNarrow-20" transform="translate(1171.435547 0)"/>
       <use xlink:href="#ArialNarrow-48" transform="translate(1194.238281 0)"/>
       <use xlink:href="#ArialNarrow-6f" transform="translate(1253.417969 0)"/>
       <use xlink:href="#ArialNarrow-6d" transform="translate(1299.023438 0)"/>
       <use xlink:href="#ArialNarrow-6f" transform="translate(1367.333984 0)"/>
       <use xlink:href="#ArialNarrow-6c" transform="translate(1412.939453 0)"/>
       <use xlink:href="#ArialNarrow-20" transform="translate(1431.152344 0)"/>
       <use xlink:href="#ArialNarrow-44" transform="translate(1453.955078 0)"/>
       <use xlink:href="#ArialNarrow-20" transform="translate(1513.134766 0)"/>
       <use xlink:href="#ArialNarrow-45" transform="translate(1535.9375 0)"/>
      </g>
     </g>
    </g>
    <g id="ytick_8">
     <g id="line2d_15">
      <g>
       <use xlink:href="#ma80e76a22e" x="363.4" y="97.881414" style="stroke: #000000; stroke-width: 0.8"/>
      </g>
     </g>
     <g id="text_16">
      <!-- GO: cytosolic ribosome -->
      <g transform="translate(178.359375 105.531649) scale(0.21 -0.21)">
       <use xlink:href="#ArialNarrow-47"/>
       <use xlink:href="#ArialNarrow-4f" transform="translate(63.818359 0)"/>
       <use xlink:href="#ArialNarrow-3a" transform="translate(127.636719 0)"/>
       <use xlink:href="#ArialNarrow-20" transform="translate(150.439453 0)"/>
       <use xlink:href="#ArialNarrow-63" transform="translate(173.242188 0)"/>
       <use xlink:href="#ArialNarrow-79" transform="translate(214.257812 0)"/>
       <use xlink:href="#ArialNarrow-74" transform="translate(255.273438 0)"/>
       <use xlink:href="#ArialNarrow-6f" transform="translate(278.076172 0)"/>
       <use xlink:href="#ArialNarrow-73" transform="translate(323.681641 0)"/>
       <use xlink:href="#ArialNarrow-6f" transform="translate(364.697266 0)"/>
       <use xlink:href="#ArialNarrow-6c" transform="translate(410.302734 0)"/>
       <use xlink:href="#ArialNarrow-69" transform="translate(428.515625 0)"/>
       <use xlink:href="#ArialNarrow-63" transform="translate(446.728516 0)"/>
       <use xlink:href="#ArialNarrow-20" transform="translate(487.744141 0)"/>
       <use xlink:href="#ArialNarrow-72" transform="translate(510.546875 0)"/>
       <use xlink:href="#ArialNarrow-69" transform="translate(537.841797 0)"/>
       <use xlink:href="#ArialNarrow-62" transform="translate(556.054688 0)"/>
       <use xlink:href="#ArialNarrow-6f" transform="translate(601.660156 0)"/>
       <use xlink:href="#ArialNarrow-73" transform="translate(647.265625 0)"/>
       <use xlink:href="#ArialNarrow-6f" transform="translate(688.28125 0)"/>
       <use xlink:href="#ArialNarrow-6d" transform="translate(733.886719 0)"/>
       <use xlink:href="#ArialNarrow-65" transform="translate(802.197266 0)"/>
      </g>
     </g>
    </g>
    <g id="ytick_9">
     <g id="line2d_16">
      <g>
       <use xlink:href="#ma80e76a22e" x="363.4" y="62.33798" style="stroke: #000000; stroke-width: 0.8"/>
      </g>
     </g>
     <g id="text_17">
      <!-- GO: large ribosomal subunit -->
      <g transform="translate(141.96375 69.988214) scale(0.21 -0.21)">
       <use xlink:href="#ArialNarrow-47"/>
       <use xlink:href="#ArialNarrow-4f" transform="translate(63.818359 0)"/>
       <use xlink:href="#ArialNarrow-3a" transform="translate(127.636719 0)"/>
       <use xlink:href="#ArialNarrow-20" transform="translate(150.439453 0)"/>
       <use xlink:href="#ArialNarrow-6c" transform="translate(173.242188 0)"/>
       <use xlink:href="#ArialNarrow-61" transform="translate(191.455078 0)"/>
       <use xlink:href="#ArialNarrow-72" transform="translate(237.060547 0)"/>
       <use xlink:href="#ArialNarrow-67" transform="translate(264.355469 0)"/>
       <use xlink:href="#ArialNarrow-65" transform="translate(309.960938 0)"/>
       <use xlink:href="#ArialNarrow-20" transform="translate(355.566406 0)"/>
       <use xlink:href="#ArialNarrow-72" transform="translate(378.369141 0)"/>
       <use xlink:href="#ArialNarrow-69" transform="translate(405.664062 0)"/>
       <use xlink:href="#ArialNarrow-62" transform="translate(423.876953 0)"/>
       <use xlink:href="#ArialNarrow-6f" transform="translate(469.482422 0)"/>
       <use xlink:href="#ArialNarrow-73" transform="translate(515.087891 0)"/>
       <use xlink:href="#ArialNarrow-6f" transform="translate(556.103516 0)"/>
       <use xlink:href="#ArialNarrow-6d" transform="translate(601.708984 0)"/>
       <use xlink:href="#ArialNarrow-61" transform="translate(670.019531 0)"/>
       <use xlink:href="#ArialNarrow-6c" transform="translate(715.625 0)"/>
       <use xlink:href="#ArialNarrow-20" transform="translate(733.837891 0)"/>
       <use xlink:href="#ArialNarrow-73" transform="translate(756.640625 0)"/>
       <use xlink:href="#ArialNarrow-75" transform="translate(797.65625 0)"/>
       <use xlink:href="#ArialNarrow-62" transform="translate(843.261719 0)"/>
       <use xlink:href="#ArialNarrow-75" transform="translate(888.867188 0)"/>
       <use xlink:href="#ArialNarrow-6e" transform="translate(934.472656 0)"/>
       <use xlink:href="#ArialNarrow-69" transform="translate(980.078125 0)"/>
       <use xlink:href="#ArialNarrow-74" transform="translate(998.291016 0)"/>
      </g>
     </g>
    </g>
    <g id="ytick_10">
     <g id="line2d_17">
      <g>
       <use xlink:href="#ma80e76a22e" x="363.4" y="26.794545" style="stroke: #000000; stroke-width: 0.8"/>
      </g>
     </g>
     <g id="text_18">
      <!-- GO: cytosolic large ribosomal subunit -->
      <g transform="translate(71.128125 34.44478) scale(0.21 -0.21)">
       <use xlink:href="#ArialNarrow-47"/>
       <use xlink:href="#ArialNarrow-4f" transform="translate(63.818359 0)"/>
       <use xlink:href="#ArialNarrow-3a" transform="translate(127.636719 0)"/>
       <use xlink:href="#ArialNarrow-20" transform="translate(150.439453 0)"/>
       <use xlink:href="#ArialNarrow-63" transform="translate(173.242188 0)"/>
       <use xlink:href="#ArialNarrow-79" transform="translate(214.257812 0)"/>
       <use xlink:href="#ArialNarrow-74" transform="translate(255.273438 0)"/>
       <use xlink:href="#ArialNarrow-6f" transform="translate(278.076172 0)"/>
       <use xlink:href="#ArialNarrow-73" transform="translate(323.681641 0)"/>
       <use xlink:href="#ArialNarrow-6f" transform="translate(364.697266 0)"/>
       <use xlink:href="#ArialNarrow-6c" transform="translate(410.302734 0)"/>
       <use xlink:href="#ArialNarrow-69" transform="translate(428.515625 0)"/>
       <use xlink:href="#ArialNarrow-63" transform="translate(446.728516 0)"/>
       <use xlink:href="#ArialNarrow-20" transform="translate(487.744141 0)"/>
       <use xlink:href="#ArialNarrow-6c" transform="translate(510.546875 0)"/>
       <use xlink:href="#ArialNarrow-61" transform="translate(528.759766 0)"/>
       <use xlink:href="#ArialNarrow-72" transform="translate(574.365234 0)"/>
       <use xlink:href="#ArialNarrow-67" transform="translate(601.660156 0)"/>
       <use xlink:href="#ArialNarrow-65" transform="translate(647.265625 0)"/>
       <use xlink:href="#ArialNarrow-20" transform="translate(692.871094 0)"/>
       <use xlink:href="#ArialNarrow-72" transform="translate(715.673828 0)"/>
       <use xlink:href="#ArialNarrow-69" transform="translate(742.96875 0)"/>
       <use xlink:href="#ArialNarrow-62" transform="translate(761.181641 0)"/>
       <use xlink:href="#ArialNarrow-6f" transform="translate(806.787109 0)"/>
       <use xlink:href="#ArialNarrow-73" transform="translate(852.392578 0)"/>
       <use xlink:href="#ArialNarrow-6f" transform="translate(893.408203 0)"/>
       <use xlink:href="#ArialNarrow-6d" transform="translate(939.013672 0)"/>
       <use xlink:href="#ArialNarrow-61" transform="translate(1007.324219 0)"/>
       <use xlink:href="#ArialNarrow-6c" transform="translate(1052.929688 0)"/>
       <use xlink:href="#ArialNarrow-20" transform="translate(1071.142578 0)"/>
       <use xlink:href="#ArialNarrow-73" transform="translate(1093.945312 0)"/>
       <use xlink:href="#ArialNarrow-75" transform="translate(1134.960938 0)"/>
       <use xlink:href="#ArialNarrow-62" transform="translate(1180.566406 0)"/>
       <use xlink:href="#ArialNarrow-75" transform="translate(1226.171875 0)"/>
       <use xlink:href="#ArialNarrow-6e" transform="translate(1271.777344 0)"/>
       <use xlink:href="#ArialNarrow-69" transform="translate(1317.382812 0)"/>
       <use xlink:href="#ArialNarrow-74" transform="translate(1335.595703 0)"/>
      </g>
     </g>
    </g>
   </g>
   <g id="line2d_18">
    <path d="M 379.118182 346.685455 
L 471.858649 346.685455 
" clip-path="url(#pdd3a9a1107)" style="fill: none; stroke: #006400; stroke-opacity: 0.640662; stroke-width: 5; stroke-linecap: square"/>
   </g>
   <g id="line2d_19">
    <path d="M 379.118182 311.14202 
L 472.315578 311.14202 
" clip-path="url(#pdd3a9a1107)" style="fill: none; stroke: #006400; stroke-width: 5; stroke-linecap: square"/>
   </g>
   <g id="line2d_20">
    <path d="M 379.118182 275.598586 
L 472.325994 275.598586 
" clip-path="url(#pdd3a9a1107)" style="fill: none; stroke: #006400; stroke-opacity: 0.656913; stroke-width: 5; stroke-linecap: square"/>
   </g>
   <g id="line2d_21">
    <path d="M 379.118182 240.055152 
L 475.856686 240.055152 
" clip-path="url(#pdd3a9a1107)" style="fill: none; stroke: #006400; stroke-opacity: 0.795943; stroke-width: 5; stroke-linecap: square"/>
   </g>
   <g id="line2d_22">
    <path d="M 379.118182 204.511717 
L 499.543231 204.511717 
" clip-path="url(#pdd3a9a1107)" style="fill: none; stroke: #006400; stroke-opacity: 0.549023; stroke-width: 5; stroke-linecap: square"/>
   </g>
   <g id="line2d_23">
    <path d="M 379.118182 168.968283 
L 543.18152 168.968283 
" clip-path="url(#pdd3a9a1107)" style="fill: none; stroke: #006400; stroke-opacity: 0.547807; stroke-width: 5; stroke-linecap: square"/>
   </g>
   <g id="line2d_24">
    <path d="M 379.118182 133.424848 
L 558.750617 133.424848 
" clip-path="url(#pdd3a9a1107)" style="fill: none; stroke: #006400; stroke-opacity: 0.549023; stroke-width: 5; stroke-linecap: square"/>
   </g>
   <g id="line2d_25">
    <path d="M 379.118182 97.881414 
L 586.030311 97.881414 
" clip-path="url(#pdd3a9a1107)" style="fill: none; stroke: #006400; stroke-opacity: 0.549023; stroke-width: 5; stroke-linecap: square"/>
   </g>
   <g id="line2d_26">
    <path d="M 379.118182 62.33798 
L 644.538977 62.33798 
" clip-path="url(#pdd3a9a1107)" style="fill: none; stroke: #006400; stroke-opacity: 0.548766; stroke-width: 5; stroke-linecap: square"/>
   </g>
   <g id="line2d_27">
    <path d="M 379.118182 26.794545 
L 693.481818 26.794545 
" clip-path="url(#pdd3a9a1107)" style="fill: none; stroke: #006400; stroke-opacity: 0.656913; stroke-width: 5; stroke-linecap: square"/>
   </g>
   <g id="patch_3">
    <path d="M 363.4 362.68 
L 363.4 10.8 
" style="fill: none; stroke: #000000; stroke-width: 0.8; stroke-linejoin: miter; stroke-linecap: square"/>
   </g>
   <g id="patch_4">
    <path d="M 709.2 362.68 
L 709.2 10.8 
" style="fill: none; stroke: #000000; stroke-width: 0.8; stroke-linejoin: miter; stroke-linecap: square"/>
   </g>
   <g id="patch_5">
    <path d="M 363.4 362.68 
L 709.2 362.68 
" style="fill: none; stroke: #000000; stroke-width: 0.8; stroke-linejoin: miter; stroke-linecap: square"/>
   </g>
   <g id="patch_6">
    <path d="M 363.4 10.8 
L 709.2 10.8 
" style="fill: none; stroke: #000000; stroke-width: 0.8; stroke-linejoin: miter; stroke-linecap: square"/>
   </g>
   <g id="legend_1">
    <g id="patch_7">
     <path d="M 464.44375 352.68 
L 695.2 352.68 
Q 699.2 352.68 699.2 348.68 
L 699.2 149.845625 
Q 699.2 145.845625 695.2 145.845625 
L 464.44375 145.845625 
Q 460.44375 145.845625 460.44375 149.845625 
L 460.44375 348.68 
Q 460.44375 352.68 464.44375 352.68 
z
" style="fill: #ffffff; opacity: 0.8; stroke: #cccccc; stroke-linejoin: miter"/>
    </g>
    <g id="patch_8">
     <path d="M 468.44375 169.145625 
L 508.44375 169.145625 
L 508.44375 153.845625 
L 468.44375 153.845625 
z
" style="fill: #006400; opacity: 0.547807; stroke: #006400; stroke-linejoin: miter"/>
    </g>
    <g id="text_19">
     <!-- P= 8.47e-05 -->
     <g transform="translate(524.44375 168.445625) scale(0.2 -0.2)">
      <defs>
       <path id="ArialMT-50" d="M 494 0 
L 494 4581 
L 2222 4581 
Q 2678 4581 2919 4538 
Q 3256 4481 3484 4323 
Q 3713 4166 3852 3881 
Q 3991 3597 3991 3256 
Q 3991 2672 3619 2267 
Q 3247 1863 2275 1863 
L 1100 1863 
L 1100 0 
L 494 0 
z
M 1100 2403 
L 2284 2403 
Q 2872 2403 3119 2622 
Q 3366 2841 3366 3238 
Q 3366 3525 3220 3729 
Q 3075 3934 2838 4000 
Q 2684 4041 2272 4041 
L 1100 4041 
L 1100 2403 
z
" transform="scale(0.015625)"/>
       <path id="ArialMT-3d" d="M 3381 2694 
L 356 2694 
L 356 3219 
L 3381 3219 
L 3381 2694 
z
M 3381 1303 
L 356 1303 
L 356 1828 
L 3381 1828 
L 3381 1303 
z
" transform="scale(0.015625)"/>
       <path id="ArialMT-38" d="M 1131 2484 
Q 781 2613 612 2850 
Q 444 3088 444 3419 
Q 444 3919 803 4259 
Q 1163 4600 1759 4600 
Q 2359 4600 2725 4251 
Q 3091 3903 3091 3403 
Q 3091 3084 2923 2848 
Q 2756 2613 2416 2484 
Q 2838 2347 3058 2040 
Q 3278 1734 3278 1309 
Q 3278 722 2862 322 
Q 2447 -78 1769 -78 
Q 1091 -78 675 323 
Q 259 725 259 1325 
Q 259 1772 486 2073 
Q 713 2375 1131 2484 
z
M 1019 3438 
Q 1019 3113 1228 2906 
Q 1438 2700 1772 2700 
Q 2097 2700 2305 2904 
Q 2513 3109 2513 3406 
Q 2513 3716 2298 3927 
Q 2084 4138 1766 4138 
Q 1444 4138 1231 3931 
Q 1019 3725 1019 3438 
z
M 838 1322 
Q 838 1081 952 856 
Q 1066 631 1291 507 
Q 1516 384 1775 384 
Q 2178 384 2440 643 
Q 2703 903 2703 1303 
Q 2703 1709 2433 1975 
Q 2163 2241 1756 2241 
Q 1359 2241 1098 1978 
Q 838 1716 838 1322 
z
" transform="scale(0.015625)"/>
       <path id="ArialMT-2e" d="M 581 0 
L 581 641 
L 1222 641 
L 1222 0 
L 581 0 
z
" transform="scale(0.015625)"/>
       <path id="ArialMT-37" d="M 303 3981 
L 303 4522 
L 3269 4522 
L 3269 4084 
Q 2831 3619 2401 2847 
Q 1972 2075 1738 1259 
Q 1569 684 1522 0 
L 944 0 
Q 953 541 1156 1306 
Q 1359 2072 1739 2783 
Q 2119 3494 2547 3981 
L 303 3981 
z
" transform="scale(0.015625)"/>
       <path id="ArialMT-2d" d="M 203 1375 
L 203 1941 
L 1931 1941 
L 1931 1375 
L 203 1375 
z
" transform="scale(0.015625)"/>
      </defs>
      <use xlink:href="#ArialMT-50"/>
      <use xlink:href="#ArialMT-3d" transform="translate(66.699219 0)"/>
      <use xlink:href="#ArialMT-20" transform="translate(125.097656 0)"/>
      <use xlink:href="#ArialMT-38" transform="translate(152.880859 0)"/>
      <use xlink:href="#ArialMT-2e" transform="translate(208.496094 0)"/>
      <use xlink:href="#ArialMT-34" transform="translate(236.279297 0)"/>
      <use xlink:href="#ArialMT-37" transform="translate(291.894531 0)"/>
      <use xlink:href="#ArialMT-65" transform="translate(347.509766 0)"/>
      <use xlink:href="#ArialMT-2d" transform="translate(403.125 0)"/>
      <use xlink:href="#ArialMT-30" transform="translate(436.425781 0)"/>
      <use xlink:href="#ArialMT-35" transform="translate(492.041016 0)"/>
     </g>
    </g>
    <g id="patch_9">
     <path d="M 468.44375 193.720625 
L 508.44375 193.720625 
L 508.44375 178.420625 
L 468.44375 178.420625 
z
" style="fill: #006400; opacity: 0.773903; stroke: #006400; stroke-linejoin: miter"/>
    </g>
    <g id="text_20">
     <!-- P= 1.77e-06 -->
     <g transform="translate(524.44375 193.020625) scale(0.2 -0.2)">
      <use xlink:href="#ArialMT-50"/>
      <use xlink:href="#ArialMT-3d" transform="translate(66.699219 0)"/>
      <use xlink:href="#ArialMT-20" transform="translate(125.097656 0)"/>
      <use xlink:href="#ArialMT-31" transform="translate(152.880859 0)"/>
      <use xlink:href="#ArialMT-2e" transform="translate(208.496094 0)"/>
      <use xlink:href="#ArialMT-37" transform="translate(236.279297 0)"/>
      <use xlink:href="#ArialMT-37" transform="translate(291.894531 0)"/>
      <use xlink:href="#ArialMT-65" transform="translate(347.509766 0)"/>
      <use xlink:href="#ArialMT-2d" transform="translate(403.125 0)"/>
      <use xlink:href="#ArialMT-30" transform="translate(436.425781 0)"/>
      <use xlink:href="#ArialMT-36" transform="translate(492.041016 0)"/>
     </g>
    </g>
    <g id="patch_10">
     <path d="M 468.44375 218.295625 
L 508.44375 218.295625 
L 508.44375 202.995625 
L 468.44375 202.995625 
z
" style="fill: #006400; stroke: #006400; stroke-linejoin: miter"/>
    </g>
    <g id="text_21">
     <!-- P= 3.68e-08 -->
     <g transform="translate(524.44375 217.595625) scale(0.2 -0.2)">
      <use xlink:href="#ArialMT-50"/>
      <use xlink:href="#ArialMT-3d" transform="translate(66.699219 0)"/>
      <use xlink:href="#ArialMT-20" transform="translate(125.097656 0)"/>
      <use xlink:href="#ArialMT-33" transform="translate(152.880859 0)"/>
      <use xlink:href="#ArialMT-2e" transform="translate(208.496094 0)"/>
      <use xlink:href="#ArialMT-36" transform="translate(236.279297 0)"/>
      <use xlink:href="#ArialMT-38" transform="translate(291.894531 0)"/>
      <use xlink:href="#ArialMT-65" transform="translate(347.509766 0)"/>
      <use xlink:href="#ArialMT-2d" transform="translate(403.125 0)"/>
      <use xlink:href="#ArialMT-30" transform="translate(436.425781 0)"/>
      <use xlink:href="#ArialMT-38" transform="translate(492.041016 0)"/>
     </g>
    </g>
    <g id="PathCollection_5">
     <defs>
      <path id="mbba37c81ad" d="M 0 5 
C 1.326016 5 2.597899 4.473168 3.535534 3.535534 
C 4.473168 2.597899 5 1.326016 5 0 
C 5 -1.326016 4.473168 -2.597899 3.535534 -3.535534 
C 2.597899 -4.473168 1.326016 -5 0 -5 
C -1.326016 -5 -2.597899 -4.473168 -3.535534 -3.535534 
C -4.473168 -2.597899 -5 -1.326016 -5 0 
C -5 1.326016 -4.473168 2.597899 -3.535534 3.535534 
C -2.597899 4.473168 -1.326016 5 0 5 
z
" style="stroke: #006400"/>
     </defs>
     <g>
      <use xlink:href="#mbba37c81ad" x="488.44375" y="236.433125" style="fill: #006400; stroke: #006400"/>
     </g>
    </g>
    <g id="text_22">
     <!-- Gene set size: 100 -->
     <g transform="translate(524.44375 242.170625) scale(0.2 -0.2)">
      <defs>
       <path id="ArialMT-47" d="M 2638 1797 
L 2638 2334 
L 4578 2338 
L 4578 638 
Q 4131 281 3656 101 
Q 3181 -78 2681 -78 
Q 2006 -78 1454 211 
Q 903 500 622 1047 
Q 341 1594 341 2269 
Q 341 2938 620 3517 
Q 900 4097 1425 4378 
Q 1950 4659 2634 4659 
Q 3131 4659 3532 4498 
Q 3934 4338 4162 4050 
Q 4391 3763 4509 3300 
L 3963 3150 
Q 3859 3500 3706 3700 
Q 3553 3900 3268 4020 
Q 2984 4141 2638 4141 
Q 2222 4141 1919 4014 
Q 1616 3888 1430 3681 
Q 1244 3475 1141 3228 
Q 966 2803 966 2306 
Q 966 1694 1177 1281 
Q 1388 869 1791 669 
Q 2194 469 2647 469 
Q 3041 469 3416 620 
Q 3791 772 3984 944 
L 3984 1797 
L 2638 1797 
z
" transform="scale(0.015625)"/>
       <path id="ArialMT-73" d="M 197 991 
L 753 1078 
Q 800 744 1014 566 
Q 1228 388 1613 388 
Q 2000 388 2187 545 
Q 2375 703 2375 916 
Q 2375 1106 2209 1216 
Q 2094 1291 1634 1406 
Q 1016 1563 777 1677 
Q 538 1791 414 1992 
Q 291 2194 291 2438 
Q 291 2659 392 2848 
Q 494 3038 669 3163 
Q 800 3259 1026 3326 
Q 1253 3394 1513 3394 
Q 1903 3394 2198 3281 
Q 2494 3169 2634 2976 
Q 2775 2784 2828 2463 
L 2278 2388 
Q 2241 2644 2061 2787 
Q 1881 2931 1553 2931 
Q 1166 2931 1000 2803 
Q 834 2675 834 2503 
Q 834 2394 903 2306 
Q 972 2216 1119 2156 
Q 1203 2125 1616 2013 
Q 2213 1853 2448 1751 
Q 2684 1650 2818 1456 
Q 2953 1263 2953 975 
Q 2953 694 2789 445 
Q 2625 197 2315 61 
Q 2006 -75 1616 -75 
Q 969 -75 630 194 
Q 291 463 197 991 
z
" transform="scale(0.015625)"/>
       <path id="ArialMT-7a" d="M 125 0 
L 125 456 
L 2238 2881 
Q 1878 2863 1603 2863 
L 250 2863 
L 250 3319 
L 2963 3319 
L 2963 2947 
L 1166 841 
L 819 456 
Q 1197 484 1528 484 
L 3063 484 
L 3063 0 
L 125 0 
z
" transform="scale(0.015625)"/>
       <path id="ArialMT-3a" d="M 578 2678 
L 578 3319 
L 1219 3319 
L 1219 2678 
L 578 2678 
z
M 578 0 
L 578 641 
L 1219 641 
L 1219 0 
L 578 0 
z
" transform="scale(0.015625)"/>
      </defs>
      <use xlink:href="#ArialMT-47"/>
      <use xlink:href="#ArialMT-65" transform="translate(77.783203 0)"/>
      <use xlink:href="#ArialMT-6e" transform="translate(133.398438 0)"/>
      <use xlink:href="#ArialMT-65" transform="translate(189.013672 0)"/>
      <use xlink:href="#ArialMT-20" transform="translate(244.628906 0)"/>
      <use xlink:href="#ArialMT-73" transform="translate(272.412109 0)"/>
      <use xlink:href="#ArialMT-65" transform="translate(322.412109 0)"/>
      <use xlink:href="#ArialMT-74" transform="translate(378.027344 0)"/>
      <use xlink:href="#ArialMT-20" transform="translate(405.810547 0)"/>
      <use xlink:href="#ArialMT-73" transform="translate(433.59375 0)"/>
      <use xlink:href="#ArialMT-69" transform="translate(483.59375 0)"/>
      <use xlink:href="#ArialMT-7a" transform="translate(505.810547 0)"/>
      <use xlink:href="#ArialMT-65" transform="translate(555.810547 0)"/>
      <use xlink:href="#ArialMT-3a" transform="translate(611.425781 0)"/>
      <use xlink:href="#ArialMT-20" transform="translate(639.208984 0)"/>
      <use xlink:href="#ArialMT-31" transform="translate(666.992188 0)"/>
      <use xlink:href="#ArialMT-30" transform="translate(722.607422 0)"/>
      <use xlink:href="#ArialMT-30" transform="translate(778.222656 0)"/>
     </g>
    </g>
    <g id="PathCollection_6">
     <defs>
      <path id="me90d6c023a" d="M 0 7.071068 
C 1.875269 7.071068 3.673985 6.326016 5 5 
C 6.326016 3.673985 7.071068 1.875269 7.071068 0 
C 7.071068 -1.875269 6.326016 -3.673985 5 -5 
C 3.673985 -6.326016 1.875269 -7.071068 0 -7.071068 
C -1.875269 -7.071068 -3.673985 -6.326016 -5 -5 
C -6.326016 -3.673985 -7.071068 -1.875269 -7.071068 0 
C -7.071068 1.875269 -6.326016 3.673985 -5 5 
C -3.673985 6.326016 -1.875269 7.071068 0 7.071068 
z
" style="stroke: #006400"/>
     </defs>
     <g>
      <use xlink:href="#me90d6c023a" x="488.44375" y="261.008125" style="fill: #006400; stroke: #006400"/>
     </g>
    </g>
    <g id="text_23">
     <!-- Gene set size: 200 -->
     <g transform="translate(524.44375 266.745625) scale(0.2 -0.2)">
      <use xlink:href="#ArialMT-47"/>
      <use xlink:href="#ArialMT-65" transform="translate(77.783203 0)"/>
      <use xlink:href="#ArialMT-6e" transform="translate(133.398438 0)"/>
      <use xlink:href="#ArialMT-65" transform="translate(189.013672 0)"/>
      <use xlink:href="#ArialMT-20" transform="translate(244.628906 0)"/>
      <use xlink:href="#ArialMT-73" transform="translate(272.412109 0)"/>
      <use xlink:href="#ArialMT-65" transform="translate(322.412109 0)"/>
      <use xlink:href="#ArialMT-74" transform="translate(378.027344 0)"/>
      <use xlink:href="#ArialMT-20" transform="translate(405.810547 0)"/>
      <use xlink:href="#ArialMT-73" transform="translate(433.59375 0)"/>
      <use xlink:href="#ArialMT-69" transform="translate(483.59375 0)"/>
      <use xlink:href="#ArialMT-7a" transform="translate(505.810547 0)"/>
      <use xlink:href="#ArialMT-65" transform="translate(555.810547 0)"/>
      <use xlink:href="#ArialMT-3a" transform="translate(611.425781 0)"/>
      <use xlink:href="#ArialMT-20" transform="translate(639.208984 0)"/>
      <use xlink:href="#ArialMT-32" transform="translate(666.992188 0)"/>
      <use xlink:href="#ArialMT-30" transform="translate(722.607422 0)"/>
      <use xlink:href="#ArialMT-30" transform="translate(778.222656 0)"/>
     </g>
    </g>
    <g id="PathCollection_7">
     <defs>
      <path id="m4eb0b33834" d="M 0 11.18034 
C 2.965061 11.18034 5.80908 10.002309 7.905694 7.905694 
C 10.002309 5.80908 11.18034 2.965061 11.18034 0 
C 11.18034 -2.965061 10.002309 -5.80908 7.905694 -7.905694 
C 5.80908 -10.002309 2.965061 -11.18034 0 -11.18034 
C -2.965061 -11.18034 -5.80908 -10.002309 -7.905694 -7.905694 
C -10.002309 -5.80908 -11.18034 -2.965061 -11.18034 0 
C -11.18034 2.965061 -10.002309 5.80908 -7.905694 7.905694 
C -5.80908 10.002309 -2.965061 11.18034 0 11.18034 
z
" style="stroke: #006400"/>
     </defs>
     <g>
      <use xlink:href="#m4eb0b33834" x="488.44375" y="285.583125" style="fill: #006400; stroke: #006400"/>
     </g>
    </g>
    <g id="text_24">
     <!-- Gene set size: 500 -->
     <g transform="translate(524.44375 291.320625) scale(0.2 -0.2)">
      <use xlink:href="#ArialMT-47"/>
      <use xlink:href="#ArialMT-65" transform="translate(77.783203 0)"/>
      <use xlink:href="#ArialMT-6e" transform="translate(133.398438 0)"/>
      <use xlink:href="#ArialMT-65" transform="translate(189.013672 0)"/>
      <use xlink:href="#ArialMT-20" transform="translate(244.628906 0)"/>
      <use xlink:href="#ArialMT-73" transform="translate(272.412109 0)"/>
      <use xlink:href="#ArialMT-65" transform="translate(322.412109 0)"/>
      <use xlink:href="#ArialMT-74" transform="translate(378.027344 0)"/>
      <use xlink:href="#ArialMT-20" transform="translate(405.810547 0)"/>
      <use xlink:href="#ArialMT-73" transform="translate(433.59375 0)"/>
      <use xlink:href="#ArialMT-69" transform="translate(483.59375 0)"/>
      <use xlink:href="#ArialMT-7a" transform="translate(505.810547 0)"/>
      <use xlink:href="#ArialMT-65" transform="translate(555.810547 0)"/>
      <use xlink:href="#ArialMT-3a" transform="translate(611.425781 0)"/>
      <use xlink:href="#ArialMT-20" transform="translate(639.208984 0)"/>
      <use xlink:href="#ArialMT-35" transform="translate(666.992188 0)"/>
      <use xlink:href="#ArialMT-30" transform="translate(722.607422 0)"/>
      <use xlink:href="#ArialMT-30" transform="translate(778.222656 0)"/>
     </g>
    </g>
    <g id="line2d_28">
     <defs>
      <path id="m6045e20862" d="M 0 5 
C 1.326016 5 2.597899 4.473168 3.535534 3.535534 
C 4.473168 2.597899 5 1.326016 5 0 
C 5 -1.326016 4.473168 -2.597899 3.535534 -3.535534 
C 2.597899 -4.473168 1.326016 -5 0 -5 
C -1.326016 -5 -2.597899 -4.473168 -3.535534 -3.535534 
C -4.473168 -2.597899 -5 -1.326016 -5 0 
C -5 1.326016 -4.473168 2.597899 -3.535534 3.535534 
C -2.597899 4.473168 -1.326016 5 0 5 
z
" style="stroke: #0000ff"/>
     </defs>
     <g>
      <use xlink:href="#m6045e20862" x="488.44375" y="308.595625" style="fill: #0000ff; stroke: #0000ff"/>
     </g>
    </g>
    <g id="text_25">
     <!-- Ribosome -->
     <g transform="translate(524.44375 315.895625) scale(0.2 -0.2)">
      <defs>
       <path id="ArialMT-52" d="M 503 0 
L 503 4581 
L 2534 4581 
Q 3147 4581 3465 4457 
Q 3784 4334 3975 4021 
Q 4166 3709 4166 3331 
Q 4166 2844 3850 2509 
Q 3534 2175 2875 2084 
Q 3116 1969 3241 1856 
Q 3506 1613 3744 1247 
L 4541 0 
L 3778 0 
L 3172 953 
Q 2906 1366 2734 1584 
Q 2563 1803 2427 1890 
Q 2291 1978 2150 2013 
Q 2047 2034 1813 2034 
L 1109 2034 
L 1109 0 
L 503 0 
z
M 1109 2559 
L 2413 2559 
Q 2828 2559 3062 2645 
Q 3297 2731 3419 2920 
Q 3541 3109 3541 3331 
Q 3541 3656 3305 3865 
Q 3069 4075 2559 4075 
L 1109 4075 
L 1109 2559 
z
" transform="scale(0.015625)"/>
       <path id="ArialMT-62" d="M 941 0 
L 419 0 
L 419 4581 
L 981 4581 
L 981 2947 
Q 1338 3394 1891 3394 
Q 2197 3394 2470 3270 
Q 2744 3147 2920 2923 
Q 3097 2700 3197 2384 
Q 3297 2069 3297 1709 
Q 3297 856 2875 390 
Q 2453 -75 1863 -75 
Q 1275 -75 941 416 
L 941 0 
z
M 934 1684 
Q 934 1088 1097 822 
Q 1363 388 1816 388 
Q 2184 388 2453 708 
Q 2722 1028 2722 1663 
Q 2722 2313 2464 2622 
Q 2206 2931 1841 2931 
Q 1472 2931 1203 2611 
Q 934 2291 934 1684 
z
" transform="scale(0.015625)"/>
      </defs>
      <use xlink:href="#ArialMT-52"/>
      <use xlink:href="#ArialMT-69" transform="translate(72.216797 0)"/>
      <use xlink:href="#ArialMT-62" transform="translate(94.433594 0)"/>
      <use xlink:href="#ArialMT-6f" transform="translate(150.048828 0)"/>
      <use xlink:href="#ArialMT-73" transform="translate(205.664062 0)"/>
      <use xlink:href="#ArialMT-6f" transform="translate(255.664062 0)"/>
      <use xlink:href="#ArialMT-6d" transform="translate(311.279297 0)"/>
      <use xlink:href="#ArialMT-65" transform="translate(394.580078 0)"/>
     </g>
    </g>
    <g id="line2d_29">
     <defs>
      <path id="mac89021c86" d="M 0 5 
C 1.326016 5 2.597899 4.473168 3.535534 3.535534 
C 4.473168 2.597899 5 1.326016 5 0 
C 5 -1.326016 4.473168 -2.597899 3.535534 -3.535534 
C 2.597899 -4.473168 1.326016 -5 0 -5 
C -1.326016 -5 -2.597899 -4.473168 -3.535534 -3.535534 
C -4.473168 -2.597899 -5 -1.326016 -5 0 
C -5 1.326016 -4.473168 2.597899 -3.535534 3.535534 
C -2.597899 4.473168 -1.326016 5 0 5 
z
" style="stroke: #ffa500"/>
     </defs>
     <g>
      <use xlink:href="#mac89021c86" x="488.44375" y="333.170625" style="fill: #ffa500; stroke: #ffa500"/>
     </g>
    </g>
    <g id="text_26">
     <!-- Decreased growth -->
     <g transform="translate(524.44375 340.470625) scale(0.2 -0.2)">
      <defs>
       <path id="ArialMT-44" d="M 494 0 
L 494 4581 
L 2072 4581 
Q 2606 4581 2888 4516 
Q 3281 4425 3559 4188 
Q 3922 3881 4101 3404 
Q 4281 2928 4281 2316 
Q 4281 1794 4159 1391 
Q 4038 988 3847 723 
Q 3656 459 3429 307 
Q 3203 156 2883 78 
Q 2563 0 2147 0 
L 494 0 
z
M 1100 541 
L 2078 541 
Q 2531 541 2789 625 
Q 3047 709 3200 863 
Q 3416 1078 3536 1442 
Q 3656 1806 3656 2325 
Q 3656 3044 3420 3430 
Q 3184 3816 2847 3947 
Q 2603 4041 2063 4041 
L 1100 4041 
L 1100 541 
z
" transform="scale(0.015625)"/>
       <path id="ArialMT-61" d="M 2588 409 
Q 2275 144 1986 34 
Q 1697 -75 1366 -75 
Q 819 -75 525 192 
Q 231 459 231 875 
Q 231 1119 342 1320 
Q 453 1522 633 1644 
Q 813 1766 1038 1828 
Q 1203 1872 1538 1913 
Q 2219 1994 2541 2106 
Q 2544 2222 2544 2253 
Q 2544 2597 2384 2738 
Q 2169 2928 1744 2928 
Q 1347 2928 1158 2789 
Q 969 2650 878 2297 
L 328 2372 
Q 403 2725 575 2942 
Q 747 3159 1072 3276 
Q 1397 3394 1825 3394 
Q 2250 3394 2515 3294 
Q 2781 3194 2906 3042 
Q 3031 2891 3081 2659 
Q 3109 2516 3109 2141 
L 3109 1391 
Q 3109 606 3145 398 
Q 3181 191 3288 0 
L 2700 0 
Q 2613 175 2588 409 
z
M 2541 1666 
Q 2234 1541 1622 1453 
Q 1275 1403 1131 1340 
Q 988 1278 909 1158 
Q 831 1038 831 891 
Q 831 666 1001 516 
Q 1172 366 1500 366 
Q 1825 366 2078 508 
Q 2331 650 2450 897 
Q 2541 1088 2541 1459 
L 2541 1666 
z
" transform="scale(0.015625)"/>
       <path id="ArialMT-67" d="M 319 -275 
L 866 -356 
Q 900 -609 1056 -725 
Q 1266 -881 1628 -881 
Q 2019 -881 2231 -725 
Q 2444 -569 2519 -288 
Q 2563 -116 2559 434 
Q 2191 0 1641 0 
Q 956 0 581 494 
Q 206 988 206 1678 
Q 206 2153 378 2554 
Q 550 2956 876 3175 
Q 1203 3394 1644 3394 
Q 2231 3394 2613 2919 
L 2613 3319 
L 3131 3319 
L 3131 450 
Q 3131 -325 2973 -648 
Q 2816 -972 2473 -1159 
Q 2131 -1347 1631 -1347 
Q 1038 -1347 672 -1080 
Q 306 -813 319 -275 
z
M 784 1719 
Q 784 1066 1043 766 
Q 1303 466 1694 466 
Q 2081 466 2343 764 
Q 2606 1063 2606 1700 
Q 2606 2309 2336 2618 
Q 2066 2928 1684 2928 
Q 1309 2928 1046 2623 
Q 784 2319 784 1719 
z
" transform="scale(0.015625)"/>
       <path id="ArialMT-77" d="M 1034 0 
L 19 3319 
L 600 3319 
L 1128 1403 
L 1325 691 
Q 1338 744 1497 1375 
L 2025 3319 
L 2603 3319 
L 3100 1394 
L 3266 759 
L 3456 1400 
L 4025 3319 
L 4572 3319 
L 3534 0 
L 2950 0 
L 2422 1988 
L 2294 2553 
L 1622 0 
L 1034 0 
z
" transform="scale(0.015625)"/>
      </defs>
      <use xlink:href="#ArialMT-44"/>
      <use xlink:href="#ArialMT-65" transform="translate(72.216797 0)"/>
      <use xlink:href="#ArialMT-63" transform="translate(127.832031 0)"/>
      <use xlink:href="#ArialMT-72" transform="translate(177.832031 0)"/>
      <use xlink:href="#ArialMT-65" transform="translate(211.132812 0)"/>
      <use xlink:href="#ArialMT-61" transform="translate(266.748047 0)"/>
      <use xlink:href="#ArialMT-73" transform="translate(322.363281 0)"/>
      <use xlink:href="#ArialMT-65" transform="translate(372.363281 0)"/>
      <use xlink:href="#ArialMT-64" transform="translate(427.978516 0)"/>
      <use xlink:href="#ArialMT-20" transform="translate(483.59375 0)"/>
      <use xlink:href="#ArialMT-67" transform="translate(511.376953 0)"/>
      <use xlink:href="#ArialMT-72" transform="translate(566.992188 0)"/>
      <use xlink:href="#ArialMT-6f" transform="translate(600.292969 0)"/>
      <use xlink:href="#ArialMT-77" transform="translate(655.908203 0)"/>
      <use xlink:href="#ArialMT-74" transform="translate(728.125 0)"/>
      <use xlink:href="#ArialMT-68" transform="translate(755.908203 0)"/>
     </g>
    </g>
   </g>
  </g>
 </g>
 <defs>
  <clipPath id="pdd3a9a1107">
   <rect x="363.4" y="10.8" width="345.8" height="351.88"/>
  </clipPath>
 </defs>
</svg>
