<?xml version="1.0" encoding="utf-8" standalone="no"?>
<!DOCTYPE svg PUBLIC "-//W3C//DTD SVG 1.1//EN"
  "http://www.w3.org/Graphics/SVG/1.1/DTD/svg11.dtd">
<svg xmlns:xlink="http://www.w3.org/1999/xlink" width="720pt" height="432pt" viewBox="0 0 720 432" xmlns="http://www.w3.org/2000/svg" version="1.1">
 <metadata>
  <rdf:RDF xmlns:dc="http://purl.org/dc/elements/1.1/" xmlns:cc="http://creativecommons.org/ns#" xmlns:rdf="http://www.w3.org/1999/02/22-rdf-syntax-ns#">
   <cc:Work>
    <dc:type rdf:resource="http://purl.org/dc/dcmitype/StillImage"/>
    <dc:date>2023-11-07T18:50:20.838399</dc:date>
    <dc:format>image/svg+xml</dc:format>
    <dc:creator>
     <cc:Agent>
      <dc:title>Matplotlib v3.8.0, https://matplotlib.org/</dc:title>
     </cc:Agent>
    </dc:creator>
   </cc:Work>
  </rdf:RDF>
 </metadata>
 <defs>
  <style type="text/css">*{stroke-linejoin: round; stroke-linecap: butt}</style>
 </defs>
 <g id="figure_1">
  <g id="patch_1">
   <path d="M 0 432 
L 720 432 
L 720 0 
L 0 0 
z
" style="fill: #ffffff"/>
  </g>
  <g id="axes_1">
   <g id="patch_2">
    <path d="M 473.265858 361.24 
L 709.2 361.24 
L 709.2 10.8 
L 473.265858 10.8 
z
" style="fill: #ffffff"/>
   </g>
   <g id="PathCollection_1">
    <path d="M 561.773929 347.04296 
C 562.233275 347.04296 562.673868 346.86046 562.998674 346.535654 
C 563.32348 346.210848 563.50598 345.770254 563.50598 345.310909 
C 563.50598 344.851564 563.32348 344.41097 562.998674 344.086164 
C 562.673868 343.761358 562.233275 343.578858 561.773929 343.578858 
C 561.314584 343.578858 560.873991 343.761358 560.549184 344.086164 
C 560.224378 344.41097 560.041879 344.851564 560.041879 345.310909 
C 560.041879 345.770254 560.224378 346.210848 560.549184 346.535654 
C 560.873991 346.86046 561.314584 347.04296 561.773929 347.04296 
z
" clip-path="url(#pccb73706f9)" style="fill: #006400; stroke: #006400; stroke-width: 4"/>
    <path d="M 561.773929 311.64498 
C 562.233275 311.64498 562.673868 311.46248 562.998674 311.137674 
C 563.32348 310.812868 563.50598 310.372275 563.50598 309.912929 
C 563.50598 309.453584 563.32348 309.012991 562.998674 308.688184 
C 562.673868 308.363378 562.233275 308.180878 561.773929 308.180878 
C 561.314584 308.180878 560.873991 308.363378 560.549184 308.688184 
C 560.224378 309.012991 560.041879 309.453584 560.041879 309.912929 
C 560.041879 310.372275 560.224378 310.812868 560.549184 311.137674 
C 560.873991 311.46248 561.314584 311.64498 561.773929 311.64498 
z
" clip-path="url(#pccb73706f9)" style="fill: #006400; stroke: #006400; stroke-width: 4"/>
    <path d="M 541.959214 276.694399 
C 542.537211 276.694399 543.091612 276.464758 543.500317 276.056053 
C 543.909023 275.647348 544.138663 275.092946 544.138663 274.514949 
C 544.138663 273.936953 543.909023 273.382551 543.500317 272.973846 
C 543.091612 272.565141 542.537211 272.3355 541.959214 272.3355 
C 541.381217 272.3355 540.826816 272.565141 540.41811 272.973846 
C 540.009405 273.382551 539.779764 273.936953 539.779764 274.514949 
C 539.779764 275.092946 540.009405 275.647348 540.41811 276.056053 
C 540.826816 276.464758 541.381217 276.694399 541.959214 276.694399 
z
" clip-path="url(#pccb73706f9)" style="fill: #006400; stroke: #006400; stroke-width: 4"/>
    <path d="M 541.959214 241.296419 
C 542.537211 241.296419 543.091612 241.066779 543.500317 240.658073 
C 543.909023 240.249368 544.138663 239.694966 544.138663 239.11697 
C 544.138663 238.538973 543.909023 237.984572 543.500317 237.575866 
C 543.091612 237.167161 542.537211 236.93752 541.959214 236.93752 
C 541.381217 236.93752 540.826816 237.167161 540.41811 237.575866 
C 540.009405 237.984572 539.779764 238.538973 539.779764 239.11697 
C 539.779764 239.694966 540.009405 240.249368 540.41811 240.658073 
C 540.826816 241.066779 541.381217 241.296419 541.959214 241.296419 
z
" clip-path="url(#pccb73706f9)" style="fill: #006400; stroke: #006400; stroke-width: 4"/>
    <path d="M 489.739305 214.89933 
C 492.704366 214.89933 495.548385 213.721299 497.644999 211.624684 
C 499.741614 209.528069 500.919645 206.684051 500.919645 203.71899 
C 500.919645 200.753929 499.741614 197.90991 497.644999 195.813296 
C 495.548385 193.716681 492.704366 192.53865 489.739305 192.53865 
C 486.774244 192.53865 483.930225 193.716681 481.833611 195.813296 
C 479.736996 197.90991 478.558965 200.753929 478.558965 203.71899 
C 478.558965 206.684051 479.736996 209.528069 481.833611 211.624684 
C 483.930225 213.721299 486.774244 214.89933 489.739305 214.89933 
z
" clip-path="url(#pccb73706f9)" style="fill: #8b0000; stroke: #8b0000; stroke-width: 4"/>
    <path d="M 541.959214 170.50046 
C 542.537211 170.50046 543.091612 170.270819 543.500317 169.862114 
C 543.909023 169.453408 544.138663 168.899007 544.138663 168.32101 
C 544.138663 167.743013 543.909023 167.188612 543.500317 166.779907 
C 543.091612 166.371201 542.537211 166.141561 541.959214 166.141561 
C 541.381217 166.141561 540.826816 166.371201 540.41811 166.779907 
C 540.009405 167.188612 539.779764 167.743013 539.779764 168.32101 
C 539.779764 168.899007 540.009405 169.453408 540.41811 169.862114 
C 540.826816 170.270819 541.381217 170.50046 541.959214 170.50046 
z
" clip-path="url(#pccb73706f9)" style="fill: #006400; stroke: #006400; stroke-width: 4"/>
    <path d="M 555.551226 134.725806 
C 556.029328 134.725806 556.487912 134.535854 556.825981 134.197785 
C 557.16405 133.859716 557.354002 133.401132 557.354002 132.92303 
C 557.354002 132.444929 557.16405 131.986344 556.825981 131.648275 
C 556.487912 131.310206 556.029328 131.120255 555.551226 131.120255 
C 555.073124 131.120255 554.61454 131.310206 554.276471 131.648275 
C 553.938402 131.986344 553.74845 132.444929 553.74845 132.92303 
C 553.74845 133.401132 553.938402 133.859716 554.276471 134.197785 
C 554.61454 134.535854 555.073124 134.725806 555.551226 134.725806 
z
" clip-path="url(#pccb73706f9)" style="fill: #006400; fill-opacity: 0.923163; stroke: #006400; stroke-opacity: 0.923163; stroke-width: 4"/>
    <path d="M 550.250405 99.395879 
C 550.746554 99.395879 551.22245 99.198757 551.57328 98.847926 
C 551.924111 98.497095 552.121233 98.0212 552.121233 97.525051 
C 552.121233 97.028901 551.924111 96.553006 551.57328 96.202175 
C 551.22245 95.851344 550.746554 95.654222 550.250405 95.654222 
C 549.754255 95.654222 549.27836 95.851344 548.927529 96.202175 
C 548.576698 96.553006 548.379576 97.028901 548.379576 97.525051 
C 548.379576 98.0212 548.576698 98.497095 548.927529 98.847926 
C 549.27836 99.198757 549.754255 99.395879 550.250405 99.395879 
z
" clip-path="url(#pccb73706f9)" style="fill: #006400; fill-opacity: 0.907448; stroke: #006400; stroke-opacity: 0.907448; stroke-width: 4"/>
    <path d="M 698.475721 62.993096 
C 698.705393 62.993096 698.92569 62.901846 699.088093 62.739443 
C 699.250496 62.57704 699.341746 62.356743 699.341746 62.127071 
C 699.341746 61.897398 699.250496 61.677101 699.088093 61.514698 
C 698.92569 61.352295 698.705393 61.261045 698.475721 61.261045 
C 698.246048 61.261045 698.025751 61.352295 697.863348 61.514698 
C 697.700945 61.677101 697.609695 61.897398 697.609695 62.127071 
C 697.609695 62.356743 697.700945 62.57704 697.863348 62.739443 
C 698.025751 62.901846 698.246048 62.993096 698.475721 62.993096 
z
" clip-path="url(#pccb73706f9)" style="fill: #006400; fill-opacity: 0.907448; stroke: #006400; stroke-opacity: 0.907448; stroke-width: 4"/>
    <path d="M 550.250405 28.59992 
C 550.746554 28.59992 551.22245 28.402797 551.57328 28.051967 
C 551.924111 27.701136 552.121233 27.22524 552.121233 26.729091 
C 552.121233 26.232941 551.924111 25.757046 551.57328 25.406215 
C 551.22245 25.055385 550.746554 24.858262 550.250405 24.858262 
C 549.754255 24.858262 549.27836 25.055385 548.927529 25.406215 
C 548.576698 25.757046 548.379576 26.232941 548.379576 26.729091 
C 548.379576 27.22524 548.576698 27.701136 548.927529 28.051967 
C 549.27836 28.402797 549.754255 28.59992 550.250405 28.59992 
z
" clip-path="url(#pccb73706f9)" style="fill: #006400; fill-opacity: 0.907448; stroke: #006400; stroke-opacity: 0.907448; stroke-width: 4"/>
   </g>
   <g id="PathCollection_2"/>
   <g id="PathCollection_3"/>
   <g id="PathCollection_4"/>
   <g id="matplotlib.axis_1">
    <g id="xtick_1">
     <g id="line2d_1">
      <defs>
       <path id="mee08a31f84" d="M 0 0 
L 0 3.5 
" style="stroke: #000000; stroke-width: 0.8"/>
      </defs>
      <g>
       <use xlink:href="#mee08a31f84" x="483.990137" y="361.24" style="stroke: #000000; stroke-width: 0.8"/>
      </g>
     </g>
     <g id="text_1">
      <!-- 0 -->
      <g transform="translate(476.037012 387.236094) scale(0.25 -0.25)">
       <defs>
        <path id="DejaVuSans-30" d="M 2034 4250 
Q 1547 4250 1301 3770 
Q 1056 3291 1056 2328 
Q 1056 1369 1301 889 
Q 1547 409 2034 409 
Q 2525 409 2770 889 
Q 3016 1369 3016 2328 
Q 3016 3291 2770 3770 
Q 2525 4250 2034 4250 
z
M 2034 4750 
Q 2819 4750 3233 4129 
Q 3647 3509 3647 2328 
Q 3647 1150 3233 529 
Q 2819 -91 2034 -91 
Q 1250 -91 836 529 
Q 422 1150 422 2328 
Q 422 3509 836 4129 
Q 1250 4750 2034 4750 
z
" transform="scale(0.015625)"/>
       </defs>
       <use xlink:href="#DejaVuSans-30"/>
      </g>
     </g>
    </g>
    <g id="xtick_2">
     <g id="line2d_2">
      <g>
       <use xlink:href="#mee08a31f84" x="533.410779" y="361.24" style="stroke: #000000; stroke-width: 0.8"/>
      </g>
     </g>
     <g id="text_2">
      <!-- 10 -->
      <g transform="translate(517.504529 387.236094) scale(0.25 -0.25)">
       <defs>
        <path id="DejaVuSans-31" d="M 794 531 
L 1825 531 
L 1825 4091 
L 703 3866 
L 703 4441 
L 1819 4666 
L 2450 4666 
L 2450 531 
L 3481 531 
L 3481 0 
L 794 0 
L 794 531 
z
" transform="scale(0.015625)"/>
       </defs>
       <use xlink:href="#DejaVuSans-31"/>
       <use xlink:href="#DejaVuSans-30" x="63.623047"/>
      </g>
     </g>
    </g>
    <g id="xtick_3">
     <g id="line2d_3">
      <g>
       <use xlink:href="#mee08a31f84" x="582.83142" y="361.24" style="stroke: #000000; stroke-width: 0.8"/>
      </g>
     </g>
     <g id="text_3">
      <!-- 20 -->
      <g transform="translate(566.92517 387.236094) scale(0.25 -0.25)">
       <defs>
        <path id="DejaVuSans-32" d="M 1228 531 
L 3431 531 
L 3431 0 
L 469 0 
L 469 531 
Q 828 903 1448 1529 
Q 2069 2156 2228 2338 
Q 2531 2678 2651 2914 
Q 2772 3150 2772 3378 
Q 2772 3750 2511 3984 
Q 2250 4219 1831 4219 
Q 1534 4219 1204 4116 
Q 875 4013 500 3803 
L 500 4441 
Q 881 4594 1212 4672 
Q 1544 4750 1819 4750 
Q 2544 4750 2975 4387 
Q 3406 4025 3406 3419 
Q 3406 3131 3298 2873 
Q 3191 2616 2906 2266 
Q 2828 2175 2409 1742 
Q 1991 1309 1228 531 
z
" transform="scale(0.015625)"/>
       </defs>
       <use xlink:href="#DejaVuSans-32"/>
       <use xlink:href="#DejaVuSans-30" x="63.623047"/>
      </g>
     </g>
    </g>
    <g id="xtick_4">
     <g id="line2d_4">
      <g>
       <use xlink:href="#mee08a31f84" x="632.252061" y="361.24" style="stroke: #000000; stroke-width: 0.8"/>
      </g>
     </g>
     <g id="text_4">
      <!-- 30 -->
      <g transform="translate(616.345811 387.236094) scale(0.25 -0.25)">
       <defs>
        <path id="DejaVuSans-33" d="M 2597 2516 
Q 3050 2419 3304 2112 
Q 3559 1806 3559 1356 
Q 3559 666 3084 287 
Q 2609 -91 1734 -91 
Q 1441 -91 1130 -33 
Q 819 25 488 141 
L 488 750 
Q 750 597 1062 519 
Q 1375 441 1716 441 
Q 2309 441 2620 675 
Q 2931 909 2931 1356 
Q 2931 1769 2642 2001 
Q 2353 2234 1838 2234 
L 1294 2234 
L 1294 2753 
L 1863 2753 
Q 2328 2753 2575 2939 
Q 2822 3125 2822 3475 
Q 2822 3834 2567 4026 
Q 2313 4219 1838 4219 
Q 1578 4219 1281 4162 
Q 984 4106 628 3988 
L 628 4550 
Q 988 4650 1302 4700 
Q 1616 4750 1894 4750 
Q 2613 4750 3031 4423 
Q 3450 4097 3450 3541 
Q 3450 3153 3228 2886 
Q 3006 2619 2597 2516 
z
" transform="scale(0.015625)"/>
       </defs>
       <use xlink:href="#DejaVuSans-33"/>
       <use xlink:href="#DejaVuSans-30" x="63.623047"/>
      </g>
     </g>
    </g>
    <g id="xtick_5">
     <g id="line2d_5">
      <g>
       <use xlink:href="#mee08a31f84" x="681.672703" y="361.24" style="stroke: #000000; stroke-width: 0.8"/>
      </g>
     </g>
     <g id="text_5">
      <!-- 40 -->
      <g transform="translate(665.766453 387.236094) scale(0.25 -0.25)">
       <defs>
        <path id="DejaVuSans-34" d="M 2419 4116 
L 825 1625 
L 2419 1625 
L 2419 4116 
z
M 2253 4666 
L 3047 4666 
L 3047 1625 
L 3713 1625 
L 3713 1100 
L 3047 1100 
L 3047 0 
L 2419 0 
L 2419 1100 
L 313 1100 
L 313 1709 
L 2253 4666 
z
" transform="scale(0.015625)"/>
       </defs>
       <use xlink:href="#DejaVuSans-34"/>
       <use xlink:href="#DejaVuSans-30" x="63.623047"/>
      </g>
     </g>
    </g>
    <g id="text_6">
     <!-- Fold enrichment -->
     <g transform="translate(489.75832 415.431406) scale(0.25 -0.25)">
      <defs>
       <path id="DejaVuSans-46" d="M 628 4666 
L 3309 4666 
L 3309 4134 
L 1259 4134 
L 1259 2759 
L 3109 2759 
L 3109 2228 
L 1259 2228 
L 1259 0 
L 628 0 
L 628 4666 
z
" transform="scale(0.015625)"/>
       <path id="DejaVuSans-6f" d="M 1959 3097 
Q 1497 3097 1228 2736 
Q 959 2375 959 1747 
Q 959 1119 1226 758 
Q 1494 397 1959 397 
Q 2419 397 2687 759 
Q 2956 1122 2956 1747 
Q 2956 2369 2687 2733 
Q 2419 3097 1959 3097 
z
M 1959 3584 
Q 2709 3584 3137 3096 
Q 3566 2609 3566 1747 
Q 3566 888 3137 398 
Q 2709 -91 1959 -91 
Q 1206 -91 779 398 
Q 353 888 353 1747 
Q 353 2609 779 3096 
Q 1206 3584 1959 3584 
z
" transform="scale(0.015625)"/>
       <path id="DejaVuSans-6c" d="M 603 4863 
L 1178 4863 
L 1178 0 
L 603 0 
L 603 4863 
z
" transform="scale(0.015625)"/>
       <path id="DejaVuSans-64" d="M 2906 2969 
L 2906 4863 
L 3481 4863 
L 3481 0 
L 2906 0 
L 2906 525 
Q 2725 213 2448 61 
Q 2172 -91 1784 -91 
Q 1150 -91 751 415 
Q 353 922 353 1747 
Q 353 2572 751 3078 
Q 1150 3584 1784 3584 
Q 2172 3584 2448 3432 
Q 2725 3281 2906 2969 
z
M 947 1747 
Q 947 1113 1208 752 
Q 1469 391 1925 391 
Q 2381 391 2643 752 
Q 2906 1113 2906 1747 
Q 2906 2381 2643 2742 
Q 2381 3103 1925 3103 
Q 1469 3103 1208 2742 
Q 947 2381 947 1747 
z
" transform="scale(0.015625)"/>
       <path id="DejaVuSans-20" transform="scale(0.015625)"/>
       <path id="DejaVuSans-65" d="M 3597 1894 
L 3597 1613 
L 953 1613 
Q 991 1019 1311 708 
Q 1631 397 2203 397 
Q 2534 397 2845 478 
Q 3156 559 3463 722 
L 3463 178 
Q 3153 47 2828 -22 
Q 2503 -91 2169 -91 
Q 1331 -91 842 396 
Q 353 884 353 1716 
Q 353 2575 817 3079 
Q 1281 3584 2069 3584 
Q 2775 3584 3186 3129 
Q 3597 2675 3597 1894 
z
M 3022 2063 
Q 3016 2534 2758 2815 
Q 2500 3097 2075 3097 
Q 1594 3097 1305 2825 
Q 1016 2553 972 2059 
L 3022 2063 
z
" transform="scale(0.015625)"/>
       <path id="DejaVuSans-6e" d="M 3513 2113 
L 3513 0 
L 2938 0 
L 2938 2094 
Q 2938 2591 2744 2837 
Q 2550 3084 2163 3084 
Q 1697 3084 1428 2787 
Q 1159 2491 1159 1978 
L 1159 0 
L 581 0 
L 581 3500 
L 1159 3500 
L 1159 2956 
Q 1366 3272 1645 3428 
Q 1925 3584 2291 3584 
Q 2894 3584 3203 3211 
Q 3513 2838 3513 2113 
z
" transform="scale(0.015625)"/>
       <path id="DejaVuSans-72" d="M 2631 2963 
Q 2534 3019 2420 3045 
Q 2306 3072 2169 3072 
Q 1681 3072 1420 2755 
Q 1159 2438 1159 1844 
L 1159 0 
L 581 0 
L 581 3500 
L 1159 3500 
L 1159 2956 
Q 1341 3275 1631 3429 
Q 1922 3584 2338 3584 
Q 2397 3584 2469 3576 
Q 2541 3569 2628 3553 
L 2631 2963 
z
" transform="scale(0.015625)"/>
       <path id="DejaVuSans-69" d="M 603 3500 
L 1178 3500 
L 1178 0 
L 603 0 
L 603 3500 
z
M 603 4863 
L 1178 4863 
L 1178 4134 
L 603 4134 
L 603 4863 
z
" transform="scale(0.015625)"/>
       <path id="DejaVuSans-63" d="M 3122 3366 
L 3122 2828 
Q 2878 2963 2633 3030 
Q 2388 3097 2138 3097 
Q 1578 3097 1268 2742 
Q 959 2388 959 1747 
Q 959 1106 1268 751 
Q 1578 397 2138 397 
Q 2388 397 2633 464 
Q 2878 531 3122 666 
L 3122 134 
Q 2881 22 2623 -34 
Q 2366 -91 2075 -91 
Q 1284 -91 818 406 
Q 353 903 353 1747 
Q 353 2603 823 3093 
Q 1294 3584 2113 3584 
Q 2378 3584 2631 3529 
Q 2884 3475 3122 3366 
z
" transform="scale(0.015625)"/>
       <path id="DejaVuSans-68" d="M 3513 2113 
L 3513 0 
L 2938 0 
L 2938 2094 
Q 2938 2591 2744 2837 
Q 2550 3084 2163 3084 
Q 1697 3084 1428 2787 
Q 1159 2491 1159 1978 
L 1159 0 
L 581 0 
L 581 4863 
L 1159 4863 
L 1159 2956 
Q 1366 3272 1645 3428 
Q 1925 3584 2291 3584 
Q 2894 3584 3203 3211 
Q 3513 2838 3513 2113 
z
" transform="scale(0.015625)"/>
       <path id="DejaVuSans-6d" d="M 3328 2828 
Q 3544 3216 3844 3400 
Q 4144 3584 4550 3584 
Q 5097 3584 5394 3201 
Q 5691 2819 5691 2113 
L 5691 0 
L 5113 0 
L 5113 2094 
Q 5113 2597 4934 2840 
Q 4756 3084 4391 3084 
Q 3944 3084 3684 2787 
Q 3425 2491 3425 1978 
L 3425 0 
L 2847 0 
L 2847 2094 
Q 2847 2600 2669 2842 
Q 2491 3084 2119 3084 
Q 1678 3084 1418 2786 
Q 1159 2488 1159 1978 
L 1159 0 
L 581 0 
L 581 3500 
L 1159 3500 
L 1159 2956 
Q 1356 3278 1631 3431 
Q 1906 3584 2284 3584 
Q 2666 3584 2933 3390 
Q 3200 3197 3328 2828 
z
" transform="scale(0.015625)"/>
       <path id="DejaVuSans-74" d="M 1172 4494 
L 1172 3500 
L 2356 3500 
L 2356 3053 
L 1172 3053 
L 1172 1153 
Q 1172 725 1289 603 
Q 1406 481 1766 481 
L 2356 481 
L 2356 0 
L 1766 0 
Q 1100 0 847 248 
Q 594 497 594 1153 
L 594 3053 
L 172 3053 
L 172 3500 
L 594 3500 
L 594 4494 
L 1172 4494 
z
" transform="scale(0.015625)"/>
      </defs>
      <use xlink:href="#DejaVuSans-46"/>
      <use xlink:href="#DejaVuSans-6f" x="53.894531"/>
      <use xlink:href="#DejaVuSans-6c" x="115.076172"/>
      <use xlink:href="#DejaVuSans-64" x="142.859375"/>
      <use xlink:href="#DejaVuSans-20" x="206.335938"/>
      <use xlink:href="#DejaVuSans-65" x="238.123047"/>
      <use xlink:href="#DejaVuSans-6e" x="299.646484"/>
      <use xlink:href="#DejaVuSans-72" x="363.025391"/>
      <use xlink:href="#DejaVuSans-69" x="404.138672"/>
      <use xlink:href="#DejaVuSans-63" x="431.921875"/>
      <use xlink:href="#DejaVuSans-68" x="486.902344"/>
      <use xlink:href="#DejaVuSans-6d" x="550.28125"/>
      <use xlink:href="#DejaVuSans-65" x="647.693359"/>
      <use xlink:href="#DejaVuSans-6e" x="709.216797"/>
      <use xlink:href="#DejaVuSans-74" x="772.595703"/>
     </g>
    </g>
   </g>
   <g id="matplotlib.axis_2">
    <g id="ytick_1">
     <g id="line2d_6">
      <defs>
       <path id="m8bb8ffb254" d="M 0 0 
L -3.5 0 
" style="stroke: #000000; stroke-width: 0.8"/>
      </defs>
      <g>
       <use xlink:href="#m8bb8ffb254" x="473.265858" y="345.310909" style="stroke: #000000; stroke-width: 0.8"/>
      </g>
     </g>
     <g id="text_7">
      <!-- GO:0000128: flocculation -->
      <g transform="translate(289.681261 381.515683) rotate(-10) scale(0.14 -0.14)">
       <defs>
        <path id="DejaVuSans-47" d="M 3809 666 
L 3809 1919 
L 2778 1919 
L 2778 2438 
L 4434 2438 
L 4434 434 
Q 4069 175 3628 42 
Q 3188 -91 2688 -91 
Q 1594 -91 976 548 
Q 359 1188 359 2328 
Q 359 3472 976 4111 
Q 1594 4750 2688 4750 
Q 3144 4750 3555 4637 
Q 3966 4525 4313 4306 
L 4313 3634 
Q 3963 3931 3569 4081 
Q 3175 4231 2741 4231 
Q 1884 4231 1454 3753 
Q 1025 3275 1025 2328 
Q 1025 1384 1454 906 
Q 1884 428 2741 428 
Q 3075 428 3337 486 
Q 3600 544 3809 666 
z
" transform="scale(0.015625)"/>
        <path id="DejaVuSans-4f" d="M 2522 4238 
Q 1834 4238 1429 3725 
Q 1025 3213 1025 2328 
Q 1025 1447 1429 934 
Q 1834 422 2522 422 
Q 3209 422 3611 934 
Q 4013 1447 4013 2328 
Q 4013 3213 3611 3725 
Q 3209 4238 2522 4238 
z
M 2522 4750 
Q 3503 4750 4090 4092 
Q 4678 3434 4678 2328 
Q 4678 1225 4090 567 
Q 3503 -91 2522 -91 
Q 1538 -91 948 565 
Q 359 1222 359 2328 
Q 359 3434 948 4092 
Q 1538 4750 2522 4750 
z
" transform="scale(0.015625)"/>
        <path id="DejaVuSans-3a" d="M 750 794 
L 1409 794 
L 1409 0 
L 750 0 
L 750 794 
z
M 750 3309 
L 1409 3309 
L 1409 2516 
L 750 2516 
L 750 3309 
z
" transform="scale(0.015625)"/>
        <path id="DejaVuSans-38" d="M 2034 2216 
Q 1584 2216 1326 1975 
Q 1069 1734 1069 1313 
Q 1069 891 1326 650 
Q 1584 409 2034 409 
Q 2484 409 2743 651 
Q 3003 894 3003 1313 
Q 3003 1734 2745 1975 
Q 2488 2216 2034 2216 
z
M 1403 2484 
Q 997 2584 770 2862 
Q 544 3141 544 3541 
Q 544 4100 942 4425 
Q 1341 4750 2034 4750 
Q 2731 4750 3128 4425 
Q 3525 4100 3525 3541 
Q 3525 3141 3298 2862 
Q 3072 2584 2669 2484 
Q 3125 2378 3379 2068 
Q 3634 1759 3634 1313 
Q 3634 634 3220 271 
Q 2806 -91 2034 -91 
Q 1263 -91 848 271 
Q 434 634 434 1313 
Q 434 1759 690 2068 
Q 947 2378 1403 2484 
z
M 1172 3481 
Q 1172 3119 1398 2916 
Q 1625 2713 2034 2713 
Q 2441 2713 2670 2916 
Q 2900 3119 2900 3481 
Q 2900 3844 2670 4047 
Q 2441 4250 2034 4250 
Q 1625 4250 1398 4047 
Q 1172 3844 1172 3481 
z
" transform="scale(0.015625)"/>
        <path id="DejaVuSans-66" d="M 2375 4863 
L 2375 4384 
L 1825 4384 
Q 1516 4384 1395 4259 
Q 1275 4134 1275 3809 
L 1275 3500 
L 2222 3500 
L 2222 3053 
L 1275 3053 
L 1275 0 
L 697 0 
L 697 3053 
L 147 3053 
L 147 3500 
L 697 3500 
L 697 3744 
Q 697 4328 969 4595 
Q 1241 4863 1831 4863 
L 2375 4863 
z
" transform="scale(0.015625)"/>
        <path id="DejaVuSans-75" d="M 544 1381 
L 544 3500 
L 1119 3500 
L 1119 1403 
Q 1119 906 1312 657 
Q 1506 409 1894 409 
Q 2359 409 2629 706 
Q 2900 1003 2900 1516 
L 2900 3500 
L 3475 3500 
L 3475 0 
L 2900 0 
L 2900 538 
Q 2691 219 2414 64 
Q 2138 -91 1772 -91 
Q 1169 -91 856 284 
Q 544 659 544 1381 
z
M 1991 3584 
L 1991 3584 
z
" transform="scale(0.015625)"/>
        <path id="DejaVuSans-61" d="M 2194 1759 
Q 1497 1759 1228 1600 
Q 959 1441 959 1056 
Q 959 750 1161 570 
Q 1363 391 1709 391 
Q 2188 391 2477 730 
Q 2766 1069 2766 1631 
L 2766 1759 
L 2194 1759 
z
M 3341 1997 
L 3341 0 
L 2766 0 
L 2766 531 
Q 2569 213 2275 61 
Q 1981 -91 1556 -91 
Q 1019 -91 701 211 
Q 384 513 384 1019 
Q 384 1609 779 1909 
Q 1175 2209 1959 2209 
L 2766 2209 
L 2766 2266 
Q 2766 2663 2505 2880 
Q 2244 3097 1772 3097 
Q 1472 3097 1187 3025 
Q 903 2953 641 2809 
L 641 3341 
Q 956 3463 1253 3523 
Q 1550 3584 1831 3584 
Q 2591 3584 2966 3190 
Q 3341 2797 3341 1997 
z
" transform="scale(0.015625)"/>
       </defs>
       <use xlink:href="#DejaVuSans-47"/>
       <use xlink:href="#DejaVuSans-4f" x="77.490234"/>
       <use xlink:href="#DejaVuSans-3a" x="154.451172"/>
       <use xlink:href="#DejaVuSans-30" x="188.142578"/>
       <use xlink:href="#DejaVuSans-30" x="251.765625"/>
       <use xlink:href="#DejaVuSans-30" x="315.388672"/>
       <use xlink:href="#DejaVuSans-30" x="379.011719"/>
       <use xlink:href="#DejaVuSans-31" x="442.634766"/>
       <use xlink:href="#DejaVuSans-32" x="506.257812"/>
       <use xlink:href="#DejaVuSans-38" x="569.880859"/>
       <use xlink:href="#DejaVuSans-3a" x="633.503906"/>
       <use xlink:href="#DejaVuSans-20" x="667.195312"/>
       <use xlink:href="#DejaVuSans-66" x="698.982422"/>
       <use xlink:href="#DejaVuSans-6c" x="734.1875"/>
       <use xlink:href="#DejaVuSans-6f" x="761.970703"/>
       <use xlink:href="#DejaVuSans-63" x="823.152344"/>
       <use xlink:href="#DejaVuSans-63" x="878.132812"/>
       <use xlink:href="#DejaVuSans-75" x="933.113281"/>
       <use xlink:href="#DejaVuSans-6c" x="996.492188"/>
       <use xlink:href="#DejaVuSans-61" x="1024.275391"/>
       <use xlink:href="#DejaVuSans-74" x="1085.554688"/>
       <use xlink:href="#DejaVuSans-69" x="1124.763672"/>
       <use xlink:href="#DejaVuSans-6f" x="1152.546875"/>
       <use xlink:href="#DejaVuSans-6e" x="1213.728516"/>
      </g>
     </g>
    </g>
    <g id="ytick_2">
     <g id="line2d_7">
      <g>
       <use xlink:href="#m8bb8ffb254" x="473.265858" y="309.912929" style="stroke: #000000; stroke-width: 0.8"/>
      </g>
     </g>
     <g id="text_8">
      <!-- GO:0015203: polyamine transmembrane transporter activity -->
      <g transform="translate(44.581692 389.33537) rotate(-10) scale(0.14 -0.14)">
       <defs>
        <path id="DejaVuSans-35" d="M 691 4666 
L 3169 4666 
L 3169 4134 
L 1269 4134 
L 1269 2991 
Q 1406 3038 1543 3061 
Q 1681 3084 1819 3084 
Q 2600 3084 3056 2656 
Q 3513 2228 3513 1497 
Q 3513 744 3044 326 
Q 2575 -91 1722 -91 
Q 1428 -91 1123 -41 
Q 819 9 494 109 
L 494 744 
Q 775 591 1075 516 
Q 1375 441 1709 441 
Q 2250 441 2565 725 
Q 2881 1009 2881 1497 
Q 2881 1984 2565 2268 
Q 2250 2553 1709 2553 
Q 1456 2553 1204 2497 
Q 953 2441 691 2322 
L 691 4666 
z
" transform="scale(0.015625)"/>
        <path id="DejaVuSans-70" d="M 1159 525 
L 1159 -1331 
L 581 -1331 
L 581 3500 
L 1159 3500 
L 1159 2969 
Q 1341 3281 1617 3432 
Q 1894 3584 2278 3584 
Q 2916 3584 3314 3078 
Q 3713 2572 3713 1747 
Q 3713 922 3314 415 
Q 2916 -91 2278 -91 
Q 1894 -91 1617 61 
Q 1341 213 1159 525 
z
M 3116 1747 
Q 3116 2381 2855 2742 
Q 2594 3103 2138 3103 
Q 1681 3103 1420 2742 
Q 1159 2381 1159 1747 
Q 1159 1113 1420 752 
Q 1681 391 2138 391 
Q 2594 391 2855 752 
Q 3116 1113 3116 1747 
z
" transform="scale(0.015625)"/>
        <path id="DejaVuSans-79" d="M 2059 -325 
Q 1816 -950 1584 -1140 
Q 1353 -1331 966 -1331 
L 506 -1331 
L 506 -850 
L 844 -850 
Q 1081 -850 1212 -737 
Q 1344 -625 1503 -206 
L 1606 56 
L 191 3500 
L 800 3500 
L 1894 763 
L 2988 3500 
L 3597 3500 
L 2059 -325 
z
" transform="scale(0.015625)"/>
        <path id="DejaVuSans-73" d="M 2834 3397 
L 2834 2853 
Q 2591 2978 2328 3040 
Q 2066 3103 1784 3103 
Q 1356 3103 1142 2972 
Q 928 2841 928 2578 
Q 928 2378 1081 2264 
Q 1234 2150 1697 2047 
L 1894 2003 
Q 2506 1872 2764 1633 
Q 3022 1394 3022 966 
Q 3022 478 2636 193 
Q 2250 -91 1575 -91 
Q 1294 -91 989 -36 
Q 684 19 347 128 
L 347 722 
Q 666 556 975 473 
Q 1284 391 1588 391 
Q 1994 391 2212 530 
Q 2431 669 2431 922 
Q 2431 1156 2273 1281 
Q 2116 1406 1581 1522 
L 1381 1569 
Q 847 1681 609 1914 
Q 372 2147 372 2553 
Q 372 3047 722 3315 
Q 1072 3584 1716 3584 
Q 2034 3584 2315 3537 
Q 2597 3491 2834 3397 
z
" transform="scale(0.015625)"/>
        <path id="DejaVuSans-62" d="M 3116 1747 
Q 3116 2381 2855 2742 
Q 2594 3103 2138 3103 
Q 1681 3103 1420 2742 
Q 1159 2381 1159 1747 
Q 1159 1113 1420 752 
Q 1681 391 2138 391 
Q 2594 391 2855 752 
Q 3116 1113 3116 1747 
z
M 1159 2969 
Q 1341 3281 1617 3432 
Q 1894 3584 2278 3584 
Q 2916 3584 3314 3078 
Q 3713 2572 3713 1747 
Q 3713 922 3314 415 
Q 2916 -91 2278 -91 
Q 1894 -91 1617 61 
Q 1341 213 1159 525 
L 1159 0 
L 581 0 
L 581 4863 
L 1159 4863 
L 1159 2969 
z
" transform="scale(0.015625)"/>
        <path id="DejaVuSans-76" d="M 191 3500 
L 800 3500 
L 1894 563 
L 2988 3500 
L 3597 3500 
L 2284 0 
L 1503 0 
L 191 3500 
z
" transform="scale(0.015625)"/>
       </defs>
       <use xlink:href="#DejaVuSans-47"/>
       <use xlink:href="#DejaVuSans-4f" x="77.490234"/>
       <use xlink:href="#DejaVuSans-3a" x="154.451172"/>
       <use xlink:href="#DejaVuSans-30" x="188.142578"/>
       <use xlink:href="#DejaVuSans-30" x="251.765625"/>
       <use xlink:href="#DejaVuSans-31" x="315.388672"/>
       <use xlink:href="#DejaVuSans-35" x="379.011719"/>
       <use xlink:href="#DejaVuSans-32" x="442.634766"/>
       <use xlink:href="#DejaVuSans-30" x="506.257812"/>
       <use xlink:href="#DejaVuSans-33" x="569.880859"/>
       <use xlink:href="#DejaVuSans-3a" x="633.503906"/>
       <use xlink:href="#DejaVuSans-20" x="667.195312"/>
       <use xlink:href="#DejaVuSans-70" x="698.982422"/>
       <use xlink:href="#DejaVuSans-6f" x="762.458984"/>
       <use xlink:href="#DejaVuSans-6c" x="823.640625"/>
       <use xlink:href="#DejaVuSans-79" x="851.423828"/>
       <use xlink:href="#DejaVuSans-61" x="910.603516"/>
       <use xlink:href="#DejaVuSans-6d" x="971.882812"/>
       <use xlink:href="#DejaVuSans-69" x="1069.294922"/>
       <use xlink:href="#DejaVuSans-6e" x="1097.078125"/>
       <use xlink:href="#DejaVuSans-65" x="1160.457031"/>
       <use xlink:href="#DejaVuSans-20" x="1221.980469"/>
       <use xlink:href="#DejaVuSans-74" x="1253.767578"/>
       <use xlink:href="#DejaVuSans-72" x="1292.976562"/>
       <use xlink:href="#DejaVuSans-61" x="1334.089844"/>
       <use xlink:href="#DejaVuSans-6e" x="1395.369141"/>
       <use xlink:href="#DejaVuSans-73" x="1458.748047"/>
       <use xlink:href="#DejaVuSans-6d" x="1510.847656"/>
       <use xlink:href="#DejaVuSans-65" x="1608.259766"/>
       <use xlink:href="#DejaVuSans-6d" x="1669.783203"/>
       <use xlink:href="#DejaVuSans-62" x="1767.195312"/>
       <use xlink:href="#DejaVuSans-72" x="1830.671875"/>
       <use xlink:href="#DejaVuSans-61" x="1871.785156"/>
       <use xlink:href="#DejaVuSans-6e" x="1933.064453"/>
       <use xlink:href="#DejaVuSans-65" x="1996.443359"/>
       <use xlink:href="#DejaVuSans-20" x="2057.966797"/>
       <use xlink:href="#DejaVuSans-74" x="2089.753906"/>
       <use xlink:href="#DejaVuSans-72" x="2128.962891"/>
       <use xlink:href="#DejaVuSans-61" x="2170.076172"/>
       <use xlink:href="#DejaVuSans-6e" x="2231.355469"/>
       <use xlink:href="#DejaVuSans-73" x="2294.734375"/>
       <use xlink:href="#DejaVuSans-70" x="2346.833984"/>
       <use xlink:href="#DejaVuSans-6f" x="2410.310547"/>
       <use xlink:href="#DejaVuSans-72" x="2471.492188"/>
       <use xlink:href="#DejaVuSans-74" x="2512.605469"/>
       <use xlink:href="#DejaVuSans-65" x="2551.814453"/>
       <use xlink:href="#DejaVuSans-72" x="2613.337891"/>
       <use xlink:href="#DejaVuSans-20" x="2654.451172"/>
       <use xlink:href="#DejaVuSans-61" x="2686.238281"/>
       <use xlink:href="#DejaVuSans-63" x="2747.517578"/>
       <use xlink:href="#DejaVuSans-74" x="2802.498047"/>
       <use xlink:href="#DejaVuSans-69" x="2841.707031"/>
       <use xlink:href="#DejaVuSans-76" x="2869.490234"/>
       <use xlink:href="#DejaVuSans-69" x="2928.669922"/>
       <use xlink:href="#DejaVuSans-74" x="2956.453125"/>
       <use xlink:href="#DejaVuSans-79" x="2995.662109"/>
      </g>
     </g>
    </g>
    <g id="ytick_3">
     <g id="line2d_8">
      <g>
       <use xlink:href="#m8bb8ffb254" x="473.265858" y="274.514949" style="stroke: #000000; stroke-width: 0.8"/>
      </g>
     </g>
     <g id="text_9">
      <!-- GO:0015101: organic cation transmembrane transporter activit... -->
      <g transform="translate(13.672269 359.387556) rotate(-10) scale(0.14 -0.14)">
       <defs>
        <path id="DejaVuSans-67" d="M 2906 1791 
Q 2906 2416 2648 2759 
Q 2391 3103 1925 3103 
Q 1463 3103 1205 2759 
Q 947 2416 947 1791 
Q 947 1169 1205 825 
Q 1463 481 1925 481 
Q 2391 481 2648 825 
Q 2906 1169 2906 1791 
z
M 3481 434 
Q 3481 -459 3084 -895 
Q 2688 -1331 1869 -1331 
Q 1566 -1331 1297 -1286 
Q 1028 -1241 775 -1147 
L 775 -588 
Q 1028 -725 1275 -790 
Q 1522 -856 1778 -856 
Q 2344 -856 2625 -561 
Q 2906 -266 2906 331 
L 2906 616 
Q 2728 306 2450 153 
Q 2172 0 1784 0 
Q 1141 0 747 490 
Q 353 981 353 1791 
Q 353 2603 747 3093 
Q 1141 3584 1784 3584 
Q 2172 3584 2450 3431 
Q 2728 3278 2906 2969 
L 2906 3500 
L 3481 3500 
L 3481 434 
z
" transform="scale(0.015625)"/>
        <path id="DejaVuSans-2e" d="M 684 794 
L 1344 794 
L 1344 0 
L 684 0 
L 684 794 
z
" transform="scale(0.015625)"/>
       </defs>
       <use xlink:href="#DejaVuSans-47"/>
       <use xlink:href="#DejaVuSans-4f" x="77.490234"/>
       <use xlink:href="#DejaVuSans-3a" x="154.451172"/>
       <use xlink:href="#DejaVuSans-30" x="188.142578"/>
       <use xlink:href="#DejaVuSans-30" x="251.765625"/>
       <use xlink:href="#DejaVuSans-31" x="315.388672"/>
       <use xlink:href="#DejaVuSans-35" x="379.011719"/>
       <use xlink:href="#DejaVuSans-31" x="442.634766"/>
       <use xlink:href="#DejaVuSans-30" x="506.257812"/>
       <use xlink:href="#DejaVuSans-31" x="569.880859"/>
       <use xlink:href="#DejaVuSans-3a" x="633.503906"/>
       <use xlink:href="#DejaVuSans-20" x="667.195312"/>
       <use xlink:href="#DejaVuSans-6f" x="698.982422"/>
       <use xlink:href="#DejaVuSans-72" x="760.164062"/>
       <use xlink:href="#DejaVuSans-67" x="799.527344"/>
       <use xlink:href="#DejaVuSans-61" x="863.003906"/>
       <use xlink:href="#DejaVuSans-6e" x="924.283203"/>
       <use xlink:href="#DejaVuSans-69" x="987.662109"/>
       <use xlink:href="#DejaVuSans-63" x="1015.445312"/>
       <use xlink:href="#DejaVuSans-20" x="1070.425781"/>
       <use xlink:href="#DejaVuSans-63" x="1102.212891"/>
       <use xlink:href="#DejaVuSans-61" x="1157.193359"/>
       <use xlink:href="#DejaVuSans-74" x="1218.472656"/>
       <use xlink:href="#DejaVuSans-69" x="1257.681641"/>
       <use xlink:href="#DejaVuSans-6f" x="1285.464844"/>
       <use xlink:href="#DejaVuSans-6e" x="1346.646484"/>
       <use xlink:href="#DejaVuSans-20" x="1410.025391"/>
       <use xlink:href="#DejaVuSans-74" x="1441.8125"/>
       <use xlink:href="#DejaVuSans-72" x="1481.021484"/>
       <use xlink:href="#DejaVuSans-61" x="1522.134766"/>
       <use xlink:href="#DejaVuSans-6e" x="1583.414062"/>
       <use xlink:href="#DejaVuSans-73" x="1646.792969"/>
       <use xlink:href="#DejaVuSans-6d" x="1698.892578"/>
       <use xlink:href="#DejaVuSans-65" x="1796.304688"/>
       <use xlink:href="#DejaVuSans-6d" x="1857.828125"/>
       <use xlink:href="#DejaVuSans-62" x="1955.240234"/>
       <use xlink:href="#DejaVuSans-72" x="2018.716797"/>
       <use xlink:href="#DejaVuSans-61" x="2059.830078"/>
       <use xlink:href="#DejaVuSans-6e" x="2121.109375"/>
       <use xlink:href="#DejaVuSans-65" x="2184.488281"/>
       <use xlink:href="#DejaVuSans-20" x="2246.011719"/>
       <use xlink:href="#DejaVuSans-74" x="2277.798828"/>
       <use xlink:href="#DejaVuSans-72" x="2317.007812"/>
       <use xlink:href="#DejaVuSans-61" x="2358.121094"/>
       <use xlink:href="#DejaVuSans-6e" x="2419.400391"/>
       <use xlink:href="#DejaVuSans-73" x="2482.779297"/>
       <use xlink:href="#DejaVuSans-70" x="2534.878906"/>
       <use xlink:href="#DejaVuSans-6f" x="2598.355469"/>
       <use xlink:href="#DejaVuSans-72" x="2659.537109"/>
       <use xlink:href="#DejaVuSans-74" x="2700.650391"/>
       <use xlink:href="#DejaVuSans-65" x="2739.859375"/>
       <use xlink:href="#DejaVuSans-72" x="2801.382812"/>
       <use xlink:href="#DejaVuSans-20" x="2842.496094"/>
       <use xlink:href="#DejaVuSans-61" x="2874.283203"/>
       <use xlink:href="#DejaVuSans-63" x="2935.5625"/>
       <use xlink:href="#DejaVuSans-74" x="2990.542969"/>
       <use xlink:href="#DejaVuSans-69" x="3029.751953"/>
       <use xlink:href="#DejaVuSans-76" x="3057.535156"/>
       <use xlink:href="#DejaVuSans-69" x="3116.714844"/>
       <use xlink:href="#DejaVuSans-74" x="3144.498047"/>
       <use xlink:href="#DejaVuSans-2e" x="3183.707031"/>
       <use xlink:href="#DejaVuSans-2e" x="3215.494141"/>
       <use xlink:href="#DejaVuSans-2e" x="3247.28125"/>
      </g>
     </g>
    </g>
    <g id="ytick_4">
     <g id="line2d_9">
      <g>
       <use xlink:href="#m8bb8ffb254" x="473.265858" y="239.11697" style="stroke: #000000; stroke-width: 0.8"/>
      </g>
     </g>
     <g id="text_10">
      <!-- GO:0008519: ammonium transmembrane transporter activity -->
      <g transform="translate(38.211524 319.662643) rotate(-10) scale(0.14 -0.14)">
       <defs>
        <path id="DejaVuSans-39" d="M 703 97 
L 703 672 
Q 941 559 1184 500 
Q 1428 441 1663 441 
Q 2288 441 2617 861 
Q 2947 1281 2994 2138 
Q 2813 1869 2534 1725 
Q 2256 1581 1919 1581 
Q 1219 1581 811 2004 
Q 403 2428 403 3163 
Q 403 3881 828 4315 
Q 1253 4750 1959 4750 
Q 2769 4750 3195 4129 
Q 3622 3509 3622 2328 
Q 3622 1225 3098 567 
Q 2575 -91 1691 -91 
Q 1453 -91 1209 -44 
Q 966 3 703 97 
z
M 1959 2075 
Q 2384 2075 2632 2365 
Q 2881 2656 2881 3163 
Q 2881 3666 2632 3958 
Q 2384 4250 1959 4250 
Q 1534 4250 1286 3958 
Q 1038 3666 1038 3163 
Q 1038 2656 1286 2365 
Q 1534 2075 1959 2075 
z
" transform="scale(0.015625)"/>
       </defs>
       <use xlink:href="#DejaVuSans-47"/>
       <use xlink:href="#DejaVuSans-4f" x="77.490234"/>
       <use xlink:href="#DejaVuSans-3a" x="154.451172"/>
       <use xlink:href="#DejaVuSans-30" x="188.142578"/>
       <use xlink:href="#DejaVuSans-30" x="251.765625"/>
       <use xlink:href="#DejaVuSans-30" x="315.388672"/>
       <use xlink:href="#DejaVuSans-38" x="379.011719"/>
       <use xlink:href="#DejaVuSans-35" x="442.634766"/>
       <use xlink:href="#DejaVuSans-31" x="506.257812"/>
       <use xlink:href="#DejaVuSans-39" x="569.880859"/>
       <use xlink:href="#DejaVuSans-3a" x="633.503906"/>
       <use xlink:href="#DejaVuSans-20" x="667.195312"/>
       <use xlink:href="#DejaVuSans-61" x="698.982422"/>
       <use xlink:href="#DejaVuSans-6d" x="760.261719"/>
       <use xlink:href="#DejaVuSans-6d" x="857.673828"/>
       <use xlink:href="#DejaVuSans-6f" x="955.085938"/>
       <use xlink:href="#DejaVuSans-6e" x="1016.267578"/>
       <use xlink:href="#DejaVuSans-69" x="1079.646484"/>
       <use xlink:href="#DejaVuSans-75" x="1107.429688"/>
       <use xlink:href="#DejaVuSans-6d" x="1170.808594"/>
       <use xlink:href="#DejaVuSans-20" x="1268.220703"/>
       <use xlink:href="#DejaVuSans-74" x="1300.007812"/>
       <use xlink:href="#DejaVuSans-72" x="1339.216797"/>
       <use xlink:href="#DejaVuSans-61" x="1380.330078"/>
       <use xlink:href="#DejaVuSans-6e" x="1441.609375"/>
       <use xlink:href="#DejaVuSans-73" x="1504.988281"/>
       <use xlink:href="#DejaVuSans-6d" x="1557.087891"/>
       <use xlink:href="#DejaVuSans-65" x="1654.5"/>
       <use xlink:href="#DejaVuSans-6d" x="1716.023438"/>
       <use xlink:href="#DejaVuSans-62" x="1813.435547"/>
       <use xlink:href="#DejaVuSans-72" x="1876.912109"/>
       <use xlink:href="#DejaVuSans-61" x="1918.025391"/>
       <use xlink:href="#DejaVuSans-6e" x="1979.304688"/>
       <use xlink:href="#DejaVuSans-65" x="2042.683594"/>
       <use xlink:href="#DejaVuSans-20" x="2104.207031"/>
       <use xlink:href="#DejaVuSans-74" x="2135.994141"/>
       <use xlink:href="#DejaVuSans-72" x="2175.203125"/>
       <use xlink:href="#DejaVuSans-61" x="2216.316406"/>
       <use xlink:href="#DejaVuSans-6e" x="2277.595703"/>
       <use xlink:href="#DejaVuSans-73" x="2340.974609"/>
       <use xlink:href="#DejaVuSans-70" x="2393.074219"/>
       <use xlink:href="#DejaVuSans-6f" x="2456.550781"/>
       <use xlink:href="#DejaVuSans-72" x="2517.732422"/>
       <use xlink:href="#DejaVuSans-74" x="2558.845703"/>
       <use xlink:href="#DejaVuSans-65" x="2598.054688"/>
       <use xlink:href="#DejaVuSans-72" x="2659.578125"/>
       <use xlink:href="#DejaVuSans-20" x="2700.691406"/>
       <use xlink:href="#DejaVuSans-61" x="2732.478516"/>
       <use xlink:href="#DejaVuSans-63" x="2793.757812"/>
       <use xlink:href="#DejaVuSans-74" x="2848.738281"/>
       <use xlink:href="#DejaVuSans-69" x="2887.947266"/>
       <use xlink:href="#DejaVuSans-76" x="2915.730469"/>
       <use xlink:href="#DejaVuSans-69" x="2974.910156"/>
       <use xlink:href="#DejaVuSans-74" x="3002.693359"/>
       <use xlink:href="#DejaVuSans-79" x="3041.902344"/>
      </g>
     </g>
    </g>
    <g id="ytick_5">
     <g id="line2d_10">
      <g>
       <use xlink:href="#m8bb8ffb254" x="473.265858" y="203.71899" style="stroke: #000000; stroke-width: 0.8"/>
      </g>
     </g>
     <g id="text_11">
      <!-- Transcript Features: Annotated transcript length -->
      <g transform="translate(134.192734 267.340586) rotate(-10) scale(0.14 -0.14)">
       <defs>
        <path id="DejaVuSans-54" d="M -19 4666 
L 3928 4666 
L 3928 4134 
L 2272 4134 
L 2272 0 
L 1638 0 
L 1638 4134 
L -19 4134 
L -19 4666 
z
" transform="scale(0.015625)"/>
        <path id="DejaVuSans-41" d="M 2188 4044 
L 1331 1722 
L 3047 1722 
L 2188 4044 
z
M 1831 4666 
L 2547 4666 
L 4325 0 
L 3669 0 
L 3244 1197 
L 1141 1197 
L 716 0 
L 50 0 
L 1831 4666 
z
" transform="scale(0.015625)"/>
       </defs>
       <use xlink:href="#DejaVuSans-54"/>
       <use xlink:href="#DejaVuSans-72" x="46.333984"/>
       <use xlink:href="#DejaVuSans-61" x="87.447266"/>
       <use xlink:href="#DejaVuSans-6e" x="148.726562"/>
       <use xlink:href="#DejaVuSans-73" x="212.105469"/>
       <use xlink:href="#DejaVuSans-63" x="264.205078"/>
       <use xlink:href="#DejaVuSans-72" x="319.185547"/>
       <use xlink:href="#DejaVuSans-69" x="360.298828"/>
       <use xlink:href="#DejaVuSans-70" x="388.082031"/>
       <use xlink:href="#DejaVuSans-74" x="451.558594"/>
       <use xlink:href="#DejaVuSans-20" x="490.767578"/>
       <use xlink:href="#DejaVuSans-46" x="522.554688"/>
       <use xlink:href="#DejaVuSans-65" x="574.574219"/>
       <use xlink:href="#DejaVuSans-61" x="636.097656"/>
       <use xlink:href="#DejaVuSans-74" x="697.376953"/>
       <use xlink:href="#DejaVuSans-75" x="736.585938"/>
       <use xlink:href="#DejaVuSans-72" x="799.964844"/>
       <use xlink:href="#DejaVuSans-65" x="838.828125"/>
       <use xlink:href="#DejaVuSans-73" x="900.351562"/>
       <use xlink:href="#DejaVuSans-3a" x="952.451172"/>
       <use xlink:href="#DejaVuSans-20" x="986.142578"/>
       <use xlink:href="#DejaVuSans-41" x="1017.929688"/>
       <use xlink:href="#DejaVuSans-6e" x="1086.337891"/>
       <use xlink:href="#DejaVuSans-6e" x="1149.716797"/>
       <use xlink:href="#DejaVuSans-6f" x="1213.095703"/>
       <use xlink:href="#DejaVuSans-74" x="1274.277344"/>
       <use xlink:href="#DejaVuSans-61" x="1313.486328"/>
       <use xlink:href="#DejaVuSans-74" x="1374.765625"/>
       <use xlink:href="#DejaVuSans-65" x="1413.974609"/>
       <use xlink:href="#DejaVuSans-64" x="1475.498047"/>
       <use xlink:href="#DejaVuSans-20" x="1538.974609"/>
       <use xlink:href="#DejaVuSans-74" x="1570.761719"/>
       <use xlink:href="#DejaVuSans-72" x="1609.970703"/>
       <use xlink:href="#DejaVuSans-61" x="1651.083984"/>
       <use xlink:href="#DejaVuSans-6e" x="1712.363281"/>
       <use xlink:href="#DejaVuSans-73" x="1775.742188"/>
       <use xlink:href="#DejaVuSans-63" x="1827.841797"/>
       <use xlink:href="#DejaVuSans-72" x="1882.822266"/>
       <use xlink:href="#DejaVuSans-69" x="1923.935547"/>
       <use xlink:href="#DejaVuSans-70" x="1951.71875"/>
       <use xlink:href="#DejaVuSans-74" x="2015.195312"/>
       <use xlink:href="#DejaVuSans-20" x="2054.404297"/>
       <use xlink:href="#DejaVuSans-6c" x="2086.191406"/>
       <use xlink:href="#DejaVuSans-65" x="2113.974609"/>
       <use xlink:href="#DejaVuSans-6e" x="2175.498047"/>
       <use xlink:href="#DejaVuSans-67" x="2238.876953"/>
       <use xlink:href="#DejaVuSans-74" x="2302.353516"/>
       <use xlink:href="#DejaVuSans-68" x="2341.5625"/>
      </g>
     </g>
    </g>
    <g id="ytick_6">
     <g id="line2d_11">
      <g>
       <use xlink:href="#m8bb8ffb254" x="473.265858" y="168.32101" style="stroke: #000000; stroke-width: 0.8"/>
      </g>
     </g>
     <g id="text_12">
      <!-- GO:0015696: ammonium transport -->
      <g transform="translate(222.823586 216.314596) rotate(-10) scale(0.14 -0.14)">
       <defs>
        <path id="DejaVuSans-36" d="M 2113 2584 
Q 1688 2584 1439 2293 
Q 1191 2003 1191 1497 
Q 1191 994 1439 701 
Q 1688 409 2113 409 
Q 2538 409 2786 701 
Q 3034 994 3034 1497 
Q 3034 2003 2786 2293 
Q 2538 2584 2113 2584 
z
M 3366 4563 
L 3366 3988 
Q 3128 4100 2886 4159 
Q 2644 4219 2406 4219 
Q 1781 4219 1451 3797 
Q 1122 3375 1075 2522 
Q 1259 2794 1537 2939 
Q 1816 3084 2150 3084 
Q 2853 3084 3261 2657 
Q 3669 2231 3669 1497 
Q 3669 778 3244 343 
Q 2819 -91 2113 -91 
Q 1303 -91 875 529 
Q 447 1150 447 2328 
Q 447 3434 972 4092 
Q 1497 4750 2381 4750 
Q 2619 4750 2861 4703 
Q 3103 4656 3366 4563 
z
" transform="scale(0.015625)"/>
       </defs>
       <use xlink:href="#DejaVuSans-47"/>
       <use xlink:href="#DejaVuSans-4f" x="77.490234"/>
       <use xlink:href="#DejaVuSans-3a" x="154.451172"/>
       <use xlink:href="#DejaVuSans-30" x="188.142578"/>
       <use xlink:href="#DejaVuSans-30" x="251.765625"/>
       <use xlink:href="#DejaVuSans-31" x="315.388672"/>
       <use xlink:href="#DejaVuSans-35" x="379.011719"/>
       <use xlink:href="#DejaVuSans-36" x="442.634766"/>
       <use xlink:href="#DejaVuSans-39" x="506.257812"/>
       <use xlink:href="#DejaVuSans-36" x="569.880859"/>
       <use xlink:href="#DejaVuSans-3a" x="633.503906"/>
       <use xlink:href="#DejaVuSans-20" x="667.195312"/>
       <use xlink:href="#DejaVuSans-61" x="698.982422"/>
       <use xlink:href="#DejaVuSans-6d" x="760.261719"/>
       <use xlink:href="#DejaVuSans-6d" x="857.673828"/>
       <use xlink:href="#DejaVuSans-6f" x="955.085938"/>
       <use xlink:href="#DejaVuSans-6e" x="1016.267578"/>
       <use xlink:href="#DejaVuSans-69" x="1079.646484"/>
       <use xlink:href="#DejaVuSans-75" x="1107.429688"/>
       <use xlink:href="#DejaVuSans-6d" x="1170.808594"/>
       <use xlink:href="#DejaVuSans-20" x="1268.220703"/>
       <use xlink:href="#DejaVuSans-74" x="1300.007812"/>
       <use xlink:href="#DejaVuSans-72" x="1339.216797"/>
       <use xlink:href="#DejaVuSans-61" x="1380.330078"/>
       <use xlink:href="#DejaVuSans-6e" x="1441.609375"/>
       <use xlink:href="#DejaVuSans-73" x="1504.988281"/>
       <use xlink:href="#DejaVuSans-70" x="1557.087891"/>
       <use xlink:href="#DejaVuSans-6f" x="1620.564453"/>
       <use xlink:href="#DejaVuSans-72" x="1681.746094"/>
       <use xlink:href="#DejaVuSans-74" x="1722.859375"/>
      </g>
     </g>
    </g>
    <g id="ytick_7">
     <g id="line2d_12">
      <g>
       <use xlink:href="#m8bb8ffb254" x="473.265858" y="132.92303" style="stroke: #000000; stroke-width: 0.8"/>
      </g>
     </g>
     <g id="text_13">
      <!-- GO:0015846: polyamine transport -->
      <g transform="translate(229.193753 179.793384) rotate(-10) scale(0.14 -0.14)">
       <use xlink:href="#DejaVuSans-47"/>
       <use xlink:href="#DejaVuSans-4f" x="77.490234"/>
       <use xlink:href="#DejaVuSans-3a" x="154.451172"/>
       <use xlink:href="#DejaVuSans-30" x="188.142578"/>
       <use xlink:href="#DejaVuSans-30" x="251.765625"/>
       <use xlink:href="#DejaVuSans-31" x="315.388672"/>
       <use xlink:href="#DejaVuSans-35" x="379.011719"/>
       <use xlink:href="#DejaVuSans-38" x="442.634766"/>
       <use xlink:href="#DejaVuSans-34" x="506.257812"/>
       <use xlink:href="#DejaVuSans-36" x="569.880859"/>
       <use xlink:href="#DejaVuSans-3a" x="633.503906"/>
       <use xlink:href="#DejaVuSans-20" x="667.195312"/>
       <use xlink:href="#DejaVuSans-70" x="698.982422"/>
       <use xlink:href="#DejaVuSans-6f" x="762.458984"/>
       <use xlink:href="#DejaVuSans-6c" x="823.640625"/>
       <use xlink:href="#DejaVuSans-79" x="851.423828"/>
       <use xlink:href="#DejaVuSans-61" x="910.603516"/>
       <use xlink:href="#DejaVuSans-6d" x="971.882812"/>
       <use xlink:href="#DejaVuSans-69" x="1069.294922"/>
       <use xlink:href="#DejaVuSans-6e" x="1097.078125"/>
       <use xlink:href="#DejaVuSans-65" x="1160.457031"/>
       <use xlink:href="#DejaVuSans-20" x="1221.980469"/>
       <use xlink:href="#DejaVuSans-74" x="1253.767578"/>
       <use xlink:href="#DejaVuSans-72" x="1292.976562"/>
       <use xlink:href="#DejaVuSans-61" x="1334.089844"/>
       <use xlink:href="#DejaVuSans-6e" x="1395.369141"/>
       <use xlink:href="#DejaVuSans-73" x="1458.748047"/>
       <use xlink:href="#DejaVuSans-70" x="1510.847656"/>
       <use xlink:href="#DejaVuSans-6f" x="1574.324219"/>
       <use xlink:href="#DejaVuSans-72" x="1635.505859"/>
       <use xlink:href="#DejaVuSans-74" x="1676.619141"/>
      </g>
     </g>
    </g>
    <g id="ytick_8">
     <g id="line2d_13">
      <g>
       <use xlink:href="#m8bb8ffb254" x="473.265858" y="97.525051" style="stroke: #000000; stroke-width: 0.8"/>
      </g>
     </g>
     <g id="text_14">
      <!-- GO:0098630: aggregation of unicellular organisms -->
      <g transform="translate(116.404952 164.283113) rotate(-10) scale(0.14 -0.14)">
       <use xlink:href="#DejaVuSans-47"/>
       <use xlink:href="#DejaVuSans-4f" x="77.490234"/>
       <use xlink:href="#DejaVuSans-3a" x="154.451172"/>
       <use xlink:href="#DejaVuSans-30" x="188.142578"/>
       <use xlink:href="#DejaVuSans-30" x="251.765625"/>
       <use xlink:href="#DejaVuSans-39" x="315.388672"/>
       <use xlink:href="#DejaVuSans-38" x="379.011719"/>
       <use xlink:href="#DejaVuSans-36" x="442.634766"/>
       <use xlink:href="#DejaVuSans-33" x="506.257812"/>
       <use xlink:href="#DejaVuSans-30" x="569.880859"/>
       <use xlink:href="#DejaVuSans-3a" x="633.503906"/>
       <use xlink:href="#DejaVuSans-20" x="667.195312"/>
       <use xlink:href="#DejaVuSans-61" x="698.982422"/>
       <use xlink:href="#DejaVuSans-67" x="760.261719"/>
       <use xlink:href="#DejaVuSans-67" x="823.738281"/>
       <use xlink:href="#DejaVuSans-72" x="887.214844"/>
       <use xlink:href="#DejaVuSans-65" x="926.078125"/>
       <use xlink:href="#DejaVuSans-67" x="987.601562"/>
       <use xlink:href="#DejaVuSans-61" x="1051.078125"/>
       <use xlink:href="#DejaVuSans-74" x="1112.357422"/>
       <use xlink:href="#DejaVuSans-69" x="1151.566406"/>
       <use xlink:href="#DejaVuSans-6f" x="1179.349609"/>
       <use xlink:href="#DejaVuSans-6e" x="1240.53125"/>
       <use xlink:href="#DejaVuSans-20" x="1303.910156"/>
       <use xlink:href="#DejaVuSans-6f" x="1335.697266"/>
       <use xlink:href="#DejaVuSans-66" x="1396.878906"/>
       <use xlink:href="#DejaVuSans-20" x="1432.083984"/>
       <use xlink:href="#DejaVuSans-75" x="1463.871094"/>
       <use xlink:href="#DejaVuSans-6e" x="1527.25"/>
       <use xlink:href="#DejaVuSans-69" x="1590.628906"/>
       <use xlink:href="#DejaVuSans-63" x="1618.412109"/>
       <use xlink:href="#DejaVuSans-65" x="1673.392578"/>
       <use xlink:href="#DejaVuSans-6c" x="1734.916016"/>
       <use xlink:href="#DejaVuSans-6c" x="1762.699219"/>
       <use xlink:href="#DejaVuSans-75" x="1790.482422"/>
       <use xlink:href="#DejaVuSans-6c" x="1853.861328"/>
       <use xlink:href="#DejaVuSans-61" x="1881.644531"/>
       <use xlink:href="#DejaVuSans-72" x="1942.923828"/>
       <use xlink:href="#DejaVuSans-20" x="1984.037109"/>
       <use xlink:href="#DejaVuSans-6f" x="2015.824219"/>
       <use xlink:href="#DejaVuSans-72" x="2077.005859"/>
       <use xlink:href="#DejaVuSans-67" x="2116.369141"/>
       <use xlink:href="#DejaVuSans-61" x="2179.845703"/>
       <use xlink:href="#DejaVuSans-6e" x="2241.125"/>
       <use xlink:href="#DejaVuSans-69" x="2304.503906"/>
       <use xlink:href="#DejaVuSans-73" x="2332.287109"/>
       <use xlink:href="#DejaVuSans-6d" x="2384.386719"/>
       <use xlink:href="#DejaVuSans-73" x="2481.798828"/>
      </g>
     </g>
    </g>
    <g id="ytick_9">
     <g id="line2d_14">
      <g>
       <use xlink:href="#m8bb8ffb254" x="473.265858" y="62.127071" style="stroke: #000000; stroke-width: 0.8"/>
      </g>
     </g>
     <g id="text_15">
      <!-- PF10557: Cullin protein neddylation domain -->
      <g transform="translate(162.676452 120.726219) rotate(-10) scale(0.14 -0.14)">
       <defs>
        <path id="DejaVuSans-50" d="M 1259 4147 
L 1259 2394 
L 2053 2394 
Q 2494 2394 2734 2622 
Q 2975 2850 2975 3272 
Q 2975 3691 2734 3919 
Q 2494 4147 2053 4147 
L 1259 4147 
z
M 628 4666 
L 2053 4666 
Q 2838 4666 3239 4311 
Q 3641 3956 3641 3272 
Q 3641 2581 3239 2228 
Q 2838 1875 2053 1875 
L 1259 1875 
L 1259 0 
L 628 0 
L 628 4666 
z
" transform="scale(0.015625)"/>
        <path id="DejaVuSans-37" d="M 525 4666 
L 3525 4666 
L 3525 4397 
L 1831 0 
L 1172 0 
L 2766 4134 
L 525 4134 
L 525 4666 
z
" transform="scale(0.015625)"/>
        <path id="DejaVuSans-43" d="M 4122 4306 
L 4122 3641 
Q 3803 3938 3442 4084 
Q 3081 4231 2675 4231 
Q 1875 4231 1450 3742 
Q 1025 3253 1025 2328 
Q 1025 1406 1450 917 
Q 1875 428 2675 428 
Q 3081 428 3442 575 
Q 3803 722 4122 1019 
L 4122 359 
Q 3791 134 3420 21 
Q 3050 -91 2638 -91 
Q 1578 -91 968 557 
Q 359 1206 359 2328 
Q 359 3453 968 4101 
Q 1578 4750 2638 4750 
Q 3056 4750 3426 4639 
Q 3797 4528 4122 4306 
z
" transform="scale(0.015625)"/>
       </defs>
       <use xlink:href="#DejaVuSans-50"/>
       <use xlink:href="#DejaVuSans-46" x="60.302734"/>
       <use xlink:href="#DejaVuSans-31" x="117.822266"/>
       <use xlink:href="#DejaVuSans-30" x="181.445312"/>
       <use xlink:href="#DejaVuSans-35" x="245.068359"/>
       <use xlink:href="#DejaVuSans-35" x="308.691406"/>
       <use xlink:href="#DejaVuSans-37" x="372.314453"/>
       <use xlink:href="#DejaVuSans-3a" x="435.9375"/>
       <use xlink:href="#DejaVuSans-20" x="469.628906"/>
       <use xlink:href="#DejaVuSans-43" x="501.416016"/>
       <use xlink:href="#DejaVuSans-75" x="571.240234"/>
       <use xlink:href="#DejaVuSans-6c" x="634.619141"/>
       <use xlink:href="#DejaVuSans-6c" x="662.402344"/>
       <use xlink:href="#DejaVuSans-69" x="690.185547"/>
       <use xlink:href="#DejaVuSans-6e" x="717.96875"/>
       <use xlink:href="#DejaVuSans-20" x="781.347656"/>
       <use xlink:href="#DejaVuSans-70" x="813.134766"/>
       <use xlink:href="#DejaVuSans-72" x="876.611328"/>
       <use xlink:href="#DejaVuSans-6f" x="915.474609"/>
       <use xlink:href="#DejaVuSans-74" x="976.65625"/>
       <use xlink:href="#DejaVuSans-65" x="1015.865234"/>
       <use xlink:href="#DejaVuSans-69" x="1077.388672"/>
       <use xlink:href="#DejaVuSans-6e" x="1105.171875"/>
       <use xlink:href="#DejaVuSans-20" x="1168.550781"/>
       <use xlink:href="#DejaVuSans-6e" x="1200.337891"/>
       <use xlink:href="#DejaVuSans-65" x="1263.716797"/>
       <use xlink:href="#DejaVuSans-64" x="1325.240234"/>
       <use xlink:href="#DejaVuSans-64" x="1388.716797"/>
       <use xlink:href="#DejaVuSans-79" x="1452.193359"/>
       <use xlink:href="#DejaVuSans-6c" x="1511.373047"/>
       <use xlink:href="#DejaVuSans-61" x="1539.15625"/>
       <use xlink:href="#DejaVuSans-74" x="1600.435547"/>
       <use xlink:href="#DejaVuSans-69" x="1639.644531"/>
       <use xlink:href="#DejaVuSans-6f" x="1667.427734"/>
       <use xlink:href="#DejaVuSans-6e" x="1728.609375"/>
       <use xlink:href="#DejaVuSans-20" x="1791.988281"/>
       <use xlink:href="#DejaVuSans-64" x="1823.775391"/>
       <use xlink:href="#DejaVuSans-6f" x="1887.251953"/>
       <use xlink:href="#DejaVuSans-6d" x="1948.433594"/>
       <use xlink:href="#DejaVuSans-61" x="2045.845703"/>
       <use xlink:href="#DejaVuSans-69" x="2107.125"/>
       <use xlink:href="#DejaVuSans-6e" x="2134.908203"/>
      </g>
     </g>
    </g>
    <g id="ytick_10">
     <g id="line2d_15">
      <g>
       <use xlink:href="#m8bb8ffb254" x="473.265858" y="26.729091" style="stroke: #000000; stroke-width: 0.8"/>
      </g>
     </g>
     <g id="text_16">
      <!-- GO:0098743: cell aggregation -->
      <g transform="translate(257.875663 68.54205) rotate(-10) scale(0.14 -0.14)">
       <use xlink:href="#DejaVuSans-47"/>
       <use xlink:href="#DejaVuSans-4f" x="77.490234"/>
       <use xlink:href="#DejaVuSans-3a" x="154.451172"/>
       <use xlink:href="#DejaVuSans-30" x="188.142578"/>
       <use xlink:href="#DejaVuSans-30" x="251.765625"/>
       <use xlink:href="#DejaVuSans-39" x="315.388672"/>
       <use xlink:href="#DejaVuSans-38" x="379.011719"/>
       <use xlink:href="#DejaVuSans-37" x="442.634766"/>
       <use xlink:href="#DejaVuSans-34" x="506.257812"/>
       <use xlink:href="#DejaVuSans-33" x="569.880859"/>
       <use xlink:href="#DejaVuSans-3a" x="633.503906"/>
       <use xlink:href="#DejaVuSans-20" x="667.195312"/>
       <use xlink:href="#DejaVuSans-63" x="698.982422"/>
       <use xlink:href="#DejaVuSans-65" x="753.962891"/>
       <use xlink:href="#DejaVuSans-6c" x="815.486328"/>
       <use xlink:href="#DejaVuSans-6c" x="843.269531"/>
       <use xlink:href="#DejaVuSans-20" x="871.052734"/>
       <use xlink:href="#DejaVuSans-61" x="902.839844"/>
       <use xlink:href="#DejaVuSans-67" x="964.119141"/>
       <use xlink:href="#DejaVuSans-67" x="1027.595703"/>
       <use xlink:href="#DejaVuSans-72" x="1091.072266"/>
       <use xlink:href="#DejaVuSans-65" x="1129.935547"/>
       <use xlink:href="#DejaVuSans-67" x="1191.458984"/>
       <use xlink:href="#DejaVuSans-61" x="1254.935547"/>
       <use xlink:href="#DejaVuSans-74" x="1316.214844"/>
       <use xlink:href="#DejaVuSans-69" x="1355.423828"/>
       <use xlink:href="#DejaVuSans-6f" x="1383.207031"/>
       <use xlink:href="#DejaVuSans-6e" x="1444.388672"/>
      </g>
     </g>
    </g>
   </g>
   <g id="line2d_16">
    <path d="M 483.990137 345.310909 
L 561.773929 345.310909 
" clip-path="url(#pccb73706f9)" style="fill: none; stroke: #006400; stroke-width: 5; stroke-linecap: square"/>
   </g>
   <g id="line2d_17">
    <path d="M 483.990137 309.912929 
L 561.773929 309.912929 
" clip-path="url(#pccb73706f9)" style="fill: none; stroke: #006400; stroke-width: 5; stroke-linecap: square"/>
   </g>
   <g id="line2d_18">
    <path d="M 483.990137 274.514949 
L 541.959214 274.514949 
" clip-path="url(#pccb73706f9)" style="fill: none; stroke: #006400; stroke-width: 5; stroke-linecap: square"/>
   </g>
   <g id="line2d_19">
    <path d="M 483.990137 239.11697 
L 541.959214 239.11697 
" clip-path="url(#pccb73706f9)" style="fill: none; stroke: #006400; stroke-width: 5; stroke-linecap: square"/>
   </g>
   <g id="line2d_20">
    <path d="M 483.990137 203.71899 
L 489.739305 203.71899 
" clip-path="url(#pccb73706f9)" style="fill: none; stroke: #8b0000; stroke-width: 5; stroke-linecap: square"/>
   </g>
   <g id="line2d_21">
    <path d="M 483.990137 168.32101 
L 541.959214 168.32101 
" clip-path="url(#pccb73706f9)" style="fill: none; stroke: #006400; stroke-width: 5; stroke-linecap: square"/>
   </g>
   <g id="line2d_22">
    <path d="M 483.990137 132.92303 
L 555.551226 132.92303 
" clip-path="url(#pccb73706f9)" style="fill: none; stroke: #006400; stroke-opacity: 0.923163; stroke-width: 5; stroke-linecap: square"/>
   </g>
   <g id="line2d_23">
    <path d="M 483.990137 97.525051 
L 550.250405 97.525051 
" clip-path="url(#pccb73706f9)" style="fill: none; stroke: #006400; stroke-opacity: 0.907448; stroke-width: 5; stroke-linecap: square"/>
   </g>
   <g id="line2d_24">
    <path d="M 483.990137 62.127071 
L 698.475721 62.127071 
" clip-path="url(#pccb73706f9)" style="fill: none; stroke: #006400; stroke-opacity: 0.907448; stroke-width: 5; stroke-linecap: square"/>
   </g>
   <g id="line2d_25">
    <path d="M 483.990137 26.729091 
L 550.250405 26.729091 
" clip-path="url(#pccb73706f9)" style="fill: none; stroke: #006400; stroke-opacity: 0.907448; stroke-width: 5; stroke-linecap: square"/>
   </g>
   <g id="patch_3">
    <path d="M 473.265858 361.24 
L 473.265858 10.8 
" style="fill: none; stroke: #000000; stroke-width: 0.8; stroke-linejoin: miter; stroke-linecap: square"/>
   </g>
   <g id="patch_4">
    <path d="M 709.2 361.24 
L 709.2 10.8 
" style="fill: none; stroke: #000000; stroke-width: 0.8; stroke-linejoin: miter; stroke-linecap: square"/>
   </g>
   <g id="patch_5">
    <path d="M 473.265858 361.24 
L 709.2 361.24 
" style="fill: none; stroke: #000000; stroke-width: 0.8; stroke-linejoin: miter; stroke-linecap: square"/>
   </g>
   <g id="patch_6">
    <path d="M 473.265858 10.8 
L 709.2 10.8 
" style="fill: none; stroke: #000000; stroke-width: 0.8; stroke-linejoin: miter; stroke-linecap: square"/>
   </g>
   <g id="legend_1">
    <g id="patch_7">
     <path d="M 544.483125 355.24 
L 700.8 355.24 
Q 703.2 355.24 703.2 352.84 
L 703.2 173.875 
Q 703.2 171.475 700.8 171.475 
L 544.483125 171.475 
Q 542.083125 171.475 542.083125 173.875 
L 542.083125 352.84 
Q 542.083125 355.24 544.483125 355.24 
z
" style="fill: #ffffff; opacity: 0.8; stroke: #cccccc; stroke-linejoin: miter"/>
    </g>
    <g id="patch_8">
     <path d="M 546.883125 186.625 
L 570.883125 186.625 
L 570.883125 176.275 
L 546.883125 176.275 
z
" style="fill: #006400; opacity: 0.907448; stroke: #006400; stroke-linejoin: miter"/>
    </g>
    <g id="text_17">
     <!-- P= 2.59e-02 -->
     <g transform="translate(580.483125 185.575) scale(0.12 -0.12)">
      <defs>
       <path id="DejaVuSans-3d" d="M 678 2906 
L 4684 2906 
L 4684 2381 
L 678 2381 
L 678 2906 
z
M 678 1631 
L 4684 1631 
L 4684 1100 
L 678 1100 
L 678 1631 
z
" transform="scale(0.015625)"/>
       <path id="DejaVuSans-2d" d="M 313 2009 
L 1997 2009 
L 1997 1497 
L 313 1497 
L 313 2009 
z
" transform="scale(0.015625)"/>
      </defs>
      <use xlink:href="#DejaVuSans-50"/>
      <use xlink:href="#DejaVuSans-3d" x="60.302734"/>
      <use xlink:href="#DejaVuSans-20" x="144.091797"/>
      <use xlink:href="#DejaVuSans-32" x="175.878906"/>
      <use xlink:href="#DejaVuSans-2e" x="239.501953"/>
      <use xlink:href="#DejaVuSans-35" x="271.289062"/>
      <use xlink:href="#DejaVuSans-39" x="334.912109"/>
      <use xlink:href="#DejaVuSans-65" x="398.535156"/>
      <use xlink:href="#DejaVuSans-2d" x="460.058594"/>
      <use xlink:href="#DejaVuSans-30" x="496.142578"/>
      <use xlink:href="#DejaVuSans-32" x="559.765625"/>
     </g>
    </g>
    <g id="patch_9">
     <path d="M 546.883125 209.820625 
L 570.883125 209.820625 
L 570.883125 199.470625 
L 546.883125 199.470625 
z
" style="fill: #006400; opacity: 0.953724; stroke: #006400; stroke-linejoin: miter"/>
    </g>
    <g id="text_18">
     <!-- P= 2.15e-02 -->
     <g transform="translate(580.483125 208.770625) scale(0.12 -0.12)">
      <use xlink:href="#DejaVuSans-50"/>
      <use xlink:href="#DejaVuSans-3d" x="60.302734"/>
      <use xlink:href="#DejaVuSans-20" x="144.091797"/>
      <use xlink:href="#DejaVuSans-32" x="175.878906"/>
      <use xlink:href="#DejaVuSans-2e" x="239.501953"/>
      <use xlink:href="#DejaVuSans-31" x="271.289062"/>
      <use xlink:href="#DejaVuSans-35" x="334.912109"/>
      <use xlink:href="#DejaVuSans-65" x="398.535156"/>
      <use xlink:href="#DejaVuSans-2d" x="460.058594"/>
      <use xlink:href="#DejaVuSans-30" x="496.142578"/>
      <use xlink:href="#DejaVuSans-32" x="559.765625"/>
     </g>
    </g>
    <g id="patch_10">
     <path d="M 546.883125 233.01625 
L 570.883125 233.01625 
L 570.883125 222.66625 
L 546.883125 222.66625 
z
" style="fill: #006400; stroke: #006400; stroke-linejoin: miter"/>
    </g>
    <g id="text_19">
     <!-- P= 1.78e-02 -->
     <g transform="translate(580.483125 231.96625) scale(0.12 -0.12)">
      <use xlink:href="#DejaVuSans-50"/>
      <use xlink:href="#DejaVuSans-3d" x="60.302734"/>
      <use xlink:href="#DejaVuSans-20" x="144.091797"/>
      <use xlink:href="#DejaVuSans-31" x="175.878906"/>
      <use xlink:href="#DejaVuSans-2e" x="239.501953"/>
      <use xlink:href="#DejaVuSans-37" x="271.289062"/>
      <use xlink:href="#DejaVuSans-38" x="334.912109"/>
      <use xlink:href="#DejaVuSans-65" x="398.535156"/>
      <use xlink:href="#DejaVuSans-2d" x="460.058594"/>
      <use xlink:href="#DejaVuSans-30" x="496.142578"/>
      <use xlink:href="#DejaVuSans-32" x="559.765625"/>
     </g>
    </g>
    <g id="PathCollection_5">
     <defs>
      <path id="me9a465f7d5" d="M 0 5 
C 1.326016 5 2.597899 4.473168 3.535534 3.535534 
C 4.473168 2.597899 5 1.326016 5 0 
C 5 -1.326016 4.473168 -2.597899 3.535534 -3.535534 
C 2.597899 -4.473168 1.326016 -5 0 -5 
C -1.326016 -5 -2.597899 -4.473168 -3.535534 -3.535534 
C -4.473168 -2.597899 -5 -1.326016 -5 0 
C -5 1.326016 -4.473168 2.597899 -3.535534 3.535534 
C -2.597899 4.473168 -1.326016 5 0 5 
z
" style="stroke: #006400"/>
     </defs>
     <g>
      <use xlink:href="#me9a465f7d5" x="558.883125" y="251.280625" style="fill: #006400; stroke: #006400"/>
     </g>
    </g>
    <g id="text_20">
     <!-- Genes set size: 100 -->
     <g transform="translate(580.483125 255.161875) scale(0.12 -0.12)">
      <defs>
       <path id="DejaVuSans-7a" d="M 353 3500 
L 3084 3500 
L 3084 2975 
L 922 459 
L 3084 459 
L 3084 0 
L 275 0 
L 275 525 
L 2438 3041 
L 353 3041 
L 353 3500 
z
" transform="scale(0.015625)"/>
      </defs>
      <use xlink:href="#DejaVuSans-47"/>
      <use xlink:href="#DejaVuSans-65" x="77.490234"/>
      <use xlink:href="#DejaVuSans-6e" x="139.013672"/>
      <use xlink:href="#DejaVuSans-65" x="202.392578"/>
      <use xlink:href="#DejaVuSans-73" x="263.916016"/>
      <use xlink:href="#DejaVuSans-20" x="316.015625"/>
      <use xlink:href="#DejaVuSans-73" x="347.802734"/>
      <use xlink:href="#DejaVuSans-65" x="399.902344"/>
      <use xlink:href="#DejaVuSans-74" x="461.425781"/>
      <use xlink:href="#DejaVuSans-20" x="500.634766"/>
      <use xlink:href="#DejaVuSans-73" x="532.421875"/>
      <use xlink:href="#DejaVuSans-69" x="584.521484"/>
      <use xlink:href="#DejaVuSans-7a" x="612.304688"/>
      <use xlink:href="#DejaVuSans-65" x="664.794922"/>
      <use xlink:href="#DejaVuSans-3a" x="726.318359"/>
      <use xlink:href="#DejaVuSans-20" x="760.009766"/>
      <use xlink:href="#DejaVuSans-31" x="791.796875"/>
      <use xlink:href="#DejaVuSans-30" x="855.419922"/>
      <use xlink:href="#DejaVuSans-30" x="919.042969"/>
     </g>
    </g>
    <g id="PathCollection_6">
     <defs>
      <path id="ma37e76c72e" d="M 0 7.071068 
C 1.875269 7.071068 3.673985 6.326016 5 5 
C 6.326016 3.673985 7.071068 1.875269 7.071068 0 
C 7.071068 -1.875269 6.326016 -3.673985 5 -5 
C 3.673985 -6.326016 1.875269 -7.071068 0 -7.071068 
C -1.875269 -7.071068 -3.673985 -6.326016 -5 -5 
C -6.326016 -3.673985 -7.071068 -1.875269 -7.071068 0 
C -7.071068 1.875269 -6.326016 3.673985 -5 5 
C -3.673985 6.326016 -1.875269 7.071068 0 7.071068 
z
" style="stroke: #006400"/>
     </defs>
     <g>
      <use xlink:href="#ma37e76c72e" x="558.883125" y="274.47625" style="fill: #006400; stroke: #006400"/>
     </g>
    </g>
    <g id="text_21">
     <!-- Genes set size: 200 -->
     <g transform="translate(580.483125 278.3575) scale(0.12 -0.12)">
      <use xlink:href="#DejaVuSans-47"/>
      <use xlink:href="#DejaVuSans-65" x="77.490234"/>
      <use xlink:href="#DejaVuSans-6e" x="139.013672"/>
      <use xlink:href="#DejaVuSans-65" x="202.392578"/>
      <use xlink:href="#DejaVuSans-73" x="263.916016"/>
      <use xlink:href="#DejaVuSans-20" x="316.015625"/>
      <use xlink:href="#DejaVuSans-73" x="347.802734"/>
      <use xlink:href="#DejaVuSans-65" x="399.902344"/>
      <use xlink:href="#DejaVuSans-74" x="461.425781"/>
      <use xlink:href="#DejaVuSans-20" x="500.634766"/>
      <use xlink:href="#DejaVuSans-73" x="532.421875"/>
      <use xlink:href="#DejaVuSans-69" x="584.521484"/>
      <use xlink:href="#DejaVuSans-7a" x="612.304688"/>
      <use xlink:href="#DejaVuSans-65" x="664.794922"/>
      <use xlink:href="#DejaVuSans-3a" x="726.318359"/>
      <use xlink:href="#DejaVuSans-20" x="760.009766"/>
      <use xlink:href="#DejaVuSans-32" x="791.796875"/>
      <use xlink:href="#DejaVuSans-30" x="855.419922"/>
      <use xlink:href="#DejaVuSans-30" x="919.042969"/>
     </g>
    </g>
    <g id="PathCollection_7">
     <defs>
      <path id="m351add233d" d="M 0 11.18034 
C 2.965061 11.18034 5.80908 10.002309 7.905694 7.905694 
C 10.002309 5.80908 11.18034 2.965061 11.18034 0 
C 11.18034 -2.965061 10.002309 -5.80908 7.905694 -7.905694 
C 5.80908 -10.002309 2.965061 -11.18034 0 -11.18034 
C -2.965061 -11.18034 -5.80908 -10.002309 -7.905694 -7.905694 
C -10.002309 -5.80908 -11.18034 -2.965061 -11.18034 0 
C -11.18034 2.965061 -10.002309 5.80908 -7.905694 7.905694 
C -5.80908 10.002309 -2.965061 11.18034 0 11.18034 
z
" style="stroke: #006400"/>
     </defs>
     <g>
      <use xlink:href="#m351add233d" x="558.883125" y="297.671875" style="fill: #006400; stroke: #006400"/>
     </g>
    </g>
    <g id="text_22">
     <!-- Genes set size: 500 -->
     <g transform="translate(580.483125 301.553125) scale(0.12 -0.12)">
      <use xlink:href="#DejaVuSans-47"/>
      <use xlink:href="#DejaVuSans-65" x="77.490234"/>
      <use xlink:href="#DejaVuSans-6e" x="139.013672"/>
      <use xlink:href="#DejaVuSans-65" x="202.392578"/>
      <use xlink:href="#DejaVuSans-73" x="263.916016"/>
      <use xlink:href="#DejaVuSans-20" x="316.015625"/>
      <use xlink:href="#DejaVuSans-73" x="347.802734"/>
      <use xlink:href="#DejaVuSans-65" x="399.902344"/>
      <use xlink:href="#DejaVuSans-74" x="461.425781"/>
      <use xlink:href="#DejaVuSans-20" x="500.634766"/>
      <use xlink:href="#DejaVuSans-73" x="532.421875"/>
      <use xlink:href="#DejaVuSans-69" x="584.521484"/>
      <use xlink:href="#DejaVuSans-7a" x="612.304688"/>
      <use xlink:href="#DejaVuSans-65" x="664.794922"/>
      <use xlink:href="#DejaVuSans-3a" x="726.318359"/>
      <use xlink:href="#DejaVuSans-20" x="760.009766"/>
      <use xlink:href="#DejaVuSans-35" x="791.796875"/>
      <use xlink:href="#DejaVuSans-30" x="855.419922"/>
      <use xlink:href="#DejaVuSans-30" x="919.042969"/>
     </g>
    </g>
    <g id="line2d_26">
     <defs>
      <path id="mf19d35c40b" d="M 0 5 
C 1.326016 5 2.597899 4.473168 3.535534 3.535534 
C 4.473168 2.597899 5 1.326016 5 0 
C 5 -1.326016 4.473168 -2.597899 3.535534 -3.535534 
C 2.597899 -4.473168 1.326016 -5 0 -5 
C -1.326016 -5 -2.597899 -4.473168 -3.535534 -3.535534 
C -4.473168 -2.597899 -5 -1.326016 -5 0 
C -5 1.326016 -4.473168 2.597899 -3.535534 3.535534 
C -2.597899 4.473168 -1.326016 5 0 5 
z
" style="stroke: #0000ff"/>
     </defs>
     <g>
      <use xlink:href="#mf19d35c40b" x="558.883125" y="320.09875" style="fill: #0000ff; stroke: #0000ff"/>
     </g>
    </g>
    <g id="text_23">
     <!-- Ribosome -->
     <g transform="translate(580.483125 324.74875) scale(0.12 -0.12)">
      <defs>
       <path id="DejaVuSans-52" d="M 2841 2188 
Q 3044 2119 3236 1894 
Q 3428 1669 3622 1275 
L 4263 0 
L 3584 0 
L 2988 1197 
Q 2756 1666 2539 1819 
Q 2322 1972 1947 1972 
L 1259 1972 
L 1259 0 
L 628 0 
L 628 4666 
L 2053 4666 
Q 2853 4666 3247 4331 
Q 3641 3997 3641 3322 
Q 3641 2881 3436 2590 
Q 3231 2300 2841 2188 
z
M 1259 4147 
L 1259 2491 
L 2053 2491 
Q 2509 2491 2742 2702 
Q 2975 2913 2975 3322 
Q 2975 3731 2742 3939 
Q 2509 4147 2053 4147 
L 1259 4147 
z
" transform="scale(0.015625)"/>
      </defs>
      <use xlink:href="#DejaVuSans-52"/>
      <use xlink:href="#DejaVuSans-69" x="69.482422"/>
      <use xlink:href="#DejaVuSans-62" x="97.265625"/>
      <use xlink:href="#DejaVuSans-6f" x="160.742188"/>
      <use xlink:href="#DejaVuSans-73" x="221.923828"/>
      <use xlink:href="#DejaVuSans-6f" x="274.023438"/>
      <use xlink:href="#DejaVuSans-6d" x="335.205078"/>
      <use xlink:href="#DejaVuSans-65" x="432.617188"/>
     </g>
    </g>
    <g id="line2d_27">
     <defs>
      <path id="m6e745a30dc" d="M 0 5 
C 1.326016 5 2.597899 4.473168 3.535534 3.535534 
C 4.473168 2.597899 5 1.326016 5 0 
C 5 -1.326016 4.473168 -2.597899 3.535534 -3.535534 
C 2.597899 -4.473168 1.326016 -5 0 -5 
C -1.326016 -5 -2.597899 -4.473168 -3.535534 -3.535534 
C -4.473168 -2.597899 -5 -1.326016 -5 0 
C -5 1.326016 -4.473168 2.597899 -3.535534 3.535534 
C -2.597899 4.473168 -1.326016 5 0 5 
z
" style="stroke: #ffa500"/>
     </defs>
     <g>
      <use xlink:href="#m6e745a30dc" x="558.883125" y="343.294375" style="fill: #ffa500; stroke: #ffa500"/>
     </g>
    </g>
    <g id="text_24">
     <!-- Decreased growth -->
     <g transform="translate(580.483125 347.944375) scale(0.12 -0.12)">
      <defs>
       <path id="DejaVuSans-44" d="M 1259 4147 
L 1259 519 
L 2022 519 
Q 2988 519 3436 956 
Q 3884 1394 3884 2338 
Q 3884 3275 3436 3711 
Q 2988 4147 2022 4147 
L 1259 4147 
z
M 628 4666 
L 1925 4666 
Q 3281 4666 3915 4102 
Q 4550 3538 4550 2338 
Q 4550 1131 3912 565 
Q 3275 0 1925 0 
L 628 0 
L 628 4666 
z
" transform="scale(0.015625)"/>
       <path id="DejaVuSans-77" d="M 269 3500 
L 844 3500 
L 1563 769 
L 2278 3500 
L 2956 3500 
L 3675 769 
L 4391 3500 
L 4966 3500 
L 4050 0 
L 3372 0 
L 2619 2869 
L 1863 0 
L 1184 0 
L 269 3500 
z
" transform="scale(0.015625)"/>
      </defs>
      <use xlink:href="#DejaVuSans-44"/>
      <use xlink:href="#DejaVuSans-65" x="77.001953"/>
      <use xlink:href="#DejaVuSans-63" x="138.525391"/>
      <use xlink:href="#DejaVuSans-72" x="193.505859"/>
      <use xlink:href="#DejaVuSans-65" x="232.369141"/>
      <use xlink:href="#DejaVuSans-61" x="293.892578"/>
      <use xlink:href="#DejaVuSans-73" x="355.171875"/>
      <use xlink:href="#DejaVuSans-65" x="407.271484"/>
      <use xlink:href="#DejaVuSans-64" x="468.794922"/>
      <use xlink:href="#DejaVuSans-20" x="532.271484"/>
      <use xlink:href="#DejaVuSans-67" x="564.058594"/>
      <use xlink:href="#DejaVuSans-72" x="627.535156"/>
      <use xlink:href="#DejaVuSans-6f" x="666.398438"/>
      <use xlink:href="#DejaVuSans-77" x="727.580078"/>
      <use xlink:href="#DejaVuSans-74" x="809.367188"/>
      <use xlink:href="#DejaVuSans-68" x="848.576172"/>
     </g>
    </g>
   </g>
  </g>
 </g>
 <defs>
  <clipPath id="pccb73706f9">
   <rect x="473.265858" y="10.8" width="235.934142" height="350.44"/>
  </clipPath>
 </defs>
</svg>
