<?xml version="1.0" encoding="utf-8" standalone="no"?>
<!DOCTYPE svg PUBLIC "-//W3C//DTD SVG 1.1//EN"
  "http://www.w3.org/Graphics/SVG/1.1/DTD/svg11.dtd">
<svg xmlns:xlink="http://www.w3.org/1999/xlink" width="720pt" height="432pt" viewBox="0 0 720 432" xmlns="http://www.w3.org/2000/svg" version="1.1">
 <metadata>
  <rdf:RDF xmlns:dc="http://purl.org/dc/elements/1.1/" xmlns:cc="http://creativecommons.org/ns#" xmlns:rdf="http://www.w3.org/1999/02/22-rdf-syntax-ns#">
   <cc:Work>
    <dc:type rdf:resource="http://purl.org/dc/dcmitype/StillImage"/>
    <dc:date>2023-11-07T18:47:41.292622</dc:date>
    <dc:format>image/svg+xml</dc:format>
    <dc:creator>
     <cc:Agent>
      <dc:title>Matplotlib v3.8.0, https://matplotlib.org/</dc:title>
     </cc:Agent>
    </dc:creator>
   </cc:Work>
  </rdf:RDF>
 </metadata>
 <defs>
  <style type="text/css">*{stroke-linejoin: round; stroke-linecap: butt}</style>
 </defs>
 <g id="figure_1">
  <g id="patch_1">
   <path d="M 0 432 
L 720 432 
L 720 0 
L 0 0 
z
" style="fill: #ffffff"/>
  </g>
  <g id="axes_1">
   <g id="patch_2">
    <path d="M 439.408168 361.24 
L 709.2 361.24 
L 709.2 10.8 
L 439.408168 10.8 
z
" style="fill: #ffffff"/>
   </g>
   <g id="PathCollection_1">
    <path d="M 524.383683 359.802286 
C 528.226841 359.802286 531.913111 358.275383 534.630634 355.55786 
C 537.348157 352.840337 538.87506 349.154067 538.87506 345.310909 
C 538.87506 341.467751 537.348157 337.781481 534.630634 335.063958 
C 531.913111 332.346435 528.226841 330.819532 524.383683 330.819532 
C 520.540525 330.819532 516.854256 332.346435 514.136732 335.063958 
C 511.419209 337.781481 509.892306 341.467751 509.892306 345.310909 
C 509.892306 349.154067 511.419209 352.840337 514.136732 355.55786 
C 516.854256 358.275383 520.540525 359.802286 524.383683 359.802286 
z
" clip-path="url(#pe27bfb7f19)" style="fill: #006400; stroke: #006400; stroke-width: 4"/>
    <path d="M 524.49331 324.291733 
C 528.306614 324.291733 531.964247 322.776692 534.66066 320.080279 
C 537.357073 317.383866 538.872114 313.726233 538.872114 309.912929 
C 538.872114 306.099626 537.357073 302.441992 534.66066 299.74558 
C 531.964247 297.049167 528.306614 295.534125 524.49331 295.534125 
C 520.680007 295.534125 517.022373 297.049167 514.325961 299.74558 
C 511.629548 302.441992 510.114506 306.099626 510.114506 309.912929 
C 510.114506 313.726233 511.629548 317.383866 514.325961 320.080279 
C 517.022373 322.776692 520.680007 324.291733 524.49331 324.291733 
z
" clip-path="url(#pe27bfb7f19)" style="fill: #006400; stroke: #006400; stroke-width: 4"/>
    <path d="M 524.202639 288.841498 
C 528.002084 288.841498 531.646425 287.331963 534.333039 284.645349 
C 537.019652 281.958736 538.529188 278.314395 538.529188 274.514949 
C 538.529188 270.715504 537.019652 267.071163 534.333039 264.38455 
C 531.646425 261.697936 528.002084 260.188401 524.202639 260.188401 
C 520.403194 260.188401 516.758853 261.697936 514.072239 264.38455 
C 511.385626 267.071163 509.87609 270.715504 509.87609 274.514949 
C 509.87609 278.314395 511.385626 281.958736 514.072239 284.645349 
C 516.758853 287.331963 520.403194 288.841498 524.202639 288.841498 
z
" clip-path="url(#pe27bfb7f19)" style="fill: #006400; fill-opacity: 0.984606; stroke: #006400; stroke-opacity: 0.984606; stroke-width: 4"/>
    <path d="M 527.146442 251.952467 
C 530.550456 251.952467 533.815508 250.600038 536.22251 248.193037 
C 538.629511 245.786036 539.98194 242.520983 539.98194 239.11697 
C 539.98194 235.712956 538.629511 232.447903 536.22251 230.040902 
C 533.815508 227.633901 530.550456 226.281472 527.146442 226.281472 
C 523.742429 226.281472 520.477376 227.633901 518.070375 230.040902 
C 515.663374 232.447903 514.310945 235.712956 514.310945 239.11697 
C 514.310945 242.520983 515.663374 245.786036 518.070375 248.193037 
C 520.477376 250.600038 523.742429 251.952467 527.146442 251.952467 
z
" clip-path="url(#pe27bfb7f19)" style="fill: #006400; fill-opacity: 0.795899; stroke: #006400; stroke-opacity: 0.795899; stroke-width: 4"/>
    <path d="M 524.39181 216.593383 
C 527.806139 216.593383 531.081086 215.236856 533.495381 212.822561 
C 535.909676 210.408265 537.266203 207.133319 537.266203 203.71899 
C 537.266203 200.304661 535.909676 197.029714 533.495381 194.615419 
C 531.081086 192.201124 527.806139 190.844597 524.39181 190.844597 
C 520.977481 190.844597 517.702535 192.201124 515.288239 194.615419 
C 512.873944 197.029714 511.517417 200.304661 511.517417 203.71899 
C 511.517417 207.133319 512.873944 210.408265 515.288239 212.822561 
C 517.702535 215.236856 520.977481 216.593383 524.39181 216.593383 
z
" clip-path="url(#pe27bfb7f19)" style="fill: #006400; fill-opacity: 0.656839; stroke: #ffa500; stroke-opacity: 0.656839; stroke-width: 4"/>
    <path d="M 696.936735 171.599729 
C 697.806261 171.599729 698.640291 171.254263 699.25514 170.639415 
C 699.869988 170.024567 700.215454 169.190537 700.215454 168.32101 
C 700.215454 167.451484 699.869988 166.617454 699.25514 166.002605 
C 698.640291 165.387757 697.806261 165.042291 696.936735 165.042291 
C 696.067208 165.042291 695.233178 165.387757 694.61833 166.002605 
C 694.003482 166.617454 693.658016 167.451484 693.658016 168.32101 
C 693.658016 169.190537 694.003482 170.024567 694.61833 170.639415 
C 695.233178 171.254263 696.067208 171.599729 696.936735 171.599729 
z
" clip-path="url(#pe27bfb7f19)" style="fill: #006400; fill-opacity: 0.656839; stroke: #0000ff; stroke-opacity: 0.656839; stroke-width: 4"/>
    <path d="M 524.027189 145.729279 
C 527.423446 145.729279 530.681058 144.379932 533.082574 141.978415 
C 535.48409 139.576899 536.833437 136.319287 536.833437 132.92303 
C 536.833437 129.526774 535.48409 126.269161 533.082574 123.867645 
C 530.681058 121.466129 527.423446 120.116782 524.027189 120.116782 
C 520.630932 120.116782 517.37332 121.466129 514.971804 123.867645 
C 512.570287 126.269161 511.22094 129.526774 511.22094 132.92303 
C 511.22094 136.319287 512.570287 139.576899 514.971804 141.978415 
C 517.37332 144.379932 520.630932 145.729279 524.027189 145.729279 
z
" clip-path="url(#pe27bfb7f19)" style="fill: #006400; fill-opacity: 0.640585; stroke: #ffa500; stroke-opacity: 0.640585; stroke-width: 4"/>
    <path d="M 545.626593 106.010332 
C 547.876916 106.010332 550.035375 105.116269 551.626593 103.525051 
C 553.217812 101.933832 554.111875 99.775373 554.111875 97.525051 
C 554.111875 95.274728 553.217812 93.116269 551.626593 91.525051 
C 550.035375 89.933832 547.876916 89.039769 545.626593 89.039769 
C 543.37627 89.039769 541.217812 89.933832 539.626593 91.525051 
C 538.035375 93.116269 537.141312 95.274728 537.141312 97.525051 
C 537.141312 99.775373 538.035375 101.933832 539.626593 103.525051 
C 541.217812 105.116269 543.37627 106.010332 545.626593 106.010332 
z
" clip-path="url(#pe27bfb7f19)" style="fill: #006400; fill-opacity: 0.548926; stroke: #ffa500; stroke-opacity: 0.548926; stroke-width: 4"/>
    <path d="M 591.819969 67.442144 
C 593.229543 67.442144 594.581574 66.882114 595.578293 65.885395 
C 596.575013 64.888676 597.135042 63.536645 597.135042 62.127071 
C 597.135042 60.717497 596.575013 59.365466 595.578293 58.368747 
C 594.581574 57.372027 593.229543 56.811998 591.819969 56.811998 
C 590.410395 56.811998 589.058364 57.372027 588.061645 58.368747 
C 587.064926 59.365466 586.504896 60.717497 586.504896 62.127071 
C 586.504896 63.536645 587.064926 64.888676 588.061645 65.885395 
C 589.058364 66.882114 590.410395 67.442144 591.819969 67.442144 
z
" clip-path="url(#pe27bfb7f19)" style="fill: #006400; fill-opacity: 0.548926; stroke: #0000ff; stroke-opacity: 0.548926; stroke-width: 4"/>
    <path d="M 613.103482 31.311667 
C 614.318795 31.311667 615.484496 30.828818 616.343852 29.969461 
C 617.203208 29.110105 617.686057 27.944404 617.686057 26.729091 
C 617.686057 25.513778 617.203208 24.348077 616.343852 23.488721 
C 615.484496 22.629364 614.318795 22.146515 613.103482 22.146515 
C 611.888168 22.146515 610.722467 22.629364 609.863111 23.488721 
C 609.003755 24.348077 608.520906 25.513778 608.520906 26.729091 
C 608.520906 27.944404 609.003755 29.110105 609.863111 29.969461 
C 610.722467 30.828818 611.888168 31.311667 613.103482 31.311667 
z
" clip-path="url(#pe27bfb7f19)" style="fill: #006400; fill-opacity: 0.548926; stroke: #0000ff; stroke-opacity: 0.548926; stroke-width: 4"/>
   </g>
   <g id="PathCollection_2"/>
   <g id="PathCollection_3"/>
   <g id="PathCollection_4"/>
   <g id="matplotlib.axis_1">
    <g id="xtick_1">
     <g id="line2d_1">
      <defs>
       <path id="m52d85789b1" d="M 0 0 
L 0 3.5 
" style="stroke: #000000; stroke-width: 0.8"/>
      </defs>
      <g>
       <use xlink:href="#m52d85789b1" x="451.671433" y="361.24" style="stroke: #000000; stroke-width: 0.8"/>
      </g>
     </g>
     <g id="text_1">
      <!-- 0 -->
      <g transform="translate(443.718308 387.236094) scale(0.25 -0.25)">
       <defs>
        <path id="DejaVuSans-30" d="M 2034 4250 
Q 1547 4250 1301 3770 
Q 1056 3291 1056 2328 
Q 1056 1369 1301 889 
Q 1547 409 2034 409 
Q 2525 409 2770 889 
Q 3016 1369 3016 2328 
Q 3016 3291 2770 3770 
Q 2525 4250 2034 4250 
z
M 2034 4750 
Q 2819 4750 3233 4129 
Q 3647 3509 3647 2328 
Q 3647 1150 3233 529 
Q 2819 -91 2034 -91 
Q 1250 -91 836 529 
Q 422 1150 422 2328 
Q 422 3509 836 4129 
Q 1250 4750 2034 4750 
z
" transform="scale(0.015625)"/>
       </defs>
       <use xlink:href="#DejaVuSans-30"/>
      </g>
     </g>
    </g>
    <g id="xtick_2">
     <g id="line2d_2">
      <g>
       <use xlink:href="#m52d85789b1" x="488.977158" y="361.24" style="stroke: #000000; stroke-width: 0.8"/>
      </g>
     </g>
     <g id="text_2">
      <!-- 1 -->
      <g transform="translate(481.024033 387.236094) scale(0.25 -0.25)">
       <defs>
        <path id="DejaVuSans-31" d="M 794 531 
L 1825 531 
L 1825 4091 
L 703 3866 
L 703 4441 
L 1819 4666 
L 2450 4666 
L 2450 531 
L 3481 531 
L 3481 0 
L 794 0 
L 794 531 
z
" transform="scale(0.015625)"/>
       </defs>
       <use xlink:href="#DejaVuSans-31"/>
      </g>
     </g>
    </g>
    <g id="xtick_3">
     <g id="line2d_3">
      <g>
       <use xlink:href="#m52d85789b1" x="526.282884" y="361.24" style="stroke: #000000; stroke-width: 0.8"/>
      </g>
     </g>
     <g id="text_3">
      <!-- 2 -->
      <g transform="translate(518.329759 387.236094) scale(0.25 -0.25)">
       <defs>
        <path id="DejaVuSans-32" d="M 1228 531 
L 3431 531 
L 3431 0 
L 469 0 
L 469 531 
Q 828 903 1448 1529 
Q 2069 2156 2228 2338 
Q 2531 2678 2651 2914 
Q 2772 3150 2772 3378 
Q 2772 3750 2511 3984 
Q 2250 4219 1831 4219 
Q 1534 4219 1204 4116 
Q 875 4013 500 3803 
L 500 4441 
Q 881 4594 1212 4672 
Q 1544 4750 1819 4750 
Q 2544 4750 2975 4387 
Q 3406 4025 3406 3419 
Q 3406 3131 3298 2873 
Q 3191 2616 2906 2266 
Q 2828 2175 2409 1742 
Q 1991 1309 1228 531 
z
" transform="scale(0.015625)"/>
       </defs>
       <use xlink:href="#DejaVuSans-32"/>
      </g>
     </g>
    </g>
    <g id="xtick_4">
     <g id="line2d_4">
      <g>
       <use xlink:href="#m52d85789b1" x="563.588609" y="361.24" style="stroke: #000000; stroke-width: 0.8"/>
      </g>
     </g>
     <g id="text_4">
      <!-- 3 -->
      <g transform="translate(555.635484 387.236094) scale(0.25 -0.25)">
       <defs>
        <path id="DejaVuSans-33" d="M 2597 2516 
Q 3050 2419 3304 2112 
Q 3559 1806 3559 1356 
Q 3559 666 3084 287 
Q 2609 -91 1734 -91 
Q 1441 -91 1130 -33 
Q 819 25 488 141 
L 488 750 
Q 750 597 1062 519 
Q 1375 441 1716 441 
Q 2309 441 2620 675 
Q 2931 909 2931 1356 
Q 2931 1769 2642 2001 
Q 2353 2234 1838 2234 
L 1294 2234 
L 1294 2753 
L 1863 2753 
Q 2328 2753 2575 2939 
Q 2822 3125 2822 3475 
Q 2822 3834 2567 4026 
Q 2313 4219 1838 4219 
Q 1578 4219 1281 4162 
Q 984 4106 628 3988 
L 628 4550 
Q 988 4650 1302 4700 
Q 1616 4750 1894 4750 
Q 2613 4750 3031 4423 
Q 3450 4097 3450 3541 
Q 3450 3153 3228 2886 
Q 3006 2619 2597 2516 
z
" transform="scale(0.015625)"/>
       </defs>
       <use xlink:href="#DejaVuSans-33"/>
      </g>
     </g>
    </g>
    <g id="xtick_5">
     <g id="line2d_5">
      <g>
       <use xlink:href="#m52d85789b1" x="600.894335" y="361.24" style="stroke: #000000; stroke-width: 0.8"/>
      </g>
     </g>
     <g id="text_5">
      <!-- 4 -->
      <g transform="translate(592.94121 387.236094) scale(0.25 -0.25)">
       <defs>
        <path id="DejaVuSans-34" d="M 2419 4116 
L 825 1625 
L 2419 1625 
L 2419 4116 
z
M 2253 4666 
L 3047 4666 
L 3047 1625 
L 3713 1625 
L 3713 1100 
L 3047 1100 
L 3047 0 
L 2419 0 
L 2419 1100 
L 313 1100 
L 313 1709 
L 2253 4666 
z
" transform="scale(0.015625)"/>
       </defs>
       <use xlink:href="#DejaVuSans-34"/>
      </g>
     </g>
    </g>
    <g id="xtick_6">
     <g id="line2d_6">
      <g>
       <use xlink:href="#m52d85789b1" x="638.200061" y="361.24" style="stroke: #000000; stroke-width: 0.8"/>
      </g>
     </g>
     <g id="text_6">
      <!-- 5 -->
      <g transform="translate(630.246936 387.236094) scale(0.25 -0.25)">
       <defs>
        <path id="DejaVuSans-35" d="M 691 4666 
L 3169 4666 
L 3169 4134 
L 1269 4134 
L 1269 2991 
Q 1406 3038 1543 3061 
Q 1681 3084 1819 3084 
Q 2600 3084 3056 2656 
Q 3513 2228 3513 1497 
Q 3513 744 3044 326 
Q 2575 -91 1722 -91 
Q 1428 -91 1123 -41 
Q 819 9 494 109 
L 494 744 
Q 775 591 1075 516 
Q 1375 441 1709 441 
Q 2250 441 2565 725 
Q 2881 1009 2881 1497 
Q 2881 1984 2565 2268 
Q 2250 2553 1709 2553 
Q 1456 2553 1204 2497 
Q 953 2441 691 2322 
L 691 4666 
z
" transform="scale(0.015625)"/>
       </defs>
       <use xlink:href="#DejaVuSans-35"/>
      </g>
     </g>
    </g>
    <g id="xtick_7">
     <g id="line2d_7">
      <g>
       <use xlink:href="#m52d85789b1" x="675.505786" y="361.24" style="stroke: #000000; stroke-width: 0.8"/>
      </g>
     </g>
     <g id="text_7">
      <!-- 6 -->
      <g transform="translate(667.552661 387.236094) scale(0.25 -0.25)">
       <defs>
        <path id="DejaVuSans-36" d="M 2113 2584 
Q 1688 2584 1439 2293 
Q 1191 2003 1191 1497 
Q 1191 994 1439 701 
Q 1688 409 2113 409 
Q 2538 409 2786 701 
Q 3034 994 3034 1497 
Q 3034 2003 2786 2293 
Q 2538 2584 2113 2584 
z
M 3366 4563 
L 3366 3988 
Q 3128 4100 2886 4159 
Q 2644 4219 2406 4219 
Q 1781 4219 1451 3797 
Q 1122 3375 1075 2522 
Q 1259 2794 1537 2939 
Q 1816 3084 2150 3084 
Q 2853 3084 3261 2657 
Q 3669 2231 3669 1497 
Q 3669 778 3244 343 
Q 2819 -91 2113 -91 
Q 1303 -91 875 529 
Q 447 1150 447 2328 
Q 447 3434 972 4092 
Q 1497 4750 2381 4750 
Q 2619 4750 2861 4703 
Q 3103 4656 3366 4563 
z
" transform="scale(0.015625)"/>
       </defs>
       <use xlink:href="#DejaVuSans-36"/>
      </g>
     </g>
    </g>
    <g id="text_8">
     <!-- Fold enrichment -->
     <g transform="translate(472.829474 415.431406) scale(0.25 -0.25)">
      <defs>
       <path id="DejaVuSans-46" d="M 628 4666 
L 3309 4666 
L 3309 4134 
L 1259 4134 
L 1259 2759 
L 3109 2759 
L 3109 2228 
L 1259 2228 
L 1259 0 
L 628 0 
L 628 4666 
z
" transform="scale(0.015625)"/>
       <path id="DejaVuSans-6f" d="M 1959 3097 
Q 1497 3097 1228 2736 
Q 959 2375 959 1747 
Q 959 1119 1226 758 
Q 1494 397 1959 397 
Q 2419 397 2687 759 
Q 2956 1122 2956 1747 
Q 2956 2369 2687 2733 
Q 2419 3097 1959 3097 
z
M 1959 3584 
Q 2709 3584 3137 3096 
Q 3566 2609 3566 1747 
Q 3566 888 3137 398 
Q 2709 -91 1959 -91 
Q 1206 -91 779 398 
Q 353 888 353 1747 
Q 353 2609 779 3096 
Q 1206 3584 1959 3584 
z
" transform="scale(0.015625)"/>
       <path id="DejaVuSans-6c" d="M 603 4863 
L 1178 4863 
L 1178 0 
L 603 0 
L 603 4863 
z
" transform="scale(0.015625)"/>
       <path id="DejaVuSans-64" d="M 2906 2969 
L 2906 4863 
L 3481 4863 
L 3481 0 
L 2906 0 
L 2906 525 
Q 2725 213 2448 61 
Q 2172 -91 1784 -91 
Q 1150 -91 751 415 
Q 353 922 353 1747 
Q 353 2572 751 3078 
Q 1150 3584 1784 3584 
Q 2172 3584 2448 3432 
Q 2725 3281 2906 2969 
z
M 947 1747 
Q 947 1113 1208 752 
Q 1469 391 1925 391 
Q 2381 391 2643 752 
Q 2906 1113 2906 1747 
Q 2906 2381 2643 2742 
Q 2381 3103 1925 3103 
Q 1469 3103 1208 2742 
Q 947 2381 947 1747 
z
" transform="scale(0.015625)"/>
       <path id="DejaVuSans-20" transform="scale(0.015625)"/>
       <path id="DejaVuSans-65" d="M 3597 1894 
L 3597 1613 
L 953 1613 
Q 991 1019 1311 708 
Q 1631 397 2203 397 
Q 2534 397 2845 478 
Q 3156 559 3463 722 
L 3463 178 
Q 3153 47 2828 -22 
Q 2503 -91 2169 -91 
Q 1331 -91 842 396 
Q 353 884 353 1716 
Q 353 2575 817 3079 
Q 1281 3584 2069 3584 
Q 2775 3584 3186 3129 
Q 3597 2675 3597 1894 
z
M 3022 2063 
Q 3016 2534 2758 2815 
Q 2500 3097 2075 3097 
Q 1594 3097 1305 2825 
Q 1016 2553 972 2059 
L 3022 2063 
z
" transform="scale(0.015625)"/>
       <path id="DejaVuSans-6e" d="M 3513 2113 
L 3513 0 
L 2938 0 
L 2938 2094 
Q 2938 2591 2744 2837 
Q 2550 3084 2163 3084 
Q 1697 3084 1428 2787 
Q 1159 2491 1159 1978 
L 1159 0 
L 581 0 
L 581 3500 
L 1159 3500 
L 1159 2956 
Q 1366 3272 1645 3428 
Q 1925 3584 2291 3584 
Q 2894 3584 3203 3211 
Q 3513 2838 3513 2113 
z
" transform="scale(0.015625)"/>
       <path id="DejaVuSans-72" d="M 2631 2963 
Q 2534 3019 2420 3045 
Q 2306 3072 2169 3072 
Q 1681 3072 1420 2755 
Q 1159 2438 1159 1844 
L 1159 0 
L 581 0 
L 581 3500 
L 1159 3500 
L 1159 2956 
Q 1341 3275 1631 3429 
Q 1922 3584 2338 3584 
Q 2397 3584 2469 3576 
Q 2541 3569 2628 3553 
L 2631 2963 
z
" transform="scale(0.015625)"/>
       <path id="DejaVuSans-69" d="M 603 3500 
L 1178 3500 
L 1178 0 
L 603 0 
L 603 3500 
z
M 603 4863 
L 1178 4863 
L 1178 4134 
L 603 4134 
L 603 4863 
z
" transform="scale(0.015625)"/>
       <path id="DejaVuSans-63" d="M 3122 3366 
L 3122 2828 
Q 2878 2963 2633 3030 
Q 2388 3097 2138 3097 
Q 1578 3097 1268 2742 
Q 959 2388 959 1747 
Q 959 1106 1268 751 
Q 1578 397 2138 397 
Q 2388 397 2633 464 
Q 2878 531 3122 666 
L 3122 134 
Q 2881 22 2623 -34 
Q 2366 -91 2075 -91 
Q 1284 -91 818 406 
Q 353 903 353 1747 
Q 353 2603 823 3093 
Q 1294 3584 2113 3584 
Q 2378 3584 2631 3529 
Q 2884 3475 3122 3366 
z
" transform="scale(0.015625)"/>
       <path id="DejaVuSans-68" d="M 3513 2113 
L 3513 0 
L 2938 0 
L 2938 2094 
Q 2938 2591 2744 2837 
Q 2550 3084 2163 3084 
Q 1697 3084 1428 2787 
Q 1159 2491 1159 1978 
L 1159 0 
L 581 0 
L 581 4863 
L 1159 4863 
L 1159 2956 
Q 1366 3272 1645 3428 
Q 1925 3584 2291 3584 
Q 2894 3584 3203 3211 
Q 3513 2838 3513 2113 
z
" transform="scale(0.015625)"/>
       <path id="DejaVuSans-6d" d="M 3328 2828 
Q 3544 3216 3844 3400 
Q 4144 3584 4550 3584 
Q 5097 3584 5394 3201 
Q 5691 2819 5691 2113 
L 5691 0 
L 5113 0 
L 5113 2094 
Q 5113 2597 4934 2840 
Q 4756 3084 4391 3084 
Q 3944 3084 3684 2787 
Q 3425 2491 3425 1978 
L 3425 0 
L 2847 0 
L 2847 2094 
Q 2847 2600 2669 2842 
Q 2491 3084 2119 3084 
Q 1678 3084 1418 2786 
Q 1159 2488 1159 1978 
L 1159 0 
L 581 0 
L 581 3500 
L 1159 3500 
L 1159 2956 
Q 1356 3278 1631 3431 
Q 1906 3584 2284 3584 
Q 2666 3584 2933 3390 
Q 3200 3197 3328 2828 
z
" transform="scale(0.015625)"/>
       <path id="DejaVuSans-74" d="M 1172 4494 
L 1172 3500 
L 2356 3500 
L 2356 3053 
L 1172 3053 
L 1172 1153 
Q 1172 725 1289 603 
Q 1406 481 1766 481 
L 2356 481 
L 2356 0 
L 1766 0 
Q 1100 0 847 248 
Q 594 497 594 1153 
L 594 3053 
L 172 3053 
L 172 3500 
L 594 3500 
L 594 4494 
L 1172 4494 
z
" transform="scale(0.015625)"/>
      </defs>
      <use xlink:href="#DejaVuSans-46"/>
      <use xlink:href="#DejaVuSans-6f" x="53.894531"/>
      <use xlink:href="#DejaVuSans-6c" x="115.076172"/>
      <use xlink:href="#DejaVuSans-64" x="142.859375"/>
      <use xlink:href="#DejaVuSans-20" x="206.335938"/>
      <use xlink:href="#DejaVuSans-65" x="238.123047"/>
      <use xlink:href="#DejaVuSans-6e" x="299.646484"/>
      <use xlink:href="#DejaVuSans-72" x="363.025391"/>
      <use xlink:href="#DejaVuSans-69" x="404.138672"/>
      <use xlink:href="#DejaVuSans-63" x="431.921875"/>
      <use xlink:href="#DejaVuSans-68" x="486.902344"/>
      <use xlink:href="#DejaVuSans-6d" x="550.28125"/>
      <use xlink:href="#DejaVuSans-65" x="647.693359"/>
      <use xlink:href="#DejaVuSans-6e" x="709.216797"/>
      <use xlink:href="#DejaVuSans-74" x="772.595703"/>
     </g>
    </g>
   </g>
   <g id="matplotlib.axis_2">
    <g id="ytick_1">
     <g id="line2d_8">
      <defs>
       <path id="m7fb0667ec6" d="M 0 0 
L -3.5 0 
" style="stroke: #000000; stroke-width: 0.8"/>
      </defs>
      <g>
       <use xlink:href="#m7fb0667ec6" x="439.408168" y="345.310909" style="stroke: #000000; stroke-width: 0.8"/>
      </g>
     </g>
     <g id="text_9">
      <!-- GO:0009058: biosynthetic process -->
      <g transform="translate(193.632037 392.481728) rotate(-10) scale(0.14 -0.14)">
       <defs>
        <path id="DejaVuSans-47" d="M 3809 666 
L 3809 1919 
L 2778 1919 
L 2778 2438 
L 4434 2438 
L 4434 434 
Q 4069 175 3628 42 
Q 3188 -91 2688 -91 
Q 1594 -91 976 548 
Q 359 1188 359 2328 
Q 359 3472 976 4111 
Q 1594 4750 2688 4750 
Q 3144 4750 3555 4637 
Q 3966 4525 4313 4306 
L 4313 3634 
Q 3963 3931 3569 4081 
Q 3175 4231 2741 4231 
Q 1884 4231 1454 3753 
Q 1025 3275 1025 2328 
Q 1025 1384 1454 906 
Q 1884 428 2741 428 
Q 3075 428 3337 486 
Q 3600 544 3809 666 
z
" transform="scale(0.015625)"/>
        <path id="DejaVuSans-4f" d="M 2522 4238 
Q 1834 4238 1429 3725 
Q 1025 3213 1025 2328 
Q 1025 1447 1429 934 
Q 1834 422 2522 422 
Q 3209 422 3611 934 
Q 4013 1447 4013 2328 
Q 4013 3213 3611 3725 
Q 3209 4238 2522 4238 
z
M 2522 4750 
Q 3503 4750 4090 4092 
Q 4678 3434 4678 2328 
Q 4678 1225 4090 567 
Q 3503 -91 2522 -91 
Q 1538 -91 948 565 
Q 359 1222 359 2328 
Q 359 3434 948 4092 
Q 1538 4750 2522 4750 
z
" transform="scale(0.015625)"/>
        <path id="DejaVuSans-3a" d="M 750 794 
L 1409 794 
L 1409 0 
L 750 0 
L 750 794 
z
M 750 3309 
L 1409 3309 
L 1409 2516 
L 750 2516 
L 750 3309 
z
" transform="scale(0.015625)"/>
        <path id="DejaVuSans-39" d="M 703 97 
L 703 672 
Q 941 559 1184 500 
Q 1428 441 1663 441 
Q 2288 441 2617 861 
Q 2947 1281 2994 2138 
Q 2813 1869 2534 1725 
Q 2256 1581 1919 1581 
Q 1219 1581 811 2004 
Q 403 2428 403 3163 
Q 403 3881 828 4315 
Q 1253 4750 1959 4750 
Q 2769 4750 3195 4129 
Q 3622 3509 3622 2328 
Q 3622 1225 3098 567 
Q 2575 -91 1691 -91 
Q 1453 -91 1209 -44 
Q 966 3 703 97 
z
M 1959 2075 
Q 2384 2075 2632 2365 
Q 2881 2656 2881 3163 
Q 2881 3666 2632 3958 
Q 2384 4250 1959 4250 
Q 1534 4250 1286 3958 
Q 1038 3666 1038 3163 
Q 1038 2656 1286 2365 
Q 1534 2075 1959 2075 
z
" transform="scale(0.015625)"/>
        <path id="DejaVuSans-38" d="M 2034 2216 
Q 1584 2216 1326 1975 
Q 1069 1734 1069 1313 
Q 1069 891 1326 650 
Q 1584 409 2034 409 
Q 2484 409 2743 651 
Q 3003 894 3003 1313 
Q 3003 1734 2745 1975 
Q 2488 2216 2034 2216 
z
M 1403 2484 
Q 997 2584 770 2862 
Q 544 3141 544 3541 
Q 544 4100 942 4425 
Q 1341 4750 2034 4750 
Q 2731 4750 3128 4425 
Q 3525 4100 3525 3541 
Q 3525 3141 3298 2862 
Q 3072 2584 2669 2484 
Q 3125 2378 3379 2068 
Q 3634 1759 3634 1313 
Q 3634 634 3220 271 
Q 2806 -91 2034 -91 
Q 1263 -91 848 271 
Q 434 634 434 1313 
Q 434 1759 690 2068 
Q 947 2378 1403 2484 
z
M 1172 3481 
Q 1172 3119 1398 2916 
Q 1625 2713 2034 2713 
Q 2441 2713 2670 2916 
Q 2900 3119 2900 3481 
Q 2900 3844 2670 4047 
Q 2441 4250 2034 4250 
Q 1625 4250 1398 4047 
Q 1172 3844 1172 3481 
z
" transform="scale(0.015625)"/>
        <path id="DejaVuSans-62" d="M 3116 1747 
Q 3116 2381 2855 2742 
Q 2594 3103 2138 3103 
Q 1681 3103 1420 2742 
Q 1159 2381 1159 1747 
Q 1159 1113 1420 752 
Q 1681 391 2138 391 
Q 2594 391 2855 752 
Q 3116 1113 3116 1747 
z
M 1159 2969 
Q 1341 3281 1617 3432 
Q 1894 3584 2278 3584 
Q 2916 3584 3314 3078 
Q 3713 2572 3713 1747 
Q 3713 922 3314 415 
Q 2916 -91 2278 -91 
Q 1894 -91 1617 61 
Q 1341 213 1159 525 
L 1159 0 
L 581 0 
L 581 4863 
L 1159 4863 
L 1159 2969 
z
" transform="scale(0.015625)"/>
        <path id="DejaVuSans-73" d="M 2834 3397 
L 2834 2853 
Q 2591 2978 2328 3040 
Q 2066 3103 1784 3103 
Q 1356 3103 1142 2972 
Q 928 2841 928 2578 
Q 928 2378 1081 2264 
Q 1234 2150 1697 2047 
L 1894 2003 
Q 2506 1872 2764 1633 
Q 3022 1394 3022 966 
Q 3022 478 2636 193 
Q 2250 -91 1575 -91 
Q 1294 -91 989 -36 
Q 684 19 347 128 
L 347 722 
Q 666 556 975 473 
Q 1284 391 1588 391 
Q 1994 391 2212 530 
Q 2431 669 2431 922 
Q 2431 1156 2273 1281 
Q 2116 1406 1581 1522 
L 1381 1569 
Q 847 1681 609 1914 
Q 372 2147 372 2553 
Q 372 3047 722 3315 
Q 1072 3584 1716 3584 
Q 2034 3584 2315 3537 
Q 2597 3491 2834 3397 
z
" transform="scale(0.015625)"/>
        <path id="DejaVuSans-79" d="M 2059 -325 
Q 1816 -950 1584 -1140 
Q 1353 -1331 966 -1331 
L 506 -1331 
L 506 -850 
L 844 -850 
Q 1081 -850 1212 -737 
Q 1344 -625 1503 -206 
L 1606 56 
L 191 3500 
L 800 3500 
L 1894 763 
L 2988 3500 
L 3597 3500 
L 2059 -325 
z
" transform="scale(0.015625)"/>
        <path id="DejaVuSans-70" d="M 1159 525 
L 1159 -1331 
L 581 -1331 
L 581 3500 
L 1159 3500 
L 1159 2969 
Q 1341 3281 1617 3432 
Q 1894 3584 2278 3584 
Q 2916 3584 3314 3078 
Q 3713 2572 3713 1747 
Q 3713 922 3314 415 
Q 2916 -91 2278 -91 
Q 1894 -91 1617 61 
Q 1341 213 1159 525 
z
M 3116 1747 
Q 3116 2381 2855 2742 
Q 2594 3103 2138 3103 
Q 1681 3103 1420 2742 
Q 1159 2381 1159 1747 
Q 1159 1113 1420 752 
Q 1681 391 2138 391 
Q 2594 391 2855 752 
Q 3116 1113 3116 1747 
z
" transform="scale(0.015625)"/>
       </defs>
       <use xlink:href="#DejaVuSans-47"/>
       <use xlink:href="#DejaVuSans-4f" x="77.490234"/>
       <use xlink:href="#DejaVuSans-3a" x="154.451172"/>
       <use xlink:href="#DejaVuSans-30" x="188.142578"/>
       <use xlink:href="#DejaVuSans-30" x="251.765625"/>
       <use xlink:href="#DejaVuSans-30" x="315.388672"/>
       <use xlink:href="#DejaVuSans-39" x="379.011719"/>
       <use xlink:href="#DejaVuSans-30" x="442.634766"/>
       <use xlink:href="#DejaVuSans-35" x="506.257812"/>
       <use xlink:href="#DejaVuSans-38" x="569.880859"/>
       <use xlink:href="#DejaVuSans-3a" x="633.503906"/>
       <use xlink:href="#DejaVuSans-20" x="667.195312"/>
       <use xlink:href="#DejaVuSans-62" x="698.982422"/>
       <use xlink:href="#DejaVuSans-69" x="762.458984"/>
       <use xlink:href="#DejaVuSans-6f" x="790.242188"/>
       <use xlink:href="#DejaVuSans-73" x="851.423828"/>
       <use xlink:href="#DejaVuSans-79" x="903.523438"/>
       <use xlink:href="#DejaVuSans-6e" x="962.703125"/>
       <use xlink:href="#DejaVuSans-74" x="1026.082031"/>
       <use xlink:href="#DejaVuSans-68" x="1065.291016"/>
       <use xlink:href="#DejaVuSans-65" x="1128.669922"/>
       <use xlink:href="#DejaVuSans-74" x="1190.193359"/>
       <use xlink:href="#DejaVuSans-69" x="1229.402344"/>
       <use xlink:href="#DejaVuSans-63" x="1257.185547"/>
       <use xlink:href="#DejaVuSans-20" x="1312.166016"/>
       <use xlink:href="#DejaVuSans-70" x="1343.953125"/>
       <use xlink:href="#DejaVuSans-72" x="1407.429688"/>
       <use xlink:href="#DejaVuSans-6f" x="1446.292969"/>
       <use xlink:href="#DejaVuSans-63" x="1507.474609"/>
       <use xlink:href="#DejaVuSans-65" x="1562.455078"/>
       <use xlink:href="#DejaVuSans-73" x="1623.978516"/>
       <use xlink:href="#DejaVuSans-73" x="1676.078125"/>
      </g>
     </g>
    </g>
    <g id="ytick_2">
     <g id="line2d_9">
      <g>
       <use xlink:href="#m7fb0667ec6" x="439.408168" y="309.912929" style="stroke: #000000; stroke-width: 0.8"/>
      </g>
     </g>
     <g id="text_10">
      <!-- GO:1901576: organic substance biosynthetic process -->
      <g transform="translate(63.143779 380.092349) rotate(-10) scale(0.14 -0.14)">
       <defs>
        <path id="DejaVuSans-37" d="M 525 4666 
L 3525 4666 
L 3525 4397 
L 1831 0 
L 1172 0 
L 2766 4134 
L 525 4134 
L 525 4666 
z
" transform="scale(0.015625)"/>
        <path id="DejaVuSans-67" d="M 2906 1791 
Q 2906 2416 2648 2759 
Q 2391 3103 1925 3103 
Q 1463 3103 1205 2759 
Q 947 2416 947 1791 
Q 947 1169 1205 825 
Q 1463 481 1925 481 
Q 2391 481 2648 825 
Q 2906 1169 2906 1791 
z
M 3481 434 
Q 3481 -459 3084 -895 
Q 2688 -1331 1869 -1331 
Q 1566 -1331 1297 -1286 
Q 1028 -1241 775 -1147 
L 775 -588 
Q 1028 -725 1275 -790 
Q 1522 -856 1778 -856 
Q 2344 -856 2625 -561 
Q 2906 -266 2906 331 
L 2906 616 
Q 2728 306 2450 153 
Q 2172 0 1784 0 
Q 1141 0 747 490 
Q 353 981 353 1791 
Q 353 2603 747 3093 
Q 1141 3584 1784 3584 
Q 2172 3584 2450 3431 
Q 2728 3278 2906 2969 
L 2906 3500 
L 3481 3500 
L 3481 434 
z
" transform="scale(0.015625)"/>
        <path id="DejaVuSans-61" d="M 2194 1759 
Q 1497 1759 1228 1600 
Q 959 1441 959 1056 
Q 959 750 1161 570 
Q 1363 391 1709 391 
Q 2188 391 2477 730 
Q 2766 1069 2766 1631 
L 2766 1759 
L 2194 1759 
z
M 3341 1997 
L 3341 0 
L 2766 0 
L 2766 531 
Q 2569 213 2275 61 
Q 1981 -91 1556 -91 
Q 1019 -91 701 211 
Q 384 513 384 1019 
Q 384 1609 779 1909 
Q 1175 2209 1959 2209 
L 2766 2209 
L 2766 2266 
Q 2766 2663 2505 2880 
Q 2244 3097 1772 3097 
Q 1472 3097 1187 3025 
Q 903 2953 641 2809 
L 641 3341 
Q 956 3463 1253 3523 
Q 1550 3584 1831 3584 
Q 2591 3584 2966 3190 
Q 3341 2797 3341 1997 
z
" transform="scale(0.015625)"/>
        <path id="DejaVuSans-75" d="M 544 1381 
L 544 3500 
L 1119 3500 
L 1119 1403 
Q 1119 906 1312 657 
Q 1506 409 1894 409 
Q 2359 409 2629 706 
Q 2900 1003 2900 1516 
L 2900 3500 
L 3475 3500 
L 3475 0 
L 2900 0 
L 2900 538 
Q 2691 219 2414 64 
Q 2138 -91 1772 -91 
Q 1169 -91 856 284 
Q 544 659 544 1381 
z
M 1991 3584 
L 1991 3584 
z
" transform="scale(0.015625)"/>
       </defs>
       <use xlink:href="#DejaVuSans-47"/>
       <use xlink:href="#DejaVuSans-4f" x="77.490234"/>
       <use xlink:href="#DejaVuSans-3a" x="154.451172"/>
       <use xlink:href="#DejaVuSans-31" x="188.142578"/>
       <use xlink:href="#DejaVuSans-39" x="251.765625"/>
       <use xlink:href="#DejaVuSans-30" x="315.388672"/>
       <use xlink:href="#DejaVuSans-31" x="379.011719"/>
       <use xlink:href="#DejaVuSans-35" x="442.634766"/>
       <use xlink:href="#DejaVuSans-37" x="506.257812"/>
       <use xlink:href="#DejaVuSans-36" x="569.880859"/>
       <use xlink:href="#DejaVuSans-3a" x="633.503906"/>
       <use xlink:href="#DejaVuSans-20" x="667.195312"/>
       <use xlink:href="#DejaVuSans-6f" x="698.982422"/>
       <use xlink:href="#DejaVuSans-72" x="760.164062"/>
       <use xlink:href="#DejaVuSans-67" x="799.527344"/>
       <use xlink:href="#DejaVuSans-61" x="863.003906"/>
       <use xlink:href="#DejaVuSans-6e" x="924.283203"/>
       <use xlink:href="#DejaVuSans-69" x="987.662109"/>
       <use xlink:href="#DejaVuSans-63" x="1015.445312"/>
       <use xlink:href="#DejaVuSans-20" x="1070.425781"/>
       <use xlink:href="#DejaVuSans-73" x="1102.212891"/>
       <use xlink:href="#DejaVuSans-75" x="1154.3125"/>
       <use xlink:href="#DejaVuSans-62" x="1217.691406"/>
       <use xlink:href="#DejaVuSans-73" x="1281.167969"/>
       <use xlink:href="#DejaVuSans-74" x="1333.267578"/>
       <use xlink:href="#DejaVuSans-61" x="1372.476562"/>
       <use xlink:href="#DejaVuSans-6e" x="1433.755859"/>
       <use xlink:href="#DejaVuSans-63" x="1497.134766"/>
       <use xlink:href="#DejaVuSans-65" x="1552.115234"/>
       <use xlink:href="#DejaVuSans-20" x="1613.638672"/>
       <use xlink:href="#DejaVuSans-62" x="1645.425781"/>
       <use xlink:href="#DejaVuSans-69" x="1708.902344"/>
       <use xlink:href="#DejaVuSans-6f" x="1736.685547"/>
       <use xlink:href="#DejaVuSans-73" x="1797.867188"/>
       <use xlink:href="#DejaVuSans-79" x="1849.966797"/>
       <use xlink:href="#DejaVuSans-6e" x="1909.146484"/>
       <use xlink:href="#DejaVuSans-74" x="1972.525391"/>
       <use xlink:href="#DejaVuSans-68" x="2011.734375"/>
       <use xlink:href="#DejaVuSans-65" x="2075.113281"/>
       <use xlink:href="#DejaVuSans-74" x="2136.636719"/>
       <use xlink:href="#DejaVuSans-69" x="2175.845703"/>
       <use xlink:href="#DejaVuSans-63" x="2203.628906"/>
       <use xlink:href="#DejaVuSans-20" x="2258.609375"/>
       <use xlink:href="#DejaVuSans-70" x="2290.396484"/>
       <use xlink:href="#DejaVuSans-72" x="2353.873047"/>
       <use xlink:href="#DejaVuSans-6f" x="2392.736328"/>
       <use xlink:href="#DejaVuSans-63" x="2453.917969"/>
       <use xlink:href="#DejaVuSans-65" x="2508.898438"/>
       <use xlink:href="#DejaVuSans-73" x="2570.421875"/>
       <use xlink:href="#DejaVuSans-73" x="2622.521484"/>
      </g>
     </g>
    </g>
    <g id="ytick_3">
     <g id="line2d_10">
      <g>
       <use xlink:href="#m7fb0667ec6" x="439.408168" y="274.514949" style="stroke: #000000; stroke-width: 0.8"/>
      </g>
     </g>
     <g id="text_11">
      <!-- GO:0044249: cellular biosynthetic process -->
      <g transform="translate(138.840411 331.347011) rotate(-10) scale(0.14 -0.14)">
       <use xlink:href="#DejaVuSans-47"/>
       <use xlink:href="#DejaVuSans-4f" x="77.490234"/>
       <use xlink:href="#DejaVuSans-3a" x="154.451172"/>
       <use xlink:href="#DejaVuSans-30" x="188.142578"/>
       <use xlink:href="#DejaVuSans-30" x="251.765625"/>
       <use xlink:href="#DejaVuSans-34" x="315.388672"/>
       <use xlink:href="#DejaVuSans-34" x="379.011719"/>
       <use xlink:href="#DejaVuSans-32" x="442.634766"/>
       <use xlink:href="#DejaVuSans-34" x="506.257812"/>
       <use xlink:href="#DejaVuSans-39" x="569.880859"/>
       <use xlink:href="#DejaVuSans-3a" x="633.503906"/>
       <use xlink:href="#DejaVuSans-20" x="667.195312"/>
       <use xlink:href="#DejaVuSans-63" x="698.982422"/>
       <use xlink:href="#DejaVuSans-65" x="753.962891"/>
       <use xlink:href="#DejaVuSans-6c" x="815.486328"/>
       <use xlink:href="#DejaVuSans-6c" x="843.269531"/>
       <use xlink:href="#DejaVuSans-75" x="871.052734"/>
       <use xlink:href="#DejaVuSans-6c" x="934.431641"/>
       <use xlink:href="#DejaVuSans-61" x="962.214844"/>
       <use xlink:href="#DejaVuSans-72" x="1023.494141"/>
       <use xlink:href="#DejaVuSans-20" x="1064.607422"/>
       <use xlink:href="#DejaVuSans-62" x="1096.394531"/>
       <use xlink:href="#DejaVuSans-69" x="1159.871094"/>
       <use xlink:href="#DejaVuSans-6f" x="1187.654297"/>
       <use xlink:href="#DejaVuSans-73" x="1248.835938"/>
       <use xlink:href="#DejaVuSans-79" x="1300.935547"/>
       <use xlink:href="#DejaVuSans-6e" x="1360.115234"/>
       <use xlink:href="#DejaVuSans-74" x="1423.494141"/>
       <use xlink:href="#DejaVuSans-68" x="1462.703125"/>
       <use xlink:href="#DejaVuSans-65" x="1526.082031"/>
       <use xlink:href="#DejaVuSans-74" x="1587.605469"/>
       <use xlink:href="#DejaVuSans-69" x="1626.814453"/>
       <use xlink:href="#DejaVuSans-63" x="1654.597656"/>
       <use xlink:href="#DejaVuSans-20" x="1709.578125"/>
       <use xlink:href="#DejaVuSans-70" x="1741.365234"/>
       <use xlink:href="#DejaVuSans-72" x="1804.841797"/>
       <use xlink:href="#DejaVuSans-6f" x="1843.705078"/>
       <use xlink:href="#DejaVuSans-63" x="1904.886719"/>
       <use xlink:href="#DejaVuSans-65" x="1959.867188"/>
       <use xlink:href="#DejaVuSans-73" x="2021.390625"/>
       <use xlink:href="#DejaVuSans-73" x="2073.490234"/>
      </g>
     </g>
    </g>
    <g id="ytick_4">
     <g id="line2d_11">
      <g>
       <use xlink:href="#m7fb0667ec6" x="439.408168" y="239.11697" style="stroke: #000000; stroke-width: 0.8"/>
      </g>
     </g>
     <g id="text_12">
      <!-- GO:0010467: gene expression -->
      <g transform="translate(222.326873 281.228115) rotate(-10) scale(0.14 -0.14)">
       <defs>
        <path id="DejaVuSans-78" d="M 3513 3500 
L 2247 1797 
L 3578 0 
L 2900 0 
L 1881 1375 
L 863 0 
L 184 0 
L 1544 1831 
L 300 3500 
L 978 3500 
L 1906 2253 
L 2834 3500 
L 3513 3500 
z
" transform="scale(0.015625)"/>
       </defs>
       <use xlink:href="#DejaVuSans-47"/>
       <use xlink:href="#DejaVuSans-4f" x="77.490234"/>
       <use xlink:href="#DejaVuSans-3a" x="154.451172"/>
       <use xlink:href="#DejaVuSans-30" x="188.142578"/>
       <use xlink:href="#DejaVuSans-30" x="251.765625"/>
       <use xlink:href="#DejaVuSans-31" x="315.388672"/>
       <use xlink:href="#DejaVuSans-30" x="379.011719"/>
       <use xlink:href="#DejaVuSans-34" x="442.634766"/>
       <use xlink:href="#DejaVuSans-36" x="506.257812"/>
       <use xlink:href="#DejaVuSans-37" x="569.880859"/>
       <use xlink:href="#DejaVuSans-3a" x="633.503906"/>
       <use xlink:href="#DejaVuSans-20" x="667.195312"/>
       <use xlink:href="#DejaVuSans-67" x="698.982422"/>
       <use xlink:href="#DejaVuSans-65" x="762.458984"/>
       <use xlink:href="#DejaVuSans-6e" x="823.982422"/>
       <use xlink:href="#DejaVuSans-65" x="887.361328"/>
       <use xlink:href="#DejaVuSans-20" x="948.884766"/>
       <use xlink:href="#DejaVuSans-65" x="980.671875"/>
       <use xlink:href="#DejaVuSans-78" x="1040.445312"/>
       <use xlink:href="#DejaVuSans-70" x="1099.625"/>
       <use xlink:href="#DejaVuSans-72" x="1163.101562"/>
       <use xlink:href="#DejaVuSans-65" x="1201.964844"/>
       <use xlink:href="#DejaVuSans-73" x="1263.488281"/>
       <use xlink:href="#DejaVuSans-73" x="1315.587891"/>
       <use xlink:href="#DejaVuSans-69" x="1367.6875"/>
       <use xlink:href="#DejaVuSans-6f" x="1395.470703"/>
       <use xlink:href="#DejaVuSans-6e" x="1456.652344"/>
      </g>
     </g>
    </g>
    <g id="ytick_5">
     <g id="line2d_12">
      <g>
       <use xlink:href="#m7fb0667ec6" x="439.408168" y="203.71899" style="stroke: #000000; stroke-width: 0.8"/>
      </g>
     </g>
     <g id="text_13">
      <!-- FYPO:0000046: decreased cell population growth -->
      <g transform="translate(91.821381 268.841775) rotate(-10) scale(0.14 -0.14)">
       <defs>
        <path id="DejaVuSans-59" d="M -13 4666 
L 666 4666 
L 1959 2747 
L 3244 4666 
L 3922 4666 
L 2272 2222 
L 2272 0 
L 1638 0 
L 1638 2222 
L -13 4666 
z
" transform="scale(0.015625)"/>
        <path id="DejaVuSans-50" d="M 1259 4147 
L 1259 2394 
L 2053 2394 
Q 2494 2394 2734 2622 
Q 2975 2850 2975 3272 
Q 2975 3691 2734 3919 
Q 2494 4147 2053 4147 
L 1259 4147 
z
M 628 4666 
L 2053 4666 
Q 2838 4666 3239 4311 
Q 3641 3956 3641 3272 
Q 3641 2581 3239 2228 
Q 2838 1875 2053 1875 
L 1259 1875 
L 1259 0 
L 628 0 
L 628 4666 
z
" transform="scale(0.015625)"/>
        <path id="DejaVuSans-77" d="M 269 3500 
L 844 3500 
L 1563 769 
L 2278 3500 
L 2956 3500 
L 3675 769 
L 4391 3500 
L 4966 3500 
L 4050 0 
L 3372 0 
L 2619 2869 
L 1863 0 
L 1184 0 
L 269 3500 
z
" transform="scale(0.015625)"/>
       </defs>
       <use xlink:href="#DejaVuSans-46"/>
       <use xlink:href="#DejaVuSans-59" x="57.519531"/>
       <use xlink:href="#DejaVuSans-50" x="118.603516"/>
       <use xlink:href="#DejaVuSans-4f" x="178.90625"/>
       <use xlink:href="#DejaVuSans-3a" x="255.867188"/>
       <use xlink:href="#DejaVuSans-30" x="289.558594"/>
       <use xlink:href="#DejaVuSans-30" x="353.181641"/>
       <use xlink:href="#DejaVuSans-30" x="416.804688"/>
       <use xlink:href="#DejaVuSans-30" x="480.427734"/>
       <use xlink:href="#DejaVuSans-30" x="544.050781"/>
       <use xlink:href="#DejaVuSans-34" x="607.673828"/>
       <use xlink:href="#DejaVuSans-36" x="671.296875"/>
       <use xlink:href="#DejaVuSans-3a" x="734.919922"/>
       <use xlink:href="#DejaVuSans-20" x="768.611328"/>
       <use xlink:href="#DejaVuSans-64" x="800.398438"/>
       <use xlink:href="#DejaVuSans-65" x="863.875"/>
       <use xlink:href="#DejaVuSans-63" x="925.398438"/>
       <use xlink:href="#DejaVuSans-72" x="980.378906"/>
       <use xlink:href="#DejaVuSans-65" x="1019.242188"/>
       <use xlink:href="#DejaVuSans-61" x="1080.765625"/>
       <use xlink:href="#DejaVuSans-73" x="1142.044922"/>
       <use xlink:href="#DejaVuSans-65" x="1194.144531"/>
       <use xlink:href="#DejaVuSans-64" x="1255.667969"/>
       <use xlink:href="#DejaVuSans-20" x="1319.144531"/>
       <use xlink:href="#DejaVuSans-63" x="1350.931641"/>
       <use xlink:href="#DejaVuSans-65" x="1405.912109"/>
       <use xlink:href="#DejaVuSans-6c" x="1467.435547"/>
       <use xlink:href="#DejaVuSans-6c" x="1495.21875"/>
       <use xlink:href="#DejaVuSans-20" x="1523.001953"/>
       <use xlink:href="#DejaVuSans-70" x="1554.789062"/>
       <use xlink:href="#DejaVuSans-6f" x="1618.265625"/>
       <use xlink:href="#DejaVuSans-70" x="1679.447266"/>
       <use xlink:href="#DejaVuSans-75" x="1742.923828"/>
       <use xlink:href="#DejaVuSans-6c" x="1806.302734"/>
       <use xlink:href="#DejaVuSans-61" x="1834.085938"/>
       <use xlink:href="#DejaVuSans-74" x="1895.365234"/>
       <use xlink:href="#DejaVuSans-69" x="1934.574219"/>
       <use xlink:href="#DejaVuSans-6f" x="1962.357422"/>
       <use xlink:href="#DejaVuSans-6e" x="2023.539062"/>
       <use xlink:href="#DejaVuSans-20" x="2086.917969"/>
       <use xlink:href="#DejaVuSans-67" x="2118.705078"/>
       <use xlink:href="#DejaVuSans-72" x="2182.181641"/>
       <use xlink:href="#DejaVuSans-6f" x="2221.044922"/>
       <use xlink:href="#DejaVuSans-77" x="2282.226562"/>
       <use xlink:href="#DejaVuSans-74" x="2364.013672"/>
       <use xlink:href="#DejaVuSans-68" x="2403.222656"/>
      </g>
     </g>
    </g>
    <g id="ytick_6">
     <g id="line2d_13">
      <g>
       <use xlink:href="#m7fb0667ec6" x="439.408168" y="168.32101" style="stroke: #000000; stroke-width: 0.8"/>
      </g>
     </g>
     <g id="text_14">
      <!-- GO:0022625: cytosolic large ribosomal subunit -->
      <g transform="translate(107.60354 230.660975) rotate(-10) scale(0.14 -0.14)">
       <use xlink:href="#DejaVuSans-47"/>
       <use xlink:href="#DejaVuSans-4f" x="77.490234"/>
       <use xlink:href="#DejaVuSans-3a" x="154.451172"/>
       <use xlink:href="#DejaVuSans-30" x="188.142578"/>
       <use xlink:href="#DejaVuSans-30" x="251.765625"/>
       <use xlink:href="#DejaVuSans-32" x="315.388672"/>
       <use xlink:href="#DejaVuSans-32" x="379.011719"/>
       <use xlink:href="#DejaVuSans-36" x="442.634766"/>
       <use xlink:href="#DejaVuSans-32" x="506.257812"/>
       <use xlink:href="#DejaVuSans-35" x="569.880859"/>
       <use xlink:href="#DejaVuSans-3a" x="633.503906"/>
       <use xlink:href="#DejaVuSans-20" x="667.195312"/>
       <use xlink:href="#DejaVuSans-63" x="698.982422"/>
       <use xlink:href="#DejaVuSans-79" x="753.962891"/>
       <use xlink:href="#DejaVuSans-74" x="813.142578"/>
       <use xlink:href="#DejaVuSans-6f" x="852.351562"/>
       <use xlink:href="#DejaVuSans-73" x="913.533203"/>
       <use xlink:href="#DejaVuSans-6f" x="965.632812"/>
       <use xlink:href="#DejaVuSans-6c" x="1026.814453"/>
       <use xlink:href="#DejaVuSans-69" x="1054.597656"/>
       <use xlink:href="#DejaVuSans-63" x="1082.380859"/>
       <use xlink:href="#DejaVuSans-20" x="1137.361328"/>
       <use xlink:href="#DejaVuSans-6c" x="1169.148438"/>
       <use xlink:href="#DejaVuSans-61" x="1196.931641"/>
       <use xlink:href="#DejaVuSans-72" x="1258.210938"/>
       <use xlink:href="#DejaVuSans-67" x="1297.574219"/>
       <use xlink:href="#DejaVuSans-65" x="1361.050781"/>
       <use xlink:href="#DejaVuSans-20" x="1422.574219"/>
       <use xlink:href="#DejaVuSans-72" x="1454.361328"/>
       <use xlink:href="#DejaVuSans-69" x="1495.474609"/>
       <use xlink:href="#DejaVuSans-62" x="1523.257812"/>
       <use xlink:href="#DejaVuSans-6f" x="1586.734375"/>
       <use xlink:href="#DejaVuSans-73" x="1647.916016"/>
       <use xlink:href="#DejaVuSans-6f" x="1700.015625"/>
       <use xlink:href="#DejaVuSans-6d" x="1761.197266"/>
       <use xlink:href="#DejaVuSans-61" x="1858.609375"/>
       <use xlink:href="#DejaVuSans-6c" x="1919.888672"/>
       <use xlink:href="#DejaVuSans-20" x="1947.671875"/>
       <use xlink:href="#DejaVuSans-73" x="1979.458984"/>
       <use xlink:href="#DejaVuSans-75" x="2031.558594"/>
       <use xlink:href="#DejaVuSans-62" x="2094.9375"/>
       <use xlink:href="#DejaVuSans-75" x="2158.414062"/>
       <use xlink:href="#DejaVuSans-6e" x="2221.792969"/>
       <use xlink:href="#DejaVuSans-69" x="2285.171875"/>
       <use xlink:href="#DejaVuSans-74" x="2312.955078"/>
      </g>
     </g>
    </g>
    <g id="ytick_7">
     <g id="line2d_14">
      <g>
       <use xlink:href="#m7fb0667ec6" x="439.408168" y="132.92303" style="stroke: #000000; stroke-width: 0.8"/>
      </g>
     </g>
     <g id="text_15">
      <!-- FYPO:0001355: decreased vegetative cell population growth -->
      <g transform="translate(13.826145 211.79848) rotate(-10) scale(0.14 -0.14)">
       <defs>
        <path id="DejaVuSans-76" d="M 191 3500 
L 800 3500 
L 1894 563 
L 2988 3500 
L 3597 3500 
L 2284 0 
L 1503 0 
L 191 3500 
z
" transform="scale(0.015625)"/>
       </defs>
       <use xlink:href="#DejaVuSans-46"/>
       <use xlink:href="#DejaVuSans-59" x="57.519531"/>
       <use xlink:href="#DejaVuSans-50" x="118.603516"/>
       <use xlink:href="#DejaVuSans-4f" x="178.90625"/>
       <use xlink:href="#DejaVuSans-3a" x="255.867188"/>
       <use xlink:href="#DejaVuSans-30" x="289.558594"/>
       <use xlink:href="#DejaVuSans-30" x="353.181641"/>
       <use xlink:href="#DejaVuSans-30" x="416.804688"/>
       <use xlink:href="#DejaVuSans-31" x="480.427734"/>
       <use xlink:href="#DejaVuSans-33" x="544.050781"/>
       <use xlink:href="#DejaVuSans-35" x="607.673828"/>
       <use xlink:href="#DejaVuSans-35" x="671.296875"/>
       <use xlink:href="#DejaVuSans-3a" x="734.919922"/>
       <use xlink:href="#DejaVuSans-20" x="768.611328"/>
       <use xlink:href="#DejaVuSans-64" x="800.398438"/>
       <use xlink:href="#DejaVuSans-65" x="863.875"/>
       <use xlink:href="#DejaVuSans-63" x="925.398438"/>
       <use xlink:href="#DejaVuSans-72" x="980.378906"/>
       <use xlink:href="#DejaVuSans-65" x="1019.242188"/>
       <use xlink:href="#DejaVuSans-61" x="1080.765625"/>
       <use xlink:href="#DejaVuSans-73" x="1142.044922"/>
       <use xlink:href="#DejaVuSans-65" x="1194.144531"/>
       <use xlink:href="#DejaVuSans-64" x="1255.667969"/>
       <use xlink:href="#DejaVuSans-20" x="1319.144531"/>
       <use xlink:href="#DejaVuSans-76" x="1350.931641"/>
       <use xlink:href="#DejaVuSans-65" x="1410.111328"/>
       <use xlink:href="#DejaVuSans-67" x="1471.634766"/>
       <use xlink:href="#DejaVuSans-65" x="1535.111328"/>
       <use xlink:href="#DejaVuSans-74" x="1596.634766"/>
       <use xlink:href="#DejaVuSans-61" x="1635.84375"/>
       <use xlink:href="#DejaVuSans-74" x="1697.123047"/>
       <use xlink:href="#DejaVuSans-69" x="1736.332031"/>
       <use xlink:href="#DejaVuSans-76" x="1764.115234"/>
       <use xlink:href="#DejaVuSans-65" x="1823.294922"/>
       <use xlink:href="#DejaVuSans-20" x="1884.818359"/>
       <use xlink:href="#DejaVuSans-63" x="1916.605469"/>
       <use xlink:href="#DejaVuSans-65" x="1971.585938"/>
       <use xlink:href="#DejaVuSans-6c" x="2033.109375"/>
       <use xlink:href="#DejaVuSans-6c" x="2060.892578"/>
       <use xlink:href="#DejaVuSans-20" x="2088.675781"/>
       <use xlink:href="#DejaVuSans-70" x="2120.462891"/>
       <use xlink:href="#DejaVuSans-6f" x="2183.939453"/>
       <use xlink:href="#DejaVuSans-70" x="2245.121094"/>
       <use xlink:href="#DejaVuSans-75" x="2308.597656"/>
       <use xlink:href="#DejaVuSans-6c" x="2371.976562"/>
       <use xlink:href="#DejaVuSans-61" x="2399.759766"/>
       <use xlink:href="#DejaVuSans-74" x="2461.039062"/>
       <use xlink:href="#DejaVuSans-69" x="2500.248047"/>
       <use xlink:href="#DejaVuSans-6f" x="2528.03125"/>
       <use xlink:href="#DejaVuSans-6e" x="2589.212891"/>
       <use xlink:href="#DejaVuSans-20" x="2652.591797"/>
       <use xlink:href="#DejaVuSans-67" x="2684.378906"/>
       <use xlink:href="#DejaVuSans-72" x="2747.855469"/>
       <use xlink:href="#DejaVuSans-6f" x="2786.71875"/>
       <use xlink:href="#DejaVuSans-77" x="2847.900391"/>
       <use xlink:href="#DejaVuSans-74" x="2929.6875"/>
       <use xlink:href="#DejaVuSans-68" x="2968.896484"/>
      </g>
     </g>
    </g>
    <g id="ytick_8">
     <g id="line2d_15">
      <g>
       <use xlink:href="#m7fb0667ec6" x="439.408168" y="97.525051" style="stroke: #000000; stroke-width: 0.8"/>
      </g>
     </g>
     <g id="text_16">
      <!-- FYPO:0001234: slow vegetative cell population growth -->
      <g transform="translate(54.627962 169.206039) rotate(-10) scale(0.14 -0.14)">
       <use xlink:href="#DejaVuSans-46"/>
       <use xlink:href="#DejaVuSans-59" x="57.519531"/>
       <use xlink:href="#DejaVuSans-50" x="118.603516"/>
       <use xlink:href="#DejaVuSans-4f" x="178.90625"/>
       <use xlink:href="#DejaVuSans-3a" x="255.867188"/>
       <use xlink:href="#DejaVuSans-30" x="289.558594"/>
       <use xlink:href="#DejaVuSans-30" x="353.181641"/>
       <use xlink:href="#DejaVuSans-30" x="416.804688"/>
       <use xlink:href="#DejaVuSans-31" x="480.427734"/>
       <use xlink:href="#DejaVuSans-32" x="544.050781"/>
       <use xlink:href="#DejaVuSans-33" x="607.673828"/>
       <use xlink:href="#DejaVuSans-34" x="671.296875"/>
       <use xlink:href="#DejaVuSans-3a" x="734.919922"/>
       <use xlink:href="#DejaVuSans-20" x="768.611328"/>
       <use xlink:href="#DejaVuSans-73" x="800.398438"/>
       <use xlink:href="#DejaVuSans-6c" x="852.498047"/>
       <use xlink:href="#DejaVuSans-6f" x="880.28125"/>
       <use xlink:href="#DejaVuSans-77" x="941.462891"/>
       <use xlink:href="#DejaVuSans-20" x="1023.25"/>
       <use xlink:href="#DejaVuSans-76" x="1055.037109"/>
       <use xlink:href="#DejaVuSans-65" x="1114.216797"/>
       <use xlink:href="#DejaVuSans-67" x="1175.740234"/>
       <use xlink:href="#DejaVuSans-65" x="1239.216797"/>
       <use xlink:href="#DejaVuSans-74" x="1300.740234"/>
       <use xlink:href="#DejaVuSans-61" x="1339.949219"/>
       <use xlink:href="#DejaVuSans-74" x="1401.228516"/>
       <use xlink:href="#DejaVuSans-69" x="1440.4375"/>
       <use xlink:href="#DejaVuSans-76" x="1468.220703"/>
       <use xlink:href="#DejaVuSans-65" x="1527.400391"/>
       <use xlink:href="#DejaVuSans-20" x="1588.923828"/>
       <use xlink:href="#DejaVuSans-63" x="1620.710938"/>
       <use xlink:href="#DejaVuSans-65" x="1675.691406"/>
       <use xlink:href="#DejaVuSans-6c" x="1737.214844"/>
       <use xlink:href="#DejaVuSans-6c" x="1764.998047"/>
       <use xlink:href="#DejaVuSans-20" x="1792.78125"/>
       <use xlink:href="#DejaVuSans-70" x="1824.568359"/>
       <use xlink:href="#DejaVuSans-6f" x="1888.044922"/>
       <use xlink:href="#DejaVuSans-70" x="1949.226562"/>
       <use xlink:href="#DejaVuSans-75" x="2012.703125"/>
       <use xlink:href="#DejaVuSans-6c" x="2076.082031"/>
       <use xlink:href="#DejaVuSans-61" x="2103.865234"/>
       <use xlink:href="#DejaVuSans-74" x="2165.144531"/>
       <use xlink:href="#DejaVuSans-69" x="2204.353516"/>
       <use xlink:href="#DejaVuSans-6f" x="2232.136719"/>
       <use xlink:href="#DejaVuSans-6e" x="2293.318359"/>
       <use xlink:href="#DejaVuSans-20" x="2356.697266"/>
       <use xlink:href="#DejaVuSans-67" x="2388.484375"/>
       <use xlink:href="#DejaVuSans-72" x="2451.960938"/>
       <use xlink:href="#DejaVuSans-6f" x="2490.824219"/>
       <use xlink:href="#DejaVuSans-77" x="2552.005859"/>
       <use xlink:href="#DejaVuSans-74" x="2633.792969"/>
       <use xlink:href="#DejaVuSans-68" x="2673.001953"/>
      </g>
     </g>
    </g>
    <g id="ytick_9">
     <g id="line2d_16">
      <g>
       <use xlink:href="#m7fb0667ec6" x="439.408168" y="62.127071" style="stroke: #000000; stroke-width: 0.8"/>
      </g>
     </g>
     <g id="text_17">
      <!-- Gene Expression: Ribosomal protein module Homol  -->
      <g transform="translate(69.921825 123.856641) rotate(-10) scale(0.14 -0.14)">
       <defs>
        <path id="DejaVuSans-45" d="M 628 4666 
L 3578 4666 
L 3578 4134 
L 1259 4134 
L 1259 2753 
L 3481 2753 
L 3481 2222 
L 1259 2222 
L 1259 531 
L 3634 531 
L 3634 0 
L 628 0 
L 628 4666 
z
" transform="scale(0.015625)"/>
        <path id="DejaVuSans-52" d="M 2841 2188 
Q 3044 2119 3236 1894 
Q 3428 1669 3622 1275 
L 4263 0 
L 3584 0 
L 2988 1197 
Q 2756 1666 2539 1819 
Q 2322 1972 1947 1972 
L 1259 1972 
L 1259 0 
L 628 0 
L 628 4666 
L 2053 4666 
Q 2853 4666 3247 4331 
Q 3641 3997 3641 3322 
Q 3641 2881 3436 2590 
Q 3231 2300 2841 2188 
z
M 1259 4147 
L 1259 2491 
L 2053 2491 
Q 2509 2491 2742 2702 
Q 2975 2913 2975 3322 
Q 2975 3731 2742 3939 
Q 2509 4147 2053 4147 
L 1259 4147 
z
" transform="scale(0.015625)"/>
        <path id="DejaVuSans-48" d="M 628 4666 
L 1259 4666 
L 1259 2753 
L 3553 2753 
L 3553 4666 
L 4184 4666 
L 4184 0 
L 3553 0 
L 3553 2222 
L 1259 2222 
L 1259 0 
L 628 0 
L 628 4666 
z
" transform="scale(0.015625)"/>
       </defs>
       <use xlink:href="#DejaVuSans-47"/>
       <use xlink:href="#DejaVuSans-65" x="77.490234"/>
       <use xlink:href="#DejaVuSans-6e" x="139.013672"/>
       <use xlink:href="#DejaVuSans-65" x="202.392578"/>
       <use xlink:href="#DejaVuSans-20" x="263.916016"/>
       <use xlink:href="#DejaVuSans-45" x="295.703125"/>
       <use xlink:href="#DejaVuSans-78" x="358.886719"/>
       <use xlink:href="#DejaVuSans-70" x="418.066406"/>
       <use xlink:href="#DejaVuSans-72" x="481.542969"/>
       <use xlink:href="#DejaVuSans-65" x="520.40625"/>
       <use xlink:href="#DejaVuSans-73" x="581.929688"/>
       <use xlink:href="#DejaVuSans-73" x="634.029297"/>
       <use xlink:href="#DejaVuSans-69" x="686.128906"/>
       <use xlink:href="#DejaVuSans-6f" x="713.912109"/>
       <use xlink:href="#DejaVuSans-6e" x="775.09375"/>
       <use xlink:href="#DejaVuSans-3a" x="838.472656"/>
       <use xlink:href="#DejaVuSans-20" x="872.164062"/>
       <use xlink:href="#DejaVuSans-52" x="903.951172"/>
       <use xlink:href="#DejaVuSans-69" x="973.433594"/>
       <use xlink:href="#DejaVuSans-62" x="1001.216797"/>
       <use xlink:href="#DejaVuSans-6f" x="1064.693359"/>
       <use xlink:href="#DejaVuSans-73" x="1125.875"/>
       <use xlink:href="#DejaVuSans-6f" x="1177.974609"/>
       <use xlink:href="#DejaVuSans-6d" x="1239.15625"/>
       <use xlink:href="#DejaVuSans-61" x="1336.568359"/>
       <use xlink:href="#DejaVuSans-6c" x="1397.847656"/>
       <use xlink:href="#DejaVuSans-20" x="1425.630859"/>
       <use xlink:href="#DejaVuSans-70" x="1457.417969"/>
       <use xlink:href="#DejaVuSans-72" x="1520.894531"/>
       <use xlink:href="#DejaVuSans-6f" x="1559.757812"/>
       <use xlink:href="#DejaVuSans-74" x="1620.939453"/>
       <use xlink:href="#DejaVuSans-65" x="1660.148438"/>
       <use xlink:href="#DejaVuSans-69" x="1721.671875"/>
       <use xlink:href="#DejaVuSans-6e" x="1749.455078"/>
       <use xlink:href="#DejaVuSans-20" x="1812.833984"/>
       <use xlink:href="#DejaVuSans-6d" x="1844.621094"/>
       <use xlink:href="#DejaVuSans-6f" x="1942.033203"/>
       <use xlink:href="#DejaVuSans-64" x="2003.214844"/>
       <use xlink:href="#DejaVuSans-75" x="2066.691406"/>
       <use xlink:href="#DejaVuSans-6c" x="2130.070312"/>
       <use xlink:href="#DejaVuSans-65" x="2157.853516"/>
       <use xlink:href="#DejaVuSans-20" x="2219.376953"/>
       <use xlink:href="#DejaVuSans-48" x="2251.164062"/>
       <use xlink:href="#DejaVuSans-6f" x="2326.359375"/>
       <use xlink:href="#DejaVuSans-6d" x="2387.541016"/>
       <use xlink:href="#DejaVuSans-6f" x="2484.953125"/>
       <use xlink:href="#DejaVuSans-6c" x="2546.134766"/>
       <use xlink:href="#DejaVuSans-20" x="2573.917969"/>
      </g>
      <!-- D E -->
      <g transform="translate(408.192718 80.129135) rotate(-10) scale(0.14 -0.14)">
       <defs>
        <path id="DejaVuSans-44" d="M 1259 4147 
L 1259 519 
L 2022 519 
Q 2988 519 3436 956 
Q 3884 1394 3884 2338 
Q 3884 3275 3436 3711 
Q 2988 4147 2022 4147 
L 1259 4147 
z
M 628 4666 
L 1925 4666 
Q 3281 4666 3915 4102 
Q 4550 3538 4550 2338 
Q 4550 1131 3912 565 
Q 3275 0 1925 0 
L 628 0 
L 628 4666 
z
" transform="scale(0.015625)"/>
       </defs>
       <use xlink:href="#DejaVuSans-44"/>
       <use xlink:href="#DejaVuSans-20" x="77.001953"/>
       <use xlink:href="#DejaVuSans-45" x="108.789062"/>
      </g>
     </g>
    </g>
    <g id="ytick_10">
     <g id="line2d_17">
      <g>
       <use xlink:href="#m7fb0667ec6" x="439.408168" y="26.729091" style="stroke: #000000; stroke-width: 0.8"/>
      </g>
     </g>
     <g id="text_18">
      <!-- GO:0022626: cytosolic ribosome -->
      <g transform="translate(206.488702 71.632933) rotate(-10) scale(0.14 -0.14)">
       <use xlink:href="#DejaVuSans-47"/>
       <use xlink:href="#DejaVuSans-4f" x="77.490234"/>
       <use xlink:href="#DejaVuSans-3a" x="154.451172"/>
       <use xlink:href="#DejaVuSans-30" x="188.142578"/>
       <use xlink:href="#DejaVuSans-30" x="251.765625"/>
       <use xlink:href="#DejaVuSans-32" x="315.388672"/>
       <use xlink:href="#DejaVuSans-32" x="379.011719"/>
       <use xlink:href="#DejaVuSans-36" x="442.634766"/>
       <use xlink:href="#DejaVuSans-32" x="506.257812"/>
       <use xlink:href="#DejaVuSans-36" x="569.880859"/>
       <use xlink:href="#DejaVuSans-3a" x="633.503906"/>
       <use xlink:href="#DejaVuSans-20" x="667.195312"/>
       <use xlink:href="#DejaVuSans-63" x="698.982422"/>
       <use xlink:href="#DejaVuSans-79" x="753.962891"/>
       <use xlink:href="#DejaVuSans-74" x="813.142578"/>
       <use xlink:href="#DejaVuSans-6f" x="852.351562"/>
       <use xlink:href="#DejaVuSans-73" x="913.533203"/>
       <use xlink:href="#DejaVuSans-6f" x="965.632812"/>
       <use xlink:href="#DejaVuSans-6c" x="1026.814453"/>
       <use xlink:href="#DejaVuSans-69" x="1054.597656"/>
       <use xlink:href="#DejaVuSans-63" x="1082.380859"/>
       <use xlink:href="#DejaVuSans-20" x="1137.361328"/>
       <use xlink:href="#DejaVuSans-72" x="1169.148438"/>
       <use xlink:href="#DejaVuSans-69" x="1210.261719"/>
       <use xlink:href="#DejaVuSans-62" x="1238.044922"/>
       <use xlink:href="#DejaVuSans-6f" x="1301.521484"/>
       <use xlink:href="#DejaVuSans-73" x="1362.703125"/>
       <use xlink:href="#DejaVuSans-6f" x="1414.802734"/>
       <use xlink:href="#DejaVuSans-6d" x="1475.984375"/>
       <use xlink:href="#DejaVuSans-65" x="1573.396484"/>
      </g>
     </g>
    </g>
   </g>
   <g id="line2d_18">
    <path d="M 451.671433 345.310909 
L 524.383683 345.310909 
" clip-path="url(#pe27bfb7f19)" style="fill: none; stroke: #006400; stroke-width: 5; stroke-linecap: square"/>
   </g>
   <g id="line2d_19">
    <path d="M 451.671433 309.912929 
L 524.49331 309.912929 
" clip-path="url(#pe27bfb7f19)" style="fill: none; stroke: #006400; stroke-width: 5; stroke-linecap: square"/>
   </g>
   <g id="line2d_20">
    <path d="M 451.671433 274.514949 
L 524.202639 274.514949 
" clip-path="url(#pe27bfb7f19)" style="fill: none; stroke: #006400; stroke-opacity: 0.984606; stroke-width: 5; stroke-linecap: square"/>
   </g>
   <g id="line2d_21">
    <path d="M 451.671433 239.11697 
L 527.146442 239.11697 
" clip-path="url(#pe27bfb7f19)" style="fill: none; stroke: #006400; stroke-opacity: 0.795899; stroke-width: 5; stroke-linecap: square"/>
   </g>
   <g id="line2d_22">
    <path d="M 451.671433 203.71899 
L 524.39181 203.71899 
" clip-path="url(#pe27bfb7f19)" style="fill: none; stroke: #006400; stroke-opacity: 0.656839; stroke-width: 5; stroke-linecap: square"/>
   </g>
   <g id="line2d_23">
    <path d="M 451.671433 168.32101 
L 696.936735 168.32101 
" clip-path="url(#pe27bfb7f19)" style="fill: none; stroke: #006400; stroke-opacity: 0.656839; stroke-width: 5; stroke-linecap: square"/>
   </g>
   <g id="line2d_24">
    <path d="M 451.671433 132.92303 
L 524.027189 132.92303 
" clip-path="url(#pe27bfb7f19)" style="fill: none; stroke: #006400; stroke-opacity: 0.640585; stroke-width: 5; stroke-linecap: square"/>
   </g>
   <g id="line2d_25">
    <path d="M 451.671433 97.525051 
L 545.626593 97.525051 
" clip-path="url(#pe27bfb7f19)" style="fill: none; stroke: #006400; stroke-opacity: 0.548926; stroke-width: 5; stroke-linecap: square"/>
   </g>
   <g id="line2d_26">
    <path d="M 451.671433 62.127071 
L 591.819969 62.127071 
" clip-path="url(#pe27bfb7f19)" style="fill: none; stroke: #006400; stroke-opacity: 0.548926; stroke-width: 5; stroke-linecap: square"/>
   </g>
   <g id="line2d_27">
    <path d="M 451.671433 26.729091 
L 613.103482 26.729091 
" clip-path="url(#pe27bfb7f19)" style="fill: none; stroke: #006400; stroke-opacity: 0.548926; stroke-width: 5; stroke-linecap: square"/>
   </g>
   <g id="patch_3">
    <path d="M 439.408168 361.24 
L 439.408168 10.8 
" style="fill: none; stroke: #000000; stroke-width: 0.8; stroke-linejoin: miter; stroke-linecap: square"/>
   </g>
   <g id="patch_4">
    <path d="M 709.2 361.24 
L 709.2 10.8 
" style="fill: none; stroke: #000000; stroke-width: 0.8; stroke-linejoin: miter; stroke-linecap: square"/>
   </g>
   <g id="patch_5">
    <path d="M 439.408168 361.24 
L 709.2 361.24 
" style="fill: none; stroke: #000000; stroke-width: 0.8; stroke-linejoin: miter; stroke-linecap: square"/>
   </g>
   <g id="patch_6">
    <path d="M 439.408168 10.8 
L 709.2 10.8 
" style="fill: none; stroke: #000000; stroke-width: 0.8; stroke-linejoin: miter; stroke-linecap: square"/>
   </g>
   <g id="legend_1">
    <g id="patch_7">
     <path d="M 544.483125 355.24 
L 700.8 355.24 
Q 703.2 355.24 703.2 352.84 
L 703.2 173.875 
Q 703.2 171.475 700.8 171.475 
L 544.483125 171.475 
Q 542.083125 171.475 542.083125 173.875 
L 542.083125 352.84 
Q 542.083125 355.24 544.483125 355.24 
z
" style="fill: #ffffff; opacity: 0.8; stroke: #cccccc; stroke-linejoin: miter"/>
    </g>
    <g id="patch_8">
     <path d="M 546.883125 186.625 
L 570.883125 186.625 
L 570.883125 176.275 
L 546.883125 176.275 
z
" style="fill: #006400; opacity: 0.548926; stroke: #006400; stroke-linejoin: miter"/>
    </g>
    <g id="text_19">
     <!-- P= 8.32e-05 -->
     <g transform="translate(580.483125 185.575) scale(0.12 -0.12)">
      <defs>
       <path id="DejaVuSans-3d" d="M 678 2906 
L 4684 2906 
L 4684 2381 
L 678 2381 
L 678 2906 
z
M 678 1631 
L 4684 1631 
L 4684 1100 
L 678 1100 
L 678 1631 
z
" transform="scale(0.015625)"/>
       <path id="DejaVuSans-2e" d="M 684 794 
L 1344 794 
L 1344 0 
L 684 0 
L 684 794 
z
" transform="scale(0.015625)"/>
       <path id="DejaVuSans-2d" d="M 313 2009 
L 1997 2009 
L 1997 1497 
L 313 1497 
L 313 2009 
z
" transform="scale(0.015625)"/>
      </defs>
      <use xlink:href="#DejaVuSans-50"/>
      <use xlink:href="#DejaVuSans-3d" x="60.302734"/>
      <use xlink:href="#DejaVuSans-20" x="144.091797"/>
      <use xlink:href="#DejaVuSans-38" x="175.878906"/>
      <use xlink:href="#DejaVuSans-2e" x="239.501953"/>
      <use xlink:href="#DejaVuSans-33" x="271.289062"/>
      <use xlink:href="#DejaVuSans-32" x="334.912109"/>
      <use xlink:href="#DejaVuSans-65" x="398.535156"/>
      <use xlink:href="#DejaVuSans-2d" x="460.058594"/>
      <use xlink:href="#DejaVuSans-30" x="496.142578"/>
      <use xlink:href="#DejaVuSans-35" x="559.765625"/>
     </g>
    </g>
    <g id="patch_9">
     <path d="M 546.883125 209.820625 
L 570.883125 209.820625 
L 570.883125 199.470625 
L 546.883125 199.470625 
z
" style="fill: #006400; opacity: 0.774463; stroke: #006400; stroke-linejoin: miter"/>
    </g>
    <g id="text_20">
     <!-- P= 1.75e-06 -->
     <g transform="translate(580.483125 208.770625) scale(0.12 -0.12)">
      <use xlink:href="#DejaVuSans-50"/>
      <use xlink:href="#DejaVuSans-3d" x="60.302734"/>
      <use xlink:href="#DejaVuSans-20" x="144.091797"/>
      <use xlink:href="#DejaVuSans-31" x="175.878906"/>
      <use xlink:href="#DejaVuSans-2e" x="239.501953"/>
      <use xlink:href="#DejaVuSans-37" x="271.289062"/>
      <use xlink:href="#DejaVuSans-35" x="334.912109"/>
      <use xlink:href="#DejaVuSans-65" x="398.535156"/>
      <use xlink:href="#DejaVuSans-2d" x="460.058594"/>
      <use xlink:href="#DejaVuSans-30" x="496.142578"/>
      <use xlink:href="#DejaVuSans-36" x="559.765625"/>
     </g>
    </g>
    <g id="patch_10">
     <path d="M 546.883125 233.01625 
L 570.883125 233.01625 
L 570.883125 222.66625 
L 546.883125 222.66625 
z
" style="fill: #006400; stroke: #006400; stroke-linejoin: miter"/>
    </g>
    <g id="text_21">
     <!-- P= 3.70e-08 -->
     <g transform="translate(580.483125 231.96625) scale(0.12 -0.12)">
      <use xlink:href="#DejaVuSans-50"/>
      <use xlink:href="#DejaVuSans-3d" x="60.302734"/>
      <use xlink:href="#DejaVuSans-20" x="144.091797"/>
      <use xlink:href="#DejaVuSans-33" x="175.878906"/>
      <use xlink:href="#DejaVuSans-2e" x="239.501953"/>
      <use xlink:href="#DejaVuSans-37" x="271.289062"/>
      <use xlink:href="#DejaVuSans-30" x="334.912109"/>
      <use xlink:href="#DejaVuSans-65" x="398.535156"/>
      <use xlink:href="#DejaVuSans-2d" x="460.058594"/>
      <use xlink:href="#DejaVuSans-30" x="496.142578"/>
      <use xlink:href="#DejaVuSans-38" x="559.765625"/>
     </g>
    </g>
    <g id="PathCollection_5">
     <defs>
      <path id="m741ba60d74" d="M 0 5 
C 1.326016 5 2.597899 4.473168 3.535534 3.535534 
C 4.473168 2.597899 5 1.326016 5 0 
C 5 -1.326016 4.473168 -2.597899 3.535534 -3.535534 
C 2.597899 -4.473168 1.326016 -5 0 -5 
C -1.326016 -5 -2.597899 -4.473168 -3.535534 -3.535534 
C -4.473168 -2.597899 -5 -1.326016 -5 0 
C -5 1.326016 -4.473168 2.597899 -3.535534 3.535534 
C -2.597899 4.473168 -1.326016 5 0 5 
z
" style="stroke: #006400"/>
     </defs>
     <g>
      <use xlink:href="#m741ba60d74" x="558.883125" y="251.280625" style="fill: #006400; stroke: #006400"/>
     </g>
    </g>
    <g id="text_22">
     <!-- Genes set size: 100 -->
     <g transform="translate(580.483125 255.161875) scale(0.12 -0.12)">
      <defs>
       <path id="DejaVuSans-7a" d="M 353 3500 
L 3084 3500 
L 3084 2975 
L 922 459 
L 3084 459 
L 3084 0 
L 275 0 
L 275 525 
L 2438 3041 
L 353 3041 
L 353 3500 
z
" transform="scale(0.015625)"/>
      </defs>
      <use xlink:href="#DejaVuSans-47"/>
      <use xlink:href="#DejaVuSans-65" x="77.490234"/>
      <use xlink:href="#DejaVuSans-6e" x="139.013672"/>
      <use xlink:href="#DejaVuSans-65" x="202.392578"/>
      <use xlink:href="#DejaVuSans-73" x="263.916016"/>
      <use xlink:href="#DejaVuSans-20" x="316.015625"/>
      <use xlink:href="#DejaVuSans-73" x="347.802734"/>
      <use xlink:href="#DejaVuSans-65" x="399.902344"/>
      <use xlink:href="#DejaVuSans-74" x="461.425781"/>
      <use xlink:href="#DejaVuSans-20" x="500.634766"/>
      <use xlink:href="#DejaVuSans-73" x="532.421875"/>
      <use xlink:href="#DejaVuSans-69" x="584.521484"/>
      <use xlink:href="#DejaVuSans-7a" x="612.304688"/>
      <use xlink:href="#DejaVuSans-65" x="664.794922"/>
      <use xlink:href="#DejaVuSans-3a" x="726.318359"/>
      <use xlink:href="#DejaVuSans-20" x="760.009766"/>
      <use xlink:href="#DejaVuSans-31" x="791.796875"/>
      <use xlink:href="#DejaVuSans-30" x="855.419922"/>
      <use xlink:href="#DejaVuSans-30" x="919.042969"/>
     </g>
    </g>
    <g id="PathCollection_6">
     <defs>
      <path id="mf3d34aadbe" d="M 0 7.071068 
C 1.875269 7.071068 3.673985 6.326016 5 5 
C 6.326016 3.673985 7.071068 1.875269 7.071068 0 
C 7.071068 -1.875269 6.326016 -3.673985 5 -5 
C 3.673985 -6.326016 1.875269 -7.071068 0 -7.071068 
C -1.875269 -7.071068 -3.673985 -6.326016 -5 -5 
C -6.326016 -3.673985 -7.071068 -1.875269 -7.071068 0 
C -7.071068 1.875269 -6.326016 3.673985 -5 5 
C -3.673985 6.326016 -1.875269 7.071068 0 7.071068 
z
" style="stroke: #006400"/>
     </defs>
     <g>
      <use xlink:href="#mf3d34aadbe" x="558.883125" y="274.47625" style="fill: #006400; stroke: #006400"/>
     </g>
    </g>
    <g id="text_23">
     <!-- Genes set size: 200 -->
     <g transform="translate(580.483125 278.3575) scale(0.12 -0.12)">
      <use xlink:href="#DejaVuSans-47"/>
      <use xlink:href="#DejaVuSans-65" x="77.490234"/>
      <use xlink:href="#DejaVuSans-6e" x="139.013672"/>
      <use xlink:href="#DejaVuSans-65" x="202.392578"/>
      <use xlink:href="#DejaVuSans-73" x="263.916016"/>
      <use xlink:href="#DejaVuSans-20" x="316.015625"/>
      <use xlink:href="#DejaVuSans-73" x="347.802734"/>
      <use xlink:href="#DejaVuSans-65" x="399.902344"/>
      <use xlink:href="#DejaVuSans-74" x="461.425781"/>
      <use xlink:href="#DejaVuSans-20" x="500.634766"/>
      <use xlink:href="#DejaVuSans-73" x="532.421875"/>
      <use xlink:href="#DejaVuSans-69" x="584.521484"/>
      <use xlink:href="#DejaVuSans-7a" x="612.304688"/>
      <use xlink:href="#DejaVuSans-65" x="664.794922"/>
      <use xlink:href="#DejaVuSans-3a" x="726.318359"/>
      <use xlink:href="#DejaVuSans-20" x="760.009766"/>
      <use xlink:href="#DejaVuSans-32" x="791.796875"/>
      <use xlink:href="#DejaVuSans-30" x="855.419922"/>
      <use xlink:href="#DejaVuSans-30" x="919.042969"/>
     </g>
    </g>
    <g id="PathCollection_7">
     <defs>
      <path id="m46b6aa8b7f" d="M 0 11.18034 
C 2.965061 11.18034 5.80908 10.002309 7.905694 7.905694 
C 10.002309 5.80908 11.18034 2.965061 11.18034 0 
C 11.18034 -2.965061 10.002309 -5.80908 7.905694 -7.905694 
C 5.80908 -10.002309 2.965061 -11.18034 0 -11.18034 
C -2.965061 -11.18034 -5.80908 -10.002309 -7.905694 -7.905694 
C -10.002309 -5.80908 -11.18034 -2.965061 -11.18034 0 
C -11.18034 2.965061 -10.002309 5.80908 -7.905694 7.905694 
C -5.80908 10.002309 -2.965061 11.18034 0 11.18034 
z
" style="stroke: #006400"/>
     </defs>
     <g>
      <use xlink:href="#m46b6aa8b7f" x="558.883125" y="297.671875" style="fill: #006400; stroke: #006400"/>
     </g>
    </g>
    <g id="text_24">
     <!-- Genes set size: 500 -->
     <g transform="translate(580.483125 301.553125) scale(0.12 -0.12)">
      <use xlink:href="#DejaVuSans-47"/>
      <use xlink:href="#DejaVuSans-65" x="77.490234"/>
      <use xlink:href="#DejaVuSans-6e" x="139.013672"/>
      <use xlink:href="#DejaVuSans-65" x="202.392578"/>
      <use xlink:href="#DejaVuSans-73" x="263.916016"/>
      <use xlink:href="#DejaVuSans-20" x="316.015625"/>
      <use xlink:href="#DejaVuSans-73" x="347.802734"/>
      <use xlink:href="#DejaVuSans-65" x="399.902344"/>
      <use xlink:href="#DejaVuSans-74" x="461.425781"/>
      <use xlink:href="#DejaVuSans-20" x="500.634766"/>
      <use xlink:href="#DejaVuSans-73" x="532.421875"/>
      <use xlink:href="#DejaVuSans-69" x="584.521484"/>
      <use xlink:href="#DejaVuSans-7a" x="612.304688"/>
      <use xlink:href="#DejaVuSans-65" x="664.794922"/>
      <use xlink:href="#DejaVuSans-3a" x="726.318359"/>
      <use xlink:href="#DejaVuSans-20" x="760.009766"/>
      <use xlink:href="#DejaVuSans-35" x="791.796875"/>
      <use xlink:href="#DejaVuSans-30" x="855.419922"/>
      <use xlink:href="#DejaVuSans-30" x="919.042969"/>
     </g>
    </g>
    <g id="line2d_28">
     <defs>
      <path id="m8da1216156" d="M 0 5 
C 1.326016 5 2.597899 4.473168 3.535534 3.535534 
C 4.473168 2.597899 5 1.326016 5 0 
C 5 -1.326016 4.473168 -2.597899 3.535534 -3.535534 
C 2.597899 -4.473168 1.326016 -5 0 -5 
C -1.326016 -5 -2.597899 -4.473168 -3.535534 -3.535534 
C -4.473168 -2.597899 -5 -1.326016 -5 0 
C -5 1.326016 -4.473168 2.597899 -3.535534 3.535534 
C -2.597899 4.473168 -1.326016 5 0 5 
z
" style="stroke: #0000ff"/>
     </defs>
     <g>
      <use xlink:href="#m8da1216156" x="558.883125" y="320.09875" style="fill: #0000ff; stroke: #0000ff"/>
     </g>
    </g>
    <g id="text_25">
     <!-- Ribosome -->
     <g transform="translate(580.483125 324.74875) scale(0.12 -0.12)">
      <use xlink:href="#DejaVuSans-52"/>
      <use xlink:href="#DejaVuSans-69" x="69.482422"/>
      <use xlink:href="#DejaVuSans-62" x="97.265625"/>
      <use xlink:href="#DejaVuSans-6f" x="160.742188"/>
      <use xlink:href="#DejaVuSans-73" x="221.923828"/>
      <use xlink:href="#DejaVuSans-6f" x="274.023438"/>
      <use xlink:href="#DejaVuSans-6d" x="335.205078"/>
      <use xlink:href="#DejaVuSans-65" x="432.617188"/>
     </g>
    </g>
    <g id="line2d_29">
     <defs>
      <path id="m50097187fd" d="M 0 5 
C 1.326016 5 2.597899 4.473168 3.535534 3.535534 
C 4.473168 2.597899 5 1.326016 5 0 
C 5 -1.326016 4.473168 -2.597899 3.535534 -3.535534 
C 2.597899 -4.473168 1.326016 -5 0 -5 
C -1.326016 -5 -2.597899 -4.473168 -3.535534 -3.535534 
C -4.473168 -2.597899 -5 -1.326016 -5 0 
C -5 1.326016 -4.473168 2.597899 -3.535534 3.535534 
C -2.597899 4.473168 -1.326016 5 0 5 
z
" style="stroke: #ffa500"/>
     </defs>
     <g>
      <use xlink:href="#m50097187fd" x="558.883125" y="343.294375" style="fill: #ffa500; stroke: #ffa500"/>
     </g>
    </g>
    <g id="text_26">
     <!-- Decreased growth -->
     <g transform="translate(580.483125 347.944375) scale(0.12 -0.12)">
      <use xlink:href="#DejaVuSans-44"/>
      <use xlink:href="#DejaVuSans-65" x="77.001953"/>
      <use xlink:href="#DejaVuSans-63" x="138.525391"/>
      <use xlink:href="#DejaVuSans-72" x="193.505859"/>
      <use xlink:href="#DejaVuSans-65" x="232.369141"/>
      <use xlink:href="#DejaVuSans-61" x="293.892578"/>
      <use xlink:href="#DejaVuSans-73" x="355.171875"/>
      <use xlink:href="#DejaVuSans-65" x="407.271484"/>
      <use xlink:href="#DejaVuSans-64" x="468.794922"/>
      <use xlink:href="#DejaVuSans-20" x="532.271484"/>
      <use xlink:href="#DejaVuSans-67" x="564.058594"/>
      <use xlink:href="#DejaVuSans-72" x="627.535156"/>
      <use xlink:href="#DejaVuSans-6f" x="666.398438"/>
      <use xlink:href="#DejaVuSans-77" x="727.580078"/>
      <use xlink:href="#DejaVuSans-74" x="809.367188"/>
      <use xlink:href="#DejaVuSans-68" x="848.576172"/>
     </g>
    </g>
   </g>
  </g>
 </g>
 <defs>
  <clipPath id="pe27bfb7f19">
   <rect x="439.408168" y="10.8" width="269.791832" height="350.44"/>
  </clipPath>
 </defs>
</svg>
