<?xml version="1.0" encoding="utf-8" standalone="no"?>
<!DOCTYPE svg PUBLIC "-//W3C//DTD SVG 1.1//EN"
  "http://www.w3.org/Graphics/SVG/1.1/DTD/svg11.dtd">
<svg xmlns:xlink="http://www.w3.org/1999/xlink" width="720pt" height="432pt" viewBox="0 0 720 432" xmlns="http://www.w3.org/2000/svg" version="1.1">
 <metadata>
  <rdf:RDF xmlns:dc="http://purl.org/dc/elements/1.1/" xmlns:cc="http://creativecommons.org/ns#" xmlns:rdf="http://www.w3.org/1999/02/22-rdf-syntax-ns#">
   <cc:Work>
    <dc:type rdf:resource="http://purl.org/dc/dcmitype/StillImage"/>
    <dc:date>2023-11-07T18:50:11.014642</dc:date>
    <dc:format>image/svg+xml</dc:format>
    <dc:creator>
     <cc:Agent>
      <dc:title>Matplotlib v3.8.0, https://matplotlib.org/</dc:title>
     </cc:Agent>
    </dc:creator>
   </cc:Work>
  </rdf:RDF>
 </metadata>
 <defs>
  <style type="text/css">*{stroke-linejoin: round; stroke-linecap: butt}</style>
 </defs>
 <g id="figure_1">
  <g id="patch_1">
   <path d="M 0 432 
L 720 432 
L 720 0 
L 0 0 
z
" style="fill: #ffffff"/>
  </g>
  <g id="axes_1">
   <g id="patch_2">
    <path d="M 370.274663 361.24 
L 709.2 361.24 
L 709.2 10.8 
L 370.274663 10.8 
z
" style="fill: #ffffff"/>
   </g>
   <g id="PathCollection_1">
    <path d="M 445.822552 350.554953 
C 447.213289 350.554953 448.547252 350.002408 449.530651 349.019008 
C 450.51405 348.035609 451.066596 346.701646 451.066596 345.310909 
C 451.066596 343.920172 450.51405 342.586209 449.530651 341.60281 
C 448.547252 340.61941 447.213289 340.066865 445.822552 340.066865 
C 444.431815 340.066865 443.097852 340.61941 442.114453 341.60281 
C 441.131053 342.586209 440.578508 343.920172 440.578508 345.310909 
C 440.578508 346.701646 441.131053 348.035609 442.114453 349.019008 
C 443.097852 350.002408 444.431815 350.554953 445.822552 350.554953 
z
" clip-path="url(#p5e52ff6bb0)" style="fill: #006400; stroke: #006400; stroke-width: 4"/>
    <path d="M 693.794303 311.571242 
C 694.234092 311.571242 694.655929 311.396511 694.966907 311.085533 
C 695.277885 310.774555 695.452615 310.352719 695.452615 309.912929 
C 695.452615 309.47314 695.277885 309.051304 694.966907 308.740325 
C 694.655929 308.429347 694.234092 308.254617 693.794303 308.254617 
C 693.354513 308.254617 692.932677 308.429347 692.621699 308.740325 
C 692.310721 309.051304 692.13599 309.47314 692.13599 309.912929 
C 692.13599 310.352719 692.310721 310.774555 692.621699 311.085533 
C 692.932677 311.396511 693.354513 311.571242 693.794303 311.571242 
z
" clip-path="url(#p5e52ff6bb0)" style="fill: #006400; fill-opacity: 0.87763; stroke: #006400; stroke-opacity: 0.87763; stroke-width: 4"/>
    <path d="M 646.392158 276.317725 
C 646.87026 276.317725 647.328844 276.127773 647.666913 275.789704 
C 648.004982 275.451635 648.194934 274.993051 648.194934 274.514949 
C 648.194934 274.036848 648.004982 273.578264 647.666913 273.240195 
C 647.328844 272.902126 646.87026 272.712174 646.392158 272.712174 
C 645.914056 272.712174 645.455472 272.902126 645.117403 273.240195 
C 644.779334 273.578264 644.589382 274.036848 644.589382 274.514949 
C 644.589382 274.993051 644.779334 275.451635 645.117403 275.789704 
C 645.455472 276.127773 645.914056 276.317725 646.392158 276.317725 
z
" clip-path="url(#p5e52ff6bb0)" style="fill: #006400; fill-opacity: 0.844251; stroke: #006400; stroke-opacity: 0.844251; stroke-width: 4"/>
    <path d="M 646.392158 240.919745 
C 646.87026 240.919745 647.328844 240.729794 647.666913 240.391725 
C 648.004982 240.053656 648.194934 239.595071 648.194934 239.11697 
C 648.194934 238.638868 648.004982 238.180284 647.666913 237.842215 
C 647.328844 237.504146 646.87026 237.314194 646.392158 237.314194 
C 645.914056 237.314194 645.455472 237.504146 645.117403 237.842215 
C 644.779334 238.180284 644.589382 238.638868 644.589382 239.11697 
C 644.589382 239.595071 644.779334 240.053656 645.117403 240.391725 
C 645.455472 240.729794 645.914056 240.919745 646.392158 240.919745 
z
" clip-path="url(#p5e52ff6bb0)" style="fill: #006400; fill-opacity: 0.844251; stroke: #006400; stroke-opacity: 0.844251; stroke-width: 4"/>
    <path d="M 386.690747 214.89933 
C 389.655808 214.89933 392.499827 213.721299 394.596442 211.624684 
C 396.693056 209.528069 397.871087 206.684051 397.871087 203.71899 
C 397.871087 200.753929 396.693056 197.90991 394.596442 195.813296 
C 392.499827 193.716681 389.655808 192.53865 386.690747 192.53865 
C 383.725687 192.53865 380.881668 193.716681 378.785053 195.813296 
C 376.688439 197.90991 375.510408 200.753929 375.510408 203.71899 
C 375.510408 206.684051 376.688439 209.528069 378.785053 211.624684 
C 380.881668 213.721299 383.725687 214.89933 386.690747 214.89933 
z
" clip-path="url(#p5e52ff6bb0)" style="fill: #8b0000; fill-opacity: 0.668012; stroke: #8b0000; stroke-opacity: 0.668012; stroke-width: 4"/>
    <path d="M 642.708053 169.979322 
C 643.147843 169.979322 643.569679 169.804592 643.880657 169.493614 
C 644.191635 169.182636 644.366366 168.7608 644.366366 168.32101 
C 644.366366 167.881221 644.191635 167.459384 643.880657 167.148406 
C 643.569679 166.837428 643.147843 166.662698 642.708053 166.662698 
C 642.268264 166.662698 641.846428 166.837428 641.535449 167.148406 
C 641.224471 167.459384 641.049741 167.881221 641.049741 168.32101 
C 641.049741 168.7608 641.224471 169.182636 641.535449 169.493614 
C 641.846428 169.804592 642.268264 169.979322 642.708053 169.979322 
z
" clip-path="url(#p5e52ff6bb0)" style="fill: #006400; fill-opacity: 0.65194; stroke: #006400; stroke-opacity: 0.65194; stroke-width: 4"/>
    <path d="M 621.289079 134.655081 
C 621.748424 134.655081 622.189018 134.472581 622.513824 134.147775 
C 622.83863 133.822969 623.02113 133.382376 623.02113 132.92303 
C 623.02113 132.463685 622.83863 132.023092 622.513824 131.698285 
C 622.189018 131.373479 621.748424 131.190979 621.289079 131.190979 
C 620.829734 131.190979 620.38914 131.373479 620.064334 131.698285 
C 619.739528 132.023092 619.557028 132.463685 619.557028 132.92303 
C 619.557028 133.382376 619.739528 133.822969 620.064334 134.147775 
C 620.38914 134.472581 620.829734 134.655081 621.289079 134.655081 
z
" clip-path="url(#p5e52ff6bb0)" style="fill: #006400; fill-opacity: 0.631133; stroke: #006400; stroke-opacity: 0.631133; stroke-width: 4"/>
    <path d="M 471.576058 100.879152 
C 472.465577 100.879152 473.318782 100.525743 473.947767 99.896759 
C 474.576751 99.267774 474.93016 98.414569 474.93016 97.525051 
C 474.93016 96.635532 474.576751 95.782327 473.947767 95.153342 
C 473.318782 94.524358 472.465577 94.170949 471.576058 94.170949 
C 470.68654 94.170949 469.833335 94.524358 469.20435 95.153342 
C 468.575366 95.782327 468.221957 96.635532 468.221957 97.525051 
C 468.221957 98.414569 468.575366 99.267774 469.20435 99.896759 
C 469.833335 100.525743 470.68654 100.879152 471.576058 100.879152 
z
" clip-path="url(#p5e52ff6bb0)" style="fill: #006400; fill-opacity: 0.620659; stroke: #006400; stroke-opacity: 0.620659; stroke-width: 4"/>
    <path d="M 603.165331 63.929846 
C 603.643433 63.929846 604.102017 63.739895 604.440086 63.401826 
C 604.778155 63.063757 604.968107 62.605172 604.968107 62.127071 
C 604.968107 61.648969 604.778155 61.190385 604.440086 60.852316 
C 604.102017 60.514247 603.643433 60.324295 603.165331 60.324295 
C 602.68723 60.324295 602.228645 60.514247 601.890576 60.852316 
C 601.552508 61.190385 601.362556 61.648969 601.362556 62.127071 
C 601.362556 62.605172 601.552508 63.063757 601.890576 63.401826 
C 602.228645 63.739895 602.68723 63.929846 603.165331 63.929846 
z
" clip-path="url(#p5e52ff6bb0)" style="fill: #006400; fill-opacity: 0.618567; stroke: #006400; stroke-opacity: 0.618567; stroke-width: 4"/>
    <path d="M 466.317138 30.193193 
C 467.235829 30.193193 468.117016 29.828193 468.766628 29.178581 
C 469.41624 28.528968 469.78124 27.647781 469.78124 26.729091 
C 469.78124 25.8104 469.41624 24.929213 468.766628 24.279601 
C 468.117016 23.629989 467.235829 23.264989 466.317138 23.264989 
C 465.398448 23.264989 464.517261 23.629989 463.867648 24.279601 
C 463.218036 24.929213 462.853037 25.8104 462.853037 26.729091 
C 462.853037 27.647781 463.218036 28.528968 463.867648 29.178581 
C 464.517261 29.828193 465.398448 30.193193 466.317138 30.193193 
z
" clip-path="url(#p5e52ff6bb0)" style="fill: #006400; fill-opacity: 0.607106; stroke: #006400; stroke-opacity: 0.607106; stroke-width: 4"/>
   </g>
   <g id="PathCollection_2"/>
   <g id="PathCollection_3"/>
   <g id="PathCollection_4"/>
   <g id="matplotlib.axis_1">
    <g id="xtick_1">
     <g id="line2d_1">
      <defs>
       <path id="m761343ea44" d="M 0 0 
L 0 3.5 
" style="stroke: #000000; stroke-width: 0.8"/>
      </defs>
      <g>
       <use xlink:href="#m761343ea44" x="385.68036" y="361.24" style="stroke: #000000; stroke-width: 0.8"/>
      </g>
     </g>
     <g id="text_1">
      <!-- 0 -->
      <g transform="translate(377.727235 387.236094) scale(0.25 -0.25)">
       <defs>
        <path id="DejaVuSans-30" d="M 2034 4250 
Q 1547 4250 1301 3770 
Q 1056 3291 1056 2328 
Q 1056 1369 1301 889 
Q 1547 409 2034 409 
Q 2525 409 2770 889 
Q 3016 1369 3016 2328 
Q 3016 3291 2770 3770 
Q 2525 4250 2034 4250 
z
M 2034 4750 
Q 2819 4750 3233 4129 
Q 3647 3509 3647 2328 
Q 3647 1150 3233 529 
Q 2819 -91 2034 -91 
Q 1250 -91 836 529 
Q 422 1150 422 2328 
Q 422 3509 836 4129 
Q 1250 4750 2034 4750 
z
" transform="scale(0.015625)"/>
       </defs>
       <use xlink:href="#DejaVuSans-30"/>
      </g>
     </g>
    </g>
    <g id="xtick_2">
     <g id="line2d_2">
      <g>
       <use xlink:href="#m761343ea44" x="455.923953" y="361.24" style="stroke: #000000; stroke-width: 0.8"/>
      </g>
     </g>
     <g id="text_2">
      <!-- 20 -->
      <g transform="translate(440.017703 387.236094) scale(0.25 -0.25)">
       <defs>
        <path id="DejaVuSans-32" d="M 1228 531 
L 3431 531 
L 3431 0 
L 469 0 
L 469 531 
Q 828 903 1448 1529 
Q 2069 2156 2228 2338 
Q 2531 2678 2651 2914 
Q 2772 3150 2772 3378 
Q 2772 3750 2511 3984 
Q 2250 4219 1831 4219 
Q 1534 4219 1204 4116 
Q 875 4013 500 3803 
L 500 4441 
Q 881 4594 1212 4672 
Q 1544 4750 1819 4750 
Q 2544 4750 2975 4387 
Q 3406 4025 3406 3419 
Q 3406 3131 3298 2873 
Q 3191 2616 2906 2266 
Q 2828 2175 2409 1742 
Q 1991 1309 1228 531 
z
" transform="scale(0.015625)"/>
       </defs>
       <use xlink:href="#DejaVuSans-32"/>
       <use xlink:href="#DejaVuSans-30" x="63.623047"/>
      </g>
     </g>
    </g>
    <g id="xtick_3">
     <g id="line2d_3">
      <g>
       <use xlink:href="#m761343ea44" x="526.167547" y="361.24" style="stroke: #000000; stroke-width: 0.8"/>
      </g>
     </g>
     <g id="text_3">
      <!-- 40 -->
      <g transform="translate(510.261297 387.236094) scale(0.25 -0.25)">
       <defs>
        <path id="DejaVuSans-34" d="M 2419 4116 
L 825 1625 
L 2419 1625 
L 2419 4116 
z
M 2253 4666 
L 3047 4666 
L 3047 1625 
L 3713 1625 
L 3713 1100 
L 3047 1100 
L 3047 0 
L 2419 0 
L 2419 1100 
L 313 1100 
L 313 1709 
L 2253 4666 
z
" transform="scale(0.015625)"/>
       </defs>
       <use xlink:href="#DejaVuSans-34"/>
       <use xlink:href="#DejaVuSans-30" x="63.623047"/>
      </g>
     </g>
    </g>
    <g id="xtick_4">
     <g id="line2d_4">
      <g>
       <use xlink:href="#m761343ea44" x="596.41114" y="361.24" style="stroke: #000000; stroke-width: 0.8"/>
      </g>
     </g>
     <g id="text_4">
      <!-- 60 -->
      <g transform="translate(580.50489 387.236094) scale(0.25 -0.25)">
       <defs>
        <path id="DejaVuSans-36" d="M 2113 2584 
Q 1688 2584 1439 2293 
Q 1191 2003 1191 1497 
Q 1191 994 1439 701 
Q 1688 409 2113 409 
Q 2538 409 2786 701 
Q 3034 994 3034 1497 
Q 3034 2003 2786 2293 
Q 2538 2584 2113 2584 
z
M 3366 4563 
L 3366 3988 
Q 3128 4100 2886 4159 
Q 2644 4219 2406 4219 
Q 1781 4219 1451 3797 
Q 1122 3375 1075 2522 
Q 1259 2794 1537 2939 
Q 1816 3084 2150 3084 
Q 2853 3084 3261 2657 
Q 3669 2231 3669 1497 
Q 3669 778 3244 343 
Q 2819 -91 2113 -91 
Q 1303 -91 875 529 
Q 447 1150 447 2328 
Q 447 3434 972 4092 
Q 1497 4750 2381 4750 
Q 2619 4750 2861 4703 
Q 3103 4656 3366 4563 
z
" transform="scale(0.015625)"/>
       </defs>
       <use xlink:href="#DejaVuSans-36"/>
       <use xlink:href="#DejaVuSans-30" x="63.623047"/>
      </g>
     </g>
    </g>
    <g id="xtick_5">
     <g id="line2d_5">
      <g>
       <use xlink:href="#m761343ea44" x="666.654733" y="361.24" style="stroke: #000000; stroke-width: 0.8"/>
      </g>
     </g>
     <g id="text_5">
      <!-- 80 -->
      <g transform="translate(650.748483 387.236094) scale(0.25 -0.25)">
       <defs>
        <path id="DejaVuSans-38" d="M 2034 2216 
Q 1584 2216 1326 1975 
Q 1069 1734 1069 1313 
Q 1069 891 1326 650 
Q 1584 409 2034 409 
Q 2484 409 2743 651 
Q 3003 894 3003 1313 
Q 3003 1734 2745 1975 
Q 2488 2216 2034 2216 
z
M 1403 2484 
Q 997 2584 770 2862 
Q 544 3141 544 3541 
Q 544 4100 942 4425 
Q 1341 4750 2034 4750 
Q 2731 4750 3128 4425 
Q 3525 4100 3525 3541 
Q 3525 3141 3298 2862 
Q 3072 2584 2669 2484 
Q 3125 2378 3379 2068 
Q 3634 1759 3634 1313 
Q 3634 634 3220 271 
Q 2806 -91 2034 -91 
Q 1263 -91 848 271 
Q 434 634 434 1313 
Q 434 1759 690 2068 
Q 947 2378 1403 2484 
z
M 1172 3481 
Q 1172 3119 1398 2916 
Q 1625 2713 2034 2713 
Q 2441 2713 2670 2916 
Q 2900 3119 2900 3481 
Q 2900 3844 2670 4047 
Q 2441 4250 2034 4250 
Q 1625 4250 1398 4047 
Q 1172 3844 1172 3481 
z
" transform="scale(0.015625)"/>
       </defs>
       <use xlink:href="#DejaVuSans-38"/>
       <use xlink:href="#DejaVuSans-30" x="63.623047"/>
      </g>
     </g>
    </g>
    <g id="text_6">
     <!-- Fold enrichment -->
     <g transform="translate(438.262722 415.431406) scale(0.25 -0.25)">
      <defs>
       <path id="DejaVuSans-46" d="M 628 4666 
L 3309 4666 
L 3309 4134 
L 1259 4134 
L 1259 2759 
L 3109 2759 
L 3109 2228 
L 1259 2228 
L 1259 0 
L 628 0 
L 628 4666 
z
" transform="scale(0.015625)"/>
       <path id="DejaVuSans-6f" d="M 1959 3097 
Q 1497 3097 1228 2736 
Q 959 2375 959 1747 
Q 959 1119 1226 758 
Q 1494 397 1959 397 
Q 2419 397 2687 759 
Q 2956 1122 2956 1747 
Q 2956 2369 2687 2733 
Q 2419 3097 1959 3097 
z
M 1959 3584 
Q 2709 3584 3137 3096 
Q 3566 2609 3566 1747 
Q 3566 888 3137 398 
Q 2709 -91 1959 -91 
Q 1206 -91 779 398 
Q 353 888 353 1747 
Q 353 2609 779 3096 
Q 1206 3584 1959 3584 
z
" transform="scale(0.015625)"/>
       <path id="DejaVuSans-6c" d="M 603 4863 
L 1178 4863 
L 1178 0 
L 603 0 
L 603 4863 
z
" transform="scale(0.015625)"/>
       <path id="DejaVuSans-64" d="M 2906 2969 
L 2906 4863 
L 3481 4863 
L 3481 0 
L 2906 0 
L 2906 525 
Q 2725 213 2448 61 
Q 2172 -91 1784 -91 
Q 1150 -91 751 415 
Q 353 922 353 1747 
Q 353 2572 751 3078 
Q 1150 3584 1784 3584 
Q 2172 3584 2448 3432 
Q 2725 3281 2906 2969 
z
M 947 1747 
Q 947 1113 1208 752 
Q 1469 391 1925 391 
Q 2381 391 2643 752 
Q 2906 1113 2906 1747 
Q 2906 2381 2643 2742 
Q 2381 3103 1925 3103 
Q 1469 3103 1208 2742 
Q 947 2381 947 1747 
z
" transform="scale(0.015625)"/>
       <path id="DejaVuSans-20" transform="scale(0.015625)"/>
       <path id="DejaVuSans-65" d="M 3597 1894 
L 3597 1613 
L 953 1613 
Q 991 1019 1311 708 
Q 1631 397 2203 397 
Q 2534 397 2845 478 
Q 3156 559 3463 722 
L 3463 178 
Q 3153 47 2828 -22 
Q 2503 -91 2169 -91 
Q 1331 -91 842 396 
Q 353 884 353 1716 
Q 353 2575 817 3079 
Q 1281 3584 2069 3584 
Q 2775 3584 3186 3129 
Q 3597 2675 3597 1894 
z
M 3022 2063 
Q 3016 2534 2758 2815 
Q 2500 3097 2075 3097 
Q 1594 3097 1305 2825 
Q 1016 2553 972 2059 
L 3022 2063 
z
" transform="scale(0.015625)"/>
       <path id="DejaVuSans-6e" d="M 3513 2113 
L 3513 0 
L 2938 0 
L 2938 2094 
Q 2938 2591 2744 2837 
Q 2550 3084 2163 3084 
Q 1697 3084 1428 2787 
Q 1159 2491 1159 1978 
L 1159 0 
L 581 0 
L 581 3500 
L 1159 3500 
L 1159 2956 
Q 1366 3272 1645 3428 
Q 1925 3584 2291 3584 
Q 2894 3584 3203 3211 
Q 3513 2838 3513 2113 
z
" transform="scale(0.015625)"/>
       <path id="DejaVuSans-72" d="M 2631 2963 
Q 2534 3019 2420 3045 
Q 2306 3072 2169 3072 
Q 1681 3072 1420 2755 
Q 1159 2438 1159 1844 
L 1159 0 
L 581 0 
L 581 3500 
L 1159 3500 
L 1159 2956 
Q 1341 3275 1631 3429 
Q 1922 3584 2338 3584 
Q 2397 3584 2469 3576 
Q 2541 3569 2628 3553 
L 2631 2963 
z
" transform="scale(0.015625)"/>
       <path id="DejaVuSans-69" d="M 603 3500 
L 1178 3500 
L 1178 0 
L 603 0 
L 603 3500 
z
M 603 4863 
L 1178 4863 
L 1178 4134 
L 603 4134 
L 603 4863 
z
" transform="scale(0.015625)"/>
       <path id="DejaVuSans-63" d="M 3122 3366 
L 3122 2828 
Q 2878 2963 2633 3030 
Q 2388 3097 2138 3097 
Q 1578 3097 1268 2742 
Q 959 2388 959 1747 
Q 959 1106 1268 751 
Q 1578 397 2138 397 
Q 2388 397 2633 464 
Q 2878 531 3122 666 
L 3122 134 
Q 2881 22 2623 -34 
Q 2366 -91 2075 -91 
Q 1284 -91 818 406 
Q 353 903 353 1747 
Q 353 2603 823 3093 
Q 1294 3584 2113 3584 
Q 2378 3584 2631 3529 
Q 2884 3475 3122 3366 
z
" transform="scale(0.015625)"/>
       <path id="DejaVuSans-68" d="M 3513 2113 
L 3513 0 
L 2938 0 
L 2938 2094 
Q 2938 2591 2744 2837 
Q 2550 3084 2163 3084 
Q 1697 3084 1428 2787 
Q 1159 2491 1159 1978 
L 1159 0 
L 581 0 
L 581 4863 
L 1159 4863 
L 1159 2956 
Q 1366 3272 1645 3428 
Q 1925 3584 2291 3584 
Q 2894 3584 3203 3211 
Q 3513 2838 3513 2113 
z
" transform="scale(0.015625)"/>
       <path id="DejaVuSans-6d" d="M 3328 2828 
Q 3544 3216 3844 3400 
Q 4144 3584 4550 3584 
Q 5097 3584 5394 3201 
Q 5691 2819 5691 2113 
L 5691 0 
L 5113 0 
L 5113 2094 
Q 5113 2597 4934 2840 
Q 4756 3084 4391 3084 
Q 3944 3084 3684 2787 
Q 3425 2491 3425 1978 
L 3425 0 
L 2847 0 
L 2847 2094 
Q 2847 2600 2669 2842 
Q 2491 3084 2119 3084 
Q 1678 3084 1418 2786 
Q 1159 2488 1159 1978 
L 1159 0 
L 581 0 
L 581 3500 
L 1159 3500 
L 1159 2956 
Q 1356 3278 1631 3431 
Q 1906 3584 2284 3584 
Q 2666 3584 2933 3390 
Q 3200 3197 3328 2828 
z
" transform="scale(0.015625)"/>
       <path id="DejaVuSans-74" d="M 1172 4494 
L 1172 3500 
L 2356 3500 
L 2356 3053 
L 1172 3053 
L 1172 1153 
Q 1172 725 1289 603 
Q 1406 481 1766 481 
L 2356 481 
L 2356 0 
L 1766 0 
Q 1100 0 847 248 
Q 594 497 594 1153 
L 594 3053 
L 172 3053 
L 172 3500 
L 594 3500 
L 594 4494 
L 1172 4494 
z
" transform="scale(0.015625)"/>
      </defs>
      <use xlink:href="#DejaVuSans-46"/>
      <use xlink:href="#DejaVuSans-6f" x="53.894531"/>
      <use xlink:href="#DejaVuSans-6c" x="115.076172"/>
      <use xlink:href="#DejaVuSans-64" x="142.859375"/>
      <use xlink:href="#DejaVuSans-20" x="206.335938"/>
      <use xlink:href="#DejaVuSans-65" x="238.123047"/>
      <use xlink:href="#DejaVuSans-6e" x="299.646484"/>
      <use xlink:href="#DejaVuSans-72" x="363.025391"/>
      <use xlink:href="#DejaVuSans-69" x="404.138672"/>
      <use xlink:href="#DejaVuSans-63" x="431.921875"/>
      <use xlink:href="#DejaVuSans-68" x="486.902344"/>
      <use xlink:href="#DejaVuSans-6d" x="550.28125"/>
      <use xlink:href="#DejaVuSans-65" x="647.693359"/>
      <use xlink:href="#DejaVuSans-6e" x="709.216797"/>
      <use xlink:href="#DejaVuSans-74" x="772.595703"/>
     </g>
    </g>
   </g>
   <g id="matplotlib.axis_2">
    <g id="ytick_1">
     <g id="line2d_6">
      <defs>
       <path id="me0e844c24f" d="M 0 0 
L -3.5 0 
" style="stroke: #000000; stroke-width: 0.8"/>
      </defs>
      <g>
       <use xlink:href="#me0e844c24f" x="370.274663" y="345.310909" style="stroke: #000000; stroke-width: 0.8"/>
      </g>
     </g>
     <g id="text_7">
      <!-- Gene Expression: Induced Dbr1 deletion -->
      <g transform="translate(84.493795 399.535643) rotate(-10) scale(0.14 -0.14)">
       <defs>
        <path id="DejaVuSans-47" d="M 3809 666 
L 3809 1919 
L 2778 1919 
L 2778 2438 
L 4434 2438 
L 4434 434 
Q 4069 175 3628 42 
Q 3188 -91 2688 -91 
Q 1594 -91 976 548 
Q 359 1188 359 2328 
Q 359 3472 976 4111 
Q 1594 4750 2688 4750 
Q 3144 4750 3555 4637 
Q 3966 4525 4313 4306 
L 4313 3634 
Q 3963 3931 3569 4081 
Q 3175 4231 2741 4231 
Q 1884 4231 1454 3753 
Q 1025 3275 1025 2328 
Q 1025 1384 1454 906 
Q 1884 428 2741 428 
Q 3075 428 3337 486 
Q 3600 544 3809 666 
z
" transform="scale(0.015625)"/>
        <path id="DejaVuSans-45" d="M 628 4666 
L 3578 4666 
L 3578 4134 
L 1259 4134 
L 1259 2753 
L 3481 2753 
L 3481 2222 
L 1259 2222 
L 1259 531 
L 3634 531 
L 3634 0 
L 628 0 
L 628 4666 
z
" transform="scale(0.015625)"/>
        <path id="DejaVuSans-78" d="M 3513 3500 
L 2247 1797 
L 3578 0 
L 2900 0 
L 1881 1375 
L 863 0 
L 184 0 
L 1544 1831 
L 300 3500 
L 978 3500 
L 1906 2253 
L 2834 3500 
L 3513 3500 
z
" transform="scale(0.015625)"/>
        <path id="DejaVuSans-70" d="M 1159 525 
L 1159 -1331 
L 581 -1331 
L 581 3500 
L 1159 3500 
L 1159 2969 
Q 1341 3281 1617 3432 
Q 1894 3584 2278 3584 
Q 2916 3584 3314 3078 
Q 3713 2572 3713 1747 
Q 3713 922 3314 415 
Q 2916 -91 2278 -91 
Q 1894 -91 1617 61 
Q 1341 213 1159 525 
z
M 3116 1747 
Q 3116 2381 2855 2742 
Q 2594 3103 2138 3103 
Q 1681 3103 1420 2742 
Q 1159 2381 1159 1747 
Q 1159 1113 1420 752 
Q 1681 391 2138 391 
Q 2594 391 2855 752 
Q 3116 1113 3116 1747 
z
" transform="scale(0.015625)"/>
        <path id="DejaVuSans-73" d="M 2834 3397 
L 2834 2853 
Q 2591 2978 2328 3040 
Q 2066 3103 1784 3103 
Q 1356 3103 1142 2972 
Q 928 2841 928 2578 
Q 928 2378 1081 2264 
Q 1234 2150 1697 2047 
L 1894 2003 
Q 2506 1872 2764 1633 
Q 3022 1394 3022 966 
Q 3022 478 2636 193 
Q 2250 -91 1575 -91 
Q 1294 -91 989 -36 
Q 684 19 347 128 
L 347 722 
Q 666 556 975 473 
Q 1284 391 1588 391 
Q 1994 391 2212 530 
Q 2431 669 2431 922 
Q 2431 1156 2273 1281 
Q 2116 1406 1581 1522 
L 1381 1569 
Q 847 1681 609 1914 
Q 372 2147 372 2553 
Q 372 3047 722 3315 
Q 1072 3584 1716 3584 
Q 2034 3584 2315 3537 
Q 2597 3491 2834 3397 
z
" transform="scale(0.015625)"/>
        <path id="DejaVuSans-3a" d="M 750 794 
L 1409 794 
L 1409 0 
L 750 0 
L 750 794 
z
M 750 3309 
L 1409 3309 
L 1409 2516 
L 750 2516 
L 750 3309 
z
" transform="scale(0.015625)"/>
        <path id="DejaVuSans-49" d="M 628 4666 
L 1259 4666 
L 1259 0 
L 628 0 
L 628 4666 
z
" transform="scale(0.015625)"/>
        <path id="DejaVuSans-75" d="M 544 1381 
L 544 3500 
L 1119 3500 
L 1119 1403 
Q 1119 906 1312 657 
Q 1506 409 1894 409 
Q 2359 409 2629 706 
Q 2900 1003 2900 1516 
L 2900 3500 
L 3475 3500 
L 3475 0 
L 2900 0 
L 2900 538 
Q 2691 219 2414 64 
Q 2138 -91 1772 -91 
Q 1169 -91 856 284 
Q 544 659 544 1381 
z
M 1991 3584 
L 1991 3584 
z
" transform="scale(0.015625)"/>
        <path id="DejaVuSans-44" d="M 1259 4147 
L 1259 519 
L 2022 519 
Q 2988 519 3436 956 
Q 3884 1394 3884 2338 
Q 3884 3275 3436 3711 
Q 2988 4147 2022 4147 
L 1259 4147 
z
M 628 4666 
L 1925 4666 
Q 3281 4666 3915 4102 
Q 4550 3538 4550 2338 
Q 4550 1131 3912 565 
Q 3275 0 1925 0 
L 628 0 
L 628 4666 
z
" transform="scale(0.015625)"/>
        <path id="DejaVuSans-62" d="M 3116 1747 
Q 3116 2381 2855 2742 
Q 2594 3103 2138 3103 
Q 1681 3103 1420 2742 
Q 1159 2381 1159 1747 
Q 1159 1113 1420 752 
Q 1681 391 2138 391 
Q 2594 391 2855 752 
Q 3116 1113 3116 1747 
z
M 1159 2969 
Q 1341 3281 1617 3432 
Q 1894 3584 2278 3584 
Q 2916 3584 3314 3078 
Q 3713 2572 3713 1747 
Q 3713 922 3314 415 
Q 2916 -91 2278 -91 
Q 1894 -91 1617 61 
Q 1341 213 1159 525 
L 1159 0 
L 581 0 
L 581 4863 
L 1159 4863 
L 1159 2969 
z
" transform="scale(0.015625)"/>
        <path id="DejaVuSans-31" d="M 794 531 
L 1825 531 
L 1825 4091 
L 703 3866 
L 703 4441 
L 1819 4666 
L 2450 4666 
L 2450 531 
L 3481 531 
L 3481 0 
L 794 0 
L 794 531 
z
" transform="scale(0.015625)"/>
       </defs>
       <use xlink:href="#DejaVuSans-47"/>
       <use xlink:href="#DejaVuSans-65" x="77.490234"/>
       <use xlink:href="#DejaVuSans-6e" x="139.013672"/>
       <use xlink:href="#DejaVuSans-65" x="202.392578"/>
       <use xlink:href="#DejaVuSans-20" x="263.916016"/>
       <use xlink:href="#DejaVuSans-45" x="295.703125"/>
       <use xlink:href="#DejaVuSans-78" x="358.886719"/>
       <use xlink:href="#DejaVuSans-70" x="418.066406"/>
       <use xlink:href="#DejaVuSans-72" x="481.542969"/>
       <use xlink:href="#DejaVuSans-65" x="520.40625"/>
       <use xlink:href="#DejaVuSans-73" x="581.929688"/>
       <use xlink:href="#DejaVuSans-73" x="634.029297"/>
       <use xlink:href="#DejaVuSans-69" x="686.128906"/>
       <use xlink:href="#DejaVuSans-6f" x="713.912109"/>
       <use xlink:href="#DejaVuSans-6e" x="775.09375"/>
       <use xlink:href="#DejaVuSans-3a" x="838.472656"/>
       <use xlink:href="#DejaVuSans-20" x="872.164062"/>
       <use xlink:href="#DejaVuSans-49" x="903.951172"/>
       <use xlink:href="#DejaVuSans-6e" x="933.443359"/>
       <use xlink:href="#DejaVuSans-64" x="996.822266"/>
       <use xlink:href="#DejaVuSans-75" x="1060.298828"/>
       <use xlink:href="#DejaVuSans-63" x="1123.677734"/>
       <use xlink:href="#DejaVuSans-65" x="1178.658203"/>
       <use xlink:href="#DejaVuSans-64" x="1240.181641"/>
       <use xlink:href="#DejaVuSans-20" x="1303.658203"/>
       <use xlink:href="#DejaVuSans-44" x="1335.445312"/>
       <use xlink:href="#DejaVuSans-62" x="1412.447266"/>
       <use xlink:href="#DejaVuSans-72" x="1475.923828"/>
       <use xlink:href="#DejaVuSans-31" x="1517.037109"/>
       <use xlink:href="#DejaVuSans-20" x="1580.660156"/>
       <use xlink:href="#DejaVuSans-64" x="1612.447266"/>
       <use xlink:href="#DejaVuSans-65" x="1675.923828"/>
       <use xlink:href="#DejaVuSans-6c" x="1737.447266"/>
       <use xlink:href="#DejaVuSans-65" x="1765.230469"/>
       <use xlink:href="#DejaVuSans-74" x="1826.753906"/>
       <use xlink:href="#DejaVuSans-69" x="1865.962891"/>
       <use xlink:href="#DejaVuSans-6f" x="1893.746094"/>
       <use xlink:href="#DejaVuSans-6e" x="1954.927734"/>
      </g>
     </g>
    </g>
    <g id="ytick_2">
     <g id="line2d_7">
      <g>
       <use xlink:href="#me0e844c24f" x="370.274663" y="309.912929" style="stroke: #000000; stroke-width: 0.8"/>
      </g>
     </g>
     <g id="text_8">
      <!-- GO:0000128: flocculation -->
      <g transform="translate(186.690066 346.117703) rotate(-10) scale(0.14 -0.14)">
       <defs>
        <path id="DejaVuSans-4f" d="M 2522 4238 
Q 1834 4238 1429 3725 
Q 1025 3213 1025 2328 
Q 1025 1447 1429 934 
Q 1834 422 2522 422 
Q 3209 422 3611 934 
Q 4013 1447 4013 2328 
Q 4013 3213 3611 3725 
Q 3209 4238 2522 4238 
z
M 2522 4750 
Q 3503 4750 4090 4092 
Q 4678 3434 4678 2328 
Q 4678 1225 4090 567 
Q 3503 -91 2522 -91 
Q 1538 -91 948 565 
Q 359 1222 359 2328 
Q 359 3434 948 4092 
Q 1538 4750 2522 4750 
z
" transform="scale(0.015625)"/>
        <path id="DejaVuSans-66" d="M 2375 4863 
L 2375 4384 
L 1825 4384 
Q 1516 4384 1395 4259 
Q 1275 4134 1275 3809 
L 1275 3500 
L 2222 3500 
L 2222 3053 
L 1275 3053 
L 1275 0 
L 697 0 
L 697 3053 
L 147 3053 
L 147 3500 
L 697 3500 
L 697 3744 
Q 697 4328 969 4595 
Q 1241 4863 1831 4863 
L 2375 4863 
z
" transform="scale(0.015625)"/>
        <path id="DejaVuSans-61" d="M 2194 1759 
Q 1497 1759 1228 1600 
Q 959 1441 959 1056 
Q 959 750 1161 570 
Q 1363 391 1709 391 
Q 2188 391 2477 730 
Q 2766 1069 2766 1631 
L 2766 1759 
L 2194 1759 
z
M 3341 1997 
L 3341 0 
L 2766 0 
L 2766 531 
Q 2569 213 2275 61 
Q 1981 -91 1556 -91 
Q 1019 -91 701 211 
Q 384 513 384 1019 
Q 384 1609 779 1909 
Q 1175 2209 1959 2209 
L 2766 2209 
L 2766 2266 
Q 2766 2663 2505 2880 
Q 2244 3097 1772 3097 
Q 1472 3097 1187 3025 
Q 903 2953 641 2809 
L 641 3341 
Q 956 3463 1253 3523 
Q 1550 3584 1831 3584 
Q 2591 3584 2966 3190 
Q 3341 2797 3341 1997 
z
" transform="scale(0.015625)"/>
       </defs>
       <use xlink:href="#DejaVuSans-47"/>
       <use xlink:href="#DejaVuSans-4f" x="77.490234"/>
       <use xlink:href="#DejaVuSans-3a" x="154.451172"/>
       <use xlink:href="#DejaVuSans-30" x="188.142578"/>
       <use xlink:href="#DejaVuSans-30" x="251.765625"/>
       <use xlink:href="#DejaVuSans-30" x="315.388672"/>
       <use xlink:href="#DejaVuSans-30" x="379.011719"/>
       <use xlink:href="#DejaVuSans-31" x="442.634766"/>
       <use xlink:href="#DejaVuSans-32" x="506.257812"/>
       <use xlink:href="#DejaVuSans-38" x="569.880859"/>
       <use xlink:href="#DejaVuSans-3a" x="633.503906"/>
       <use xlink:href="#DejaVuSans-20" x="667.195312"/>
       <use xlink:href="#DejaVuSans-66" x="698.982422"/>
       <use xlink:href="#DejaVuSans-6c" x="734.1875"/>
       <use xlink:href="#DejaVuSans-6f" x="761.970703"/>
       <use xlink:href="#DejaVuSans-63" x="823.152344"/>
       <use xlink:href="#DejaVuSans-63" x="878.132812"/>
       <use xlink:href="#DejaVuSans-75" x="933.113281"/>
       <use xlink:href="#DejaVuSans-6c" x="996.492188"/>
       <use xlink:href="#DejaVuSans-61" x="1024.275391"/>
       <use xlink:href="#DejaVuSans-74" x="1085.554688"/>
       <use xlink:href="#DejaVuSans-69" x="1124.763672"/>
       <use xlink:href="#DejaVuSans-6f" x="1152.546875"/>
       <use xlink:href="#DejaVuSans-6e" x="1213.728516"/>
      </g>
     </g>
    </g>
    <g id="ytick_3">
     <g id="line2d_8">
      <g>
       <use xlink:href="#me0e844c24f" x="370.274663" y="274.514949" style="stroke: #000000; stroke-width: 0.8"/>
      </g>
     </g>
     <g id="text_9">
      <!-- GO:0098630: aggregation of unicellular organisms -->
      <g transform="translate(13.413757 341.273012) rotate(-10) scale(0.14 -0.14)">
       <defs>
        <path id="DejaVuSans-39" d="M 703 97 
L 703 672 
Q 941 559 1184 500 
Q 1428 441 1663 441 
Q 2288 441 2617 861 
Q 2947 1281 2994 2138 
Q 2813 1869 2534 1725 
Q 2256 1581 1919 1581 
Q 1219 1581 811 2004 
Q 403 2428 403 3163 
Q 403 3881 828 4315 
Q 1253 4750 1959 4750 
Q 2769 4750 3195 4129 
Q 3622 3509 3622 2328 
Q 3622 1225 3098 567 
Q 2575 -91 1691 -91 
Q 1453 -91 1209 -44 
Q 966 3 703 97 
z
M 1959 2075 
Q 2384 2075 2632 2365 
Q 2881 2656 2881 3163 
Q 2881 3666 2632 3958 
Q 2384 4250 1959 4250 
Q 1534 4250 1286 3958 
Q 1038 3666 1038 3163 
Q 1038 2656 1286 2365 
Q 1534 2075 1959 2075 
z
" transform="scale(0.015625)"/>
        <path id="DejaVuSans-33" d="M 2597 2516 
Q 3050 2419 3304 2112 
Q 3559 1806 3559 1356 
Q 3559 666 3084 287 
Q 2609 -91 1734 -91 
Q 1441 -91 1130 -33 
Q 819 25 488 141 
L 488 750 
Q 750 597 1062 519 
Q 1375 441 1716 441 
Q 2309 441 2620 675 
Q 2931 909 2931 1356 
Q 2931 1769 2642 2001 
Q 2353 2234 1838 2234 
L 1294 2234 
L 1294 2753 
L 1863 2753 
Q 2328 2753 2575 2939 
Q 2822 3125 2822 3475 
Q 2822 3834 2567 4026 
Q 2313 4219 1838 4219 
Q 1578 4219 1281 4162 
Q 984 4106 628 3988 
L 628 4550 
Q 988 4650 1302 4700 
Q 1616 4750 1894 4750 
Q 2613 4750 3031 4423 
Q 3450 4097 3450 3541 
Q 3450 3153 3228 2886 
Q 3006 2619 2597 2516 
z
" transform="scale(0.015625)"/>
        <path id="DejaVuSans-67" d="M 2906 1791 
Q 2906 2416 2648 2759 
Q 2391 3103 1925 3103 
Q 1463 3103 1205 2759 
Q 947 2416 947 1791 
Q 947 1169 1205 825 
Q 1463 481 1925 481 
Q 2391 481 2648 825 
Q 2906 1169 2906 1791 
z
M 3481 434 
Q 3481 -459 3084 -895 
Q 2688 -1331 1869 -1331 
Q 1566 -1331 1297 -1286 
Q 1028 -1241 775 -1147 
L 775 -588 
Q 1028 -725 1275 -790 
Q 1522 -856 1778 -856 
Q 2344 -856 2625 -561 
Q 2906 -266 2906 331 
L 2906 616 
Q 2728 306 2450 153 
Q 2172 0 1784 0 
Q 1141 0 747 490 
Q 353 981 353 1791 
Q 353 2603 747 3093 
Q 1141 3584 1784 3584 
Q 2172 3584 2450 3431 
Q 2728 3278 2906 2969 
L 2906 3500 
L 3481 3500 
L 3481 434 
z
" transform="scale(0.015625)"/>
       </defs>
       <use xlink:href="#DejaVuSans-47"/>
       <use xlink:href="#DejaVuSans-4f" x="77.490234"/>
       <use xlink:href="#DejaVuSans-3a" x="154.451172"/>
       <use xlink:href="#DejaVuSans-30" x="188.142578"/>
       <use xlink:href="#DejaVuSans-30" x="251.765625"/>
       <use xlink:href="#DejaVuSans-39" x="315.388672"/>
       <use xlink:href="#DejaVuSans-38" x="379.011719"/>
       <use xlink:href="#DejaVuSans-36" x="442.634766"/>
       <use xlink:href="#DejaVuSans-33" x="506.257812"/>
       <use xlink:href="#DejaVuSans-30" x="569.880859"/>
       <use xlink:href="#DejaVuSans-3a" x="633.503906"/>
       <use xlink:href="#DejaVuSans-20" x="667.195312"/>
       <use xlink:href="#DejaVuSans-61" x="698.982422"/>
       <use xlink:href="#DejaVuSans-67" x="760.261719"/>
       <use xlink:href="#DejaVuSans-67" x="823.738281"/>
       <use xlink:href="#DejaVuSans-72" x="887.214844"/>
       <use xlink:href="#DejaVuSans-65" x="926.078125"/>
       <use xlink:href="#DejaVuSans-67" x="987.601562"/>
       <use xlink:href="#DejaVuSans-61" x="1051.078125"/>
       <use xlink:href="#DejaVuSans-74" x="1112.357422"/>
       <use xlink:href="#DejaVuSans-69" x="1151.566406"/>
       <use xlink:href="#DejaVuSans-6f" x="1179.349609"/>
       <use xlink:href="#DejaVuSans-6e" x="1240.53125"/>
       <use xlink:href="#DejaVuSans-20" x="1303.910156"/>
       <use xlink:href="#DejaVuSans-6f" x="1335.697266"/>
       <use xlink:href="#DejaVuSans-66" x="1396.878906"/>
       <use xlink:href="#DejaVuSans-20" x="1432.083984"/>
       <use xlink:href="#DejaVuSans-75" x="1463.871094"/>
       <use xlink:href="#DejaVuSans-6e" x="1527.25"/>
       <use xlink:href="#DejaVuSans-69" x="1590.628906"/>
       <use xlink:href="#DejaVuSans-63" x="1618.412109"/>
       <use xlink:href="#DejaVuSans-65" x="1673.392578"/>
       <use xlink:href="#DejaVuSans-6c" x="1734.916016"/>
       <use xlink:href="#DejaVuSans-6c" x="1762.699219"/>
       <use xlink:href="#DejaVuSans-75" x="1790.482422"/>
       <use xlink:href="#DejaVuSans-6c" x="1853.861328"/>
       <use xlink:href="#DejaVuSans-61" x="1881.644531"/>
       <use xlink:href="#DejaVuSans-72" x="1942.923828"/>
       <use xlink:href="#DejaVuSans-20" x="1984.037109"/>
       <use xlink:href="#DejaVuSans-6f" x="2015.824219"/>
       <use xlink:href="#DejaVuSans-72" x="2077.005859"/>
       <use xlink:href="#DejaVuSans-67" x="2116.369141"/>
       <use xlink:href="#DejaVuSans-61" x="2179.845703"/>
       <use xlink:href="#DejaVuSans-6e" x="2241.125"/>
       <use xlink:href="#DejaVuSans-69" x="2304.503906"/>
       <use xlink:href="#DejaVuSans-73" x="2332.287109"/>
       <use xlink:href="#DejaVuSans-6d" x="2384.386719"/>
       <use xlink:href="#DejaVuSans-73" x="2481.798828"/>
      </g>
     </g>
    </g>
    <g id="ytick_4">
     <g id="line2d_9">
      <g>
       <use xlink:href="#me0e844c24f" x="370.274663" y="239.11697" style="stroke: #000000; stroke-width: 0.8"/>
      </g>
     </g>
     <g id="text_10">
      <!-- GO:0098743: cell aggregation -->
      <g transform="translate(154.884468 280.929929) rotate(-10) scale(0.14 -0.14)">
       <defs>
        <path id="DejaVuSans-37" d="M 525 4666 
L 3525 4666 
L 3525 4397 
L 1831 0 
L 1172 0 
L 2766 4134 
L 525 4134 
L 525 4666 
z
" transform="scale(0.015625)"/>
       </defs>
       <use xlink:href="#DejaVuSans-47"/>
       <use xlink:href="#DejaVuSans-4f" x="77.490234"/>
       <use xlink:href="#DejaVuSans-3a" x="154.451172"/>
       <use xlink:href="#DejaVuSans-30" x="188.142578"/>
       <use xlink:href="#DejaVuSans-30" x="251.765625"/>
       <use xlink:href="#DejaVuSans-39" x="315.388672"/>
       <use xlink:href="#DejaVuSans-38" x="379.011719"/>
       <use xlink:href="#DejaVuSans-37" x="442.634766"/>
       <use xlink:href="#DejaVuSans-34" x="506.257812"/>
       <use xlink:href="#DejaVuSans-33" x="569.880859"/>
       <use xlink:href="#DejaVuSans-3a" x="633.503906"/>
       <use xlink:href="#DejaVuSans-20" x="667.195312"/>
       <use xlink:href="#DejaVuSans-63" x="698.982422"/>
       <use xlink:href="#DejaVuSans-65" x="753.962891"/>
       <use xlink:href="#DejaVuSans-6c" x="815.486328"/>
       <use xlink:href="#DejaVuSans-6c" x="843.269531"/>
       <use xlink:href="#DejaVuSans-20" x="871.052734"/>
       <use xlink:href="#DejaVuSans-61" x="902.839844"/>
       <use xlink:href="#DejaVuSans-67" x="964.119141"/>
       <use xlink:href="#DejaVuSans-67" x="1027.595703"/>
       <use xlink:href="#DejaVuSans-72" x="1091.072266"/>
       <use xlink:href="#DejaVuSans-65" x="1129.935547"/>
       <use xlink:href="#DejaVuSans-67" x="1191.458984"/>
       <use xlink:href="#DejaVuSans-61" x="1254.935547"/>
       <use xlink:href="#DejaVuSans-74" x="1316.214844"/>
       <use xlink:href="#DejaVuSans-69" x="1355.423828"/>
       <use xlink:href="#DejaVuSans-6f" x="1383.207031"/>
       <use xlink:href="#DejaVuSans-6e" x="1444.388672"/>
      </g>
     </g>
    </g>
    <g id="ytick_5">
     <g id="line2d_10">
      <g>
       <use xlink:href="#me0e844c24f" x="370.274663" y="203.71899" style="stroke: #000000; stroke-width: 0.8"/>
      </g>
     </g>
     <g id="text_11">
      <!-- Transcript Features: mRNA level (WT) -->
      <g transform="translate(105.310477 254.273181) rotate(-10) scale(0.14 -0.14)">
       <defs>
        <path id="DejaVuSans-54" d="M -19 4666 
L 3928 4666 
L 3928 4134 
L 2272 4134 
L 2272 0 
L 1638 0 
L 1638 4134 
L -19 4134 
L -19 4666 
z
" transform="scale(0.015625)"/>
        <path id="DejaVuSans-52" d="M 2841 2188 
Q 3044 2119 3236 1894 
Q 3428 1669 3622 1275 
L 4263 0 
L 3584 0 
L 2988 1197 
Q 2756 1666 2539 1819 
Q 2322 1972 1947 1972 
L 1259 1972 
L 1259 0 
L 628 0 
L 628 4666 
L 2053 4666 
Q 2853 4666 3247 4331 
Q 3641 3997 3641 3322 
Q 3641 2881 3436 2590 
Q 3231 2300 2841 2188 
z
M 1259 4147 
L 1259 2491 
L 2053 2491 
Q 2509 2491 2742 2702 
Q 2975 2913 2975 3322 
Q 2975 3731 2742 3939 
Q 2509 4147 2053 4147 
L 1259 4147 
z
" transform="scale(0.015625)"/>
        <path id="DejaVuSans-4e" d="M 628 4666 
L 1478 4666 
L 3547 763 
L 3547 4666 
L 4159 4666 
L 4159 0 
L 3309 0 
L 1241 3903 
L 1241 0 
L 628 0 
L 628 4666 
z
" transform="scale(0.015625)"/>
        <path id="DejaVuSans-41" d="M 2188 4044 
L 1331 1722 
L 3047 1722 
L 2188 4044 
z
M 1831 4666 
L 2547 4666 
L 4325 0 
L 3669 0 
L 3244 1197 
L 1141 1197 
L 716 0 
L 50 0 
L 1831 4666 
z
" transform="scale(0.015625)"/>
        <path id="DejaVuSans-76" d="M 191 3500 
L 800 3500 
L 1894 563 
L 2988 3500 
L 3597 3500 
L 2284 0 
L 1503 0 
L 191 3500 
z
" transform="scale(0.015625)"/>
        <path id="DejaVuSans-28" d="M 1984 4856 
Q 1566 4138 1362 3434 
Q 1159 2731 1159 2009 
Q 1159 1288 1364 580 
Q 1569 -128 1984 -844 
L 1484 -844 
Q 1016 -109 783 600 
Q 550 1309 550 2009 
Q 550 2706 781 3412 
Q 1013 4119 1484 4856 
L 1984 4856 
z
" transform="scale(0.015625)"/>
        <path id="DejaVuSans-57" d="M 213 4666 
L 850 4666 
L 1831 722 
L 2809 4666 
L 3519 4666 
L 4500 722 
L 5478 4666 
L 6119 4666 
L 4947 0 
L 4153 0 
L 3169 4050 
L 2175 0 
L 1381 0 
L 213 4666 
z
" transform="scale(0.015625)"/>
        <path id="DejaVuSans-29" d="M 513 4856 
L 1013 4856 
Q 1481 4119 1714 3412 
Q 1947 2706 1947 2009 
Q 1947 1309 1714 600 
Q 1481 -109 1013 -844 
L 513 -844 
Q 928 -128 1133 580 
Q 1338 1288 1338 2009 
Q 1338 2731 1133 3434 
Q 928 4138 513 4856 
z
" transform="scale(0.015625)"/>
       </defs>
       <use xlink:href="#DejaVuSans-54"/>
       <use xlink:href="#DejaVuSans-72" x="46.333984"/>
       <use xlink:href="#DejaVuSans-61" x="87.447266"/>
       <use xlink:href="#DejaVuSans-6e" x="148.726562"/>
       <use xlink:href="#DejaVuSans-73" x="212.105469"/>
       <use xlink:href="#DejaVuSans-63" x="264.205078"/>
       <use xlink:href="#DejaVuSans-72" x="319.185547"/>
       <use xlink:href="#DejaVuSans-69" x="360.298828"/>
       <use xlink:href="#DejaVuSans-70" x="388.082031"/>
       <use xlink:href="#DejaVuSans-74" x="451.558594"/>
       <use xlink:href="#DejaVuSans-20" x="490.767578"/>
       <use xlink:href="#DejaVuSans-46" x="522.554688"/>
       <use xlink:href="#DejaVuSans-65" x="574.574219"/>
       <use xlink:href="#DejaVuSans-61" x="636.097656"/>
       <use xlink:href="#DejaVuSans-74" x="697.376953"/>
       <use xlink:href="#DejaVuSans-75" x="736.585938"/>
       <use xlink:href="#DejaVuSans-72" x="799.964844"/>
       <use xlink:href="#DejaVuSans-65" x="838.828125"/>
       <use xlink:href="#DejaVuSans-73" x="900.351562"/>
       <use xlink:href="#DejaVuSans-3a" x="952.451172"/>
       <use xlink:href="#DejaVuSans-20" x="986.142578"/>
       <use xlink:href="#DejaVuSans-6d" x="1017.929688"/>
       <use xlink:href="#DejaVuSans-52" x="1115.341797"/>
       <use xlink:href="#DejaVuSans-4e" x="1184.824219"/>
       <use xlink:href="#DejaVuSans-41" x="1259.628906"/>
       <use xlink:href="#DejaVuSans-20" x="1328.037109"/>
       <use xlink:href="#DejaVuSans-6c" x="1359.824219"/>
       <use xlink:href="#DejaVuSans-65" x="1387.607422"/>
       <use xlink:href="#DejaVuSans-76" x="1449.130859"/>
       <use xlink:href="#DejaVuSans-65" x="1508.310547"/>
       <use xlink:href="#DejaVuSans-6c" x="1569.833984"/>
       <use xlink:href="#DejaVuSans-20" x="1597.617188"/>
       <use xlink:href="#DejaVuSans-28" x="1629.404297"/>
       <use xlink:href="#DejaVuSans-57" x="1668.417969"/>
       <use xlink:href="#DejaVuSans-54" x="1767.294922"/>
       <use xlink:href="#DejaVuSans-29" x="1828.378906"/>
      </g>
     </g>
    </g>
    <g id="ytick_6">
     <g id="line2d_11">
      <g>
       <use xlink:href="#me0e844c24f" x="370.274663" y="168.32101" style="stroke: #000000; stroke-width: 0.8"/>
      </g>
     </g>
     <g id="text_12">
      <!-- GO:0050839: cell adhesion molecule binding -->
      <g transform="translate(52.711895 228.149751) rotate(-10) scale(0.14 -0.14)">
       <defs>
        <path id="DejaVuSans-35" d="M 691 4666 
L 3169 4666 
L 3169 4134 
L 1269 4134 
L 1269 2991 
Q 1406 3038 1543 3061 
Q 1681 3084 1819 3084 
Q 2600 3084 3056 2656 
Q 3513 2228 3513 1497 
Q 3513 744 3044 326 
Q 2575 -91 1722 -91 
Q 1428 -91 1123 -41 
Q 819 9 494 109 
L 494 744 
Q 775 591 1075 516 
Q 1375 441 1709 441 
Q 2250 441 2565 725 
Q 2881 1009 2881 1497 
Q 2881 1984 2565 2268 
Q 2250 2553 1709 2553 
Q 1456 2553 1204 2497 
Q 953 2441 691 2322 
L 691 4666 
z
" transform="scale(0.015625)"/>
       </defs>
       <use xlink:href="#DejaVuSans-47"/>
       <use xlink:href="#DejaVuSans-4f" x="77.490234"/>
       <use xlink:href="#DejaVuSans-3a" x="154.451172"/>
       <use xlink:href="#DejaVuSans-30" x="188.142578"/>
       <use xlink:href="#DejaVuSans-30" x="251.765625"/>
       <use xlink:href="#DejaVuSans-35" x="315.388672"/>
       <use xlink:href="#DejaVuSans-30" x="379.011719"/>
       <use xlink:href="#DejaVuSans-38" x="442.634766"/>
       <use xlink:href="#DejaVuSans-33" x="506.257812"/>
       <use xlink:href="#DejaVuSans-39" x="569.880859"/>
       <use xlink:href="#DejaVuSans-3a" x="633.503906"/>
       <use xlink:href="#DejaVuSans-20" x="667.195312"/>
       <use xlink:href="#DejaVuSans-63" x="698.982422"/>
       <use xlink:href="#DejaVuSans-65" x="753.962891"/>
       <use xlink:href="#DejaVuSans-6c" x="815.486328"/>
       <use xlink:href="#DejaVuSans-6c" x="843.269531"/>
       <use xlink:href="#DejaVuSans-20" x="871.052734"/>
       <use xlink:href="#DejaVuSans-61" x="902.839844"/>
       <use xlink:href="#DejaVuSans-64" x="964.119141"/>
       <use xlink:href="#DejaVuSans-68" x="1027.595703"/>
       <use xlink:href="#DejaVuSans-65" x="1090.974609"/>
       <use xlink:href="#DejaVuSans-73" x="1152.498047"/>
       <use xlink:href="#DejaVuSans-69" x="1204.597656"/>
       <use xlink:href="#DejaVuSans-6f" x="1232.380859"/>
       <use xlink:href="#DejaVuSans-6e" x="1293.5625"/>
       <use xlink:href="#DejaVuSans-20" x="1356.941406"/>
       <use xlink:href="#DejaVuSans-6d" x="1388.728516"/>
       <use xlink:href="#DejaVuSans-6f" x="1486.140625"/>
       <use xlink:href="#DejaVuSans-6c" x="1547.322266"/>
       <use xlink:href="#DejaVuSans-65" x="1575.105469"/>
       <use xlink:href="#DejaVuSans-63" x="1636.628906"/>
       <use xlink:href="#DejaVuSans-75" x="1691.609375"/>
       <use xlink:href="#DejaVuSans-6c" x="1754.988281"/>
       <use xlink:href="#DejaVuSans-65" x="1782.771484"/>
       <use xlink:href="#DejaVuSans-20" x="1844.294922"/>
       <use xlink:href="#DejaVuSans-62" x="1876.082031"/>
       <use xlink:href="#DejaVuSans-69" x="1939.558594"/>
       <use xlink:href="#DejaVuSans-6e" x="1967.341797"/>
       <use xlink:href="#DejaVuSans-64" x="2030.720703"/>
       <use xlink:href="#DejaVuSans-69" x="2094.197266"/>
       <use xlink:href="#DejaVuSans-6e" x="2121.980469"/>
       <use xlink:href="#DejaVuSans-67" x="2185.359375"/>
      </g>
     </g>
    </g>
    <g id="ytick_7">
     <g id="line2d_12">
      <g>
       <use xlink:href="#me0e844c24f" x="370.274663" y="132.92303" style="stroke: #000000; stroke-width: 0.8"/>
      </g>
     </g>
     <g id="text_13">
      <!-- GO:0098631: protein binding involved in cell  -->
      <g transform="translate(46.684978 186.559781) rotate(-10) scale(0.14 -0.14)">
       <use xlink:href="#DejaVuSans-47"/>
       <use xlink:href="#DejaVuSans-4f" x="77.490234"/>
       <use xlink:href="#DejaVuSans-3a" x="154.451172"/>
       <use xlink:href="#DejaVuSans-30" x="188.142578"/>
       <use xlink:href="#DejaVuSans-30" x="251.765625"/>
       <use xlink:href="#DejaVuSans-39" x="315.388672"/>
       <use xlink:href="#DejaVuSans-38" x="379.011719"/>
       <use xlink:href="#DejaVuSans-36" x="442.634766"/>
       <use xlink:href="#DejaVuSans-33" x="506.257812"/>
       <use xlink:href="#DejaVuSans-31" x="569.880859"/>
       <use xlink:href="#DejaVuSans-3a" x="633.503906"/>
       <use xlink:href="#DejaVuSans-20" x="667.195312"/>
       <use xlink:href="#DejaVuSans-70" x="698.982422"/>
       <use xlink:href="#DejaVuSans-72" x="762.458984"/>
       <use xlink:href="#DejaVuSans-6f" x="801.322266"/>
       <use xlink:href="#DejaVuSans-74" x="862.503906"/>
       <use xlink:href="#DejaVuSans-65" x="901.712891"/>
       <use xlink:href="#DejaVuSans-69" x="963.236328"/>
       <use xlink:href="#DejaVuSans-6e" x="991.019531"/>
       <use xlink:href="#DejaVuSans-20" x="1054.398438"/>
       <use xlink:href="#DejaVuSans-62" x="1086.185547"/>
       <use xlink:href="#DejaVuSans-69" x="1149.662109"/>
       <use xlink:href="#DejaVuSans-6e" x="1177.445312"/>
       <use xlink:href="#DejaVuSans-64" x="1240.824219"/>
       <use xlink:href="#DejaVuSans-69" x="1304.300781"/>
       <use xlink:href="#DejaVuSans-6e" x="1332.083984"/>
       <use xlink:href="#DejaVuSans-67" x="1395.462891"/>
       <use xlink:href="#DejaVuSans-20" x="1458.939453"/>
       <use xlink:href="#DejaVuSans-69" x="1490.726562"/>
       <use xlink:href="#DejaVuSans-6e" x="1518.509766"/>
       <use xlink:href="#DejaVuSans-76" x="1581.888672"/>
       <use xlink:href="#DejaVuSans-6f" x="1641.068359"/>
       <use xlink:href="#DejaVuSans-6c" x="1702.25"/>
       <use xlink:href="#DejaVuSans-76" x="1730.033203"/>
       <use xlink:href="#DejaVuSans-65" x="1789.212891"/>
       <use xlink:href="#DejaVuSans-64" x="1850.736328"/>
       <use xlink:href="#DejaVuSans-20" x="1914.212891"/>
       <use xlink:href="#DejaVuSans-69" x="1946"/>
       <use xlink:href="#DejaVuSans-6e" x="1973.783203"/>
       <use xlink:href="#DejaVuSans-20" x="2037.162109"/>
       <use xlink:href="#DejaVuSans-63" x="2068.949219"/>
       <use xlink:href="#DejaVuSans-65" x="2123.929688"/>
       <use xlink:href="#DejaVuSans-6c" x="2185.453125"/>
       <use xlink:href="#DejaVuSans-6c" x="2213.236328"/>
       <use xlink:href="#DejaVuSans-20" x="2241.019531"/>
      </g>
      <!-- adhesion -->
      <g transform="translate(300.159615 157.784144) rotate(-10) scale(0.14 -0.14)">
       <use xlink:href="#DejaVuSans-61"/>
       <use xlink:href="#DejaVuSans-64" x="61.279297"/>
       <use xlink:href="#DejaVuSans-68" x="124.755859"/>
       <use xlink:href="#DejaVuSans-65" x="188.134766"/>
       <use xlink:href="#DejaVuSans-73" x="249.658203"/>
       <use xlink:href="#DejaVuSans-69" x="301.757812"/>
       <use xlink:href="#DejaVuSans-6f" x="329.541016"/>
       <use xlink:href="#DejaVuSans-6e" x="390.722656"/>
      </g>
     </g>
    </g>
    <g id="ytick_8">
     <g id="line2d_13">
      <g>
       <use xlink:href="#me0e844c24f" x="370.274663" y="97.525051" style="stroke: #000000; stroke-width: 0.8"/>
      </g>
     </g>
     <g id="text_14">
      <!-- Gene Expression: Induced usp102 mutant -->
      <g transform="translate(73.108495 153.75732) rotate(-10) scale(0.14 -0.14)">
       <use xlink:href="#DejaVuSans-47"/>
       <use xlink:href="#DejaVuSans-65" x="77.490234"/>
       <use xlink:href="#DejaVuSans-6e" x="139.013672"/>
       <use xlink:href="#DejaVuSans-65" x="202.392578"/>
       <use xlink:href="#DejaVuSans-20" x="263.916016"/>
       <use xlink:href="#DejaVuSans-45" x="295.703125"/>
       <use xlink:href="#DejaVuSans-78" x="358.886719"/>
       <use xlink:href="#DejaVuSans-70" x="418.066406"/>
       <use xlink:href="#DejaVuSans-72" x="481.542969"/>
       <use xlink:href="#DejaVuSans-65" x="520.40625"/>
       <use xlink:href="#DejaVuSans-73" x="581.929688"/>
       <use xlink:href="#DejaVuSans-73" x="634.029297"/>
       <use xlink:href="#DejaVuSans-69" x="686.128906"/>
       <use xlink:href="#DejaVuSans-6f" x="713.912109"/>
       <use xlink:href="#DejaVuSans-6e" x="775.09375"/>
       <use xlink:href="#DejaVuSans-3a" x="838.472656"/>
       <use xlink:href="#DejaVuSans-20" x="872.164062"/>
       <use xlink:href="#DejaVuSans-49" x="903.951172"/>
       <use xlink:href="#DejaVuSans-6e" x="933.443359"/>
       <use xlink:href="#DejaVuSans-64" x="996.822266"/>
       <use xlink:href="#DejaVuSans-75" x="1060.298828"/>
       <use xlink:href="#DejaVuSans-63" x="1123.677734"/>
       <use xlink:href="#DejaVuSans-65" x="1178.658203"/>
       <use xlink:href="#DejaVuSans-64" x="1240.181641"/>
       <use xlink:href="#DejaVuSans-20" x="1303.658203"/>
       <use xlink:href="#DejaVuSans-75" x="1335.445312"/>
       <use xlink:href="#DejaVuSans-73" x="1398.824219"/>
       <use xlink:href="#DejaVuSans-70" x="1450.923828"/>
       <use xlink:href="#DejaVuSans-31" x="1514.400391"/>
       <use xlink:href="#DejaVuSans-30" x="1578.023438"/>
       <use xlink:href="#DejaVuSans-32" x="1641.646484"/>
       <use xlink:href="#DejaVuSans-20" x="1705.269531"/>
       <use xlink:href="#DejaVuSans-6d" x="1737.056641"/>
       <use xlink:href="#DejaVuSans-75" x="1834.46875"/>
       <use xlink:href="#DejaVuSans-74" x="1897.847656"/>
       <use xlink:href="#DejaVuSans-61" x="1937.056641"/>
       <use xlink:href="#DejaVuSans-6e" x="1998.335938"/>
       <use xlink:href="#DejaVuSans-74" x="2061.714844"/>
      </g>
     </g>
    </g>
    <g id="ytick_9">
     <g id="line2d_14">
      <g>
       <use xlink:href="#me0e844c24f" x="370.274663" y="62.127071" style="stroke: #000000; stroke-width: 0.8"/>
      </g>
     </g>
     <g id="text_15">
      <!-- GO:0010339: external side of cell wall -->
      <g transform="translate(99.487494 113.708011) rotate(-10) scale(0.14 -0.14)">
       <defs>
        <path id="DejaVuSans-77" d="M 269 3500 
L 844 3500 
L 1563 769 
L 2278 3500 
L 2956 3500 
L 3675 769 
L 4391 3500 
L 4966 3500 
L 4050 0 
L 3372 0 
L 2619 2869 
L 1863 0 
L 1184 0 
L 269 3500 
z
" transform="scale(0.015625)"/>
       </defs>
       <use xlink:href="#DejaVuSans-47"/>
       <use xlink:href="#DejaVuSans-4f" x="77.490234"/>
       <use xlink:href="#DejaVuSans-3a" x="154.451172"/>
       <use xlink:href="#DejaVuSans-30" x="188.142578"/>
       <use xlink:href="#DejaVuSans-30" x="251.765625"/>
       <use xlink:href="#DejaVuSans-31" x="315.388672"/>
       <use xlink:href="#DejaVuSans-30" x="379.011719"/>
       <use xlink:href="#DejaVuSans-33" x="442.634766"/>
       <use xlink:href="#DejaVuSans-33" x="506.257812"/>
       <use xlink:href="#DejaVuSans-39" x="569.880859"/>
       <use xlink:href="#DejaVuSans-3a" x="633.503906"/>
       <use xlink:href="#DejaVuSans-20" x="667.195312"/>
       <use xlink:href="#DejaVuSans-65" x="698.982422"/>
       <use xlink:href="#DejaVuSans-78" x="758.755859"/>
       <use xlink:href="#DejaVuSans-74" x="817.935547"/>
       <use xlink:href="#DejaVuSans-65" x="857.144531"/>
       <use xlink:href="#DejaVuSans-72" x="918.667969"/>
       <use xlink:href="#DejaVuSans-6e" x="958.03125"/>
       <use xlink:href="#DejaVuSans-61" x="1021.410156"/>
       <use xlink:href="#DejaVuSans-6c" x="1082.689453"/>
       <use xlink:href="#DejaVuSans-20" x="1110.472656"/>
       <use xlink:href="#DejaVuSans-73" x="1142.259766"/>
       <use xlink:href="#DejaVuSans-69" x="1194.359375"/>
       <use xlink:href="#DejaVuSans-64" x="1222.142578"/>
       <use xlink:href="#DejaVuSans-65" x="1285.619141"/>
       <use xlink:href="#DejaVuSans-20" x="1347.142578"/>
       <use xlink:href="#DejaVuSans-6f" x="1378.929688"/>
       <use xlink:href="#DejaVuSans-66" x="1440.111328"/>
       <use xlink:href="#DejaVuSans-20" x="1475.316406"/>
       <use xlink:href="#DejaVuSans-63" x="1507.103516"/>
       <use xlink:href="#DejaVuSans-65" x="1562.083984"/>
       <use xlink:href="#DejaVuSans-6c" x="1623.607422"/>
       <use xlink:href="#DejaVuSans-6c" x="1651.390625"/>
       <use xlink:href="#DejaVuSans-20" x="1679.173828"/>
       <use xlink:href="#DejaVuSans-77" x="1710.960938"/>
       <use xlink:href="#DejaVuSans-61" x="1792.748047"/>
       <use xlink:href="#DejaVuSans-6c" x="1854.027344"/>
       <use xlink:href="#DejaVuSans-6c" x="1881.810547"/>
      </g>
     </g>
    </g>
    <g id="ytick_10">
     <g id="line2d_15">
      <g>
       <use xlink:href="#me0e844c24f" x="370.274663" y="26.729091" style="stroke: #000000; stroke-width: 0.8"/>
      </g>
     </g>
     <g id="text_16">
      <!-- FYPO:0000155: increased flocculation -->
      <g transform="translate(101.469419 77.960564) rotate(-10) scale(0.14 -0.14)">
       <defs>
        <path id="DejaVuSans-59" d="M -13 4666 
L 666 4666 
L 1959 2747 
L 3244 4666 
L 3922 4666 
L 2272 2222 
L 2272 0 
L 1638 0 
L 1638 2222 
L -13 4666 
z
" transform="scale(0.015625)"/>
        <path id="DejaVuSans-50" d="M 1259 4147 
L 1259 2394 
L 2053 2394 
Q 2494 2394 2734 2622 
Q 2975 2850 2975 3272 
Q 2975 3691 2734 3919 
Q 2494 4147 2053 4147 
L 1259 4147 
z
M 628 4666 
L 2053 4666 
Q 2838 4666 3239 4311 
Q 3641 3956 3641 3272 
Q 3641 2581 3239 2228 
Q 2838 1875 2053 1875 
L 1259 1875 
L 1259 0 
L 628 0 
L 628 4666 
z
" transform="scale(0.015625)"/>
       </defs>
       <use xlink:href="#DejaVuSans-46"/>
       <use xlink:href="#DejaVuSans-59" x="57.519531"/>
       <use xlink:href="#DejaVuSans-50" x="118.603516"/>
       <use xlink:href="#DejaVuSans-4f" x="178.90625"/>
       <use xlink:href="#DejaVuSans-3a" x="255.867188"/>
       <use xlink:href="#DejaVuSans-30" x="289.558594"/>
       <use xlink:href="#DejaVuSans-30" x="353.181641"/>
       <use xlink:href="#DejaVuSans-30" x="416.804688"/>
       <use xlink:href="#DejaVuSans-30" x="480.427734"/>
       <use xlink:href="#DejaVuSans-31" x="544.050781"/>
       <use xlink:href="#DejaVuSans-35" x="607.673828"/>
       <use xlink:href="#DejaVuSans-35" x="671.296875"/>
       <use xlink:href="#DejaVuSans-3a" x="734.919922"/>
       <use xlink:href="#DejaVuSans-20" x="768.611328"/>
       <use xlink:href="#DejaVuSans-69" x="800.398438"/>
       <use xlink:href="#DejaVuSans-6e" x="828.181641"/>
       <use xlink:href="#DejaVuSans-63" x="891.560547"/>
       <use xlink:href="#DejaVuSans-72" x="946.541016"/>
       <use xlink:href="#DejaVuSans-65" x="985.404297"/>
       <use xlink:href="#DejaVuSans-61" x="1046.927734"/>
       <use xlink:href="#DejaVuSans-73" x="1108.207031"/>
       <use xlink:href="#DejaVuSans-65" x="1160.306641"/>
       <use xlink:href="#DejaVuSans-64" x="1221.830078"/>
       <use xlink:href="#DejaVuSans-20" x="1285.306641"/>
       <use xlink:href="#DejaVuSans-66" x="1317.09375"/>
       <use xlink:href="#DejaVuSans-6c" x="1352.298828"/>
       <use xlink:href="#DejaVuSans-6f" x="1380.082031"/>
       <use xlink:href="#DejaVuSans-63" x="1441.263672"/>
       <use xlink:href="#DejaVuSans-63" x="1496.244141"/>
       <use xlink:href="#DejaVuSans-75" x="1551.224609"/>
       <use xlink:href="#DejaVuSans-6c" x="1614.603516"/>
       <use xlink:href="#DejaVuSans-61" x="1642.386719"/>
       <use xlink:href="#DejaVuSans-74" x="1703.666016"/>
       <use xlink:href="#DejaVuSans-69" x="1742.875"/>
       <use xlink:href="#DejaVuSans-6f" x="1770.658203"/>
       <use xlink:href="#DejaVuSans-6e" x="1831.839844"/>
      </g>
     </g>
    </g>
   </g>
   <g id="line2d_16">
    <path d="M 385.68036 345.310909 
L 445.822552 345.310909 
" clip-path="url(#p5e52ff6bb0)" style="fill: none; stroke: #006400; stroke-width: 5; stroke-linecap: square"/>
   </g>
   <g id="line2d_17">
    <path d="M 385.68036 309.912929 
L 693.794303 309.912929 
" clip-path="url(#p5e52ff6bb0)" style="fill: none; stroke: #006400; stroke-opacity: 0.87763; stroke-width: 5; stroke-linecap: square"/>
   </g>
   <g id="line2d_18">
    <path d="M 385.68036 274.514949 
L 646.392158 274.514949 
" clip-path="url(#p5e52ff6bb0)" style="fill: none; stroke: #006400; stroke-opacity: 0.844251; stroke-width: 5; stroke-linecap: square"/>
   </g>
   <g id="line2d_19">
    <path d="M 385.68036 239.11697 
L 646.392158 239.11697 
" clip-path="url(#p5e52ff6bb0)" style="fill: none; stroke: #006400; stroke-opacity: 0.844251; stroke-width: 5; stroke-linecap: square"/>
   </g>
   <g id="line2d_20">
    <path d="M 385.68036 203.71899 
L 386.690747 203.71899 
" clip-path="url(#p5e52ff6bb0)" style="fill: none; stroke: #8b0000; stroke-opacity: 0.668012; stroke-width: 5; stroke-linecap: square"/>
   </g>
   <g id="line2d_21">
    <path d="M 385.68036 168.32101 
L 642.708053 168.32101 
" clip-path="url(#p5e52ff6bb0)" style="fill: none; stroke: #006400; stroke-opacity: 0.65194; stroke-width: 5; stroke-linecap: square"/>
   </g>
   <g id="line2d_22">
    <path d="M 385.68036 132.92303 
L 621.289079 132.92303 
" clip-path="url(#p5e52ff6bb0)" style="fill: none; stroke: #006400; stroke-opacity: 0.631133; stroke-width: 5; stroke-linecap: square"/>
   </g>
   <g id="line2d_23">
    <path d="M 385.68036 97.525051 
L 471.576058 97.525051 
" clip-path="url(#p5e52ff6bb0)" style="fill: none; stroke: #006400; stroke-opacity: 0.620659; stroke-width: 5; stroke-linecap: square"/>
   </g>
   <g id="line2d_24">
    <path d="M 385.68036 62.127071 
L 603.165331 62.127071 
" clip-path="url(#p5e52ff6bb0)" style="fill: none; stroke: #006400; stroke-opacity: 0.618567; stroke-width: 5; stroke-linecap: square"/>
   </g>
   <g id="line2d_25">
    <path d="M 385.68036 26.729091 
L 466.317138 26.729091 
" clip-path="url(#p5e52ff6bb0)" style="fill: none; stroke: #006400; stroke-opacity: 0.607106; stroke-width: 5; stroke-linecap: square"/>
   </g>
   <g id="patch_3">
    <path d="M 370.274663 361.24 
L 370.274663 10.8 
" style="fill: none; stroke: #000000; stroke-width: 0.8; stroke-linejoin: miter; stroke-linecap: square"/>
   </g>
   <g id="patch_4">
    <path d="M 709.2 361.24 
L 709.2 10.8 
" style="fill: none; stroke: #000000; stroke-width: 0.8; stroke-linejoin: miter; stroke-linecap: square"/>
   </g>
   <g id="patch_5">
    <path d="M 370.274663 361.24 
L 709.2 361.24 
" style="fill: none; stroke: #000000; stroke-width: 0.8; stroke-linejoin: miter; stroke-linecap: square"/>
   </g>
   <g id="patch_6">
    <path d="M 370.274663 10.8 
L 709.2 10.8 
" style="fill: none; stroke: #000000; stroke-width: 0.8; stroke-linejoin: miter; stroke-linecap: square"/>
   </g>
   <g id="legend_1">
    <g id="patch_7">
     <path d="M 544.483125 355.24 
L 700.8 355.24 
Q 703.2 355.24 703.2 352.84 
L 703.2 173.875 
Q 703.2 171.475 700.8 171.475 
L 544.483125 171.475 
Q 542.083125 171.475 542.083125 173.875 
L 542.083125 352.84 
Q 542.083125 355.24 544.483125 355.24 
z
" style="fill: #ffffff; opacity: 0.8; stroke: #cccccc; stroke-linejoin: miter"/>
    </g>
    <g id="patch_8">
     <path d="M 546.883125 186.625 
L 570.883125 186.625 
L 570.883125 176.275 
L 546.883125 176.275 
z
" style="fill: #006400; opacity: 0.607106; stroke: #006400; stroke-linejoin: miter"/>
    </g>
    <g id="text_17">
     <!-- P= 1.51e-05 -->
     <g transform="translate(580.483125 185.575) scale(0.12 -0.12)">
      <defs>
       <path id="DejaVuSans-3d" d="M 678 2906 
L 4684 2906 
L 4684 2381 
L 678 2381 
L 678 2906 
z
M 678 1631 
L 4684 1631 
L 4684 1100 
L 678 1100 
L 678 1631 
z
" transform="scale(0.015625)"/>
       <path id="DejaVuSans-2e" d="M 684 794 
L 1344 794 
L 1344 0 
L 684 0 
L 684 794 
z
" transform="scale(0.015625)"/>
       <path id="DejaVuSans-2d" d="M 313 2009 
L 1997 2009 
L 1997 1497 
L 313 1497 
L 313 2009 
z
" transform="scale(0.015625)"/>
      </defs>
      <use xlink:href="#DejaVuSans-50"/>
      <use xlink:href="#DejaVuSans-3d" x="60.302734"/>
      <use xlink:href="#DejaVuSans-20" x="144.091797"/>
      <use xlink:href="#DejaVuSans-31" x="175.878906"/>
      <use xlink:href="#DejaVuSans-2e" x="239.501953"/>
      <use xlink:href="#DejaVuSans-35" x="271.289062"/>
      <use xlink:href="#DejaVuSans-31" x="334.912109"/>
      <use xlink:href="#DejaVuSans-65" x="398.535156"/>
      <use xlink:href="#DejaVuSans-2d" x="460.058594"/>
      <use xlink:href="#DejaVuSans-30" x="496.142578"/>
      <use xlink:href="#DejaVuSans-35" x="559.765625"/>
     </g>
    </g>
    <g id="patch_9">
     <path d="M 546.883125 209.820625 
L 570.883125 209.820625 
L 570.883125 199.470625 
L 546.883125 199.470625 
z
" style="fill: #006400; opacity: 0.803553; stroke: #006400; stroke-linejoin: miter"/>
    </g>
    <g id="text_18">
     <!-- P= 4.17e-07 -->
     <g transform="translate(580.483125 208.770625) scale(0.12 -0.12)">
      <use xlink:href="#DejaVuSans-50"/>
      <use xlink:href="#DejaVuSans-3d" x="60.302734"/>
      <use xlink:href="#DejaVuSans-20" x="144.091797"/>
      <use xlink:href="#DejaVuSans-34" x="175.878906"/>
      <use xlink:href="#DejaVuSans-2e" x="239.501953"/>
      <use xlink:href="#DejaVuSans-31" x="271.289062"/>
      <use xlink:href="#DejaVuSans-37" x="334.912109"/>
      <use xlink:href="#DejaVuSans-65" x="398.535156"/>
      <use xlink:href="#DejaVuSans-2d" x="460.058594"/>
      <use xlink:href="#DejaVuSans-30" x="496.142578"/>
      <use xlink:href="#DejaVuSans-37" x="559.765625"/>
     </g>
    </g>
    <g id="patch_10">
     <path d="M 546.883125 233.01625 
L 570.883125 233.01625 
L 570.883125 222.66625 
L 546.883125 222.66625 
z
" style="fill: #006400; stroke: #006400; stroke-linejoin: miter"/>
    </g>
    <g id="text_19">
     <!-- P= 1.15e-08 -->
     <g transform="translate(580.483125 231.96625) scale(0.12 -0.12)">
      <use xlink:href="#DejaVuSans-50"/>
      <use xlink:href="#DejaVuSans-3d" x="60.302734"/>
      <use xlink:href="#DejaVuSans-20" x="144.091797"/>
      <use xlink:href="#DejaVuSans-31" x="175.878906"/>
      <use xlink:href="#DejaVuSans-2e" x="239.501953"/>
      <use xlink:href="#DejaVuSans-31" x="271.289062"/>
      <use xlink:href="#DejaVuSans-35" x="334.912109"/>
      <use xlink:href="#DejaVuSans-65" x="398.535156"/>
      <use xlink:href="#DejaVuSans-2d" x="460.058594"/>
      <use xlink:href="#DejaVuSans-30" x="496.142578"/>
      <use xlink:href="#DejaVuSans-38" x="559.765625"/>
     </g>
    </g>
    <g id="PathCollection_5">
     <defs>
      <path id="m21ffa6e523" d="M 0 5 
C 1.326016 5 2.597899 4.473168 3.535534 3.535534 
C 4.473168 2.597899 5 1.326016 5 0 
C 5 -1.326016 4.473168 -2.597899 3.535534 -3.535534 
C 2.597899 -4.473168 1.326016 -5 0 -5 
C -1.326016 -5 -2.597899 -4.473168 -3.535534 -3.535534 
C -4.473168 -2.597899 -5 -1.326016 -5 0 
C -5 1.326016 -4.473168 2.597899 -3.535534 3.535534 
C -2.597899 4.473168 -1.326016 5 0 5 
z
" style="stroke: #006400"/>
     </defs>
     <g>
      <use xlink:href="#m21ffa6e523" x="558.883125" y="251.280625" style="fill: #006400; stroke: #006400"/>
     </g>
    </g>
    <g id="text_20">
     <!-- Genes set size: 100 -->
     <g transform="translate(580.483125 255.161875) scale(0.12 -0.12)">
      <defs>
       <path id="DejaVuSans-7a" d="M 353 3500 
L 3084 3500 
L 3084 2975 
L 922 459 
L 3084 459 
L 3084 0 
L 275 0 
L 275 525 
L 2438 3041 
L 353 3041 
L 353 3500 
z
" transform="scale(0.015625)"/>
      </defs>
      <use xlink:href="#DejaVuSans-47"/>
      <use xlink:href="#DejaVuSans-65" x="77.490234"/>
      <use xlink:href="#DejaVuSans-6e" x="139.013672"/>
      <use xlink:href="#DejaVuSans-65" x="202.392578"/>
      <use xlink:href="#DejaVuSans-73" x="263.916016"/>
      <use xlink:href="#DejaVuSans-20" x="316.015625"/>
      <use xlink:href="#DejaVuSans-73" x="347.802734"/>
      <use xlink:href="#DejaVuSans-65" x="399.902344"/>
      <use xlink:href="#DejaVuSans-74" x="461.425781"/>
      <use xlink:href="#DejaVuSans-20" x="500.634766"/>
      <use xlink:href="#DejaVuSans-73" x="532.421875"/>
      <use xlink:href="#DejaVuSans-69" x="584.521484"/>
      <use xlink:href="#DejaVuSans-7a" x="612.304688"/>
      <use xlink:href="#DejaVuSans-65" x="664.794922"/>
      <use xlink:href="#DejaVuSans-3a" x="726.318359"/>
      <use xlink:href="#DejaVuSans-20" x="760.009766"/>
      <use xlink:href="#DejaVuSans-31" x="791.796875"/>
      <use xlink:href="#DejaVuSans-30" x="855.419922"/>
      <use xlink:href="#DejaVuSans-30" x="919.042969"/>
     </g>
    </g>
    <g id="PathCollection_6">
     <defs>
      <path id="m4a1e8c0599" d="M 0 7.071068 
C 1.875269 7.071068 3.673985 6.326016 5 5 
C 6.326016 3.673985 7.071068 1.875269 7.071068 0 
C 7.071068 -1.875269 6.326016 -3.673985 5 -5 
C 3.673985 -6.326016 1.875269 -7.071068 0 -7.071068 
C -1.875269 -7.071068 -3.673985 -6.326016 -5 -5 
C -6.326016 -3.673985 -7.071068 -1.875269 -7.071068 0 
C -7.071068 1.875269 -6.326016 3.673985 -5 5 
C -3.673985 6.326016 -1.875269 7.071068 0 7.071068 
z
" style="stroke: #006400"/>
     </defs>
     <g>
      <use xlink:href="#m4a1e8c0599" x="558.883125" y="274.47625" style="fill: #006400; stroke: #006400"/>
     </g>
    </g>
    <g id="text_21">
     <!-- Genes set size: 200 -->
     <g transform="translate(580.483125 278.3575) scale(0.12 -0.12)">
      <use xlink:href="#DejaVuSans-47"/>
      <use xlink:href="#DejaVuSans-65" x="77.490234"/>
      <use xlink:href="#DejaVuSans-6e" x="139.013672"/>
      <use xlink:href="#DejaVuSans-65" x="202.392578"/>
      <use xlink:href="#DejaVuSans-73" x="263.916016"/>
      <use xlink:href="#DejaVuSans-20" x="316.015625"/>
      <use xlink:href="#DejaVuSans-73" x="347.802734"/>
      <use xlink:href="#DejaVuSans-65" x="399.902344"/>
      <use xlink:href="#DejaVuSans-74" x="461.425781"/>
      <use xlink:href="#DejaVuSans-20" x="500.634766"/>
      <use xlink:href="#DejaVuSans-73" x="532.421875"/>
      <use xlink:href="#DejaVuSans-69" x="584.521484"/>
      <use xlink:href="#DejaVuSans-7a" x="612.304688"/>
      <use xlink:href="#DejaVuSans-65" x="664.794922"/>
      <use xlink:href="#DejaVuSans-3a" x="726.318359"/>
      <use xlink:href="#DejaVuSans-20" x="760.009766"/>
      <use xlink:href="#DejaVuSans-32" x="791.796875"/>
      <use xlink:href="#DejaVuSans-30" x="855.419922"/>
      <use xlink:href="#DejaVuSans-30" x="919.042969"/>
     </g>
    </g>
    <g id="PathCollection_7">
     <defs>
      <path id="mbef29b8f65" d="M 0 11.18034 
C 2.965061 11.18034 5.80908 10.002309 7.905694 7.905694 
C 10.002309 5.80908 11.18034 2.965061 11.18034 0 
C 11.18034 -2.965061 10.002309 -5.80908 7.905694 -7.905694 
C 5.80908 -10.002309 2.965061 -11.18034 0 -11.18034 
C -2.965061 -11.18034 -5.80908 -10.002309 -7.905694 -7.905694 
C -10.002309 -5.80908 -11.18034 -2.965061 -11.18034 0 
C -11.18034 2.965061 -10.002309 5.80908 -7.905694 7.905694 
C -5.80908 10.002309 -2.965061 11.18034 0 11.18034 
z
" style="stroke: #006400"/>
     </defs>
     <g>
      <use xlink:href="#mbef29b8f65" x="558.883125" y="297.671875" style="fill: #006400; stroke: #006400"/>
     </g>
    </g>
    <g id="text_22">
     <!-- Genes set size: 500 -->
     <g transform="translate(580.483125 301.553125) scale(0.12 -0.12)">
      <use xlink:href="#DejaVuSans-47"/>
      <use xlink:href="#DejaVuSans-65" x="77.490234"/>
      <use xlink:href="#DejaVuSans-6e" x="139.013672"/>
      <use xlink:href="#DejaVuSans-65" x="202.392578"/>
      <use xlink:href="#DejaVuSans-73" x="263.916016"/>
      <use xlink:href="#DejaVuSans-20" x="316.015625"/>
      <use xlink:href="#DejaVuSans-73" x="347.802734"/>
      <use xlink:href="#DejaVuSans-65" x="399.902344"/>
      <use xlink:href="#DejaVuSans-74" x="461.425781"/>
      <use xlink:href="#DejaVuSans-20" x="500.634766"/>
      <use xlink:href="#DejaVuSans-73" x="532.421875"/>
      <use xlink:href="#DejaVuSans-69" x="584.521484"/>
      <use xlink:href="#DejaVuSans-7a" x="612.304688"/>
      <use xlink:href="#DejaVuSans-65" x="664.794922"/>
      <use xlink:href="#DejaVuSans-3a" x="726.318359"/>
      <use xlink:href="#DejaVuSans-20" x="760.009766"/>
      <use xlink:href="#DejaVuSans-35" x="791.796875"/>
      <use xlink:href="#DejaVuSans-30" x="855.419922"/>
      <use xlink:href="#DejaVuSans-30" x="919.042969"/>
     </g>
    </g>
    <g id="line2d_26">
     <defs>
      <path id="m4254b7d7db" d="M 0 5 
C 1.326016 5 2.597899 4.473168 3.535534 3.535534 
C 4.473168 2.597899 5 1.326016 5 0 
C 5 -1.326016 4.473168 -2.597899 3.535534 -3.535534 
C 2.597899 -4.473168 1.326016 -5 0 -5 
C -1.326016 -5 -2.597899 -4.473168 -3.535534 -3.535534 
C -4.473168 -2.597899 -5 -1.326016 -5 0 
C -5 1.326016 -4.473168 2.597899 -3.535534 3.535534 
C -2.597899 4.473168 -1.326016 5 0 5 
z
" style="stroke: #0000ff"/>
     </defs>
     <g>
      <use xlink:href="#m4254b7d7db" x="558.883125" y="320.09875" style="fill: #0000ff; stroke: #0000ff"/>
     </g>
    </g>
    <g id="text_23">
     <!-- Ribosome -->
     <g transform="translate(580.483125 324.74875) scale(0.12 -0.12)">
      <use xlink:href="#DejaVuSans-52"/>
      <use xlink:href="#DejaVuSans-69" x="69.482422"/>
      <use xlink:href="#DejaVuSans-62" x="97.265625"/>
      <use xlink:href="#DejaVuSans-6f" x="160.742188"/>
      <use xlink:href="#DejaVuSans-73" x="221.923828"/>
      <use xlink:href="#DejaVuSans-6f" x="274.023438"/>
      <use xlink:href="#DejaVuSans-6d" x="335.205078"/>
      <use xlink:href="#DejaVuSans-65" x="432.617188"/>
     </g>
    </g>
    <g id="line2d_27">
     <defs>
      <path id="m4fa7903b2d" d="M 0 5 
C 1.326016 5 2.597899 4.473168 3.535534 3.535534 
C 4.473168 2.597899 5 1.326016 5 0 
C 5 -1.326016 4.473168 -2.597899 3.535534 -3.535534 
C 2.597899 -4.473168 1.326016 -5 0 -5 
C -1.326016 -5 -2.597899 -4.473168 -3.535534 -3.535534 
C -4.473168 -2.597899 -5 -1.326016 -5 0 
C -5 1.326016 -4.473168 2.597899 -3.535534 3.535534 
C -2.597899 4.473168 -1.326016 5 0 5 
z
" style="stroke: #ffa500"/>
     </defs>
     <g>
      <use xlink:href="#m4fa7903b2d" x="558.883125" y="343.294375" style="fill: #ffa500; stroke: #ffa500"/>
     </g>
    </g>
    <g id="text_24">
     <!-- Decreased growth -->
     <g transform="translate(580.483125 347.944375) scale(0.12 -0.12)">
      <use xlink:href="#DejaVuSans-44"/>
      <use xlink:href="#DejaVuSans-65" x="77.001953"/>
      <use xlink:href="#DejaVuSans-63" x="138.525391"/>
      <use xlink:href="#DejaVuSans-72" x="193.505859"/>
      <use xlink:href="#DejaVuSans-65" x="232.369141"/>
      <use xlink:href="#DejaVuSans-61" x="293.892578"/>
      <use xlink:href="#DejaVuSans-73" x="355.171875"/>
      <use xlink:href="#DejaVuSans-65" x="407.271484"/>
      <use xlink:href="#DejaVuSans-64" x="468.794922"/>
      <use xlink:href="#DejaVuSans-20" x="532.271484"/>
      <use xlink:href="#DejaVuSans-67" x="564.058594"/>
      <use xlink:href="#DejaVuSans-72" x="627.535156"/>
      <use xlink:href="#DejaVuSans-6f" x="666.398438"/>
      <use xlink:href="#DejaVuSans-77" x="727.580078"/>
      <use xlink:href="#DejaVuSans-74" x="809.367188"/>
      <use xlink:href="#DejaVuSans-68" x="848.576172"/>
     </g>
    </g>
   </g>
  </g>
 </g>
 <defs>
  <clipPath id="p5e52ff6bb0">
   <rect x="370.274663" y="10.8" width="338.925337" height="350.44"/>
  </clipPath>
 </defs>
</svg>
