<?xml version="1.0" encoding="utf-8" standalone="no"?>
<!DOCTYPE svg PUBLIC "-//W3C//DTD SVG 1.1//EN"
  "http://www.w3.org/Graphics/SVG/1.1/DTD/svg11.dtd">
<svg xmlns:xlink="http://www.w3.org/1999/xlink" width="440.283527pt" height="337.59684pt" viewBox="0 0 440.283527 337.59684" xmlns="http://www.w3.org/2000/svg" version="1.1">
 <metadata>
  <rdf:RDF xmlns:dc="http://purl.org/dc/elements/1.1/" xmlns:cc="http://creativecommons.org/ns#" xmlns:rdf="http://www.w3.org/1999/02/22-rdf-syntax-ns#">
   <cc:Work>
    <dc:type rdf:resource="http://purl.org/dc/dcmitype/StillImage"/>
    <dc:date>2023-11-05T10:07:22.622102</dc:date>
    <dc:format>image/svg+xml</dc:format>
    <dc:creator>
     <cc:Agent>
      <dc:title>Matplotlib v3.8.0, https://matplotlib.org/</dc:title>
     </cc:Agent>
    </dc:creator>
   </cc:Work>
  </rdf:RDF>
 </metadata>
 <defs>
  <style type="text/css">*{stroke-linejoin: round; stroke-linecap: butt}</style>
 </defs>
 <g id="figure_1">
  <g id="patch_1">
   <path d="M 0 337.59684 
L 440.283527 337.59684 
L 440.283527 -0 
L 0 -0 
z
" style="fill: #ffffff"/>
  </g>
  <g id="axes_1">
   <g id="patch_2">
    <path d="M 197.142545 66.234332 
C 178.203124 57.870479 156.823931 56.798649 137.14295 63.226297 
C 117.461968 69.653945 100.836535 83.137775 90.484534 101.067966 
C 80.132533 118.998157 76.767911 140.13812 81.041895 160.396174 
C 85.31588 180.654227 96.933708 198.633237 113.646727 210.85333 
C 112.06156 196.197844 114.362559 181.380093 120.317506 167.895486 
C 126.272454 154.410879 135.674053 142.72883 147.573493 134.028292 
C 149.15866 119.372806 154.574812 105.389758 163.27535 93.490318 
C 171.975888 81.590878 183.657938 72.18928 197.142545 66.234332 
" clip-path="url(#p21f108fe5f)" style="fill: #ff0000; opacity: 0.4"/>
   </g>
   <g id="patch_3">
    <path d="M 197.142545 66.234332 
C 210.627151 72.18928 222.309201 81.590878 231.009739 93.490318 
C 239.710277 105.389758 245.126429 119.372806 246.711596 134.028292 
C 258.611036 142.72883 268.012635 154.410879 273.967583 167.895486 
C 279.922531 181.380093 282.223529 196.197844 280.638362 210.85333 
C 297.351381 198.633237 308.96921 180.654227 313.243194 160.396174 
C 317.517179 140.13812 314.152556 118.998157 303.800555 101.067966 
C 293.448554 83.137775 276.823121 69.653945 257.142139 63.226297 
C 237.461158 56.798649 216.081965 57.870479 197.142545 66.234332 
" clip-path="url(#p21f108fe5f)" style="fill: #008000; opacity: 0.4"/>
   </g>
   <g id="patch_4">
    <path d="M 197.142545 66.234332 
C 183.657938 72.18928 171.975888 81.590878 163.27535 93.490318 
C 154.574812 105.389758 149.15866 119.372806 147.573493 134.028292 
C 161.957938 123.510787 179.323168 117.839445 197.142545 117.839445 
C 214.961921 117.839445 232.327151 123.510787 246.711596 134.028292 
C 245.126429 119.372806 239.710277 105.389758 231.009739 93.490318 
C 222.309201 81.590878 210.627151 72.18928 197.142545 66.234332 
" clip-path="url(#p21f108fe5f)" style="fill: #b25900; opacity: 0.4"/>
   </g>
   <g id="patch_5">
    <path d="M 113.646727 210.85333 
C 115.873128 231.437275 125.634493 250.488115 141.04149 264.318521 
C 156.448487 278.148927 176.438543 285.805059 197.142545 285.805059 
C 217.846546 285.805059 237.836602 278.148927 253.243599 264.318521 
C 268.650596 250.488115 278.411961 231.437275 280.638362 210.85333 
C 268.738922 219.553868 254.755874 224.97002 240.100388 226.555187 
C 225.444902 228.140355 210.627151 225.839356 197.142545 219.884408 
C 183.657938 225.839356 168.840187 228.140355 154.184701 226.555187 
C 139.529215 224.97002 125.546167 219.553868 113.646727 210.85333 
" clip-path="url(#p21f108fe5f)" style="fill: #0000ff; opacity: 0.4"/>
   </g>
   <g id="patch_6">
    <path d="M 113.646727 210.85333 
C 125.546167 219.553868 139.529215 224.97002 154.184701 226.555187 
C 168.840187 228.140355 183.657938 225.839356 197.142545 219.884408 
C 180.841896 212.685865 167.247754 200.482806 158.338066 185.050773 
C 149.428378 169.618741 145.657289 151.744339 147.573493 134.028292 
C 135.674053 142.72883 126.272454 154.410879 120.317506 167.895486 
C 114.362559 181.380093 112.06156 196.197844 113.646727 210.85333 
" clip-path="url(#p21f108fe5f)" style="fill: #b200b2; opacity: 0.4"/>
   </g>
   <g id="patch_7">
    <path d="M 246.711596 134.028292 
C 248.6278 151.744339 244.856711 169.618741 235.947023 185.050773 
C 227.037335 200.482806 213.443193 212.685865 197.142545 219.884408 
C 210.627151 225.839356 225.444902 228.140355 240.100388 226.555187 
C 254.755874 224.97002 268.738922 219.553868 280.638362 210.85333 
C 282.223529 196.197844 279.922531 181.380093 273.967583 167.895486 
C 268.012635 154.410879 258.611036 142.72883 246.711596 134.028292 
" clip-path="url(#p21f108fe5f)" style="fill: #0059b2; opacity: 0.4"/>
   </g>
   <g id="patch_8">
    <path d="M 147.573493 134.028292 
C 145.657289 151.744339 149.428378 169.618741 158.338066 185.050773 
C 167.247754 200.482806 180.841896 212.685865 197.142545 219.884408 
C 213.443193 212.685865 227.037335 200.482806 235.947023 185.050773 
C 244.856711 169.618741 248.6278 151.744339 246.711596 134.028292 
C 232.327151 123.510787 214.961921 117.839445 197.142545 117.839445 
C 179.323168 117.839445 161.957938 123.510787 147.573493 134.028292 
" clip-path="url(#p21f108fe5f)" style="fill: #663366; opacity: 0.4"/>
   </g>
   <g id="patch_9">
    <path d="M 163.215779 227.042177 
C 185.488279 227.042177 206.851555 218.193219 222.600591 202.444182 
C 238.349628 186.695146 247.198586 165.331871 247.198586 143.05937 
C 247.198586 120.786869 238.349628 99.423594 222.600591 83.674557 
C 206.851555 67.925521 185.488279 59.076562 163.215779 59.076562 
C 140.943278 59.076562 119.580002 67.925521 103.830966 83.674557 
C 88.08193 99.423594 79.232971 120.786869 79.232971 143.05937 
C 79.232971 165.331871 88.08193 186.695146 103.830966 202.444182 
C 119.580002 218.193219 140.943278 227.042177 163.215779 227.042177 
L 163.215779 227.042177 
z
" clip-path="url(#p21f108fe5f)" style="fill: none; stroke-dasharray: 7.4,3.2; stroke-dashoffset: 0; stroke: #000000; stroke-width: 2; stroke-linejoin: miter"/>
   </g>
   <g id="patch_10">
    <path d="M 231.06931 227.042177 
C 253.341811 227.042177 274.705087 218.193219 290.454123 202.444182 
C 306.203159 186.695146 315.052118 165.331871 315.052118 143.05937 
C 315.052118 120.786869 306.203159 99.423594 290.454123 83.674557 
C 274.705087 67.925521 253.341811 59.076562 231.06931 59.076562 
C 208.79681 59.076562 187.433534 67.925521 171.684498 83.674557 
C 155.935462 99.423594 147.086503 120.786869 147.086503 143.05937 
C 147.086503 165.331871 155.935462 186.695146 171.684498 202.444182 
C 187.433534 218.193219 208.79681 227.042177 231.06931 227.042177 
L 231.06931 227.042177 
z
" clip-path="url(#p21f108fe5f)" style="fill: none; stroke-dasharray: 7.4,3.2; stroke-dashoffset: 0; stroke: #000000; stroke-width: 2; stroke-linejoin: miter"/>
   </g>
   <g id="patch_11">
    <path d="M 197.142545 285.805059 
C 219.415045 285.805059 240.778321 276.956101 256.527357 261.207065 
C 272.276393 245.458028 281.125352 224.094753 281.125352 201.822252 
C 281.125352 179.549751 272.276393 158.186476 256.527357 142.43744 
C 240.778321 126.688403 219.415045 117.839445 197.142545 117.839445 
C 174.870044 117.839445 153.506768 126.688403 137.757732 142.43744 
C 122.008696 158.186476 113.159737 179.549751 113.159737 201.822252 
C 113.159737 224.094753 122.008696 245.458028 137.757732 261.207065 
C 153.506768 276.956101 174.870044 285.805059 197.142545 285.805059 
L 197.142545 285.805059 
z
" clip-path="url(#p21f108fe5f)" style="fill: none; stroke-dasharray: 7.4,3.2; stroke-dashoffset: 0; stroke: #000000; stroke-width: 2; stroke-linejoin: miter"/>
   </g>
   <g id="line2d_1">
    <path d="M 197.142545 142.955246 
L 441.283527 81.92 
" clip-path="url(#p21f108fe5f)" style="fill: none; stroke: #000000; stroke-width: 1.5; stroke-linecap: square"/>
   </g>
   <g id="line2d_2">
    <path d="M 197.142545 142.955246 
L 441.283527 222.301065 
" clip-path="url(#p21f108fe5f)" style="fill: none; stroke: #000000; stroke-width: 1.5; stroke-linecap: square"/>
   </g>
   <g id="text_1">
    <!-- 3 -->
    <g transform="translate(105.773209 119.1139) scale(0.22 -0.22)">
     <defs>
      <path id="ArialMT-33" d="M 269 1209 
L 831 1284 
Q 928 806 1161 595 
Q 1394 384 1728 384 
Q 2125 384 2398 659 
Q 2672 934 2672 1341 
Q 2672 1728 2419 1979 
Q 2166 2231 1775 2231 
Q 1616 2231 1378 2169 
L 1441 2663 
Q 1497 2656 1531 2656 
Q 1891 2656 2178 2843 
Q 2466 3031 2466 3422 
Q 2466 3731 2256 3934 
Q 2047 4138 1716 4138 
Q 1388 4138 1169 3931 
Q 950 3725 888 3313 
L 325 3413 
Q 428 3978 793 4289 
Q 1159 4600 1703 4600 
Q 2078 4600 2393 4439 
Q 2709 4278 2876 4000 
Q 3044 3722 3044 3409 
Q 3044 3113 2884 2869 
Q 2725 2625 2413 2481 
Q 2819 2388 3044 2092 
Q 3269 1797 3269 1353 
Q 3269 753 2831 336 
Q 2394 -81 1725 -81 
Q 1122 -81 723 278 
Q 325 638 269 1209 
z
" transform="scale(0.015625)"/>
     </defs>
     <use xlink:href="#ArialMT-33"/>
    </g>
   </g>
   <g id="text_2">
    <!-- 404 -->
    <g transform="translate(264.043755 119.1139) scale(0.22 -0.22)">
     <defs>
      <path id="ArialMT-34" d="M 2069 0 
L 2069 1097 
L 81 1097 
L 81 1613 
L 2172 4581 
L 2631 4581 
L 2631 1613 
L 3250 1613 
L 3250 1097 
L 2631 1097 
L 2631 0 
L 2069 0 
z
M 2069 1613 
L 2069 3678 
L 634 1613 
L 2069 1613 
z
" transform="scale(0.015625)"/>
      <path id="ArialMT-30" d="M 266 2259 
Q 266 3072 433 3567 
Q 600 4063 929 4331 
Q 1259 4600 1759 4600 
Q 2128 4600 2406 4451 
Q 2684 4303 2865 4023 
Q 3047 3744 3150 3342 
Q 3253 2941 3253 2259 
Q 3253 1453 3087 958 
Q 2922 463 2592 192 
Q 2263 -78 1759 -78 
Q 1097 -78 719 397 
Q 266 969 266 2259 
z
M 844 2259 
Q 844 1131 1108 757 
Q 1372 384 1759 384 
Q 2147 384 2411 759 
Q 2675 1134 2675 2259 
Q 2675 3391 2411 3762 
Q 2147 4134 1753 4134 
Q 1366 4134 1134 3806 
Q 844 3388 844 2259 
z
" transform="scale(0.015625)"/>
     </defs>
     <use xlink:href="#ArialMT-34"/>
     <use xlink:href="#ArialMT-30" x="55.615234"/>
     <use xlink:href="#ArialMT-34" x="111.230469"/>
    </g>
   </g>
   <g id="text_3">
    <!-- 3 -->
    <g transform="translate(191.025513 108.335996) scale(0.22 -0.22)">
     <use xlink:href="#ArialMT-33"/>
    </g>
   </g>
   <g id="text_4">
    <!-- 122 -->
    <g transform="translate(178.791451 266.775222) scale(0.22 -0.22)">
     <defs>
      <path id="ArialMT-31" d="M 2384 0 
L 1822 0 
L 1822 3584 
Q 1619 3391 1289 3197 
Q 959 3003 697 2906 
L 697 3450 
Q 1169 3672 1522 3987 
Q 1875 4303 2022 4600 
L 2384 4600 
L 2384 0 
z
" transform="scale(0.015625)"/>
      <path id="ArialMT-32" d="M 3222 541 
L 3222 0 
L 194 0 
Q 188 203 259 391 
Q 375 700 629 1000 
Q 884 1300 1366 1694 
Q 2113 2306 2375 2664 
Q 2638 3022 2638 3341 
Q 2638 3675 2398 3904 
Q 2159 4134 1775 4134 
Q 1369 4134 1125 3890 
Q 881 3647 878 3216 
L 300 3275 
Q 359 3922 746 4261 
Q 1134 4600 1788 4600 
Q 2447 4600 2831 4234 
Q 3216 3869 3216 3328 
Q 3216 3053 3103 2787 
Q 2991 2522 2730 2228 
Q 2469 1934 1863 1422 
Q 1356 997 1212 845 
Q 1069 694 975 541 
L 3222 541 
z
" transform="scale(0.015625)"/>
     </defs>
     <use xlink:href="#ArialMT-31"/>
     <use xlink:href="#ArialMT-32" x="55.615234"/>
     <use xlink:href="#ArialMT-32" x="111.230469"/>
    </g>
   </g>
   <g id="text_5">
    <!-- 4 -->
    <g transform="translate(139.065422 198.333514) scale(0.22 -0.22)">
     <use xlink:href="#ArialMT-34"/>
    </g>
   </g>
   <g id="text_6">
    <!-- 106 -->
    <g transform="translate(230.751542 198.333514) scale(0.22 -0.22)">
     <defs>
      <path id="ArialMT-36" d="M 3184 3459 
L 2625 3416 
Q 2550 3747 2413 3897 
Q 2184 4138 1850 4138 
Q 1581 4138 1378 3988 
Q 1113 3794 959 3422 
Q 806 3050 800 2363 
Q 1003 2672 1297 2822 
Q 1591 2972 1913 2972 
Q 2475 2972 2870 2558 
Q 3266 2144 3266 1488 
Q 3266 1056 3080 686 
Q 2894 316 2569 119 
Q 2244 -78 1831 -78 
Q 1128 -78 684 439 
Q 241 956 241 2144 
Q 241 3472 731 4075 
Q 1159 4600 1884 4600 
Q 2425 4600 2770 4297 
Q 3116 3994 3184 3459 
z
M 888 1484 
Q 888 1194 1011 928 
Q 1134 663 1356 523 
Q 1578 384 1822 384 
Q 2178 384 2434 671 
Q 2691 959 2691 1453 
Q 2691 1928 2437 2201 
Q 2184 2475 1800 2475 
Q 1419 2475 1153 2201 
Q 888 1928 888 1484 
z
" transform="scale(0.015625)"/>
     </defs>
     <use xlink:href="#ArialMT-31"/>
     <use xlink:href="#ArialMT-30" x="55.615234"/>
     <use xlink:href="#ArialMT-36" x="111.230469"/>
    </g>
   </g>
   <g id="text_7">
    <!-- 5 -->
    <g transform="translate(191.025513 168.334341) scale(0.22 -0.22)">
     <defs>
      <path id="ArialMT-35" d="M 266 1200 
L 856 1250 
Q 922 819 1161 601 
Q 1400 384 1738 384 
Q 2144 384 2425 690 
Q 2706 997 2706 1503 
Q 2706 1984 2436 2262 
Q 2166 2541 1728 2541 
Q 1456 2541 1237 2417 
Q 1019 2294 894 2097 
L 366 2166 
L 809 4519 
L 3088 4519 
L 3088 3981 
L 1259 3981 
L 1013 2750 
Q 1425 3038 1878 3038 
Q 2478 3038 2890 2622 
Q 3303 2206 3303 1553 
Q 3303 931 2941 478 
Q 2500 -78 1738 -78 
Q 1113 -78 717 272 
Q 322 622 266 1200 
z
" transform="scale(0.015625)"/>
     </defs>
     <use xlink:href="#ArialMT-35"/>
    </g>
   </g>
   <g id="text_8">
    <!-- CKM mutants  -->
    <g transform="translate(7.2 40.038187) scale(0.18 -0.18)">
     <defs>
      <path id="ArialMT-43" d="M 3763 1606 
L 4369 1453 
Q 4178 706 3683 314 
Q 3188 -78 2472 -78 
Q 1731 -78 1267 223 
Q 803 525 561 1097 
Q 319 1669 319 2325 
Q 319 3041 592 3573 
Q 866 4106 1370 4382 
Q 1875 4659 2481 4659 
Q 3169 4659 3637 4309 
Q 4106 3959 4291 3325 
L 3694 3184 
Q 3534 3684 3231 3912 
Q 2928 4141 2469 4141 
Q 1941 4141 1586 3887 
Q 1231 3634 1087 3207 
Q 944 2781 944 2328 
Q 944 1744 1114 1308 
Q 1284 872 1643 656 
Q 2003 441 2422 441 
Q 2931 441 3284 734 
Q 3638 1028 3763 1606 
z
" transform="scale(0.015625)"/>
      <path id="ArialMT-4b" d="M 469 0 
L 469 4581 
L 1075 4581 
L 1075 2309 
L 3350 4581 
L 4172 4581 
L 2250 2725 
L 4256 0 
L 3456 0 
L 1825 2319 
L 1075 1588 
L 1075 0 
L 469 0 
z
" transform="scale(0.015625)"/>
      <path id="ArialMT-4d" d="M 475 0 
L 475 4581 
L 1388 4581 
L 2472 1338 
Q 2622 884 2691 659 
Q 2769 909 2934 1394 
L 4031 4581 
L 4847 4581 
L 4847 0 
L 4263 0 
L 4263 3834 
L 2931 0 
L 2384 0 
L 1059 3900 
L 1059 0 
L 475 0 
z
" transform="scale(0.015625)"/>
      <path id="ArialMT-20" transform="scale(0.015625)"/>
      <path id="ArialMT-6d" d="M 422 0 
L 422 3319 
L 925 3319 
L 925 2853 
Q 1081 3097 1340 3245 
Q 1600 3394 1931 3394 
Q 2300 3394 2536 3241 
Q 2772 3088 2869 2813 
Q 3263 3394 3894 3394 
Q 4388 3394 4653 3120 
Q 4919 2847 4919 2278 
L 4919 0 
L 4359 0 
L 4359 2091 
Q 4359 2428 4304 2576 
Q 4250 2725 4106 2815 
Q 3963 2906 3769 2906 
Q 3419 2906 3187 2673 
Q 2956 2441 2956 1928 
L 2956 0 
L 2394 0 
L 2394 2156 
Q 2394 2531 2256 2718 
Q 2119 2906 1806 2906 
Q 1569 2906 1367 2781 
Q 1166 2656 1075 2415 
Q 984 2175 984 1722 
L 984 0 
L 422 0 
z
" transform="scale(0.015625)"/>
      <path id="ArialMT-75" d="M 2597 0 
L 2597 488 
Q 2209 -75 1544 -75 
Q 1250 -75 995 37 
Q 741 150 617 320 
Q 494 491 444 738 
Q 409 903 409 1263 
L 409 3319 
L 972 3319 
L 972 1478 
Q 972 1038 1006 884 
Q 1059 663 1231 536 
Q 1403 409 1656 409 
Q 1909 409 2131 539 
Q 2353 669 2445 892 
Q 2538 1116 2538 1541 
L 2538 3319 
L 3100 3319 
L 3100 0 
L 2597 0 
z
" transform="scale(0.015625)"/>
      <path id="ArialMT-74" d="M 1650 503 
L 1731 6 
Q 1494 -44 1306 -44 
Q 1000 -44 831 53 
Q 663 150 594 308 
Q 525 466 525 972 
L 525 2881 
L 113 2881 
L 113 3319 
L 525 3319 
L 525 4141 
L 1084 4478 
L 1084 3319 
L 1650 3319 
L 1650 2881 
L 1084 2881 
L 1084 941 
Q 1084 700 1114 631 
Q 1144 563 1211 522 
Q 1278 481 1403 481 
Q 1497 481 1650 503 
z
" transform="scale(0.015625)"/>
      <path id="ArialMT-61" d="M 2588 409 
Q 2275 144 1986 34 
Q 1697 -75 1366 -75 
Q 819 -75 525 192 
Q 231 459 231 875 
Q 231 1119 342 1320 
Q 453 1522 633 1644 
Q 813 1766 1038 1828 
Q 1203 1872 1538 1913 
Q 2219 1994 2541 2106 
Q 2544 2222 2544 2253 
Q 2544 2597 2384 2738 
Q 2169 2928 1744 2928 
Q 1347 2928 1158 2789 
Q 969 2650 878 2297 
L 328 2372 
Q 403 2725 575 2942 
Q 747 3159 1072 3276 
Q 1397 3394 1825 3394 
Q 2250 3394 2515 3294 
Q 2781 3194 2906 3042 
Q 3031 2891 3081 2659 
Q 3109 2516 3109 2141 
L 3109 1391 
Q 3109 606 3145 398 
Q 3181 191 3288 0 
L 2700 0 
Q 2613 175 2588 409 
z
M 2541 1666 
Q 2234 1541 1622 1453 
Q 1275 1403 1131 1340 
Q 988 1278 909 1158 
Q 831 1038 831 891 
Q 831 666 1001 516 
Q 1172 366 1500 366 
Q 1825 366 2078 508 
Q 2331 650 2450 897 
Q 2541 1088 2541 1459 
L 2541 1666 
z
" transform="scale(0.015625)"/>
      <path id="ArialMT-6e" d="M 422 0 
L 422 3319 
L 928 3319 
L 928 2847 
Q 1294 3394 1984 3394 
Q 2284 3394 2536 3286 
Q 2788 3178 2913 3003 
Q 3038 2828 3088 2588 
Q 3119 2431 3119 2041 
L 3119 0 
L 2556 0 
L 2556 2019 
Q 2556 2363 2490 2533 
Q 2425 2703 2258 2804 
Q 2091 2906 1866 2906 
Q 1506 2906 1245 2678 
Q 984 2450 984 1813 
L 984 0 
L 422 0 
z
" transform="scale(0.015625)"/>
      <path id="ArialMT-73" d="M 197 991 
L 753 1078 
Q 800 744 1014 566 
Q 1228 388 1613 388 
Q 2000 388 2187 545 
Q 2375 703 2375 916 
Q 2375 1106 2209 1216 
Q 2094 1291 1634 1406 
Q 1016 1563 777 1677 
Q 538 1791 414 1992 
Q 291 2194 291 2438 
Q 291 2659 392 2848 
Q 494 3038 669 3163 
Q 800 3259 1026 3326 
Q 1253 3394 1513 3394 
Q 1903 3394 2198 3281 
Q 2494 3169 2634 2976 
Q 2775 2784 2828 2463 
L 2278 2388 
Q 2241 2644 2061 2787 
Q 1881 2931 1553 2931 
Q 1166 2931 1000 2803 
Q 834 2675 834 2503 
Q 834 2394 903 2306 
Q 972 2216 1119 2156 
Q 1203 2125 1616 2013 
Q 2213 1853 2448 1751 
Q 2684 1650 2818 1456 
Q 2953 1263 2953 975 
Q 2953 694 2789 445 
Q 2625 197 2315 61 
Q 2006 -75 1616 -75 
Q 969 -75 630 194 
Q 291 463 197 991 
z
" transform="scale(0.015625)"/>
     </defs>
     <use xlink:href="#ArialMT-43"/>
     <use xlink:href="#ArialMT-4b" x="72.216797"/>
     <use xlink:href="#ArialMT-4d" x="138.916016"/>
     <use xlink:href="#ArialMT-20" x="222.216797"/>
     <use xlink:href="#ArialMT-6d" x="250"/>
     <use xlink:href="#ArialMT-75" x="333.300781"/>
     <use xlink:href="#ArialMT-74" x="388.916016"/>
     <use xlink:href="#ArialMT-61" x="416.699219"/>
     <use xlink:href="#ArialMT-6e" x="472.314453"/>
     <use xlink:href="#ArialMT-74" x="527.929688"/>
     <use xlink:href="#ArialMT-73" x="555.712891"/>
     <use xlink:href="#ArialMT-20" x="605.712891"/>
    </g>
    <!--   upregulated -->
    <g transform="translate(16.152187 59.076562) scale(0.18 -0.18)">
     <defs>
      <path id="ArialMT-70" d="M 422 -1272 
L 422 3319 
L 934 3319 
L 934 2888 
Q 1116 3141 1344 3267 
Q 1572 3394 1897 3394 
Q 2322 3394 2647 3175 
Q 2972 2956 3137 2557 
Q 3303 2159 3303 1684 
Q 3303 1175 3120 767 
Q 2938 359 2589 142 
Q 2241 -75 1856 -75 
Q 1575 -75 1351 44 
Q 1128 163 984 344 
L 984 -1272 
L 422 -1272 
z
M 931 1641 
Q 931 1000 1190 694 
Q 1450 388 1819 388 
Q 2194 388 2461 705 
Q 2728 1022 2728 1688 
Q 2728 2322 2467 2637 
Q 2206 2953 1844 2953 
Q 1484 2953 1207 2617 
Q 931 2281 931 1641 
z
" transform="scale(0.015625)"/>
      <path id="ArialMT-72" d="M 416 0 
L 416 3319 
L 922 3319 
L 922 2816 
Q 1116 3169 1280 3281 
Q 1444 3394 1641 3394 
Q 1925 3394 2219 3213 
L 2025 2691 
Q 1819 2813 1613 2813 
Q 1428 2813 1281 2702 
Q 1134 2591 1072 2394 
Q 978 2094 978 1738 
L 978 0 
L 416 0 
z
" transform="scale(0.015625)"/>
      <path id="ArialMT-65" d="M 2694 1069 
L 3275 997 
Q 3138 488 2766 206 
Q 2394 -75 1816 -75 
Q 1088 -75 661 373 
Q 234 822 234 1631 
Q 234 2469 665 2931 
Q 1097 3394 1784 3394 
Q 2450 3394 2872 2941 
Q 3294 2488 3294 1666 
Q 3294 1616 3291 1516 
L 816 1516 
Q 847 969 1125 678 
Q 1403 388 1819 388 
Q 2128 388 2347 550 
Q 2566 713 2694 1069 
z
M 847 1978 
L 2700 1978 
Q 2663 2397 2488 2606 
Q 2219 2931 1791 2931 
Q 1403 2931 1139 2672 
Q 875 2413 847 1978 
z
" transform="scale(0.015625)"/>
      <path id="ArialMT-67" d="M 319 -275 
L 866 -356 
Q 900 -609 1056 -725 
Q 1266 -881 1628 -881 
Q 2019 -881 2231 -725 
Q 2444 -569 2519 -288 
Q 2563 -116 2559 434 
Q 2191 0 1641 0 
Q 956 0 581 494 
Q 206 988 206 1678 
Q 206 2153 378 2554 
Q 550 2956 876 3175 
Q 1203 3394 1644 3394 
Q 2231 3394 2613 2919 
L 2613 3319 
L 3131 3319 
L 3131 450 
Q 3131 -325 2973 -648 
Q 2816 -972 2473 -1159 
Q 2131 -1347 1631 -1347 
Q 1038 -1347 672 -1080 
Q 306 -813 319 -275 
z
M 784 1719 
Q 784 1066 1043 766 
Q 1303 466 1694 466 
Q 2081 466 2343 764 
Q 2606 1063 2606 1700 
Q 2606 2309 2336 2618 
Q 2066 2928 1684 2928 
Q 1309 2928 1046 2623 
Q 784 2319 784 1719 
z
" transform="scale(0.015625)"/>
      <path id="ArialMT-6c" d="M 409 0 
L 409 4581 
L 972 4581 
L 972 0 
L 409 0 
z
" transform="scale(0.015625)"/>
      <path id="ArialMT-64" d="M 2575 0 
L 2575 419 
Q 2259 -75 1647 -75 
Q 1250 -75 917 144 
Q 584 363 401 755 
Q 219 1147 219 1656 
Q 219 2153 384 2558 
Q 550 2963 881 3178 
Q 1213 3394 1622 3394 
Q 1922 3394 2156 3267 
Q 2391 3141 2538 2938 
L 2538 4581 
L 3097 4581 
L 3097 0 
L 2575 0 
z
M 797 1656 
Q 797 1019 1065 703 
Q 1334 388 1700 388 
Q 2069 388 2326 689 
Q 2584 991 2584 1609 
Q 2584 2291 2321 2609 
Q 2059 2928 1675 2928 
Q 1300 2928 1048 2622 
Q 797 2316 797 1656 
z
" transform="scale(0.015625)"/>
     </defs>
     <use xlink:href="#ArialMT-20"/>
     <use xlink:href="#ArialMT-20" x="27.783203"/>
     <use xlink:href="#ArialMT-75" x="55.566406"/>
     <use xlink:href="#ArialMT-70" x="111.181641"/>
     <use xlink:href="#ArialMT-72" x="166.796875"/>
     <use xlink:href="#ArialMT-65" x="200.097656"/>
     <use xlink:href="#ArialMT-67" x="255.712891"/>
     <use xlink:href="#ArialMT-75" x="311.328125"/>
     <use xlink:href="#ArialMT-6c" x="366.943359"/>
     <use xlink:href="#ArialMT-61" x="389.160156"/>
     <use xlink:href="#ArialMT-74" x="444.775391"/>
     <use xlink:href="#ArialMT-65" x="472.558594"/>
     <use xlink:href="#ArialMT-64" x="528.173828"/>
    </g>
   </g>
   <g id="text_9">
    <!-- mbx2OE microarray -->
    <g transform="translate(273.060714 20.314687) scale(0.18 -0.18)">
     <defs>
      <path id="ArialMT-62" d="M 941 0 
L 419 0 
L 419 4581 
L 981 4581 
L 981 2947 
Q 1338 3394 1891 3394 
Q 2197 3394 2470 3270 
Q 2744 3147 2920 2923 
Q 3097 2700 3197 2384 
Q 3297 2069 3297 1709 
Q 3297 856 2875 390 
Q 2453 -75 1863 -75 
Q 1275 -75 941 416 
L 941 0 
z
M 934 1684 
Q 934 1088 1097 822 
Q 1363 388 1816 388 
Q 2184 388 2453 708 
Q 2722 1028 2722 1663 
Q 2722 2313 2464 2622 
Q 2206 2931 1841 2931 
Q 1472 2931 1203 2611 
Q 934 2291 934 1684 
z
" transform="scale(0.015625)"/>
      <path id="ArialMT-78" d="M 47 0 
L 1259 1725 
L 138 3319 
L 841 3319 
L 1350 2541 
Q 1494 2319 1581 2169 
Q 1719 2375 1834 2534 
L 2394 3319 
L 3066 3319 
L 1919 1756 
L 3153 0 
L 2463 0 
L 1781 1031 
L 1600 1309 
L 728 0 
L 47 0 
z
" transform="scale(0.015625)"/>
      <path id="ArialMT-4f" d="M 309 2231 
Q 309 3372 921 4017 
Q 1534 4663 2503 4663 
Q 3138 4663 3647 4359 
Q 4156 4056 4423 3514 
Q 4691 2972 4691 2284 
Q 4691 1588 4409 1038 
Q 4128 488 3612 205 
Q 3097 -78 2500 -78 
Q 1853 -78 1343 234 
Q 834 547 571 1087 
Q 309 1628 309 2231 
z
M 934 2222 
Q 934 1394 1379 917 
Q 1825 441 2497 441 
Q 3181 441 3623 922 
Q 4066 1403 4066 2288 
Q 4066 2847 3877 3264 
Q 3688 3681 3323 3911 
Q 2959 4141 2506 4141 
Q 1863 4141 1398 3698 
Q 934 3256 934 2222 
z
" transform="scale(0.015625)"/>
      <path id="ArialMT-45" d="M 506 0 
L 506 4581 
L 3819 4581 
L 3819 4041 
L 1113 4041 
L 1113 2638 
L 3647 2638 
L 3647 2100 
L 1113 2100 
L 1113 541 
L 3925 541 
L 3925 0 
L 506 0 
z
" transform="scale(0.015625)"/>
      <path id="ArialMT-69" d="M 425 3934 
L 425 4581 
L 988 4581 
L 988 3934 
L 425 3934 
z
M 425 0 
L 425 3319 
L 988 3319 
L 988 0 
L 425 0 
z
" transform="scale(0.015625)"/>
      <path id="ArialMT-63" d="M 2588 1216 
L 3141 1144 
Q 3050 572 2676 248 
Q 2303 -75 1759 -75 
Q 1078 -75 664 370 
Q 250 816 250 1647 
Q 250 2184 428 2587 
Q 606 2991 970 3192 
Q 1334 3394 1763 3394 
Q 2303 3394 2647 3120 
Q 2991 2847 3088 2344 
L 2541 2259 
Q 2463 2594 2264 2762 
Q 2066 2931 1784 2931 
Q 1359 2931 1093 2626 
Q 828 2322 828 1663 
Q 828 994 1084 691 
Q 1341 388 1753 388 
Q 2084 388 2306 591 
Q 2528 794 2588 1216 
z
" transform="scale(0.015625)"/>
      <path id="ArialMT-6f" d="M 213 1659 
Q 213 2581 725 3025 
Q 1153 3394 1769 3394 
Q 2453 3394 2887 2945 
Q 3322 2497 3322 1706 
Q 3322 1066 3130 698 
Q 2938 331 2570 128 
Q 2203 -75 1769 -75 
Q 1072 -75 642 372 
Q 213 819 213 1659 
z
M 791 1659 
Q 791 1022 1069 705 
Q 1347 388 1769 388 
Q 2188 388 2466 706 
Q 2744 1025 2744 1678 
Q 2744 2294 2464 2611 
Q 2184 2928 1769 2928 
Q 1347 2928 1069 2612 
Q 791 2297 791 1659 
z
" transform="scale(0.015625)"/>
      <path id="ArialMT-79" d="M 397 -1278 
L 334 -750 
Q 519 -800 656 -800 
Q 844 -800 956 -737 
Q 1069 -675 1141 -563 
Q 1194 -478 1313 -144 
Q 1328 -97 1363 -6 
L 103 3319 
L 709 3319 
L 1400 1397 
Q 1534 1031 1641 628 
Q 1738 1016 1872 1384 
L 2581 3319 
L 3144 3319 
L 1881 -56 
Q 1678 -603 1566 -809 
Q 1416 -1088 1222 -1217 
Q 1028 -1347 759 -1347 
Q 597 -1347 397 -1278 
z
" transform="scale(0.015625)"/>
     </defs>
     <use xlink:href="#ArialMT-6d"/>
     <use xlink:href="#ArialMT-62" x="83.300781"/>
     <use xlink:href="#ArialMT-78" x="138.916016"/>
     <use xlink:href="#ArialMT-32" x="188.916016"/>
     <use xlink:href="#ArialMT-4f" x="244.53125"/>
     <use xlink:href="#ArialMT-45" x="322.314453"/>
     <use xlink:href="#ArialMT-20" x="389.013672"/>
     <use xlink:href="#ArialMT-6d" x="416.796875"/>
     <use xlink:href="#ArialMT-69" x="500.097656"/>
     <use xlink:href="#ArialMT-63" x="522.314453"/>
     <use xlink:href="#ArialMT-72" x="572.314453"/>
     <use xlink:href="#ArialMT-6f" x="605.615234"/>
     <use xlink:href="#ArialMT-61" x="661.230469"/>
     <use xlink:href="#ArialMT-72" x="716.845703"/>
     <use xlink:href="#ArialMT-72" x="750.146484"/>
     <use xlink:href="#ArialMT-61" x="783.447266"/>
     <use xlink:href="#ArialMT-79" x="839.0625"/>
    </g>
    <!--  upregulated  -->
    <g transform="translate(273.060714 39.564) scale(0.18 -0.18)">
     <use xlink:href="#ArialMT-20"/>
     <use xlink:href="#ArialMT-75" x="27.783203"/>
     <use xlink:href="#ArialMT-70" x="83.398438"/>
     <use xlink:href="#ArialMT-72" x="139.013672"/>
     <use xlink:href="#ArialMT-65" x="172.314453"/>
     <use xlink:href="#ArialMT-67" x="227.929688"/>
     <use xlink:href="#ArialMT-75" x="283.544922"/>
     <use xlink:href="#ArialMT-6c" x="339.160156"/>
     <use xlink:href="#ArialMT-61" x="361.376953"/>
     <use xlink:href="#ArialMT-74" x="416.992188"/>
     <use xlink:href="#ArialMT-65" x="444.775391"/>
     <use xlink:href="#ArialMT-64" x="500.390625"/>
     <use xlink:href="#ArialMT-20" x="556.005859"/>
    </g>
    <!--  (Kwon et al., 2012) -->
    <g transform="translate(273.060714 59.076562) scale(0.18 -0.18)">
     <defs>
      <path id="ArialMT-28" d="M 1497 -1347 
Q 1031 -759 709 28 
Q 388 816 388 1659 
Q 388 2403 628 3084 
Q 909 3875 1497 4659 
L 1900 4659 
Q 1522 4009 1400 3731 
Q 1209 3300 1100 2831 
Q 966 2247 966 1656 
Q 966 153 1900 -1347 
L 1497 -1347 
z
" transform="scale(0.015625)"/>
      <path id="ArialMT-77" d="M 1034 0 
L 19 3319 
L 600 3319 
L 1128 1403 
L 1325 691 
Q 1338 744 1497 1375 
L 2025 3319 
L 2603 3319 
L 3100 1394 
L 3266 759 
L 3456 1400 
L 4025 3319 
L 4572 3319 
L 3534 0 
L 2950 0 
L 2422 1988 
L 2294 2553 
L 1622 0 
L 1034 0 
z
" transform="scale(0.015625)"/>
      <path id="ArialMT-2e" d="M 581 0 
L 581 641 
L 1222 641 
L 1222 0 
L 581 0 
z
" transform="scale(0.015625)"/>
      <path id="ArialMT-2c" d="M 569 0 
L 569 641 
L 1209 641 
L 1209 0 
Q 1209 -353 1084 -570 
Q 959 -788 688 -906 
L 531 -666 
Q 709 -588 793 -436 
Q 878 -284 888 0 
L 569 0 
z
" transform="scale(0.015625)"/>
      <path id="ArialMT-29" d="M 791 -1347 
L 388 -1347 
Q 1322 153 1322 1656 
Q 1322 2244 1188 2822 
Q 1081 3291 891 3722 
Q 769 4003 388 4659 
L 791 4659 
Q 1378 3875 1659 3084 
Q 1900 2403 1900 1659 
Q 1900 816 1576 28 
Q 1253 -759 791 -1347 
z
" transform="scale(0.015625)"/>
     </defs>
     <use xlink:href="#ArialMT-20"/>
     <use xlink:href="#ArialMT-28" x="27.783203"/>
     <use xlink:href="#ArialMT-4b" x="61.083984"/>
     <use xlink:href="#ArialMT-77" x="127.783203"/>
     <use xlink:href="#ArialMT-6f" x="200"/>
     <use xlink:href="#ArialMT-6e" x="255.615234"/>
     <use xlink:href="#ArialMT-20" x="311.230469"/>
     <use xlink:href="#ArialMT-65" x="339.013672"/>
     <use xlink:href="#ArialMT-74" x="394.628906"/>
     <use xlink:href="#ArialMT-20" x="422.412109"/>
     <use xlink:href="#ArialMT-61" x="450.195312"/>
     <use xlink:href="#ArialMT-6c" x="505.810547"/>
     <use xlink:href="#ArialMT-2e" x="528.027344"/>
     <use xlink:href="#ArialMT-2c" x="555.810547"/>
     <use xlink:href="#ArialMT-20" x="583.59375"/>
     <use xlink:href="#ArialMT-32" x="611.376953"/>
     <use xlink:href="#ArialMT-30" x="666.992188"/>
     <use xlink:href="#ArialMT-31" x="722.607422"/>
     <use xlink:href="#ArialMT-32" x="778.222656"/>
     <use xlink:href="#ArialMT-29" x="833.837891"/>
    </g>
   </g>
   <g id="text_10">
    <!-- mbx2 ChIP-chip  -->
    <g transform="translate(130.621295 307.306778) scale(0.18 -0.18)">
     <defs>
      <path id="ArialMT-68" d="M 422 0 
L 422 4581 
L 984 4581 
L 984 2938 
Q 1378 3394 1978 3394 
Q 2347 3394 2619 3248 
Q 2891 3103 3008 2847 
Q 3125 2591 3125 2103 
L 3125 0 
L 2563 0 
L 2563 2103 
Q 2563 2525 2380 2717 
Q 2197 2909 1863 2909 
Q 1613 2909 1392 2779 
Q 1172 2650 1078 2428 
Q 984 2206 984 1816 
L 984 0 
L 422 0 
z
" transform="scale(0.015625)"/>
      <path id="ArialMT-49" d="M 597 0 
L 597 4581 
L 1203 4581 
L 1203 0 
L 597 0 
z
" transform="scale(0.015625)"/>
      <path id="ArialMT-50" d="M 494 0 
L 494 4581 
L 2222 4581 
Q 2678 4581 2919 4538 
Q 3256 4481 3484 4323 
Q 3713 4166 3852 3881 
Q 3991 3597 3991 3256 
Q 3991 2672 3619 2267 
Q 3247 1863 2275 1863 
L 1100 1863 
L 1100 0 
L 494 0 
z
M 1100 2403 
L 2284 2403 
Q 2872 2403 3119 2622 
Q 3366 2841 3366 3238 
Q 3366 3525 3220 3729 
Q 3075 3934 2838 4000 
Q 2684 4041 2272 4041 
L 1100 4041 
L 1100 2403 
z
" transform="scale(0.015625)"/>
      <path id="ArialMT-2d" d="M 203 1375 
L 203 1941 
L 1931 1941 
L 1931 1375 
L 203 1375 
z
" transform="scale(0.015625)"/>
     </defs>
     <use xlink:href="#ArialMT-6d"/>
     <use xlink:href="#ArialMT-62" x="83.300781"/>
     <use xlink:href="#ArialMT-78" x="138.916016"/>
     <use xlink:href="#ArialMT-32" x="188.916016"/>
     <use xlink:href="#ArialMT-20" x="244.53125"/>
     <use xlink:href="#ArialMT-43" x="272.314453"/>
     <use xlink:href="#ArialMT-68" x="344.53125"/>
     <use xlink:href="#ArialMT-49" x="400.146484"/>
     <use xlink:href="#ArialMT-50" x="427.929688"/>
     <use xlink:href="#ArialMT-2d" x="494.628906"/>
     <use xlink:href="#ArialMT-63" x="527.929688"/>
     <use xlink:href="#ArialMT-68" x="577.929688"/>
     <use xlink:href="#ArialMT-69" x="633.544922"/>
     <use xlink:href="#ArialMT-70" x="655.761719"/>
     <use xlink:href="#ArialMT-20" x="711.376953"/>
    </g>
    <!--  (Kwon et al., 2012) -->
    <g transform="translate(119.105513 326.608403) scale(0.18 -0.18)">
     <use xlink:href="#ArialMT-20"/>
     <use xlink:href="#ArialMT-28" x="27.783203"/>
     <use xlink:href="#ArialMT-4b" x="61.083984"/>
     <use xlink:href="#ArialMT-77" x="127.783203"/>
     <use xlink:href="#ArialMT-6f" x="200"/>
     <use xlink:href="#ArialMT-6e" x="255.615234"/>
     <use xlink:href="#ArialMT-20" x="311.230469"/>
     <use xlink:href="#ArialMT-65" x="339.013672"/>
     <use xlink:href="#ArialMT-74" x="394.628906"/>
     <use xlink:href="#ArialMT-20" x="422.412109"/>
     <use xlink:href="#ArialMT-61" x="450.195312"/>
     <use xlink:href="#ArialMT-6c" x="505.810547"/>
     <use xlink:href="#ArialMT-2e" x="528.027344"/>
     <use xlink:href="#ArialMT-2c" x="555.810547"/>
     <use xlink:href="#ArialMT-20" x="583.59375"/>
     <use xlink:href="#ArialMT-32" x="611.376953"/>
     <use xlink:href="#ArialMT-30" x="666.992188"/>
     <use xlink:href="#ArialMT-31" x="722.607422"/>
     <use xlink:href="#ArialMT-32" x="778.222656"/>
     <use xlink:href="#ArialMT-29" x="833.837891"/>
    </g>
   </g>
   <g id="text_11">
    <!-- pfl8 -->
    <g transform="translate(334.984806 119.325144) scale(0.2 -0.2)">
     <defs>
      <path id="Arial-ItalicMT-70" d="M -66 -1272 
L 894 3319 
L 1416 3319 
L 1319 2856 
Q 1609 3159 1839 3276 
Q 2069 3394 2325 3394 
Q 2800 3394 3112 3048 
Q 3425 2703 3425 2059 
Q 3425 1541 3253 1114 
Q 3081 688 2831 428 
Q 2581 169 2325 47 
Q 2069 -75 1800 -75 
Q 1203 -75 875 531 
L 500 -1272 
L -66 -1272 
z
M 1053 1356 
Q 1053 984 1106 841 
Q 1184 638 1362 513 
Q 1541 388 1775 388 
Q 2263 388 2563 936 
Q 2863 1484 2863 2056 
Q 2863 2478 2661 2708 
Q 2459 2938 2159 2938 
Q 1944 2938 1759 2823 
Q 1575 2709 1417 2482 
Q 1259 2256 1156 1928 
Q 1053 1600 1053 1356 
z
" transform="scale(0.015625)"/>
      <path id="Arial-ItalicMT-66" d="M 291 0 
L 894 2881 
L 388 2881 
L 478 3319 
L 984 3319 
L 1081 3791 
Q 1156 4144 1236 4300 
Q 1316 4456 1495 4557 
Q 1675 4659 1984 4659 
Q 2200 4659 2609 4569 
L 2506 4075 
Q 2219 4150 2025 4150 
Q 1859 4150 1773 4067 
Q 1688 3984 1625 3675 
L 1550 3319 
L 2181 3319 
L 2091 2881 
L 1459 2881 
L 856 0 
L 291 0 
z
" transform="scale(0.015625)"/>
      <path id="Arial-ItalicMT-6c" d="M 169 0 
L 1125 4581 
L 1691 4581 
L 734 0 
L 169 0 
z
" transform="scale(0.015625)"/>
      <path id="Arial-ItalicMT-38" d="M 1444 2519 
Q 1188 2659 1059 2879 
Q 931 3100 931 3353 
Q 931 3769 1231 4122 
Q 1631 4600 2316 4600 
Q 2919 4600 3266 4276 
Q 3613 3953 3613 3484 
Q 3613 3150 3425 2881 
Q 3238 2613 2838 2453 
Q 3113 2281 3231 2088 
Q 3384 1834 3384 1497 
Q 3384 881 2948 400 
Q 2513 -81 1788 -81 
Q 1209 -81 843 275 
Q 478 631 478 1166 
Q 478 1669 737 2030 
Q 997 2391 1444 2519 
z
M 1488 3328 
Q 1488 3034 1677 2854 
Q 1866 2675 2197 2675 
Q 2584 2675 2826 2911 
Q 3069 3147 3069 3491 
Q 3069 3781 2880 3964 
Q 2691 4147 2359 4147 
Q 2109 4147 1900 4031 
Q 1691 3916 1589 3717 
Q 1488 3519 1488 3328 
z
M 1047 1119 
Q 1047 928 1139 753 
Q 1231 578 1418 475 
Q 1606 372 1847 372 
Q 2306 372 2591 803 
Q 2816 1141 2816 1531 
Q 2816 1850 2608 2053 
Q 2400 2256 2063 2256 
Q 1638 2256 1342 1940 
Q 1047 1625 1047 1119 
z
" transform="scale(0.015625)"/>
     </defs>
     <use xlink:href="#Arial-ItalicMT-70"/>
     <use xlink:href="#Arial-ItalicMT-66" x="55.615234"/>
     <use xlink:href="#Arial-ItalicMT-6c" x="83.398438"/>
     <use xlink:href="#Arial-ItalicMT-38" x="105.615234"/>
    </g>
   </g>
   <g id="text_12">
    <!-- pfl8 -->
    <g style="fill: #ff0000" transform="translate(334.984806 119.325144) scale(0.2 -0.2)">
     <use xlink:href="#Arial-ItalicMT-70"/>
     <use xlink:href="#Arial-ItalicMT-66" x="55.615234"/>
     <use xlink:href="#Arial-ItalicMT-6c" x="83.398438"/>
     <use xlink:href="#Arial-ItalicMT-38" x="105.615234"/>
    </g>
   </g>
   <g id="text_13">
    <!-- mbx2 -->
    <g transform="translate(334.984806 136.063133) scale(0.2 -0.2)">
     <defs>
      <path id="Arial-ItalicMT-6d" d="M 209 0 
L 903 3319 
L 1469 3319 
L 1353 2772 
Q 1669 3125 1917 3259 
Q 2166 3394 2456 3394 
Q 2766 3394 2973 3230 
Q 3181 3066 3247 2772 
Q 3500 3084 3779 3239 
Q 4059 3394 4369 3394 
Q 4784 3394 4992 3197 
Q 5200 3000 5200 2644 
Q 5200 2491 5128 2138 
L 4681 0 
L 4116 0 
L 4572 2194 
Q 4631 2463 4631 2578 
Q 4631 2741 4528 2834 
Q 4425 2928 4238 2928 
Q 3984 2928 3721 2775 
Q 3459 2622 3314 2373 
Q 3169 2125 3059 1609 
L 2722 0 
L 2156 0 
L 2625 2241 
Q 2675 2469 2675 2566 
Q 2675 2728 2573 2828 
Q 2472 2928 2309 2928 
Q 2069 2928 1805 2775 
Q 1541 2622 1375 2348 
Q 1209 2075 1103 1569 
L 775 0 
L 209 0 
z
" transform="scale(0.015625)"/>
      <path id="Arial-ItalicMT-62" d="M 213 0 
L 1169 4581 
L 1734 4581 
L 1394 2944 
Q 1663 3191 1881 3292 
Q 2100 3394 2338 3394 
Q 2803 3394 3114 3047 
Q 3425 2700 3425 2038 
Q 3425 1597 3300 1231 
Q 3175 866 2990 617 
Q 2806 369 2609 220 
Q 2413 72 2206 -1 
Q 2000 -75 1809 -75 
Q 1481 -75 1231 98 
Q 981 272 841 628 
L 709 0 
L 213 0 
z
M 1050 1363 
L 1047 1256 
Q 1047 831 1250 609 
Q 1453 388 1756 388 
Q 2053 388 2301 595 
Q 2550 803 2709 1243 
Q 2869 1684 2869 2056 
Q 2869 2475 2667 2706 
Q 2466 2938 2169 2938 
Q 1863 2938 1606 2702 
Q 1350 2466 1178 1975 
Q 1050 1609 1050 1363 
z
" transform="scale(0.015625)"/>
      <path id="Arial-ItalicMT-78" d="M -9 0 
L 1434 1684 
L 606 3319 
L 1231 3319 
L 1513 2728 
Q 1669 2397 1794 2094 
L 2750 3319 
L 3441 3319 
L 2047 1641 
L 2884 0 
L 2259 0 
L 1928 675 
Q 1822 891 1688 1209 
L 700 0 
L -9 0 
z
" transform="scale(0.015625)"/>
      <path id="Arial-ItalicMT-32" d="M 375 0 
Q 463 409 617 686 
Q 772 963 1028 1211 
Q 1284 1459 2016 2044 
Q 2459 2397 2622 2566 
Q 2856 2809 2963 3044 
Q 3034 3203 3034 3391 
Q 3034 3706 2811 3926 
Q 2588 4147 2263 4147 
Q 1941 4147 1700 3923 
Q 1459 3700 1356 3206 
L 803 3288 
Q 884 3897 1276 4248 
Q 1669 4600 2253 4600 
Q 2644 4600 2961 4437 
Q 3278 4275 3437 3981 
Q 3597 3688 3597 3375 
Q 3597 2919 3272 2497 
Q 3072 2234 2097 1463 
Q 1678 1131 1473 918 
Q 1269 706 1166 519 
L 3216 519 
L 3106 0 
L 375 0 
z
" transform="scale(0.015625)"/>
     </defs>
     <use xlink:href="#Arial-ItalicMT-6d"/>
     <use xlink:href="#Arial-ItalicMT-62" x="83.300781"/>
     <use xlink:href="#Arial-ItalicMT-78" x="138.916016"/>
     <use xlink:href="#Arial-ItalicMT-32" x="188.916016"/>
    </g>
   </g>
   <g id="text_14">
    <!-- mbx2 -->
    <g style="fill: #ff0000" transform="translate(334.984806 136.063133) scale(0.2 -0.2)">
     <use xlink:href="#Arial-ItalicMT-6d"/>
     <use xlink:href="#Arial-ItalicMT-62" x="83.300781"/>
     <use xlink:href="#Arial-ItalicMT-78" x="138.916016"/>
     <use xlink:href="#Arial-ItalicMT-32" x="188.916016"/>
    </g>
   </g>
   <g id="text_15">
    <!-- pfl3 -->
    <g transform="translate(334.984806 152.801121) scale(0.2 -0.2)">
     <defs>
      <path id="Arial-ItalicMT-33" d="M 350 1200 
L 900 1269 
Q 963 788 1177 580 
Q 1391 372 1738 372 
Q 2156 372 2461 672 
Q 2766 972 2766 1359 
Q 2766 1697 2537 1917 
Q 2309 2138 1925 2138 
Q 1881 2138 1744 2125 
L 1841 2597 
Q 1922 2584 1997 2584 
Q 2481 2584 2742 2820 
Q 3003 3056 3003 3400 
Q 3003 3716 2789 3931 
Q 2575 4147 2266 4147 
Q 1963 4147 1720 3926 
Q 1478 3706 1409 3303 
L 853 3416 
Q 991 3981 1381 4290 
Q 1772 4600 2306 4600 
Q 2869 4600 3217 4259 
Q 3566 3919 3566 3422 
Q 3566 3059 3377 2789 
Q 3188 2519 2809 2341 
Q 3078 2181 3211 1956 
Q 3344 1731 3344 1441 
Q 3344 825 2883 373 
Q 2422 -78 1781 -78 
Q 1159 -78 776 270 
Q 394 619 350 1200 
z
" transform="scale(0.015625)"/>
     </defs>
     <use xlink:href="#Arial-ItalicMT-70"/>
     <use xlink:href="#Arial-ItalicMT-66" x="55.615234"/>
     <use xlink:href="#Arial-ItalicMT-6c" x="83.398438"/>
     <use xlink:href="#Arial-ItalicMT-33" x="105.615234"/>
    </g>
   </g>
   <g id="text_16">
    <!-- pfl3 -->
    <g style="fill: #ff0000" transform="translate(334.984806 152.801121) scale(0.2 -0.2)">
     <use xlink:href="#Arial-ItalicMT-70"/>
     <use xlink:href="#Arial-ItalicMT-66" x="55.615234"/>
     <use xlink:href="#Arial-ItalicMT-6c" x="83.398438"/>
     <use xlink:href="#Arial-ItalicMT-33" x="105.615234"/>
    </g>
   </g>
   <g id="text_17">
    <!-- gsf2 -->
    <g transform="translate(334.984806 169.53911) scale(0.2 -0.2)">
     <defs>
      <path id="Arial-ItalicMT-67" d="M 181 -300 
L 753 -353 
Q 747 -547 800 -644 
Q 853 -741 969 -794 
Q 1122 -863 1366 -863 
Q 1878 -863 2103 -597 
Q 2250 -419 2375 178 
L 2431 447 
Q 1991 0 1494 0 
Q 991 0 652 370 
Q 313 741 313 1419 
Q 313 1978 580 2447 
Q 847 2916 1215 3155 
Q 1584 3394 1975 3394 
Q 2628 3394 2981 2775 
L 3094 3319 
L 3613 3319 
L 2944 116 
Q 2834 -413 2656 -708 
Q 2478 -1003 2161 -1165 
Q 1844 -1328 1428 -1328 
Q 1028 -1328 739 -1225 
Q 450 -1122 308 -923 
Q 166 -725 166 -469 
Q 166 -391 181 -300 
z
M 888 1469 
Q 888 1128 953 956 
Q 1047 716 1220 589 
Q 1394 463 1606 463 
Q 1884 463 2159 658 
Q 2434 853 2604 1262 
Q 2775 1672 2775 2044 
Q 2775 2453 2548 2695 
Q 2322 2938 1988 2938 
Q 1781 2938 1587 2827 
Q 1394 2716 1226 2489 
Q 1059 2263 973 1947 
Q 888 1631 888 1469 
z
" transform="scale(0.015625)"/>
      <path id="Arial-ItalicMT-73" d="M 266 1134 
L 831 1169 
Q 831 925 906 753 
Q 981 581 1182 472 
Q 1384 363 1653 363 
Q 2028 363 2215 513 
Q 2403 663 2403 866 
Q 2403 1013 2291 1144 
Q 2175 1275 1726 1467 
Q 1278 1659 1153 1738 
Q 944 1866 837 2039 
Q 731 2213 731 2438 
Q 731 2831 1043 3112 
Q 1356 3394 1919 3394 
Q 2544 3394 2870 3105 
Q 3197 2816 3209 2344 
L 2656 2306 
Q 2644 2606 2444 2781 
Q 2244 2956 1878 2956 
Q 1584 2956 1421 2822 
Q 1259 2688 1259 2531 
Q 1259 2375 1400 2256 
Q 1494 2175 1884 2006 
Q 2534 1725 2703 1563 
Q 2972 1303 2972 931 
Q 2972 684 2820 446 
Q 2669 209 2358 67 
Q 2047 -75 1625 -75 
Q 1050 -75 647 209 
Q 244 494 266 1134 
z
" transform="scale(0.015625)"/>
     </defs>
     <use xlink:href="#Arial-ItalicMT-67"/>
     <use xlink:href="#Arial-ItalicMT-73" x="55.615234"/>
     <use xlink:href="#Arial-ItalicMT-66" x="105.615234"/>
     <use xlink:href="#Arial-ItalicMT-32" x="133.398438"/>
    </g>
   </g>
   <g id="text_18">
    <!-- gsf2 -->
    <g style="fill: #ff0000" transform="translate(334.984806 169.53911) scale(0.2 -0.2)">
     <use xlink:href="#Arial-ItalicMT-67"/>
     <use xlink:href="#Arial-ItalicMT-73" x="55.615234"/>
     <use xlink:href="#Arial-ItalicMT-66" x="105.615234"/>
     <use xlink:href="#Arial-ItalicMT-32" x="133.398438"/>
    </g>
   </g>
   <g id="text_19">
    <!-- inv1 -->
    <g transform="translate(334.984806 186.277099) scale(0.2 -0.2)">
     <defs>
      <path id="Arial-ItalicMT-69" d="M 1016 3941 
L 1150 4581 
L 1713 4581 
L 1578 3941 
L 1016 3941 
z
M 191 0 
L 884 3319 
L 1450 3319 
L 756 0 
L 191 0 
z
" transform="scale(0.015625)"/>
      <path id="Arial-ItalicMT-6e" d="M 213 0 
L 906 3319 
L 1419 3319 
L 1297 2741 
Q 1631 3081 1922 3237 
Q 2213 3394 2516 3394 
Q 2919 3394 3148 3175 
Q 3378 2956 3378 2591 
Q 3378 2406 3297 2009 
L 2875 0 
L 2309 0 
L 2750 2103 
Q 2816 2409 2816 2556 
Q 2816 2722 2702 2825 
Q 2588 2928 2372 2928 
Q 1938 2928 1598 2615 
Q 1259 2303 1100 1544 
L 778 0 
L 213 0 
z
" transform="scale(0.015625)"/>
      <path id="Arial-ItalicMT-76" d="M 1050 0 
L 506 3319 
L 1056 3319 
L 1341 1491 
Q 1388 1191 1456 513 
Q 1619 866 1872 1322 
L 2981 3319 
L 3578 3319 
L 1678 0 
L 1050 0 
z
" transform="scale(0.015625)"/>
      <path id="Arial-ItalicMT-31" d="M 1541 0 
L 2266 3459 
Q 1797 3091 947 2869 
L 1053 3381 
Q 1475 3550 1886 3822 
Q 2297 4094 2503 4297 
Q 2628 4422 2741 4600 
L 3069 4600 
L 2109 0 
L 1541 0 
z
" transform="scale(0.015625)"/>
     </defs>
     <use xlink:href="#Arial-ItalicMT-69"/>
     <use xlink:href="#Arial-ItalicMT-6e" x="22.216797"/>
     <use xlink:href="#Arial-ItalicMT-76" x="77.832031"/>
     <use xlink:href="#Arial-ItalicMT-31" x="127.832031"/>
    </g>
   </g>
  </g>
 </g>
 <defs>
  <clipPath id="p21f108fe5f">
   <rect x="59.54122" y="39.384811" width="275.20265" height="266.112"/>
  </clipPath>
 </defs>
</svg>
