<?xml version="1.0" encoding="utf-8" standalone="no"?>
<!DOCTYPE svg PUBLIC "-//W3C//DTD SVG 1.1//EN"
  "http://www.w3.org/Graphics/SVG/1.1/DTD/svg11.dtd">
<svg xmlns:xlink="http://www.w3.org/1999/xlink" width="460.8pt" height="345.6pt" viewBox="0 0 460.8 345.6" xmlns="http://www.w3.org/2000/svg" version="1.1">
 <metadata>
  <rdf:RDF xmlns:dc="http://purl.org/dc/elements/1.1/" xmlns:cc="http://creativecommons.org/ns#" xmlns:rdf="http://www.w3.org/1999/02/22-rdf-syntax-ns#">
   <cc:Work>
    <dc:type rdf:resource="http://purl.org/dc/dcmitype/StillImage"/>
    <dc:date>2023-12-09T20:47:18.467797</dc:date>
    <dc:format>image/svg+xml</dc:format>
    <dc:creator>
     <cc:Agent>
      <dc:title>Matplotlib v3.8.0, https://matplotlib.org/</dc:title>
     </cc:Agent>
    </dc:creator>
   </cc:Work>
  </rdf:RDF>
 </metadata>
 <defs>
  <style type="text/css">*{stroke-linejoin: round; stroke-linecap: butt}</style>
 </defs>
 <g id="figure_1">
  <g id="patch_1">
   <path d="M 0 345.6 
L 460.8 345.6 
L 460.8 0 
L 0 0 
z
" style="fill: #ffffff"/>
  </g>
  <g id="axes_1">
   <g id="patch_2">
    <path d="M 57.6 307.584 
L 414.72 307.584 
L 414.72 41.472 
L 57.6 41.472 
z
" style="fill: #ffffff"/>
   </g>
   <g id="patch_3">
    <path d="M 73.832727 307.584 
L 77.079273 307.584 
L 77.079273 54.144 
L 73.832727 54.144 
z
" clip-path="url(#p23b753be84)" style="fill: #808080"/>
   </g>
   <g id="patch_4">
    <path d="M 77.079273 307.584 
L 80.325818 307.584 
L 80.325818 69.984 
L 77.079273 69.984 
z
" clip-path="url(#p23b753be84)" style="fill: #808080"/>
   </g>
   <g id="patch_5">
    <path d="M 80.325818 307.584 
L 83.572364 307.584 
L 83.572364 217.069714 
L 80.325818 217.069714 
z
" clip-path="url(#p23b753be84)" style="fill: #808080"/>
   </g>
   <g id="patch_6">
    <path d="M 83.572364 307.584 
L 86.818909 307.584 
L 86.818909 214.806857 
L 83.572364 214.806857 
z
" clip-path="url(#p23b753be84)" style="fill: #808080"/>
   </g>
   <g id="patch_7">
    <path d="M 86.818909 307.584 
L 90.065455 307.584 
L 90.065455 275.904 
L 86.818909 275.904 
z
" clip-path="url(#p23b753be84)" style="fill: #808080"/>
   </g>
   <g id="patch_8">
    <path d="M 90.065455 307.584 
L 93.312 307.584 
L 93.312 289.481143 
L 90.065455 289.481143 
z
" clip-path="url(#p23b753be84)" style="fill: #808080"/>
   </g>
   <g id="patch_9">
    <path d="M 93.312 307.584 
L 96.558545 307.584 
L 96.558545 292.875429 
L 93.312 292.875429 
z
" clip-path="url(#p23b753be84)" style="fill: #808080"/>
   </g>
   <g id="patch_10">
    <path d="M 96.558545 307.584 
L 99.805091 307.584 
L 99.805091 300.795429 
L 96.558545 300.795429 
z
" clip-path="url(#p23b753be84)" style="fill: #808080"/>
   </g>
   <g id="patch_11">
    <path d="M 99.805091 307.584 
L 103.051636 307.584 
L 103.051636 296.269714 
L 99.805091 296.269714 
z
" clip-path="url(#p23b753be84)" style="fill: #808080"/>
   </g>
   <g id="patch_12">
    <path d="M 103.051636 307.584 
L 106.298182 307.584 
L 106.298182 305.321143 
L 103.051636 305.321143 
z
" clip-path="url(#p23b753be84)" style="fill: #808080"/>
   </g>
   <g id="patch_13">
    <path d="M 106.298182 307.584 
L 109.544727 307.584 
L 109.544727 301.926857 
L 106.298182 301.926857 
z
" clip-path="url(#p23b753be84)" style="fill: #808080"/>
   </g>
   <g id="patch_14">
    <path d="M 109.544727 307.584 
L 112.791273 307.584 
L 112.791273 300.795429 
L 109.544727 300.795429 
z
" clip-path="url(#p23b753be84)" style="fill: #808080"/>
   </g>
   <g id="patch_15">
    <path d="M 112.791273 307.584 
L 116.037818 307.584 
L 116.037818 298.532571 
L 112.791273 298.532571 
z
" clip-path="url(#p23b753be84)" style="fill: #808080"/>
   </g>
   <g id="patch_16">
    <path d="M 116.037818 307.584 
L 119.284364 307.584 
L 119.284364 300.795429 
L 116.037818 300.795429 
z
" clip-path="url(#p23b753be84)" style="fill: #808080"/>
   </g>
   <g id="patch_17">
    <path d="M 119.284364 307.584 
L 122.530909 307.584 
L 122.530909 303.058286 
L 119.284364 303.058286 
z
" clip-path="url(#p23b753be84)" style="fill: #808080"/>
   </g>
   <g id="patch_18">
    <path d="M 122.530909 307.584 
L 125.777455 307.584 
L 125.777455 303.058286 
L 122.530909 303.058286 
z
" clip-path="url(#p23b753be84)" style="fill: #808080"/>
   </g>
   <g id="patch_19">
    <path d="M 125.777455 307.584 
L 129.024 307.584 
L 129.024 305.321143 
L 125.777455 305.321143 
z
" clip-path="url(#p23b753be84)" style="fill: #808080"/>
   </g>
   <g id="patch_20">
    <path d="M 129.024 307.584 
L 132.270545 307.584 
L 132.270545 299.664 
L 129.024 299.664 
z
" clip-path="url(#p23b753be84)" style="fill: #808080"/>
   </g>
   <g id="patch_21">
    <path d="M 132.270545 307.584 
L 135.517091 307.584 
L 135.517091 303.058286 
L 132.270545 303.058286 
z
" clip-path="url(#p23b753be84)" style="fill: #808080"/>
   </g>
   <g id="patch_22">
    <path d="M 135.517091 307.584 
L 138.763636 307.584 
L 138.763636 303.058286 
L 135.517091 303.058286 
z
" clip-path="url(#p23b753be84)" style="fill: #808080"/>
   </g>
   <g id="patch_23">
    <path d="M 138.763636 307.584 
L 142.010182 307.584 
L 142.010182 301.926857 
L 138.763636 301.926857 
z
" clip-path="url(#p23b753be84)" style="fill: #808080"/>
   </g>
   <g id="patch_24">
    <path d="M 142.010182 307.584 
L 145.256727 307.584 
L 145.256727 300.795429 
L 142.010182 300.795429 
z
" clip-path="url(#p23b753be84)" style="fill: #808080"/>
   </g>
   <g id="patch_25">
    <path d="M 145.256727 307.584 
L 148.503273 307.584 
L 148.503273 304.189714 
L 145.256727 304.189714 
z
" clip-path="url(#p23b753be84)" style="fill: #808080"/>
   </g>
   <g id="patch_26">
    <path d="M 148.503273 307.584 
L 151.749818 307.584 
L 151.749818 303.058286 
L 148.503273 303.058286 
z
" clip-path="url(#p23b753be84)" style="fill: #808080"/>
   </g>
   <g id="patch_27">
    <path d="M 151.749818 307.584 
L 154.996364 307.584 
L 154.996364 303.058286 
L 151.749818 303.058286 
z
" clip-path="url(#p23b753be84)" style="fill: #808080"/>
   </g>
   <g id="patch_28">
    <path d="M 154.996364 307.584 
L 158.242909 307.584 
L 158.242909 301.926857 
L 154.996364 301.926857 
z
" clip-path="url(#p23b753be84)" style="fill: #808080"/>
   </g>
   <g id="patch_29">
    <path d="M 158.242909 307.584 
L 161.489455 307.584 
L 161.489455 304.189714 
L 158.242909 304.189714 
z
" clip-path="url(#p23b753be84)" style="fill: #808080"/>
   </g>
   <g id="patch_30">
    <path d="M 161.489455 307.584 
L 164.736 307.584 
L 164.736 303.058286 
L 161.489455 303.058286 
z
" clip-path="url(#p23b753be84)" style="fill: #808080"/>
   </g>
   <g id="patch_31">
    <path d="M 164.736 307.584 
L 167.982545 307.584 
L 167.982545 303.058286 
L 164.736 303.058286 
z
" clip-path="url(#p23b753be84)" style="fill: #808080"/>
   </g>
   <g id="patch_32">
    <path d="M 167.982545 307.584 
L 171.229091 307.584 
L 171.229091 303.058286 
L 167.982545 303.058286 
z
" clip-path="url(#p23b753be84)" style="fill: #808080"/>
   </g>
   <g id="patch_33">
    <path d="M 171.229091 307.584 
L 174.475636 307.584 
L 174.475636 299.664 
L 171.229091 299.664 
z
" clip-path="url(#p23b753be84)" style="fill: #808080"/>
   </g>
   <g id="patch_34">
    <path d="M 174.475636 307.584 
L 177.722182 307.584 
L 177.722182 305.321143 
L 174.475636 305.321143 
z
" clip-path="url(#p23b753be84)" style="fill: #808080"/>
   </g>
   <g id="patch_35">
    <path d="M 177.722182 307.584 
L 180.968727 307.584 
L 180.968727 298.532571 
L 177.722182 298.532571 
z
" clip-path="url(#p23b753be84)" style="fill: #808080"/>
   </g>
   <g id="patch_36">
    <path d="M 180.968727 307.584 
L 184.215273 307.584 
L 184.215273 298.532571 
L 180.968727 298.532571 
z
" clip-path="url(#p23b753be84)" style="fill: #808080"/>
   </g>
   <g id="patch_37">
    <path d="M 184.215273 307.584 
L 187.461818 307.584 
L 187.461818 299.664 
L 184.215273 299.664 
z
" clip-path="url(#p23b753be84)" style="fill: #808080"/>
   </g>
   <g id="patch_38">
    <path d="M 187.461818 307.584 
L 190.708364 307.584 
L 190.708364 297.401143 
L 187.461818 297.401143 
z
" clip-path="url(#p23b753be84)" style="fill: #808080"/>
   </g>
   <g id="patch_39">
    <path d="M 190.708364 307.584 
L 193.954909 307.584 
L 193.954909 294.006857 
L 190.708364 294.006857 
z
" clip-path="url(#p23b753be84)" style="fill: #808080"/>
   </g>
   <g id="patch_40">
    <path d="M 193.954909 307.584 
L 197.201455 307.584 
L 197.201455 299.664 
L 193.954909 299.664 
z
" clip-path="url(#p23b753be84)" style="fill: #808080"/>
   </g>
   <g id="patch_41">
    <path d="M 197.201455 307.584 
L 200.448 307.584 
L 200.448 294.006857 
L 197.201455 294.006857 
z
" clip-path="url(#p23b753be84)" style="fill: #808080"/>
   </g>
   <g id="patch_42">
    <path d="M 200.448 307.584 
L 203.694545 307.584 
L 203.694545 295.138286 
L 200.448 295.138286 
z
" clip-path="url(#p23b753be84)" style="fill: #808080"/>
   </g>
   <g id="patch_43">
    <path d="M 203.694545 307.584 
L 206.941091 307.584 
L 206.941091 292.875429 
L 203.694545 292.875429 
z
" clip-path="url(#p23b753be84)" style="fill: #808080"/>
   </g>
   <g id="patch_44">
    <path d="M 206.941091 307.584 
L 210.187636 307.584 
L 210.187636 294.006857 
L 206.941091 294.006857 
z
" clip-path="url(#p23b753be84)" style="fill: #808080"/>
   </g>
   <g id="patch_45">
    <path d="M 210.187636 307.584 
L 213.434182 307.584 
L 213.434182 295.138286 
L 210.187636 295.138286 
z
" clip-path="url(#p23b753be84)" style="fill: #808080"/>
   </g>
   <g id="patch_46">
    <path d="M 213.434182 307.584 
L 216.680727 307.584 
L 216.680727 297.401143 
L 213.434182 297.401143 
z
" clip-path="url(#p23b753be84)" style="fill: #808080"/>
   </g>
   <g id="patch_47">
    <path d="M 216.680727 307.584 
L 219.927273 307.584 
L 219.927273 294.006857 
L 216.680727 294.006857 
z
" clip-path="url(#p23b753be84)" style="fill: #808080"/>
   </g>
   <g id="patch_48">
    <path d="M 219.927273 307.584 
L 223.173818 307.584 
L 223.173818 288.349714 
L 219.927273 288.349714 
z
" clip-path="url(#p23b753be84)" style="fill: #808080"/>
   </g>
   <g id="patch_49">
    <path d="M 223.173818 307.584 
L 226.420364 307.584 
L 226.420364 290.612571 
L 223.173818 290.612571 
z
" clip-path="url(#p23b753be84)" style="fill: #808080"/>
   </g>
   <g id="patch_50">
    <path d="M 226.420364 307.584 
L 229.666909 307.584 
L 229.666909 296.269714 
L 226.420364 296.269714 
z
" clip-path="url(#p23b753be84)" style="fill: #808080"/>
   </g>
   <g id="patch_51">
    <path d="M 229.666909 307.584 
L 232.913455 307.584 
L 232.913455 291.744 
L 229.666909 291.744 
z
" clip-path="url(#p23b753be84)" style="fill: #808080"/>
   </g>
   <g id="patch_52">
    <path d="M 232.913455 307.584 
L 236.16 307.584 
L 236.16 282.692571 
L 232.913455 282.692571 
z
" clip-path="url(#p23b753be84)" style="fill: #808080"/>
   </g>
   <g id="patch_53">
    <path d="M 236.16 307.584 
L 239.406545 307.584 
L 239.406545 281.561143 
L 236.16 281.561143 
z
" clip-path="url(#p23b753be84)" style="fill: #808080"/>
   </g>
   <g id="patch_54">
    <path d="M 239.406545 307.584 
L 242.653091 307.584 
L 242.653091 284.955429 
L 239.406545 284.955429 
z
" clip-path="url(#p23b753be84)" style="fill: #808080"/>
   </g>
   <g id="patch_55">
    <path d="M 242.653091 307.584 
L 245.899636 307.584 
L 245.899636 274.772571 
L 242.653091 274.772571 
z
" clip-path="url(#p23b753be84)" style="fill: #808080"/>
   </g>
   <g id="patch_56">
    <path d="M 245.899636 307.584 
L 249.146182 307.584 
L 249.146182 274.772571 
L 245.899636 274.772571 
z
" clip-path="url(#p23b753be84)" style="fill: #808080"/>
   </g>
   <g id="patch_57">
    <path d="M 249.146182 307.584 
L 252.392727 307.584 
L 252.392727 271.378286 
L 249.146182 271.378286 
z
" clip-path="url(#p23b753be84)" style="fill: #808080"/>
   </g>
   <g id="patch_58">
    <path d="M 252.392727 307.584 
L 255.639273 307.584 
L 255.639273 266.852571 
L 252.392727 266.852571 
z
" clip-path="url(#p23b753be84)" style="fill: #808080"/>
   </g>
   <g id="patch_59">
    <path d="M 255.639273 307.584 
L 258.885818 307.584 
L 258.885818 257.801143 
L 255.639273 257.801143 
z
" clip-path="url(#p23b753be84)" style="fill: #808080"/>
   </g>
   <g id="patch_60">
    <path d="M 258.885818 307.584 
L 262.132364 307.584 
L 262.132364 241.961143 
L 258.885818 241.961143 
z
" clip-path="url(#p23b753be84)" style="fill: #808080"/>
   </g>
   <g id="patch_61">
    <path d="M 262.132364 307.584 
L 265.378909 307.584 
L 265.378909 239.698286 
L 262.132364 239.698286 
z
" clip-path="url(#p23b753be84)" style="fill: #808080"/>
   </g>
   <g id="patch_62">
    <path d="M 265.378909 307.584 
L 268.625455 307.584 
L 268.625455 230.646857 
L 265.378909 230.646857 
z
" clip-path="url(#p23b753be84)" style="fill: #808080"/>
   </g>
   <g id="patch_63">
    <path d="M 268.625455 307.584 
L 271.872 307.584 
L 271.872 186.521143 
L 268.625455 186.521143 
z
" clip-path="url(#p23b753be84)" style="fill: #808080"/>
   </g>
   <g id="patch_64">
    <path d="M 271.872 307.584 
L 275.118545 307.584 
L 275.118545 220.464 
L 271.872 220.464 
z
" clip-path="url(#p23b753be84)" style="fill: #808080"/>
   </g>
   <g id="patch_65">
    <path d="M 275.118545 307.584 
L 278.365091 307.584 
L 278.365091 196.704 
L 275.118545 196.704 
z
" clip-path="url(#p23b753be84)" style="fill: #808080"/>
   </g>
   <g id="patch_66">
    <path d="M 278.365091 307.584 
L 281.611636 307.584 
L 281.611636 193.309714 
L 278.365091 193.309714 
z
" clip-path="url(#p23b753be84)" style="fill: #808080"/>
   </g>
   <g id="patch_67">
    <path d="M 281.611636 307.584 
L 284.858182 307.584 
L 284.858182 183.126857 
L 281.611636 183.126857 
z
" clip-path="url(#p23b753be84)" style="fill: #808080"/>
   </g>
   <g id="patch_68">
    <path d="M 284.858182 307.584 
L 288.104727 307.584 
L 288.104727 166.155429 
L 284.858182 166.155429 
z
" clip-path="url(#p23b753be84)" style="fill: #808080"/>
   </g>
   <g id="patch_69">
    <path d="M 288.104727 307.584 
L 291.351273 307.584 
L 291.351273 178.601143 
L 288.104727 178.601143 
z
" clip-path="url(#p23b753be84)" style="fill: #808080"/>
   </g>
   <g id="patch_70">
    <path d="M 291.351273 307.584 
L 294.597818 307.584 
L 294.597818 126.555429 
L 291.351273 126.555429 
z
" clip-path="url(#p23b753be84)" style="fill: #808080"/>
   </g>
   <g id="patch_71">
    <path d="M 294.597818 307.584 
L 297.844364 307.584 
L 297.844364 152.578286 
L 294.597818 152.578286 
z
" clip-path="url(#p23b753be84)" style="fill: #808080"/>
   </g>
   <g id="patch_72">
    <path d="M 297.844364 307.584 
L 301.090909 307.584 
L 301.090909 181.995429 
L 297.844364 181.995429 
z
" clip-path="url(#p23b753be84)" style="fill: #808080"/>
   </g>
   <g id="patch_73">
    <path d="M 301.090909 307.584 
L 304.337455 307.584 
L 304.337455 172.944 
L 301.090909 172.944 
z
" clip-path="url(#p23b753be84)" style="fill: #808080"/>
   </g>
   <g id="patch_74">
    <path d="M 304.337455 307.584 
L 307.584 307.584 
L 307.584 209.149714 
L 304.337455 209.149714 
z
" clip-path="url(#p23b753be84)" style="fill: #808080"/>
   </g>
   <g id="patch_75">
    <path d="M 307.584 307.584 
L 310.830545 307.584 
L 310.830545 179.732571 
L 307.584 179.732571 
z
" clip-path="url(#p23b753be84)" style="fill: #808080"/>
   </g>
   <g id="patch_76">
    <path d="M 310.830545 307.584 
L 314.077091 307.584 
L 314.077091 158.235429 
L 310.830545 158.235429 
z
" clip-path="url(#p23b753be84)" style="fill: #808080"/>
   </g>
   <g id="patch_77">
    <path d="M 314.077091 307.584 
L 317.323636 307.584 
L 317.323636 161.629714 
L 314.077091 161.629714 
z
" clip-path="url(#p23b753be84)" style="fill: #808080"/>
   </g>
   <g id="patch_78">
    <path d="M 317.323636 307.584 
L 320.570182 307.584 
L 320.570182 161.629714 
L 317.323636 161.629714 
z
" clip-path="url(#p23b753be84)" style="fill: #808080"/>
   </g>
   <g id="patch_79">
    <path d="M 320.570182 307.584 
L 323.816727 307.584 
L 323.816727 150.315429 
L 320.570182 150.315429 
z
" clip-path="url(#p23b753be84)" style="fill: #808080"/>
   </g>
   <g id="patch_80">
    <path d="M 323.816727 307.584 
L 327.063273 307.584 
L 327.063273 142.395429 
L 323.816727 142.395429 
z
" clip-path="url(#p23b753be84)" style="fill: #808080"/>
   </g>
   <g id="patch_81">
    <path d="M 327.063273 307.584 
L 330.309818 307.584 
L 330.309818 162.761143 
L 327.063273 162.761143 
z
" clip-path="url(#p23b753be84)" style="fill: #808080"/>
   </g>
   <g id="patch_82">
    <path d="M 330.309818 307.584 
L 333.556364 307.584 
L 333.556364 167.286857 
L 330.309818 167.286857 
z
" clip-path="url(#p23b753be84)" style="fill: #808080"/>
   </g>
   <g id="patch_83">
    <path d="M 333.556364 307.584 
L 336.802909 307.584 
L 336.802909 158.235429 
L 333.556364 158.235429 
z
" clip-path="url(#p23b753be84)" style="fill: #808080"/>
   </g>
   <g id="patch_84">
    <path d="M 336.802909 307.584 
L 340.049455 307.584 
L 340.049455 219.332571 
L 336.802909 219.332571 
z
" clip-path="url(#p23b753be84)" style="fill: #808080"/>
   </g>
   <g id="patch_85">
    <path d="M 340.049455 307.584 
L 343.296 307.584 
L 343.296 222.726857 
L 340.049455 222.726857 
z
" clip-path="url(#p23b753be84)" style="fill: #808080"/>
   </g>
   <g id="patch_86">
    <path d="M 343.296 307.584 
L 346.542545 307.584 
L 346.542545 244.224 
L 343.296 244.224 
z
" clip-path="url(#p23b753be84)" style="fill: #808080"/>
   </g>
   <g id="patch_87">
    <path d="M 346.542545 307.584 
L 349.789091 307.584 
L 349.789091 251.012571 
L 346.542545 251.012571 
z
" clip-path="url(#p23b753be84)" style="fill: #808080"/>
   </g>
   <g id="patch_88">
    <path d="M 349.789091 307.584 
L 353.035636 307.584 
L 353.035636 261.195429 
L 349.789091 261.195429 
z
" clip-path="url(#p23b753be84)" style="fill: #808080"/>
   </g>
   <g id="patch_89">
    <path d="M 353.035636 307.584 
L 356.282182 307.584 
L 356.282182 271.378286 
L 353.035636 271.378286 
z
" clip-path="url(#p23b753be84)" style="fill: #808080"/>
   </g>
   <g id="patch_90">
    <path d="M 356.282182 307.584 
L 359.528727 307.584 
L 359.528727 279.298286 
L 356.282182 279.298286 
z
" clip-path="url(#p23b753be84)" style="fill: #808080"/>
   </g>
   <g id="patch_91">
    <path d="M 359.528727 307.584 
L 362.775273 307.584 
L 362.775273 291.744 
L 359.528727 291.744 
z
" clip-path="url(#p23b753be84)" style="fill: #808080"/>
   </g>
   <g id="patch_92">
    <path d="M 362.775273 307.584 
L 366.021818 307.584 
L 366.021818 288.349714 
L 362.775273 288.349714 
z
" clip-path="url(#p23b753be84)" style="fill: #808080"/>
   </g>
   <g id="patch_93">
    <path d="M 366.021818 307.584 
L 369.268364 307.584 
L 369.268364 298.532571 
L 366.021818 298.532571 
z
" clip-path="url(#p23b753be84)" style="fill: #808080"/>
   </g>
   <g id="patch_94">
    <path d="M 369.268364 307.584 
L 372.514909 307.584 
L 372.514909 297.401143 
L 369.268364 297.401143 
z
" clip-path="url(#p23b753be84)" style="fill: #808080"/>
   </g>
   <g id="patch_95">
    <path d="M 372.514909 307.584 
L 375.761455 307.584 
L 375.761455 303.058286 
L 372.514909 303.058286 
z
" clip-path="url(#p23b753be84)" style="fill: #808080"/>
   </g>
   <g id="patch_96">
    <path d="M 375.761455 307.584 
L 379.008 307.584 
L 379.008 301.926857 
L 375.761455 301.926857 
z
" clip-path="url(#p23b753be84)" style="fill: #808080"/>
   </g>
   <g id="patch_97">
    <path d="M 379.008 307.584 
L 382.254545 307.584 
L 382.254545 304.189714 
L 379.008 304.189714 
z
" clip-path="url(#p23b753be84)" style="fill: #808080"/>
   </g>
   <g id="patch_98">
    <path d="M 382.254545 307.584 
L 385.501091 307.584 
L 385.501091 301.926857 
L 382.254545 301.926857 
z
" clip-path="url(#p23b753be84)" style="fill: #808080"/>
   </g>
   <g id="patch_99">
    <path d="M 385.501091 307.584 
L 388.747636 307.584 
L 388.747636 301.926857 
L 385.501091 301.926857 
z
" clip-path="url(#p23b753be84)" style="fill: #808080"/>
   </g>
   <g id="patch_100">
    <path d="M 388.747636 307.584 
L 391.994182 307.584 
L 391.994182 306.452571 
L 388.747636 306.452571 
z
" clip-path="url(#p23b753be84)" style="fill: #808080"/>
   </g>
   <g id="patch_101">
    <path d="M 391.994182 307.584 
L 395.240727 307.584 
L 395.240727 307.584 
L 391.994182 307.584 
z
" clip-path="url(#p23b753be84)" style="fill: #808080"/>
   </g>
   <g id="patch_102">
    <path d="M 395.240727 307.584 
L 398.487273 307.584 
L 398.487273 306.452571 
L 395.240727 306.452571 
z
" clip-path="url(#p23b753be84)" style="fill: #808080"/>
   </g>
   <g id="patch_103">
    <path d="M 73.832727 307.584 
L 77.079273 307.584 
L 77.079273 66.589714 
L 73.832727 66.589714 
z
" clip-path="url(#p23b753be84)" style="fill: #0000ff"/>
   </g>
   <g id="patch_104">
    <path d="M 77.079273 307.584 
L 80.325818 307.584 
L 80.325818 74.509714 
L 77.079273 74.509714 
z
" clip-path="url(#p23b753be84)" style="fill: #0000ff"/>
   </g>
   <g id="patch_105">
    <path d="M 80.325818 307.584 
L 83.572364 307.584 
L 83.572364 217.069714 
L 80.325818 217.069714 
z
" clip-path="url(#p23b753be84)" style="fill: #0000ff"/>
   </g>
   <g id="patch_106">
    <path d="M 83.572364 307.584 
L 86.818909 307.584 
L 86.818909 215.938286 
L 83.572364 215.938286 
z
" clip-path="url(#p23b753be84)" style="fill: #0000ff"/>
   </g>
   <g id="patch_107">
    <path d="M 86.818909 307.584 
L 90.065455 307.584 
L 90.065455 278.166857 
L 86.818909 278.166857 
z
" clip-path="url(#p23b753be84)" style="fill: #0000ff"/>
   </g>
   <g id="patch_108">
    <path d="M 90.065455 307.584 
L 93.312 307.584 
L 93.312 289.481143 
L 90.065455 289.481143 
z
" clip-path="url(#p23b753be84)" style="fill: #0000ff"/>
   </g>
   <g id="patch_109">
    <path d="M 93.312 307.584 
L 96.558545 307.584 
L 96.558545 295.138286 
L 93.312 295.138286 
z
" clip-path="url(#p23b753be84)" style="fill: #0000ff"/>
   </g>
   <g id="patch_110">
    <path d="M 96.558545 307.584 
L 99.805091 307.584 
L 99.805091 300.795429 
L 96.558545 300.795429 
z
" clip-path="url(#p23b753be84)" style="fill: #0000ff"/>
   </g>
   <g id="patch_111">
    <path d="M 99.805091 307.584 
L 103.051636 307.584 
L 103.051636 298.532571 
L 99.805091 298.532571 
z
" clip-path="url(#p23b753be84)" style="fill: #0000ff"/>
   </g>
   <g id="patch_112">
    <path d="M 103.051636 307.584 
L 106.298182 307.584 
L 106.298182 305.321143 
L 103.051636 305.321143 
z
" clip-path="url(#p23b753be84)" style="fill: #0000ff"/>
   </g>
   <g id="patch_113">
    <path d="M 106.298182 307.584 
L 109.544727 307.584 
L 109.544727 301.926857 
L 106.298182 301.926857 
z
" clip-path="url(#p23b753be84)" style="fill: #0000ff"/>
   </g>
   <g id="patch_114">
    <path d="M 109.544727 307.584 
L 112.791273 307.584 
L 112.791273 301.926857 
L 109.544727 301.926857 
z
" clip-path="url(#p23b753be84)" style="fill: #0000ff"/>
   </g>
   <g id="patch_115">
    <path d="M 112.791273 307.584 
L 116.037818 307.584 
L 116.037818 299.664 
L 112.791273 299.664 
z
" clip-path="url(#p23b753be84)" style="fill: #0000ff"/>
   </g>
   <g id="patch_116">
    <path d="M 116.037818 307.584 
L 119.284364 307.584 
L 119.284364 304.189714 
L 116.037818 304.189714 
z
" clip-path="url(#p23b753be84)" style="fill: #0000ff"/>
   </g>
   <g id="patch_117">
    <path d="M 119.284364 307.584 
L 122.530909 307.584 
L 122.530909 304.189714 
L 119.284364 304.189714 
z
" clip-path="url(#p23b753be84)" style="fill: #0000ff"/>
   </g>
   <g id="patch_118">
    <path d="M 122.530909 307.584 
L 125.777455 307.584 
L 125.777455 304.189714 
L 122.530909 304.189714 
z
" clip-path="url(#p23b753be84)" style="fill: #0000ff"/>
   </g>
   <g id="patch_119">
    <path d="M 125.777455 307.584 
L 129.024 307.584 
L 129.024 305.321143 
L 125.777455 305.321143 
z
" clip-path="url(#p23b753be84)" style="fill: #0000ff"/>
   </g>
   <g id="patch_120">
    <path d="M 129.024 307.584 
L 132.270545 307.584 
L 132.270545 301.926857 
L 129.024 301.926857 
z
" clip-path="url(#p23b753be84)" style="fill: #0000ff"/>
   </g>
   <g id="patch_121">
    <path d="M 132.270545 307.584 
L 135.517091 307.584 
L 135.517091 304.189714 
L 132.270545 304.189714 
z
" clip-path="url(#p23b753be84)" style="fill: #0000ff"/>
   </g>
   <g id="patch_122">
    <path d="M 135.517091 307.584 
L 138.763636 307.584 
L 138.763636 303.058286 
L 135.517091 303.058286 
z
" clip-path="url(#p23b753be84)" style="fill: #0000ff"/>
   </g>
   <g id="patch_123">
    <path d="M 138.763636 307.584 
L 142.010182 307.584 
L 142.010182 301.926857 
L 138.763636 301.926857 
z
" clip-path="url(#p23b753be84)" style="fill: #0000ff"/>
   </g>
   <g id="patch_124">
    <path d="M 142.010182 307.584 
L 145.256727 307.584 
L 145.256727 304.189714 
L 142.010182 304.189714 
z
" clip-path="url(#p23b753be84)" style="fill: #0000ff"/>
   </g>
   <g id="patch_125">
    <path d="M 145.256727 307.584 
L 148.503273 307.584 
L 148.503273 304.189714 
L 145.256727 304.189714 
z
" clip-path="url(#p23b753be84)" style="fill: #0000ff"/>
   </g>
   <g id="patch_126">
    <path d="M 148.503273 307.584 
L 151.749818 307.584 
L 151.749818 304.189714 
L 148.503273 304.189714 
z
" clip-path="url(#p23b753be84)" style="fill: #0000ff"/>
   </g>
   <g id="patch_127">
    <path d="M 151.749818 307.584 
L 154.996364 307.584 
L 154.996364 305.321143 
L 151.749818 305.321143 
z
" clip-path="url(#p23b753be84)" style="fill: #0000ff"/>
   </g>
   <g id="patch_128">
    <path d="M 154.996364 307.584 
L 158.242909 307.584 
L 158.242909 301.926857 
L 154.996364 301.926857 
z
" clip-path="url(#p23b753be84)" style="fill: #0000ff"/>
   </g>
   <g id="patch_129">
    <path d="M 158.242909 307.584 
L 161.489455 307.584 
L 161.489455 305.321143 
L 158.242909 305.321143 
z
" clip-path="url(#p23b753be84)" style="fill: #0000ff"/>
   </g>
   <g id="patch_130">
    <path d="M 161.489455 307.584 
L 164.736 307.584 
L 164.736 303.058286 
L 161.489455 303.058286 
z
" clip-path="url(#p23b753be84)" style="fill: #0000ff"/>
   </g>
   <g id="patch_131">
    <path d="M 164.736 307.584 
L 167.982545 307.584 
L 167.982545 304.189714 
L 164.736 304.189714 
z
" clip-path="url(#p23b753be84)" style="fill: #0000ff"/>
   </g>
   <g id="patch_132">
    <path d="M 167.982545 307.584 
L 171.229091 307.584 
L 171.229091 304.189714 
L 167.982545 304.189714 
z
" clip-path="url(#p23b753be84)" style="fill: #0000ff"/>
   </g>
   <g id="patch_133">
    <path d="M 171.229091 307.584 
L 174.475636 307.584 
L 174.475636 300.795429 
L 171.229091 300.795429 
z
" clip-path="url(#p23b753be84)" style="fill: #0000ff"/>
   </g>
   <g id="patch_134">
    <path d="M 174.475636 307.584 
L 177.722182 307.584 
L 177.722182 306.452571 
L 174.475636 306.452571 
z
" clip-path="url(#p23b753be84)" style="fill: #0000ff"/>
   </g>
   <g id="patch_135">
    <path d="M 177.722182 307.584 
L 180.968727 307.584 
L 180.968727 300.795429 
L 177.722182 300.795429 
z
" clip-path="url(#p23b753be84)" style="fill: #0000ff"/>
   </g>
   <g id="patch_136">
    <path d="M 180.968727 307.584 
L 184.215273 307.584 
L 184.215273 299.664 
L 180.968727 299.664 
z
" clip-path="url(#p23b753be84)" style="fill: #0000ff"/>
   </g>
   <g id="patch_137">
    <path d="M 184.215273 307.584 
L 187.461818 307.584 
L 187.461818 301.926857 
L 184.215273 301.926857 
z
" clip-path="url(#p23b753be84)" style="fill: #0000ff"/>
   </g>
   <g id="patch_138">
    <path d="M 187.461818 307.584 
L 190.708364 307.584 
L 190.708364 299.664 
L 187.461818 299.664 
z
" clip-path="url(#p23b753be84)" style="fill: #0000ff"/>
   </g>
   <g id="patch_139">
    <path d="M 190.708364 307.584 
L 193.954909 307.584 
L 193.954909 296.269714 
L 190.708364 296.269714 
z
" clip-path="url(#p23b753be84)" style="fill: #0000ff"/>
   </g>
   <g id="patch_140">
    <path d="M 193.954909 307.584 
L 197.201455 307.584 
L 197.201455 305.321143 
L 193.954909 305.321143 
z
" clip-path="url(#p23b753be84)" style="fill: #0000ff"/>
   </g>
   <g id="patch_141">
    <path d="M 197.201455 307.584 
L 200.448 307.584 
L 200.448 297.401143 
L 197.201455 297.401143 
z
" clip-path="url(#p23b753be84)" style="fill: #0000ff"/>
   </g>
   <g id="patch_142">
    <path d="M 200.448 307.584 
L 203.694545 307.584 
L 203.694545 300.795429 
L 200.448 300.795429 
z
" clip-path="url(#p23b753be84)" style="fill: #0000ff"/>
   </g>
   <g id="patch_143">
    <path d="M 203.694545 307.584 
L 206.941091 307.584 
L 206.941091 292.875429 
L 203.694545 292.875429 
z
" clip-path="url(#p23b753be84)" style="fill: #0000ff"/>
   </g>
   <g id="patch_144">
    <path d="M 206.941091 307.584 
L 210.187636 307.584 
L 210.187636 298.532571 
L 206.941091 298.532571 
z
" clip-path="url(#p23b753be84)" style="fill: #0000ff"/>
   </g>
   <g id="patch_145">
    <path d="M 210.187636 307.584 
L 213.434182 307.584 
L 213.434182 299.664 
L 210.187636 299.664 
z
" clip-path="url(#p23b753be84)" style="fill: #0000ff"/>
   </g>
   <g id="patch_146">
    <path d="M 213.434182 307.584 
L 216.680727 307.584 
L 216.680727 300.795429 
L 213.434182 300.795429 
z
" clip-path="url(#p23b753be84)" style="fill: #0000ff"/>
   </g>
   <g id="patch_147">
    <path d="M 216.680727 307.584 
L 219.927273 307.584 
L 219.927273 300.795429 
L 216.680727 300.795429 
z
" clip-path="url(#p23b753be84)" style="fill: #0000ff"/>
   </g>
   <g id="patch_148">
    <path d="M 219.927273 307.584 
L 223.173818 307.584 
L 223.173818 299.664 
L 219.927273 299.664 
z
" clip-path="url(#p23b753be84)" style="fill: #0000ff"/>
   </g>
   <g id="patch_149">
    <path d="M 223.173818 307.584 
L 226.420364 307.584 
L 226.420364 297.401143 
L 223.173818 297.401143 
z
" clip-path="url(#p23b753be84)" style="fill: #0000ff"/>
   </g>
   <g id="patch_150">
    <path d="M 226.420364 307.584 
L 229.666909 307.584 
L 229.666909 303.058286 
L 226.420364 303.058286 
z
" clip-path="url(#p23b753be84)" style="fill: #0000ff"/>
   </g>
   <g id="patch_151">
    <path d="M 229.666909 307.584 
L 232.913455 307.584 
L 232.913455 297.401143 
L 229.666909 297.401143 
z
" clip-path="url(#p23b753be84)" style="fill: #0000ff"/>
   </g>
   <g id="patch_152">
    <path d="M 232.913455 307.584 
L 236.16 307.584 
L 236.16 295.138286 
L 232.913455 295.138286 
z
" clip-path="url(#p23b753be84)" style="fill: #0000ff"/>
   </g>
   <g id="patch_153">
    <path d="M 236.16 307.584 
L 239.406545 307.584 
L 239.406545 292.875429 
L 236.16 292.875429 
z
" clip-path="url(#p23b753be84)" style="fill: #0000ff"/>
   </g>
   <g id="patch_154">
    <path d="M 239.406545 307.584 
L 242.653091 307.584 
L 242.653091 297.401143 
L 239.406545 297.401143 
z
" clip-path="url(#p23b753be84)" style="fill: #0000ff"/>
   </g>
   <g id="patch_155">
    <path d="M 242.653091 307.584 
L 245.899636 307.584 
L 245.899636 289.481143 
L 242.653091 289.481143 
z
" clip-path="url(#p23b753be84)" style="fill: #0000ff"/>
   </g>
   <g id="patch_156">
    <path d="M 245.899636 307.584 
L 249.146182 307.584 
L 249.146182 286.086857 
L 245.899636 286.086857 
z
" clip-path="url(#p23b753be84)" style="fill: #0000ff"/>
   </g>
   <g id="patch_157">
    <path d="M 249.146182 307.584 
L 252.392727 307.584 
L 252.392727 286.086857 
L 249.146182 286.086857 
z
" clip-path="url(#p23b753be84)" style="fill: #0000ff"/>
   </g>
   <g id="patch_158">
    <path d="M 252.392727 307.584 
L 255.639273 307.584 
L 255.639273 283.824 
L 252.392727 283.824 
z
" clip-path="url(#p23b753be84)" style="fill: #0000ff"/>
   </g>
   <g id="patch_159">
    <path d="M 255.639273 307.584 
L 258.885818 307.584 
L 258.885818 273.641143 
L 255.639273 273.641143 
z
" clip-path="url(#p23b753be84)" style="fill: #0000ff"/>
   </g>
   <g id="patch_160">
    <path d="M 258.885818 307.584 
L 262.132364 307.584 
L 262.132364 257.801143 
L 258.885818 257.801143 
z
" clip-path="url(#p23b753be84)" style="fill: #0000ff"/>
   </g>
   <g id="patch_161">
    <path d="M 262.132364 307.584 
L 265.378909 307.584 
L 265.378909 261.195429 
L 262.132364 261.195429 
z
" clip-path="url(#p23b753be84)" style="fill: #0000ff"/>
   </g>
   <g id="patch_162">
    <path d="M 265.378909 307.584 
L 268.625455 307.584 
L 268.625455 261.195429 
L 265.378909 261.195429 
z
" clip-path="url(#p23b753be84)" style="fill: #0000ff"/>
   </g>
   <g id="patch_163">
    <path d="M 268.625455 307.584 
L 271.872 307.584 
L 271.872 213.675429 
L 268.625455 213.675429 
z
" clip-path="url(#p23b753be84)" style="fill: #0000ff"/>
   </g>
   <g id="patch_164">
    <path d="M 271.872 307.584 
L 275.118545 307.584 
L 275.118545 239.698286 
L 271.872 239.698286 
z
" clip-path="url(#p23b753be84)" style="fill: #0000ff"/>
   </g>
   <g id="patch_165">
    <path d="M 275.118545 307.584 
L 278.365091 307.584 
L 278.365091 223.858286 
L 275.118545 223.858286 
z
" clip-path="url(#p23b753be84)" style="fill: #0000ff"/>
   </g>
   <g id="patch_166">
    <path d="M 278.365091 307.584 
L 281.611636 307.584 
L 281.611636 202.361143 
L 278.365091 202.361143 
z
" clip-path="url(#p23b753be84)" style="fill: #0000ff"/>
   </g>
   <g id="patch_167">
    <path d="M 281.611636 307.584 
L 284.858182 307.584 
L 284.858182 202.361143 
L 281.611636 202.361143 
z
" clip-path="url(#p23b753be84)" style="fill: #0000ff"/>
   </g>
   <g id="patch_168">
    <path d="M 284.858182 307.584 
L 288.104727 307.584 
L 288.104727 178.601143 
L 284.858182 178.601143 
z
" clip-path="url(#p23b753be84)" style="fill: #0000ff"/>
   </g>
   <g id="patch_169">
    <path d="M 288.104727 307.584 
L 291.351273 307.584 
L 291.351273 189.915429 
L 288.104727 189.915429 
z
" clip-path="url(#p23b753be84)" style="fill: #0000ff"/>
   </g>
   <g id="patch_170">
    <path d="M 291.351273 307.584 
L 294.597818 307.584 
L 294.597818 151.446857 
L 291.351273 151.446857 
z
" clip-path="url(#p23b753be84)" style="fill: #0000ff"/>
   </g>
   <g id="patch_171">
    <path d="M 294.597818 307.584 
L 297.844364 307.584 
L 297.844364 165.024 
L 294.597818 165.024 
z
" clip-path="url(#p23b753be84)" style="fill: #0000ff"/>
   </g>
   <g id="patch_172">
    <path d="M 297.844364 307.584 
L 301.090909 307.584 
L 301.090909 200.098286 
L 297.844364 200.098286 
z
" clip-path="url(#p23b753be84)" style="fill: #0000ff"/>
   </g>
   <g id="patch_173">
    <path d="M 301.090909 307.584 
L 304.337455 307.584 
L 304.337455 188.784 
L 301.090909 188.784 
z
" clip-path="url(#p23b753be84)" style="fill: #0000ff"/>
   </g>
   <g id="patch_174">
    <path d="M 304.337455 307.584 
L 307.584 307.584 
L 307.584 218.201143 
L 304.337455 218.201143 
z
" clip-path="url(#p23b753be84)" style="fill: #0000ff"/>
   </g>
   <g id="patch_175">
    <path d="M 307.584 307.584 
L 310.830545 307.584 
L 310.830545 202.361143 
L 307.584 202.361143 
z
" clip-path="url(#p23b753be84)" style="fill: #0000ff"/>
   </g>
   <g id="patch_176">
    <path d="M 310.830545 307.584 
L 314.077091 307.584 
L 314.077091 180.864 
L 310.830545 180.864 
z
" clip-path="url(#p23b753be84)" style="fill: #0000ff"/>
   </g>
   <g id="patch_177">
    <path d="M 314.077091 307.584 
L 317.323636 307.584 
L 317.323636 179.732571 
L 314.077091 179.732571 
z
" clip-path="url(#p23b753be84)" style="fill: #0000ff"/>
   </g>
   <g id="patch_178">
    <path d="M 317.323636 307.584 
L 320.570182 307.584 
L 320.570182 177.469714 
L 317.323636 177.469714 
z
" clip-path="url(#p23b753be84)" style="fill: #0000ff"/>
   </g>
   <g id="patch_179">
    <path d="M 320.570182 307.584 
L 323.816727 307.584 
L 323.816727 160.498286 
L 320.570182 160.498286 
z
" clip-path="url(#p23b753be84)" style="fill: #0000ff"/>
   </g>
   <g id="patch_180">
    <path d="M 323.816727 307.584 
L 327.063273 307.584 
L 327.063273 155.972571 
L 323.816727 155.972571 
z
" clip-path="url(#p23b753be84)" style="fill: #0000ff"/>
   </g>
   <g id="patch_181">
    <path d="M 327.063273 307.584 
L 330.309818 307.584 
L 330.309818 166.155429 
L 327.063273 166.155429 
z
" clip-path="url(#p23b753be84)" style="fill: #0000ff"/>
   </g>
   <g id="patch_182">
    <path d="M 330.309818 307.584 
L 333.556364 307.584 
L 333.556364 168.418286 
L 330.309818 168.418286 
z
" clip-path="url(#p23b753be84)" style="fill: #0000ff"/>
   </g>
   <g id="patch_183">
    <path d="M 333.556364 307.584 
L 336.802909 307.584 
L 336.802909 162.761143 
L 333.556364 162.761143 
z
" clip-path="url(#p23b753be84)" style="fill: #0000ff"/>
   </g>
   <g id="patch_184">
    <path d="M 336.802909 307.584 
L 340.049455 307.584 
L 340.049455 226.121143 
L 336.802909 226.121143 
z
" clip-path="url(#p23b753be84)" style="fill: #0000ff"/>
   </g>
   <g id="patch_185">
    <path d="M 340.049455 307.584 
L 343.296 307.584 
L 343.296 224.989714 
L 340.049455 224.989714 
z
" clip-path="url(#p23b753be84)" style="fill: #0000ff"/>
   </g>
   <g id="patch_186">
    <path d="M 343.296 307.584 
L 346.542545 307.584 
L 346.542545 245.355429 
L 343.296 245.355429 
z
" clip-path="url(#p23b753be84)" style="fill: #0000ff"/>
   </g>
   <g id="patch_187">
    <path d="M 346.542545 307.584 
L 349.789091 307.584 
L 349.789091 252.144 
L 346.542545 252.144 
z
" clip-path="url(#p23b753be84)" style="fill: #0000ff"/>
   </g>
   <g id="patch_188">
    <path d="M 349.789091 307.584 
L 353.035636 307.584 
L 353.035636 261.195429 
L 349.789091 261.195429 
z
" clip-path="url(#p23b753be84)" style="fill: #0000ff"/>
   </g>
   <g id="patch_189">
    <path d="M 353.035636 307.584 
L 356.282182 307.584 
L 356.282182 271.378286 
L 353.035636 271.378286 
z
" clip-path="url(#p23b753be84)" style="fill: #0000ff"/>
   </g>
   <g id="patch_190">
    <path d="M 356.282182 307.584 
L 359.528727 307.584 
L 359.528727 279.298286 
L 356.282182 279.298286 
z
" clip-path="url(#p23b753be84)" style="fill: #0000ff"/>
   </g>
   <g id="patch_191">
    <path d="M 359.528727 307.584 
L 362.775273 307.584 
L 362.775273 291.744 
L 359.528727 291.744 
z
" clip-path="url(#p23b753be84)" style="fill: #0000ff"/>
   </g>
   <g id="patch_192">
    <path d="M 362.775273 307.584 
L 366.021818 307.584 
L 366.021818 288.349714 
L 362.775273 288.349714 
z
" clip-path="url(#p23b753be84)" style="fill: #0000ff"/>
   </g>
   <g id="patch_193">
    <path d="M 366.021818 307.584 
L 369.268364 307.584 
L 369.268364 298.532571 
L 366.021818 298.532571 
z
" clip-path="url(#p23b753be84)" style="fill: #0000ff"/>
   </g>
   <g id="patch_194">
    <path d="M 369.268364 307.584 
L 372.514909 307.584 
L 372.514909 297.401143 
L 369.268364 297.401143 
z
" clip-path="url(#p23b753be84)" style="fill: #0000ff"/>
   </g>
   <g id="patch_195">
    <path d="M 372.514909 307.584 
L 375.761455 307.584 
L 375.761455 303.058286 
L 372.514909 303.058286 
z
" clip-path="url(#p23b753be84)" style="fill: #0000ff"/>
   </g>
   <g id="patch_196">
    <path d="M 375.761455 307.584 
L 379.008 307.584 
L 379.008 301.926857 
L 375.761455 301.926857 
z
" clip-path="url(#p23b753be84)" style="fill: #0000ff"/>
   </g>
   <g id="patch_197">
    <path d="M 379.008 307.584 
L 382.254545 307.584 
L 382.254545 304.189714 
L 379.008 304.189714 
z
" clip-path="url(#p23b753be84)" style="fill: #0000ff"/>
   </g>
   <g id="patch_198">
    <path d="M 382.254545 307.584 
L 385.501091 307.584 
L 385.501091 301.926857 
L 382.254545 301.926857 
z
" clip-path="url(#p23b753be84)" style="fill: #0000ff"/>
   </g>
   <g id="patch_199">
    <path d="M 385.501091 307.584 
L 388.747636 307.584 
L 388.747636 301.926857 
L 385.501091 301.926857 
z
" clip-path="url(#p23b753be84)" style="fill: #0000ff"/>
   </g>
   <g id="patch_200">
    <path d="M 388.747636 307.584 
L 391.994182 307.584 
L 391.994182 306.452571 
L 388.747636 306.452571 
z
" clip-path="url(#p23b753be84)" style="fill: #0000ff"/>
   </g>
   <g id="patch_201">
    <path d="M 391.994182 307.584 
L 395.240727 307.584 
L 395.240727 307.584 
L 391.994182 307.584 
z
" clip-path="url(#p23b753be84)" style="fill: #0000ff"/>
   </g>
   <g id="patch_202">
    <path d="M 395.240727 307.584 
L 398.487273 307.584 
L 398.487273 306.452571 
L 395.240727 306.452571 
z
" clip-path="url(#p23b753be84)" style="fill: #0000ff"/>
   </g>
   <g id="matplotlib.axis_1">
    <g id="xtick_1">
     <g id="line2d_1">
      <defs>
       <path id="m070216b455" d="M 0 0 
L 0 3.5 
" style="stroke: #000000; stroke-width: 0.8"/>
      </defs>
      <g>
       <use xlink:href="#m070216b455" x="73.832727" y="307.584" style="stroke: #000000; stroke-width: 0.8"/>
      </g>
     </g>
     <g id="text_1">
      <!-- 0.0 -->
      <g transform="translate(61.322727 327.468062) scale(0.18 -0.18)">
       <defs>
        <path id="ArialMT-30" d="M 266 2259 
Q 266 3072 433 3567 
Q 600 4063 929 4331 
Q 1259 4600 1759 4600 
Q 2128 4600 2406 4451 
Q 2684 4303 2865 4023 
Q 3047 3744 3150 3342 
Q 3253 2941 3253 2259 
Q 3253 1453 3087 958 
Q 2922 463 2592 192 
Q 2263 -78 1759 -78 
Q 1097 -78 719 397 
Q 266 969 266 2259 
z
M 844 2259 
Q 844 1131 1108 757 
Q 1372 384 1759 384 
Q 2147 384 2411 759 
Q 2675 1134 2675 2259 
Q 2675 3391 2411 3762 
Q 2147 4134 1753 4134 
Q 1366 4134 1134 3806 
Q 844 3388 844 2259 
z
" transform="scale(0.015625)"/>
        <path id="ArialMT-2e" d="M 581 0 
L 581 641 
L 1222 641 
L 1222 0 
L 581 0 
z
" transform="scale(0.015625)"/>
       </defs>
       <use xlink:href="#ArialMT-30"/>
       <use xlink:href="#ArialMT-2e" x="55.615234"/>
       <use xlink:href="#ArialMT-30" x="83.398438"/>
      </g>
     </g>
    </g>
    <g id="xtick_2">
     <g id="line2d_2">
      <g>
       <use xlink:href="#m070216b455" x="166.653423" y="307.584" style="stroke: #000000; stroke-width: 0.8"/>
      </g>
     </g>
     <g id="text_2">
      <!-- 0.2 -->
      <g transform="translate(154.143423 327.468062) scale(0.18 -0.18)">
       <defs>
        <path id="ArialMT-32" d="M 3222 541 
L 3222 0 
L 194 0 
Q 188 203 259 391 
Q 375 700 629 1000 
Q 884 1300 1366 1694 
Q 2113 2306 2375 2664 
Q 2638 3022 2638 3341 
Q 2638 3675 2398 3904 
Q 2159 4134 1775 4134 
Q 1369 4134 1125 3890 
Q 881 3647 878 3216 
L 300 3275 
Q 359 3922 746 4261 
Q 1134 4600 1788 4600 
Q 2447 4600 2831 4234 
Q 3216 3869 3216 3328 
Q 3216 3053 3103 2787 
Q 2991 2522 2730 2228 
Q 2469 1934 1863 1422 
Q 1356 997 1212 845 
Q 1069 694 975 541 
L 3222 541 
z
" transform="scale(0.015625)"/>
       </defs>
       <use xlink:href="#ArialMT-30"/>
       <use xlink:href="#ArialMT-2e" x="55.615234"/>
       <use xlink:href="#ArialMT-32" x="83.398438"/>
      </g>
     </g>
    </g>
    <g id="xtick_3">
     <g id="line2d_3">
      <g>
       <use xlink:href="#m070216b455" x="259.474118" y="307.584" style="stroke: #000000; stroke-width: 0.8"/>
      </g>
     </g>
     <g id="text_3">
      <!-- 0.4 -->
      <g transform="translate(246.964118 327.468062) scale(0.18 -0.18)">
       <defs>
        <path id="ArialMT-34" d="M 2069 0 
L 2069 1097 
L 81 1097 
L 81 1613 
L 2172 4581 
L 2631 4581 
L 2631 1613 
L 3250 1613 
L 3250 1097 
L 2631 1097 
L 2631 0 
L 2069 0 
z
M 2069 1613 
L 2069 3678 
L 634 1613 
L 2069 1613 
z
" transform="scale(0.015625)"/>
       </defs>
       <use xlink:href="#ArialMT-30"/>
       <use xlink:href="#ArialMT-2e" x="55.615234"/>
       <use xlink:href="#ArialMT-34" x="83.398438"/>
      </g>
     </g>
    </g>
    <g id="xtick_4">
     <g id="line2d_4">
      <g>
       <use xlink:href="#m070216b455" x="352.294814" y="307.584" style="stroke: #000000; stroke-width: 0.8"/>
      </g>
     </g>
     <g id="text_4">
      <!-- 0.6 -->
      <g transform="translate(339.784814 327.468062) scale(0.18 -0.18)">
       <defs>
        <path id="ArialMT-36" d="M 3184 3459 
L 2625 3416 
Q 2550 3747 2413 3897 
Q 2184 4138 1850 4138 
Q 1581 4138 1378 3988 
Q 1113 3794 959 3422 
Q 806 3050 800 2363 
Q 1003 2672 1297 2822 
Q 1591 2972 1913 2972 
Q 2475 2972 2870 2558 
Q 3266 2144 3266 1488 
Q 3266 1056 3080 686 
Q 2894 316 2569 119 
Q 2244 -78 1831 -78 
Q 1128 -78 684 439 
Q 241 956 241 2144 
Q 241 3472 731 4075 
Q 1159 4600 1884 4600 
Q 2425 4600 2770 4297 
Q 3116 3994 3184 3459 
z
M 888 1484 
Q 888 1194 1011 928 
Q 1134 663 1356 523 
Q 1578 384 1822 384 
Q 2178 384 2434 671 
Q 2691 959 2691 1453 
Q 2691 1928 2437 2201 
Q 2184 2475 1800 2475 
Q 1419 2475 1153 2201 
Q 888 1928 888 1484 
z
" transform="scale(0.015625)"/>
       </defs>
       <use xlink:href="#ArialMT-30"/>
       <use xlink:href="#ArialMT-2e" x="55.615234"/>
       <use xlink:href="#ArialMT-36" x="83.398438"/>
      </g>
     </g>
    </g>
    <g id="text_5">
     <!-- Pixel intensity before washing -->
     <g transform="translate(117.601875 348.149) scale(0.18 -0.18)">
      <defs>
       <path id="ArialMT-50" d="M 494 0 
L 494 4581 
L 2222 4581 
Q 2678 4581 2919 4538 
Q 3256 4481 3484 4323 
Q 3713 4166 3852 3881 
Q 3991 3597 3991 3256 
Q 3991 2672 3619 2267 
Q 3247 1863 2275 1863 
L 1100 1863 
L 1100 0 
L 494 0 
z
M 1100 2403 
L 2284 2403 
Q 2872 2403 3119 2622 
Q 3366 2841 3366 3238 
Q 3366 3525 3220 3729 
Q 3075 3934 2838 4000 
Q 2684 4041 2272 4041 
L 1100 4041 
L 1100 2403 
z
" transform="scale(0.015625)"/>
       <path id="ArialMT-69" d="M 425 3934 
L 425 4581 
L 988 4581 
L 988 3934 
L 425 3934 
z
M 425 0 
L 425 3319 
L 988 3319 
L 988 0 
L 425 0 
z
" transform="scale(0.015625)"/>
       <path id="ArialMT-78" d="M 47 0 
L 1259 1725 
L 138 3319 
L 841 3319 
L 1350 2541 
Q 1494 2319 1581 2169 
Q 1719 2375 1834 2534 
L 2394 3319 
L 3066 3319 
L 1919 1756 
L 3153 0 
L 2463 0 
L 1781 1031 
L 1600 1309 
L 728 0 
L 47 0 
z
" transform="scale(0.015625)"/>
       <path id="ArialMT-65" d="M 2694 1069 
L 3275 997 
Q 3138 488 2766 206 
Q 2394 -75 1816 -75 
Q 1088 -75 661 373 
Q 234 822 234 1631 
Q 234 2469 665 2931 
Q 1097 3394 1784 3394 
Q 2450 3394 2872 2941 
Q 3294 2488 3294 1666 
Q 3294 1616 3291 1516 
L 816 1516 
Q 847 969 1125 678 
Q 1403 388 1819 388 
Q 2128 388 2347 550 
Q 2566 713 2694 1069 
z
M 847 1978 
L 2700 1978 
Q 2663 2397 2488 2606 
Q 2219 2931 1791 2931 
Q 1403 2931 1139 2672 
Q 875 2413 847 1978 
z
" transform="scale(0.015625)"/>
       <path id="ArialMT-6c" d="M 409 0 
L 409 4581 
L 972 4581 
L 972 0 
L 409 0 
z
" transform="scale(0.015625)"/>
       <path id="ArialMT-20" transform="scale(0.015625)"/>
       <path id="ArialMT-6e" d="M 422 0 
L 422 3319 
L 928 3319 
L 928 2847 
Q 1294 3394 1984 3394 
Q 2284 3394 2536 3286 
Q 2788 3178 2913 3003 
Q 3038 2828 3088 2588 
Q 3119 2431 3119 2041 
L 3119 0 
L 2556 0 
L 2556 2019 
Q 2556 2363 2490 2533 
Q 2425 2703 2258 2804 
Q 2091 2906 1866 2906 
Q 1506 2906 1245 2678 
Q 984 2450 984 1813 
L 984 0 
L 422 0 
z
" transform="scale(0.015625)"/>
       <path id="ArialMT-74" d="M 1650 503 
L 1731 6 
Q 1494 -44 1306 -44 
Q 1000 -44 831 53 
Q 663 150 594 308 
Q 525 466 525 972 
L 525 2881 
L 113 2881 
L 113 3319 
L 525 3319 
L 525 4141 
L 1084 4478 
L 1084 3319 
L 1650 3319 
L 1650 2881 
L 1084 2881 
L 1084 941 
Q 1084 700 1114 631 
Q 1144 563 1211 522 
Q 1278 481 1403 481 
Q 1497 481 1650 503 
z
" transform="scale(0.015625)"/>
       <path id="ArialMT-73" d="M 197 991 
L 753 1078 
Q 800 744 1014 566 
Q 1228 388 1613 388 
Q 2000 388 2187 545 
Q 2375 703 2375 916 
Q 2375 1106 2209 1216 
Q 2094 1291 1634 1406 
Q 1016 1563 777 1677 
Q 538 1791 414 1992 
Q 291 2194 291 2438 
Q 291 2659 392 2848 
Q 494 3038 669 3163 
Q 800 3259 1026 3326 
Q 1253 3394 1513 3394 
Q 1903 3394 2198 3281 
Q 2494 3169 2634 2976 
Q 2775 2784 2828 2463 
L 2278 2388 
Q 2241 2644 2061 2787 
Q 1881 2931 1553 2931 
Q 1166 2931 1000 2803 
Q 834 2675 834 2503 
Q 834 2394 903 2306 
Q 972 2216 1119 2156 
Q 1203 2125 1616 2013 
Q 2213 1853 2448 1751 
Q 2684 1650 2818 1456 
Q 2953 1263 2953 975 
Q 2953 694 2789 445 
Q 2625 197 2315 61 
Q 2006 -75 1616 -75 
Q 969 -75 630 194 
Q 291 463 197 991 
z
" transform="scale(0.015625)"/>
       <path id="ArialMT-79" d="M 397 -1278 
L 334 -750 
Q 519 -800 656 -800 
Q 844 -800 956 -737 
Q 1069 -675 1141 -563 
Q 1194 -478 1313 -144 
Q 1328 -97 1363 -6 
L 103 3319 
L 709 3319 
L 1400 1397 
Q 1534 1031 1641 628 
Q 1738 1016 1872 1384 
L 2581 3319 
L 3144 3319 
L 1881 -56 
Q 1678 -603 1566 -809 
Q 1416 -1088 1222 -1217 
Q 1028 -1347 759 -1347 
Q 597 -1347 397 -1278 
z
" transform="scale(0.015625)"/>
       <path id="ArialMT-62" d="M 941 0 
L 419 0 
L 419 4581 
L 981 4581 
L 981 2947 
Q 1338 3394 1891 3394 
Q 2197 3394 2470 3270 
Q 2744 3147 2920 2923 
Q 3097 2700 3197 2384 
Q 3297 2069 3297 1709 
Q 3297 856 2875 390 
Q 2453 -75 1863 -75 
Q 1275 -75 941 416 
L 941 0 
z
M 934 1684 
Q 934 1088 1097 822 
Q 1363 388 1816 388 
Q 2184 388 2453 708 
Q 2722 1028 2722 1663 
Q 2722 2313 2464 2622 
Q 2206 2931 1841 2931 
Q 1472 2931 1203 2611 
Q 934 2291 934 1684 
z
" transform="scale(0.015625)"/>
       <path id="ArialMT-66" d="M 556 0 
L 556 2881 
L 59 2881 
L 59 3319 
L 556 3319 
L 556 3672 
Q 556 4006 616 4169 
Q 697 4388 901 4523 
Q 1106 4659 1475 4659 
Q 1713 4659 2000 4603 
L 1916 4113 
Q 1741 4144 1584 4144 
Q 1328 4144 1222 4034 
Q 1116 3925 1116 3625 
L 1116 3319 
L 1763 3319 
L 1763 2881 
L 1116 2881 
L 1116 0 
L 556 0 
z
" transform="scale(0.015625)"/>
       <path id="ArialMT-6f" d="M 213 1659 
Q 213 2581 725 3025 
Q 1153 3394 1769 3394 
Q 2453 3394 2887 2945 
Q 3322 2497 3322 1706 
Q 3322 1066 3130 698 
Q 2938 331 2570 128 
Q 2203 -75 1769 -75 
Q 1072 -75 642 372 
Q 213 819 213 1659 
z
M 791 1659 
Q 791 1022 1069 705 
Q 1347 388 1769 388 
Q 2188 388 2466 706 
Q 2744 1025 2744 1678 
Q 2744 2294 2464 2611 
Q 2184 2928 1769 2928 
Q 1347 2928 1069 2612 
Q 791 2297 791 1659 
z
" transform="scale(0.015625)"/>
       <path id="ArialMT-72" d="M 416 0 
L 416 3319 
L 922 3319 
L 922 2816 
Q 1116 3169 1280 3281 
Q 1444 3394 1641 3394 
Q 1925 3394 2219 3213 
L 2025 2691 
Q 1819 2813 1613 2813 
Q 1428 2813 1281 2702 
Q 1134 2591 1072 2394 
Q 978 2094 978 1738 
L 978 0 
L 416 0 
z
" transform="scale(0.015625)"/>
       <path id="ArialMT-77" d="M 1034 0 
L 19 3319 
L 600 3319 
L 1128 1403 
L 1325 691 
Q 1338 744 1497 1375 
L 2025 3319 
L 2603 3319 
L 3100 1394 
L 3266 759 
L 3456 1400 
L 4025 3319 
L 4572 3319 
L 3534 0 
L 2950 0 
L 2422 1988 
L 2294 2553 
L 1622 0 
L 1034 0 
z
" transform="scale(0.015625)"/>
       <path id="ArialMT-61" d="M 2588 409 
Q 2275 144 1986 34 
Q 1697 -75 1366 -75 
Q 819 -75 525 192 
Q 231 459 231 875 
Q 231 1119 342 1320 
Q 453 1522 633 1644 
Q 813 1766 1038 1828 
Q 1203 1872 1538 1913 
Q 2219 1994 2541 2106 
Q 2544 2222 2544 2253 
Q 2544 2597 2384 2738 
Q 2169 2928 1744 2928 
Q 1347 2928 1158 2789 
Q 969 2650 878 2297 
L 328 2372 
Q 403 2725 575 2942 
Q 747 3159 1072 3276 
Q 1397 3394 1825 3394 
Q 2250 3394 2515 3294 
Q 2781 3194 2906 3042 
Q 3031 2891 3081 2659 
Q 3109 2516 3109 2141 
L 3109 1391 
Q 3109 606 3145 398 
Q 3181 191 3288 0 
L 2700 0 
Q 2613 175 2588 409 
z
M 2541 1666 
Q 2234 1541 1622 1453 
Q 1275 1403 1131 1340 
Q 988 1278 909 1158 
Q 831 1038 831 891 
Q 831 666 1001 516 
Q 1172 366 1500 366 
Q 1825 366 2078 508 
Q 2331 650 2450 897 
Q 2541 1088 2541 1459 
L 2541 1666 
z
" transform="scale(0.015625)"/>
       <path id="ArialMT-68" d="M 422 0 
L 422 4581 
L 984 4581 
L 984 2938 
Q 1378 3394 1978 3394 
Q 2347 3394 2619 3248 
Q 2891 3103 3008 2847 
Q 3125 2591 3125 2103 
L 3125 0 
L 2563 0 
L 2563 2103 
Q 2563 2525 2380 2717 
Q 2197 2909 1863 2909 
Q 1613 2909 1392 2779 
Q 1172 2650 1078 2428 
Q 984 2206 984 1816 
L 984 0 
L 422 0 
z
" transform="scale(0.015625)"/>
       <path id="ArialMT-67" d="M 319 -275 
L 866 -356 
Q 900 -609 1056 -725 
Q 1266 -881 1628 -881 
Q 2019 -881 2231 -725 
Q 2444 -569 2519 -288 
Q 2563 -116 2559 434 
Q 2191 0 1641 0 
Q 956 0 581 494 
Q 206 988 206 1678 
Q 206 2153 378 2554 
Q 550 2956 876 3175 
Q 1203 3394 1644 3394 
Q 2231 3394 2613 2919 
L 2613 3319 
L 3131 3319 
L 3131 450 
Q 3131 -325 2973 -648 
Q 2816 -972 2473 -1159 
Q 2131 -1347 1631 -1347 
Q 1038 -1347 672 -1080 
Q 306 -813 319 -275 
z
M 784 1719 
Q 784 1066 1043 766 
Q 1303 466 1694 466 
Q 2081 466 2343 764 
Q 2606 1063 2606 1700 
Q 2606 2309 2336 2618 
Q 2066 2928 1684 2928 
Q 1309 2928 1046 2623 
Q 784 2319 784 1719 
z
" transform="scale(0.015625)"/>
      </defs>
      <use xlink:href="#ArialMT-50"/>
      <use xlink:href="#ArialMT-69" x="66.699219"/>
      <use xlink:href="#ArialMT-78" x="88.916016"/>
      <use xlink:href="#ArialMT-65" x="138.916016"/>
      <use xlink:href="#ArialMT-6c" x="194.53125"/>
      <use xlink:href="#ArialMT-20" x="216.748047"/>
      <use xlink:href="#ArialMT-69" x="244.53125"/>
      <use xlink:href="#ArialMT-6e" x="266.748047"/>
      <use xlink:href="#ArialMT-74" x="322.363281"/>
      <use xlink:href="#ArialMT-65" x="350.146484"/>
      <use xlink:href="#ArialMT-6e" x="405.761719"/>
      <use xlink:href="#ArialMT-73" x="461.376953"/>
      <use xlink:href="#ArialMT-69" x="511.376953"/>
      <use xlink:href="#ArialMT-74" x="533.59375"/>
      <use xlink:href="#ArialMT-79" x="561.376953"/>
      <use xlink:href="#ArialMT-20" x="611.376953"/>
      <use xlink:href="#ArialMT-62" x="639.160156"/>
      <use xlink:href="#ArialMT-65" x="694.775391"/>
      <use xlink:href="#ArialMT-66" x="750.390625"/>
      <use xlink:href="#ArialMT-6f" x="778.173828"/>
      <use xlink:href="#ArialMT-72" x="833.789062"/>
      <use xlink:href="#ArialMT-65" x="867.089844"/>
      <use xlink:href="#ArialMT-20" x="922.705078"/>
      <use xlink:href="#ArialMT-77" x="950.488281"/>
      <use xlink:href="#ArialMT-61" x="1022.705078"/>
      <use xlink:href="#ArialMT-73" x="1078.320312"/>
      <use xlink:href="#ArialMT-68" x="1128.320312"/>
      <use xlink:href="#ArialMT-69" x="1183.935547"/>
      <use xlink:href="#ArialMT-6e" x="1206.152344"/>
      <use xlink:href="#ArialMT-67" x="1261.767578"/>
     </g>
    </g>
   </g>
   <g id="matplotlib.axis_2">
    <g id="ytick_1">
     <g id="line2d_5">
      <defs>
       <path id="m7e3b8fd72e" d="M 0 0 
L -3.5 0 
" style="stroke: #000000; stroke-width: 0.8"/>
      </defs>
      <g>
       <use xlink:href="#m7e3b8fd72e" x="57.6" y="307.584" style="stroke: #000000; stroke-width: 0.8"/>
      </g>
     </g>
     <g id="text_6">
      <!-- 0 -->
      <g transform="translate(40.590313 314.026031) scale(0.18 -0.18)">
       <use xlink:href="#ArialMT-30"/>
      </g>
     </g>
    </g>
    <g id="ytick_2">
     <g id="line2d_6">
      <g>
       <use xlink:href="#m7e3b8fd72e" x="57.6" y="251.012571" style="stroke: #000000; stroke-width: 0.8"/>
      </g>
     </g>
     <g id="text_7">
      <!-- 50 -->
      <g transform="translate(30.580625 257.454603) scale(0.18 -0.18)">
       <defs>
        <path id="ArialMT-35" d="M 266 1200 
L 856 1250 
Q 922 819 1161 601 
Q 1400 384 1738 384 
Q 2144 384 2425 690 
Q 2706 997 2706 1503 
Q 2706 1984 2436 2262 
Q 2166 2541 1728 2541 
Q 1456 2541 1237 2417 
Q 1019 2294 894 2097 
L 366 2166 
L 809 4519 
L 3088 4519 
L 3088 3981 
L 1259 3981 
L 1013 2750 
Q 1425 3038 1878 3038 
Q 2478 3038 2890 2622 
Q 3303 2206 3303 1553 
Q 3303 931 2941 478 
Q 2500 -78 1738 -78 
Q 1113 -78 717 272 
Q 322 622 266 1200 
z
" transform="scale(0.015625)"/>
       </defs>
       <use xlink:href="#ArialMT-35"/>
       <use xlink:href="#ArialMT-30" x="55.615234"/>
      </g>
     </g>
    </g>
    <g id="ytick_3">
     <g id="line2d_7">
      <g>
       <use xlink:href="#m7e3b8fd72e" x="57.6" y="194.441143" style="stroke: #000000; stroke-width: 0.8"/>
      </g>
     </g>
     <g id="text_8">
      <!-- 100 -->
      <g transform="translate(20.570938 200.883174) scale(0.18 -0.18)">
       <defs>
        <path id="ArialMT-31" d="M 2384 0 
L 1822 0 
L 1822 3584 
Q 1619 3391 1289 3197 
Q 959 3003 697 2906 
L 697 3450 
Q 1169 3672 1522 3987 
Q 1875 4303 2022 4600 
L 2384 4600 
L 2384 0 
z
" transform="scale(0.015625)"/>
       </defs>
       <use xlink:href="#ArialMT-31"/>
       <use xlink:href="#ArialMT-30" x="55.615234"/>
       <use xlink:href="#ArialMT-30" x="111.230469"/>
      </g>
     </g>
    </g>
    <g id="ytick_4">
     <g id="line2d_8">
      <g>
       <use xlink:href="#m7e3b8fd72e" x="57.6" y="137.869714" style="stroke: #000000; stroke-width: 0.8"/>
      </g>
     </g>
     <g id="text_9">
      <!-- 150 -->
      <g transform="translate(20.570938 144.311746) scale(0.18 -0.18)">
       <use xlink:href="#ArialMT-31"/>
       <use xlink:href="#ArialMT-35" x="55.615234"/>
       <use xlink:href="#ArialMT-30" x="111.230469"/>
      </g>
     </g>
    </g>
    <g id="ytick_5">
     <g id="line2d_9">
      <g>
       <use xlink:href="#m7e3b8fd72e" x="57.6" y="81.298286" style="stroke: #000000; stroke-width: 0.8"/>
      </g>
     </g>
     <g id="text_10">
      <!-- 200 -->
      <g transform="translate(20.570938 87.740317) scale(0.18 -0.18)">
       <use xlink:href="#ArialMT-32"/>
       <use xlink:href="#ArialMT-30" x="55.615234"/>
       <use xlink:href="#ArialMT-30" x="111.230469"/>
      </g>
     </g>
    </g>
    <g id="text_11">
     <!-- Number of strains -->
     <g transform="translate(12.993437 245.547844) rotate(-90) scale(0.18 -0.18)">
      <defs>
       <path id="ArialMT-4e" d="M 488 0 
L 488 4581 
L 1109 4581 
L 3516 984 
L 3516 4581 
L 4097 4581 
L 4097 0 
L 3475 0 
L 1069 3600 
L 1069 0 
L 488 0 
z
" transform="scale(0.015625)"/>
       <path id="ArialMT-75" d="M 2597 0 
L 2597 488 
Q 2209 -75 1544 -75 
Q 1250 -75 995 37 
Q 741 150 617 320 
Q 494 491 444 738 
Q 409 903 409 1263 
L 409 3319 
L 972 3319 
L 972 1478 
Q 972 1038 1006 884 
Q 1059 663 1231 536 
Q 1403 409 1656 409 
Q 1909 409 2131 539 
Q 2353 669 2445 892 
Q 2538 1116 2538 1541 
L 2538 3319 
L 3100 3319 
L 3100 0 
L 2597 0 
z
" transform="scale(0.015625)"/>
       <path id="ArialMT-6d" d="M 422 0 
L 422 3319 
L 925 3319 
L 925 2853 
Q 1081 3097 1340 3245 
Q 1600 3394 1931 3394 
Q 2300 3394 2536 3241 
Q 2772 3088 2869 2813 
Q 3263 3394 3894 3394 
Q 4388 3394 4653 3120 
Q 4919 2847 4919 2278 
L 4919 0 
L 4359 0 
L 4359 2091 
Q 4359 2428 4304 2576 
Q 4250 2725 4106 2815 
Q 3963 2906 3769 2906 
Q 3419 2906 3187 2673 
Q 2956 2441 2956 1928 
L 2956 0 
L 2394 0 
L 2394 2156 
Q 2394 2531 2256 2718 
Q 2119 2906 1806 2906 
Q 1569 2906 1367 2781 
Q 1166 2656 1075 2415 
Q 984 2175 984 1722 
L 984 0 
L 422 0 
z
" transform="scale(0.015625)"/>
      </defs>
      <use xlink:href="#ArialMT-4e"/>
      <use xlink:href="#ArialMT-75" x="72.216797"/>
      <use xlink:href="#ArialMT-6d" x="127.832031"/>
      <use xlink:href="#ArialMT-62" x="211.132812"/>
      <use xlink:href="#ArialMT-65" x="266.748047"/>
      <use xlink:href="#ArialMT-72" x="322.363281"/>
      <use xlink:href="#ArialMT-20" x="355.664062"/>
      <use xlink:href="#ArialMT-6f" x="383.447266"/>
      <use xlink:href="#ArialMT-66" x="439.0625"/>
      <use xlink:href="#ArialMT-20" x="466.845703"/>
      <use xlink:href="#ArialMT-73" x="494.628906"/>
      <use xlink:href="#ArialMT-74" x="544.628906"/>
      <use xlink:href="#ArialMT-72" x="572.412109"/>
      <use xlink:href="#ArialMT-61" x="605.712891"/>
      <use xlink:href="#ArialMT-69" x="661.328125"/>
      <use xlink:href="#ArialMT-6e" x="683.544922"/>
      <use xlink:href="#ArialMT-73" x="739.160156"/>
     </g>
    </g>
   </g>
   <g id="line2d_10">
    <path d="M 120.243075 307.584 
L 120.243075 41.472 
" clip-path="url(#p23b753be84)" style="fill: none; stroke: #008000; stroke-width: 4; stroke-linecap: square"/>
   </g>
   <g id="patch_203">
    <path d="M 57.6 307.584 
L 57.6 41.472 
" style="fill: none; stroke: #000000; stroke-width: 0.8; stroke-linejoin: miter; stroke-linecap: square"/>
   </g>
   <g id="patch_204">
    <path d="M 414.72 307.584 
L 414.72 41.472 
" style="fill: none; stroke: #000000; stroke-width: 0.8; stroke-linejoin: miter; stroke-linecap: square"/>
   </g>
   <g id="patch_205">
    <path d="M 57.6 307.584 
L 414.72 307.584 
" style="fill: none; stroke: #000000; stroke-width: 0.8; stroke-linejoin: miter; stroke-linecap: square"/>
   </g>
   <g id="patch_206">
    <path d="M 57.6 41.472 
L 414.72 41.472 
" style="fill: none; stroke: #000000; stroke-width: 0.8; stroke-linejoin: miter; stroke-linecap: square"/>
   </g>
   <g id="text_12">
    <!-- 3628 out of 4327 -->
    <g transform="translate(143.448249 94.087393) scale(0.2 -0.2)">
     <defs>
      <path id="ArialMT-33" d="M 269 1209 
L 831 1284 
Q 928 806 1161 595 
Q 1394 384 1728 384 
Q 2125 384 2398 659 
Q 2672 934 2672 1341 
Q 2672 1728 2419 1979 
Q 2166 2231 1775 2231 
Q 1616 2231 1378 2169 
L 1441 2663 
Q 1497 2656 1531 2656 
Q 1891 2656 2178 2843 
Q 2466 3031 2466 3422 
Q 2466 3731 2256 3934 
Q 2047 4138 1716 4138 
Q 1388 4138 1169 3931 
Q 950 3725 888 3313 
L 325 3413 
Q 428 3978 793 4289 
Q 1159 4600 1703 4600 
Q 2078 4600 2393 4439 
Q 2709 4278 2876 4000 
Q 3044 3722 3044 3409 
Q 3044 3113 2884 2869 
Q 2725 2625 2413 2481 
Q 2819 2388 3044 2092 
Q 3269 1797 3269 1353 
Q 3269 753 2831 336 
Q 2394 -81 1725 -81 
Q 1122 -81 723 278 
Q 325 638 269 1209 
z
" transform="scale(0.015625)"/>
      <path id="ArialMT-38" d="M 1131 2484 
Q 781 2613 612 2850 
Q 444 3088 444 3419 
Q 444 3919 803 4259 
Q 1163 4600 1759 4600 
Q 2359 4600 2725 4251 
Q 3091 3903 3091 3403 
Q 3091 3084 2923 2848 
Q 2756 2613 2416 2484 
Q 2838 2347 3058 2040 
Q 3278 1734 3278 1309 
Q 3278 722 2862 322 
Q 2447 -78 1769 -78 
Q 1091 -78 675 323 
Q 259 725 259 1325 
Q 259 1772 486 2073 
Q 713 2375 1131 2484 
z
M 1019 3438 
Q 1019 3113 1228 2906 
Q 1438 2700 1772 2700 
Q 2097 2700 2305 2904 
Q 2513 3109 2513 3406 
Q 2513 3716 2298 3927 
Q 2084 4138 1766 4138 
Q 1444 4138 1231 3931 
Q 1019 3725 1019 3438 
z
M 838 1322 
Q 838 1081 952 856 
Q 1066 631 1291 507 
Q 1516 384 1775 384 
Q 2178 384 2440 643 
Q 2703 903 2703 1303 
Q 2703 1709 2433 1975 
Q 2163 2241 1756 2241 
Q 1359 2241 1098 1978 
Q 838 1716 838 1322 
z
" transform="scale(0.015625)"/>
      <path id="ArialMT-37" d="M 303 3981 
L 303 4522 
L 3269 4522 
L 3269 4084 
Q 2831 3619 2401 2847 
Q 1972 2075 1738 1259 
Q 1569 684 1522 0 
L 944 0 
Q 953 541 1156 1306 
Q 1359 2072 1739 2783 
Q 2119 3494 2547 3981 
L 303 3981 
z
" transform="scale(0.015625)"/>
     </defs>
     <use xlink:href="#ArialMT-33"/>
     <use xlink:href="#ArialMT-36" x="55.615234"/>
     <use xlink:href="#ArialMT-32" x="111.230469"/>
     <use xlink:href="#ArialMT-38" x="166.845703"/>
     <use xlink:href="#ArialMT-20" x="222.460938"/>
     <use xlink:href="#ArialMT-6f" x="250.244141"/>
     <use xlink:href="#ArialMT-75" x="305.859375"/>
     <use xlink:href="#ArialMT-74" x="361.474609"/>
     <use xlink:href="#ArialMT-20" x="389.257812"/>
     <use xlink:href="#ArialMT-6f" x="417.041016"/>
     <use xlink:href="#ArialMT-66" x="472.65625"/>
     <use xlink:href="#ArialMT-20" x="500.439453"/>
     <use xlink:href="#ArialMT-34" x="528.222656"/>
     <use xlink:href="#ArialMT-33" x="583.837891"/>
     <use xlink:href="#ArialMT-32" x="639.453125"/>
     <use xlink:href="#ArialMT-37" x="695.068359"/>
    </g>
    <!-- strains above 0.1 -->
    <g transform="translate(143.448249 115.241143) scale(0.2 -0.2)">
     <defs>
      <path id="ArialMT-76" d="M 1344 0 
L 81 3319 
L 675 3319 
L 1388 1331 
Q 1503 1009 1600 663 
Q 1675 925 1809 1294 
L 2547 3319 
L 3125 3319 
L 1869 0 
L 1344 0 
z
" transform="scale(0.015625)"/>
     </defs>
     <use xlink:href="#ArialMT-73"/>
     <use xlink:href="#ArialMT-74" x="50"/>
     <use xlink:href="#ArialMT-72" x="77.783203"/>
     <use xlink:href="#ArialMT-61" x="111.083984"/>
     <use xlink:href="#ArialMT-69" x="166.699219"/>
     <use xlink:href="#ArialMT-6e" x="188.916016"/>
     <use xlink:href="#ArialMT-73" x="244.53125"/>
     <use xlink:href="#ArialMT-20" x="294.53125"/>
     <use xlink:href="#ArialMT-61" x="322.314453"/>
     <use xlink:href="#ArialMT-62" x="377.929688"/>
     <use xlink:href="#ArialMT-6f" x="433.544922"/>
     <use xlink:href="#ArialMT-76" x="489.160156"/>
     <use xlink:href="#ArialMT-65" x="539.160156"/>
     <use xlink:href="#ArialMT-20" x="594.775391"/>
     <use xlink:href="#ArialMT-30" x="622.558594"/>
     <use xlink:href="#ArialMT-2e" x="678.173828"/>
     <use xlink:href="#ArialMT-31" x="705.957031"/>
    </g>
   </g>
   <g id="legend_1">
    <g id="patch_207">
     <path d="M 313.241875 57.629813 
L 333.241875 57.629813 
L 333.241875 50.629813 
L 313.241875 50.629813 
z
" style="fill: #808080"/>
    </g>
    <g id="text_13">
     <!-- ncRNA -->
     <g transform="translate(341.241875 57.629813) scale(0.1 -0.1)">
      <defs>
       <path id="ArialMT-63" d="M 2588 1216 
L 3141 1144 
Q 3050 572 2676 248 
Q 2303 -75 1759 -75 
Q 1078 -75 664 370 
Q 250 816 250 1647 
Q 250 2184 428 2587 
Q 606 2991 970 3192 
Q 1334 3394 1763 3394 
Q 2303 3394 2647 3120 
Q 2991 2847 3088 2344 
L 2541 2259 
Q 2463 2594 2264 2762 
Q 2066 2931 1784 2931 
Q 1359 2931 1093 2626 
Q 828 2322 828 1663 
Q 828 994 1084 691 
Q 1341 388 1753 388 
Q 2084 388 2306 591 
Q 2528 794 2588 1216 
z
" transform="scale(0.015625)"/>
       <path id="ArialMT-52" d="M 503 0 
L 503 4581 
L 2534 4581 
Q 3147 4581 3465 4457 
Q 3784 4334 3975 4021 
Q 4166 3709 4166 3331 
Q 4166 2844 3850 2509 
Q 3534 2175 2875 2084 
Q 3116 1969 3241 1856 
Q 3506 1613 3744 1247 
L 4541 0 
L 3778 0 
L 3172 953 
Q 2906 1366 2734 1584 
Q 2563 1803 2427 1890 
Q 2291 1978 2150 2013 
Q 2047 2034 1813 2034 
L 1109 2034 
L 1109 0 
L 503 0 
z
M 1109 2559 
L 2413 2559 
Q 2828 2559 3062 2645 
Q 3297 2731 3419 2920 
Q 3541 3109 3541 3331 
Q 3541 3656 3305 3865 
Q 3069 4075 2559 4075 
L 1109 4075 
L 1109 2559 
z
" transform="scale(0.015625)"/>
       <path id="ArialMT-41" d="M -9 0 
L 1750 4581 
L 2403 4581 
L 4278 0 
L 3588 0 
L 3053 1388 
L 1138 1388 
L 634 0 
L -9 0 
z
M 1313 1881 
L 2866 1881 
L 2388 3150 
Q 2169 3728 2063 4100 
Q 1975 3659 1816 3225 
L 1313 1881 
z
" transform="scale(0.015625)"/>
      </defs>
      <use xlink:href="#ArialMT-6e"/>
      <use xlink:href="#ArialMT-63" x="55.615234"/>
      <use xlink:href="#ArialMT-52" x="105.615234"/>
      <use xlink:href="#ArialMT-4e" x="177.832031"/>
      <use xlink:href="#ArialMT-41" x="250.048828"/>
     </g>
    </g>
    <g id="patch_208">
     <path d="M 313.241875 71.775125 
L 333.241875 71.775125 
L 333.241875 64.775125 
L 313.241875 64.775125 
z
" style="fill: #0000ff"/>
    </g>
    <g id="text_14">
     <!-- Protein-coding -->
     <g transform="translate(341.241875 71.775125) scale(0.1 -0.1)">
      <defs>
       <path id="ArialMT-2d" d="M 203 1375 
L 203 1941 
L 1931 1941 
L 1931 1375 
L 203 1375 
z
" transform="scale(0.015625)"/>
       <path id="ArialMT-64" d="M 2575 0 
L 2575 419 
Q 2259 -75 1647 -75 
Q 1250 -75 917 144 
Q 584 363 401 755 
Q 219 1147 219 1656 
Q 219 2153 384 2558 
Q 550 2963 881 3178 
Q 1213 3394 1622 3394 
Q 1922 3394 2156 3267 
Q 2391 3141 2538 2938 
L 2538 4581 
L 3097 4581 
L 3097 0 
L 2575 0 
z
M 797 1656 
Q 797 1019 1065 703 
Q 1334 388 1700 388 
Q 2069 388 2326 689 
Q 2584 991 2584 1609 
Q 2584 2291 2321 2609 
Q 2059 2928 1675 2928 
Q 1300 2928 1048 2622 
Q 797 2316 797 1656 
z
" transform="scale(0.015625)"/>
      </defs>
      <use xlink:href="#ArialMT-50"/>
      <use xlink:href="#ArialMT-72" x="66.699219"/>
      <use xlink:href="#ArialMT-6f" x="100"/>
      <use xlink:href="#ArialMT-74" x="155.615234"/>
      <use xlink:href="#ArialMT-65" x="183.398438"/>
      <use xlink:href="#ArialMT-69" x="239.013672"/>
      <use xlink:href="#ArialMT-6e" x="261.230469"/>
      <use xlink:href="#ArialMT-2d" x="316.845703"/>
      <use xlink:href="#ArialMT-63" x="350.146484"/>
      <use xlink:href="#ArialMT-6f" x="400.146484"/>
      <use xlink:href="#ArialMT-64" x="455.761719"/>
      <use xlink:href="#ArialMT-69" x="511.376953"/>
      <use xlink:href="#ArialMT-6e" x="533.59375"/>
      <use xlink:href="#ArialMT-67" x="589.208984"/>
     </g>
    </g>
   </g>
  </g>
 </g>
 <defs>
  <clipPath id="p23b753be84">
   <rect x="57.6" y="41.472" width="357.12" height="266.112"/>
  </clipPath>
 </defs>
</svg>
