<?xml version="1.0" encoding="utf-8" standalone="no"?>
<!DOCTYPE svg PUBLIC "-//W3C//DTD SVG 1.1//EN"
  "http://www.w3.org/Graphics/SVG/1.1/DTD/svg11.dtd">
<svg height="345.6pt" version="1.1" viewBox="0 0 460.8 345.6" width="460.8pt" xmlns="http://www.w3.org/2000/svg" xmlns:xlink="http://www.w3.org/1999/xlink">
 <metadata>
  <rdf:RDF xmlns:cc="http://creativecommons.org/ns#" xmlns:dc="http://purl.org/dc/elements/1.1/" xmlns:rdf="http://www.w3.org/1999/02/22-rdf-syntax-ns#">
   <cc:Work>
    <dc:type rdf:resource="http://purl.org/dc/dcmitype/StillImage"/>
    <dc:date>2023-07-19T14:18:32.502021</dc:date>
    <dc:format>image/svg+xml</dc:format>
    <dc:creator>
     <cc:Agent>
      <dc:title>Matplotlib v3.4.3, https://matplotlib.org/</dc:title>
     </cc:Agent>
    </dc:creator>
   </cc:Work>
  </rdf:RDF>
 </metadata>
 <defs>
  <style type="text/css">*{stroke-linecap:butt;stroke-linejoin:round;}</style>
 </defs>
 <g id="figure_1">
  <g id="patch_1">
   <path d="M 0 345.6 
L 460.8 345.6 
L 460.8 0 
L 0 0 
z
" style="fill:#ffffff;"/>
  </g>
  <g id="axes_1">
   <g id="patch_2">
    <path d="M 57.6 307.584 
L 414.72 307.584 
L 414.72 41.472 
L 57.6 41.472 
z
" style="fill:#ffffff;"/>
   </g>
   <g id="patch_3">
    <path clip-path="url(#p870e01da9d)" d="M 73.832727 307.584 
L 77.079273 307.584 
L 77.079273 54.144 
L 73.832727 54.144 
z
" style="fill:#808080;"/>
   </g>
   <g id="patch_4">
    <path clip-path="url(#p870e01da9d)" d="M 77.079273 307.584 
L 80.325818 307.584 
L 80.325818 72.715034 
L 77.079273 72.715034 
z
" style="fill:#808080;"/>
   </g>
   <g id="patch_5">
    <path clip-path="url(#p870e01da9d)" d="M 80.325818 307.584 
L 83.572364 307.584 
L 83.572364 216.913655 
L 80.325818 216.913655 
z
" style="fill:#808080;"/>
   </g>
   <g id="patch_6">
    <path clip-path="url(#p870e01da9d)" d="M 83.572364 307.584 
L 86.818909 307.584 
L 86.818909 216.913655 
L 83.572364 216.913655 
z
" style="fill:#808080;"/>
   </g>
   <g id="patch_7">
    <path clip-path="url(#p870e01da9d)" d="M 86.818909 307.584 
L 90.065455 307.584 
L 90.065455 276.996414 
L 86.818909 276.996414 
z
" style="fill:#808080;"/>
   </g>
   <g id="patch_8">
    <path clip-path="url(#p870e01da9d)" d="M 90.065455 307.584 
L 93.312 307.584 
L 93.312 290.105379 
L 90.065455 290.105379 
z
" style="fill:#808080;"/>
   </g>
   <g id="patch_9">
    <path clip-path="url(#p870e01da9d)" d="M 93.312 307.584 
L 96.558545 307.584 
L 96.558545 293.382621 
L 93.312 293.382621 
z
" style="fill:#808080;"/>
   </g>
   <g id="patch_10">
    <path clip-path="url(#p870e01da9d)" d="M 96.558545 307.584 
L 99.805091 307.584 
L 99.805091 301.029517 
L 96.558545 301.029517 
z
" style="fill:#808080;"/>
   </g>
   <g id="patch_11">
    <path clip-path="url(#p870e01da9d)" d="M 99.805091 307.584 
L 103.051636 307.584 
L 103.051636 296.659862 
L 99.805091 296.659862 
z
" style="fill:#808080;"/>
   </g>
   <g id="patch_12">
    <path clip-path="url(#p870e01da9d)" d="M 103.051636 307.584 
L 106.298182 307.584 
L 106.298182 305.399172 
L 103.051636 305.399172 
z
" style="fill:#808080;"/>
   </g>
   <g id="patch_13">
    <path clip-path="url(#p870e01da9d)" d="M 106.298182 307.584 
L 109.544727 307.584 
L 109.544727 302.121931 
L 106.298182 302.121931 
z
" style="fill:#808080;"/>
   </g>
   <g id="patch_14">
    <path clip-path="url(#p870e01da9d)" d="M 109.544727 307.584 
L 112.791273 307.584 
L 112.791273 301.029517 
L 109.544727 301.029517 
z
" style="fill:#808080;"/>
   </g>
   <g id="patch_15">
    <path clip-path="url(#p870e01da9d)" d="M 112.791273 307.584 
L 116.037818 307.584 
L 116.037818 298.84469 
L 112.791273 298.84469 
z
" style="fill:#808080;"/>
   </g>
   <g id="patch_16">
    <path clip-path="url(#p870e01da9d)" d="M 116.037818 307.584 
L 119.284364 307.584 
L 119.284364 301.029517 
L 116.037818 301.029517 
z
" style="fill:#808080;"/>
   </g>
   <g id="patch_17">
    <path clip-path="url(#p870e01da9d)" d="M 119.284364 307.584 
L 122.530909 307.584 
L 122.530909 303.214345 
L 119.284364 303.214345 
z
" style="fill:#808080;"/>
   </g>
   <g id="patch_18">
    <path clip-path="url(#p870e01da9d)" d="M 122.530909 307.584 
L 125.777455 307.584 
L 125.777455 303.214345 
L 122.530909 303.214345 
z
" style="fill:#808080;"/>
   </g>
   <g id="patch_19">
    <path clip-path="url(#p870e01da9d)" d="M 125.777455 307.584 
L 129.024 307.584 
L 129.024 305.399172 
L 125.777455 305.399172 
z
" style="fill:#808080;"/>
   </g>
   <g id="patch_20">
    <path clip-path="url(#p870e01da9d)" d="M 129.024 307.584 
L 132.270545 307.584 
L 132.270545 299.937103 
L 129.024 299.937103 
z
" style="fill:#808080;"/>
   </g>
   <g id="patch_21">
    <path clip-path="url(#p870e01da9d)" d="M 132.270545 307.584 
L 135.517091 307.584 
L 135.517091 303.214345 
L 132.270545 303.214345 
z
" style="fill:#808080;"/>
   </g>
   <g id="patch_22">
    <path clip-path="url(#p870e01da9d)" d="M 135.517091 307.584 
L 138.763636 307.584 
L 138.763636 303.214345 
L 135.517091 303.214345 
z
" style="fill:#808080;"/>
   </g>
   <g id="patch_23">
    <path clip-path="url(#p870e01da9d)" d="M 138.763636 307.584 
L 142.010182 307.584 
L 142.010182 302.121931 
L 138.763636 302.121931 
z
" style="fill:#808080;"/>
   </g>
   <g id="patch_24">
    <path clip-path="url(#p870e01da9d)" d="M 142.010182 307.584 
L 145.256727 307.584 
L 145.256727 301.029517 
L 142.010182 301.029517 
z
" style="fill:#808080;"/>
   </g>
   <g id="patch_25">
    <path clip-path="url(#p870e01da9d)" d="M 145.256727 307.584 
L 148.503273 307.584 
L 148.503273 304.306759 
L 145.256727 304.306759 
z
" style="fill:#808080;"/>
   </g>
   <g id="patch_26">
    <path clip-path="url(#p870e01da9d)" d="M 148.503273 307.584 
L 151.749818 307.584 
L 151.749818 303.214345 
L 148.503273 303.214345 
z
" style="fill:#808080;"/>
   </g>
   <g id="patch_27">
    <path clip-path="url(#p870e01da9d)" d="M 151.749818 307.584 
L 154.996364 307.584 
L 154.996364 303.214345 
L 151.749818 303.214345 
z
" style="fill:#808080;"/>
   </g>
   <g id="patch_28">
    <path clip-path="url(#p870e01da9d)" d="M 154.996364 307.584 
L 158.242909 307.584 
L 158.242909 302.121931 
L 154.996364 302.121931 
z
" style="fill:#808080;"/>
   </g>
   <g id="patch_29">
    <path clip-path="url(#p870e01da9d)" d="M 158.242909 307.584 
L 161.489455 307.584 
L 161.489455 304.306759 
L 158.242909 304.306759 
z
" style="fill:#808080;"/>
   </g>
   <g id="patch_30">
    <path clip-path="url(#p870e01da9d)" d="M 161.489455 307.584 
L 164.736 307.584 
L 164.736 303.214345 
L 161.489455 303.214345 
z
" style="fill:#808080;"/>
   </g>
   <g id="patch_31">
    <path clip-path="url(#p870e01da9d)" d="M 164.736 307.584 
L 167.982545 307.584 
L 167.982545 303.214345 
L 164.736 303.214345 
z
" style="fill:#808080;"/>
   </g>
   <g id="patch_32">
    <path clip-path="url(#p870e01da9d)" d="M 167.982545 307.584 
L 171.229091 307.584 
L 171.229091 303.214345 
L 167.982545 303.214345 
z
" style="fill:#808080;"/>
   </g>
   <g id="patch_33">
    <path clip-path="url(#p870e01da9d)" d="M 171.229091 307.584 
L 174.475636 307.584 
L 174.475636 299.937103 
L 171.229091 299.937103 
z
" style="fill:#808080;"/>
   </g>
   <g id="patch_34">
    <path clip-path="url(#p870e01da9d)" d="M 174.475636 307.584 
L 177.722182 307.584 
L 177.722182 305.399172 
L 174.475636 305.399172 
z
" style="fill:#808080;"/>
   </g>
   <g id="patch_35">
    <path clip-path="url(#p870e01da9d)" d="M 177.722182 307.584 
L 180.968727 307.584 
L 180.968727 298.84469 
L 177.722182 298.84469 
z
" style="fill:#808080;"/>
   </g>
   <g id="patch_36">
    <path clip-path="url(#p870e01da9d)" d="M 180.968727 307.584 
L 184.215273 307.584 
L 184.215273 298.84469 
L 180.968727 298.84469 
z
" style="fill:#808080;"/>
   </g>
   <g id="patch_37">
    <path clip-path="url(#p870e01da9d)" d="M 184.215273 307.584 
L 187.461818 307.584 
L 187.461818 299.937103 
L 184.215273 299.937103 
z
" style="fill:#808080;"/>
   </g>
   <g id="patch_38">
    <path clip-path="url(#p870e01da9d)" d="M 187.461818 307.584 
L 190.708364 307.584 
L 190.708364 297.752276 
L 187.461818 297.752276 
z
" style="fill:#808080;"/>
   </g>
   <g id="patch_39">
    <path clip-path="url(#p870e01da9d)" d="M 190.708364 307.584 
L 193.954909 307.584 
L 193.954909 294.475034 
L 190.708364 294.475034 
z
" style="fill:#808080;"/>
   </g>
   <g id="patch_40">
    <path clip-path="url(#p870e01da9d)" d="M 193.954909 307.584 
L 197.201455 307.584 
L 197.201455 299.937103 
L 193.954909 299.937103 
z
" style="fill:#808080;"/>
   </g>
   <g id="patch_41">
    <path clip-path="url(#p870e01da9d)" d="M 197.201455 307.584 
L 200.448 307.584 
L 200.448 294.475034 
L 197.201455 294.475034 
z
" style="fill:#808080;"/>
   </g>
   <g id="patch_42">
    <path clip-path="url(#p870e01da9d)" d="M 200.448 307.584 
L 203.694545 307.584 
L 203.694545 295.567448 
L 200.448 295.567448 
z
" style="fill:#808080;"/>
   </g>
   <g id="patch_43">
    <path clip-path="url(#p870e01da9d)" d="M 203.694545 307.584 
L 206.941091 307.584 
L 206.941091 293.382621 
L 203.694545 293.382621 
z
" style="fill:#808080;"/>
   </g>
   <g id="patch_44">
    <path clip-path="url(#p870e01da9d)" d="M 206.941091 307.584 
L 210.187636 307.584 
L 210.187636 294.475034 
L 206.941091 294.475034 
z
" style="fill:#808080;"/>
   </g>
   <g id="patch_45">
    <path clip-path="url(#p870e01da9d)" d="M 210.187636 307.584 
L 213.434182 307.584 
L 213.434182 295.567448 
L 210.187636 295.567448 
z
" style="fill:#808080;"/>
   </g>
   <g id="patch_46">
    <path clip-path="url(#p870e01da9d)" d="M 213.434182 307.584 
L 216.680727 307.584 
L 216.680727 297.752276 
L 213.434182 297.752276 
z
" style="fill:#808080;"/>
   </g>
   <g id="patch_47">
    <path clip-path="url(#p870e01da9d)" d="M 216.680727 307.584 
L 219.927273 307.584 
L 219.927273 294.475034 
L 216.680727 294.475034 
z
" style="fill:#808080;"/>
   </g>
   <g id="patch_48">
    <path clip-path="url(#p870e01da9d)" d="M 219.927273 307.584 
L 223.173818 307.584 
L 223.173818 289.012966 
L 219.927273 289.012966 
z
" style="fill:#808080;"/>
   </g>
   <g id="patch_49">
    <path clip-path="url(#p870e01da9d)" d="M 223.173818 307.584 
L 226.420364 307.584 
L 226.420364 291.197793 
L 223.173818 291.197793 
z
" style="fill:#808080;"/>
   </g>
   <g id="patch_50">
    <path clip-path="url(#p870e01da9d)" d="M 226.420364 307.584 
L 229.666909 307.584 
L 229.666909 296.659862 
L 226.420364 296.659862 
z
" style="fill:#808080;"/>
   </g>
   <g id="patch_51">
    <path clip-path="url(#p870e01da9d)" d="M 229.666909 307.584 
L 232.913455 307.584 
L 232.913455 292.290207 
L 229.666909 292.290207 
z
" style="fill:#808080;"/>
   </g>
   <g id="patch_52">
    <path clip-path="url(#p870e01da9d)" d="M 232.913455 307.584 
L 236.16 307.584 
L 236.16 283.550897 
L 232.913455 283.550897 
z
" style="fill:#808080;"/>
   </g>
   <g id="patch_53">
    <path clip-path="url(#p870e01da9d)" d="M 236.16 307.584 
L 239.406545 307.584 
L 239.406545 282.458483 
L 236.16 282.458483 
z
" style="fill:#808080;"/>
   </g>
   <g id="patch_54">
    <path clip-path="url(#p870e01da9d)" d="M 239.406545 307.584 
L 242.653091 307.584 
L 242.653091 285.735724 
L 239.406545 285.735724 
z
" style="fill:#808080;"/>
   </g>
   <g id="patch_55">
    <path clip-path="url(#p870e01da9d)" d="M 242.653091 307.584 
L 245.899636 307.584 
L 245.899636 275.904 
L 242.653091 275.904 
z
" style="fill:#808080;"/>
   </g>
   <g id="patch_56">
    <path clip-path="url(#p870e01da9d)" d="M 245.899636 307.584 
L 249.146182 307.584 
L 249.146182 275.904 
L 245.899636 275.904 
z
" style="fill:#808080;"/>
   </g>
   <g id="patch_57">
    <path clip-path="url(#p870e01da9d)" d="M 249.146182 307.584 
L 252.392727 307.584 
L 252.392727 272.626759 
L 249.146182 272.626759 
z
" style="fill:#808080;"/>
   </g>
   <g id="patch_58">
    <path clip-path="url(#p870e01da9d)" d="M 252.392727 307.584 
L 255.639273 307.584 
L 255.639273 268.257103 
L 252.392727 268.257103 
z
" style="fill:#808080;"/>
   </g>
   <g id="patch_59">
    <path clip-path="url(#p870e01da9d)" d="M 255.639273 307.584 
L 258.885818 307.584 
L 258.885818 259.517793 
L 255.639273 259.517793 
z
" style="fill:#808080;"/>
   </g>
   <g id="patch_60">
    <path clip-path="url(#p870e01da9d)" d="M 258.885818 307.584 
L 262.132364 307.584 
L 262.132364 244.224 
L 258.885818 244.224 
z
" style="fill:#808080;"/>
   </g>
   <g id="patch_61">
    <path clip-path="url(#p870e01da9d)" d="M 262.132364 307.584 
L 265.378909 307.584 
L 265.378909 242.039172 
L 262.132364 242.039172 
z
" style="fill:#808080;"/>
   </g>
   <g id="patch_62">
    <path clip-path="url(#p870e01da9d)" d="M 265.378909 307.584 
L 268.625455 307.584 
L 268.625455 233.299862 
L 265.378909 233.299862 
z
" style="fill:#808080;"/>
   </g>
   <g id="patch_63">
    <path clip-path="url(#p870e01da9d)" d="M 268.625455 307.584 
L 271.872 307.584 
L 271.872 191.788138 
L 268.625455 191.788138 
z
" style="fill:#808080;"/>
   </g>
   <g id="patch_64">
    <path clip-path="url(#p870e01da9d)" d="M 271.872 307.584 
L 275.118545 307.584 
L 275.118545 222.375724 
L 271.872 222.375724 
z
" style="fill:#808080;"/>
   </g>
   <g id="patch_65">
    <path clip-path="url(#p870e01da9d)" d="M 275.118545 307.584 
L 278.365091 307.584 
L 278.365091 200.527448 
L 275.118545 200.527448 
z
" style="fill:#808080;"/>
   </g>
   <g id="patch_66">
    <path clip-path="url(#p870e01da9d)" d="M 278.365091 307.584 
L 281.611636 307.584 
L 281.611636 197.250207 
L 278.365091 197.250207 
z
" style="fill:#808080;"/>
   </g>
   <g id="patch_67">
    <path clip-path="url(#p870e01da9d)" d="M 281.611636 307.584 
L 284.858182 307.584 
L 284.858182 187.418483 
L 281.611636 187.418483 
z
" style="fill:#808080;"/>
   </g>
   <g id="patch_68">
    <path clip-path="url(#p870e01da9d)" d="M 284.858182 307.584 
L 288.104727 307.584 
L 288.104727 171.032276 
L 284.858182 171.032276 
z
" style="fill:#808080;"/>
   </g>
   <g id="patch_69">
    <path clip-path="url(#p870e01da9d)" d="M 288.104727 307.584 
L 291.351273 307.584 
L 291.351273 183.048828 
L 288.104727 183.048828 
z
" style="fill:#808080;"/>
   </g>
   <g id="patch_70">
    <path clip-path="url(#p870e01da9d)" d="M 291.351273 307.584 
L 294.597818 307.584 
L 294.597818 132.797793 
L 291.351273 132.797793 
z
" style="fill:#808080;"/>
   </g>
   <g id="patch_71">
    <path clip-path="url(#p870e01da9d)" d="M 294.597818 307.584 
L 297.844364 307.584 
L 297.844364 156.830897 
L 294.597818 156.830897 
z
" style="fill:#808080;"/>
   </g>
   <g id="patch_72">
    <path clip-path="url(#p870e01da9d)" d="M 297.844364 307.584 
L 301.090909 307.584 
L 301.090909 186.326069 
L 297.844364 186.326069 
z
" style="fill:#808080;"/>
   </g>
   <g id="patch_73">
    <path clip-path="url(#p870e01da9d)" d="M 301.090909 307.584 
L 304.337455 307.584 
L 304.337455 177.586759 
L 301.090909 177.586759 
z
" style="fill:#808080;"/>
   </g>
   <g id="patch_74">
    <path clip-path="url(#p870e01da9d)" d="M 304.337455 307.584 
L 307.584 307.584 
L 307.584 211.451586 
L 304.337455 211.451586 
z
" style="fill:#808080;"/>
   </g>
   <g id="patch_75">
    <path clip-path="url(#p870e01da9d)" d="M 307.584 307.584 
L 310.830545 307.584 
L 310.830545 184.141241 
L 307.584 184.141241 
z
" style="fill:#808080;"/>
   </g>
   <g id="patch_76">
    <path clip-path="url(#p870e01da9d)" d="M 310.830545 307.584 
L 314.077091 307.584 
L 314.077091 163.385379 
L 310.830545 163.385379 
z
" style="fill:#808080;"/>
   </g>
   <g id="patch_77">
    <path clip-path="url(#p870e01da9d)" d="M 314.077091 307.584 
L 317.323636 307.584 
L 317.323636 165.570207 
L 314.077091 165.570207 
z
" style="fill:#808080;"/>
   </g>
   <g id="patch_78">
    <path clip-path="url(#p870e01da9d)" d="M 317.323636 307.584 
L 320.570182 307.584 
L 320.570182 167.755034 
L 317.323636 167.755034 
z
" style="fill:#808080;"/>
   </g>
   <g id="patch_79">
    <path clip-path="url(#p870e01da9d)" d="M 320.570182 307.584 
L 323.816727 307.584 
L 323.816727 155.738483 
L 320.570182 155.738483 
z
" style="fill:#808080;"/>
   </g>
   <g id="patch_80">
    <path clip-path="url(#p870e01da9d)" d="M 323.816727 307.584 
L 327.063273 307.584 
L 327.063273 145.906759 
L 323.816727 145.906759 
z
" style="fill:#808080;"/>
   </g>
   <g id="patch_81">
    <path clip-path="url(#p870e01da9d)" d="M 327.063273 307.584 
L 330.309818 307.584 
L 330.309818 168.847448 
L 327.063273 168.847448 
z
" style="fill:#808080;"/>
   </g>
   <g id="patch_82">
    <path clip-path="url(#p870e01da9d)" d="M 330.309818 307.584 
L 333.556364 307.584 
L 333.556364 171.032276 
L 330.309818 171.032276 
z
" style="fill:#808080;"/>
   </g>
   <g id="patch_83">
    <path clip-path="url(#p870e01da9d)" d="M 333.556364 307.584 
L 336.802909 307.584 
L 336.802909 164.477793 
L 333.556364 164.477793 
z
" style="fill:#808080;"/>
   </g>
   <g id="patch_84">
    <path clip-path="url(#p870e01da9d)" d="M 336.802909 307.584 
L 340.049455 307.584 
L 340.049455 222.375724 
L 336.802909 222.375724 
z
" style="fill:#808080;"/>
   </g>
   <g id="patch_85">
    <path clip-path="url(#p870e01da9d)" d="M 340.049455 307.584 
L 343.296 307.584 
L 343.296 225.652966 
L 340.049455 225.652966 
z
" style="fill:#808080;"/>
   </g>
   <g id="patch_86">
    <path clip-path="url(#p870e01da9d)" d="M 343.296 307.584 
L 346.542545 307.584 
L 346.542545 246.408828 
L 343.296 246.408828 
z
" style="fill:#808080;"/>
   </g>
   <g id="patch_87">
    <path clip-path="url(#p870e01da9d)" d="M 346.542545 307.584 
L 349.789091 307.584 
L 349.789091 252.96331 
L 346.542545 252.96331 
z
" style="fill:#808080;"/>
   </g>
   <g id="patch_88">
    <path clip-path="url(#p870e01da9d)" d="M 349.789091 307.584 
L 353.035636 307.584 
L 353.035636 262.795034 
L 349.789091 262.795034 
z
" style="fill:#808080;"/>
   </g>
   <g id="patch_89">
    <path clip-path="url(#p870e01da9d)" d="M 353.035636 307.584 
L 356.282182 307.584 
L 356.282182 272.626759 
L 353.035636 272.626759 
z
" style="fill:#808080;"/>
   </g>
   <g id="patch_90">
    <path clip-path="url(#p870e01da9d)" d="M 356.282182 307.584 
L 359.528727 307.584 
L 359.528727 280.273655 
L 356.282182 280.273655 
z
" style="fill:#808080;"/>
   </g>
   <g id="patch_91">
    <path clip-path="url(#p870e01da9d)" d="M 359.528727 307.584 
L 362.775273 307.584 
L 362.775273 292.290207 
L 359.528727 292.290207 
z
" style="fill:#808080;"/>
   </g>
   <g id="patch_92">
    <path clip-path="url(#p870e01da9d)" d="M 362.775273 307.584 
L 366.021818 307.584 
L 366.021818 289.012966 
L 362.775273 289.012966 
z
" style="fill:#808080;"/>
   </g>
   <g id="patch_93">
    <path clip-path="url(#p870e01da9d)" d="M 366.021818 307.584 
L 369.268364 307.584 
L 369.268364 298.84469 
L 366.021818 298.84469 
z
" style="fill:#808080;"/>
   </g>
   <g id="patch_94">
    <path clip-path="url(#p870e01da9d)" d="M 369.268364 307.584 
L 372.514909 307.584 
L 372.514909 297.752276 
L 369.268364 297.752276 
z
" style="fill:#808080;"/>
   </g>
   <g id="patch_95">
    <path clip-path="url(#p870e01da9d)" d="M 372.514909 307.584 
L 375.761455 307.584 
L 375.761455 303.214345 
L 372.514909 303.214345 
z
" style="fill:#808080;"/>
   </g>
   <g id="patch_96">
    <path clip-path="url(#p870e01da9d)" d="M 375.761455 307.584 
L 379.008 307.584 
L 379.008 302.121931 
L 375.761455 302.121931 
z
" style="fill:#808080;"/>
   </g>
   <g id="patch_97">
    <path clip-path="url(#p870e01da9d)" d="M 379.008 307.584 
L 382.254545 307.584 
L 382.254545 304.306759 
L 379.008 304.306759 
z
" style="fill:#808080;"/>
   </g>
   <g id="patch_98">
    <path clip-path="url(#p870e01da9d)" d="M 382.254545 307.584 
L 385.501091 307.584 
L 385.501091 302.121931 
L 382.254545 302.121931 
z
" style="fill:#808080;"/>
   </g>
   <g id="patch_99">
    <path clip-path="url(#p870e01da9d)" d="M 385.501091 307.584 
L 388.747636 307.584 
L 388.747636 302.121931 
L 385.501091 302.121931 
z
" style="fill:#808080;"/>
   </g>
   <g id="patch_100">
    <path clip-path="url(#p870e01da9d)" d="M 388.747636 307.584 
L 391.994182 307.584 
L 391.994182 306.491586 
L 388.747636 306.491586 
z
" style="fill:#808080;"/>
   </g>
   <g id="patch_101">
    <path clip-path="url(#p870e01da9d)" d="M 391.994182 307.584 
L 395.240727 307.584 
L 395.240727 307.584 
L 391.994182 307.584 
z
" style="fill:#808080;"/>
   </g>
   <g id="patch_102">
    <path clip-path="url(#p870e01da9d)" d="M 395.240727 307.584 
L 398.487273 307.584 
L 398.487273 306.491586 
L 395.240727 306.491586 
z
" style="fill:#808080;"/>
   </g>
   <g id="patch_103">
    <path clip-path="url(#p870e01da9d)" d="M 73.832727 307.584 
L 77.079273 307.584 
L 77.079273 67.252966 
L 73.832727 67.252966 
z
" style="fill:#0000ff;"/>
   </g>
   <g id="patch_104">
    <path clip-path="url(#p870e01da9d)" d="M 77.079273 307.584 
L 80.325818 307.584 
L 80.325818 77.08469 
L 77.079273 77.08469 
z
" style="fill:#0000ff;"/>
   </g>
   <g id="patch_105">
    <path clip-path="url(#p870e01da9d)" d="M 80.325818 307.584 
L 83.572364 307.584 
L 83.572364 216.913655 
L 80.325818 216.913655 
z
" style="fill:#0000ff;"/>
   </g>
   <g id="patch_106">
    <path clip-path="url(#p870e01da9d)" d="M 83.572364 307.584 
L 86.818909 307.584 
L 86.818909 218.006069 
L 83.572364 218.006069 
z
" style="fill:#0000ff;"/>
   </g>
   <g id="patch_107">
    <path clip-path="url(#p870e01da9d)" d="M 86.818909 307.584 
L 90.065455 307.584 
L 90.065455 279.181241 
L 86.818909 279.181241 
z
" style="fill:#0000ff;"/>
   </g>
   <g id="patch_108">
    <path clip-path="url(#p870e01da9d)" d="M 90.065455 307.584 
L 93.312 307.584 
L 93.312 290.105379 
L 90.065455 290.105379 
z
" style="fill:#0000ff;"/>
   </g>
   <g id="patch_109">
    <path clip-path="url(#p870e01da9d)" d="M 93.312 307.584 
L 96.558545 307.584 
L 96.558545 295.567448 
L 93.312 295.567448 
z
" style="fill:#0000ff;"/>
   </g>
   <g id="patch_110">
    <path clip-path="url(#p870e01da9d)" d="M 96.558545 307.584 
L 99.805091 307.584 
L 99.805091 301.029517 
L 96.558545 301.029517 
z
" style="fill:#0000ff;"/>
   </g>
   <g id="patch_111">
    <path clip-path="url(#p870e01da9d)" d="M 99.805091 307.584 
L 103.051636 307.584 
L 103.051636 298.84469 
L 99.805091 298.84469 
z
" style="fill:#0000ff;"/>
   </g>
   <g id="patch_112">
    <path clip-path="url(#p870e01da9d)" d="M 103.051636 307.584 
L 106.298182 307.584 
L 106.298182 305.399172 
L 103.051636 305.399172 
z
" style="fill:#0000ff;"/>
   </g>
   <g id="patch_113">
    <path clip-path="url(#p870e01da9d)" d="M 106.298182 307.584 
L 109.544727 307.584 
L 109.544727 302.121931 
L 106.298182 302.121931 
z
" style="fill:#0000ff;"/>
   </g>
   <g id="patch_114">
    <path clip-path="url(#p870e01da9d)" d="M 109.544727 307.584 
L 112.791273 307.584 
L 112.791273 302.121931 
L 109.544727 302.121931 
z
" style="fill:#0000ff;"/>
   </g>
   <g id="patch_115">
    <path clip-path="url(#p870e01da9d)" d="M 112.791273 307.584 
L 116.037818 307.584 
L 116.037818 299.937103 
L 112.791273 299.937103 
z
" style="fill:#0000ff;"/>
   </g>
   <g id="patch_116">
    <path clip-path="url(#p870e01da9d)" d="M 116.037818 307.584 
L 119.284364 307.584 
L 119.284364 304.306759 
L 116.037818 304.306759 
z
" style="fill:#0000ff;"/>
   </g>
   <g id="patch_117">
    <path clip-path="url(#p870e01da9d)" d="M 119.284364 307.584 
L 122.530909 307.584 
L 122.530909 304.306759 
L 119.284364 304.306759 
z
" style="fill:#0000ff;"/>
   </g>
   <g id="patch_118">
    <path clip-path="url(#p870e01da9d)" d="M 122.530909 307.584 
L 125.777455 307.584 
L 125.777455 304.306759 
L 122.530909 304.306759 
z
" style="fill:#0000ff;"/>
   </g>
   <g id="patch_119">
    <path clip-path="url(#p870e01da9d)" d="M 125.777455 307.584 
L 129.024 307.584 
L 129.024 305.399172 
L 125.777455 305.399172 
z
" style="fill:#0000ff;"/>
   </g>
   <g id="patch_120">
    <path clip-path="url(#p870e01da9d)" d="M 129.024 307.584 
L 132.270545 307.584 
L 132.270545 302.121931 
L 129.024 302.121931 
z
" style="fill:#0000ff;"/>
   </g>
   <g id="patch_121">
    <path clip-path="url(#p870e01da9d)" d="M 132.270545 307.584 
L 135.517091 307.584 
L 135.517091 304.306759 
L 132.270545 304.306759 
z
" style="fill:#0000ff;"/>
   </g>
   <g id="patch_122">
    <path clip-path="url(#p870e01da9d)" d="M 135.517091 307.584 
L 138.763636 307.584 
L 138.763636 303.214345 
L 135.517091 303.214345 
z
" style="fill:#0000ff;"/>
   </g>
   <g id="patch_123">
    <path clip-path="url(#p870e01da9d)" d="M 138.763636 307.584 
L 142.010182 307.584 
L 142.010182 302.121931 
L 138.763636 302.121931 
z
" style="fill:#0000ff;"/>
   </g>
   <g id="patch_124">
    <path clip-path="url(#p870e01da9d)" d="M 142.010182 307.584 
L 145.256727 307.584 
L 145.256727 304.306759 
L 142.010182 304.306759 
z
" style="fill:#0000ff;"/>
   </g>
   <g id="patch_125">
    <path clip-path="url(#p870e01da9d)" d="M 145.256727 307.584 
L 148.503273 307.584 
L 148.503273 304.306759 
L 145.256727 304.306759 
z
" style="fill:#0000ff;"/>
   </g>
   <g id="patch_126">
    <path clip-path="url(#p870e01da9d)" d="M 148.503273 307.584 
L 151.749818 307.584 
L 151.749818 304.306759 
L 148.503273 304.306759 
z
" style="fill:#0000ff;"/>
   </g>
   <g id="patch_127">
    <path clip-path="url(#p870e01da9d)" d="M 151.749818 307.584 
L 154.996364 307.584 
L 154.996364 305.399172 
L 151.749818 305.399172 
z
" style="fill:#0000ff;"/>
   </g>
   <g id="patch_128">
    <path clip-path="url(#p870e01da9d)" d="M 154.996364 307.584 
L 158.242909 307.584 
L 158.242909 302.121931 
L 154.996364 302.121931 
z
" style="fill:#0000ff;"/>
   </g>
   <g id="patch_129">
    <path clip-path="url(#p870e01da9d)" d="M 158.242909 307.584 
L 161.489455 307.584 
L 161.489455 305.399172 
L 158.242909 305.399172 
z
" style="fill:#0000ff;"/>
   </g>
   <g id="patch_130">
    <path clip-path="url(#p870e01da9d)" d="M 161.489455 307.584 
L 164.736 307.584 
L 164.736 303.214345 
L 161.489455 303.214345 
z
" style="fill:#0000ff;"/>
   </g>
   <g id="patch_131">
    <path clip-path="url(#p870e01da9d)" d="M 164.736 307.584 
L 167.982545 307.584 
L 167.982545 304.306759 
L 164.736 304.306759 
z
" style="fill:#0000ff;"/>
   </g>
   <g id="patch_132">
    <path clip-path="url(#p870e01da9d)" d="M 167.982545 307.584 
L 171.229091 307.584 
L 171.229091 304.306759 
L 167.982545 304.306759 
z
" style="fill:#0000ff;"/>
   </g>
   <g id="patch_133">
    <path clip-path="url(#p870e01da9d)" d="M 171.229091 307.584 
L 174.475636 307.584 
L 174.475636 301.029517 
L 171.229091 301.029517 
z
" style="fill:#0000ff;"/>
   </g>
   <g id="patch_134">
    <path clip-path="url(#p870e01da9d)" d="M 174.475636 307.584 
L 177.722182 307.584 
L 177.722182 306.491586 
L 174.475636 306.491586 
z
" style="fill:#0000ff;"/>
   </g>
   <g id="patch_135">
    <path clip-path="url(#p870e01da9d)" d="M 177.722182 307.584 
L 180.968727 307.584 
L 180.968727 301.029517 
L 177.722182 301.029517 
z
" style="fill:#0000ff;"/>
   </g>
   <g id="patch_136">
    <path clip-path="url(#p870e01da9d)" d="M 180.968727 307.584 
L 184.215273 307.584 
L 184.215273 299.937103 
L 180.968727 299.937103 
z
" style="fill:#0000ff;"/>
   </g>
   <g id="patch_137">
    <path clip-path="url(#p870e01da9d)" d="M 184.215273 307.584 
L 187.461818 307.584 
L 187.461818 302.121931 
L 184.215273 302.121931 
z
" style="fill:#0000ff;"/>
   </g>
   <g id="patch_138">
    <path clip-path="url(#p870e01da9d)" d="M 187.461818 307.584 
L 190.708364 307.584 
L 190.708364 299.937103 
L 187.461818 299.937103 
z
" style="fill:#0000ff;"/>
   </g>
   <g id="patch_139">
    <path clip-path="url(#p870e01da9d)" d="M 190.708364 307.584 
L 193.954909 307.584 
L 193.954909 296.659862 
L 190.708364 296.659862 
z
" style="fill:#0000ff;"/>
   </g>
   <g id="patch_140">
    <path clip-path="url(#p870e01da9d)" d="M 193.954909 307.584 
L 197.201455 307.584 
L 197.201455 305.399172 
L 193.954909 305.399172 
z
" style="fill:#0000ff;"/>
   </g>
   <g id="patch_141">
    <path clip-path="url(#p870e01da9d)" d="M 197.201455 307.584 
L 200.448 307.584 
L 200.448 297.752276 
L 197.201455 297.752276 
z
" style="fill:#0000ff;"/>
   </g>
   <g id="patch_142">
    <path clip-path="url(#p870e01da9d)" d="M 200.448 307.584 
L 203.694545 307.584 
L 203.694545 301.029517 
L 200.448 301.029517 
z
" style="fill:#0000ff;"/>
   </g>
   <g id="patch_143">
    <path clip-path="url(#p870e01da9d)" d="M 203.694545 307.584 
L 206.941091 307.584 
L 206.941091 293.382621 
L 203.694545 293.382621 
z
" style="fill:#0000ff;"/>
   </g>
   <g id="patch_144">
    <path clip-path="url(#p870e01da9d)" d="M 206.941091 307.584 
L 210.187636 307.584 
L 210.187636 298.84469 
L 206.941091 298.84469 
z
" style="fill:#0000ff;"/>
   </g>
   <g id="patch_145">
    <path clip-path="url(#p870e01da9d)" d="M 210.187636 307.584 
L 213.434182 307.584 
L 213.434182 299.937103 
L 210.187636 299.937103 
z
" style="fill:#0000ff;"/>
   </g>
   <g id="patch_146">
    <path clip-path="url(#p870e01da9d)" d="M 213.434182 307.584 
L 216.680727 307.584 
L 216.680727 301.029517 
L 213.434182 301.029517 
z
" style="fill:#0000ff;"/>
   </g>
   <g id="patch_147">
    <path clip-path="url(#p870e01da9d)" d="M 216.680727 307.584 
L 219.927273 307.584 
L 219.927273 301.029517 
L 216.680727 301.029517 
z
" style="fill:#0000ff;"/>
   </g>
   <g id="patch_148">
    <path clip-path="url(#p870e01da9d)" d="M 219.927273 307.584 
L 223.173818 307.584 
L 223.173818 299.937103 
L 219.927273 299.937103 
z
" style="fill:#0000ff;"/>
   </g>
   <g id="patch_149">
    <path clip-path="url(#p870e01da9d)" d="M 223.173818 307.584 
L 226.420364 307.584 
L 226.420364 297.752276 
L 223.173818 297.752276 
z
" style="fill:#0000ff;"/>
   </g>
   <g id="patch_150">
    <path clip-path="url(#p870e01da9d)" d="M 226.420364 307.584 
L 229.666909 307.584 
L 229.666909 303.214345 
L 226.420364 303.214345 
z
" style="fill:#0000ff;"/>
   </g>
   <g id="patch_151">
    <path clip-path="url(#p870e01da9d)" d="M 229.666909 307.584 
L 232.913455 307.584 
L 232.913455 297.752276 
L 229.666909 297.752276 
z
" style="fill:#0000ff;"/>
   </g>
   <g id="patch_152">
    <path clip-path="url(#p870e01da9d)" d="M 232.913455 307.584 
L 236.16 307.584 
L 236.16 295.567448 
L 232.913455 295.567448 
z
" style="fill:#0000ff;"/>
   </g>
   <g id="patch_153">
    <path clip-path="url(#p870e01da9d)" d="M 236.16 307.584 
L 239.406545 307.584 
L 239.406545 293.382621 
L 236.16 293.382621 
z
" style="fill:#0000ff;"/>
   </g>
   <g id="patch_154">
    <path clip-path="url(#p870e01da9d)" d="M 239.406545 307.584 
L 242.653091 307.584 
L 242.653091 297.752276 
L 239.406545 297.752276 
z
" style="fill:#0000ff;"/>
   </g>
   <g id="patch_155">
    <path clip-path="url(#p870e01da9d)" d="M 242.653091 307.584 
L 245.899636 307.584 
L 245.899636 290.105379 
L 242.653091 290.105379 
z
" style="fill:#0000ff;"/>
   </g>
   <g id="patch_156">
    <path clip-path="url(#p870e01da9d)" d="M 245.899636 307.584 
L 249.146182 307.584 
L 249.146182 286.828138 
L 245.899636 286.828138 
z
" style="fill:#0000ff;"/>
   </g>
   <g id="patch_157">
    <path clip-path="url(#p870e01da9d)" d="M 249.146182 307.584 
L 252.392727 307.584 
L 252.392727 286.828138 
L 249.146182 286.828138 
z
" style="fill:#0000ff;"/>
   </g>
   <g id="patch_158">
    <path clip-path="url(#p870e01da9d)" d="M 252.392727 307.584 
L 255.639273 307.584 
L 255.639273 284.64331 
L 252.392727 284.64331 
z
" style="fill:#0000ff;"/>
   </g>
   <g id="patch_159">
    <path clip-path="url(#p870e01da9d)" d="M 255.639273 307.584 
L 258.885818 307.584 
L 258.885818 274.811586 
L 255.639273 274.811586 
z
" style="fill:#0000ff;"/>
   </g>
   <g id="patch_160">
    <path clip-path="url(#p870e01da9d)" d="M 258.885818 307.584 
L 262.132364 307.584 
L 262.132364 259.517793 
L 258.885818 259.517793 
z
" style="fill:#0000ff;"/>
   </g>
   <g id="patch_161">
    <path clip-path="url(#p870e01da9d)" d="M 262.132364 307.584 
L 265.378909 307.584 
L 265.378909 262.795034 
L 262.132364 262.795034 
z
" style="fill:#0000ff;"/>
   </g>
   <g id="patch_162">
    <path clip-path="url(#p870e01da9d)" d="M 265.378909 307.584 
L 268.625455 307.584 
L 268.625455 262.795034 
L 265.378909 262.795034 
z
" style="fill:#0000ff;"/>
   </g>
   <g id="patch_163">
    <path clip-path="url(#p870e01da9d)" d="M 268.625455 307.584 
L 271.872 307.584 
L 271.872 218.006069 
L 268.625455 218.006069 
z
" style="fill:#0000ff;"/>
   </g>
   <g id="patch_164">
    <path clip-path="url(#p870e01da9d)" d="M 271.872 307.584 
L 275.118545 307.584 
L 275.118545 240.946759 
L 271.872 240.946759 
z
" style="fill:#0000ff;"/>
   </g>
   <g id="patch_165">
    <path clip-path="url(#p870e01da9d)" d="M 275.118545 307.584 
L 278.365091 307.584 
L 278.365091 226.745379 
L 275.118545 226.745379 
z
" style="fill:#0000ff;"/>
   </g>
   <g id="patch_166">
    <path clip-path="url(#p870e01da9d)" d="M 278.365091 307.584 
L 281.611636 307.584 
L 281.611636 205.989517 
L 278.365091 205.989517 
z
" style="fill:#0000ff;"/>
   </g>
   <g id="patch_167">
    <path clip-path="url(#p870e01da9d)" d="M 281.611636 307.584 
L 284.858182 307.584 
L 284.858182 205.989517 
L 281.611636 205.989517 
z
" style="fill:#0000ff;"/>
   </g>
   <g id="patch_168">
    <path clip-path="url(#p870e01da9d)" d="M 284.858182 307.584 
L 288.104727 307.584 
L 288.104727 183.048828 
L 284.858182 183.048828 
z
" style="fill:#0000ff;"/>
   </g>
   <g id="patch_169">
    <path clip-path="url(#p870e01da9d)" d="M 288.104727 307.584 
L 291.351273 307.584 
L 291.351273 193.972966 
L 288.104727 193.972966 
z
" style="fill:#0000ff;"/>
   </g>
   <g id="patch_170">
    <path clip-path="url(#p870e01da9d)" d="M 291.351273 307.584 
L 294.597818 307.584 
L 294.597818 156.830897 
L 291.351273 156.830897 
z
" style="fill:#0000ff;"/>
   </g>
   <g id="patch_171">
    <path clip-path="url(#p870e01da9d)" d="M 294.597818 307.584 
L 297.844364 307.584 
L 297.844364 168.847448 
L 294.597818 168.847448 
z
" style="fill:#0000ff;"/>
   </g>
   <g id="patch_172">
    <path clip-path="url(#p870e01da9d)" d="M 297.844364 307.584 
L 301.090909 307.584 
L 301.090909 203.80469 
L 297.844364 203.80469 
z
" style="fill:#0000ff;"/>
   </g>
   <g id="patch_173">
    <path clip-path="url(#p870e01da9d)" d="M 301.090909 307.584 
L 304.337455 307.584 
L 304.337455 192.880552 
L 301.090909 192.880552 
z
" style="fill:#0000ff;"/>
   </g>
   <g id="patch_174">
    <path clip-path="url(#p870e01da9d)" d="M 304.337455 307.584 
L 307.584 307.584 
L 307.584 220.190897 
L 304.337455 220.190897 
z
" style="fill:#0000ff;"/>
   </g>
   <g id="patch_175">
    <path clip-path="url(#p870e01da9d)" d="M 307.584 307.584 
L 310.830545 307.584 
L 310.830545 205.989517 
L 307.584 205.989517 
z
" style="fill:#0000ff;"/>
   </g>
   <g id="patch_176">
    <path clip-path="url(#p870e01da9d)" d="M 310.830545 307.584 
L 314.077091 307.584 
L 314.077091 185.233655 
L 310.830545 185.233655 
z
" style="fill:#0000ff;"/>
   </g>
   <g id="patch_177">
    <path clip-path="url(#p870e01da9d)" d="M 314.077091 307.584 
L 317.323636 307.584 
L 317.323636 183.048828 
L 314.077091 183.048828 
z
" style="fill:#0000ff;"/>
   </g>
   <g id="patch_178">
    <path clip-path="url(#p870e01da9d)" d="M 317.323636 307.584 
L 320.570182 307.584 
L 320.570182 183.048828 
L 317.323636 183.048828 
z
" style="fill:#0000ff;"/>
   </g>
   <g id="patch_179">
    <path clip-path="url(#p870e01da9d)" d="M 320.570182 307.584 
L 323.816727 307.584 
L 323.816727 165.570207 
L 320.570182 165.570207 
z
" style="fill:#0000ff;"/>
   </g>
   <g id="patch_180">
    <path clip-path="url(#p870e01da9d)" d="M 323.816727 307.584 
L 327.063273 307.584 
L 327.063273 159.015724 
L 323.816727 159.015724 
z
" style="fill:#0000ff;"/>
   </g>
   <g id="patch_181">
    <path clip-path="url(#p870e01da9d)" d="M 327.063273 307.584 
L 330.309818 307.584 
L 330.309818 172.12469 
L 327.063273 172.12469 
z
" style="fill:#0000ff;"/>
   </g>
   <g id="patch_182">
    <path clip-path="url(#p870e01da9d)" d="M 330.309818 307.584 
L 333.556364 307.584 
L 333.556364 172.12469 
L 330.309818 172.12469 
z
" style="fill:#0000ff;"/>
   </g>
   <g id="patch_183">
    <path clip-path="url(#p870e01da9d)" d="M 333.556364 307.584 
L 336.802909 307.584 
L 336.802909 168.847448 
L 333.556364 168.847448 
z
" style="fill:#0000ff;"/>
   </g>
   <g id="patch_184">
    <path clip-path="url(#p870e01da9d)" d="M 336.802909 307.584 
L 340.049455 307.584 
L 340.049455 228.930207 
L 336.802909 228.930207 
z
" style="fill:#0000ff;"/>
   </g>
   <g id="patch_185">
    <path clip-path="url(#p870e01da9d)" d="M 340.049455 307.584 
L 343.296 307.584 
L 343.296 227.837793 
L 340.049455 227.837793 
z
" style="fill:#0000ff;"/>
   </g>
   <g id="patch_186">
    <path clip-path="url(#p870e01da9d)" d="M 343.296 307.584 
L 346.542545 307.584 
L 346.542545 247.501241 
L 343.296 247.501241 
z
" style="fill:#0000ff;"/>
   </g>
   <g id="patch_187">
    <path clip-path="url(#p870e01da9d)" d="M 346.542545 307.584 
L 349.789091 307.584 
L 349.789091 254.055724 
L 346.542545 254.055724 
z
" style="fill:#0000ff;"/>
   </g>
   <g id="patch_188">
    <path clip-path="url(#p870e01da9d)" d="M 349.789091 307.584 
L 353.035636 307.584 
L 353.035636 262.795034 
L 349.789091 262.795034 
z
" style="fill:#0000ff;"/>
   </g>
   <g id="patch_189">
    <path clip-path="url(#p870e01da9d)" d="M 353.035636 307.584 
L 356.282182 307.584 
L 356.282182 272.626759 
L 353.035636 272.626759 
z
" style="fill:#0000ff;"/>
   </g>
   <g id="patch_190">
    <path clip-path="url(#p870e01da9d)" d="M 356.282182 307.584 
L 359.528727 307.584 
L 359.528727 280.273655 
L 356.282182 280.273655 
z
" style="fill:#0000ff;"/>
   </g>
   <g id="patch_191">
    <path clip-path="url(#p870e01da9d)" d="M 359.528727 307.584 
L 362.775273 307.584 
L 362.775273 292.290207 
L 359.528727 292.290207 
z
" style="fill:#0000ff;"/>
   </g>
   <g id="patch_192">
    <path clip-path="url(#p870e01da9d)" d="M 362.775273 307.584 
L 366.021818 307.584 
L 366.021818 289.012966 
L 362.775273 289.012966 
z
" style="fill:#0000ff;"/>
   </g>
   <g id="patch_193">
    <path clip-path="url(#p870e01da9d)" d="M 366.021818 307.584 
L 369.268364 307.584 
L 369.268364 298.84469 
L 366.021818 298.84469 
z
" style="fill:#0000ff;"/>
   </g>
   <g id="patch_194">
    <path clip-path="url(#p870e01da9d)" d="M 369.268364 307.584 
L 372.514909 307.584 
L 372.514909 297.752276 
L 369.268364 297.752276 
z
" style="fill:#0000ff;"/>
   </g>
   <g id="patch_195">
    <path clip-path="url(#p870e01da9d)" d="M 372.514909 307.584 
L 375.761455 307.584 
L 375.761455 303.214345 
L 372.514909 303.214345 
z
" style="fill:#0000ff;"/>
   </g>
   <g id="patch_196">
    <path clip-path="url(#p870e01da9d)" d="M 375.761455 307.584 
L 379.008 307.584 
L 379.008 302.121931 
L 375.761455 302.121931 
z
" style="fill:#0000ff;"/>
   </g>
   <g id="patch_197">
    <path clip-path="url(#p870e01da9d)" d="M 379.008 307.584 
L 382.254545 307.584 
L 382.254545 304.306759 
L 379.008 304.306759 
z
" style="fill:#0000ff;"/>
   </g>
   <g id="patch_198">
    <path clip-path="url(#p870e01da9d)" d="M 382.254545 307.584 
L 385.501091 307.584 
L 385.501091 302.121931 
L 382.254545 302.121931 
z
" style="fill:#0000ff;"/>
   </g>
   <g id="patch_199">
    <path clip-path="url(#p870e01da9d)" d="M 385.501091 307.584 
L 388.747636 307.584 
L 388.747636 302.121931 
L 385.501091 302.121931 
z
" style="fill:#0000ff;"/>
   </g>
   <g id="patch_200">
    <path clip-path="url(#p870e01da9d)" d="M 388.747636 307.584 
L 391.994182 307.584 
L 391.994182 306.491586 
L 388.747636 306.491586 
z
" style="fill:#0000ff;"/>
   </g>
   <g id="patch_201">
    <path clip-path="url(#p870e01da9d)" d="M 391.994182 307.584 
L 395.240727 307.584 
L 395.240727 307.584 
L 391.994182 307.584 
z
" style="fill:#0000ff;"/>
   </g>
   <g id="patch_202">
    <path clip-path="url(#p870e01da9d)" d="M 395.240727 307.584 
L 398.487273 307.584 
L 398.487273 306.491586 
L 395.240727 306.491586 
z
" style="fill:#0000ff;"/>
   </g>
   <g id="matplotlib.axis_1">
    <g id="xtick_1">
     <g id="line2d_1">
      <defs>
       <path d="M 0 0 
L 0 3.5 
" id="md907eded2e" style="stroke:#000000;stroke-width:0.8;"/>
      </defs>
      <g>
       <use style="stroke:#000000;stroke-width:0.8;" x="73.832727" xlink:href="#md907eded2e" y="307.584"/>
      </g>
     </g>
     <g id="text_1">
      <!-- 0.0 -->
      <g transform="translate(66.882727 321.741812)scale(0.1 -0.1)">
       <defs>
        <path d="M 266 2259 
Q 266 3072 433 3567 
Q 600 4063 929 4331 
Q 1259 4600 1759 4600 
Q 2128 4600 2406 4451 
Q 2684 4303 2865 4023 
Q 3047 3744 3150 3342 
Q 3253 2941 3253 2259 
Q 3253 1453 3087 958 
Q 2922 463 2592 192 
Q 2263 -78 1759 -78 
Q 1097 -78 719 397 
Q 266 969 266 2259 
z
M 844 2259 
Q 844 1131 1108 757 
Q 1372 384 1759 384 
Q 2147 384 2411 759 
Q 2675 1134 2675 2259 
Q 2675 3391 2411 3762 
Q 2147 4134 1753 4134 
Q 1366 4134 1134 3806 
Q 844 3388 844 2259 
z
" id="ArialMT-30" transform="scale(0.015625)"/>
        <path d="M 581 0 
L 581 641 
L 1222 641 
L 1222 0 
L 581 0 
z
" id="ArialMT-2e" transform="scale(0.015625)"/>
       </defs>
       <use xlink:href="#ArialMT-30"/>
       <use x="55.615234" xlink:href="#ArialMT-2e"/>
       <use x="83.398438" xlink:href="#ArialMT-30"/>
      </g>
     </g>
    </g>
    <g id="xtick_2">
     <g id="line2d_2">
      <g>
       <use style="stroke:#000000;stroke-width:0.8;" x="120.243075" xlink:href="#md907eded2e" y="307.584"/>
      </g>
     </g>
     <g id="text_2">
      <!-- 0.1 -->
      <g transform="translate(113.293075 321.741812)scale(0.1 -0.1)">
       <defs>
        <path d="M 2384 0 
L 1822 0 
L 1822 3584 
Q 1619 3391 1289 3197 
Q 959 3003 697 2906 
L 697 3450 
Q 1169 3672 1522 3987 
Q 1875 4303 2022 4600 
L 2384 4600 
L 2384 0 
z
" id="ArialMT-31" transform="scale(0.015625)"/>
       </defs>
       <use xlink:href="#ArialMT-30"/>
       <use x="55.615234" xlink:href="#ArialMT-2e"/>
       <use x="83.398438" xlink:href="#ArialMT-31"/>
      </g>
     </g>
    </g>
    <g id="xtick_3">
     <g id="line2d_3">
      <g>
       <use style="stroke:#000000;stroke-width:0.8;" x="166.653423" xlink:href="#md907eded2e" y="307.584"/>
      </g>
     </g>
     <g id="text_3">
      <!-- 0.2 -->
      <g transform="translate(159.703423 321.741812)scale(0.1 -0.1)">
       <defs>
        <path d="M 3222 541 
L 3222 0 
L 194 0 
Q 188 203 259 391 
Q 375 700 629 1000 
Q 884 1300 1366 1694 
Q 2113 2306 2375 2664 
Q 2638 3022 2638 3341 
Q 2638 3675 2398 3904 
Q 2159 4134 1775 4134 
Q 1369 4134 1125 3890 
Q 881 3647 878 3216 
L 300 3275 
Q 359 3922 746 4261 
Q 1134 4600 1788 4600 
Q 2447 4600 2831 4234 
Q 3216 3869 3216 3328 
Q 3216 3053 3103 2787 
Q 2991 2522 2730 2228 
Q 2469 1934 1863 1422 
Q 1356 997 1212 845 
Q 1069 694 975 541 
L 3222 541 
z
" id="ArialMT-32" transform="scale(0.015625)"/>
       </defs>
       <use xlink:href="#ArialMT-30"/>
       <use x="55.615234" xlink:href="#ArialMT-2e"/>
       <use x="83.398438" xlink:href="#ArialMT-32"/>
      </g>
     </g>
    </g>
    <g id="xtick_4">
     <g id="line2d_4">
      <g>
       <use style="stroke:#000000;stroke-width:0.8;" x="213.063771" xlink:href="#md907eded2e" y="307.584"/>
      </g>
     </g>
     <g id="text_4">
      <!-- 0.3 -->
      <g transform="translate(206.113771 321.741812)scale(0.1 -0.1)">
       <defs>
        <path d="M 269 1209 
L 831 1284 
Q 928 806 1161 595 
Q 1394 384 1728 384 
Q 2125 384 2398 659 
Q 2672 934 2672 1341 
Q 2672 1728 2419 1979 
Q 2166 2231 1775 2231 
Q 1616 2231 1378 2169 
L 1441 2663 
Q 1497 2656 1531 2656 
Q 1891 2656 2178 2843 
Q 2466 3031 2466 3422 
Q 2466 3731 2256 3934 
Q 2047 4138 1716 4138 
Q 1388 4138 1169 3931 
Q 950 3725 888 3313 
L 325 3413 
Q 428 3978 793 4289 
Q 1159 4600 1703 4600 
Q 2078 4600 2393 4439 
Q 2709 4278 2876 4000 
Q 3044 3722 3044 3409 
Q 3044 3113 2884 2869 
Q 2725 2625 2413 2481 
Q 2819 2388 3044 2092 
Q 3269 1797 3269 1353 
Q 3269 753 2831 336 
Q 2394 -81 1725 -81 
Q 1122 -81 723 278 
Q 325 638 269 1209 
z
" id="ArialMT-33" transform="scale(0.015625)"/>
       </defs>
       <use xlink:href="#ArialMT-30"/>
       <use x="55.615234" xlink:href="#ArialMT-2e"/>
       <use x="83.398438" xlink:href="#ArialMT-33"/>
      </g>
     </g>
    </g>
    <g id="xtick_5">
     <g id="line2d_5">
      <g>
       <use style="stroke:#000000;stroke-width:0.8;" x="259.474118" xlink:href="#md907eded2e" y="307.584"/>
      </g>
     </g>
     <g id="text_5">
      <!-- 0.4 -->
      <g transform="translate(252.524118 321.741812)scale(0.1 -0.1)">
       <defs>
        <path d="M 2069 0 
L 2069 1097 
L 81 1097 
L 81 1613 
L 2172 4581 
L 2631 4581 
L 2631 1613 
L 3250 1613 
L 3250 1097 
L 2631 1097 
L 2631 0 
L 2069 0 
z
M 2069 1613 
L 2069 3678 
L 634 1613 
L 2069 1613 
z
" id="ArialMT-34" transform="scale(0.015625)"/>
       </defs>
       <use xlink:href="#ArialMT-30"/>
       <use x="55.615234" xlink:href="#ArialMT-2e"/>
       <use x="83.398438" xlink:href="#ArialMT-34"/>
      </g>
     </g>
    </g>
    <g id="xtick_6">
     <g id="line2d_6">
      <g>
       <use style="stroke:#000000;stroke-width:0.8;" x="305.884466" xlink:href="#md907eded2e" y="307.584"/>
      </g>
     </g>
     <g id="text_6">
      <!-- 0.5 -->
      <g transform="translate(298.934466 321.741812)scale(0.1 -0.1)">
       <defs>
        <path d="M 266 1200 
L 856 1250 
Q 922 819 1161 601 
Q 1400 384 1738 384 
Q 2144 384 2425 690 
Q 2706 997 2706 1503 
Q 2706 1984 2436 2262 
Q 2166 2541 1728 2541 
Q 1456 2541 1237 2417 
Q 1019 2294 894 2097 
L 366 2166 
L 809 4519 
L 3088 4519 
L 3088 3981 
L 1259 3981 
L 1013 2750 
Q 1425 3038 1878 3038 
Q 2478 3038 2890 2622 
Q 3303 2206 3303 1553 
Q 3303 931 2941 478 
Q 2500 -78 1738 -78 
Q 1113 -78 717 272 
Q 322 622 266 1200 
z
" id="ArialMT-35" transform="scale(0.015625)"/>
       </defs>
       <use xlink:href="#ArialMT-30"/>
       <use x="55.615234" xlink:href="#ArialMT-2e"/>
       <use x="83.398438" xlink:href="#ArialMT-35"/>
      </g>
     </g>
    </g>
    <g id="xtick_7">
     <g id="line2d_7">
      <g>
       <use style="stroke:#000000;stroke-width:0.8;" x="352.294814" xlink:href="#md907eded2e" y="307.584"/>
      </g>
     </g>
     <g id="text_7">
      <!-- 0.6 -->
      <g transform="translate(345.344814 321.741812)scale(0.1 -0.1)">
       <defs>
        <path d="M 3184 3459 
L 2625 3416 
Q 2550 3747 2413 3897 
Q 2184 4138 1850 4138 
Q 1581 4138 1378 3988 
Q 1113 3794 959 3422 
Q 806 3050 800 2363 
Q 1003 2672 1297 2822 
Q 1591 2972 1913 2972 
Q 2475 2972 2870 2558 
Q 3266 2144 3266 1488 
Q 3266 1056 3080 686 
Q 2894 316 2569 119 
Q 2244 -78 1831 -78 
Q 1128 -78 684 439 
Q 241 956 241 2144 
Q 241 3472 731 4075 
Q 1159 4600 1884 4600 
Q 2425 4600 2770 4297 
Q 3116 3994 3184 3459 
z
M 888 1484 
Q 888 1194 1011 928 
Q 1134 663 1356 523 
Q 1578 384 1822 384 
Q 2178 384 2434 671 
Q 2691 959 2691 1453 
Q 2691 1928 2437 2201 
Q 2184 2475 1800 2475 
Q 1419 2475 1153 2201 
Q 888 1928 888 1484 
z
" id="ArialMT-36" transform="scale(0.015625)"/>
       </defs>
       <use xlink:href="#ArialMT-30"/>
       <use x="55.615234" xlink:href="#ArialMT-2e"/>
       <use x="83.398438" xlink:href="#ArialMT-36"/>
      </g>
     </g>
    </g>
    <g id="xtick_8">
     <g id="line2d_8">
      <g>
       <use style="stroke:#000000;stroke-width:0.8;" x="398.705162" xlink:href="#md907eded2e" y="307.584"/>
      </g>
     </g>
     <g id="text_8">
      <!-- 0.7 -->
      <g transform="translate(391.755162 321.741812)scale(0.1 -0.1)">
       <defs>
        <path d="M 303 3981 
L 303 4522 
L 3269 4522 
L 3269 4084 
Q 2831 3619 2401 2847 
Q 1972 2075 1738 1259 
Q 1569 684 1522 0 
L 944 0 
Q 953 541 1156 1306 
Q 1359 2072 1739 2783 
Q 2119 3494 2547 3981 
L 303 3981 
z
" id="ArialMT-37" transform="scale(0.015625)"/>
       </defs>
       <use xlink:href="#ArialMT-30"/>
       <use x="55.615234" xlink:href="#ArialMT-2e"/>
       <use x="83.398438" xlink:href="#ArialMT-37"/>
      </g>
     </g>
    </g>
    <g id="text_9">
     <!-- Pixel intensity before washing -->
     <g transform="translate(137.361562 338.648844)scale(0.15 -0.15)">
      <defs>
       <path d="M 494 0 
L 494 4581 
L 2222 4581 
Q 2678 4581 2919 4538 
Q 3256 4481 3484 4323 
Q 3713 4166 3852 3881 
Q 3991 3597 3991 3256 
Q 3991 2672 3619 2267 
Q 3247 1863 2275 1863 
L 1100 1863 
L 1100 0 
L 494 0 
z
M 1100 2403 
L 2284 2403 
Q 2872 2403 3119 2622 
Q 3366 2841 3366 3238 
Q 3366 3525 3220 3729 
Q 3075 3934 2838 4000 
Q 2684 4041 2272 4041 
L 1100 4041 
L 1100 2403 
z
" id="ArialMT-50" transform="scale(0.015625)"/>
       <path d="M 425 3934 
L 425 4581 
L 988 4581 
L 988 3934 
L 425 3934 
z
M 425 0 
L 425 3319 
L 988 3319 
L 988 0 
L 425 0 
z
" id="ArialMT-69" transform="scale(0.015625)"/>
       <path d="M 47 0 
L 1259 1725 
L 138 3319 
L 841 3319 
L 1350 2541 
Q 1494 2319 1581 2169 
Q 1719 2375 1834 2534 
L 2394 3319 
L 3066 3319 
L 1919 1756 
L 3153 0 
L 2463 0 
L 1781 1031 
L 1600 1309 
L 728 0 
L 47 0 
z
" id="ArialMT-78" transform="scale(0.015625)"/>
       <path d="M 2694 1069 
L 3275 997 
Q 3138 488 2766 206 
Q 2394 -75 1816 -75 
Q 1088 -75 661 373 
Q 234 822 234 1631 
Q 234 2469 665 2931 
Q 1097 3394 1784 3394 
Q 2450 3394 2872 2941 
Q 3294 2488 3294 1666 
Q 3294 1616 3291 1516 
L 816 1516 
Q 847 969 1125 678 
Q 1403 388 1819 388 
Q 2128 388 2347 550 
Q 2566 713 2694 1069 
z
M 847 1978 
L 2700 1978 
Q 2663 2397 2488 2606 
Q 2219 2931 1791 2931 
Q 1403 2931 1139 2672 
Q 875 2413 847 1978 
z
" id="ArialMT-65" transform="scale(0.015625)"/>
       <path d="M 409 0 
L 409 4581 
L 972 4581 
L 972 0 
L 409 0 
z
" id="ArialMT-6c" transform="scale(0.015625)"/>
       <path id="ArialMT-20" transform="scale(0.015625)"/>
       <path d="M 422 0 
L 422 3319 
L 928 3319 
L 928 2847 
Q 1294 3394 1984 3394 
Q 2284 3394 2536 3286 
Q 2788 3178 2913 3003 
Q 3038 2828 3088 2588 
Q 3119 2431 3119 2041 
L 3119 0 
L 2556 0 
L 2556 2019 
Q 2556 2363 2490 2533 
Q 2425 2703 2258 2804 
Q 2091 2906 1866 2906 
Q 1506 2906 1245 2678 
Q 984 2450 984 1813 
L 984 0 
L 422 0 
z
" id="ArialMT-6e" transform="scale(0.015625)"/>
       <path d="M 1650 503 
L 1731 6 
Q 1494 -44 1306 -44 
Q 1000 -44 831 53 
Q 663 150 594 308 
Q 525 466 525 972 
L 525 2881 
L 113 2881 
L 113 3319 
L 525 3319 
L 525 4141 
L 1084 4478 
L 1084 3319 
L 1650 3319 
L 1650 2881 
L 1084 2881 
L 1084 941 
Q 1084 700 1114 631 
Q 1144 563 1211 522 
Q 1278 481 1403 481 
Q 1497 481 1650 503 
z
" id="ArialMT-74" transform="scale(0.015625)"/>
       <path d="M 197 991 
L 753 1078 
Q 800 744 1014 566 
Q 1228 388 1613 388 
Q 2000 388 2187 545 
Q 2375 703 2375 916 
Q 2375 1106 2209 1216 
Q 2094 1291 1634 1406 
Q 1016 1563 777 1677 
Q 538 1791 414 1992 
Q 291 2194 291 2438 
Q 291 2659 392 2848 
Q 494 3038 669 3163 
Q 800 3259 1026 3326 
Q 1253 3394 1513 3394 
Q 1903 3394 2198 3281 
Q 2494 3169 2634 2976 
Q 2775 2784 2828 2463 
L 2278 2388 
Q 2241 2644 2061 2787 
Q 1881 2931 1553 2931 
Q 1166 2931 1000 2803 
Q 834 2675 834 2503 
Q 834 2394 903 2306 
Q 972 2216 1119 2156 
Q 1203 2125 1616 2013 
Q 2213 1853 2448 1751 
Q 2684 1650 2818 1456 
Q 2953 1263 2953 975 
Q 2953 694 2789 445 
Q 2625 197 2315 61 
Q 2006 -75 1616 -75 
Q 969 -75 630 194 
Q 291 463 197 991 
z
" id="ArialMT-73" transform="scale(0.015625)"/>
       <path d="M 397 -1278 
L 334 -750 
Q 519 -800 656 -800 
Q 844 -800 956 -737 
Q 1069 -675 1141 -563 
Q 1194 -478 1313 -144 
Q 1328 -97 1363 -6 
L 103 3319 
L 709 3319 
L 1400 1397 
Q 1534 1031 1641 628 
Q 1738 1016 1872 1384 
L 2581 3319 
L 3144 3319 
L 1881 -56 
Q 1678 -603 1566 -809 
Q 1416 -1088 1222 -1217 
Q 1028 -1347 759 -1347 
Q 597 -1347 397 -1278 
z
" id="ArialMT-79" transform="scale(0.015625)"/>
       <path d="M 941 0 
L 419 0 
L 419 4581 
L 981 4581 
L 981 2947 
Q 1338 3394 1891 3394 
Q 2197 3394 2470 3270 
Q 2744 3147 2920 2923 
Q 3097 2700 3197 2384 
Q 3297 2069 3297 1709 
Q 3297 856 2875 390 
Q 2453 -75 1863 -75 
Q 1275 -75 941 416 
L 941 0 
z
M 934 1684 
Q 934 1088 1097 822 
Q 1363 388 1816 388 
Q 2184 388 2453 708 
Q 2722 1028 2722 1663 
Q 2722 2313 2464 2622 
Q 2206 2931 1841 2931 
Q 1472 2931 1203 2611 
Q 934 2291 934 1684 
z
" id="ArialMT-62" transform="scale(0.015625)"/>
       <path d="M 556 0 
L 556 2881 
L 59 2881 
L 59 3319 
L 556 3319 
L 556 3672 
Q 556 4006 616 4169 
Q 697 4388 901 4523 
Q 1106 4659 1475 4659 
Q 1713 4659 2000 4603 
L 1916 4113 
Q 1741 4144 1584 4144 
Q 1328 4144 1222 4034 
Q 1116 3925 1116 3625 
L 1116 3319 
L 1763 3319 
L 1763 2881 
L 1116 2881 
L 1116 0 
L 556 0 
z
" id="ArialMT-66" transform="scale(0.015625)"/>
       <path d="M 213 1659 
Q 213 2581 725 3025 
Q 1153 3394 1769 3394 
Q 2453 3394 2887 2945 
Q 3322 2497 3322 1706 
Q 3322 1066 3130 698 
Q 2938 331 2570 128 
Q 2203 -75 1769 -75 
Q 1072 -75 642 372 
Q 213 819 213 1659 
z
M 791 1659 
Q 791 1022 1069 705 
Q 1347 388 1769 388 
Q 2188 388 2466 706 
Q 2744 1025 2744 1678 
Q 2744 2294 2464 2611 
Q 2184 2928 1769 2928 
Q 1347 2928 1069 2612 
Q 791 2297 791 1659 
z
" id="ArialMT-6f" transform="scale(0.015625)"/>
       <path d="M 416 0 
L 416 3319 
L 922 3319 
L 922 2816 
Q 1116 3169 1280 3281 
Q 1444 3394 1641 3394 
Q 1925 3394 2219 3213 
L 2025 2691 
Q 1819 2813 1613 2813 
Q 1428 2813 1281 2702 
Q 1134 2591 1072 2394 
Q 978 2094 978 1738 
L 978 0 
L 416 0 
z
" id="ArialMT-72" transform="scale(0.015625)"/>
       <path d="M 1034 0 
L 19 3319 
L 600 3319 
L 1128 1403 
L 1325 691 
Q 1338 744 1497 1375 
L 2025 3319 
L 2603 3319 
L 3100 1394 
L 3266 759 
L 3456 1400 
L 4025 3319 
L 4572 3319 
L 3534 0 
L 2950 0 
L 2422 1988 
L 2294 2553 
L 1622 0 
L 1034 0 
z
" id="ArialMT-77" transform="scale(0.015625)"/>
       <path d="M 2588 409 
Q 2275 144 1986 34 
Q 1697 -75 1366 -75 
Q 819 -75 525 192 
Q 231 459 231 875 
Q 231 1119 342 1320 
Q 453 1522 633 1644 
Q 813 1766 1038 1828 
Q 1203 1872 1538 1913 
Q 2219 1994 2541 2106 
Q 2544 2222 2544 2253 
Q 2544 2597 2384 2738 
Q 2169 2928 1744 2928 
Q 1347 2928 1158 2789 
Q 969 2650 878 2297 
L 328 2372 
Q 403 2725 575 2942 
Q 747 3159 1072 3276 
Q 1397 3394 1825 3394 
Q 2250 3394 2515 3294 
Q 2781 3194 2906 3042 
Q 3031 2891 3081 2659 
Q 3109 2516 3109 2141 
L 3109 1391 
Q 3109 606 3145 398 
Q 3181 191 3288 0 
L 2700 0 
Q 2613 175 2588 409 
z
M 2541 1666 
Q 2234 1541 1622 1453 
Q 1275 1403 1131 1340 
Q 988 1278 909 1158 
Q 831 1038 831 891 
Q 831 666 1001 516 
Q 1172 366 1500 366 
Q 1825 366 2078 508 
Q 2331 650 2450 897 
Q 2541 1088 2541 1459 
L 2541 1666 
z
" id="ArialMT-61" transform="scale(0.015625)"/>
       <path d="M 422 0 
L 422 4581 
L 984 4581 
L 984 2938 
Q 1378 3394 1978 3394 
Q 2347 3394 2619 3248 
Q 2891 3103 3008 2847 
Q 3125 2591 3125 2103 
L 3125 0 
L 2563 0 
L 2563 2103 
Q 2563 2525 2380 2717 
Q 2197 2909 1863 2909 
Q 1613 2909 1392 2779 
Q 1172 2650 1078 2428 
Q 984 2206 984 1816 
L 984 0 
L 422 0 
z
" id="ArialMT-68" transform="scale(0.015625)"/>
       <path d="M 319 -275 
L 866 -356 
Q 900 -609 1056 -725 
Q 1266 -881 1628 -881 
Q 2019 -881 2231 -725 
Q 2444 -569 2519 -288 
Q 2563 -116 2559 434 
Q 2191 0 1641 0 
Q 956 0 581 494 
Q 206 988 206 1678 
Q 206 2153 378 2554 
Q 550 2956 876 3175 
Q 1203 3394 1644 3394 
Q 2231 3394 2613 2919 
L 2613 3319 
L 3131 3319 
L 3131 450 
Q 3131 -325 2973 -648 
Q 2816 -972 2473 -1159 
Q 2131 -1347 1631 -1347 
Q 1038 -1347 672 -1080 
Q 306 -813 319 -275 
z
M 784 1719 
Q 784 1066 1043 766 
Q 1303 466 1694 466 
Q 2081 466 2343 764 
Q 2606 1063 2606 1700 
Q 2606 2309 2336 2618 
Q 2066 2928 1684 2928 
Q 1309 2928 1046 2623 
Q 784 2319 784 1719 
z
" id="ArialMT-67" transform="scale(0.015625)"/>
      </defs>
      <use xlink:href="#ArialMT-50"/>
      <use x="66.699219" xlink:href="#ArialMT-69"/>
      <use x="88.916016" xlink:href="#ArialMT-78"/>
      <use x="138.916016" xlink:href="#ArialMT-65"/>
      <use x="194.53125" xlink:href="#ArialMT-6c"/>
      <use x="216.748047" xlink:href="#ArialMT-20"/>
      <use x="244.53125" xlink:href="#ArialMT-69"/>
      <use x="266.748047" xlink:href="#ArialMT-6e"/>
      <use x="322.363281" xlink:href="#ArialMT-74"/>
      <use x="350.146484" xlink:href="#ArialMT-65"/>
      <use x="405.761719" xlink:href="#ArialMT-6e"/>
      <use x="461.376953" xlink:href="#ArialMT-73"/>
      <use x="511.376953" xlink:href="#ArialMT-69"/>
      <use x="533.59375" xlink:href="#ArialMT-74"/>
      <use x="561.376953" xlink:href="#ArialMT-79"/>
      <use x="611.376953" xlink:href="#ArialMT-20"/>
      <use x="639.160156" xlink:href="#ArialMT-62"/>
      <use x="694.775391" xlink:href="#ArialMT-65"/>
      <use x="750.390625" xlink:href="#ArialMT-66"/>
      <use x="778.173828" xlink:href="#ArialMT-6f"/>
      <use x="833.789062" xlink:href="#ArialMT-72"/>
      <use x="867.089844" xlink:href="#ArialMT-65"/>
      <use x="922.705078" xlink:href="#ArialMT-20"/>
      <use x="950.488281" xlink:href="#ArialMT-77"/>
      <use x="1022.705078" xlink:href="#ArialMT-61"/>
      <use x="1078.320312" xlink:href="#ArialMT-73"/>
      <use x="1128.320312" xlink:href="#ArialMT-68"/>
      <use x="1183.935547" xlink:href="#ArialMT-69"/>
      <use x="1206.152344" xlink:href="#ArialMT-6e"/>
      <use x="1261.767578" xlink:href="#ArialMT-67"/>
     </g>
    </g>
   </g>
   <g id="matplotlib.axis_2">
    <g id="ytick_1">
     <g id="line2d_9">
      <defs>
       <path d="M 0 0 
L -3.5 0 
" id="mea1f67d6c8" style="stroke:#000000;stroke-width:0.8;"/>
      </defs>
      <g>
       <use style="stroke:#000000;stroke-width:0.8;" x="57.6" xlink:href="#mea1f67d6c8" y="307.584"/>
      </g>
     </g>
     <g id="text_10">
      <!-- 0 -->
      <g transform="translate(45.039062 311.162906)scale(0.1 -0.1)">
       <use xlink:href="#ArialMT-30"/>
      </g>
     </g>
    </g>
    <g id="ytick_2">
     <g id="line2d_10">
      <g>
       <use style="stroke:#000000;stroke-width:0.8;" x="57.6" xlink:href="#mea1f67d6c8" y="252.96331"/>
      </g>
     </g>
     <g id="text_11">
      <!-- 50 -->
      <g transform="translate(39.478125 256.542217)scale(0.1 -0.1)">
       <use xlink:href="#ArialMT-35"/>
       <use x="55.615234" xlink:href="#ArialMT-30"/>
      </g>
     </g>
    </g>
    <g id="ytick_3">
     <g id="line2d_11">
      <g>
       <use style="stroke:#000000;stroke-width:0.8;" x="57.6" xlink:href="#mea1f67d6c8" y="198.342621"/>
      </g>
     </g>
     <g id="text_12">
      <!-- 100 -->
      <g transform="translate(33.917187 201.921527)scale(0.1 -0.1)">
       <use xlink:href="#ArialMT-31"/>
       <use x="55.615234" xlink:href="#ArialMT-30"/>
       <use x="111.230469" xlink:href="#ArialMT-30"/>
      </g>
     </g>
    </g>
    <g id="ytick_4">
     <g id="line2d_12">
      <g>
       <use style="stroke:#000000;stroke-width:0.8;" x="57.6" xlink:href="#mea1f67d6c8" y="143.721931"/>
      </g>
     </g>
     <g id="text_13">
      <!-- 150 -->
      <g transform="translate(33.917187 147.300837)scale(0.1 -0.1)">
       <use xlink:href="#ArialMT-31"/>
       <use x="55.615234" xlink:href="#ArialMT-35"/>
       <use x="111.230469" xlink:href="#ArialMT-30"/>
      </g>
     </g>
    </g>
    <g id="ytick_5">
     <g id="line2d_13">
      <g>
       <use style="stroke:#000000;stroke-width:0.8;" x="57.6" xlink:href="#mea1f67d6c8" y="89.101241"/>
      </g>
     </g>
     <g id="text_14">
      <!-- 200 -->
      <g transform="translate(33.917187 92.680148)scale(0.1 -0.1)">
       <use xlink:href="#ArialMT-32"/>
       <use x="55.615234" xlink:href="#ArialMT-30"/>
       <use x="111.230469" xlink:href="#ArialMT-30"/>
      </g>
     </g>
    </g>
    <g id="text_15">
     <!-- Number of strains -->
     <g transform="translate(26.935937 233.711203)rotate(-90)scale(0.15 -0.15)">
      <defs>
       <path d="M 488 0 
L 488 4581 
L 1109 4581 
L 3516 984 
L 3516 4581 
L 4097 4581 
L 4097 0 
L 3475 0 
L 1069 3600 
L 1069 0 
L 488 0 
z
" id="ArialMT-4e" transform="scale(0.015625)"/>
       <path d="M 2597 0 
L 2597 488 
Q 2209 -75 1544 -75 
Q 1250 -75 995 37 
Q 741 150 617 320 
Q 494 491 444 738 
Q 409 903 409 1263 
L 409 3319 
L 972 3319 
L 972 1478 
Q 972 1038 1006 884 
Q 1059 663 1231 536 
Q 1403 409 1656 409 
Q 1909 409 2131 539 
Q 2353 669 2445 892 
Q 2538 1116 2538 1541 
L 2538 3319 
L 3100 3319 
L 3100 0 
L 2597 0 
z
" id="ArialMT-75" transform="scale(0.015625)"/>
       <path d="M 422 0 
L 422 3319 
L 925 3319 
L 925 2853 
Q 1081 3097 1340 3245 
Q 1600 3394 1931 3394 
Q 2300 3394 2536 3241 
Q 2772 3088 2869 2813 
Q 3263 3394 3894 3394 
Q 4388 3394 4653 3120 
Q 4919 2847 4919 2278 
L 4919 0 
L 4359 0 
L 4359 2091 
Q 4359 2428 4304 2576 
Q 4250 2725 4106 2815 
Q 3963 2906 3769 2906 
Q 3419 2906 3187 2673 
Q 2956 2441 2956 1928 
L 2956 0 
L 2394 0 
L 2394 2156 
Q 2394 2531 2256 2718 
Q 2119 2906 1806 2906 
Q 1569 2906 1367 2781 
Q 1166 2656 1075 2415 
Q 984 2175 984 1722 
L 984 0 
L 422 0 
z
" id="ArialMT-6d" transform="scale(0.015625)"/>
      </defs>
      <use xlink:href="#ArialMT-4e"/>
      <use x="72.216797" xlink:href="#ArialMT-75"/>
      <use x="127.832031" xlink:href="#ArialMT-6d"/>
      <use x="211.132812" xlink:href="#ArialMT-62"/>
      <use x="266.748047" xlink:href="#ArialMT-65"/>
      <use x="322.363281" xlink:href="#ArialMT-72"/>
      <use x="355.664062" xlink:href="#ArialMT-20"/>
      <use x="383.447266" xlink:href="#ArialMT-6f"/>
      <use x="439.0625" xlink:href="#ArialMT-66"/>
      <use x="466.845703" xlink:href="#ArialMT-20"/>
      <use x="494.628906" xlink:href="#ArialMT-73"/>
      <use x="544.628906" xlink:href="#ArialMT-74"/>
      <use x="572.412109" xlink:href="#ArialMT-72"/>
      <use x="605.712891" xlink:href="#ArialMT-61"/>
      <use x="661.328125" xlink:href="#ArialMT-69"/>
      <use x="683.544922" xlink:href="#ArialMT-6e"/>
      <use x="739.160156" xlink:href="#ArialMT-73"/>
     </g>
    </g>
   </g>
   <g id="line2d_14">
    <path clip-path="url(#p870e01da9d)" d="M 120.243075 307.584 
L 120.243075 41.472 
" style="fill:none;stroke:#008000;stroke-linecap:square;stroke-width:4;"/>
   </g>
   <g id="patch_203">
    <path d="M 57.6 307.584 
L 57.6 41.472 
" style="fill:none;stroke:#000000;stroke-linecap:square;stroke-linejoin:miter;stroke-width:0.8;"/>
   </g>
   <g id="patch_204">
    <path d="M 414.72 307.584 
L 414.72 41.472 
" style="fill:none;stroke:#000000;stroke-linecap:square;stroke-linejoin:miter;stroke-width:0.8;"/>
   </g>
   <g id="patch_205">
    <path d="M 57.6 307.584 
L 414.72 307.584 
" style="fill:none;stroke:#000000;stroke-linecap:square;stroke-linejoin:miter;stroke-width:0.8;"/>
   </g>
   <g id="patch_206">
    <path d="M 57.6 41.472 
L 414.72 41.472 
" style="fill:none;stroke:#000000;stroke-linecap:square;stroke-linejoin:miter;stroke-width:0.8;"/>
   </g>
   <g id="text_16">
    <!-- 3631 out of 4347 strains had values above 0.1 -->
    <g transform="translate(143.448249 121.873655)scale(0.1 -0.1)">
     <defs>
      <path d="M 2575 0 
L 2575 419 
Q 2259 -75 1647 -75 
Q 1250 -75 917 144 
Q 584 363 401 755 
Q 219 1147 219 1656 
Q 219 2153 384 2558 
Q 550 2963 881 3178 
Q 1213 3394 1622 3394 
Q 1922 3394 2156 3267 
Q 2391 3141 2538 2938 
L 2538 4581 
L 3097 4581 
L 3097 0 
L 2575 0 
z
M 797 1656 
Q 797 1019 1065 703 
Q 1334 388 1700 388 
Q 2069 388 2326 689 
Q 2584 991 2584 1609 
Q 2584 2291 2321 2609 
Q 2059 2928 1675 2928 
Q 1300 2928 1048 2622 
Q 797 2316 797 1656 
z
" id="ArialMT-64" transform="scale(0.015625)"/>
      <path d="M 1344 0 
L 81 3319 
L 675 3319 
L 1388 1331 
Q 1503 1009 1600 663 
Q 1675 925 1809 1294 
L 2547 3319 
L 3125 3319 
L 1869 0 
L 1344 0 
z
" id="ArialMT-76" transform="scale(0.015625)"/>
     </defs>
     <use xlink:href="#ArialMT-33"/>
     <use x="55.615234" xlink:href="#ArialMT-36"/>
     <use x="111.230469" xlink:href="#ArialMT-33"/>
     <use x="166.845703" xlink:href="#ArialMT-31"/>
     <use x="222.460938" xlink:href="#ArialMT-20"/>
     <use x="250.244141" xlink:href="#ArialMT-6f"/>
     <use x="305.859375" xlink:href="#ArialMT-75"/>
     <use x="361.474609" xlink:href="#ArialMT-74"/>
     <use x="389.257812" xlink:href="#ArialMT-20"/>
     <use x="417.041016" xlink:href="#ArialMT-6f"/>
     <use x="472.65625" xlink:href="#ArialMT-66"/>
     <use x="500.439453" xlink:href="#ArialMT-20"/>
     <use x="528.222656" xlink:href="#ArialMT-34"/>
     <use x="583.837891" xlink:href="#ArialMT-33"/>
     <use x="639.453125" xlink:href="#ArialMT-34"/>
     <use x="695.068359" xlink:href="#ArialMT-37"/>
     <use x="750.683594" xlink:href="#ArialMT-20"/>
     <use x="778.466797" xlink:href="#ArialMT-73"/>
     <use x="828.466797" xlink:href="#ArialMT-74"/>
     <use x="856.25" xlink:href="#ArialMT-72"/>
     <use x="889.550781" xlink:href="#ArialMT-61"/>
     <use x="945.166016" xlink:href="#ArialMT-69"/>
     <use x="967.382812" xlink:href="#ArialMT-6e"/>
     <use x="1022.998047" xlink:href="#ArialMT-73"/>
     <use x="1072.998047" xlink:href="#ArialMT-20"/>
     <use x="1100.78125" xlink:href="#ArialMT-68"/>
     <use x="1156.396484" xlink:href="#ArialMT-61"/>
     <use x="1212.011719" xlink:href="#ArialMT-64"/>
     <use x="1267.626953" xlink:href="#ArialMT-20"/>
     <use x="1295.410156" xlink:href="#ArialMT-76"/>
     <use x="1345.410156" xlink:href="#ArialMT-61"/>
     <use x="1401.025391" xlink:href="#ArialMT-6c"/>
     <use x="1423.242188" xlink:href="#ArialMT-75"/>
     <use x="1478.857422" xlink:href="#ArialMT-65"/>
     <use x="1534.472656" xlink:href="#ArialMT-73"/>
     <use x="1584.472656" xlink:href="#ArialMT-20"/>
     <use x="1612.255859" xlink:href="#ArialMT-61"/>
     <use x="1667.871094" xlink:href="#ArialMT-62"/>
     <use x="1723.486328" xlink:href="#ArialMT-6f"/>
     <use x="1779.101562" xlink:href="#ArialMT-76"/>
     <use x="1829.101562" xlink:href="#ArialMT-65"/>
     <use x="1884.716797" xlink:href="#ArialMT-20"/>
     <use x="1912.5" xlink:href="#ArialMT-30"/>
     <use x="1968.115234" xlink:href="#ArialMT-2e"/>
     <use x="1995.898438" xlink:href="#ArialMT-31"/>
    </g>
   </g>
   <g id="legend_1">
    <g id="patch_207">
     <path d="M 343.254375 57.629813 
L 363.254375 57.629813 
L 363.254375 50.629813 
L 343.254375 50.629813 
z
" style="fill:#808080;"/>
    </g>
    <g id="text_17">
     <!-- ncRNA -->
     <g transform="translate(371.254375 57.629813)scale(0.1 -0.1)">
      <defs>
       <path d="M 2588 1216 
L 3141 1144 
Q 3050 572 2676 248 
Q 2303 -75 1759 -75 
Q 1078 -75 664 370 
Q 250 816 250 1647 
Q 250 2184 428 2587 
Q 606 2991 970 3192 
Q 1334 3394 1763 3394 
Q 2303 3394 2647 3120 
Q 2991 2847 3088 2344 
L 2541 2259 
Q 2463 2594 2264 2762 
Q 2066 2931 1784 2931 
Q 1359 2931 1093 2626 
Q 828 2322 828 1663 
Q 828 994 1084 691 
Q 1341 388 1753 388 
Q 2084 388 2306 591 
Q 2528 794 2588 1216 
z
" id="ArialMT-63" transform="scale(0.015625)"/>
       <path d="M 503 0 
L 503 4581 
L 2534 4581 
Q 3147 4581 3465 4457 
Q 3784 4334 3975 4021 
Q 4166 3709 4166 3331 
Q 4166 2844 3850 2509 
Q 3534 2175 2875 2084 
Q 3116 1969 3241 1856 
Q 3506 1613 3744 1247 
L 4541 0 
L 3778 0 
L 3172 953 
Q 2906 1366 2734 1584 
Q 2563 1803 2427 1890 
Q 2291 1978 2150 2013 
Q 2047 2034 1813 2034 
L 1109 2034 
L 1109 0 
L 503 0 
z
M 1109 2559 
L 2413 2559 
Q 2828 2559 3062 2645 
Q 3297 2731 3419 2920 
Q 3541 3109 3541 3331 
Q 3541 3656 3305 3865 
Q 3069 4075 2559 4075 
L 1109 4075 
L 1109 2559 
z
" id="ArialMT-52" transform="scale(0.015625)"/>
       <path d="M -9 0 
L 1750 4581 
L 2403 4581 
L 4278 0 
L 3588 0 
L 3053 1388 
L 1138 1388 
L 634 0 
L -9 0 
z
M 1313 1881 
L 2866 1881 
L 2388 3150 
Q 2169 3728 2063 4100 
Q 1975 3659 1816 3225 
L 1313 1881 
z
" id="ArialMT-41" transform="scale(0.015625)"/>
      </defs>
      <use xlink:href="#ArialMT-6e"/>
      <use x="55.615234" xlink:href="#ArialMT-63"/>
      <use x="105.615234" xlink:href="#ArialMT-52"/>
      <use x="177.832031" xlink:href="#ArialMT-4e"/>
      <use x="250.048828" xlink:href="#ArialMT-41"/>
     </g>
    </g>
    <g id="patch_208">
     <path d="M 343.254375 71.775125 
L 363.254375 71.775125 
L 363.254375 64.775125 
L 343.254375 64.775125 
z
" style="fill:#0000ff;"/>
    </g>
    <g id="text_18">
     <!-- Bioneer -->
     <g transform="translate(371.254375 71.775125)scale(0.1 -0.1)">
      <defs>
       <path d="M 469 0 
L 469 4581 
L 2188 4581 
Q 2713 4581 3030 4442 
Q 3347 4303 3526 4014 
Q 3706 3725 3706 3409 
Q 3706 3116 3547 2856 
Q 3388 2597 3066 2438 
Q 3481 2316 3704 2022 
Q 3928 1728 3928 1328 
Q 3928 1006 3792 729 
Q 3656 453 3456 303 
Q 3256 153 2954 76 
Q 2653 0 2216 0 
L 469 0 
z
M 1075 2656 
L 2066 2656 
Q 2469 2656 2644 2709 
Q 2875 2778 2992 2937 
Q 3109 3097 3109 3338 
Q 3109 3566 3000 3739 
Q 2891 3913 2687 3977 
Q 2484 4041 1991 4041 
L 1075 4041 
L 1075 2656 
z
M 1075 541 
L 2216 541 
Q 2509 541 2628 563 
Q 2838 600 2978 687 
Q 3119 775 3209 942 
Q 3300 1109 3300 1328 
Q 3300 1584 3169 1773 
Q 3038 1963 2805 2039 
Q 2572 2116 2134 2116 
L 1075 2116 
L 1075 541 
z
" id="ArialMT-42" transform="scale(0.015625)"/>
      </defs>
      <use xlink:href="#ArialMT-42"/>
      <use x="66.699219" xlink:href="#ArialMT-69"/>
      <use x="88.916016" xlink:href="#ArialMT-6f"/>
      <use x="144.53125" xlink:href="#ArialMT-6e"/>
      <use x="200.146484" xlink:href="#ArialMT-65"/>
      <use x="255.761719" xlink:href="#ArialMT-65"/>
      <use x="311.376953" xlink:href="#ArialMT-72"/>
     </g>
    </g>
   </g>
  </g>
 </g>
 <defs>
  <clipPath id="p870e01da9d">
   <rect height="266.112" width="357.12" x="57.6" y="41.472"/>
  </clipPath>
 </defs>
</svg>
