<svg version="1.1" xmlns="http://www.w3.org/2000/svg" width="580" height="363"><defs><clipPath id="vkUsdsyrmFyJ"><path fill="none" stroke="none" d="M 65.5 34.5 L 440.5 34.5 L 440.5 309.5 L 65.5 309.5 L 65.5 34.5"/></clipPath><clipPath id="GaFwhCCqehIS"><path fill="none" stroke="none" d="M 65.5 34.5 L 440.5 34.5 L 440.5 309.5 L 65.5 309.5 L 65.5 34.5"/></clipPath><clipPath id="NvSTKObxokbV"><path fill="none" stroke="none" d="M 65.5 34.5 L 440.5 34.5 L 440.5 309.5 L 65.5 309.5 L 65.5 34.5"/></clipPath><clipPath id="WXAwmSkXhaIu"><path fill="none" stroke="none" d="M 65.5 34.5 L 440.5 34.5 L 440.5 309.5 L 65.5 309.5 L 65.5 34.5"/></clipPath><clipPath id="hXZUwVmeTHlH"><path fill="none" stroke="none" d="M 65.5 34.5 L 440.5 34.5 L 440.5 309.5 L 65.5 309.5 L 65.5 34.5"/></clipPath><clipPath id="LLEIQTGqtMNr"><path fill="none" stroke="none" d="M 65.5 34.5 L 440.5 34.5 L 440.5 309.5 L 65.5 309.5 L 65.5 34.5"/></clipPath><clipPath id="xRiOpkvZLzPw"><path fill="none" stroke="none" d="M 65.5 34.5 L 440.5 34.5 L 440.5 309.5 L 65.5 309.5 L 65.5 34.5"/></clipPath><clipPath id="hZUWzLmZweac"><path fill="none" stroke="none" d="M 65.5 34.5 L 440.5 34.5 L 440.5 309.5 L 65.5 309.5 L 65.5 34.5"/></clipPath><clipPath id="xRfNwWsStivx"><path fill="none" stroke="none" d="M 65.5 34.5 L 440.5 34.5 L 440.5 309.5 L 65.5 309.5 L 65.5 34.5"/></clipPath><clipPath id="eimigMcIzBSA"><path fill="none" stroke="none" d="M 65.5 34.5 L 440.5 34.5 L 440.5 309.5 L 65.5 309.5 L 65.5 34.5"/></clipPath><clipPath id="iyInRhJXEZfV"><path fill="none" stroke="none" d="M 65.5 34.5 L 440.5 34.5 L 440.5 309.5 L 65.5 309.5 L 65.5 34.5"/></clipPath><clipPath id="TiEbounpTklU"><path fill="none" stroke="none" d="M 65.5 34.5 L 440.5 34.5 L 440.5 309.5 L 65.5 309.5 L 65.5 34.5"/></clipPath><clipPath id="DGaIFVzRIoDm"><path fill="none" stroke="none" d="M 65.5 34.5 L 440.5 34.5 L 440.5 309.5 L 65.5 309.5 L 65.5 34.5"/></clipPath><clipPath id="xRvozHrlJuDL"><path fill="none" stroke="none" d="M 65.5 34.5 L 440.5 34.5 L 440.5 309.5 L 65.5 309.5 L 65.5 34.5"/></clipPath><clipPath id="IXhcbedsNmSa"><path fill="none" stroke="none" d="M 65.5 34.5 L 440.5 34.5 L 440.5 309.5 L 65.5 309.5 L 65.5 34.5"/></clipPath><clipPath id="zHEbGUxeDXns"><path fill="none" stroke="none" d="M 65.5 34.5 L 440.5 34.5 L 440.5 309.5 L 65.5 309.5 L 65.5 34.5"/></clipPath><clipPath id="uAElESvUNszr"><path fill="none" stroke="none" d="M 65.5 34.5 L 440.5 34.5 L 440.5 309.5 L 65.5 309.5 L 65.5 34.5"/></clipPath></defs><path fill="rgb(255,255,255)" stroke="none" paint-order="stroke" d="M 0.5 0.5 L 580.5 0.5 L 580.5 363.5 L 0.5 363.5 L 0.5 0.5" fill-opacity="1"/><rect fill="#FFFFFF" stroke="none" x="65" y="34" width="375" height="275" transform="matrix(1, 0, 0, 1, 0.5, 0.5)"/><path fill="rgb(255,255,255)" stroke="none" paint-order="stroke" d="M 65.5 34.5 L 440.5 34.5 L 440.5 309.5 L 65.5 309.5 L 65.5 34.5" fill-opacity="1"/><path fill="none" stroke="rgb(229,229,229)" paint-order="fill" d="M 65.5 34.5 L 440.5 34.5 L 440.5 309.5 L 65.5 309.5 L 65.5 34.5" stroke-opacity="1" stroke-linejoin="bevel" stroke-miterlimit="10" stroke-dasharray=""/><path fill="none" stroke="rgb(229,229,229)" paint-order="fill" d="M 140.5 309.5 L 140.5 34.5 M 215.5 309.5 L 215.5 34.5 M 290.5 309.5 L 290.5 34.5 M 365.5 309.5 L 365.5 34.5" stroke-opacity="1" stroke-linejoin="bevel" stroke-miterlimit="10" stroke-dasharray="" clip-path="url(#vkUsdsyrmFyJ)"/><path fill="none" stroke="rgb(229,229,229)" paint-order="fill" d="M 65.5 297.5 L 440.5 297.5 M 65.5 247.5 L 440.5 247.5 M 65.5 197.5 L 440.5 197.5 M 65.5 147.5 L 440.5 147.5 M 65.5 97.5 L 440.5 97.5 M 65.5 47.5 L 440.5 47.5" stroke-opacity="1" stroke-linejoin="bevel" stroke-miterlimit="10" stroke-dasharray="" clip-path="url(#GaFwhCCqehIS)"/><path fill="rgb(31,119,179)" stroke="none" paint-order="stroke" d="M 226.1118621826172 297 L 226.1118621826172 290.75 L 226.1118621826172 290.75 L 226.1118621826172 284.5 L 226.1118621826172 284.5 L 226.1118621826172 278.25 L 252.29429626464844 278.25 L 252.29429626464844 272 L 252.29429626464844 272 L 252.29429626464844 265.75 L 254.83006286621094 265.75 L 254.83006286621094 259.5 L 254.83006286621094 259.5 L 254.83006286621094 253.25 L 255.43954467773438 253.25 L 255.43954467773438 247 L 255.79458618164062 247 L 255.79458618164062 240.75 L 257.20703125 240.75 L 257.20703125 234.5 L 257.20703125 234.5 L 257.20703125 228.25 L 257.2712707519531 228.25 L 257.2712707519531 222 L 261.3374328613281 222 L 261.3374328613281 215.75 L 261.9917297363281 215.75 L 261.9917297363281 209.5 L 262.92547607421875 209.5 L 262.92547607421875 203.25 L 262.92547607421875 203.25 L 262.92547607421875 197 L 267.893798828125 197 L 267.893798828125 190.75 L 275.6827392578125 190.75 L 275.6827392578125 184.5 L 279.7809753417969 184.5 L 279.7809753417969 178.25 L 280.3822326660156 178.25 L 280.3822326660156 172 L 281.8970642089844 172 L 281.8970642089844 165.75 L 285.052978515625 165.75 L 285.052978515625 159.5 L 288.8399963378906 159.5 L 288.8399963378906 153.25 L 290.68463134765625 153.25 L 290.68463134765625 147 L 304.64251708984375 147 L 304.64251708984375 140.75 L 308.5328063964844 140.75 L 308.5328063964844 134.5 L 319.3317565917969 134.5 L 319.3317565917969 128.25 L 324.26141357421875 128.25 L 324.26141357421875 122 L 329.65924072265625 122 L 329.65924072265625 115.75 L 334.2455749511719 115.75 L 334.2455749511719 109.5 L 339.2203369140625 109.5 L 339.2203369140625 103.25 L 343.0663757324219 103.25 L 343.0663757324219 97 L 346.11663818359375 97 L 346.11663818359375 90.75 L 352.62322998046875 90.75 L 352.62322998046875 84.5 L 356.8054504394531 84.5 L 356.8054504394531 78.25 L 364.6338806152344 78.25 L 364.6338806152344 72 L 369.8408508300781 72 L 369.8408508300781 65.75 L 386.9254455566406 65.75 L 386.9254455566406 59.5 L 394.12347412109375 59.5 L 394.12347412109375 53.25 L 399.95068359375 53.25 L 399.95068359375 47 L 426.37811279296875 47 L 426.37811279296875 53.25 L 426.37811279296875 53.25 L 426.37811279296875 59.5 L 426.37811279296875 59.5 L 426.37811279296875 65.75 L 422.25286865234375 65.75 L 422.25286865234375 72 L 422.25286865234375 72 L 422.25286865234375 78.25 L 402.5817565917969 78.25 L 402.5817565917969 84.5 L 402.5817565917969 84.5 L 402.5817565917969 90.75 L 399.95068359375 90.75 L 399.95068359375 97 L 399.49859619140625 97 L 399.49859619140625 103.25 L 394.12347412109375 103.25 L 394.12347412109375 109.5 L 394.12347412109375 109.5 L 394.12347412109375 115.75 L 386.9254455566406 115.75 L 386.9254455566406 122 L 381.4012756347656 122 L 381.4012756347656 128.25 L 369.8408508300781 128.25 L 369.8408508300781 134.5 L 364.6338806152344 134.5 L 364.6338806152344 140.75 L 356.8054504394531 140.75 L 356.8054504394531 147 L 356.8054504394531 147 L 356.8054504394531 153.25 L 352.62322998046875 153.25 L 352.62322998046875 159.5 L 347.0179138183594 159.5 L 347.0179138183594 165.75 L 346.11663818359375 165.75 L 346.11663818359375 172 L 343.0663757324219 172 L 343.0663757324219 178.25 L 339.2203369140625 178.25 L 339.2203369140625 184.5 L 334.2455749511719 184.5 L 334.2455749511719 190.75 L 329.65924072265625 190.75 L 329.65924072265625 197 L 324.26141357421875 197 L 324.26141357421875 203.25 L 319.3317565917969 203.25 L 319.3317565917969 209.5 L 308.5328063964844 209.5 L 308.5328063964844 215.75 L 304.64251708984375 215.75 L 304.64251708984375 222 L 290.68463134765625 222 L 290.68463134765625 228.25 L 288.8399963378906 228.25 L 288.8399963378906 234.5 L 285.052978515625 234.5 L 285.052978515625 240.75 L 281.8970642089844 240.75 L 281.8970642089844 247 L 280.3822326660156 247 L 280.3822326660156 253.25 L 275.6827392578125 253.25 L 275.6827392578125 259.5 L 267.893798828125 259.5 L 267.893798828125 265.75 L 262.92547607421875 265.75 L 262.92547607421875 272 L 261.9917297363281 272 L 261.9917297363281 278.25 L 257.2712707519531 278.25 L 257.2712707519531 284.5 L 257.20703125 284.5 L 257.20703125 290.75 L 255.43954467773438 290.75 L 255.43954467773438 297 Z" fill-opacity="0.30196078431372547" clip-path="url(#NvSTKObxokbV)"/><path fill="rgb(31,119,179)" stroke="rgb(31,119,179)" paint-order="fill" d="M 383.4012756347656 90.75 A 2 2 0 1 1 383.4012746347657 90.74800000033333" fill-opacity="1" clip-path="url(#WXAwmSkXhaIu)" stroke-opacity="1" stroke-linejoin="bevel" stroke-miterlimit="10" stroke-dasharray=""/><path fill="rgb(31,119,179)" stroke="rgb(31,119,179)" paint-order="fill" d="M 345.0663757324219 134.5 A 2 2 0 1 1 345.06637473242193 134.49800000033332" fill-opacity="1" clip-path="url(#WXAwmSkXhaIu)" stroke-opacity="1" stroke-linejoin="bevel" stroke-miterlimit="10" stroke-dasharray=""/><path fill="rgb(31,119,179)" stroke="rgb(31,119,179)" paint-order="fill" d="M 336.2455749511719 147 A 2 2 0 1 1 336.24557395117193 146.99800000033332" fill-opacity="1" clip-path="url(#WXAwmSkXhaIu)" stroke-opacity="1" stroke-linejoin="bevel" stroke-miterlimit="10" stroke-dasharray=""/><path fill="rgb(31,119,179)" stroke="rgb(31,119,179)" paint-order="fill" d="M 326.26141357421875 159.5 A 2 2 0 1 1 326.2614125742188 159.49800000033332" fill-opacity="1" clip-path="url(#WXAwmSkXhaIu)" stroke-opacity="1" stroke-linejoin="bevel" stroke-miterlimit="10" stroke-dasharray=""/><path fill="rgb(31,119,179)" stroke="rgb(31,119,179)" paint-order="fill" d="M 306.64251708984375 178.25 A 2 2 0 1 1 306.6425160898438 178.24800000033332" fill-opacity="1" clip-path="url(#WXAwmSkXhaIu)" stroke-opacity="1" stroke-linejoin="bevel" stroke-miterlimit="10" stroke-dasharray=""/><path fill="rgb(31,119,179)" stroke="rgb(31,119,179)" paint-order="fill" d="M 282.3822326660156 209.5 A 2 2 0 1 1 282.3822316660157 209.49800000033332" fill-opacity="1" clip-path="url(#WXAwmSkXhaIu)" stroke-opacity="1" stroke-linejoin="bevel" stroke-miterlimit="10" stroke-dasharray=""/><path fill="rgb(31,119,179)" stroke="rgb(31,119,179)" paint-order="fill" d="M 292.68463134765625 184.5 A 2 2 0 1 1 292.6846303476563 184.49800000033332" fill-opacity="1" clip-path="url(#WXAwmSkXhaIu)" stroke-opacity="1" stroke-linejoin="bevel" stroke-miterlimit="10" stroke-dasharray=""/><path fill="rgb(31,119,179)" stroke="rgb(31,119,179)" paint-order="fill" d="M 257.4395446777344 272 A 2 2 0 1 1 257.43954367773443 271.9980000003333" fill-opacity="1" clip-path="url(#WXAwmSkXhaIu)" stroke-opacity="1" stroke-linejoin="bevel" stroke-miterlimit="10" stroke-dasharray=""/><path fill="rgb(31,119,179)" stroke="rgb(31,119,179)" paint-order="fill" d="M 354.62322998046875 115.75 A 2 2 0 1 1 354.6232289804688 115.74800000033333" fill-opacity="1" clip-path="url(#WXAwmSkXhaIu)" stroke-opacity="1" stroke-linejoin="bevel" stroke-miterlimit="10" stroke-dasharray=""/><path fill="rgb(31,119,179)" stroke="rgb(31,119,179)" paint-order="fill" d="M 290.8399963378906 190.75 A 2 2 0 1 1 290.8399953378907 190.74800000033332" fill-opacity="1" clip-path="url(#WXAwmSkXhaIu)" stroke-opacity="1" stroke-linejoin="bevel" stroke-miterlimit="10" stroke-dasharray=""/><path fill="rgb(31,119,179)" stroke="rgb(31,119,179)" paint-order="fill" d="M 424.25286865234375 53.25 A 2 2 0 1 1 424.2528676523438 53.248000000333334" fill-opacity="1" clip-path="url(#WXAwmSkXhaIu)" stroke-opacity="1" stroke-linejoin="bevel" stroke-miterlimit="10" stroke-dasharray=""/><path fill="rgb(31,119,179)" stroke="rgb(31,119,179)" paint-order="fill" d="M 404.5817565917969 59.5 A 2 2 0 1 1 404.58175559179693 59.498000000333334" fill-opacity="1" clip-path="url(#WXAwmSkXhaIu)" stroke-opacity="1" stroke-linejoin="bevel" stroke-miterlimit="10" stroke-dasharray=""/><path fill="rgb(31,119,179)" stroke="rgb(31,119,179)" paint-order="fill" d="M 428.37811279296875 47 A 2 2 0 1 1 428.3781117929688 46.998000000333334" fill-opacity="1" clip-path="url(#WXAwmSkXhaIu)" stroke-opacity="1" stroke-linejoin="bevel" stroke-miterlimit="10" stroke-dasharray=""/><path fill="rgb(31,119,179)" stroke="rgb(31,119,179)" paint-order="fill" d="M 401.49859619140625 72 A 2 2 0 1 1 401.4985951914063 71.99800000033333" fill-opacity="1" clip-path="url(#WXAwmSkXhaIu)" stroke-opacity="1" stroke-linejoin="bevel" stroke-miterlimit="10" stroke-dasharray=""/><path fill="rgb(31,119,179)" stroke="rgb(31,119,179)" paint-order="fill" d="M 371.8408508300781 97 A 2 2 0 1 1 371.8408498300782 96.99800000033333" fill-opacity="1" clip-path="url(#WXAwmSkXhaIu)" stroke-opacity="1" stroke-linejoin="bevel" stroke-miterlimit="10" stroke-dasharray=""/><path fill="rgb(31,119,179)" stroke="rgb(31,119,179)" paint-order="fill" d="M 281.7809753417969 215.75 A 2 2 0 1 1 281.78097434179693 215.74800000033332" fill-opacity="1" clip-path="url(#WXAwmSkXhaIu)" stroke-opacity="1" stroke-linejoin="bevel" stroke-miterlimit="10" stroke-dasharray=""/><path fill="rgb(31,119,179)" stroke="rgb(31,119,179)" paint-order="fill" d="M 287.052978515625 197 A 2 2 0 1 1 287.05297751562506 196.99800000033332" fill-opacity="1" clip-path="url(#WXAwmSkXhaIu)" stroke-opacity="1" stroke-linejoin="bevel" stroke-miterlimit="10" stroke-dasharray=""/><path fill="rgb(31,119,179)" stroke="rgb(31,119,179)" paint-order="fill" d="M 228.1118621826172 290.75 A 2 2 0 1 1 228.11186118261728 290.7480000003333" fill-opacity="1" clip-path="url(#WXAwmSkXhaIu)" stroke-opacity="1" stroke-linejoin="bevel" stroke-miterlimit="10" stroke-dasharray=""/><path fill="rgb(31,119,179)" stroke="rgb(31,119,179)" paint-order="fill" d="M 341.2203369140625 140.75 A 2 2 0 1 1 341.22033591406256 140.74800000033332" fill-opacity="1" clip-path="url(#WXAwmSkXhaIu)" stroke-opacity="1" stroke-linejoin="bevel" stroke-miterlimit="10" stroke-dasharray=""/><path fill="rgb(31,119,179)" stroke="rgb(31,119,179)" paint-order="fill" d="M 310.5328063964844 172 A 2 2 0 1 1 310.53280539648443 171.99800000033332" fill-opacity="1" clip-path="url(#WXAwmSkXhaIu)" stroke-opacity="1" stroke-linejoin="bevel" stroke-miterlimit="10" stroke-dasharray=""/><path fill="rgb(31,119,179)" stroke="rgb(31,119,179)" paint-order="fill" d="M 256.83006286621094 278.25 A 2 2 0 1 1 256.830061866211 278.2480000003333" fill-opacity="1" clip-path="url(#WXAwmSkXhaIu)" stroke-opacity="1" stroke-linejoin="bevel" stroke-miterlimit="10" stroke-dasharray=""/><path fill="rgb(31,119,179)" stroke="rgb(31,119,179)" paint-order="fill" d="M 259.20703125 259.5 A 2 2 0 1 1 259.20703025000006 259.4980000003333" fill-opacity="1" clip-path="url(#WXAwmSkXhaIu)" stroke-opacity="1" stroke-linejoin="bevel" stroke-miterlimit="10" stroke-dasharray=""/><path fill="rgb(31,119,179)" stroke="rgb(31,119,179)" paint-order="fill" d="M 254.29429626464844 284.5 A 2 2 0 1 1 254.29429526464853 284.4980000003333" fill-opacity="1" clip-path="url(#WXAwmSkXhaIu)" stroke-opacity="1" stroke-linejoin="bevel" stroke-miterlimit="10" stroke-dasharray=""/><path fill="rgb(31,119,179)" stroke="rgb(31,119,179)" paint-order="fill" d="M 257.7945861816406 265.75 A 2 2 0 1 1 257.7945851816407 265.7480000003333" fill-opacity="1" clip-path="url(#WXAwmSkXhaIu)" stroke-opacity="1" stroke-linejoin="bevel" stroke-miterlimit="10" stroke-dasharray=""/><path fill="rgb(31,119,179)" stroke="rgb(31,119,179)" paint-order="fill" d="M 263.3374328613281 247 A 2 2 0 1 1 263.3374318613282 246.99800000033332" fill-opacity="1" clip-path="url(#WXAwmSkXhaIu)" stroke-opacity="1" stroke-linejoin="bevel" stroke-miterlimit="10" stroke-dasharray=""/><path fill="rgb(31,119,179)" stroke="rgb(31,119,179)" paint-order="fill" d="M 264.92547607421875 234.5 A 2 2 0 1 1 264.9254750742188 234.49800000033332" fill-opacity="1" clip-path="url(#WXAwmSkXhaIu)" stroke-opacity="1" stroke-linejoin="bevel" stroke-miterlimit="10" stroke-dasharray=""/><path fill="rgb(31,119,179)" stroke="rgb(31,119,179)" paint-order="fill" d="M 277.6827392578125 222 A 2 2 0 1 1 277.68273825781256 221.99800000033332" fill-opacity="1" clip-path="url(#WXAwmSkXhaIu)" stroke-opacity="1" stroke-linejoin="bevel" stroke-miterlimit="10" stroke-dasharray=""/><path fill="rgb(31,119,179)" stroke="rgb(31,119,179)" paint-order="fill" d="M 259.2712707519531 253.25 A 2 2 0 1 1 259.2712697519532 253.24800000033332" fill-opacity="1" clip-path="url(#WXAwmSkXhaIu)" stroke-opacity="1" stroke-linejoin="bevel" stroke-miterlimit="10" stroke-dasharray=""/><path fill="rgb(31,119,179)" stroke="rgb(31,119,179)" paint-order="fill" d="M 269.893798828125 228.25 A 2 2 0 1 1 269.89379782812506 228.24800000033332" fill-opacity="1" clip-path="url(#WXAwmSkXhaIu)" stroke-opacity="1" stroke-linejoin="bevel" stroke-miterlimit="10" stroke-dasharray=""/><path fill="rgb(31,119,179)" stroke="rgb(31,119,179)" paint-order="fill" d="M 263.9917297363281 240.75 A 2 2 0 1 1 263.9917287363282 240.74800000033332" fill-opacity="1" clip-path="url(#WXAwmSkXhaIu)" stroke-opacity="1" stroke-linejoin="bevel" stroke-miterlimit="10" stroke-dasharray=""/><path fill="rgb(31,119,179)" stroke="rgb(31,119,179)" paint-order="fill" d="M 348.11663818359375 128.25 A 2 2 0 1 1 348.1166371835938 128.24800000033332" fill-opacity="1" clip-path="url(#WXAwmSkXhaIu)" stroke-opacity="1" stroke-linejoin="bevel" stroke-miterlimit="10" stroke-dasharray=""/><path fill="rgb(31,119,179)" stroke="rgb(31,119,179)" paint-order="fill" d="M 321.3317565917969 165.75 A 2 2 0 1 1 321.33175559179693 165.74800000033332" fill-opacity="1" clip-path="url(#WXAwmSkXhaIu)" stroke-opacity="1" stroke-linejoin="bevel" stroke-miterlimit="10" stroke-dasharray=""/><path fill="rgb(31,119,179)" stroke="rgb(31,119,179)" paint-order="fill" d="M 401.95068359375 65.75 A 2 2 0 1 1 401.95068259375006 65.74800000033333" fill-opacity="1" clip-path="url(#WXAwmSkXhaIu)" stroke-opacity="1" stroke-linejoin="bevel" stroke-miterlimit="10" stroke-dasharray=""/><path fill="rgb(31,119,179)" stroke="rgb(31,119,179)" paint-order="fill" d="M 388.9254455566406 84.5 A 2 2 0 1 1 388.9254445566407 84.49800000033333" fill-opacity="1" clip-path="url(#WXAwmSkXhaIu)" stroke-opacity="1" stroke-linejoin="bevel" stroke-miterlimit="10" stroke-dasharray=""/><path fill="rgb(31,119,179)" stroke="rgb(31,119,179)" paint-order="fill" d="M 396.12347412109375 78.25 A 2 2 0 1 1 396.1234731210938 78.24800000033333" fill-opacity="1" clip-path="url(#WXAwmSkXhaIu)" stroke-opacity="1" stroke-linejoin="bevel" stroke-miterlimit="10" stroke-dasharray=""/><path fill="rgb(31,119,179)" stroke="rgb(31,119,179)" paint-order="fill" d="M 366.6338806152344 103.25 A 2 2 0 1 1 366.63387961523443 103.24800000033333" fill-opacity="1" clip-path="url(#WXAwmSkXhaIu)" stroke-opacity="1" stroke-linejoin="bevel" stroke-miterlimit="10" stroke-dasharray=""/><path fill="rgb(31,119,179)" stroke="rgb(31,119,179)" paint-order="fill" d="M 283.8970642089844 203.25 A 2 2 0 1 1 283.89706320898443 203.24800000033332" fill-opacity="1" clip-path="url(#WXAwmSkXhaIu)" stroke-opacity="1" stroke-linejoin="bevel" stroke-miterlimit="10" stroke-dasharray=""/><path fill="rgb(31,119,179)" stroke="rgb(31,119,179)" paint-order="fill" d="M 331.65924072265625 153.25 A 2 2 0 1 1 331.6592397226563 153.24800000033332" fill-opacity="1" clip-path="url(#WXAwmSkXhaIu)" stroke-opacity="1" stroke-linejoin="bevel" stroke-miterlimit="10" stroke-dasharray=""/><path fill="rgb(31,119,179)" stroke="rgb(31,119,179)" paint-order="fill" d="M 349.0179138183594 122 A 2 2 0 1 1 349.01791281835943 121.99800000033333" fill-opacity="1" clip-path="url(#WXAwmSkXhaIu)" stroke-opacity="1" stroke-linejoin="bevel" stroke-miterlimit="10" stroke-dasharray=""/><path fill="rgb(31,119,179)" stroke="rgb(31,119,179)" paint-order="fill" d="M 358.8054504394531 109.5 A 2 2 0 1 1 358.8054494394532 109.49800000033333" fill-opacity="1" clip-path="url(#WXAwmSkXhaIu)" stroke-opacity="1" stroke-linejoin="bevel" stroke-miterlimit="10" stroke-dasharray=""/><path fill="rgb(255,126,14)" stroke="none" paint-order="stroke" d="M 148.89208984375 297 L 148.89208984375 284.5 L 148.89208984375 284.5 L 148.89208984375 272 L 148.89208984375 272 L 148.89208984375 259.5 L 152.14749145507812 259.5 L 152.14749145507812 247 L 152.14749145507812 247 L 152.14749145507812 234.5 L 157.0257568359375 234.5 L 157.0257568359375 222 L 187.55349731445312 222 L 187.55349731445312 209.5 L 187.55349731445312 209.5 L 187.55349731445312 197 L 191.7467498779297 197 L 191.7467498779297 184.5 L 193.00018310546875 184.5 L 193.00018310546875 172 L 201.76129150390625 172 L 201.76129150390625 159.5 L 210.64622497558594 159.5 L 210.64622497558594 147 L 270.88592529296875 147 L 270.88592529296875 134.5 L 286.9324645996094 134.5 L 286.9324645996094 122 L 340.6964111328125 122 L 340.6964111328125 109.5 L 356.88446044921875 109.5 L 356.88446044921875 97 L 382.5834655761719 97 L 382.5834655761719 84.5 L 383.51324462890625 84.5 L 383.51324462890625 72 L 393.776123046875 72 L 393.776123046875 59.5 L 393.9628601074219 59.5 L 393.9628601074219 47 L 424.8392639160156 47 L 424.8392639160156 59.5 L 424.8392639160156 59.5 L 424.8392639160156 72 L 424.8392639160156 72 L 424.8392639160156 84.5 L 422.2829284667969 84.5 L 422.2829284667969 97 L 422.2829284667969 97 L 422.2829284667969 109.5 L 420.28363037109375 109.5 L 420.28363037109375 122 L 393.9628601074219 122 L 393.9628601074219 134.5 L 393.9628601074219 134.5 L 393.9628601074219 147 L 393.776123046875 147 L 393.776123046875 159.5 L 388.89520263671875 159.5 L 388.89520263671875 172 L 383.51324462890625 172 L 383.51324462890625 184.5 L 382.5834655761719 184.5 L 382.5834655761719 197 L 356.88446044921875 197 L 356.88446044921875 209.5 L 340.6964111328125 209.5 L 340.6964111328125 222 L 286.9324645996094 222 L 286.9324645996094 234.5 L 270.88592529296875 234.5 L 270.88592529296875 247 L 210.64622497558594 247 L 210.64622497558594 259.5 L 201.76129150390625 259.5 L 201.76129150390625 272 L 191.7467498779297 272 L 191.7467498779297 284.5 L 187.55349731445312 284.5 L 187.55349731445312 297 Z" fill-opacity="0.30196078431372547" clip-path="url(#hXZUwVmeTHlH)"/><path fill="rgb(255,126,14)" stroke="rgb(255,126,14)" paint-order="fill" d="M 385.51324462890625 122 A 2 2 0 1 1 385.5132436289063 121.99800000033333" fill-opacity="1" clip-path="url(#LLEIQTGqtMNr)" stroke-opacity="1" stroke-linejoin="bevel" stroke-miterlimit="10" stroke-dasharray=""/><path fill="rgb(255,126,14)" stroke="rgb(255,126,14)" paint-order="fill" d="M 203.76129150390625 209.5 A 2 2 0 1 1 203.76129050390634 209.49800000033332" fill-opacity="1" clip-path="url(#LLEIQTGqtMNr)" stroke-opacity="1" stroke-linejoin="bevel" stroke-miterlimit="10" stroke-dasharray=""/><path fill="rgb(255,126,14)" stroke="rgb(255,126,14)" paint-order="fill" d="M 395.9628601074219 84.5 A 2 2 0 1 1 395.96285910742193 84.49800000033333" fill-opacity="1" clip-path="url(#LLEIQTGqtMNr)" stroke-opacity="1" stroke-linejoin="bevel" stroke-miterlimit="10" stroke-dasharray=""/><path fill="rgb(255,126,14)" stroke="rgb(255,126,14)" paint-order="fill" d="M 212.64622497558594 197 A 2 2 0 1 1 212.64622397558603 196.99800000033332" fill-opacity="1" clip-path="url(#LLEIQTGqtMNr)" stroke-opacity="1" stroke-linejoin="bevel" stroke-miterlimit="10" stroke-dasharray=""/><path fill="rgb(255,126,14)" stroke="rgb(255,126,14)" paint-order="fill" d="M 384.5834655761719 134.5 A 2 2 0 1 1 384.58346457617193 134.49800000033332" fill-opacity="1" clip-path="url(#LLEIQTGqtMNr)" stroke-opacity="1" stroke-linejoin="bevel" stroke-miterlimit="10" stroke-dasharray=""/><path fill="rgb(255,126,14)" stroke="rgb(255,126,14)" paint-order="fill" d="M 154.14749145507812 272 A 2 2 0 1 1 154.1474904550782 271.9980000003333" fill-opacity="1" clip-path="url(#LLEIQTGqtMNr)" stroke-opacity="1" stroke-linejoin="bevel" stroke-miterlimit="10" stroke-dasharray=""/><path fill="rgb(255,126,14)" stroke="rgb(255,126,14)" paint-order="fill" d="M 390.89520263671875 109.5 A 2 2 0 1 1 390.8952016367188 109.49800000033333" fill-opacity="1" clip-path="url(#LLEIQTGqtMNr)" stroke-opacity="1" stroke-linejoin="bevel" stroke-miterlimit="10" stroke-dasharray=""/><path fill="rgb(255,126,14)" stroke="rgb(255,126,14)" paint-order="fill" d="M 150.89208984375 284.5 A 2 2 0 1 1 150.8920888437501 284.4980000003333" fill-opacity="1" clip-path="url(#LLEIQTGqtMNr)" stroke-opacity="1" stroke-linejoin="bevel" stroke-miterlimit="10" stroke-dasharray=""/><path fill="rgb(255,126,14)" stroke="rgb(255,126,14)" paint-order="fill" d="M 395.776123046875 97 A 2 2 0 1 1 395.77612204687506 96.99800000033333" fill-opacity="1" clip-path="url(#LLEIQTGqtMNr)" stroke-opacity="1" stroke-linejoin="bevel" stroke-miterlimit="10" stroke-dasharray=""/><path fill="rgb(255,126,14)" stroke="rgb(255,126,14)" paint-order="fill" d="M 189.55349731445312 247 A 2 2 0 1 1 189.5534963144532 246.99800000033332" fill-opacity="1" clip-path="url(#LLEIQTGqtMNr)" stroke-opacity="1" stroke-linejoin="bevel" stroke-miterlimit="10" stroke-dasharray=""/><path fill="rgb(255,126,14)" stroke="rgb(255,126,14)" paint-order="fill" d="M 424.2829284667969 59.5 A 2 2 0 1 1 424.28292746679693 59.498000000333334" fill-opacity="1" clip-path="url(#LLEIQTGqtMNr)" stroke-opacity="1" stroke-linejoin="bevel" stroke-miterlimit="10" stroke-dasharray=""/><path fill="rgb(255,126,14)" stroke="rgb(255,126,14)" paint-order="fill" d="M 342.6964111328125 159.5 A 2 2 0 1 1 342.69641013281256 159.49800000033332" fill-opacity="1" clip-path="url(#LLEIQTGqtMNr)" stroke-opacity="1" stroke-linejoin="bevel" stroke-miterlimit="10" stroke-dasharray=""/><path fill="rgb(255,126,14)" stroke="rgb(255,126,14)" paint-order="fill" d="M 426.8392639160156 47 A 2 2 0 1 1 426.8392629160157 46.998000000333334" fill-opacity="1" clip-path="url(#LLEIQTGqtMNr)" stroke-opacity="1" stroke-linejoin="bevel" stroke-miterlimit="10" stroke-dasharray=""/><path fill="rgb(255,126,14)" stroke="rgb(255,126,14)" paint-order="fill" d="M 272.88592529296875 184.5 A 2 2 0 1 1 272.8859242929688 184.49800000033332" fill-opacity="1" clip-path="url(#LLEIQTGqtMNr)" stroke-opacity="1" stroke-linejoin="bevel" stroke-miterlimit="10" stroke-dasharray=""/><path fill="rgb(255,126,14)" stroke="rgb(255,126,14)" paint-order="fill" d="M 358.88446044921875 147 A 2 2 0 1 1 358.8844594492188 146.99800000033332" fill-opacity="1" clip-path="url(#LLEIQTGqtMNr)" stroke-opacity="1" stroke-linejoin="bevel" stroke-miterlimit="10" stroke-dasharray=""/><path fill="rgb(255,126,14)" stroke="rgb(255,126,14)" paint-order="fill" d="M 193.7467498779297 234.5 A 2 2 0 1 1 193.74674887792978 234.49800000033332" fill-opacity="1" clip-path="url(#LLEIQTGqtMNr)" stroke-opacity="1" stroke-linejoin="bevel" stroke-miterlimit="10" stroke-dasharray=""/><path fill="rgb(255,126,14)" stroke="rgb(255,126,14)" paint-order="fill" d="M 288.9324645996094 172 A 2 2 0 1 1 288.93246359960943 171.99800000033332" fill-opacity="1" clip-path="url(#LLEIQTGqtMNr)" stroke-opacity="1" stroke-linejoin="bevel" stroke-miterlimit="10" stroke-dasharray=""/><path fill="rgb(255,126,14)" stroke="rgb(255,126,14)" paint-order="fill" d="M 159.0257568359375 259.5 A 2 2 0 1 1 159.0257558359376 259.4980000003333" fill-opacity="1" clip-path="url(#LLEIQTGqtMNr)" stroke-opacity="1" stroke-linejoin="bevel" stroke-miterlimit="10" stroke-dasharray=""/><path fill="rgb(255,126,14)" stroke="rgb(255,126,14)" paint-order="fill" d="M 422.28363037109375 72 A 2 2 0 1 1 422.2836293710938 71.99800000033333" fill-opacity="1" clip-path="url(#LLEIQTGqtMNr)" stroke-opacity="1" stroke-linejoin="bevel" stroke-miterlimit="10" stroke-dasharray=""/><path fill="rgb(255,126,14)" stroke="rgb(255,126,14)" paint-order="fill" d="M 195.00018310546875 222 A 2 2 0 1 1 195.00018210546884 221.99800000033332" fill-opacity="1" clip-path="url(#LLEIQTGqtMNr)" stroke-opacity="1" stroke-linejoin="bevel" stroke-miterlimit="10" stroke-dasharray=""/><path fill="rgb(43,160,43)" stroke="none" paint-order="stroke" d="M 86.06279754638672 297 L 86.06279754638672 284.5 L 86.06279754638672 284.5 L 86.06279754638672 272 L 86.06279754638672 272 L 86.06279754638672 259.5 L 91.07388305664062 259.5 L 91.07388305664062 247 L 91.07388305664062 247 L 91.07388305664062 234.5 L 91.21111297607422 234.5 L 91.21111297607422 222 L 92.38255310058594 222 L 92.38255310058594 209.5 L 92.38255310058594 209.5 L 92.38255310058594 197 L 93.15741729736328 197 L 93.15741729736328 184.5 L 100.2945327758789 184.5 L 100.2945327758789 172 L 101.58780670166016 172 L 101.58780670166016 159.5 L 101.7972412109375 159.5 L 101.7972412109375 147 L 104.0670166015625 147 L 104.0670166015625 134.5 L 106.64915466308594 134.5 L 106.64915466308594 122 L 120.57594299316406 122 L 120.57594299316406 109.5 L 135.48248291015625 109.5 L 135.48248291015625 97 L 136.53561401367188 97 L 136.53561401367188 84.5 L 144.38943481445312 84.5 L 144.38943481445312 72 L 148.4265899658203 72 L 148.4265899658203 59.5 L 154.54318237304688 59.5 L 154.54318237304688 47 L 170.2725830078125 47 L 170.2725830078125 59.5 L 170.2725830078125 59.5 L 170.2725830078125 72 L 170.2725830078125 72 L 170.2725830078125 84.5 L 164.9016876220703 84.5 L 164.9016876220703 97 L 164.9016876220703 97 L 164.9016876220703 109.5 L 159.8138885498047 109.5 L 159.8138885498047 122 L 154.54318237304688 122 L 154.54318237304688 134.5 L 154.54318237304688 134.5 L 154.54318237304688 147 L 148.43899536132812 147 L 148.43899536132812 159.5 L 147.94259643554688 159.5 L 147.94259643554688 172 L 144.38943481445312 172 L 144.38943481445312 184.5 L 136.53561401367188 184.5 L 136.53561401367188 197 L 135.48248291015625 197 L 135.48248291015625 209.5 L 120.57594299316406 209.5 L 120.57594299316406 222 L 106.64915466308594 222 L 106.64915466308594 234.5 L 104.0670166015625 234.5 L 104.0670166015625 247 L 101.7972412109375 247 L 101.7972412109375 259.5 L 101.58780670166016 259.5 L 101.58780670166016 272 L 100.2945327758789 272 L 100.2945327758789 284.5 L 92.38255310058594 284.5 L 92.38255310058594 297 Z" fill-opacity="0.30196078431372547" clip-path="url(#xRiOpkvZLzPw)"/><path fill="rgb(43,160,43)" stroke="rgb(43,160,43)" paint-order="fill" d="M 166.9016876220703 59.5 A 2 2 0 1 1 166.9016866220704 59.498000000333334" fill-opacity="1" clip-path="url(#hZUWzLmZweac)" stroke-opacity="1" stroke-linejoin="bevel" stroke-miterlimit="10" stroke-dasharray=""/><path fill="rgb(43,160,43)" stroke="rgb(43,160,43)" paint-order="fill" d="M 149.94259643554688 109.5 A 2 2 0 1 1 149.94259543554696 109.49800000033333" fill-opacity="1" clip-path="url(#hZUWzLmZweac)" stroke-opacity="1" stroke-linejoin="bevel" stroke-miterlimit="10" stroke-dasharray=""/><path fill="rgb(43,160,43)" stroke="rgb(43,160,43)" paint-order="fill" d="M 172.2725830078125 47 A 2 2 0 1 1 172.2725820078126 46.998000000333334" fill-opacity="1" clip-path="url(#hZUWzLmZweac)" stroke-opacity="1" stroke-linejoin="bevel" stroke-miterlimit="10" stroke-dasharray=""/><path fill="rgb(43,160,43)" stroke="rgb(43,160,43)" paint-order="fill" d="M 156.54318237304688 84.5 A 2 2 0 1 1 156.54318137304696 84.49800000033333" fill-opacity="1" clip-path="url(#hZUWzLmZweac)" stroke-opacity="1" stroke-linejoin="bevel" stroke-miterlimit="10" stroke-dasharray=""/><path fill="rgb(43,160,43)" stroke="rgb(43,160,43)" paint-order="fill" d="M 161.8138885498047 72 A 2 2 0 1 1 161.81388754980478 71.99800000033333" fill-opacity="1" clip-path="url(#hZUWzLmZweac)" stroke-opacity="1" stroke-linejoin="bevel" stroke-miterlimit="10" stroke-dasharray=""/><path fill="rgb(43,160,43)" stroke="rgb(43,160,43)" paint-order="fill" d="M 138.53561401367188 134.5 A 2 2 0 1 1 138.53561301367196 134.49800000033332" fill-opacity="1" clip-path="url(#hZUWzLmZweac)" stroke-opacity="1" stroke-linejoin="bevel" stroke-miterlimit="10" stroke-dasharray=""/><path fill="rgb(43,160,43)" stroke="rgb(43,160,43)" paint-order="fill" d="M 122.57594299316406 159.5 A 2 2 0 1 1 122.57594199316415 159.49800000033332" fill-opacity="1" clip-path="url(#hZUWzLmZweac)" stroke-opacity="1" stroke-linejoin="bevel" stroke-miterlimit="10" stroke-dasharray=""/><path fill="rgb(43,160,43)" stroke="rgb(43,160,43)" paint-order="fill" d="M 106.0670166015625 184.5 A 2 2 0 1 1 106.06701560156259 184.49800000033332" fill-opacity="1" clip-path="url(#hZUWzLmZweac)" stroke-opacity="1" stroke-linejoin="bevel" stroke-miterlimit="10" stroke-dasharray=""/><path fill="rgb(43,160,43)" stroke="rgb(43,160,43)" paint-order="fill" d="M 150.43899536132812 97 A 2 2 0 1 1 150.4389943613282 96.99800000033333" fill-opacity="1" clip-path="url(#hZUWzLmZweac)" stroke-opacity="1" stroke-linejoin="bevel" stroke-miterlimit="10" stroke-dasharray=""/><path fill="rgb(43,160,43)" stroke="rgb(43,160,43)" paint-order="fill" d="M 137.48248291015625 147 A 2 2 0 1 1 137.48248191015634 146.99800000033332" fill-opacity="1" clip-path="url(#hZUWzLmZweac)" stroke-opacity="1" stroke-linejoin="bevel" stroke-miterlimit="10" stroke-dasharray=""/><path fill="rgb(43,160,43)" stroke="rgb(43,160,43)" paint-order="fill" d="M 146.38943481445312 122 A 2 2 0 1 1 146.3894338144532 121.99800000033333" fill-opacity="1" clip-path="url(#hZUWzLmZweac)" stroke-opacity="1" stroke-linejoin="bevel" stroke-miterlimit="10" stroke-dasharray=""/><path fill="rgb(43,160,43)" stroke="rgb(43,160,43)" paint-order="fill" d="M 108.64915466308594 172 A 2 2 0 1 1 108.64915366308603 171.99800000033332" fill-opacity="1" clip-path="url(#hZUWzLmZweac)" stroke-opacity="1" stroke-linejoin="bevel" stroke-miterlimit="10" stroke-dasharray=""/><path fill="rgb(43,160,43)" stroke="rgb(43,160,43)" paint-order="fill" d="M 103.7972412109375 197 A 2 2 0 1 1 103.79724021093759 196.99800000033332" fill-opacity="1" clip-path="url(#hZUWzLmZweac)" stroke-opacity="1" stroke-linejoin="bevel" stroke-miterlimit="10" stroke-dasharray=""/><path fill="rgb(43,160,43)" stroke="rgb(43,160,43)" paint-order="fill" d="M 102.2945327758789 222 A 2 2 0 1 1 102.294531775879 221.99800000033332" fill-opacity="1" clip-path="url(#hZUWzLmZweac)" stroke-opacity="1" stroke-linejoin="bevel" stroke-miterlimit="10" stroke-dasharray=""/><path fill="rgb(43,160,43)" stroke="rgb(43,160,43)" paint-order="fill" d="M 103.58780670166016 209.5 A 2 2 0 1 1 103.58780570166024 209.49800000033332" fill-opacity="1" clip-path="url(#hZUWzLmZweac)" stroke-opacity="1" stroke-linejoin="bevel" stroke-miterlimit="10" stroke-dasharray=""/><path fill="rgb(43,160,43)" stroke="rgb(43,160,43)" paint-order="fill" d="M 93.07388305664062 272 A 2 2 0 1 1 93.07388205664071 271.9980000003333" fill-opacity="1" clip-path="url(#hZUWzLmZweac)" stroke-opacity="1" stroke-linejoin="bevel" stroke-miterlimit="10" stroke-dasharray=""/><path fill="rgb(43,160,43)" stroke="rgb(43,160,43)" paint-order="fill" d="M 94.38255310058594 247 A 2 2 0 1 1 94.38255210058603 246.99800000033332" fill-opacity="1" clip-path="url(#hZUWzLmZweac)" stroke-opacity="1" stroke-linejoin="bevel" stroke-miterlimit="10" stroke-dasharray=""/><path fill="rgb(43,160,43)" stroke="rgb(43,160,43)" paint-order="fill" d="M 93.21111297607422 259.5 A 2 2 0 1 1 93.2111119760743 259.4980000003333" fill-opacity="1" clip-path="url(#hZUWzLmZweac)" stroke-opacity="1" stroke-linejoin="bevel" stroke-miterlimit="10" stroke-dasharray=""/><path fill="rgb(43,160,43)" stroke="rgb(43,160,43)" paint-order="fill" d="M 95.15741729736328 234.5 A 2 2 0 1 1 95.15741629736337 234.49800000033332" fill-opacity="1" clip-path="url(#hZUWzLmZweac)" stroke-opacity="1" stroke-linejoin="bevel" stroke-miterlimit="10" stroke-dasharray=""/><path fill="rgb(43,160,43)" stroke="rgb(43,160,43)" paint-order="fill" d="M 88.06279754638672 284.5 A 2 2 0 1 1 88.0627965463868 284.4980000003333" fill-opacity="1" clip-path="url(#hZUWzLmZweac)" stroke-opacity="1" stroke-linejoin="bevel" stroke-miterlimit="10" stroke-dasharray=""/><path fill="rgb(214,38,40)" stroke="none" paint-order="stroke" d="M 93.78972625732422 297 L 93.78972625732422 272 L 93.78972625732422 272 L 93.78972625732422 247 L 93.78972625732422 247 L 93.78972625732422 222 L 100.23883819580078 222 L 100.23883819580078 197 L 100.23883819580078 197 L 100.23883819580078 172 L 104.10918426513672 172 L 104.10918426513672 147 L 104.3532485961914 147 L 104.3532485961914 122 L 106.99224853515625 122 L 106.99224853515625 97 L 112.11906433105469 97 L 112.11906433105469 72 L 119.29263305664062 72 L 119.29263305664062 47 L 127.33617401123047 47 L 127.33617401123047 72 L 127.33617401123047 72 L 127.33617401123047 97 L 127.33617401123047 97 L 127.33617401123047 122 L 123.31973266601562 122 L 123.31973266601562 147 L 123.31973266601562 147 L 123.31973266601562 172 L 122.16184997558594 172 L 122.16184997558594 197 L 119.29263305664062 197 L 119.29263305664062 222 L 112.11906433105469 222 L 112.11906433105469 247 L 106.99224853515625 247 L 106.99224853515625 272 L 104.3532485961914 272 L 104.3532485961914 297 Z" fill-opacity="0.30196078431372547" clip-path="url(#xRfNwWsStivx)"/><path fill="rgb(214,38,40)" stroke="rgb(214,38,40)" paint-order="fill" d="M 102.23883819580078 247 A 2 2 0 1 1 102.23883719580087 246.99800000033332" fill-opacity="1" clip-path="url(#eimigMcIzBSA)" stroke-opacity="1" stroke-linejoin="bevel" stroke-miterlimit="10" stroke-dasharray=""/><path fill="rgb(214,38,40)" stroke="rgb(214,38,40)" paint-order="fill" d="M 106.3532485961914 197 A 2 2 0 1 1 106.3532475961915 196.99800000033332" fill-opacity="1" clip-path="url(#eimigMcIzBSA)" stroke-opacity="1" stroke-linejoin="bevel" stroke-miterlimit="10" stroke-dasharray=""/><path fill="rgb(214,38,40)" stroke="rgb(214,38,40)" paint-order="fill" d="M 124.16184997558594 97 A 2 2 0 1 1 124.16184897558603 96.99800000033333" fill-opacity="1" clip-path="url(#eimigMcIzBSA)" stroke-opacity="1" stroke-linejoin="bevel" stroke-miterlimit="10" stroke-dasharray=""/><path fill="rgb(214,38,40)" stroke="rgb(214,38,40)" paint-order="fill" d="M 121.29263305664062 122 A 2 2 0 1 1 121.29263205664071 121.99800000033333" fill-opacity="1" clip-path="url(#eimigMcIzBSA)" stroke-opacity="1" stroke-linejoin="bevel" stroke-miterlimit="10" stroke-dasharray=""/><path fill="rgb(214,38,40)" stroke="rgb(214,38,40)" paint-order="fill" d="M 125.31973266601562 72 A 2 2 0 1 1 125.31973166601571 71.99800000033333" fill-opacity="1" clip-path="url(#eimigMcIzBSA)" stroke-opacity="1" stroke-linejoin="bevel" stroke-miterlimit="10" stroke-dasharray=""/><path fill="rgb(214,38,40)" stroke="rgb(214,38,40)" paint-order="fill" d="M 114.11906433105469 147 A 2 2 0 1 1 114.11906333105478 146.99800000033332" fill-opacity="1" clip-path="url(#eimigMcIzBSA)" stroke-opacity="1" stroke-linejoin="bevel" stroke-miterlimit="10" stroke-dasharray=""/><path fill="rgb(214,38,40)" stroke="rgb(214,38,40)" paint-order="fill" d="M 129.33617401123047 47 A 2 2 0 1 1 129.33617301123056 46.998000000333334" fill-opacity="1" clip-path="url(#eimigMcIzBSA)" stroke-opacity="1" stroke-linejoin="bevel" stroke-miterlimit="10" stroke-dasharray=""/><path fill="rgb(214,38,40)" stroke="rgb(214,38,40)" paint-order="fill" d="M 106.10918426513672 222 A 2 2 0 1 1 106.1091832651368 221.99800000033332" fill-opacity="1" clip-path="url(#eimigMcIzBSA)" stroke-opacity="1" stroke-linejoin="bevel" stroke-miterlimit="10" stroke-dasharray=""/><path fill="rgb(214,38,40)" stroke="rgb(214,38,40)" paint-order="fill" d="M 95.78972625732422 272 A 2 2 0 1 1 95.7897252573243 271.9980000003333" fill-opacity="1" clip-path="url(#eimigMcIzBSA)" stroke-opacity="1" stroke-linejoin="bevel" stroke-miterlimit="10" stroke-dasharray=""/><path fill="rgb(214,38,40)" stroke="rgb(214,38,40)" paint-order="fill" d="M 108.99224853515625 172 A 2 2 0 1 1 108.99224753515634 171.99800000033332" fill-opacity="1" clip-path="url(#eimigMcIzBSA)" stroke-opacity="1" stroke-linejoin="bevel" stroke-miterlimit="10" stroke-dasharray=""/><path fill="rgb(147,103,188)" stroke="none" paint-order="stroke" d="M 86.61167907714844 297 L 86.61167907714844 272 L 86.61167907714844 272 L 86.61167907714844 247 L 86.61167907714844 247 L 86.61167907714844 222 L 87.05998229980469 222 L 87.05998229980469 197 L 87.05998229980469 197 L 87.05998229980469 172 L 89.41944885253906 172 L 89.41944885253906 147 L 94.4332046508789 147 L 94.4332046508789 122 L 103.67772674560547 122 L 103.67772674560547 97 L 119.56898498535156 97 L 119.56898498535156 72 L 119.8511962890625 72 L 119.8511962890625 47 L 141.7610321044922 47 L 141.7610321044922 72 L 141.7610321044922 72 L 141.7610321044922 97 L 141.7610321044922 97 L 141.7610321044922 122 L 129.26840209960938 122 L 129.26840209960938 147 L 129.26840209960938 147 L 129.26840209960938 172 L 127.60752868652344 172 L 127.60752868652344 197 L 119.8511962890625 197 L 119.8511962890625 222 L 119.56898498535156 222 L 119.56898498535156 247 L 103.67772674560547 247 L 103.67772674560547 272 L 94.4332046508789 272 L 94.4332046508789 297 Z" fill-opacity="0.30196078431372547" clip-path="url(#iyInRhJXEZfV)"/><path fill="rgb(147,103,188)" stroke="rgb(147,103,188)" paint-order="fill" d="M 143.7610321044922 47 A 2 2 0 1 1 143.76103110449228 46.998000000333334" fill-opacity="1" clip-path="url(#TiEbounpTklU)" stroke-opacity="1" stroke-linejoin="bevel" stroke-miterlimit="10" stroke-dasharray=""/><path fill="rgb(147,103,188)" stroke="rgb(147,103,188)" paint-order="fill" d="M 129.60752868652344 97 A 2 2 0 1 1 129.60752768652353 96.99800000033333" fill-opacity="1" clip-path="url(#TiEbounpTklU)" stroke-opacity="1" stroke-linejoin="bevel" stroke-miterlimit="10" stroke-dasharray=""/><path fill="rgb(147,103,188)" stroke="rgb(147,103,188)" paint-order="fill" d="M 131.26840209960938 72 A 2 2 0 1 1 131.26840109960946 71.99800000033333" fill-opacity="1" clip-path="url(#TiEbounpTklU)" stroke-opacity="1" stroke-linejoin="bevel" stroke-miterlimit="10" stroke-dasharray=""/><path fill="rgb(147,103,188)" stroke="rgb(147,103,188)" paint-order="fill" d="M 105.67772674560547 172 A 2 2 0 1 1 105.67772574560556 171.99800000033332" fill-opacity="1" clip-path="url(#TiEbounpTklU)" stroke-opacity="1" stroke-linejoin="bevel" stroke-miterlimit="10" stroke-dasharray=""/><path fill="rgb(147,103,188)" stroke="rgb(147,103,188)" paint-order="fill" d="M 121.56898498535156 147 A 2 2 0 1 1 121.56898398535165 146.99800000033332" fill-opacity="1" clip-path="url(#TiEbounpTklU)" stroke-opacity="1" stroke-linejoin="bevel" stroke-miterlimit="10" stroke-dasharray=""/><path fill="rgb(147,103,188)" stroke="rgb(147,103,188)" paint-order="fill" d="M 121.8511962890625 122 A 2 2 0 1 1 121.85119528906259 121.99800000033333" fill-opacity="1" clip-path="url(#TiEbounpTklU)" stroke-opacity="1" stroke-linejoin="bevel" stroke-miterlimit="10" stroke-dasharray=""/><path fill="rgb(147,103,188)" stroke="rgb(147,103,188)" paint-order="fill" d="M 91.41944885253906 222 A 2 2 0 1 1 91.41944785253915 221.99800000033332" fill-opacity="1" clip-path="url(#TiEbounpTklU)" stroke-opacity="1" stroke-linejoin="bevel" stroke-miterlimit="10" stroke-dasharray=""/><path fill="rgb(147,103,188)" stroke="rgb(147,103,188)" paint-order="fill" d="M 96.4332046508789 197 A 2 2 0 1 1 96.433203650879 196.99800000033332" fill-opacity="1" clip-path="url(#TiEbounpTklU)" stroke-opacity="1" stroke-linejoin="bevel" stroke-miterlimit="10" stroke-dasharray=""/><path fill="rgb(147,103,188)" stroke="rgb(147,103,188)" paint-order="fill" d="M 89.05998229980469 247 A 2 2 0 1 1 89.05998129980478 246.99800000033332" fill-opacity="1" clip-path="url(#TiEbounpTklU)" stroke-opacity="1" stroke-linejoin="bevel" stroke-miterlimit="10" stroke-dasharray=""/><path fill="rgb(147,103,188)" stroke="rgb(147,103,188)" paint-order="fill" d="M 88.61167907714844 272 A 2 2 0 1 1 88.61167807714853 271.9980000003333" fill-opacity="1" clip-path="url(#TiEbounpTklU)" stroke-opacity="1" stroke-linejoin="bevel" stroke-miterlimit="10" stroke-dasharray=""/><path fill="rgb(140,86,75)" stroke="none" paint-order="stroke" d="M 71.62238311767578 297 L 71.62238311767578 272 L 71.62238311767578 272 L 71.62238311767578 247 L 71.62238311767578 247 L 71.62238311767578 222 L 74.5838623046875 222 L 74.5838623046875 197 L 74.5838623046875 197 L 74.5838623046875 172 L 77.35424041748047 172 L 77.35424041748047 147 L 80.69085693359375 147 L 80.69085693359375 122 L 81.45136260986328 122 L 81.45136260986328 97 L 83.79723358154297 97 L 83.79723358154297 72 L 85.44585418701172 72 L 85.44585418701172 47 L 89.119873046875 47 L 89.119873046875 72 L 89.119873046875 72 L 89.119873046875 97 L 89.119873046875 97 L 89.119873046875 122 L 88.7381362915039 122 L 88.7381362915039 147 L 88.7381362915039 147 L 88.7381362915039 172 L 87.97711944580078 172 L 87.97711944580078 197 L 85.44585418701172 197 L 85.44585418701172 222 L 83.79723358154297 222 L 83.79723358154297 247 L 81.45136260986328 247 L 81.45136260986328 272 L 80.69085693359375 272 L 80.69085693359375 297 Z" fill-opacity="0.30196078431372547" clip-path="url(#DGaIFVzRIoDm)"/><path fill="rgb(140,86,75)" stroke="rgb(140,86,75)" paint-order="fill" d="M 90.7381362915039 72 A 2 2 0 1 1 90.738135291504 71.99800000033333" fill-opacity="1" clip-path="url(#xRvozHrlJuDL)" stroke-opacity="1" stroke-linejoin="bevel" stroke-miterlimit="10" stroke-dasharray=""/><path fill="rgb(140,86,75)" stroke="rgb(140,86,75)" paint-order="fill" d="M 91.119873046875 47 A 2 2 0 1 1 91.11987204687509 46.998000000333334" fill-opacity="1" clip-path="url(#xRvozHrlJuDL)" stroke-opacity="1" stroke-linejoin="bevel" stroke-miterlimit="10" stroke-dasharray=""/><path fill="rgb(140,86,75)" stroke="rgb(140,86,75)" paint-order="fill" d="M 73.62238311767578 272 A 2 2 0 1 1 73.62238211767587 271.9980000003333" fill-opacity="1" clip-path="url(#xRvozHrlJuDL)" stroke-opacity="1" stroke-linejoin="bevel" stroke-miterlimit="10" stroke-dasharray=""/><path fill="rgb(140,86,75)" stroke="rgb(140,86,75)" paint-order="fill" d="M 76.5838623046875 247 A 2 2 0 1 1 76.58386130468759 246.99800000033332" fill-opacity="1" clip-path="url(#xRvozHrlJuDL)" stroke-opacity="1" stroke-linejoin="bevel" stroke-miterlimit="10" stroke-dasharray=""/><path fill="rgb(140,86,75)" stroke="rgb(140,86,75)" paint-order="fill" d="M 85.79723358154297 147 A 2 2 0 1 1 85.79723258154306 146.99800000033332" fill-opacity="1" clip-path="url(#xRvozHrlJuDL)" stroke-opacity="1" stroke-linejoin="bevel" stroke-miterlimit="10" stroke-dasharray=""/><path fill="rgb(140,86,75)" stroke="rgb(140,86,75)" paint-order="fill" d="M 79.35424041748047 222 A 2 2 0 1 1 79.35423941748056 221.99800000033332" fill-opacity="1" clip-path="url(#xRvozHrlJuDL)" stroke-opacity="1" stroke-linejoin="bevel" stroke-miterlimit="10" stroke-dasharray=""/><path fill="rgb(140,86,75)" stroke="rgb(140,86,75)" paint-order="fill" d="M 82.69085693359375 197 A 2 2 0 1 1 82.69085593359384 196.99800000033332" fill-opacity="1" clip-path="url(#xRvozHrlJuDL)" stroke-opacity="1" stroke-linejoin="bevel" stroke-miterlimit="10" stroke-dasharray=""/><path fill="rgb(140,86,75)" stroke="rgb(140,86,75)" paint-order="fill" d="M 87.44585418701172 122 A 2 2 0 1 1 87.4458531870118 121.99800000033333" fill-opacity="1" clip-path="url(#xRvozHrlJuDL)" stroke-opacity="1" stroke-linejoin="bevel" stroke-miterlimit="10" stroke-dasharray=""/><path fill="rgb(140,86,75)" stroke="rgb(140,86,75)" paint-order="fill" d="M 89.97711944580078 97 A 2 2 0 1 1 89.97711844580087 96.99800000033333" fill-opacity="1" clip-path="url(#xRvozHrlJuDL)" stroke-opacity="1" stroke-linejoin="bevel" stroke-miterlimit="10" stroke-dasharray=""/><path fill="rgb(140,86,75)" stroke="rgb(140,86,75)" paint-order="fill" d="M 83.45136260986328 172 A 2 2 0 1 1 83.45136160986337 171.99800000033332" fill-opacity="1" clip-path="url(#xRvozHrlJuDL)" stroke-opacity="1" stroke-linejoin="bevel" stroke-miterlimit="10" stroke-dasharray=""/><path fill="rgb(226,119,193)" stroke="none" paint-order="stroke" d="M 74.14202880859375 297 L 74.14202880859375 272 L 74.14202880859375 272 L 74.14202880859375 247 L 74.14202880859375 247 L 74.14202880859375 222 L 76.28215789794922 222 L 76.28215789794922 197 L 76.28215789794922 197 L 76.28215789794922 172 L 77.51075744628906 172 L 77.51075744628906 147 L 78.77606201171875 147 L 78.77606201171875 122 L 79.2924575805664 122 L 79.2924575805664 97 L 81.24209594726562 97 L 81.24209594726562 72 L 81.879638671875 72 L 81.879638671875 47 L 84.54490661621094 47 L 84.54490661621094 72 L 84.54490661621094 72 L 84.54490661621094 97 L 84.54490661621094 97 L 84.54490661621094 122 L 83.84547424316406 122 L 83.84547424316406 147 L 83.84547424316406 147 L 83.84547424316406 172 L 82.1382064819336 172 L 82.1382064819336 197 L 81.879638671875 197 L 81.879638671875 222 L 81.24209594726562 222 L 81.24209594726562 247 L 79.2924575805664 247 L 79.2924575805664 272 L 78.77606201171875 272 L 78.77606201171875 297 Z" fill-opacity="0.30196078431372547" clip-path="url(#IXhcbedsNmSa)"/><path fill="rgb(226,119,193)" stroke="rgb(226,119,193)" paint-order="fill" d="M 79.51075744628906 222 A 2 2 0 1 1 79.51075644628915 221.99800000033332" fill-opacity="1" clip-path="url(#zHEbGUxeDXns)" stroke-opacity="1" stroke-linejoin="bevel" stroke-miterlimit="10" stroke-dasharray=""/><path fill="rgb(226,119,193)" stroke="rgb(226,119,193)" paint-order="fill" d="M 81.2924575805664 172 A 2 2 0 1 1 81.2924565805665 171.99800000033332" fill-opacity="1" clip-path="url(#zHEbGUxeDXns)" stroke-opacity="1" stroke-linejoin="bevel" stroke-miterlimit="10" stroke-dasharray=""/><path fill="rgb(226,119,193)" stroke="rgb(226,119,193)" paint-order="fill" d="M 86.54490661621094 47 A 2 2 0 1 1 86.54490561621103 46.998000000333334" fill-opacity="1" clip-path="url(#zHEbGUxeDXns)" stroke-opacity="1" stroke-linejoin="bevel" stroke-miterlimit="10" stroke-dasharray=""/><path fill="rgb(226,119,193)" stroke="rgb(226,119,193)" paint-order="fill" d="M 85.84547424316406 72 A 2 2 0 1 1 85.84547324316415 71.99800000033333" fill-opacity="1" clip-path="url(#zHEbGUxeDXns)" stroke-opacity="1" stroke-linejoin="bevel" stroke-miterlimit="10" stroke-dasharray=""/><path fill="rgb(226,119,193)" stroke="rgb(226,119,193)" paint-order="fill" d="M 84.1382064819336 97 A 2 2 0 1 1 84.13820548193368 96.99800000033333" fill-opacity="1" clip-path="url(#zHEbGUxeDXns)" stroke-opacity="1" stroke-linejoin="bevel" stroke-miterlimit="10" stroke-dasharray=""/><path fill="rgb(226,119,193)" stroke="rgb(226,119,193)" paint-order="fill" d="M 76.14202880859375 272 A 2 2 0 1 1 76.14202780859384 271.9980000003333" fill-opacity="1" clip-path="url(#zHEbGUxeDXns)" stroke-opacity="1" stroke-linejoin="bevel" stroke-miterlimit="10" stroke-dasharray=""/><path fill="rgb(226,119,193)" stroke="rgb(226,119,193)" paint-order="fill" d="M 83.24209594726562 147 A 2 2 0 1 1 83.24209494726571 146.99800000033332" fill-opacity="1" clip-path="url(#zHEbGUxeDXns)" stroke-opacity="1" stroke-linejoin="bevel" stroke-miterlimit="10" stroke-dasharray=""/><path fill="rgb(226,119,193)" stroke="rgb(226,119,193)" paint-order="fill" d="M 83.879638671875 122 A 2 2 0 1 1 83.87963767187509 121.99800000033333" fill-opacity="1" clip-path="url(#zHEbGUxeDXns)" stroke-opacity="1" stroke-linejoin="bevel" stroke-miterlimit="10" stroke-dasharray=""/><path fill="rgb(226,119,193)" stroke="rgb(226,119,193)" paint-order="fill" d="M 78.28215789794922 247 A 2 2 0 1 1 78.2821568979493 246.99800000033332" fill-opacity="1" clip-path="url(#zHEbGUxeDXns)" stroke-opacity="1" stroke-linejoin="bevel" stroke-miterlimit="10" stroke-dasharray=""/><path fill="rgb(226,119,193)" stroke="rgb(226,119,193)" paint-order="fill" d="M 80.77606201171875 197 A 2 2 0 1 1 80.77606101171884 196.99800000033332" fill-opacity="1" clip-path="url(#zHEbGUxeDXns)" stroke-opacity="1" stroke-linejoin="bevel" stroke-miterlimit="10" stroke-dasharray=""/><path fill="none" stroke="rgb(0,0,0)" paint-order="fill" d="M 65.5 309.5 L 440.5 309.5" stroke-opacity="1" stroke-linejoin="bevel" stroke-miterlimit="10" stroke-dasharray=""/><path fill="none" stroke="rgb(0,0,0)" paint-order="fill" d="M 65.5 315.5 L 65.5 307.5 M 140.5 315.5 L 140.5 307.5 M 215.5 315.5 L 215.5 307.5 M 290.5 315.5 L 290.5 307.5 M 365.5 315.5 L 365.5 307.5 M 440.5 315.5 L 440.5 307.5" stroke-opacity="1" stroke-linejoin="bevel" stroke-miterlimit="10" stroke-dasharray=""/><path fill="none" stroke="rgb(0,0,0)" paint-order="fill" d="M 65.5 313.5 L 65.5 309.5 M 80.5 313.5 L 80.5 309.5 M 95.5 313.5 L 95.5 309.5 M 110.5 313.5 L 110.5 309.5 M 125.5 313.5 L 125.5 309.5 M 140.5 313.5 L 140.5 309.5 M 155.5 313.5 L 155.5 309.5 M 170.5 313.5 L 170.5 309.5 M 185.5 313.5 L 185.5 309.5 M 200.5 313.5 L 200.5 309.5 M 215.5 313.5 L 215.5 309.5 M 230.5 313.5 L 230.5 309.5 M 245.5 313.5 L 245.5 309.5 M 260.5 313.5 L 260.5 309.5 M 275.5 313.5 L 275.5 309.5 M 290.5 313.5 L 290.5 309.5 M 305.5 313.5 L 305.5 309.5 M 320.5 313.5 L 320.5 309.5 M 335.5 313.5 L 335.5 309.5 M 350.5 313.5 L 350.5 309.5 M 365.5 313.5 L 365.5 309.5 M 380.5 313.5 L 380.5 309.5 M 395.5 313.5 L 395.5 309.5 M 410.5 313.5 L 410.5 309.5 M 425.5 313.5 L 425.5 309.5 M 440.5 313.5 L 440.5 309.5" stroke-opacity="1" stroke-linejoin="bevel" stroke-miterlimit="10" stroke-dasharray=""/><text fill="rgb(68,68,68)" stroke="none" font-family="helvetica" font-size="13pt" font-style="normal" font-weight="normal" text-decoration="normal" x="60.18333339691162" y="332.4329427083333" text-anchor="start" dominant-baseline="alphabetic" transform="matrix(1, 0, 0, 1, 0.5, 0.5)" fill-opacity="1">0</text><text fill="rgb(68,68,68)" stroke="none" font-family="helvetica" font-size="13pt" font-style="normal" font-weight="normal" text-decoration="normal" x="127.9583330154419" y="332.4329427083333" text-anchor="start" dominant-baseline="alphabetic" transform="matrix(1, 0, 0, 1, 0.5, 0.5)" fill-opacity="1">0.2</text><text fill="rgb(68,68,68)" stroke="none" font-family="helvetica" font-size="13pt" font-style="normal" font-weight="normal" text-decoration="normal" x="202.9583330154419" y="332.4329427083333" text-anchor="start" dominant-baseline="alphabetic" transform="matrix(1, 0, 0, 1, 0.5, 0.5)" fill-opacity="1">0.4</text><text fill="rgb(68,68,68)" stroke="none" font-family="helvetica" font-size="13pt" font-style="normal" font-weight="normal" text-decoration="normal" x="277.9583330154419" y="332.4329427083333" text-anchor="start" dominant-baseline="alphabetic" transform="matrix(1, 0, 0, 1, 0.5, 0.5)" fill-opacity="1">0.6</text><text fill="rgb(68,68,68)" stroke="none" font-family="helvetica" font-size="13pt" font-style="normal" font-weight="normal" text-decoration="normal" x="352.9583330154419" y="332.4329427083333" text-anchor="start" dominant-baseline="alphabetic" transform="matrix(1, 0, 0, 1, 0.5, 0.5)" fill-opacity="1">0.8</text><text fill="rgb(68,68,68)" stroke="none" font-family="helvetica" font-size="13pt" font-style="normal" font-weight="normal" text-decoration="normal" x="435.1833333969116" y="332.4329427083333" text-anchor="start" dominant-baseline="alphabetic" transform="matrix(1, 0, 0, 1, 0.5, 0.5)" fill-opacity="1">1</text><text fill="rgb(68,68,68)" stroke="none" font-family="arial" font-size="13pt" font-style="normal" font-weight="normal" text-decoration="normal" x="144.64167022705078" y="355.9720062255859" text-anchor="start" dominant-baseline="alphabetic" transform="matrix(1, 0, 0, 1, 0.5, 0.5)" fill-opacity="1">Adhesion ratio (after/before)</text><path fill="none" stroke="rgb(0,0,0)" paint-order="fill" d="M 65.5 309.5 L 65.5 34.5" stroke-opacity="1" stroke-linejoin="bevel" stroke-miterlimit="10" stroke-dasharray=""/><path fill="none" stroke="rgb(0,0,0)" paint-order="fill" d="M 59.5 297.5 L 67.5 297.5 M 59.5 247.5 L 67.5 247.5 M 59.5 197.5 L 67.5 197.5 M 59.5 147.5 L 67.5 147.5 M 59.5 97.5 L 67.5 97.5 M 59.5 47.5 L 67.5 47.5" stroke-opacity="1" stroke-linejoin="bevel" stroke-miterlimit="10" stroke-dasharray=""/><path fill="none" stroke="rgb(0,0,0)" paint-order="fill" d="M 61.5 307.5 L 65.5 307.5 M 61.5 297.5 L 65.5 297.5 M 61.5 287.5 L 65.5 287.5 M 61.5 277.5 L 65.5 277.5 M 61.5 267.5 L 65.5 267.5 M 61.5 257.5 L 65.5 257.5 M 61.5 247.5 L 65.5 247.5 M 61.5 237.5 L 65.5 237.5 M 61.5 227.5 L 65.5 227.5 M 61.5 217.5 L 65.5 217.5 M 61.5 207.5 L 65.5 207.5 M 61.5 197.5 L 65.5 197.5 M 61.5 187.5 L 65.5 187.5 M 61.5 177.5 L 65.5 177.5 M 61.5 167.5 L 65.5 167.5 M 61.5 157.5 L 65.5 157.5 M 61.5 147.5 L 65.5 147.5 M 61.5 137.5 L 65.5 137.5 M 61.5 127.5 L 65.5 127.5 M 61.5 117.5 L 65.5 117.5 M 61.5 107.5 L 65.5 107.5 M 61.5 97.5 L 65.5 97.5 M 61.5 87.5 L 65.5 87.5 M 61.5 77.5 L 65.5 77.5 M 61.5 67.5 L 65.5 67.5 M 61.5 57.5 L 65.5 57.5 M 61.5 47.5 L 65.5 47.5 M 61.5 37.5 L 65.5 37.5" stroke-opacity="1" stroke-linejoin="bevel" stroke-miterlimit="10" stroke-dasharray=""/><text fill="rgb(68,68,68)" stroke="none" font-family="helvetica" font-size="13pt" font-style="normal" font-weight="normal" text-decoration="normal" x="44.36666679382324" y="302.71647135416663" text-anchor="start" dominant-baseline="alphabetic" transform="matrix(1, 0, 0, 1, 0.5, 0.5)" fill-opacity="1">0</text><text fill="rgb(68,68,68)" stroke="none" font-family="helvetica" font-size="13pt" font-style="normal" font-weight="normal" text-decoration="normal" x="29.91666603088379" y="252.71647135416669" text-anchor="start" dominant-baseline="alphabetic" transform="matrix(1, 0, 0, 1, 0.5, 0.5)" fill-opacity="1">0.2</text><text fill="rgb(68,68,68)" stroke="none" font-family="helvetica" font-size="13pt" font-style="normal" font-weight="normal" text-decoration="normal" x="29.91666603088379" y="202.71647135416669" text-anchor="start" dominant-baseline="alphabetic" transform="matrix(1, 0, 0, 1, 0.5, 0.5)" fill-opacity="1">0.4</text><text fill="rgb(68,68,68)" stroke="none" font-family="helvetica" font-size="13pt" font-style="normal" font-weight="normal" text-decoration="normal" x="29.91666603088379" y="152.71647135416669" text-anchor="start" dominant-baseline="alphabetic" transform="matrix(1, 0, 0, 1, 0.5, 0.5)" fill-opacity="1">0.6</text><text fill="rgb(68,68,68)" stroke="none" font-family="helvetica" font-size="13pt" font-style="normal" font-weight="normal" text-decoration="normal" x="29.91666603088379" y="102.71647135416666" text-anchor="start" dominant-baseline="alphabetic" transform="matrix(1, 0, 0, 1, 0.5, 0.5)" fill-opacity="1">0.8</text><text fill="rgb(68,68,68)" stroke="none" font-family="helvetica" font-size="13pt" font-style="normal" font-weight="normal" text-decoration="normal" x="44.36666679382324" y="52.71647135416667" text-anchor="start" dominant-baseline="alphabetic" transform="matrix(1, 0, 0, 1, 0.5, 0.5)" fill-opacity="1">1</text><text fill="rgb(68,68,68)" stroke="none" font-family="arial" font-size="13pt" font-style="normal" font-weight="normal" text-decoration="normal" x="-1.6750011444091797" y="167.85221252441406" text-anchor="start" dominant-baseline="alphabetic" transform="matrix(6.123233995736766e-17, -1, 1, 6.123233995736766e-17, -149.0833339691162, 193.9166660308838)" fill-opacity="1">ECDF</text><path fill="rgb(255,255,255)" stroke="rgb(229,229,229)" paint-order="fill" d="M 450.40833282470703 83 L 570.591667175293 83 L 570.591667175293 261 L 450.40833282470703 261 L 450.40833282470703 83" fill-opacity="0.9490196078431372" stroke-opacity="0.5019607843137255" stroke-linejoin="bevel" stroke-miterlimit="10" stroke-dasharray=""/><text fill="rgb(68,68,68)" stroke="none" font-family="helvetica" font-size="13px" font-style="italic" font-weight="normal" text-decoration="normal" x="484.90833282470703" y="102.5" text-anchor="start" dominant-baseline="central" transform="matrix(1, 0, 0, 1, 0.5, 0.5)" fill-opacity="1">srb11</text><path fill="rgb(31,119,179)" stroke="rgb(31,119,179)" paint-order="fill" d="M 474.40833282470703 103 A 4 4 0 1 1 474.4083308247072 102.99600000066667" fill-opacity="1" stroke-opacity="1" stroke-linejoin="bevel" stroke-miterlimit="10" stroke-dasharray=""/><path fill="rgb(31,119,179)" stroke="none" paint-order="stroke" d="M 462.40833282470703 95 L 478.40833282470703 95 L 478.40833282470703 111 L 462.40833282470703 111 L 462.40833282470703 95" fill-opacity="0.30196078431372547"/><text fill="rgb(68,68,68)" stroke="none" font-family="helvetica" font-size="13px" font-style="italic" font-weight="normal" text-decoration="normal" x="484.90833282470703" y="125.5" text-anchor="start" dominant-baseline="central" transform="matrix(1, 0, 0, 1, 0.5, 0.5)" fill-opacity="1">srb10</text><path fill="rgb(255,126,14)" stroke="rgb(255,126,14)" paint-order="fill" d="M 474.40833282470703 126 A 4 4 0 1 1 474.4083308247072 125.99600000066667" fill-opacity="1" stroke-opacity="1" stroke-linejoin="bevel" stroke-miterlimit="10" stroke-dasharray=""/><path fill="rgb(255,126,14)" stroke="none" paint-order="stroke" d="M 462.40833282470703 118 L 478.40833282470703 118 L 478.40833282470703 134 L 462.40833282470703 134 L 462.40833282470703 118" fill-opacity="0.30196078431372547"/><text fill="rgb(68,68,68)" stroke="none" font-family="helvetica" font-size="13px" font-style="italic" font-weight="normal" text-decoration="normal" x="484.90833282470703" y="148.5" text-anchor="start" dominant-baseline="central" transform="matrix(1, 0, 0, 1, 0.5, 0.5)" fill-opacity="1">med13</text><path fill="rgb(43,160,43)" stroke="rgb(43,160,43)" paint-order="fill" d="M 474.40833282470703 149 A 4 4 0 1 1 474.4083308247072 148.99600000066667" fill-opacity="1" stroke-opacity="1" stroke-linejoin="bevel" stroke-miterlimit="10" stroke-dasharray=""/><path fill="rgb(43,160,43)" stroke="none" paint-order="stroke" d="M 462.40833282470703 141 L 478.40833282470703 141 L 478.40833282470703 157 L 462.40833282470703 157 L 462.40833282470703 141" fill-opacity="0.30196078431372547"/><text fill="rgb(68,68,68)" stroke="none" font-family="helvetica" font-size="13px" font-style="italic" font-weight="normal" text-decoration="normal" x="484.90833282470703" y="171.5" text-anchor="start" dominant-baseline="central" transform="matrix(1, 0, 0, 1, 0.5, 0.5)" fill-opacity="1">med18</text><path fill="rgb(214,38,40)" stroke="rgb(214,38,40)" paint-order="fill" d="M 474.40833282470703 172 A 4 4 0 1 1 474.4083308247072 171.99600000066667" fill-opacity="1" stroke-opacity="1" stroke-linejoin="bevel" stroke-miterlimit="10" stroke-dasharray=""/><path fill="rgb(214,38,40)" stroke="none" paint-order="stroke" d="M 462.40833282470703 164 L 478.40833282470703 164 L 478.40833282470703 180 L 462.40833282470703 180 L 462.40833282470703 164" fill-opacity="0.30196078431372547"/><text fill="rgb(68,68,68)" stroke="none" font-family="helvetica" font-size="13px" font-style="italic" font-weight="normal" text-decoration="normal" x="484.90833282470703" y="194.5" text-anchor="start" dominant-baseline="central" transform="matrix(1, 0, 0, 1, 0.5, 0.5)" fill-opacity="1">med19/rox3</text><path fill="rgb(147,103,188)" stroke="rgb(147,103,188)" paint-order="fill" d="M 474.40833282470703 195 A 4 4 0 1 1 474.4083308247072 194.99600000066667" fill-opacity="1" stroke-opacity="1" stroke-linejoin="bevel" stroke-miterlimit="10" stroke-dasharray=""/><path fill="rgb(147,103,188)" stroke="none" paint-order="stroke" d="M 462.40833282470703 187 L 478.40833282470703 187 L 478.40833282470703 203 L 462.40833282470703 203 L 462.40833282470703 187" fill-opacity="0.30196078431372547"/><text fill="rgb(68,68,68)" stroke="none" font-family="helvetica" font-size="13px" font-style="italic" font-weight="normal" text-decoration="normal" x="484.90833282470703" y="217.5" text-anchor="start" dominant-baseline="central" transform="matrix(1, 0, 0, 1, 0.5, 0.5)" fill-opacity="1">med10/nut2</text><path fill="rgb(140,86,75)" stroke="rgb(140,86,75)" paint-order="fill" d="M 474.40833282470703 218 A 4 4 0 1 1 474.4083308247072 217.99600000066667" fill-opacity="1" stroke-opacity="1" stroke-linejoin="bevel" stroke-miterlimit="10" stroke-dasharray=""/><path fill="rgb(140,86,75)" stroke="none" paint-order="stroke" d="M 462.40833282470703 210 L 478.40833282470703 210 L 478.40833282470703 226 L 462.40833282470703 226 L 462.40833282470703 210" fill-opacity="0.30196078431372547"/><text fill="rgb(68,68,68)" stroke="none" font-family="helvetica" font-size="13px" font-style="italic" font-weight="normal" text-decoration="normal" x="484.90833282470703" y="240.5" text-anchor="start" dominant-baseline="central" transform="matrix(1, 0, 0, 1, 0.5, 0.5)" fill-opacity="1">med27/pmc3</text><path fill="rgb(226,119,193)" stroke="rgb(226,119,193)" paint-order="fill" d="M 474.40833282470703 241 A 4 4 0 1 1 474.4083308247072 240.99600000066667" fill-opacity="1" stroke-opacity="1" stroke-linejoin="bevel" stroke-miterlimit="10" stroke-dasharray=""/><path fill="rgb(226,119,193)" stroke="none" paint-order="stroke" d="M 462.40833282470703 233 L 478.40833282470703 233 L 478.40833282470703 249 L 462.40833282470703 249 L 462.40833282470703 233" fill-opacity="0.30196078431372547"/><text fill="rgb(68,68,68)" stroke="none" font-family="arial" font-size="15pt" font-style="normal" font-weight="normal" text-decoration="normal" x="65" y="24.791015625" text-anchor="start" dominant-baseline="alphabetic" transform="matrix(1, 0, 0, 1, 0.5, 0.5)" fill-opacity="1">Adhesion of Mediator gene deletions on EMM</text></svg>