<?xml version="1.0" encoding="utf-8" standalone="no"?>
<!DOCTYPE svg PUBLIC "-//W3C//DTD SVG 1.1//EN"
  "http://www.w3.org/Graphics/SVG/1.1/DTD/svg11.dtd">
<svg height="345.6pt" version="1.1" viewBox="0 0 460.8 345.6" width="460.8pt" xmlns="http://www.w3.org/2000/svg" xmlns:xlink="http://www.w3.org/1999/xlink">
 <metadata>
  <rdf:RDF xmlns:cc="http://creativecommons.org/ns#" xmlns:dc="http://purl.org/dc/elements/1.1/" xmlns:rdf="http://www.w3.org/1999/02/22-rdf-syntax-ns#">
   <cc:Work>
    <dc:type rdf:resource="http://purl.org/dc/dcmitype/StillImage"/>
    <dc:date>2023-08-31T09:13:00.777704</dc:date>
    <dc:format>image/svg+xml</dc:format>
    <dc:creator>
     <cc:Agent>
      <dc:title>Matplotlib v3.4.3, https://matplotlib.org/</dc:title>
     </cc:Agent>
    </dc:creator>
   </cc:Work>
  </rdf:RDF>
 </metadata>
 <defs>
  <style type="text/css">*{stroke-linecap:butt;stroke-linejoin:round;}</style>
 </defs>
 <g id="figure_1">
  <g id="patch_1">
   <path d="M 0 345.6 
L 460.8 345.6 
L 460.8 0 
L 0 0 
z
" style="fill:#ffffff;"/>
  </g>
  <g id="axes_1">
   <g id="patch_2">
    <path d="M 57.6 307.584 
L 414.72 307.584 
L 414.72 41.472 
L 57.6 41.472 
z
" style="fill:#ffffff;"/>
   </g>
   <g id="PathCollection_1">
    <defs>
     <path d="M 0 3 
C 0.795609 3 1.55874 2.683901 2.12132 2.12132 
C 2.683901 1.55874 3 0.795609 3 0 
C 3 -0.795609 2.683901 -1.55874 2.12132 -2.12132 
C 1.55874 -2.683901 0.795609 -3 0 -3 
C -0.795609 -3 -1.55874 -2.683901 -2.12132 -2.12132 
C -2.683901 -1.55874 -3 -0.795609 -3 0 
C -3 0.795609 -2.683901 1.55874 -2.12132 2.12132 
C -1.55874 2.683901 -0.795609 3 0 3 
z
" id="m64e25b616b" style="stroke:#1f77b4;"/>
    </defs>
    <g clip-path="url(#p9ad3b4e9d8)">
     <use style="fill:#1f77b4;stroke:#1f77b4;" x="101.855141" xlink:href="#m64e25b616b" y="260.225701"/>
     <use style="fill:#1f77b4;stroke:#1f77b4;" x="390.368924" xlink:href="#m64e25b616b" y="98.102694"/>
     <use style="fill:#1f77b4;stroke:#1f77b4;" x="74.183529" xlink:href="#m64e25b616b" y="272.945474"/>
     <use style="fill:#1f77b4;stroke:#1f77b4;" x="76.338401" xlink:href="#m64e25b616b" y="269.779868"/>
     <use style="fill:#1f77b4;stroke:#1f77b4;" x="75.026004" xlink:href="#m64e25b616b" y="276.317185"/>
     <use style="fill:#1f77b4;stroke:#1f77b4;" x="78.046472" xlink:href="#m64e25b616b" y="278.678856"/>
     <use style="fill:#1f77b4;stroke:#1f77b4;" x="76.326326" xlink:href="#m64e25b616b" y="262.892364"/>
     <use style="fill:#1f77b4;stroke:#1f77b4;" x="94.5605" xlink:href="#m64e25b616b" y="268.707323"/>
     <use style="fill:#1f77b4;stroke:#1f77b4;" x="102.190134" xlink:href="#m64e25b616b" y="260.679144"/>
     <use style="fill:#1f77b4;stroke:#1f77b4;" x="127.088676" xlink:href="#m64e25b616b" y="283.509752"/>
     <use style="fill:#1f77b4;stroke:#1f77b4;" x="104.417689" xlink:href="#m64e25b616b" y="280.867621"/>
     <use style="fill:#1f77b4;stroke:#1f77b4;" x="83.484733" xlink:href="#m64e25b616b" y="270.673361"/>
     <use style="fill:#1f77b4;stroke:#1f77b4;" x="75.356525" xlink:href="#m64e25b616b" y="267.302431"/>
     <use style="fill:#1f77b4;stroke:#1f77b4;" x="74.566757" xlink:href="#m64e25b616b" y="270.567288"/>
     <use style="fill:#1f77b4;stroke:#1f77b4;" x="76.047045" xlink:href="#m64e25b616b" y="270.741743"/>
     <use style="fill:#1f77b4;stroke:#1f77b4;" x="76.120087" xlink:href="#m64e25b616b" y="275.139672"/>
     <use style="fill:#1f77b4;stroke:#1f77b4;" x="85.251991" xlink:href="#m64e25b616b" y="260.741652"/>
     <use style="fill:#1f77b4;stroke:#1f77b4;" x="176.397554" xlink:href="#m64e25b616b" y="271.386031"/>
     <use style="fill:#1f77b4;stroke:#1f77b4;" x="84.993205" xlink:href="#m64e25b616b" y="277.771855"/>
     <use style="fill:#1f77b4;stroke:#1f77b4;" x="77.458394" xlink:href="#m64e25b616b" y="278.567039"/>
     <use style="fill:#1f77b4;stroke:#1f77b4;" x="77.395995" xlink:href="#m64e25b616b" y="275.124122"/>
     <use style="fill:#1f77b4;stroke:#1f77b4;" x="90.230679" xlink:href="#m64e25b616b" y="277.951444"/>
     <use style="fill:#1f77b4;stroke:#1f77b4;" x="78.495997" xlink:href="#m64e25b616b" y="272.053485"/>
     <use style="fill:#1f77b4;stroke:#1f77b4;" x="73.832727" xlink:href="#m64e25b616b" y="275.612617"/>
     <use style="fill:#1f77b4;stroke:#1f77b4;" x="137.014563" xlink:href="#m64e25b616b" y="277.809202"/>
     <use style="fill:#1f77b4;stroke:#1f77b4;" x="398.487273" xlink:href="#m64e25b616b" y="53.568"/>
     <use style="fill:#1f77b4;stroke:#1f77b4;" x="205.22649" xlink:href="#m64e25b616b" y="195.292748"/>
     <use style="fill:#1f77b4;stroke:#1f77b4;" x="388.090953" xlink:href="#m64e25b616b" y="87.055429"/>
     <use style="fill:#1f77b4;stroke:#1f77b4;" x="84.724183" xlink:href="#m64e25b616b" y="267.195962"/>
     <use style="fill:#1f77b4;stroke:#1f77b4;" x="74.850102" xlink:href="#m64e25b616b" y="267.100687"/>
     <use style="fill:#1f77b4;stroke:#1f77b4;" x="75.833578" xlink:href="#m64e25b616b" y="248.776736"/>
     <use style="fill:#1f77b4;stroke:#1f77b4;" x="75.707865" xlink:href="#m64e25b616b" y="276.172111"/>
     <use style="fill:#1f77b4;stroke:#1f77b4;" x="79.181126" xlink:href="#m64e25b616b" y="265.719585"/>
     <use style="fill:#1f77b4;stroke:#1f77b4;" x="160.061546" xlink:href="#m64e25b616b" y="275.543022"/>
     <use style="fill:#1f77b4;stroke:#1f77b4;" x="75.49381" xlink:href="#m64e25b616b" y="262.539097"/>
     <use style="fill:#1f77b4;stroke:#1f77b4;" x="365.50682" xlink:href="#m64e25b616b" y="135.175668"/>
     <use style="fill:#1f77b4;stroke:#1f77b4;" x="140.436367" xlink:href="#m64e25b616b" y="289.462934"/>
     <use style="fill:#1f77b4;stroke:#1f77b4;" x="88.094882" xlink:href="#m64e25b616b" y="261.506637"/>
     <use style="fill:#1f77b4;stroke:#1f77b4;" x="128.654149" xlink:href="#m64e25b616b" y="283.26566"/>
     <use style="fill:#1f77b4;stroke:#1f77b4;" x="79.401787" xlink:href="#m64e25b616b" y="246.384427"/>
     <use style="fill:#1f77b4;stroke:#1f77b4;" x="80.592185" xlink:href="#m64e25b616b" y="249.320438"/>
     <use style="fill:#1f77b4;stroke:#1f77b4;" x="78.046008" xlink:href="#m64e25b616b" y="262.826023"/>
     <use style="fill:#1f77b4;stroke:#1f77b4;" x="74.571685" xlink:href="#m64e25b616b" y="252.784338"/>
     <use style="fill:#1f77b4;stroke:#1f77b4;" x="112.741797" xlink:href="#m64e25b616b" y="262.217536"/>
     <use style="fill:#1f77b4;stroke:#1f77b4;" x="88.603058" xlink:href="#m64e25b616b" y="242.249129"/>
     <use style="fill:#1f77b4;stroke:#1f77b4;" x="77.996767" xlink:href="#m64e25b616b" y="290.556023"/>
     <use style="fill:#1f77b4;stroke:#1f77b4;" x="357.616166" xlink:href="#m64e25b616b" y="227.347568"/>
     <use style="fill:#1f77b4;stroke:#1f77b4;" x="215.988016" xlink:href="#m64e25b616b" y="257.323568"/>
     <use style="fill:#1f77b4;stroke:#1f77b4;" x="233.070597" xlink:href="#m64e25b616b" y="291.621231"/>
     <use style="fill:#1f77b4;stroke:#1f77b4;" x="73.946244" xlink:href="#m64e25b616b" y="262.32356"/>
     <use style="fill:#1f77b4;stroke:#1f77b4;" x="234.054496" xlink:href="#m64e25b616b" y="257.364023"/>
     <use style="fill:#1f77b4;stroke:#1f77b4;" x="83.305835" xlink:href="#m64e25b616b" y="253.737128"/>
     <use style="fill:#1f77b4;stroke:#1f77b4;" x="91.255968" xlink:href="#m64e25b616b" y="295.488"/>
     <use style="fill:#1f77b4;stroke:#1f77b4;" x="388.042655" xlink:href="#m64e25b616b" y="63.073063"/>
    </g>
   </g>
   <g id="matplotlib.axis_1">
    <g id="xtick_1">
     <g id="line2d_1">
      <defs>
       <path d="M 0 0 
L 0 3.5 
" id="m3f5a9c9220" style="stroke:#000000;stroke-width:0.8;"/>
      </defs>
      <g>
       <use style="stroke:#000000;stroke-width:0.8;" x="66.877927" xlink:href="#m3f5a9c9220" y="307.584"/>
      </g>
     </g>
     <g id="text_1">
      <!-- 0 -->
      <g transform="translate(64.097458 321.741812)scale(0.1 -0.1)">
       <defs>
        <path d="M 266 2259 
Q 266 3072 433 3567 
Q 600 4063 929 4331 
Q 1259 4600 1759 4600 
Q 2128 4600 2406 4451 
Q 2684 4303 2865 4023 
Q 3047 3744 3150 3342 
Q 3253 2941 3253 2259 
Q 3253 1453 3087 958 
Q 2922 463 2592 192 
Q 2263 -78 1759 -78 
Q 1097 -78 719 397 
Q 266 969 266 2259 
z
M 844 2259 
Q 844 1131 1108 757 
Q 1372 384 1759 384 
Q 2147 384 2411 759 
Q 2675 1134 2675 2259 
Q 2675 3391 2411 3762 
Q 2147 4134 1753 4134 
Q 1366 4134 1134 3806 
Q 844 3388 844 2259 
z
" id="ArialMT-30" transform="scale(0.015625)"/>
       </defs>
       <use xlink:href="#ArialMT-30"/>
      </g>
     </g>
    </g>
    <g id="xtick_2">
     <g id="line2d_2">
      <g>
       <use style="stroke:#000000;stroke-width:0.8;" x="133.903939" xlink:href="#m3f5a9c9220" y="307.584"/>
      </g>
     </g>
     <g id="text_2">
      <!-- 20 -->
      <g transform="translate(128.343001 321.741812)scale(0.1 -0.1)">
       <defs>
        <path d="M 3222 541 
L 3222 0 
L 194 0 
Q 188 203 259 391 
Q 375 700 629 1000 
Q 884 1300 1366 1694 
Q 2113 2306 2375 2664 
Q 2638 3022 2638 3341 
Q 2638 3675 2398 3904 
Q 2159 4134 1775 4134 
Q 1369 4134 1125 3890 
Q 881 3647 878 3216 
L 300 3275 
Q 359 3922 746 4261 
Q 1134 4600 1788 4600 
Q 2447 4600 2831 4234 
Q 3216 3869 3216 3328 
Q 3216 3053 3103 2787 
Q 2991 2522 2730 2228 
Q 2469 1934 1863 1422 
Q 1356 997 1212 845 
Q 1069 694 975 541 
L 3222 541 
z
" id="ArialMT-32" transform="scale(0.015625)"/>
       </defs>
       <use xlink:href="#ArialMT-32"/>
       <use x="55.615234" xlink:href="#ArialMT-30"/>
      </g>
     </g>
    </g>
    <g id="xtick_3">
     <g id="line2d_3">
      <g>
       <use style="stroke:#000000;stroke-width:0.8;" x="200.92995" xlink:href="#m3f5a9c9220" y="307.584"/>
      </g>
     </g>
     <g id="text_3">
      <!-- 40 -->
      <g transform="translate(195.369013 321.741812)scale(0.1 -0.1)">
       <defs>
        <path d="M 2069 0 
L 2069 1097 
L 81 1097 
L 81 1613 
L 2172 4581 
L 2631 4581 
L 2631 1613 
L 3250 1613 
L 3250 1097 
L 2631 1097 
L 2631 0 
L 2069 0 
z
M 2069 1613 
L 2069 3678 
L 634 1613 
L 2069 1613 
z
" id="ArialMT-34" transform="scale(0.015625)"/>
       </defs>
       <use xlink:href="#ArialMT-34"/>
       <use x="55.615234" xlink:href="#ArialMT-30"/>
      </g>
     </g>
    </g>
    <g id="xtick_4">
     <g id="line2d_4">
      <g>
       <use style="stroke:#000000;stroke-width:0.8;" x="267.955962" xlink:href="#m3f5a9c9220" y="307.584"/>
      </g>
     </g>
     <g id="text_4">
      <!-- 60 -->
      <g transform="translate(262.395025 321.741812)scale(0.1 -0.1)">
       <defs>
        <path d="M 3184 3459 
L 2625 3416 
Q 2550 3747 2413 3897 
Q 2184 4138 1850 4138 
Q 1581 4138 1378 3988 
Q 1113 3794 959 3422 
Q 806 3050 800 2363 
Q 1003 2672 1297 2822 
Q 1591 2972 1913 2972 
Q 2475 2972 2870 2558 
Q 3266 2144 3266 1488 
Q 3266 1056 3080 686 
Q 2894 316 2569 119 
Q 2244 -78 1831 -78 
Q 1128 -78 684 439 
Q 241 956 241 2144 
Q 241 3472 731 4075 
Q 1159 4600 1884 4600 
Q 2425 4600 2770 4297 
Q 3116 3994 3184 3459 
z
M 888 1484 
Q 888 1194 1011 928 
Q 1134 663 1356 523 
Q 1578 384 1822 384 
Q 2178 384 2434 671 
Q 2691 959 2691 1453 
Q 2691 1928 2437 2201 
Q 2184 2475 1800 2475 
Q 1419 2475 1153 2201 
Q 888 1928 888 1484 
z
" id="ArialMT-36" transform="scale(0.015625)"/>
       </defs>
       <use xlink:href="#ArialMT-36"/>
       <use x="55.615234" xlink:href="#ArialMT-30"/>
      </g>
     </g>
    </g>
    <g id="xtick_5">
     <g id="line2d_5">
      <g>
       <use style="stroke:#000000;stroke-width:0.8;" x="334.981974" xlink:href="#m3f5a9c9220" y="307.584"/>
      </g>
     </g>
     <g id="text_5">
      <!-- 80 -->
      <g transform="translate(329.421037 321.741812)scale(0.1 -0.1)">
       <defs>
        <path d="M 1131 2484 
Q 781 2613 612 2850 
Q 444 3088 444 3419 
Q 444 3919 803 4259 
Q 1163 4600 1759 4600 
Q 2359 4600 2725 4251 
Q 3091 3903 3091 3403 
Q 3091 3084 2923 2848 
Q 2756 2613 2416 2484 
Q 2838 2347 3058 2040 
Q 3278 1734 3278 1309 
Q 3278 722 2862 322 
Q 2447 -78 1769 -78 
Q 1091 -78 675 323 
Q 259 725 259 1325 
Q 259 1772 486 2073 
Q 713 2375 1131 2484 
z
M 1019 3438 
Q 1019 3113 1228 2906 
Q 1438 2700 1772 2700 
Q 2097 2700 2305 2904 
Q 2513 3109 2513 3406 
Q 2513 3716 2298 3927 
Q 2084 4138 1766 4138 
Q 1444 4138 1231 3931 
Q 1019 3725 1019 3438 
z
M 838 1322 
Q 838 1081 952 856 
Q 1066 631 1291 507 
Q 1516 384 1775 384 
Q 2178 384 2440 643 
Q 2703 903 2703 1303 
Q 2703 1709 2433 1975 
Q 2163 2241 1756 2241 
Q 1359 2241 1098 1978 
Q 838 1716 838 1322 
z
" id="ArialMT-38" transform="scale(0.015625)"/>
       </defs>
       <use xlink:href="#ArialMT-38"/>
       <use x="55.615234" xlink:href="#ArialMT-30"/>
      </g>
     </g>
    </g>
    <g id="xtick_6">
     <g id="line2d_6">
      <g>
       <use style="stroke:#000000;stroke-width:0.8;" x="402.007986" xlink:href="#m3f5a9c9220" y="307.584"/>
      </g>
     </g>
     <g id="text_6">
      <!-- 100 -->
      <g transform="translate(393.66658 321.741812)scale(0.1 -0.1)">
       <defs>
        <path d="M 2384 0 
L 1822 0 
L 1822 3584 
Q 1619 3391 1289 3197 
Q 959 3003 697 2906 
L 697 3450 
Q 1169 3672 1522 3987 
Q 1875 4303 2022 4600 
L 2384 4600 
L 2384 0 
z
" id="ArialMT-31" transform="scale(0.015625)"/>
       </defs>
       <use xlink:href="#ArialMT-31"/>
       <use x="55.615234" xlink:href="#ArialMT-30"/>
       <use x="111.230469" xlink:href="#ArialMT-30"/>
      </g>
     </g>
    </g>
    <g id="text_7">
     <!-- Filtering assay (% flocculating) -->
     <g transform="translate(168.360781 335.009)scale(0.1 -0.1)">
      <defs>
       <path d="M 525 0 
L 525 4581 
L 3616 4581 
L 3616 4041 
L 1131 4041 
L 1131 2622 
L 3281 2622 
L 3281 2081 
L 1131 2081 
L 1131 0 
L 525 0 
z
" id="ArialMT-46" transform="scale(0.015625)"/>
       <path d="M 425 3934 
L 425 4581 
L 988 4581 
L 988 3934 
L 425 3934 
z
M 425 0 
L 425 3319 
L 988 3319 
L 988 0 
L 425 0 
z
" id="ArialMT-69" transform="scale(0.015625)"/>
       <path d="M 409 0 
L 409 4581 
L 972 4581 
L 972 0 
L 409 0 
z
" id="ArialMT-6c" transform="scale(0.015625)"/>
       <path d="M 1650 503 
L 1731 6 
Q 1494 -44 1306 -44 
Q 1000 -44 831 53 
Q 663 150 594 308 
Q 525 466 525 972 
L 525 2881 
L 113 2881 
L 113 3319 
L 525 3319 
L 525 4141 
L 1084 4478 
L 1084 3319 
L 1650 3319 
L 1650 2881 
L 1084 2881 
L 1084 941 
Q 1084 700 1114 631 
Q 1144 563 1211 522 
Q 1278 481 1403 481 
Q 1497 481 1650 503 
z
" id="ArialMT-74" transform="scale(0.015625)"/>
       <path d="M 2694 1069 
L 3275 997 
Q 3138 488 2766 206 
Q 2394 -75 1816 -75 
Q 1088 -75 661 373 
Q 234 822 234 1631 
Q 234 2469 665 2931 
Q 1097 3394 1784 3394 
Q 2450 3394 2872 2941 
Q 3294 2488 3294 1666 
Q 3294 1616 3291 1516 
L 816 1516 
Q 847 969 1125 678 
Q 1403 388 1819 388 
Q 2128 388 2347 550 
Q 2566 713 2694 1069 
z
M 847 1978 
L 2700 1978 
Q 2663 2397 2488 2606 
Q 2219 2931 1791 2931 
Q 1403 2931 1139 2672 
Q 875 2413 847 1978 
z
" id="ArialMT-65" transform="scale(0.015625)"/>
       <path d="M 416 0 
L 416 3319 
L 922 3319 
L 922 2816 
Q 1116 3169 1280 3281 
Q 1444 3394 1641 3394 
Q 1925 3394 2219 3213 
L 2025 2691 
Q 1819 2813 1613 2813 
Q 1428 2813 1281 2702 
Q 1134 2591 1072 2394 
Q 978 2094 978 1738 
L 978 0 
L 416 0 
z
" id="ArialMT-72" transform="scale(0.015625)"/>
       <path d="M 422 0 
L 422 3319 
L 928 3319 
L 928 2847 
Q 1294 3394 1984 3394 
Q 2284 3394 2536 3286 
Q 2788 3178 2913 3003 
Q 3038 2828 3088 2588 
Q 3119 2431 3119 2041 
L 3119 0 
L 2556 0 
L 2556 2019 
Q 2556 2363 2490 2533 
Q 2425 2703 2258 2804 
Q 2091 2906 1866 2906 
Q 1506 2906 1245 2678 
Q 984 2450 984 1813 
L 984 0 
L 422 0 
z
" id="ArialMT-6e" transform="scale(0.015625)"/>
       <path d="M 319 -275 
L 866 -356 
Q 900 -609 1056 -725 
Q 1266 -881 1628 -881 
Q 2019 -881 2231 -725 
Q 2444 -569 2519 -288 
Q 2563 -116 2559 434 
Q 2191 0 1641 0 
Q 956 0 581 494 
Q 206 988 206 1678 
Q 206 2153 378 2554 
Q 550 2956 876 3175 
Q 1203 3394 1644 3394 
Q 2231 3394 2613 2919 
L 2613 3319 
L 3131 3319 
L 3131 450 
Q 3131 -325 2973 -648 
Q 2816 -972 2473 -1159 
Q 2131 -1347 1631 -1347 
Q 1038 -1347 672 -1080 
Q 306 -813 319 -275 
z
M 784 1719 
Q 784 1066 1043 766 
Q 1303 466 1694 466 
Q 2081 466 2343 764 
Q 2606 1063 2606 1700 
Q 2606 2309 2336 2618 
Q 2066 2928 1684 2928 
Q 1309 2928 1046 2623 
Q 784 2319 784 1719 
z
" id="ArialMT-67" transform="scale(0.015625)"/>
       <path id="ArialMT-20" transform="scale(0.015625)"/>
       <path d="M 2588 409 
Q 2275 144 1986 34 
Q 1697 -75 1366 -75 
Q 819 -75 525 192 
Q 231 459 231 875 
Q 231 1119 342 1320 
Q 453 1522 633 1644 
Q 813 1766 1038 1828 
Q 1203 1872 1538 1913 
Q 2219 1994 2541 2106 
Q 2544 2222 2544 2253 
Q 2544 2597 2384 2738 
Q 2169 2928 1744 2928 
Q 1347 2928 1158 2789 
Q 969 2650 878 2297 
L 328 2372 
Q 403 2725 575 2942 
Q 747 3159 1072 3276 
Q 1397 3394 1825 3394 
Q 2250 3394 2515 3294 
Q 2781 3194 2906 3042 
Q 3031 2891 3081 2659 
Q 3109 2516 3109 2141 
L 3109 1391 
Q 3109 606 3145 398 
Q 3181 191 3288 0 
L 2700 0 
Q 2613 175 2588 409 
z
M 2541 1666 
Q 2234 1541 1622 1453 
Q 1275 1403 1131 1340 
Q 988 1278 909 1158 
Q 831 1038 831 891 
Q 831 666 1001 516 
Q 1172 366 1500 366 
Q 1825 366 2078 508 
Q 2331 650 2450 897 
Q 2541 1088 2541 1459 
L 2541 1666 
z
" id="ArialMT-61" transform="scale(0.015625)"/>
       <path d="M 197 991 
L 753 1078 
Q 800 744 1014 566 
Q 1228 388 1613 388 
Q 2000 388 2187 545 
Q 2375 703 2375 916 
Q 2375 1106 2209 1216 
Q 2094 1291 1634 1406 
Q 1016 1563 777 1677 
Q 538 1791 414 1992 
Q 291 2194 291 2438 
Q 291 2659 392 2848 
Q 494 3038 669 3163 
Q 800 3259 1026 3326 
Q 1253 3394 1513 3394 
Q 1903 3394 2198 3281 
Q 2494 3169 2634 2976 
Q 2775 2784 2828 2463 
L 2278 2388 
Q 2241 2644 2061 2787 
Q 1881 2931 1553 2931 
Q 1166 2931 1000 2803 
Q 834 2675 834 2503 
Q 834 2394 903 2306 
Q 972 2216 1119 2156 
Q 1203 2125 1616 2013 
Q 2213 1853 2448 1751 
Q 2684 1650 2818 1456 
Q 2953 1263 2953 975 
Q 2953 694 2789 445 
Q 2625 197 2315 61 
Q 2006 -75 1616 -75 
Q 969 -75 630 194 
Q 291 463 197 991 
z
" id="ArialMT-73" transform="scale(0.015625)"/>
       <path d="M 397 -1278 
L 334 -750 
Q 519 -800 656 -800 
Q 844 -800 956 -737 
Q 1069 -675 1141 -563 
Q 1194 -478 1313 -144 
Q 1328 -97 1363 -6 
L 103 3319 
L 709 3319 
L 1400 1397 
Q 1534 1031 1641 628 
Q 1738 1016 1872 1384 
L 2581 3319 
L 3144 3319 
L 1881 -56 
Q 1678 -603 1566 -809 
Q 1416 -1088 1222 -1217 
Q 1028 -1347 759 -1347 
Q 597 -1347 397 -1278 
z
" id="ArialMT-79" transform="scale(0.015625)"/>
       <path d="M 1497 -1347 
Q 1031 -759 709 28 
Q 388 816 388 1659 
Q 388 2403 628 3084 
Q 909 3875 1497 4659 
L 1900 4659 
Q 1522 4009 1400 3731 
Q 1209 3300 1100 2831 
Q 966 2247 966 1656 
Q 966 153 1900 -1347 
L 1497 -1347 
z
" id="ArialMT-28" transform="scale(0.015625)"/>
       <path d="M 372 3481 
Q 372 3972 619 4315 
Q 866 4659 1334 4659 
Q 1766 4659 2048 4351 
Q 2331 4044 2331 3447 
Q 2331 2866 2045 2552 
Q 1759 2238 1341 2238 
Q 925 2238 648 2547 
Q 372 2856 372 3481 
z
M 1350 4272 
Q 1141 4272 1002 4090 
Q 863 3909 863 3425 
Q 863 2984 1003 2804 
Q 1144 2625 1350 2625 
Q 1563 2625 1702 2806 
Q 1841 2988 1841 3469 
Q 1841 3913 1700 4092 
Q 1559 4272 1350 4272 
z
M 1353 -169 
L 3859 4659 
L 4316 4659 
L 1819 -169 
L 1353 -169 
z
M 3334 1075 
Q 3334 1569 3581 1911 
Q 3828 2253 4300 2253 
Q 4731 2253 5014 1945 
Q 5297 1638 5297 1041 
Q 5297 459 5011 145 
Q 4725 -169 4303 -169 
Q 3888 -169 3611 142 
Q 3334 453 3334 1075 
z
M 4316 1866 
Q 4103 1866 3964 1684 
Q 3825 1503 3825 1019 
Q 3825 581 3965 400 
Q 4106 219 4313 219 
Q 4528 219 4667 400 
Q 4806 581 4806 1063 
Q 4806 1506 4665 1686 
Q 4525 1866 4316 1866 
z
" id="ArialMT-25" transform="scale(0.015625)"/>
       <path d="M 556 0 
L 556 2881 
L 59 2881 
L 59 3319 
L 556 3319 
L 556 3672 
Q 556 4006 616 4169 
Q 697 4388 901 4523 
Q 1106 4659 1475 4659 
Q 1713 4659 2000 4603 
L 1916 4113 
Q 1741 4144 1584 4144 
Q 1328 4144 1222 4034 
Q 1116 3925 1116 3625 
L 1116 3319 
L 1763 3319 
L 1763 2881 
L 1116 2881 
L 1116 0 
L 556 0 
z
" id="ArialMT-66" transform="scale(0.015625)"/>
       <path d="M 213 1659 
Q 213 2581 725 3025 
Q 1153 3394 1769 3394 
Q 2453 3394 2887 2945 
Q 3322 2497 3322 1706 
Q 3322 1066 3130 698 
Q 2938 331 2570 128 
Q 2203 -75 1769 -75 
Q 1072 -75 642 372 
Q 213 819 213 1659 
z
M 791 1659 
Q 791 1022 1069 705 
Q 1347 388 1769 388 
Q 2188 388 2466 706 
Q 2744 1025 2744 1678 
Q 2744 2294 2464 2611 
Q 2184 2928 1769 2928 
Q 1347 2928 1069 2612 
Q 791 2297 791 1659 
z
" id="ArialMT-6f" transform="scale(0.015625)"/>
       <path d="M 2588 1216 
L 3141 1144 
Q 3050 572 2676 248 
Q 2303 -75 1759 -75 
Q 1078 -75 664 370 
Q 250 816 250 1647 
Q 250 2184 428 2587 
Q 606 2991 970 3192 
Q 1334 3394 1763 3394 
Q 2303 3394 2647 3120 
Q 2991 2847 3088 2344 
L 2541 2259 
Q 2463 2594 2264 2762 
Q 2066 2931 1784 2931 
Q 1359 2931 1093 2626 
Q 828 2322 828 1663 
Q 828 994 1084 691 
Q 1341 388 1753 388 
Q 2084 388 2306 591 
Q 2528 794 2588 1216 
z
" id="ArialMT-63" transform="scale(0.015625)"/>
       <path d="M 2597 0 
L 2597 488 
Q 2209 -75 1544 -75 
Q 1250 -75 995 37 
Q 741 150 617 320 
Q 494 491 444 738 
Q 409 903 409 1263 
L 409 3319 
L 972 3319 
L 972 1478 
Q 972 1038 1006 884 
Q 1059 663 1231 536 
Q 1403 409 1656 409 
Q 1909 409 2131 539 
Q 2353 669 2445 892 
Q 2538 1116 2538 1541 
L 2538 3319 
L 3100 3319 
L 3100 0 
L 2597 0 
z
" id="ArialMT-75" transform="scale(0.015625)"/>
       <path d="M 791 -1347 
L 388 -1347 
Q 1322 153 1322 1656 
Q 1322 2244 1188 2822 
Q 1081 3291 891 3722 
Q 769 4003 388 4659 
L 791 4659 
Q 1378 3875 1659 3084 
Q 1900 2403 1900 1659 
Q 1900 816 1576 28 
Q 1253 -759 791 -1347 
z
" id="ArialMT-29" transform="scale(0.015625)"/>
      </defs>
      <use xlink:href="#ArialMT-46"/>
      <use x="61.083984" xlink:href="#ArialMT-69"/>
      <use x="83.300781" xlink:href="#ArialMT-6c"/>
      <use x="105.517578" xlink:href="#ArialMT-74"/>
      <use x="133.300781" xlink:href="#ArialMT-65"/>
      <use x="188.916016" xlink:href="#ArialMT-72"/>
      <use x="222.216797" xlink:href="#ArialMT-69"/>
      <use x="244.433594" xlink:href="#ArialMT-6e"/>
      <use x="300.048828" xlink:href="#ArialMT-67"/>
      <use x="355.664062" xlink:href="#ArialMT-20"/>
      <use x="383.447266" xlink:href="#ArialMT-61"/>
      <use x="439.0625" xlink:href="#ArialMT-73"/>
      <use x="489.0625" xlink:href="#ArialMT-73"/>
      <use x="539.0625" xlink:href="#ArialMT-61"/>
      <use x="594.677734" xlink:href="#ArialMT-79"/>
      <use x="644.677734" xlink:href="#ArialMT-20"/>
      <use x="672.460938" xlink:href="#ArialMT-28"/>
      <use x="705.761719" xlink:href="#ArialMT-25"/>
      <use x="794.677734" xlink:href="#ArialMT-20"/>
      <use x="822.460938" xlink:href="#ArialMT-66"/>
      <use x="850.244141" xlink:href="#ArialMT-6c"/>
      <use x="872.460938" xlink:href="#ArialMT-6f"/>
      <use x="928.076172" xlink:href="#ArialMT-63"/>
      <use x="978.076172" xlink:href="#ArialMT-63"/>
      <use x="1028.076172" xlink:href="#ArialMT-75"/>
      <use x="1083.691406" xlink:href="#ArialMT-6c"/>
      <use x="1105.908203" xlink:href="#ArialMT-61"/>
      <use x="1161.523438" xlink:href="#ArialMT-74"/>
      <use x="1189.306641" xlink:href="#ArialMT-69"/>
      <use x="1211.523438" xlink:href="#ArialMT-6e"/>
      <use x="1267.138672" xlink:href="#ArialMT-67"/>
      <use x="1322.753906" xlink:href="#ArialMT-29"/>
     </g>
    </g>
   </g>
   <g id="matplotlib.axis_2">
    <g id="ytick_1">
     <g id="line2d_7">
      <defs>
       <path d="M 0 0 
L -3.5 0 
" id="mac1cd1f796" style="stroke:#000000;stroke-width:0.8;"/>
      </defs>
      <g>
       <use style="stroke:#000000;stroke-width:0.8;" x="57.6" xlink:href="#mac1cd1f796" y="288.931403"/>
      </g>
     </g>
     <g id="text_8">
      <!-- 0.10 -->
      <g transform="translate(31.139063 292.510309)scale(0.1 -0.1)">
       <defs>
        <path d="M 581 0 
L 581 641 
L 1222 641 
L 1222 0 
L 581 0 
z
" id="ArialMT-2e" transform="scale(0.015625)"/>
       </defs>
       <use xlink:href="#ArialMT-30"/>
       <use x="55.615234" xlink:href="#ArialMT-2e"/>
       <use x="83.398438" xlink:href="#ArialMT-31"/>
       <use x="139.013672" xlink:href="#ArialMT-30"/>
      </g>
     </g>
    </g>
    <g id="ytick_2">
     <g id="line2d_8">
      <g>
       <use style="stroke:#000000;stroke-width:0.8;" x="57.6" xlink:href="#mac1cd1f796" y="243.378854"/>
      </g>
     </g>
     <g id="text_9">
      <!-- 0.15 -->
      <g transform="translate(31.139063 246.95776)scale(0.1 -0.1)">
       <defs>
        <path d="M 266 1200 
L 856 1250 
Q 922 819 1161 601 
Q 1400 384 1738 384 
Q 2144 384 2425 690 
Q 2706 997 2706 1503 
Q 2706 1984 2436 2262 
Q 2166 2541 1728 2541 
Q 1456 2541 1237 2417 
Q 1019 2294 894 2097 
L 366 2166 
L 809 4519 
L 3088 4519 
L 3088 3981 
L 1259 3981 
L 1013 2750 
Q 1425 3038 1878 3038 
Q 2478 3038 2890 2622 
Q 3303 2206 3303 1553 
Q 3303 931 2941 478 
Q 2500 -78 1738 -78 
Q 1113 -78 717 272 
Q 322 622 266 1200 
z
" id="ArialMT-35" transform="scale(0.015625)"/>
       </defs>
       <use xlink:href="#ArialMT-30"/>
       <use x="55.615234" xlink:href="#ArialMT-2e"/>
       <use x="83.398438" xlink:href="#ArialMT-31"/>
       <use x="139.013672" xlink:href="#ArialMT-35"/>
      </g>
     </g>
    </g>
    <g id="ytick_3">
     <g id="line2d_9">
      <g>
       <use style="stroke:#000000;stroke-width:0.8;" x="57.6" xlink:href="#mac1cd1f796" y="197.826304"/>
      </g>
     </g>
     <g id="text_10">
      <!-- 0.20 -->
      <g transform="translate(31.139063 201.405211)scale(0.1 -0.1)">
       <use xlink:href="#ArialMT-30"/>
       <use x="55.615234" xlink:href="#ArialMT-2e"/>
       <use x="83.398438" xlink:href="#ArialMT-32"/>
       <use x="139.013672" xlink:href="#ArialMT-30"/>
      </g>
     </g>
    </g>
    <g id="ytick_4">
     <g id="line2d_10">
      <g>
       <use style="stroke:#000000;stroke-width:0.8;" x="57.6" xlink:href="#mac1cd1f796" y="152.273755"/>
      </g>
     </g>
     <g id="text_11">
      <!-- 0.25 -->
      <g transform="translate(31.139063 155.852661)scale(0.1 -0.1)">
       <use xlink:href="#ArialMT-30"/>
       <use x="55.615234" xlink:href="#ArialMT-2e"/>
       <use x="83.398438" xlink:href="#ArialMT-32"/>
       <use x="139.013672" xlink:href="#ArialMT-35"/>
      </g>
     </g>
    </g>
    <g id="ytick_5">
     <g id="line2d_11">
      <g>
       <use style="stroke:#000000;stroke-width:0.8;" x="57.6" xlink:href="#mac1cd1f796" y="106.721206"/>
      </g>
     </g>
     <g id="text_12">
      <!-- 0.30 -->
      <g transform="translate(31.139063 110.300112)scale(0.1 -0.1)">
       <defs>
        <path d="M 269 1209 
L 831 1284 
Q 928 806 1161 595 
Q 1394 384 1728 384 
Q 2125 384 2398 659 
Q 2672 934 2672 1341 
Q 2672 1728 2419 1979 
Q 2166 2231 1775 2231 
Q 1616 2231 1378 2169 
L 1441 2663 
Q 1497 2656 1531 2656 
Q 1891 2656 2178 2843 
Q 2466 3031 2466 3422 
Q 2466 3731 2256 3934 
Q 2047 4138 1716 4138 
Q 1388 4138 1169 3931 
Q 950 3725 888 3313 
L 325 3413 
Q 428 3978 793 4289 
Q 1159 4600 1703 4600 
Q 2078 4600 2393 4439 
Q 2709 4278 2876 4000 
Q 3044 3722 3044 3409 
Q 3044 3113 2884 2869 
Q 2725 2625 2413 2481 
Q 2819 2388 3044 2092 
Q 3269 1797 3269 1353 
Q 3269 753 2831 336 
Q 2394 -81 1725 -81 
Q 1122 -81 723 278 
Q 325 638 269 1209 
z
" id="ArialMT-33" transform="scale(0.015625)"/>
       </defs>
       <use xlink:href="#ArialMT-30"/>
       <use x="55.615234" xlink:href="#ArialMT-2e"/>
       <use x="83.398438" xlink:href="#ArialMT-33"/>
       <use x="139.013672" xlink:href="#ArialMT-30"/>
      </g>
     </g>
    </g>
    <g id="ytick_6">
     <g id="line2d_12">
      <g>
       <use style="stroke:#000000;stroke-width:0.8;" x="57.6" xlink:href="#mac1cd1f796" y="61.168657"/>
      </g>
     </g>
     <g id="text_13">
      <!-- 0.35 -->
      <g transform="translate(31.139063 64.747563)scale(0.1 -0.1)">
       <use xlink:href="#ArialMT-30"/>
       <use x="55.615234" xlink:href="#ArialMT-2e"/>
       <use x="83.398438" xlink:href="#ArialMT-33"/>
       <use x="139.013672" xlink:href="#ArialMT-35"/>
      </g>
     </g>
    </g>
    <g id="text_14">
     <!-- Plate-reader assay (CV) -->
     <g transform="translate(25.034375 228.155344)rotate(-90)scale(0.1 -0.1)">
      <defs>
       <path d="M 494 0 
L 494 4581 
L 2222 4581 
Q 2678 4581 2919 4538 
Q 3256 4481 3484 4323 
Q 3713 4166 3852 3881 
Q 3991 3597 3991 3256 
Q 3991 2672 3619 2267 
Q 3247 1863 2275 1863 
L 1100 1863 
L 1100 0 
L 494 0 
z
M 1100 2403 
L 2284 2403 
Q 2872 2403 3119 2622 
Q 3366 2841 3366 3238 
Q 3366 3525 3220 3729 
Q 3075 3934 2838 4000 
Q 2684 4041 2272 4041 
L 1100 4041 
L 1100 2403 
z
" id="ArialMT-50" transform="scale(0.015625)"/>
       <path d="M 203 1375 
L 203 1941 
L 1931 1941 
L 1931 1375 
L 203 1375 
z
" id="ArialMT-2d" transform="scale(0.015625)"/>
       <path d="M 2575 0 
L 2575 419 
Q 2259 -75 1647 -75 
Q 1250 -75 917 144 
Q 584 363 401 755 
Q 219 1147 219 1656 
Q 219 2153 384 2558 
Q 550 2963 881 3178 
Q 1213 3394 1622 3394 
Q 1922 3394 2156 3267 
Q 2391 3141 2538 2938 
L 2538 4581 
L 3097 4581 
L 3097 0 
L 2575 0 
z
M 797 1656 
Q 797 1019 1065 703 
Q 1334 388 1700 388 
Q 2069 388 2326 689 
Q 2584 991 2584 1609 
Q 2584 2291 2321 2609 
Q 2059 2928 1675 2928 
Q 1300 2928 1048 2622 
Q 797 2316 797 1656 
z
" id="ArialMT-64" transform="scale(0.015625)"/>
       <path d="M 3763 1606 
L 4369 1453 
Q 4178 706 3683 314 
Q 3188 -78 2472 -78 
Q 1731 -78 1267 223 
Q 803 525 561 1097 
Q 319 1669 319 2325 
Q 319 3041 592 3573 
Q 866 4106 1370 4382 
Q 1875 4659 2481 4659 
Q 3169 4659 3637 4309 
Q 4106 3959 4291 3325 
L 3694 3184 
Q 3534 3684 3231 3912 
Q 2928 4141 2469 4141 
Q 1941 4141 1586 3887 
Q 1231 3634 1087 3207 
Q 944 2781 944 2328 
Q 944 1744 1114 1308 
Q 1284 872 1643 656 
Q 2003 441 2422 441 
Q 2931 441 3284 734 
Q 3638 1028 3763 1606 
z
" id="ArialMT-43" transform="scale(0.015625)"/>
       <path d="M 1803 0 
L 28 4581 
L 684 4581 
L 1875 1253 
Q 2019 853 2116 503 
Q 2222 878 2363 1253 
L 3600 4581 
L 4219 4581 
L 2425 0 
L 1803 0 
z
" id="ArialMT-56" transform="scale(0.015625)"/>
      </defs>
      <use xlink:href="#ArialMT-50"/>
      <use x="66.699219" xlink:href="#ArialMT-6c"/>
      <use x="88.916016" xlink:href="#ArialMT-61"/>
      <use x="144.53125" xlink:href="#ArialMT-74"/>
      <use x="172.314453" xlink:href="#ArialMT-65"/>
      <use x="227.929688" xlink:href="#ArialMT-2d"/>
      <use x="261.230469" xlink:href="#ArialMT-72"/>
      <use x="294.53125" xlink:href="#ArialMT-65"/>
      <use x="350.146484" xlink:href="#ArialMT-61"/>
      <use x="405.761719" xlink:href="#ArialMT-64"/>
      <use x="461.376953" xlink:href="#ArialMT-65"/>
      <use x="516.992188" xlink:href="#ArialMT-72"/>
      <use x="550.292969" xlink:href="#ArialMT-20"/>
      <use x="578.076172" xlink:href="#ArialMT-61"/>
      <use x="633.691406" xlink:href="#ArialMT-73"/>
      <use x="683.691406" xlink:href="#ArialMT-73"/>
      <use x="733.691406" xlink:href="#ArialMT-61"/>
      <use x="789.306641" xlink:href="#ArialMT-79"/>
      <use x="839.306641" xlink:href="#ArialMT-20"/>
      <use x="867.089844" xlink:href="#ArialMT-28"/>
      <use x="900.390625" xlink:href="#ArialMT-43"/>
      <use x="972.607422" xlink:href="#ArialMT-56"/>
      <use x="1039.306641" xlink:href="#ArialMT-29"/>
     </g>
    </g>
   </g>
   <g id="patch_3">
    <path d="M 57.6 307.584 
L 57.6 41.472 
" style="fill:none;stroke:#000000;stroke-linecap:square;stroke-linejoin:miter;stroke-width:0.8;"/>
   </g>
   <g id="patch_4">
    <path d="M 414.72 307.584 
L 414.72 41.472 
" style="fill:none;stroke:#000000;stroke-linecap:square;stroke-linejoin:miter;stroke-width:0.8;"/>
   </g>
   <g id="patch_5">
    <path d="M 57.6 307.584 
L 414.72 307.584 
" style="fill:none;stroke:#000000;stroke-linecap:square;stroke-linejoin:miter;stroke-width:0.8;"/>
   </g>
   <g id="patch_6">
    <path d="M 57.6 41.472 
L 414.72 41.472 
" style="fill:none;stroke:#000000;stroke-linecap:square;stroke-linejoin:miter;stroke-width:0.8;"/>
   </g>
   <g id="text_15">
    <!-- Pearson correlation: 0.84 -->
    <g transform="translate(75.456 64.798538)scale(0.14 -0.14)">
     <defs>
      <path d="M 578 2678 
L 578 3319 
L 1219 3319 
L 1219 2678 
L 578 2678 
z
M 578 0 
L 578 641 
L 1219 641 
L 1219 0 
L 578 0 
z
" id="ArialMT-3a" transform="scale(0.015625)"/>
     </defs>
     <use xlink:href="#ArialMT-50"/>
     <use x="66.699219" xlink:href="#ArialMT-65"/>
     <use x="122.314453" xlink:href="#ArialMT-61"/>
     <use x="177.929688" xlink:href="#ArialMT-72"/>
     <use x="211.230469" xlink:href="#ArialMT-73"/>
     <use x="261.230469" xlink:href="#ArialMT-6f"/>
     <use x="316.845703" xlink:href="#ArialMT-6e"/>
     <use x="372.460938" xlink:href="#ArialMT-20"/>
     <use x="400.244141" xlink:href="#ArialMT-63"/>
     <use x="450.244141" xlink:href="#ArialMT-6f"/>
     <use x="505.859375" xlink:href="#ArialMT-72"/>
     <use x="539.160156" xlink:href="#ArialMT-72"/>
     <use x="572.460938" xlink:href="#ArialMT-65"/>
     <use x="628.076172" xlink:href="#ArialMT-6c"/>
     <use x="650.292969" xlink:href="#ArialMT-61"/>
     <use x="705.908203" xlink:href="#ArialMT-74"/>
     <use x="733.691406" xlink:href="#ArialMT-69"/>
     <use x="755.908203" xlink:href="#ArialMT-6f"/>
     <use x="811.523438" xlink:href="#ArialMT-6e"/>
     <use x="867.138672" xlink:href="#ArialMT-3a"/>
     <use x="894.921875" xlink:href="#ArialMT-20"/>
     <use x="922.705078" xlink:href="#ArialMT-30"/>
     <use x="978.320312" xlink:href="#ArialMT-2e"/>
     <use x="1006.103516" xlink:href="#ArialMT-38"/>
     <use x="1061.71875" xlink:href="#ArialMT-34"/>
    </g>
   </g>
   <g id="text_16">
    <!-- p-value: 1.35e-15 -->
    <g transform="translate(75.456 78.1457)scale(0.14 -0.14)">
     <defs>
      <path d="M 422 -1272 
L 422 3319 
L 934 3319 
L 934 2888 
Q 1116 3141 1344 3267 
Q 1572 3394 1897 3394 
Q 2322 3394 2647 3175 
Q 2972 2956 3137 2557 
Q 3303 2159 3303 1684 
Q 3303 1175 3120 767 
Q 2938 359 2589 142 
Q 2241 -75 1856 -75 
Q 1575 -75 1351 44 
Q 1128 163 984 344 
L 984 -1272 
L 422 -1272 
z
M 931 1641 
Q 931 1000 1190 694 
Q 1450 388 1819 388 
Q 2194 388 2461 705 
Q 2728 1022 2728 1688 
Q 2728 2322 2467 2637 
Q 2206 2953 1844 2953 
Q 1484 2953 1207 2617 
Q 931 2281 931 1641 
z
" id="ArialMT-70" transform="scale(0.015625)"/>
      <path d="M 1344 0 
L 81 3319 
L 675 3319 
L 1388 1331 
Q 1503 1009 1600 663 
Q 1675 925 1809 1294 
L 2547 3319 
L 3125 3319 
L 1869 0 
L 1344 0 
z
" id="ArialMT-76" transform="scale(0.015625)"/>
     </defs>
     <use xlink:href="#ArialMT-70"/>
     <use x="55.615234" xlink:href="#ArialMT-2d"/>
     <use x="88.916016" xlink:href="#ArialMT-76"/>
     <use x="138.916016" xlink:href="#ArialMT-61"/>
     <use x="194.53125" xlink:href="#ArialMT-6c"/>
     <use x="216.748047" xlink:href="#ArialMT-75"/>
     <use x="272.363281" xlink:href="#ArialMT-65"/>
     <use x="327.978516" xlink:href="#ArialMT-3a"/>
     <use x="355.761719" xlink:href="#ArialMT-20"/>
     <use x="383.544922" xlink:href="#ArialMT-31"/>
     <use x="439.160156" xlink:href="#ArialMT-2e"/>
     <use x="466.943359" xlink:href="#ArialMT-33"/>
     <use x="522.558594" xlink:href="#ArialMT-35"/>
     <use x="578.173828" xlink:href="#ArialMT-65"/>
     <use x="633.789062" xlink:href="#ArialMT-2d"/>
     <use x="667.089844" xlink:href="#ArialMT-31"/>
     <use x="722.705078" xlink:href="#ArialMT-35"/>
    </g>
   </g>
   <g id="text_17">
    <!-- Plate-reader assay vs. Filtering assay -->
    <g transform="translate(136.125938 35.472)scale(0.12 -0.12)">
     <use xlink:href="#ArialMT-50"/>
     <use x="66.699219" xlink:href="#ArialMT-6c"/>
     <use x="88.916016" xlink:href="#ArialMT-61"/>
     <use x="144.53125" xlink:href="#ArialMT-74"/>
     <use x="172.314453" xlink:href="#ArialMT-65"/>
     <use x="227.929688" xlink:href="#ArialMT-2d"/>
     <use x="261.230469" xlink:href="#ArialMT-72"/>
     <use x="294.53125" xlink:href="#ArialMT-65"/>
     <use x="350.146484" xlink:href="#ArialMT-61"/>
     <use x="405.761719" xlink:href="#ArialMT-64"/>
     <use x="461.376953" xlink:href="#ArialMT-65"/>
     <use x="516.992188" xlink:href="#ArialMT-72"/>
     <use x="550.292969" xlink:href="#ArialMT-20"/>
     <use x="578.076172" xlink:href="#ArialMT-61"/>
     <use x="633.691406" xlink:href="#ArialMT-73"/>
     <use x="683.691406" xlink:href="#ArialMT-73"/>
     <use x="733.691406" xlink:href="#ArialMT-61"/>
     <use x="789.306641" xlink:href="#ArialMT-79"/>
     <use x="839.306641" xlink:href="#ArialMT-20"/>
     <use x="867.089844" xlink:href="#ArialMT-76"/>
     <use x="917.089844" xlink:href="#ArialMT-73"/>
     <use x="967.089844" xlink:href="#ArialMT-2e"/>
     <use x="994.873047" xlink:href="#ArialMT-20"/>
     <use x="1022.65625" xlink:href="#ArialMT-46"/>
     <use x="1083.740234" xlink:href="#ArialMT-69"/>
     <use x="1105.957031" xlink:href="#ArialMT-6c"/>
     <use x="1128.173828" xlink:href="#ArialMT-74"/>
     <use x="1155.957031" xlink:href="#ArialMT-65"/>
     <use x="1211.572266" xlink:href="#ArialMT-72"/>
     <use x="1244.873047" xlink:href="#ArialMT-69"/>
     <use x="1267.089844" xlink:href="#ArialMT-6e"/>
     <use x="1322.705078" xlink:href="#ArialMT-67"/>
     <use x="1378.320312" xlink:href="#ArialMT-20"/>
     <use x="1406.103516" xlink:href="#ArialMT-61"/>
     <use x="1461.71875" xlink:href="#ArialMT-73"/>
     <use x="1511.71875" xlink:href="#ArialMT-73"/>
     <use x="1561.71875" xlink:href="#ArialMT-61"/>
     <use x="1617.333984" xlink:href="#ArialMT-79"/>
    </g>
   </g>
  </g>
 </g>
 <defs>
  <clipPath id="p9ad3b4e9d8">
   <rect height="266.112" width="357.12" x="57.6" y="41.472"/>
  </clipPath>
 </defs>
</svg>
