<?xml version="1.0" encoding="utf-8" standalone="no"?>
<!DOCTYPE svg PUBLIC "-//W3C//DTD SVG 1.1//EN"
  "http://www.w3.org/Graphics/SVG/1.1/DTD/svg11.dtd">
<svg height="360pt" version="1.1" viewBox="0 0 504 360" width="504pt" xmlns="http://www.w3.org/2000/svg" xmlns:xlink="http://www.w3.org/1999/xlink">
 <metadata>
  <rdf:RDF xmlns:cc="http://creativecommons.org/ns#" xmlns:dc="http://purl.org/dc/elements/1.1/" xmlns:rdf="http://www.w3.org/1999/02/22-rdf-syntax-ns#">
   <cc:Work>
    <dc:type rdf:resource="http://purl.org/dc/dcmitype/StillImage"/>
    <dc:date>2023-07-17T11:15:05.413005</dc:date>
    <dc:format>image/svg+xml</dc:format>
    <dc:creator>
     <cc:Agent>
      <dc:title>Matplotlib v3.4.3, https://matplotlib.org/</dc:title>
     </cc:Agent>
    </dc:creator>
   </cc:Work>
  </rdf:RDF>
 </metadata>
 <defs>
  <style type="text/css">*{stroke-linecap:butt;stroke-linejoin:round;}</style>
 </defs>
 <g id="figure_1">
  <g id="patch_1">
   <path d="M 0 360 
L 504 360 
L 504 0 
L 0 0 
z
" style="fill:#ffffff;"/>
  </g>
  <g id="axes_1">
   <g id="patch_2">
    <path d="M 63 320.4 
L 453.6 320.4 
L 453.6 43.2 
L 63 43.2 
z
" style="fill:#ffffff;"/>
   </g>
   <g id="patch_3">
    <path clip-path="url(#p7fc757b443)" d="M 68.58 194.4 
L 113.22 194.4 
L 113.22 180.036 
L 68.58 180.036 
z
" style="fill:#3274a1;"/>
   </g>
   <g id="patch_4">
    <path clip-path="url(#p7fc757b443)" d="M 124.38 194.4 
L 169.02 194.4 
L 169.02 226.782 
L 124.38 226.782 
z
" style="fill:#e1812c;"/>
   </g>
   <g id="patch_5">
    <path clip-path="url(#p7fc757b443)" d="M 180.18 194.4 
L 224.82 194.4 
L 224.82 274.158 
L 180.18 274.158 
z
" style="fill:#3a923a;"/>
   </g>
   <g id="patch_6">
    <path clip-path="url(#p7fc757b443)" d="M 235.98 194.4 
L 280.62 194.4 
L 280.62 262.503 
L 235.98 262.503 
z
" style="fill:#c03d3e;"/>
   </g>
   <g id="patch_7">
    <path clip-path="url(#p7fc757b443)" d="M 291.78 194.4 
L 336.42 194.4 
L 336.42 217.9935 
L 291.78 217.9935 
z
" style="fill:#9372b2;"/>
   </g>
   <g id="patch_8">
    <path clip-path="url(#p7fc757b443)" d="M 347.58 194.4 
L 392.22 194.4 
L 392.22 273.519592 
L 347.58 273.519592 
z
" style="fill:#845b53;"/>
   </g>
   <g id="patch_9">
    <path clip-path="url(#p7fc757b443)" d="M 403.38 194.4 
L 448.02 194.4 
L 448.02 161.200471 
L 403.38 161.200471 
z
" style="fill:#d684bd;"/>
   </g>
   <g id="matplotlib.axis_1">
    <g id="xtick_1">
     <g id="line2d_1">
      <defs>
       <path d="M 0 0 
L 0 3.5 
" id="mda678f4650" style="stroke:#000000;stroke-width:0.8;"/>
      </defs>
      <g>
       <use style="stroke:#000000;stroke-width:0.8;" x="90.9" xlink:href="#mda678f4650" y="320.4"/>
      </g>
     </g>
     <g id="text_1">
      <!-- fkh2::ura4+_10hr_HU -->
      <g transform="translate(42.610826 388.020284)rotate(-30)scale(0.1 -0.1)">
       <defs>
        <path d="M 2375 4863 
L 2375 4384 
L 1825 4384 
Q 1516 4384 1395 4259 
Q 1275 4134 1275 3809 
L 1275 3500 
L 2222 3500 
L 2222 3053 
L 1275 3053 
L 1275 0 
L 697 0 
L 697 3053 
L 147 3053 
L 147 3500 
L 697 3500 
L 697 3744 
Q 697 4328 969 4595 
Q 1241 4863 1831 4863 
L 2375 4863 
z
" id="DejaVuSans-66" transform="scale(0.015625)"/>
        <path d="M 581 4863 
L 1159 4863 
L 1159 1991 
L 2875 3500 
L 3609 3500 
L 1753 1863 
L 3688 0 
L 2938 0 
L 1159 1709 
L 1159 0 
L 581 0 
L 581 4863 
z
" id="DejaVuSans-6b" transform="scale(0.015625)"/>
        <path d="M 3513 2113 
L 3513 0 
L 2938 0 
L 2938 2094 
Q 2938 2591 2744 2837 
Q 2550 3084 2163 3084 
Q 1697 3084 1428 2787 
Q 1159 2491 1159 1978 
L 1159 0 
L 581 0 
L 581 4863 
L 1159 4863 
L 1159 2956 
Q 1366 3272 1645 3428 
Q 1925 3584 2291 3584 
Q 2894 3584 3203 3211 
Q 3513 2838 3513 2113 
z
" id="DejaVuSans-68" transform="scale(0.015625)"/>
        <path d="M 1228 531 
L 3431 531 
L 3431 0 
L 469 0 
L 469 531 
Q 828 903 1448 1529 
Q 2069 2156 2228 2338 
Q 2531 2678 2651 2914 
Q 2772 3150 2772 3378 
Q 2772 3750 2511 3984 
Q 2250 4219 1831 4219 
Q 1534 4219 1204 4116 
Q 875 4013 500 3803 
L 500 4441 
Q 881 4594 1212 4672 
Q 1544 4750 1819 4750 
Q 2544 4750 2975 4387 
Q 3406 4025 3406 3419 
Q 3406 3131 3298 2873 
Q 3191 2616 2906 2266 
Q 2828 2175 2409 1742 
Q 1991 1309 1228 531 
z
" id="DejaVuSans-32" transform="scale(0.015625)"/>
        <path d="M 750 794 
L 1409 794 
L 1409 0 
L 750 0 
L 750 794 
z
M 750 3309 
L 1409 3309 
L 1409 2516 
L 750 2516 
L 750 3309 
z
" id="DejaVuSans-3a" transform="scale(0.015625)"/>
        <path d="M 544 1381 
L 544 3500 
L 1119 3500 
L 1119 1403 
Q 1119 906 1312 657 
Q 1506 409 1894 409 
Q 2359 409 2629 706 
Q 2900 1003 2900 1516 
L 2900 3500 
L 3475 3500 
L 3475 0 
L 2900 0 
L 2900 538 
Q 2691 219 2414 64 
Q 2138 -91 1772 -91 
Q 1169 -91 856 284 
Q 544 659 544 1381 
z
M 1991 3584 
L 1991 3584 
z
" id="DejaVuSans-75" transform="scale(0.015625)"/>
        <path d="M 2631 2963 
Q 2534 3019 2420 3045 
Q 2306 3072 2169 3072 
Q 1681 3072 1420 2755 
Q 1159 2438 1159 1844 
L 1159 0 
L 581 0 
L 581 3500 
L 1159 3500 
L 1159 2956 
Q 1341 3275 1631 3429 
Q 1922 3584 2338 3584 
Q 2397 3584 2469 3576 
Q 2541 3569 2628 3553 
L 2631 2963 
z
" id="DejaVuSans-72" transform="scale(0.015625)"/>
        <path d="M 2194 1759 
Q 1497 1759 1228 1600 
Q 959 1441 959 1056 
Q 959 750 1161 570 
Q 1363 391 1709 391 
Q 2188 391 2477 730 
Q 2766 1069 2766 1631 
L 2766 1759 
L 2194 1759 
z
M 3341 1997 
L 3341 0 
L 2766 0 
L 2766 531 
Q 2569 213 2275 61 
Q 1981 -91 1556 -91 
Q 1019 -91 701 211 
Q 384 513 384 1019 
Q 384 1609 779 1909 
Q 1175 2209 1959 2209 
L 2766 2209 
L 2766 2266 
Q 2766 2663 2505 2880 
Q 2244 3097 1772 3097 
Q 1472 3097 1187 3025 
Q 903 2953 641 2809 
L 641 3341 
Q 956 3463 1253 3523 
Q 1550 3584 1831 3584 
Q 2591 3584 2966 3190 
Q 3341 2797 3341 1997 
z
" id="DejaVuSans-61" transform="scale(0.015625)"/>
        <path d="M 2419 4116 
L 825 1625 
L 2419 1625 
L 2419 4116 
z
M 2253 4666 
L 3047 4666 
L 3047 1625 
L 3713 1625 
L 3713 1100 
L 3047 1100 
L 3047 0 
L 2419 0 
L 2419 1100 
L 313 1100 
L 313 1709 
L 2253 4666 
z
" id="DejaVuSans-34" transform="scale(0.015625)"/>
        <path d="M 2944 4013 
L 2944 2272 
L 4684 2272 
L 4684 1741 
L 2944 1741 
L 2944 0 
L 2419 0 
L 2419 1741 
L 678 1741 
L 678 2272 
L 2419 2272 
L 2419 4013 
L 2944 4013 
z
" id="DejaVuSans-2b" transform="scale(0.015625)"/>
        <path d="M 3263 -1063 
L 3263 -1509 
L -63 -1509 
L -63 -1063 
L 3263 -1063 
z
" id="DejaVuSans-5f" transform="scale(0.015625)"/>
        <path d="M 794 531 
L 1825 531 
L 1825 4091 
L 703 3866 
L 703 4441 
L 1819 4666 
L 2450 4666 
L 2450 531 
L 3481 531 
L 3481 0 
L 794 0 
L 794 531 
z
" id="DejaVuSans-31" transform="scale(0.015625)"/>
        <path d="M 2034 4250 
Q 1547 4250 1301 3770 
Q 1056 3291 1056 2328 
Q 1056 1369 1301 889 
Q 1547 409 2034 409 
Q 2525 409 2770 889 
Q 3016 1369 3016 2328 
Q 3016 3291 2770 3770 
Q 2525 4250 2034 4250 
z
M 2034 4750 
Q 2819 4750 3233 4129 
Q 3647 3509 3647 2328 
Q 3647 1150 3233 529 
Q 2819 -91 2034 -91 
Q 1250 -91 836 529 
Q 422 1150 422 2328 
Q 422 3509 836 4129 
Q 1250 4750 2034 4750 
z
" id="DejaVuSans-30" transform="scale(0.015625)"/>
        <path d="M 628 4666 
L 1259 4666 
L 1259 2753 
L 3553 2753 
L 3553 4666 
L 4184 4666 
L 4184 0 
L 3553 0 
L 3553 2222 
L 1259 2222 
L 1259 0 
L 628 0 
L 628 4666 
z
" id="DejaVuSans-48" transform="scale(0.015625)"/>
        <path d="M 556 4666 
L 1191 4666 
L 1191 1831 
Q 1191 1081 1462 751 
Q 1734 422 2344 422 
Q 2950 422 3222 751 
Q 3494 1081 3494 1831 
L 3494 4666 
L 4128 4666 
L 4128 1753 
Q 4128 841 3676 375 
Q 3225 -91 2344 -91 
Q 1459 -91 1007 375 
Q 556 841 556 1753 
L 556 4666 
z
" id="DejaVuSans-55" transform="scale(0.015625)"/>
       </defs>
       <use xlink:href="#DejaVuSans-66"/>
       <use x="35.205078" xlink:href="#DejaVuSans-6b"/>
       <use x="93.115234" xlink:href="#DejaVuSans-68"/>
       <use x="156.494141" xlink:href="#DejaVuSans-32"/>
       <use x="220.117188" xlink:href="#DejaVuSans-3a"/>
       <use x="253.808594" xlink:href="#DejaVuSans-3a"/>
       <use x="287.5" xlink:href="#DejaVuSans-75"/>
       <use x="350.878906" xlink:href="#DejaVuSans-72"/>
       <use x="391.992188" xlink:href="#DejaVuSans-61"/>
       <use x="453.271484" xlink:href="#DejaVuSans-34"/>
       <use x="516.894531" xlink:href="#DejaVuSans-2b"/>
       <use x="600.683594" xlink:href="#DejaVuSans-5f"/>
       <use x="650.683594" xlink:href="#DejaVuSans-31"/>
       <use x="714.306641" xlink:href="#DejaVuSans-30"/>
       <use x="777.929688" xlink:href="#DejaVuSans-68"/>
       <use x="841.308594" xlink:href="#DejaVuSans-72"/>
       <use x="882.421875" xlink:href="#DejaVuSans-5f"/>
       <use x="932.421875" xlink:href="#DejaVuSans-48"/>
       <use x="1007.617188" xlink:href="#DejaVuSans-55"/>
      </g>
      <!-- (Garg et al. 2015) -->
      <g transform="translate(56.564534 393.215378)rotate(-30)scale(0.1 -0.1)">
       <defs>
        <path d="M 1984 4856 
Q 1566 4138 1362 3434 
Q 1159 2731 1159 2009 
Q 1159 1288 1364 580 
Q 1569 -128 1984 -844 
L 1484 -844 
Q 1016 -109 783 600 
Q 550 1309 550 2009 
Q 550 2706 781 3412 
Q 1013 4119 1484 4856 
L 1984 4856 
z
" id="DejaVuSans-28" transform="scale(0.015625)"/>
        <path d="M 3809 666 
L 3809 1919 
L 2778 1919 
L 2778 2438 
L 4434 2438 
L 4434 434 
Q 4069 175 3628 42 
Q 3188 -91 2688 -91 
Q 1594 -91 976 548 
Q 359 1188 359 2328 
Q 359 3472 976 4111 
Q 1594 4750 2688 4750 
Q 3144 4750 3555 4637 
Q 3966 4525 4313 4306 
L 4313 3634 
Q 3963 3931 3569 4081 
Q 3175 4231 2741 4231 
Q 1884 4231 1454 3753 
Q 1025 3275 1025 2328 
Q 1025 1384 1454 906 
Q 1884 428 2741 428 
Q 3075 428 3337 486 
Q 3600 544 3809 666 
z
" id="DejaVuSans-47" transform="scale(0.015625)"/>
        <path d="M 2906 1791 
Q 2906 2416 2648 2759 
Q 2391 3103 1925 3103 
Q 1463 3103 1205 2759 
Q 947 2416 947 1791 
Q 947 1169 1205 825 
Q 1463 481 1925 481 
Q 2391 481 2648 825 
Q 2906 1169 2906 1791 
z
M 3481 434 
Q 3481 -459 3084 -895 
Q 2688 -1331 1869 -1331 
Q 1566 -1331 1297 -1286 
Q 1028 -1241 775 -1147 
L 775 -588 
Q 1028 -725 1275 -790 
Q 1522 -856 1778 -856 
Q 2344 -856 2625 -561 
Q 2906 -266 2906 331 
L 2906 616 
Q 2728 306 2450 153 
Q 2172 0 1784 0 
Q 1141 0 747 490 
Q 353 981 353 1791 
Q 353 2603 747 3093 
Q 1141 3584 1784 3584 
Q 2172 3584 2450 3431 
Q 2728 3278 2906 2969 
L 2906 3500 
L 3481 3500 
L 3481 434 
z
" id="DejaVuSans-67" transform="scale(0.015625)"/>
        <path id="DejaVuSans-20" transform="scale(0.015625)"/>
        <path d="M 3597 1894 
L 3597 1613 
L 953 1613 
Q 991 1019 1311 708 
Q 1631 397 2203 397 
Q 2534 397 2845 478 
Q 3156 559 3463 722 
L 3463 178 
Q 3153 47 2828 -22 
Q 2503 -91 2169 -91 
Q 1331 -91 842 396 
Q 353 884 353 1716 
Q 353 2575 817 3079 
Q 1281 3584 2069 3584 
Q 2775 3584 3186 3129 
Q 3597 2675 3597 1894 
z
M 3022 2063 
Q 3016 2534 2758 2815 
Q 2500 3097 2075 3097 
Q 1594 3097 1305 2825 
Q 1016 2553 972 2059 
L 3022 2063 
z
" id="DejaVuSans-65" transform="scale(0.015625)"/>
        <path d="M 1172 4494 
L 1172 3500 
L 2356 3500 
L 2356 3053 
L 1172 3053 
L 1172 1153 
Q 1172 725 1289 603 
Q 1406 481 1766 481 
L 2356 481 
L 2356 0 
L 1766 0 
Q 1100 0 847 248 
Q 594 497 594 1153 
L 594 3053 
L 172 3053 
L 172 3500 
L 594 3500 
L 594 4494 
L 1172 4494 
z
" id="DejaVuSans-74" transform="scale(0.015625)"/>
        <path d="M 603 4863 
L 1178 4863 
L 1178 0 
L 603 0 
L 603 4863 
z
" id="DejaVuSans-6c" transform="scale(0.015625)"/>
        <path d="M 684 794 
L 1344 794 
L 1344 0 
L 684 0 
L 684 794 
z
" id="DejaVuSans-2e" transform="scale(0.015625)"/>
        <path d="M 691 4666 
L 3169 4666 
L 3169 4134 
L 1269 4134 
L 1269 2991 
Q 1406 3038 1543 3061 
Q 1681 3084 1819 3084 
Q 2600 3084 3056 2656 
Q 3513 2228 3513 1497 
Q 3513 744 3044 326 
Q 2575 -91 1722 -91 
Q 1428 -91 1123 -41 
Q 819 9 494 109 
L 494 744 
Q 775 591 1075 516 
Q 1375 441 1709 441 
Q 2250 441 2565 725 
Q 2881 1009 2881 1497 
Q 2881 1984 2565 2268 
Q 2250 2553 1709 2553 
Q 1456 2553 1204 2497 
Q 953 2441 691 2322 
L 691 4666 
z
" id="DejaVuSans-35" transform="scale(0.015625)"/>
        <path d="M 513 4856 
L 1013 4856 
Q 1481 4119 1714 3412 
Q 1947 2706 1947 2009 
Q 1947 1309 1714 600 
Q 1481 -109 1013 -844 
L 513 -844 
Q 928 -128 1133 580 
Q 1338 1288 1338 2009 
Q 1338 2731 1133 3434 
Q 928 4138 513 4856 
z
" id="DejaVuSans-29" transform="scale(0.015625)"/>
       </defs>
       <use xlink:href="#DejaVuSans-28"/>
       <use x="39.013672" xlink:href="#DejaVuSans-47"/>
       <use x="116.503906" xlink:href="#DejaVuSans-61"/>
       <use x="177.783203" xlink:href="#DejaVuSans-72"/>
       <use x="217.146484" xlink:href="#DejaVuSans-67"/>
       <use x="280.623047" xlink:href="#DejaVuSans-20"/>
       <use x="312.410156" xlink:href="#DejaVuSans-65"/>
       <use x="373.933594" xlink:href="#DejaVuSans-74"/>
       <use x="413.142578" xlink:href="#DejaVuSans-20"/>
       <use x="444.929688" xlink:href="#DejaVuSans-61"/>
       <use x="506.208984" xlink:href="#DejaVuSans-6c"/>
       <use x="533.992188" xlink:href="#DejaVuSans-2e"/>
       <use x="565.779297" xlink:href="#DejaVuSans-20"/>
       <use x="597.566406" xlink:href="#DejaVuSans-32"/>
       <use x="661.189453" xlink:href="#DejaVuSans-30"/>
       <use x="724.8125" xlink:href="#DejaVuSans-31"/>
       <use x="788.435547" xlink:href="#DejaVuSans-35"/>
       <use x="852.058594" xlink:href="#DejaVuSans-29"/>
      </g>
     </g>
    </g>
    <g id="xtick_2">
     <g id="line2d_2">
      <g>
       <use style="stroke:#000000;stroke-width:0.8;" x="146.7" xlink:href="#mda678f4650" y="320.4"/>
      </g>
     </g>
     <g id="text_2">
      <!-- fkh2::ura4+_6hr -->
      <g transform="translate(109.756435 376.726534)rotate(-30)scale(0.1 -0.1)">
       <defs>
        <path d="M 2113 2584 
Q 1688 2584 1439 2293 
Q 1191 2003 1191 1497 
Q 1191 994 1439 701 
Q 1688 409 2113 409 
Q 2538 409 2786 701 
Q 3034 994 3034 1497 
Q 3034 2003 2786 2293 
Q 2538 2584 2113 2584 
z
M 3366 4563 
L 3366 3988 
Q 3128 4100 2886 4159 
Q 2644 4219 2406 4219 
Q 1781 4219 1451 3797 
Q 1122 3375 1075 2522 
Q 1259 2794 1537 2939 
Q 1816 3084 2150 3084 
Q 2853 3084 3261 2657 
Q 3669 2231 3669 1497 
Q 3669 778 3244 343 
Q 2819 -91 2113 -91 
Q 1303 -91 875 529 
Q 447 1150 447 2328 
Q 447 3434 972 4092 
Q 1497 4750 2381 4750 
Q 2619 4750 2861 4703 
Q 3103 4656 3366 4563 
z
" id="DejaVuSans-36" transform="scale(0.015625)"/>
       </defs>
       <use xlink:href="#DejaVuSans-66"/>
       <use x="35.205078" xlink:href="#DejaVuSans-6b"/>
       <use x="93.115234" xlink:href="#DejaVuSans-68"/>
       <use x="156.494141" xlink:href="#DejaVuSans-32"/>
       <use x="220.117188" xlink:href="#DejaVuSans-3a"/>
       <use x="253.808594" xlink:href="#DejaVuSans-3a"/>
       <use x="287.5" xlink:href="#DejaVuSans-75"/>
       <use x="350.878906" xlink:href="#DejaVuSans-72"/>
       <use x="391.992188" xlink:href="#DejaVuSans-61"/>
       <use x="453.271484" xlink:href="#DejaVuSans-34"/>
       <use x="516.894531" xlink:href="#DejaVuSans-2b"/>
       <use x="600.683594" xlink:href="#DejaVuSans-5f"/>
       <use x="650.683594" xlink:href="#DejaVuSans-36"/>
       <use x="714.306641" xlink:href="#DejaVuSans-68"/>
       <use x="777.685547" xlink:href="#DejaVuSans-72"/>
      </g>
      <!-- (Garg et al. 2015) -->
      <g transform="translate(112.364534 388.472018)rotate(-30)scale(0.1 -0.1)">
       <use xlink:href="#DejaVuSans-28"/>
       <use x="39.013672" xlink:href="#DejaVuSans-47"/>
       <use x="116.503906" xlink:href="#DejaVuSans-61"/>
       <use x="177.783203" xlink:href="#DejaVuSans-72"/>
       <use x="217.146484" xlink:href="#DejaVuSans-67"/>
       <use x="280.623047" xlink:href="#DejaVuSans-20"/>
       <use x="312.410156" xlink:href="#DejaVuSans-65"/>
       <use x="373.933594" xlink:href="#DejaVuSans-74"/>
       <use x="413.142578" xlink:href="#DejaVuSans-20"/>
       <use x="444.929688" xlink:href="#DejaVuSans-61"/>
       <use x="506.208984" xlink:href="#DejaVuSans-6c"/>
       <use x="533.992188" xlink:href="#DejaVuSans-2e"/>
       <use x="565.779297" xlink:href="#DejaVuSans-20"/>
       <use x="597.566406" xlink:href="#DejaVuSans-32"/>
       <use x="661.189453" xlink:href="#DejaVuSans-30"/>
       <use x="724.8125" xlink:href="#DejaVuSans-31"/>
       <use x="788.435547" xlink:href="#DejaVuSans-35"/>
       <use x="852.058594" xlink:href="#DejaVuSans-29"/>
      </g>
     </g>
    </g>
    <g id="xtick_3">
     <g id="line2d_3">
      <g>
       <use style="stroke:#000000;stroke-width:0.8;" x="202.5" xlink:href="#mda678f4650" y="320.4"/>
      </g>
     </g>
     <g id="text_3">
      <!-- fkh2::ura4+_8hr -->
      <g transform="translate(165.556435 376.726534)rotate(-30)scale(0.1 -0.1)">
       <defs>
        <path d="M 2034 2216 
Q 1584 2216 1326 1975 
Q 1069 1734 1069 1313 
Q 1069 891 1326 650 
Q 1584 409 2034 409 
Q 2484 409 2743 651 
Q 3003 894 3003 1313 
Q 3003 1734 2745 1975 
Q 2488 2216 2034 2216 
z
M 1403 2484 
Q 997 2584 770 2862 
Q 544 3141 544 3541 
Q 544 4100 942 4425 
Q 1341 4750 2034 4750 
Q 2731 4750 3128 4425 
Q 3525 4100 3525 3541 
Q 3525 3141 3298 2862 
Q 3072 2584 2669 2484 
Q 3125 2378 3379 2068 
Q 3634 1759 3634 1313 
Q 3634 634 3220 271 
Q 2806 -91 2034 -91 
Q 1263 -91 848 271 
Q 434 634 434 1313 
Q 434 1759 690 2068 
Q 947 2378 1403 2484 
z
M 1172 3481 
Q 1172 3119 1398 2916 
Q 1625 2713 2034 2713 
Q 2441 2713 2670 2916 
Q 2900 3119 2900 3481 
Q 2900 3844 2670 4047 
Q 2441 4250 2034 4250 
Q 1625 4250 1398 4047 
Q 1172 3844 1172 3481 
z
" id="DejaVuSans-38" transform="scale(0.015625)"/>
       </defs>
       <use xlink:href="#DejaVuSans-66"/>
       <use x="35.205078" xlink:href="#DejaVuSans-6b"/>
       <use x="93.115234" xlink:href="#DejaVuSans-68"/>
       <use x="156.494141" xlink:href="#DejaVuSans-32"/>
       <use x="220.117188" xlink:href="#DejaVuSans-3a"/>
       <use x="253.808594" xlink:href="#DejaVuSans-3a"/>
       <use x="287.5" xlink:href="#DejaVuSans-75"/>
       <use x="350.878906" xlink:href="#DejaVuSans-72"/>
       <use x="391.992188" xlink:href="#DejaVuSans-61"/>
       <use x="453.271484" xlink:href="#DejaVuSans-34"/>
       <use x="516.894531" xlink:href="#DejaVuSans-2b"/>
       <use x="600.683594" xlink:href="#DejaVuSans-5f"/>
       <use x="650.683594" xlink:href="#DejaVuSans-38"/>
       <use x="714.306641" xlink:href="#DejaVuSans-68"/>
       <use x="777.685547" xlink:href="#DejaVuSans-72"/>
      </g>
      <!-- (Garg et al. 2015) -->
      <g transform="translate(168.164534 388.472018)rotate(-30)scale(0.1 -0.1)">
       <use xlink:href="#DejaVuSans-28"/>
       <use x="39.013672" xlink:href="#DejaVuSans-47"/>
       <use x="116.503906" xlink:href="#DejaVuSans-61"/>
       <use x="177.783203" xlink:href="#DejaVuSans-72"/>
       <use x="217.146484" xlink:href="#DejaVuSans-67"/>
       <use x="280.623047" xlink:href="#DejaVuSans-20"/>
       <use x="312.410156" xlink:href="#DejaVuSans-65"/>
       <use x="373.933594" xlink:href="#DejaVuSans-74"/>
       <use x="413.142578" xlink:href="#DejaVuSans-20"/>
       <use x="444.929688" xlink:href="#DejaVuSans-61"/>
       <use x="506.208984" xlink:href="#DejaVuSans-6c"/>
       <use x="533.992188" xlink:href="#DejaVuSans-2e"/>
       <use x="565.779297" xlink:href="#DejaVuSans-20"/>
       <use x="597.566406" xlink:href="#DejaVuSans-32"/>
       <use x="661.189453" xlink:href="#DejaVuSans-30"/>
       <use x="724.8125" xlink:href="#DejaVuSans-31"/>
       <use x="788.435547" xlink:href="#DejaVuSans-35"/>
       <use x="852.058594" xlink:href="#DejaVuSans-29"/>
      </g>
     </g>
    </g>
    <g id="xtick_4">
     <g id="line2d_4">
      <g>
       <use style="stroke:#000000;stroke-width:0.8;" x="258.3" xlink:href="#mda678f4650" y="320.4"/>
      </g>
     </g>
     <g id="text_4">
      <!-- fkh2::ura4+_10hr -->
      <g transform="translate(218.601392 378.317159)rotate(-30)scale(0.1 -0.1)">
       <use xlink:href="#DejaVuSans-66"/>
       <use x="35.205078" xlink:href="#DejaVuSans-6b"/>
       <use x="93.115234" xlink:href="#DejaVuSans-68"/>
       <use x="156.494141" xlink:href="#DejaVuSans-32"/>
       <use x="220.117188" xlink:href="#DejaVuSans-3a"/>
       <use x="253.808594" xlink:href="#DejaVuSans-3a"/>
       <use x="287.5" xlink:href="#DejaVuSans-75"/>
       <use x="350.878906" xlink:href="#DejaVuSans-72"/>
       <use x="391.992188" xlink:href="#DejaVuSans-61"/>
       <use x="453.271484" xlink:href="#DejaVuSans-34"/>
       <use x="516.894531" xlink:href="#DejaVuSans-2b"/>
       <use x="600.683594" xlink:href="#DejaVuSans-5f"/>
       <use x="650.683594" xlink:href="#DejaVuSans-31"/>
       <use x="714.306641" xlink:href="#DejaVuSans-30"/>
       <use x="777.929688" xlink:href="#DejaVuSans-68"/>
       <use x="841.308594" xlink:href="#DejaVuSans-72"/>
      </g>
      <!-- (Garg et al. 2015) -->
      <g transform="translate(223.964534 388.472018)rotate(-30)scale(0.1 -0.1)">
       <use xlink:href="#DejaVuSans-28"/>
       <use x="39.013672" xlink:href="#DejaVuSans-47"/>
       <use x="116.503906" xlink:href="#DejaVuSans-61"/>
       <use x="177.783203" xlink:href="#DejaVuSans-72"/>
       <use x="217.146484" xlink:href="#DejaVuSans-67"/>
       <use x="280.623047" xlink:href="#DejaVuSans-20"/>
       <use x="312.410156" xlink:href="#DejaVuSans-65"/>
       <use x="373.933594" xlink:href="#DejaVuSans-74"/>
       <use x="413.142578" xlink:href="#DejaVuSans-20"/>
       <use x="444.929688" xlink:href="#DejaVuSans-61"/>
       <use x="506.208984" xlink:href="#DejaVuSans-6c"/>
       <use x="533.992188" xlink:href="#DejaVuSans-2e"/>
       <use x="565.779297" xlink:href="#DejaVuSans-20"/>
       <use x="597.566406" xlink:href="#DejaVuSans-32"/>
       <use x="661.189453" xlink:href="#DejaVuSans-30"/>
       <use x="724.8125" xlink:href="#DejaVuSans-31"/>
       <use x="788.435547" xlink:href="#DejaVuSans-35"/>
       <use x="852.058594" xlink:href="#DejaVuSans-29"/>
      </g>
     </g>
    </g>
    <g id="xtick_5">
     <g id="line2d_5">
      <g>
       <use style="stroke:#000000;stroke-width:0.8;" x="314.1" xlink:href="#mda678f4650" y="320.4"/>
      </g>
     </g>
     <g id="text_5">
      <!-- fkh2::ura4+_12hr -->
      <g transform="translate(274.401392 378.317159)rotate(-30)scale(0.1 -0.1)">
       <use xlink:href="#DejaVuSans-66"/>
       <use x="35.205078" xlink:href="#DejaVuSans-6b"/>
       <use x="93.115234" xlink:href="#DejaVuSans-68"/>
       <use x="156.494141" xlink:href="#DejaVuSans-32"/>
       <use x="220.117188" xlink:href="#DejaVuSans-3a"/>
       <use x="253.808594" xlink:href="#DejaVuSans-3a"/>
       <use x="287.5" xlink:href="#DejaVuSans-75"/>
       <use x="350.878906" xlink:href="#DejaVuSans-72"/>
       <use x="391.992188" xlink:href="#DejaVuSans-61"/>
       <use x="453.271484" xlink:href="#DejaVuSans-34"/>
       <use x="516.894531" xlink:href="#DejaVuSans-2b"/>
       <use x="600.683594" xlink:href="#DejaVuSans-5f"/>
       <use x="650.683594" xlink:href="#DejaVuSans-31"/>
       <use x="714.306641" xlink:href="#DejaVuSans-32"/>
       <use x="777.929688" xlink:href="#DejaVuSans-68"/>
       <use x="841.308594" xlink:href="#DejaVuSans-72"/>
      </g>
      <!-- (Garg et al. 2015) -->
      <g transform="translate(279.764534 388.472018)rotate(-30)scale(0.1 -0.1)">
       <use xlink:href="#DejaVuSans-28"/>
       <use x="39.013672" xlink:href="#DejaVuSans-47"/>
       <use x="116.503906" xlink:href="#DejaVuSans-61"/>
       <use x="177.783203" xlink:href="#DejaVuSans-72"/>
       <use x="217.146484" xlink:href="#DejaVuSans-67"/>
       <use x="280.623047" xlink:href="#DejaVuSans-20"/>
       <use x="312.410156" xlink:href="#DejaVuSans-65"/>
       <use x="373.933594" xlink:href="#DejaVuSans-74"/>
       <use x="413.142578" xlink:href="#DejaVuSans-20"/>
       <use x="444.929688" xlink:href="#DejaVuSans-61"/>
       <use x="506.208984" xlink:href="#DejaVuSans-6c"/>
       <use x="533.992188" xlink:href="#DejaVuSans-2e"/>
       <use x="565.779297" xlink:href="#DejaVuSans-20"/>
       <use x="597.566406" xlink:href="#DejaVuSans-32"/>
       <use x="661.189453" xlink:href="#DejaVuSans-30"/>
       <use x="724.8125" xlink:href="#DejaVuSans-31"/>
       <use x="788.435547" xlink:href="#DejaVuSans-35"/>
       <use x="852.058594" xlink:href="#DejaVuSans-29"/>
      </g>
     </g>
    </g>
    <g id="xtick_6">
     <g id="line2d_6">
      <g>
       <use style="stroke:#000000;stroke-width:0.8;" x="369.9" xlink:href="#mda678f4650" y="320.4"/>
      </g>
     </g>
     <g id="text_6">
      <!-- fkh2d -->
      <g transform="translate(356.200265 366.888252)rotate(-30)scale(0.1 -0.1)">
       <defs>
        <path d="M 2906 2969 
L 2906 4863 
L 3481 4863 
L 3481 0 
L 2906 0 
L 2906 525 
Q 2725 213 2448 61 
Q 2172 -91 1784 -91 
Q 1150 -91 751 415 
Q 353 922 353 1747 
Q 353 2572 751 3078 
Q 1150 3584 1784 3584 
Q 2172 3584 2448 3432 
Q 2725 3281 2906 2969 
z
M 947 1747 
Q 947 1113 1208 752 
Q 1469 391 1925 391 
Q 2381 391 2643 752 
Q 2906 1113 2906 1747 
Q 2906 2381 2643 2742 
Q 2381 3103 1925 3103 
Q 1469 3103 1208 2742 
Q 947 2381 947 1747 
z
" id="DejaVuSans-64" transform="scale(0.015625)"/>
       </defs>
       <use xlink:href="#DejaVuSans-66"/>
       <use x="35.205078" xlink:href="#DejaVuSans-6b"/>
       <use x="93.115234" xlink:href="#DejaVuSans-68"/>
       <use x="156.494141" xlink:href="#DejaVuSans-32"/>
       <use x="220.117188" xlink:href="#DejaVuSans-64"/>
      </g>
      <!-- (Szilagyi et al. 2012) -->
      <g transform="translate(329.361107 395.313967)rotate(-30)scale(0.1 -0.1)">
       <defs>
        <path d="M 3425 4513 
L 3425 3897 
Q 3066 4069 2747 4153 
Q 2428 4238 2131 4238 
Q 1616 4238 1336 4038 
Q 1056 3838 1056 3469 
Q 1056 3159 1242 3001 
Q 1428 2844 1947 2747 
L 2328 2669 
Q 3034 2534 3370 2195 
Q 3706 1856 3706 1288 
Q 3706 609 3251 259 
Q 2797 -91 1919 -91 
Q 1588 -91 1214 -16 
Q 841 59 441 206 
L 441 856 
Q 825 641 1194 531 
Q 1563 422 1919 422 
Q 2459 422 2753 634 
Q 3047 847 3047 1241 
Q 3047 1584 2836 1778 
Q 2625 1972 2144 2069 
L 1759 2144 
Q 1053 2284 737 2584 
Q 422 2884 422 3419 
Q 422 4038 858 4394 
Q 1294 4750 2059 4750 
Q 2388 4750 2728 4690 
Q 3069 4631 3425 4513 
z
" id="DejaVuSans-53" transform="scale(0.015625)"/>
        <path d="M 353 3500 
L 3084 3500 
L 3084 2975 
L 922 459 
L 3084 459 
L 3084 0 
L 275 0 
L 275 525 
L 2438 3041 
L 353 3041 
L 353 3500 
z
" id="DejaVuSans-7a" transform="scale(0.015625)"/>
        <path d="M 603 3500 
L 1178 3500 
L 1178 0 
L 603 0 
L 603 3500 
z
M 603 4863 
L 1178 4863 
L 1178 4134 
L 603 4134 
L 603 4863 
z
" id="DejaVuSans-69" transform="scale(0.015625)"/>
        <path d="M 2059 -325 
Q 1816 -950 1584 -1140 
Q 1353 -1331 966 -1331 
L 506 -1331 
L 506 -850 
L 844 -850 
Q 1081 -850 1212 -737 
Q 1344 -625 1503 -206 
L 1606 56 
L 191 3500 
L 800 3500 
L 1894 763 
L 2988 3500 
L 3597 3500 
L 2059 -325 
z
" id="DejaVuSans-79" transform="scale(0.015625)"/>
       </defs>
       <use xlink:href="#DejaVuSans-28"/>
       <use x="39.013672" xlink:href="#DejaVuSans-53"/>
       <use x="102.490234" xlink:href="#DejaVuSans-7a"/>
       <use x="154.980469" xlink:href="#DejaVuSans-69"/>
       <use x="182.763672" xlink:href="#DejaVuSans-6c"/>
       <use x="210.546875" xlink:href="#DejaVuSans-61"/>
       <use x="271.826172" xlink:href="#DejaVuSans-67"/>
       <use x="335.302734" xlink:href="#DejaVuSans-79"/>
       <use x="394.482422" xlink:href="#DejaVuSans-69"/>
       <use x="422.265625" xlink:href="#DejaVuSans-20"/>
       <use x="454.052734" xlink:href="#DejaVuSans-65"/>
       <use x="515.576172" xlink:href="#DejaVuSans-74"/>
       <use x="554.785156" xlink:href="#DejaVuSans-20"/>
       <use x="586.572266" xlink:href="#DejaVuSans-61"/>
       <use x="647.851562" xlink:href="#DejaVuSans-6c"/>
       <use x="675.634766" xlink:href="#DejaVuSans-2e"/>
       <use x="707.421875" xlink:href="#DejaVuSans-20"/>
       <use x="739.208984" xlink:href="#DejaVuSans-32"/>
       <use x="802.832031" xlink:href="#DejaVuSans-30"/>
       <use x="866.455078" xlink:href="#DejaVuSans-31"/>
       <use x="930.078125" xlink:href="#DejaVuSans-32"/>
       <use x="993.701172" xlink:href="#DejaVuSans-29"/>
      </g>
     </g>
    </g>
    <g id="xtick_7">
     <g id="line2d_7">
      <g>
       <use style="stroke:#000000;stroke-width:0.8;" x="425.7" xlink:href="#mda678f4650" y="320.4"/>
      </g>
     </g>
     <g id="text_7">
      <!-- fkh2s2a -->
      <g transform="translate(407.084894 369.726143)rotate(-30)scale(0.1 -0.1)">
       <defs>
        <path d="M 2834 3397 
L 2834 2853 
Q 2591 2978 2328 3040 
Q 2066 3103 1784 3103 
Q 1356 3103 1142 2972 
Q 928 2841 928 2578 
Q 928 2378 1081 2264 
Q 1234 2150 1697 2047 
L 1894 2003 
Q 2506 1872 2764 1633 
Q 3022 1394 3022 966 
Q 3022 478 2636 193 
Q 2250 -91 1575 -91 
Q 1294 -91 989 -36 
Q 684 19 347 128 
L 347 722 
Q 666 556 975 473 
Q 1284 391 1588 391 
Q 1994 391 2212 530 
Q 2431 669 2431 922 
Q 2431 1156 2273 1281 
Q 2116 1406 1581 1522 
L 1381 1569 
Q 847 1681 609 1914 
Q 372 2147 372 2553 
Q 372 3047 722 3315 
Q 1072 3584 1716 3584 
Q 2034 3584 2315 3537 
Q 2597 3491 2834 3397 
z
" id="DejaVuSans-73" transform="scale(0.015625)"/>
       </defs>
       <use xlink:href="#DejaVuSans-66"/>
       <use x="35.205078" xlink:href="#DejaVuSans-6b"/>
       <use x="93.115234" xlink:href="#DejaVuSans-68"/>
       <use x="156.494141" xlink:href="#DejaVuSans-32"/>
       <use x="220.117188" xlink:href="#DejaVuSans-73"/>
       <use x="272.216797" xlink:href="#DejaVuSans-32"/>
       <use x="335.839844" xlink:href="#DejaVuSans-61"/>
      </g>
      <!-- (Szilagyi et al. 2012) -->
      <g transform="translate(385.161107 395.313967)rotate(-30)scale(0.1 -0.1)">
       <use xlink:href="#DejaVuSans-28"/>
       <use x="39.013672" xlink:href="#DejaVuSans-53"/>
       <use x="102.490234" xlink:href="#DejaVuSans-7a"/>
       <use x="154.980469" xlink:href="#DejaVuSans-69"/>
       <use x="182.763672" xlink:href="#DejaVuSans-6c"/>
       <use x="210.546875" xlink:href="#DejaVuSans-61"/>
       <use x="271.826172" xlink:href="#DejaVuSans-67"/>
       <use x="335.302734" xlink:href="#DejaVuSans-79"/>
       <use x="394.482422" xlink:href="#DejaVuSans-69"/>
       <use x="422.265625" xlink:href="#DejaVuSans-20"/>
       <use x="454.052734" xlink:href="#DejaVuSans-65"/>
       <use x="515.576172" xlink:href="#DejaVuSans-74"/>
       <use x="554.785156" xlink:href="#DejaVuSans-20"/>
       <use x="586.572266" xlink:href="#DejaVuSans-61"/>
       <use x="647.851562" xlink:href="#DejaVuSans-6c"/>
       <use x="675.634766" xlink:href="#DejaVuSans-2e"/>
       <use x="707.421875" xlink:href="#DejaVuSans-20"/>
       <use x="739.208984" xlink:href="#DejaVuSans-32"/>
       <use x="802.832031" xlink:href="#DejaVuSans-30"/>
       <use x="866.455078" xlink:href="#DejaVuSans-31"/>
       <use x="930.078125" xlink:href="#DejaVuSans-32"/>
       <use x="993.701172" xlink:href="#DejaVuSans-29"/>
      </g>
     </g>
    </g>
   </g>
   <g id="matplotlib.axis_2">
    <g id="ytick_1">
     <g id="line2d_8">
      <defs>
       <path d="M 0 0 
L -3.5 0 
" id="m9d024e9771" style="stroke:#000000;stroke-width:0.8;"/>
      </defs>
      <g>
       <use style="stroke:#000000;stroke-width:0.8;" x="63" xlink:href="#m9d024e9771" y="320.4"/>
      </g>
     </g>
     <g id="text_8">
      <!-- −2.0 -->
      <g transform="translate(31.717187 324.199219)scale(0.1 -0.1)">
       <defs>
        <path d="M 678 2272 
L 4684 2272 
L 4684 1741 
L 678 1741 
L 678 2272 
z
" id="DejaVuSans-2212" transform="scale(0.015625)"/>
       </defs>
       <use xlink:href="#DejaVuSans-2212"/>
       <use x="83.789062" xlink:href="#DejaVuSans-32"/>
       <use x="147.412109" xlink:href="#DejaVuSans-2e"/>
       <use x="179.199219" xlink:href="#DejaVuSans-30"/>
      </g>
     </g>
    </g>
    <g id="ytick_2">
     <g id="line2d_9">
      <g>
       <use style="stroke:#000000;stroke-width:0.8;" x="63" xlink:href="#m9d024e9771" y="288.9"/>
      </g>
     </g>
     <g id="text_9">
      <!-- −1.5 -->
      <g transform="translate(31.717187 292.699219)scale(0.1 -0.1)">
       <use xlink:href="#DejaVuSans-2212"/>
       <use x="83.789062" xlink:href="#DejaVuSans-31"/>
       <use x="147.412109" xlink:href="#DejaVuSans-2e"/>
       <use x="179.199219" xlink:href="#DejaVuSans-35"/>
      </g>
     </g>
    </g>
    <g id="ytick_3">
     <g id="line2d_10">
      <g>
       <use style="stroke:#000000;stroke-width:0.8;" x="63" xlink:href="#m9d024e9771" y="257.4"/>
      </g>
     </g>
     <g id="text_10">
      <!-- −1.0 -->
      <g transform="translate(31.717187 261.199219)scale(0.1 -0.1)">
       <use xlink:href="#DejaVuSans-2212"/>
       <use x="83.789062" xlink:href="#DejaVuSans-31"/>
       <use x="147.412109" xlink:href="#DejaVuSans-2e"/>
       <use x="179.199219" xlink:href="#DejaVuSans-30"/>
      </g>
     </g>
    </g>
    <g id="ytick_4">
     <g id="line2d_11">
      <g>
       <use style="stroke:#000000;stroke-width:0.8;" x="63" xlink:href="#m9d024e9771" y="225.9"/>
      </g>
     </g>
     <g id="text_11">
      <!-- −0.5 -->
      <g transform="translate(31.717187 229.699219)scale(0.1 -0.1)">
       <use xlink:href="#DejaVuSans-2212"/>
       <use x="83.789062" xlink:href="#DejaVuSans-30"/>
       <use x="147.412109" xlink:href="#DejaVuSans-2e"/>
       <use x="179.199219" xlink:href="#DejaVuSans-35"/>
      </g>
     </g>
    </g>
    <g id="ytick_5">
     <g id="line2d_12">
      <g>
       <use style="stroke:#000000;stroke-width:0.8;" x="63" xlink:href="#m9d024e9771" y="194.4"/>
      </g>
     </g>
     <g id="text_12">
      <!-- 0.0 -->
      <g transform="translate(40.096875 198.199219)scale(0.1 -0.1)">
       <use xlink:href="#DejaVuSans-30"/>
       <use x="63.623047" xlink:href="#DejaVuSans-2e"/>
       <use x="95.410156" xlink:href="#DejaVuSans-30"/>
      </g>
     </g>
    </g>
    <g id="ytick_6">
     <g id="line2d_13">
      <g>
       <use style="stroke:#000000;stroke-width:0.8;" x="63" xlink:href="#m9d024e9771" y="162.9"/>
      </g>
     </g>
     <g id="text_13">
      <!-- 0.5 -->
      <g transform="translate(40.096875 166.699219)scale(0.1 -0.1)">
       <use xlink:href="#DejaVuSans-30"/>
       <use x="63.623047" xlink:href="#DejaVuSans-2e"/>
       <use x="95.410156" xlink:href="#DejaVuSans-35"/>
      </g>
     </g>
    </g>
    <g id="ytick_7">
     <g id="line2d_14">
      <g>
       <use style="stroke:#000000;stroke-width:0.8;" x="63" xlink:href="#m9d024e9771" y="131.4"/>
      </g>
     </g>
     <g id="text_14">
      <!-- 1.0 -->
      <g transform="translate(40.096875 135.199219)scale(0.1 -0.1)">
       <use xlink:href="#DejaVuSans-31"/>
       <use x="63.623047" xlink:href="#DejaVuSans-2e"/>
       <use x="95.410156" xlink:href="#DejaVuSans-30"/>
      </g>
     </g>
    </g>
    <g id="ytick_8">
     <g id="line2d_15">
      <g>
       <use style="stroke:#000000;stroke-width:0.8;" x="63" xlink:href="#m9d024e9771" y="99.9"/>
      </g>
     </g>
     <g id="text_15">
      <!-- 1.5 -->
      <g transform="translate(40.096875 103.699219)scale(0.1 -0.1)">
       <use xlink:href="#DejaVuSans-31"/>
       <use x="63.623047" xlink:href="#DejaVuSans-2e"/>
       <use x="95.410156" xlink:href="#DejaVuSans-35"/>
      </g>
     </g>
    </g>
    <g id="ytick_9">
     <g id="line2d_16">
      <g>
       <use style="stroke:#000000;stroke-width:0.8;" x="63" xlink:href="#m9d024e9771" y="68.4"/>
      </g>
     </g>
     <g id="text_16">
      <!-- 2.0 -->
      <g transform="translate(40.096875 72.199219)scale(0.1 -0.1)">
       <use xlink:href="#DejaVuSans-32"/>
       <use x="63.623047" xlink:href="#DejaVuSans-2e"/>
       <use x="95.410156" xlink:href="#DejaVuSans-30"/>
      </g>
     </g>
    </g>
    <g id="text_17">
     <!-- $\mathrm{log2FC}$ mbx2 -->
     <g transform="translate(24.357187 234.52)rotate(-90)scale(0.16 -0.16)">
      <defs>
       <path d="M 1959 3097 
Q 1497 3097 1228 2736 
Q 959 2375 959 1747 
Q 959 1119 1226 758 
Q 1494 397 1959 397 
Q 2419 397 2687 759 
Q 2956 1122 2956 1747 
Q 2956 2369 2687 2733 
Q 2419 3097 1959 3097 
z
M 1959 3584 
Q 2709 3584 3137 3096 
Q 3566 2609 3566 1747 
Q 3566 888 3137 398 
Q 2709 -91 1959 -91 
Q 1206 -91 779 398 
Q 353 888 353 1747 
Q 353 2609 779 3096 
Q 1206 3584 1959 3584 
z
" id="DejaVuSans-6f" transform="scale(0.015625)"/>
       <path d="M 628 4666 
L 3309 4666 
L 3309 4134 
L 1259 4134 
L 1259 2759 
L 3109 2759 
L 3109 2228 
L 1259 2228 
L 1259 0 
L 628 0 
L 628 4666 
z
" id="DejaVuSans-46" transform="scale(0.015625)"/>
       <path d="M 4122 4306 
L 4122 3641 
Q 3803 3938 3442 4084 
Q 3081 4231 2675 4231 
Q 1875 4231 1450 3742 
Q 1025 3253 1025 2328 
Q 1025 1406 1450 917 
Q 1875 428 2675 428 
Q 3081 428 3442 575 
Q 3803 722 4122 1019 
L 4122 359 
Q 3791 134 3420 21 
Q 3050 -91 2638 -91 
Q 1578 -91 968 557 
Q 359 1206 359 2328 
Q 359 3453 968 4101 
Q 1578 4750 2638 4750 
Q 3056 4750 3426 4639 
Q 3797 4528 4122 4306 
z
" id="DejaVuSans-43" transform="scale(0.015625)"/>
       <path id="DejaVuSans-Oblique-20" transform="scale(0.015625)"/>
       <path d="M 5747 2113 
L 5338 0 
L 4763 0 
L 5166 2094 
Q 5191 2228 5203 2325 
Q 5216 2422 5216 2491 
Q 5216 2772 5059 2928 
Q 4903 3084 4622 3084 
Q 4203 3084 3875 2770 
Q 3547 2456 3450 1953 
L 3066 0 
L 2491 0 
L 2900 2094 
Q 2925 2209 2937 2307 
Q 2950 2406 2950 2484 
Q 2950 2769 2794 2926 
Q 2638 3084 2363 3084 
Q 1938 3084 1609 2770 
Q 1281 2456 1184 1953 
L 800 0 
L 225 0 
L 909 3500 
L 1484 3500 
L 1375 2956 
Q 1609 3263 1923 3423 
Q 2238 3584 2597 3584 
Q 2978 3584 3223 3384 
Q 3469 3184 3519 2828 
Q 3781 3197 4126 3390 
Q 4472 3584 4856 3584 
Q 5306 3584 5551 3325 
Q 5797 3066 5797 2591 
Q 5797 2488 5784 2364 
Q 5772 2241 5747 2113 
z
" id="DejaVuSans-Oblique-6d" transform="scale(0.015625)"/>
       <path d="M 3169 2138 
Q 3169 2591 2961 2847 
Q 2753 3103 2388 3103 
Q 2122 3103 1889 2973 
Q 1656 2844 1484 2597 
Q 1303 2338 1198 1995 
Q 1094 1653 1094 1313 
Q 1094 881 1298 636 
Q 1503 391 1863 391 
Q 2134 391 2365 517 
Q 2597 644 2772 891 
Q 2950 1147 3059 1487 
Q 3169 1828 3169 2138 
z
M 1381 2969 
Q 1594 3256 1914 3420 
Q 2234 3584 2584 3584 
Q 3122 3584 3439 3221 
Q 3756 2859 3756 2241 
Q 3756 1734 3570 1259 
Q 3384 784 3041 416 
Q 2816 172 2522 40 
Q 2228 -91 1906 -91 
Q 1566 -91 1316 65 
Q 1066 222 909 531 
L 806 0 
L 231 0 
L 1178 4863 
L 1753 4863 
L 1381 2969 
z
" id="DejaVuSans-Oblique-62" transform="scale(0.015625)"/>
       <path d="M 3841 3500 
L 2234 1784 
L 3219 0 
L 2559 0 
L 1819 1388 
L 531 0 
L -166 0 
L 1556 1844 
L 641 3500 
L 1300 3500 
L 1972 2234 
L 3144 3500 
L 3841 3500 
z
" id="DejaVuSans-Oblique-78" transform="scale(0.015625)"/>
       <path d="M 2950 2253 
L 934 525 
L 3163 525 
L 3053 0 
L 25 0 
L 128 531 
L 2234 2338 
Q 2656 2703 2832 2979 
Q 3009 3256 3009 3547 
Q 3009 3850 2796 4040 
Q 2584 4231 2241 4231 
Q 1944 4231 1581 4125 
Q 1219 4019 806 3816 
L 922 4441 
Q 1309 4594 1662 4672 
Q 2016 4750 2316 4750 
Q 2928 4750 3301 4425 
Q 3675 4100 3675 3572 
Q 3675 3216 3497 2892 
Q 3319 2569 2950 2253 
z
" id="DejaVuSans-Oblique-32" transform="scale(0.015625)"/>
      </defs>
      <use transform="translate(0 0.015625)" xlink:href="#DejaVuSans-6c"/>
      <use transform="translate(27.783203 0.015625)" xlink:href="#DejaVuSans-6f"/>
      <use transform="translate(88.964844 0.015625)" xlink:href="#DejaVuSans-67"/>
      <use transform="translate(152.441406 0.015625)" xlink:href="#DejaVuSans-32"/>
      <use transform="translate(216.064453 0.015625)" xlink:href="#DejaVuSans-46"/>
      <use transform="translate(273.583984 0.015625)" xlink:href="#DejaVuSans-43"/>
      <use transform="translate(343.408203 0.015625)" xlink:href="#DejaVuSans-Oblique-20"/>
      <use transform="translate(375.195312 0.015625)" xlink:href="#DejaVuSans-Oblique-6d"/>
      <use transform="translate(472.607422 0.015625)" xlink:href="#DejaVuSans-Oblique-62"/>
      <use transform="translate(536.083984 0.015625)" xlink:href="#DejaVuSans-Oblique-78"/>
      <use transform="translate(595.263672 0.015625)" xlink:href="#DejaVuSans-Oblique-32"/>
     </g>
    </g>
   </g>
   <g id="line2d_17">
    <path clip-path="url(#p7fc757b443)" style="fill:none;stroke:#424242;stroke-linecap:square;stroke-width:2.7;"/>
   </g>
   <g id="line2d_18">
    <path clip-path="url(#p7fc757b443)" style="fill:none;stroke:#424242;stroke-linecap:square;stroke-width:2.7;"/>
   </g>
   <g id="line2d_19">
    <path clip-path="url(#p7fc757b443)" style="fill:none;stroke:#424242;stroke-linecap:square;stroke-width:2.7;"/>
   </g>
   <g id="line2d_20">
    <path clip-path="url(#p7fc757b443)" style="fill:none;stroke:#424242;stroke-linecap:square;stroke-width:2.7;"/>
   </g>
   <g id="line2d_21">
    <path clip-path="url(#p7fc757b443)" style="fill:none;stroke:#424242;stroke-linecap:square;stroke-width:2.7;"/>
   </g>
   <g id="line2d_22">
    <path clip-path="url(#p7fc757b443)" style="fill:none;stroke:#424242;stroke-linecap:square;stroke-width:2.7;"/>
   </g>
   <g id="line2d_23">
    <path clip-path="url(#p7fc757b443)" style="fill:none;stroke:#424242;stroke-linecap:square;stroke-width:2.7;"/>
   </g>
   <g id="line2d_24">
    <path clip-path="url(#p7fc757b443)" d="M 63 68.4 
L 453.6 68.4 
" style="fill:none;stroke:#ff0000;stroke-linecap:square;stroke-width:1.5;"/>
   </g>
   <g id="patch_10">
    <path d="M 63 320.4 
L 63 43.2 
" style="fill:none;stroke:#000000;stroke-linecap:square;stroke-linejoin:miter;stroke-width:0.8;"/>
   </g>
   <g id="patch_11">
    <path d="M 453.6 320.4 
L 453.6 43.2 
" style="fill:none;stroke:#000000;stroke-linecap:square;stroke-linejoin:miter;stroke-width:0.8;"/>
   </g>
   <g id="patch_12">
    <path d="M 63 320.4 
L 453.6 320.4 
" style="fill:none;stroke:#000000;stroke-linecap:square;stroke-linejoin:miter;stroke-width:0.8;"/>
   </g>
   <g id="patch_13">
    <path d="M 63 43.2 
L 453.6 43.2 
" style="fill:none;stroke:#000000;stroke-linecap:square;stroke-linejoin:miter;stroke-width:0.8;"/>
   </g>
   <g id="text_18">
    <!-- ~ srb10Δ or srb11Δ -->
    <g style="fill:#ff0000;" transform="translate(90.9 62.1)scale(0.15 -0.15)">
     <defs>
      <path d="M 4684 2553 
L 4684 1997 
Q 4356 1750 4076 1644 
Q 3797 1538 3494 1538 
Q 3150 1538 2694 1722 
Q 2659 1734 2644 1741 
Q 2622 1750 2575 1766 
Q 2091 1959 1797 1959 
Q 1522 1959 1253 1839 
Q 984 1719 678 1459 
L 678 2016 
Q 1006 2263 1286 2370 
Q 1566 2478 1869 2478 
Q 2213 2478 2672 2291 
Q 2703 2278 2719 2272 
Q 2744 2263 2788 2247 
Q 3272 2053 3566 2053 
Q 3834 2053 4098 2172 
Q 4363 2291 4684 2553 
z
" id="DejaVuSans-7e" transform="scale(0.015625)"/>
      <path d="M 3116 1747 
Q 3116 2381 2855 2742 
Q 2594 3103 2138 3103 
Q 1681 3103 1420 2742 
Q 1159 2381 1159 1747 
Q 1159 1113 1420 752 
Q 1681 391 2138 391 
Q 2594 391 2855 752 
Q 3116 1113 3116 1747 
z
M 1159 2969 
Q 1341 3281 1617 3432 
Q 1894 3584 2278 3584 
Q 2916 3584 3314 3078 
Q 3713 2572 3713 1747 
Q 3713 922 3314 415 
Q 2916 -91 2278 -91 
Q 1894 -91 1617 61 
Q 1341 213 1159 525 
L 1159 0 
L 581 0 
L 581 4863 
L 1159 4863 
L 1159 2969 
z
" id="DejaVuSans-62" transform="scale(0.015625)"/>
      <path d="M 2188 4044 
L 906 525 
L 3472 525 
L 2188 4044 
z
M 50 0 
L 1831 4666 
L 2547 4666 
L 4325 0 
L 50 0 
z
" id="DejaVuSans-394" transform="scale(0.015625)"/>
     </defs>
     <use xlink:href="#DejaVuSans-7e"/>
     <use x="83.789062" xlink:href="#DejaVuSans-20"/>
     <use x="115.576172" xlink:href="#DejaVuSans-73"/>
     <use x="167.675781" xlink:href="#DejaVuSans-72"/>
     <use x="208.789062" xlink:href="#DejaVuSans-62"/>
     <use x="272.265625" xlink:href="#DejaVuSans-31"/>
     <use x="335.888672" xlink:href="#DejaVuSans-30"/>
     <use x="399.511719" xlink:href="#DejaVuSans-394"/>
     <use x="467.919922" xlink:href="#DejaVuSans-20"/>
     <use x="499.707031" xlink:href="#DejaVuSans-6f"/>
     <use x="560.888672" xlink:href="#DejaVuSans-72"/>
     <use x="602.001953" xlink:href="#DejaVuSans-20"/>
     <use x="633.789062" xlink:href="#DejaVuSans-73"/>
     <use x="685.888672" xlink:href="#DejaVuSans-72"/>
     <use x="727.001953" xlink:href="#DejaVuSans-62"/>
     <use x="790.478516" xlink:href="#DejaVuSans-31"/>
     <use x="854.101562" xlink:href="#DejaVuSans-31"/>
     <use x="917.724609" xlink:href="#DejaVuSans-394"/>
    </g>
   </g>
   <g id="text_19">
    <!-- mbx2 $\mathrm{levels\ in\ fkh2Δ strains\ compared\ to\ CKM\ deletions}$ -->
    <g transform="translate(34.14 37.2)scale(0.16 -0.16)">
     <defs>
      <path d="M 191 3500 
L 800 3500 
L 1894 563 
L 2988 3500 
L 3597 3500 
L 2284 0 
L 1503 0 
L 191 3500 
z
" id="DejaVuSans-76" transform="scale(0.015625)"/>
      <path d="M 3513 2113 
L 3513 0 
L 2938 0 
L 2938 2094 
Q 2938 2591 2744 2837 
Q 2550 3084 2163 3084 
Q 1697 3084 1428 2787 
Q 1159 2491 1159 1978 
L 1159 0 
L 581 0 
L 581 3500 
L 1159 3500 
L 1159 2956 
Q 1366 3272 1645 3428 
Q 1925 3584 2291 3584 
Q 2894 3584 3203 3211 
Q 3513 2838 3513 2113 
z
" id="DejaVuSans-6e" transform="scale(0.015625)"/>
      <path d="M 3122 3366 
L 3122 2828 
Q 2878 2963 2633 3030 
Q 2388 3097 2138 3097 
Q 1578 3097 1268 2742 
Q 959 2388 959 1747 
Q 959 1106 1268 751 
Q 1578 397 2138 397 
Q 2388 397 2633 464 
Q 2878 531 3122 666 
L 3122 134 
Q 2881 22 2623 -34 
Q 2366 -91 2075 -91 
Q 1284 -91 818 406 
Q 353 903 353 1747 
Q 353 2603 823 3093 
Q 1294 3584 2113 3584 
Q 2378 3584 2631 3529 
Q 2884 3475 3122 3366 
z
" id="DejaVuSans-63" transform="scale(0.015625)"/>
      <path d="M 3328 2828 
Q 3544 3216 3844 3400 
Q 4144 3584 4550 3584 
Q 5097 3584 5394 3201 
Q 5691 2819 5691 2113 
L 5691 0 
L 5113 0 
L 5113 2094 
Q 5113 2597 4934 2840 
Q 4756 3084 4391 3084 
Q 3944 3084 3684 2787 
Q 3425 2491 3425 1978 
L 3425 0 
L 2847 0 
L 2847 2094 
Q 2847 2600 2669 2842 
Q 2491 3084 2119 3084 
Q 1678 3084 1418 2786 
Q 1159 2488 1159 1978 
L 1159 0 
L 581 0 
L 581 3500 
L 1159 3500 
L 1159 2956 
Q 1356 3278 1631 3431 
Q 1906 3584 2284 3584 
Q 2666 3584 2933 3390 
Q 3200 3197 3328 2828 
z
" id="DejaVuSans-6d" transform="scale(0.015625)"/>
      <path d="M 1159 525 
L 1159 -1331 
L 581 -1331 
L 581 3500 
L 1159 3500 
L 1159 2969 
Q 1341 3281 1617 3432 
Q 1894 3584 2278 3584 
Q 2916 3584 3314 3078 
Q 3713 2572 3713 1747 
Q 3713 922 3314 415 
Q 2916 -91 2278 -91 
Q 1894 -91 1617 61 
Q 1341 213 1159 525 
z
M 3116 1747 
Q 3116 2381 2855 2742 
Q 2594 3103 2138 3103 
Q 1681 3103 1420 2742 
Q 1159 2381 1159 1747 
Q 1159 1113 1420 752 
Q 1681 391 2138 391 
Q 2594 391 2855 752 
Q 3116 1113 3116 1747 
z
" id="DejaVuSans-70" transform="scale(0.015625)"/>
      <path d="M 628 4666 
L 1259 4666 
L 1259 2694 
L 3353 4666 
L 4166 4666 
L 1850 2491 
L 4331 0 
L 3500 0 
L 1259 2247 
L 1259 0 
L 628 0 
L 628 4666 
z
" id="DejaVuSans-4b" transform="scale(0.015625)"/>
      <path d="M 628 4666 
L 1569 4666 
L 2759 1491 
L 3956 4666 
L 4897 4666 
L 4897 0 
L 4281 0 
L 4281 4097 
L 3078 897 
L 2444 897 
L 1241 4097 
L 1241 0 
L 628 0 
L 628 4666 
z
" id="DejaVuSans-4d" transform="scale(0.015625)"/>
     </defs>
     <use transform="translate(0 0.015625)" xlink:href="#DejaVuSans-Oblique-6d"/>
     <use transform="translate(97.412109 0.015625)" xlink:href="#DejaVuSans-Oblique-62"/>
     <use transform="translate(160.888672 0.015625)" xlink:href="#DejaVuSans-Oblique-78"/>
     <use transform="translate(220.068359 0.015625)" xlink:href="#DejaVuSans-Oblique-32"/>
     <use transform="translate(283.691406 0.015625)" xlink:href="#DejaVuSans-Oblique-20"/>
     <use transform="translate(315.478516 0.015625)" xlink:href="#DejaVuSans-6c"/>
     <use transform="translate(343.261719 0.015625)" xlink:href="#DejaVuSans-65"/>
     <use transform="translate(404.785156 0.015625)" xlink:href="#DejaVuSans-76"/>
     <use transform="translate(463.964844 0.015625)" xlink:href="#DejaVuSans-65"/>
     <use transform="translate(525.488281 0.015625)" xlink:href="#DejaVuSans-6c"/>
     <use transform="translate(553.271484 0.015625)" xlink:href="#DejaVuSans-73"/>
     <use transform="translate(637.841472 0.015625)" xlink:href="#DejaVuSans-69"/>
     <use transform="translate(665.624675 0.015625)" xlink:href="#DejaVuSans-6e"/>
     <use transform="translate(761.47396 0.015625)" xlink:href="#DejaVuSans-66"/>
     <use transform="translate(796.679038 0.015625)" xlink:href="#DejaVuSans-6b"/>
     <use transform="translate(854.589194 0.015625)" xlink:href="#DejaVuSans-68"/>
     <use transform="translate(917.968101 0.015625)" xlink:href="#DejaVuSans-32"/>
     <use transform="translate(981.591147 0.015625)" xlink:href="#DejaVuSans-394"/>
     <use transform="translate(1049.999351 0.015625)" xlink:href="#DejaVuSans-73"/>
     <use transform="translate(1102.09896 0.015625)" xlink:href="#DejaVuSans-74"/>
     <use transform="translate(1141.307944 0.015625)" xlink:href="#DejaVuSans-72"/>
     <use transform="translate(1182.421226 0.015625)" xlink:href="#DejaVuSans-61"/>
     <use transform="translate(1243.700522 0.015625)" xlink:href="#DejaVuSans-69"/>
     <use transform="translate(1271.483726 0.015625)" xlink:href="#DejaVuSans-6e"/>
     <use transform="translate(1334.862632 0.015625)" xlink:href="#DejaVuSans-73"/>
     <use transform="translate(1419.43262 0.015625)" xlink:href="#DejaVuSans-63"/>
     <use transform="translate(1474.413088 0.015625)" xlink:href="#DejaVuSans-6f"/>
     <use transform="translate(1535.594729 0.015625)" xlink:href="#DejaVuSans-6d"/>
     <use transform="translate(1633.006838 0.015625)" xlink:href="#DejaVuSans-70"/>
     <use transform="translate(1696.483401 0.015625)" xlink:href="#DejaVuSans-61"/>
     <use transform="translate(1757.762698 0.015625)" xlink:href="#DejaVuSans-72"/>
     <use transform="translate(1798.875979 0.015625)" xlink:href="#DejaVuSans-65"/>
     <use transform="translate(1860.399417 0.015625)" xlink:href="#DejaVuSans-64"/>
     <use transform="translate(1956.346357 0.015625)" xlink:href="#DejaVuSans-74"/>
     <use transform="translate(1995.555342 0.015625)" xlink:href="#DejaVuSans-6f"/>
     <use transform="translate(2089.207361 0.015625)" xlink:href="#DejaVuSans-43"/>
     <use transform="translate(2159.03158 0.015625)" xlink:href="#DejaVuSans-4b"/>
     <use transform="translate(2224.607751 0.015625)" xlink:href="#DejaVuSans-4d"/>
     <use transform="translate(2343.357427 0.015625)" xlink:href="#DejaVuSans-64"/>
     <use transform="translate(2406.833989 0.015625)" xlink:href="#DejaVuSans-65"/>
     <use transform="translate(2468.357427 0.015625)" xlink:href="#DejaVuSans-6c"/>
     <use transform="translate(2496.14063 0.015625)" xlink:href="#DejaVuSans-65"/>
     <use transform="translate(2557.664067 0.015625)" xlink:href="#DejaVuSans-74"/>
     <use transform="translate(2596.873052 0.015625)" xlink:href="#DejaVuSans-69"/>
     <use transform="translate(2624.656255 0.015625)" xlink:href="#DejaVuSans-6f"/>
     <use transform="translate(2685.837896 0.015625)" xlink:href="#DejaVuSans-6e"/>
     <use transform="translate(2749.216802 0.015625)" xlink:href="#DejaVuSans-73"/>
    </g>
   </g>
  </g>
 </g>
 <defs>
  <clipPath id="p7fc757b443">
   <rect height="277.2" width="390.6" x="63" y="43.2"/>
  </clipPath>
 </defs>
</svg>
