<?xml version="1.0" encoding="utf-8" standalone="no"?>
<!DOCTYPE svg PUBLIC "-//W3C//DTD SVG 1.1//EN"
  "http://www.w3.org/Graphics/SVG/1.1/DTD/svg11.dtd">
<svg xmlns:xlink="http://www.w3.org/1999/xlink" width="792pt" height="360pt" viewBox="0 0 792 360" xmlns="http://www.w3.org/2000/svg" version="1.1">
 <metadata>
  <rdf:RDF xmlns:dc="http://purl.org/dc/elements/1.1/" xmlns:cc="http://creativecommons.org/ns#" xmlns:rdf="http://www.w3.org/1999/02/22-rdf-syntax-ns#">
   <cc:Work>
    <dc:type rdf:resource="http://purl.org/dc/dcmitype/StillImage"/>
    <dc:date>2023-11-04T15:41:31.707650</dc:date>
    <dc:format>image/svg+xml</dc:format>
    <dc:creator>
     <cc:Agent>
      <dc:title>Matplotlib v3.8.0, https://matplotlib.org/</dc:title>
     </cc:Agent>
    </dc:creator>
   </cc:Work>
  </rdf:RDF>
 </metadata>
 <defs>
  <style type="text/css">*{stroke-linejoin: round; stroke-linecap: butt}</style>
 </defs>
 <g id="figure_1">
  <g id="patch_1">
   <path d="M 0 360 
L 792 360 
L 792 0 
L 0 0 
z
" style="fill: #ffffff"/>
  </g>
  <g id="axes_1">
   <g id="patch_2">
    <path d="M 99 320.4 
L 712.8 320.4 
L 712.8 43.2 
L 99 43.2 
z
" style="fill: #ffffff"/>
   </g>
   <g id="patch_3">
    <path d="M 104.115 228 
L 145.035 228 
L 145.035 217.4664 
L 104.115 217.4664 
z
" clip-path="url(#p6862f888bf)" style="fill: #df2020"/>
   </g>
   <g id="patch_4">
    <path d="M 155.265 228 
L 196.185 228 
L 196.185 251.7468 
L 155.265 251.7468 
z
" clip-path="url(#p6862f888bf)" style="fill: #df2020"/>
   </g>
   <g id="patch_5">
    <path d="M 206.415 228 
L 247.335 228 
L 247.335 286.4892 
L 206.415 286.4892 
z
" clip-path="url(#p6862f888bf)" style="fill: #df2020"/>
   </g>
   <g id="patch_6">
    <path d="M 257.565 228 
L 298.485 228 
L 298.485 277.9422 
L 257.565 277.9422 
z
" clip-path="url(#p6862f888bf)" style="fill: #df2020"/>
   </g>
   <g id="patch_7">
    <path d="M 308.715 228 
L 349.635 228 
L 349.635 245.3019 
L 308.715 245.3019 
z
" clip-path="url(#p6862f888bf)" style="fill: #df2020"/>
   </g>
   <g id="patch_8">
    <path d="M 359.865 228 
L 400.785 228 
L 400.785 286.021034 
L 359.865 286.021034 
z
" clip-path="url(#p6862f888bf)" style="fill: #df2020"/>
   </g>
   <g id="patch_9">
    <path d="M 411.015 228 
L 451.935 228 
L 451.935 203.653678 
L 411.015 203.653678 
z
" clip-path="url(#p6862f888bf)" style="fill: #df2020"/>
   </g>
   <g id="patch_10">
    <path d="M 462.165 228 
L 503.085 228 
L 503.085 161.797275 
L 462.165 161.797275 
z
" clip-path="url(#p6862f888bf)" style="fill: #2020df"/>
   </g>
   <g id="patch_11">
    <path d="M 513.315 228 
L 554.235 228 
L 554.235 144.500203 
L 513.315 144.500203 
z
" clip-path="url(#p6862f888bf)" style="fill: #2020df"/>
   </g>
   <g id="patch_12">
    <path d="M 564.465 228 
L 605.385 228 
L 605.385 144.500203 
L 564.465 144.500203 
z
" clip-path="url(#p6862f888bf)" style="fill: #2020df"/>
   </g>
   <g id="patch_13">
    <path d="M 615.615 228 
L 656.535 228 
L 656.535 79.363941 
L 615.615 79.363941 
z
" clip-path="url(#p6862f888bf)" style="fill: #2020df"/>
   </g>
   <g id="patch_14">
    <path d="M 666.765 228 
L 707.685 228 
L 707.685 54.524197 
L 666.765 54.524197 
z
" clip-path="url(#p6862f888bf)" style="fill: #2020df"/>
   </g>
   <g id="matplotlib.axis_1">
    <g id="xtick_1">
     <g id="line2d_1">
      <defs>
       <path id="m1aef64735c" d="M 0 0 
L 0 3.5 
" style="stroke: #000000; stroke-width: 0.8"/>
      </defs>
      <g>
       <use xlink:href="#m1aef64735c" x="124.575" y="320.4" style="stroke: #000000; stroke-width: 0.8"/>
      </g>
     </g>
     <g id="text_1">
      <!-- fkh2::ura4+_10hr_HU -->
      <g transform="translate(78.5997 395.616238) rotate(-35) scale(0.1 -0.1)">
       <defs>
        <path id="DejaVuSans-66" d="M 2375 4863 
L 2375 4384 
L 1825 4384 
Q 1516 4384 1395 4259 
Q 1275 4134 1275 3809 
L 1275 3500 
L 2222 3500 
L 2222 3053 
L 1275 3053 
L 1275 0 
L 697 0 
L 697 3053 
L 147 3053 
L 147 3500 
L 697 3500 
L 697 3744 
Q 697 4328 969 4595 
Q 1241 4863 1831 4863 
L 2375 4863 
z
" transform="scale(0.015625)"/>
        <path id="DejaVuSans-6b" d="M 581 4863 
L 1159 4863 
L 1159 1991 
L 2875 3500 
L 3609 3500 
L 1753 1863 
L 3688 0 
L 2938 0 
L 1159 1709 
L 1159 0 
L 581 0 
L 581 4863 
z
" transform="scale(0.015625)"/>
        <path id="DejaVuSans-68" d="M 3513 2113 
L 3513 0 
L 2938 0 
L 2938 2094 
Q 2938 2591 2744 2837 
Q 2550 3084 2163 3084 
Q 1697 3084 1428 2787 
Q 1159 2491 1159 1978 
L 1159 0 
L 581 0 
L 581 4863 
L 1159 4863 
L 1159 2956 
Q 1366 3272 1645 3428 
Q 1925 3584 2291 3584 
Q 2894 3584 3203 3211 
Q 3513 2838 3513 2113 
z
" transform="scale(0.015625)"/>
        <path id="DejaVuSans-32" d="M 1228 531 
L 3431 531 
L 3431 0 
L 469 0 
L 469 531 
Q 828 903 1448 1529 
Q 2069 2156 2228 2338 
Q 2531 2678 2651 2914 
Q 2772 3150 2772 3378 
Q 2772 3750 2511 3984 
Q 2250 4219 1831 4219 
Q 1534 4219 1204 4116 
Q 875 4013 500 3803 
L 500 4441 
Q 881 4594 1212 4672 
Q 1544 4750 1819 4750 
Q 2544 4750 2975 4387 
Q 3406 4025 3406 3419 
Q 3406 3131 3298 2873 
Q 3191 2616 2906 2266 
Q 2828 2175 2409 1742 
Q 1991 1309 1228 531 
z
" transform="scale(0.015625)"/>
        <path id="DejaVuSans-3a" d="M 750 794 
L 1409 794 
L 1409 0 
L 750 0 
L 750 794 
z
M 750 3309 
L 1409 3309 
L 1409 2516 
L 750 2516 
L 750 3309 
z
" transform="scale(0.015625)"/>
        <path id="DejaVuSans-75" d="M 544 1381 
L 544 3500 
L 1119 3500 
L 1119 1403 
Q 1119 906 1312 657 
Q 1506 409 1894 409 
Q 2359 409 2629 706 
Q 2900 1003 2900 1516 
L 2900 3500 
L 3475 3500 
L 3475 0 
L 2900 0 
L 2900 538 
Q 2691 219 2414 64 
Q 2138 -91 1772 -91 
Q 1169 -91 856 284 
Q 544 659 544 1381 
z
M 1991 3584 
L 1991 3584 
z
" transform="scale(0.015625)"/>
        <path id="DejaVuSans-72" d="M 2631 2963 
Q 2534 3019 2420 3045 
Q 2306 3072 2169 3072 
Q 1681 3072 1420 2755 
Q 1159 2438 1159 1844 
L 1159 0 
L 581 0 
L 581 3500 
L 1159 3500 
L 1159 2956 
Q 1341 3275 1631 3429 
Q 1922 3584 2338 3584 
Q 2397 3584 2469 3576 
Q 2541 3569 2628 3553 
L 2631 2963 
z
" transform="scale(0.015625)"/>
        <path id="DejaVuSans-61" d="M 2194 1759 
Q 1497 1759 1228 1600 
Q 959 1441 959 1056 
Q 959 750 1161 570 
Q 1363 391 1709 391 
Q 2188 391 2477 730 
Q 2766 1069 2766 1631 
L 2766 1759 
L 2194 1759 
z
M 3341 1997 
L 3341 0 
L 2766 0 
L 2766 531 
Q 2569 213 2275 61 
Q 1981 -91 1556 -91 
Q 1019 -91 701 211 
Q 384 513 384 1019 
Q 384 1609 779 1909 
Q 1175 2209 1959 2209 
L 2766 2209 
L 2766 2266 
Q 2766 2663 2505 2880 
Q 2244 3097 1772 3097 
Q 1472 3097 1187 3025 
Q 903 2953 641 2809 
L 641 3341 
Q 956 3463 1253 3523 
Q 1550 3584 1831 3584 
Q 2591 3584 2966 3190 
Q 3341 2797 3341 1997 
z
" transform="scale(0.015625)"/>
        <path id="DejaVuSans-34" d="M 2419 4116 
L 825 1625 
L 2419 1625 
L 2419 4116 
z
M 2253 4666 
L 3047 4666 
L 3047 1625 
L 3713 1625 
L 3713 1100 
L 3047 1100 
L 3047 0 
L 2419 0 
L 2419 1100 
L 313 1100 
L 313 1709 
L 2253 4666 
z
" transform="scale(0.015625)"/>
        <path id="DejaVuSans-2b" d="M 2944 4013 
L 2944 2272 
L 4684 2272 
L 4684 1741 
L 2944 1741 
L 2944 0 
L 2419 0 
L 2419 1741 
L 678 1741 
L 678 2272 
L 2419 2272 
L 2419 4013 
L 2944 4013 
z
" transform="scale(0.015625)"/>
        <path id="DejaVuSans-5f" d="M 3263 -1063 
L 3263 -1509 
L -63 -1509 
L -63 -1063 
L 3263 -1063 
z
" transform="scale(0.015625)"/>
        <path id="DejaVuSans-31" d="M 794 531 
L 1825 531 
L 1825 4091 
L 703 3866 
L 703 4441 
L 1819 4666 
L 2450 4666 
L 2450 531 
L 3481 531 
L 3481 0 
L 794 0 
L 794 531 
z
" transform="scale(0.015625)"/>
        <path id="DejaVuSans-30" d="M 2034 4250 
Q 1547 4250 1301 3770 
Q 1056 3291 1056 2328 
Q 1056 1369 1301 889 
Q 1547 409 2034 409 
Q 2525 409 2770 889 
Q 3016 1369 3016 2328 
Q 3016 3291 2770 3770 
Q 2525 4250 2034 4250 
z
M 2034 4750 
Q 2819 4750 3233 4129 
Q 3647 3509 3647 2328 
Q 3647 1150 3233 529 
Q 2819 -91 2034 -91 
Q 1250 -91 836 529 
Q 422 1150 422 2328 
Q 422 3509 836 4129 
Q 1250 4750 2034 4750 
z
" transform="scale(0.015625)"/>
        <path id="DejaVuSans-48" d="M 628 4666 
L 1259 4666 
L 1259 2753 
L 3553 2753 
L 3553 4666 
L 4184 4666 
L 4184 0 
L 3553 0 
L 3553 2222 
L 1259 2222 
L 1259 0 
L 628 0 
L 628 4666 
z
" transform="scale(0.015625)"/>
        <path id="DejaVuSans-55" d="M 556 4666 
L 1191 4666 
L 1191 1831 
Q 1191 1081 1462 751 
Q 1734 422 2344 422 
Q 2950 422 3222 751 
Q 3494 1081 3494 1831 
L 3494 4666 
L 4128 4666 
L 4128 1753 
Q 4128 841 3676 375 
Q 3225 -91 2344 -91 
Q 1459 -91 1007 375 
Q 556 841 556 1753 
L 556 4666 
z
" transform="scale(0.015625)"/>
       </defs>
       <use xlink:href="#DejaVuSans-66"/>
       <use xlink:href="#DejaVuSans-6b" x="35.205078"/>
       <use xlink:href="#DejaVuSans-68" x="93.115234"/>
       <use xlink:href="#DejaVuSans-32" x="156.494141"/>
       <use xlink:href="#DejaVuSans-3a" x="220.117188"/>
       <use xlink:href="#DejaVuSans-3a" x="253.808594"/>
       <use xlink:href="#DejaVuSans-75" x="287.5"/>
       <use xlink:href="#DejaVuSans-72" x="350.878906"/>
       <use xlink:href="#DejaVuSans-61" x="391.992188"/>
       <use xlink:href="#DejaVuSans-34" x="453.271484"/>
       <use xlink:href="#DejaVuSans-2b" x="516.894531"/>
       <use xlink:href="#DejaVuSans-5f" x="600.683594"/>
       <use xlink:href="#DejaVuSans-31" x="650.683594"/>
       <use xlink:href="#DejaVuSans-30" x="714.306641"/>
       <use xlink:href="#DejaVuSans-68" x="777.929688"/>
       <use xlink:href="#DejaVuSans-72" x="841.308594"/>
       <use xlink:href="#DejaVuSans-5f" x="882.421875"/>
       <use xlink:href="#DejaVuSans-48" x="932.421875"/>
       <use xlink:href="#DejaVuSans-55" x="1007.617188"/>
      </g>
      <!-- (Garg et al. 2015) -->
      <g transform="translate(92.953093 399.575417) rotate(-35) scale(0.1 -0.1)">
       <defs>
        <path id="DejaVuSans-28" d="M 1984 4856 
Q 1566 4138 1362 3434 
Q 1159 2731 1159 2009 
Q 1159 1288 1364 580 
Q 1569 -128 1984 -844 
L 1484 -844 
Q 1016 -109 783 600 
Q 550 1309 550 2009 
Q 550 2706 781 3412 
Q 1013 4119 1484 4856 
L 1984 4856 
z
" transform="scale(0.015625)"/>
        <path id="DejaVuSans-47" d="M 3809 666 
L 3809 1919 
L 2778 1919 
L 2778 2438 
L 4434 2438 
L 4434 434 
Q 4069 175 3628 42 
Q 3188 -91 2688 -91 
Q 1594 -91 976 548 
Q 359 1188 359 2328 
Q 359 3472 976 4111 
Q 1594 4750 2688 4750 
Q 3144 4750 3555 4637 
Q 3966 4525 4313 4306 
L 4313 3634 
Q 3963 3931 3569 4081 
Q 3175 4231 2741 4231 
Q 1884 4231 1454 3753 
Q 1025 3275 1025 2328 
Q 1025 1384 1454 906 
Q 1884 428 2741 428 
Q 3075 428 3337 486 
Q 3600 544 3809 666 
z
" transform="scale(0.015625)"/>
        <path id="DejaVuSans-67" d="M 2906 1791 
Q 2906 2416 2648 2759 
Q 2391 3103 1925 3103 
Q 1463 3103 1205 2759 
Q 947 2416 947 1791 
Q 947 1169 1205 825 
Q 1463 481 1925 481 
Q 2391 481 2648 825 
Q 2906 1169 2906 1791 
z
M 3481 434 
Q 3481 -459 3084 -895 
Q 2688 -1331 1869 -1331 
Q 1566 -1331 1297 -1286 
Q 1028 -1241 775 -1147 
L 775 -588 
Q 1028 -725 1275 -790 
Q 1522 -856 1778 -856 
Q 2344 -856 2625 -561 
Q 2906 -266 2906 331 
L 2906 616 
Q 2728 306 2450 153 
Q 2172 0 1784 0 
Q 1141 0 747 490 
Q 353 981 353 1791 
Q 353 2603 747 3093 
Q 1141 3584 1784 3584 
Q 2172 3584 2450 3431 
Q 2728 3278 2906 2969 
L 2906 3500 
L 3481 3500 
L 3481 434 
z
" transform="scale(0.015625)"/>
        <path id="DejaVuSans-20" transform="scale(0.015625)"/>
        <path id="DejaVuSans-65" d="M 3597 1894 
L 3597 1613 
L 953 1613 
Q 991 1019 1311 708 
Q 1631 397 2203 397 
Q 2534 397 2845 478 
Q 3156 559 3463 722 
L 3463 178 
Q 3153 47 2828 -22 
Q 2503 -91 2169 -91 
Q 1331 -91 842 396 
Q 353 884 353 1716 
Q 353 2575 817 3079 
Q 1281 3584 2069 3584 
Q 2775 3584 3186 3129 
Q 3597 2675 3597 1894 
z
M 3022 2063 
Q 3016 2534 2758 2815 
Q 2500 3097 2075 3097 
Q 1594 3097 1305 2825 
Q 1016 2553 972 2059 
L 3022 2063 
z
" transform="scale(0.015625)"/>
        <path id="DejaVuSans-74" d="M 1172 4494 
L 1172 3500 
L 2356 3500 
L 2356 3053 
L 1172 3053 
L 1172 1153 
Q 1172 725 1289 603 
Q 1406 481 1766 481 
L 2356 481 
L 2356 0 
L 1766 0 
Q 1100 0 847 248 
Q 594 497 594 1153 
L 594 3053 
L 172 3053 
L 172 3500 
L 594 3500 
L 594 4494 
L 1172 4494 
z
" transform="scale(0.015625)"/>
        <path id="DejaVuSans-6c" d="M 603 4863 
L 1178 4863 
L 1178 0 
L 603 0 
L 603 4863 
z
" transform="scale(0.015625)"/>
        <path id="DejaVuSans-2e" d="M 684 794 
L 1344 794 
L 1344 0 
L 684 0 
L 684 794 
z
" transform="scale(0.015625)"/>
        <path id="DejaVuSans-35" d="M 691 4666 
L 3169 4666 
L 3169 4134 
L 1269 4134 
L 1269 2991 
Q 1406 3038 1543 3061 
Q 1681 3084 1819 3084 
Q 2600 3084 3056 2656 
Q 3513 2228 3513 1497 
Q 3513 744 3044 326 
Q 2575 -91 1722 -91 
Q 1428 -91 1123 -41 
Q 819 9 494 109 
L 494 744 
Q 775 591 1075 516 
Q 1375 441 1709 441 
Q 2250 441 2565 725 
Q 2881 1009 2881 1497 
Q 2881 1984 2565 2268 
Q 2250 2553 1709 2553 
Q 1456 2553 1204 2497 
Q 953 2441 691 2322 
L 691 4666 
z
" transform="scale(0.015625)"/>
        <path id="DejaVuSans-29" d="M 513 4856 
L 1013 4856 
Q 1481 4119 1714 3412 
Q 1947 2706 1947 2009 
Q 1947 1309 1714 600 
Q 1481 -109 1013 -844 
L 513 -844 
Q 928 -128 1133 580 
Q 1338 1288 1338 2009 
Q 1338 2731 1133 3434 
Q 928 4138 513 4856 
z
" transform="scale(0.015625)"/>
       </defs>
       <use xlink:href="#DejaVuSans-28"/>
       <use xlink:href="#DejaVuSans-47" x="39.013672"/>
       <use xlink:href="#DejaVuSans-61" x="116.503906"/>
       <use xlink:href="#DejaVuSans-72" x="177.783203"/>
       <use xlink:href="#DejaVuSans-67" x="217.146484"/>
       <use xlink:href="#DejaVuSans-20" x="280.623047"/>
       <use xlink:href="#DejaVuSans-65" x="312.410156"/>
       <use xlink:href="#DejaVuSans-74" x="373.933594"/>
       <use xlink:href="#DejaVuSans-20" x="413.142578"/>
       <use xlink:href="#DejaVuSans-61" x="444.929688"/>
       <use xlink:href="#DejaVuSans-6c" x="506.208984"/>
       <use xlink:href="#DejaVuSans-2e" x="533.992188"/>
       <use xlink:href="#DejaVuSans-20" x="565.779297"/>
       <use xlink:href="#DejaVuSans-32" x="597.566406"/>
       <use xlink:href="#DejaVuSans-30" x="661.189453"/>
       <use xlink:href="#DejaVuSans-31" x="724.8125"/>
       <use xlink:href="#DejaVuSans-35" x="788.435547"/>
       <use xlink:href="#DejaVuSans-29" x="852.058594"/>
      </g>
     </g>
    </g>
    <g id="xtick_2">
     <g id="line2d_2">
      <g>
       <use xlink:href="#m1aef64735c" x="175.725" y="320.4" style="stroke: #000000; stroke-width: 0.8"/>
      </g>
     </g>
    </g>
    <g id="xtick_3">
     <g id="line2d_3">
      <g>
       <use xlink:href="#m1aef64735c" x="226.875" y="320.4" style="stroke: #000000; stroke-width: 0.8"/>
      </g>
     </g>
     <g id="text_2">
      <!-- fkh2::ura4+_8hr -->
      <g transform="translate(191.631232 382.66058) rotate(-35) scale(0.1 -0.1)">
       <defs>
        <path id="DejaVuSans-38" d="M 2034 2216 
Q 1584 2216 1326 1975 
Q 1069 1734 1069 1313 
Q 1069 891 1326 650 
Q 1584 409 2034 409 
Q 2484 409 2743 651 
Q 3003 894 3003 1313 
Q 3003 1734 2745 1975 
Q 2488 2216 2034 2216 
z
M 1403 2484 
Q 997 2584 770 2862 
Q 544 3141 544 3541 
Q 544 4100 942 4425 
Q 1341 4750 2034 4750 
Q 2731 4750 3128 4425 
Q 3525 4100 3525 3541 
Q 3525 3141 3298 2862 
Q 3072 2584 2669 2484 
Q 3125 2378 3379 2068 
Q 3634 1759 3634 1313 
Q 3634 634 3220 271 
Q 2806 -91 2034 -91 
Q 1263 -91 848 271 
Q 434 634 434 1313 
Q 434 1759 690 2068 
Q 947 2378 1403 2484 
z
M 1172 3481 
Q 1172 3119 1398 2916 
Q 1625 2713 2034 2713 
Q 2441 2713 2670 2916 
Q 2900 3119 2900 3481 
Q 2900 3844 2670 4047 
Q 2441 4250 2034 4250 
Q 1625 4250 1398 4047 
Q 1172 3844 1172 3481 
z
" transform="scale(0.015625)"/>
       </defs>
       <use xlink:href="#DejaVuSans-66"/>
       <use xlink:href="#DejaVuSans-6b" x="35.205078"/>
       <use xlink:href="#DejaVuSans-68" x="93.115234"/>
       <use xlink:href="#DejaVuSans-32" x="156.494141"/>
       <use xlink:href="#DejaVuSans-3a" x="220.117188"/>
       <use xlink:href="#DejaVuSans-3a" x="253.808594"/>
       <use xlink:href="#DejaVuSans-75" x="287.5"/>
       <use xlink:href="#DejaVuSans-72" x="350.878906"/>
       <use xlink:href="#DejaVuSans-61" x="391.992188"/>
       <use xlink:href="#DejaVuSans-34" x="453.271484"/>
       <use xlink:href="#DejaVuSans-2b" x="516.894531"/>
       <use xlink:href="#DejaVuSans-5f" x="600.683594"/>
       <use xlink:href="#DejaVuSans-38" x="650.683594"/>
       <use xlink:href="#DejaVuSans-68" x="714.306641"/>
       <use xlink:href="#DejaVuSans-72" x="777.685547"/>
      </g>
      <!-- (Garg et al. 2015) -->
      <g transform="translate(195.253093 394.134059) rotate(-35) scale(0.1 -0.1)">
       <use xlink:href="#DejaVuSans-28"/>
       <use xlink:href="#DejaVuSans-47" x="39.013672"/>
       <use xlink:href="#DejaVuSans-61" x="116.503906"/>
       <use xlink:href="#DejaVuSans-72" x="177.783203"/>
       <use xlink:href="#DejaVuSans-67" x="217.146484"/>
       <use xlink:href="#DejaVuSans-20" x="280.623047"/>
       <use xlink:href="#DejaVuSans-65" x="312.410156"/>
       <use xlink:href="#DejaVuSans-74" x="373.933594"/>
       <use xlink:href="#DejaVuSans-20" x="413.142578"/>
       <use xlink:href="#DejaVuSans-61" x="444.929688"/>
       <use xlink:href="#DejaVuSans-6c" x="506.208984"/>
       <use xlink:href="#DejaVuSans-2e" x="533.992188"/>
       <use xlink:href="#DejaVuSans-20" x="565.779297"/>
       <use xlink:href="#DejaVuSans-32" x="597.566406"/>
       <use xlink:href="#DejaVuSans-30" x="661.189453"/>
       <use xlink:href="#DejaVuSans-31" x="724.8125"/>
       <use xlink:href="#DejaVuSans-35" x="788.435547"/>
       <use xlink:href="#DejaVuSans-29" x="852.058594"/>
      </g>
     </g>
    </g>
    <g id="xtick_4">
     <g id="line2d_4">
      <g>
       <use xlink:href="#m1aef64735c" x="278.025" y="320.4" style="stroke: #000000; stroke-width: 0.8"/>
      </g>
     </g>
    </g>
    <g id="xtick_5">
     <g id="line2d_5">
      <g>
       <use xlink:href="#m1aef64735c" x="329.175" y="320.4" style="stroke: #000000; stroke-width: 0.8"/>
      </g>
     </g>
     <g id="text_3">
      <!-- fkh2::ura4+_12hr -->
      <g transform="translate(291.325305 384.48527) rotate(-35) scale(0.1 -0.1)">
       <use xlink:href="#DejaVuSans-66"/>
       <use xlink:href="#DejaVuSans-6b" x="35.205078"/>
       <use xlink:href="#DejaVuSans-68" x="93.115234"/>
       <use xlink:href="#DejaVuSans-32" x="156.494141"/>
       <use xlink:href="#DejaVuSans-3a" x="220.117188"/>
       <use xlink:href="#DejaVuSans-3a" x="253.808594"/>
       <use xlink:href="#DejaVuSans-75" x="287.5"/>
       <use xlink:href="#DejaVuSans-72" x="350.878906"/>
       <use xlink:href="#DejaVuSans-61" x="391.992188"/>
       <use xlink:href="#DejaVuSans-34" x="453.271484"/>
       <use xlink:href="#DejaVuSans-2b" x="516.894531"/>
       <use xlink:href="#DejaVuSans-5f" x="600.683594"/>
       <use xlink:href="#DejaVuSans-31" x="650.683594"/>
       <use xlink:href="#DejaVuSans-32" x="714.306641"/>
       <use xlink:href="#DejaVuSans-68" x="777.929688"/>
       <use xlink:href="#DejaVuSans-72" x="841.308594"/>
      </g>
      <!-- (Garg et al. 2015) -->
      <g transform="translate(297.553093 394.134059) rotate(-35) scale(0.1 -0.1)">
       <use xlink:href="#DejaVuSans-28"/>
       <use xlink:href="#DejaVuSans-47" x="39.013672"/>
       <use xlink:href="#DejaVuSans-61" x="116.503906"/>
       <use xlink:href="#DejaVuSans-72" x="177.783203"/>
       <use xlink:href="#DejaVuSans-67" x="217.146484"/>
       <use xlink:href="#DejaVuSans-20" x="280.623047"/>
       <use xlink:href="#DejaVuSans-65" x="312.410156"/>
       <use xlink:href="#DejaVuSans-74" x="373.933594"/>
       <use xlink:href="#DejaVuSans-20" x="413.142578"/>
       <use xlink:href="#DejaVuSans-61" x="444.929688"/>
       <use xlink:href="#DejaVuSans-6c" x="506.208984"/>
       <use xlink:href="#DejaVuSans-2e" x="533.992188"/>
       <use xlink:href="#DejaVuSans-20" x="565.779297"/>
       <use xlink:href="#DejaVuSans-32" x="597.566406"/>
       <use xlink:href="#DejaVuSans-30" x="661.189453"/>
       <use xlink:href="#DejaVuSans-31" x="724.8125"/>
       <use xlink:href="#DejaVuSans-35" x="788.435547"/>
       <use xlink:href="#DejaVuSans-29" x="852.058594"/>
      </g>
     </g>
    </g>
    <g id="xtick_6">
     <g id="line2d_6">
      <g>
       <use xlink:href="#m1aef64735c" x="380.325" y="320.4" style="stroke: #000000; stroke-width: 0.8"/>
      </g>
     </g>
    </g>
    <g id="xtick_7">
     <g id="line2d_7">
      <g>
       <use xlink:href="#m1aef64735c" x="431.475" y="320.4" style="stroke: #000000; stroke-width: 0.8"/>
      </g>
     </g>
     <g id="text_4">
      <!-- fkh2s2a -->
      <g transform="translate(413.581664 374.630062) rotate(-35) scale(0.1 -0.1)">
       <defs>
        <path id="DejaVuSans-73" d="M 2834 3397 
L 2834 2853 
Q 2591 2978 2328 3040 
Q 2066 3103 1784 3103 
Q 1356 3103 1142 2972 
Q 928 2841 928 2578 
Q 928 2378 1081 2264 
Q 1234 2150 1697 2047 
L 1894 2003 
Q 2506 1872 2764 1633 
Q 3022 1394 3022 966 
Q 3022 478 2636 193 
Q 2250 -91 1575 -91 
Q 1294 -91 989 -36 
Q 684 19 347 128 
L 347 722 
Q 666 556 975 473 
Q 1284 391 1588 391 
Q 1994 391 2212 530 
Q 2431 669 2431 922 
Q 2431 1156 2273 1281 
Q 2116 1406 1581 1522 
L 1381 1569 
Q 847 1681 609 1914 
Q 372 2147 372 2553 
Q 372 3047 722 3315 
Q 1072 3584 1716 3584 
Q 2034 3584 2315 3537 
Q 2597 3491 2834 3397 
z
" transform="scale(0.015625)"/>
       </defs>
       <use xlink:href="#DejaVuSans-66"/>
       <use xlink:href="#DejaVuSans-6b" x="35.205078"/>
       <use xlink:href="#DejaVuSans-68" x="93.115234"/>
       <use xlink:href="#DejaVuSans-32" x="156.494141"/>
       <use xlink:href="#DejaVuSans-73" x="220.117188"/>
       <use xlink:href="#DejaVuSans-32" x="272.216797"/>
       <use xlink:href="#DejaVuSans-61" x="335.839844"/>
      </g>
      <!-- (Szilagyi et al. 2012) -->
      <g transform="translate(393.971429 402.031301) rotate(-35) scale(0.1 -0.1)">
       <defs>
        <path id="DejaVuSans-53" d="M 3425 4513 
L 3425 3897 
Q 3066 4069 2747 4153 
Q 2428 4238 2131 4238 
Q 1616 4238 1336 4038 
Q 1056 3838 1056 3469 
Q 1056 3159 1242 3001 
Q 1428 2844 1947 2747 
L 2328 2669 
Q 3034 2534 3370 2195 
Q 3706 1856 3706 1288 
Q 3706 609 3251 259 
Q 2797 -91 1919 -91 
Q 1588 -91 1214 -16 
Q 841 59 441 206 
L 441 856 
Q 825 641 1194 531 
Q 1563 422 1919 422 
Q 2459 422 2753 634 
Q 3047 847 3047 1241 
Q 3047 1584 2836 1778 
Q 2625 1972 2144 2069 
L 1759 2144 
Q 1053 2284 737 2584 
Q 422 2884 422 3419 
Q 422 4038 858 4394 
Q 1294 4750 2059 4750 
Q 2388 4750 2728 4690 
Q 3069 4631 3425 4513 
z
" transform="scale(0.015625)"/>
        <path id="DejaVuSans-7a" d="M 353 3500 
L 3084 3500 
L 3084 2975 
L 922 459 
L 3084 459 
L 3084 0 
L 275 0 
L 275 525 
L 2438 3041 
L 353 3041 
L 353 3500 
z
" transform="scale(0.015625)"/>
        <path id="DejaVuSans-69" d="M 603 3500 
L 1178 3500 
L 1178 0 
L 603 0 
L 603 3500 
z
M 603 4863 
L 1178 4863 
L 1178 4134 
L 603 4134 
L 603 4863 
z
" transform="scale(0.015625)"/>
        <path id="DejaVuSans-79" d="M 2059 -325 
Q 1816 -950 1584 -1140 
Q 1353 -1331 966 -1331 
L 506 -1331 
L 506 -850 
L 844 -850 
Q 1081 -850 1212 -737 
Q 1344 -625 1503 -206 
L 1606 56 
L 191 3500 
L 800 3500 
L 1894 763 
L 2988 3500 
L 3597 3500 
L 2059 -325 
z
" transform="scale(0.015625)"/>
       </defs>
       <use xlink:href="#DejaVuSans-28"/>
       <use xlink:href="#DejaVuSans-53" x="39.013672"/>
       <use xlink:href="#DejaVuSans-7a" x="102.490234"/>
       <use xlink:href="#DejaVuSans-69" x="154.980469"/>
       <use xlink:href="#DejaVuSans-6c" x="182.763672"/>
       <use xlink:href="#DejaVuSans-61" x="210.546875"/>
       <use xlink:href="#DejaVuSans-67" x="271.826172"/>
       <use xlink:href="#DejaVuSans-79" x="335.302734"/>
       <use xlink:href="#DejaVuSans-69" x="394.482422"/>
       <use xlink:href="#DejaVuSans-20" x="422.265625"/>
       <use xlink:href="#DejaVuSans-65" x="454.052734"/>
       <use xlink:href="#DejaVuSans-74" x="515.576172"/>
       <use xlink:href="#DejaVuSans-20" x="554.785156"/>
       <use xlink:href="#DejaVuSans-61" x="586.572266"/>
       <use xlink:href="#DejaVuSans-6c" x="647.851562"/>
       <use xlink:href="#DejaVuSans-2e" x="675.634766"/>
       <use xlink:href="#DejaVuSans-20" x="707.421875"/>
       <use xlink:href="#DejaVuSans-32" x="739.208984"/>
       <use xlink:href="#DejaVuSans-30" x="802.832031"/>
       <use xlink:href="#DejaVuSans-31" x="866.455078"/>
       <use xlink:href="#DejaVuSans-32" x="930.078125"/>
       <use xlink:href="#DejaVuSans-29" x="993.701172"/>
      </g>
     </g>
    </g>
    <g id="xtick_8">
     <g id="line2d_8">
      <g>
       <use xlink:href="#m1aef64735c" x="482.625" y="320.4" style="stroke: #000000; stroke-width: 0.8"/>
      </g>
     </g>
    </g>
    <g id="xtick_9">
     <g id="line2d_9">
      <g>
       <use xlink:href="#m1aef64735c" x="533.775" y="320.4" style="stroke: #000000; stroke-width: 0.8"/>
      </g>
     </g>
     <g id="text_5">
      <!-- srb10 deletion  -->
      <g transform="translate(501.289878 377.906617) rotate(-35) scale(0.1 -0.1)">
       <defs>
        <path id="DejaVuSans-62" d="M 3116 1747 
Q 3116 2381 2855 2742 
Q 2594 3103 2138 3103 
Q 1681 3103 1420 2742 
Q 1159 2381 1159 1747 
Q 1159 1113 1420 752 
Q 1681 391 2138 391 
Q 2594 391 2855 752 
Q 3116 1113 3116 1747 
z
M 1159 2969 
Q 1341 3281 1617 3432 
Q 1894 3584 2278 3584 
Q 2916 3584 3314 3078 
Q 3713 2572 3713 1747 
Q 3713 922 3314 415 
Q 2916 -91 2278 -91 
Q 1894 -91 1617 61 
Q 1341 213 1159 525 
L 1159 0 
L 581 0 
L 581 4863 
L 1159 4863 
L 1159 2969 
z
" transform="scale(0.015625)"/>
        <path id="DejaVuSans-64" d="M 2906 2969 
L 2906 4863 
L 3481 4863 
L 3481 0 
L 2906 0 
L 2906 525 
Q 2725 213 2448 61 
Q 2172 -91 1784 -91 
Q 1150 -91 751 415 
Q 353 922 353 1747 
Q 353 2572 751 3078 
Q 1150 3584 1784 3584 
Q 2172 3584 2448 3432 
Q 2725 3281 2906 2969 
z
M 947 1747 
Q 947 1113 1208 752 
Q 1469 391 1925 391 
Q 2381 391 2643 752 
Q 2906 1113 2906 1747 
Q 2906 2381 2643 2742 
Q 2381 3103 1925 3103 
Q 1469 3103 1208 2742 
Q 947 2381 947 1747 
z
" transform="scale(0.015625)"/>
        <path id="DejaVuSans-6f" d="M 1959 3097 
Q 1497 3097 1228 2736 
Q 959 2375 959 1747 
Q 959 1119 1226 758 
Q 1494 397 1959 397 
Q 2419 397 2687 759 
Q 2956 1122 2956 1747 
Q 2956 2369 2687 2733 
Q 2419 3097 1959 3097 
z
M 1959 3584 
Q 2709 3584 3137 3096 
Q 3566 2609 3566 1747 
Q 3566 888 3137 398 
Q 2709 -91 1959 -91 
Q 1206 -91 779 398 
Q 353 888 353 1747 
Q 353 2609 779 3096 
Q 1206 3584 1959 3584 
z
" transform="scale(0.015625)"/>
        <path id="DejaVuSans-6e" d="M 3513 2113 
L 3513 0 
L 2938 0 
L 2938 2094 
Q 2938 2591 2744 2837 
Q 2550 3084 2163 3084 
Q 1697 3084 1428 2787 
Q 1159 2491 1159 1978 
L 1159 0 
L 581 0 
L 581 3500 
L 1159 3500 
L 1159 2956 
Q 1366 3272 1645 3428 
Q 1925 3584 2291 3584 
Q 2894 3584 3203 3211 
Q 3513 2838 3513 2113 
z
" transform="scale(0.015625)"/>
       </defs>
       <use xlink:href="#DejaVuSans-73"/>
       <use xlink:href="#DejaVuSans-72" x="52.099609"/>
       <use xlink:href="#DejaVuSans-62" x="93.212891"/>
       <use xlink:href="#DejaVuSans-31" x="156.689453"/>
       <use xlink:href="#DejaVuSans-30" x="220.3125"/>
       <use xlink:href="#DejaVuSans-20" x="283.935547"/>
       <use xlink:href="#DejaVuSans-64" x="315.722656"/>
       <use xlink:href="#DejaVuSans-65" x="379.199219"/>
       <use xlink:href="#DejaVuSans-6c" x="440.722656"/>
       <use xlink:href="#DejaVuSans-65" x="468.505859"/>
       <use xlink:href="#DejaVuSans-74" x="530.029297"/>
       <use xlink:href="#DejaVuSans-69" x="569.238281"/>
       <use xlink:href="#DejaVuSans-6f" x="597.021484"/>
       <use xlink:href="#DejaVuSans-6e" x="658.203125"/>
       <use xlink:href="#DejaVuSans-20" x="721.582031"/>
      </g>
      <!-- (EMM, RT-qPCR) -->
      <g transform="translate(506.183809 388.149855) rotate(-35) scale(0.1 -0.1)">
       <defs>
        <path id="DejaVuSans-45" d="M 628 4666 
L 3578 4666 
L 3578 4134 
L 1259 4134 
L 1259 2753 
L 3481 2753 
L 3481 2222 
L 1259 2222 
L 1259 531 
L 3634 531 
L 3634 0 
L 628 0 
L 628 4666 
z
" transform="scale(0.015625)"/>
        <path id="DejaVuSans-4d" d="M 628 4666 
L 1569 4666 
L 2759 1491 
L 3956 4666 
L 4897 4666 
L 4897 0 
L 4281 0 
L 4281 4097 
L 3078 897 
L 2444 897 
L 1241 4097 
L 1241 0 
L 628 0 
L 628 4666 
z
" transform="scale(0.015625)"/>
        <path id="DejaVuSans-2c" d="M 750 794 
L 1409 794 
L 1409 256 
L 897 -744 
L 494 -744 
L 750 256 
L 750 794 
z
" transform="scale(0.015625)"/>
        <path id="DejaVuSans-52" d="M 2841 2188 
Q 3044 2119 3236 1894 
Q 3428 1669 3622 1275 
L 4263 0 
L 3584 0 
L 2988 1197 
Q 2756 1666 2539 1819 
Q 2322 1972 1947 1972 
L 1259 1972 
L 1259 0 
L 628 0 
L 628 4666 
L 2053 4666 
Q 2853 4666 3247 4331 
Q 3641 3997 3641 3322 
Q 3641 2881 3436 2590 
Q 3231 2300 2841 2188 
z
M 1259 4147 
L 1259 2491 
L 2053 2491 
Q 2509 2491 2742 2702 
Q 2975 2913 2975 3322 
Q 2975 3731 2742 3939 
Q 2509 4147 2053 4147 
L 1259 4147 
z
" transform="scale(0.015625)"/>
        <path id="DejaVuSans-54" d="M -19 4666 
L 3928 4666 
L 3928 4134 
L 2272 4134 
L 2272 0 
L 1638 0 
L 1638 4134 
L -19 4134 
L -19 4666 
z
" transform="scale(0.015625)"/>
        <path id="DejaVuSans-2d" d="M 313 2009 
L 1997 2009 
L 1997 1497 
L 313 1497 
L 313 2009 
z
" transform="scale(0.015625)"/>
        <path id="DejaVuSans-71" d="M 947 1747 
Q 947 1113 1208 752 
Q 1469 391 1925 391 
Q 2381 391 2643 752 
Q 2906 1113 2906 1747 
Q 2906 2381 2643 2742 
Q 2381 3103 1925 3103 
Q 1469 3103 1208 2742 
Q 947 2381 947 1747 
z
M 2906 525 
Q 2725 213 2448 61 
Q 2172 -91 1784 -91 
Q 1150 -91 751 415 
Q 353 922 353 1747 
Q 353 2572 751 3078 
Q 1150 3584 1784 3584 
Q 2172 3584 2448 3432 
Q 2725 3281 2906 2969 
L 2906 3500 
L 3481 3500 
L 3481 -1331 
L 2906 -1331 
L 2906 525 
z
" transform="scale(0.015625)"/>
        <path id="DejaVuSans-50" d="M 1259 4147 
L 1259 2394 
L 2053 2394 
Q 2494 2394 2734 2622 
Q 2975 2850 2975 3272 
Q 2975 3691 2734 3919 
Q 2494 4147 2053 4147 
L 1259 4147 
z
M 628 4666 
L 2053 4666 
Q 2838 4666 3239 4311 
Q 3641 3956 3641 3272 
Q 3641 2581 3239 2228 
Q 2838 1875 2053 1875 
L 1259 1875 
L 1259 0 
L 628 0 
L 628 4666 
z
" transform="scale(0.015625)"/>
        <path id="DejaVuSans-43" d="M 4122 4306 
L 4122 3641 
Q 3803 3938 3442 4084 
Q 3081 4231 2675 4231 
Q 1875 4231 1450 3742 
Q 1025 3253 1025 2328 
Q 1025 1406 1450 917 
Q 1875 428 2675 428 
Q 3081 428 3442 575 
Q 3803 722 4122 1019 
L 4122 359 
Q 3791 134 3420 21 
Q 3050 -91 2638 -91 
Q 1578 -91 968 557 
Q 359 1206 359 2328 
Q 359 3453 968 4101 
Q 1578 4750 2638 4750 
Q 3056 4750 3426 4639 
Q 3797 4528 4122 4306 
z
" transform="scale(0.015625)"/>
       </defs>
       <use xlink:href="#DejaVuSans-28"/>
       <use xlink:href="#DejaVuSans-45" x="39.013672"/>
       <use xlink:href="#DejaVuSans-4d" x="102.197266"/>
       <use xlink:href="#DejaVuSans-4d" x="188.476562"/>
       <use xlink:href="#DejaVuSans-2c" x="274.755859"/>
       <use xlink:href="#DejaVuSans-20" x="306.542969"/>
       <use xlink:href="#DejaVuSans-52" x="338.330078"/>
       <use xlink:href="#DejaVuSans-54" x="400.5625"/>
       <use xlink:href="#DejaVuSans-2d" x="452.521484"/>
       <use xlink:href="#DejaVuSans-71" x="488.605469"/>
       <use xlink:href="#DejaVuSans-50" x="552.082031"/>
       <use xlink:href="#DejaVuSans-43" x="612.384766"/>
       <use xlink:href="#DejaVuSans-52" x="682.208984"/>
       <use xlink:href="#DejaVuSans-29" x="751.691406"/>
      </g>
     </g>
    </g>
    <g id="xtick_10">
     <g id="line2d_10">
      <g>
       <use xlink:href="#m1aef64735c" x="584.925" y="320.4" style="stroke: #000000; stroke-width: 0.8"/>
      </g>
     </g>
    </g>
    <g id="xtick_11">
     <g id="line2d_11">
      <g>
       <use xlink:href="#m1aef64735c" x="636.075" y="320.4" style="stroke: #000000; stroke-width: 0.8"/>
      </g>
     </g>
     <g id="text_6">
      <!-- srb10 deletion  -->
      <g transform="translate(600.378478 381.713283) rotate(-35) scale(0.1 -0.1)">
       <use xlink:href="#DejaVuSans-73"/>
       <use xlink:href="#DejaVuSans-72" x="52.099609"/>
       <use xlink:href="#DejaVuSans-62" x="93.212891"/>
       <use xlink:href="#DejaVuSans-31" x="156.689453"/>
       <use xlink:href="#DejaVuSans-30" x="220.3125"/>
       <use xlink:href="#DejaVuSans-20" x="283.935547"/>
       <use xlink:href="#DejaVuSans-64" x="315.722656"/>
       <use xlink:href="#DejaVuSans-65" x="379.199219"/>
       <use xlink:href="#DejaVuSans-6c" x="440.722656"/>
       <use xlink:href="#DejaVuSans-65" x="468.505859"/>
       <use xlink:href="#DejaVuSans-74" x="530.029297"/>
       <use xlink:href="#DejaVuSans-69" x="569.238281"/>
       <use xlink:href="#DejaVuSans-6f" x="597.021484"/>
       <use xlink:href="#DejaVuSans-6e" x="658.203125"/>
       <use xlink:href="#DejaVuSans-20" x="721.582031"/>
      </g>
      <!-- (EMM, microarray, -->
      <g transform="translate(600.281981 395.450855) rotate(-35) scale(0.1 -0.1)">
       <defs>
        <path id="DejaVuSans-6d" d="M 3328 2828 
Q 3544 3216 3844 3400 
Q 4144 3584 4550 3584 
Q 5097 3584 5394 3201 
Q 5691 2819 5691 2113 
L 5691 0 
L 5113 0 
L 5113 2094 
Q 5113 2597 4934 2840 
Q 4756 3084 4391 3084 
Q 3944 3084 3684 2787 
Q 3425 2491 3425 1978 
L 3425 0 
L 2847 0 
L 2847 2094 
Q 2847 2600 2669 2842 
Q 2491 3084 2119 3084 
Q 1678 3084 1418 2786 
Q 1159 2488 1159 1978 
L 1159 0 
L 581 0 
L 581 3500 
L 1159 3500 
L 1159 2956 
Q 1356 3278 1631 3431 
Q 1906 3584 2284 3584 
Q 2666 3584 2933 3390 
Q 3200 3197 3328 2828 
z
" transform="scale(0.015625)"/>
        <path id="DejaVuSans-63" d="M 3122 3366 
L 3122 2828 
Q 2878 2963 2633 3030 
Q 2388 3097 2138 3097 
Q 1578 3097 1268 2742 
Q 959 2388 959 1747 
Q 959 1106 1268 751 
Q 1578 397 2138 397 
Q 2388 397 2633 464 
Q 2878 531 3122 666 
L 3122 134 
Q 2881 22 2623 -34 
Q 2366 -91 2075 -91 
Q 1284 -91 818 406 
Q 353 903 353 1747 
Q 353 2603 823 3093 
Q 1294 3584 2113 3584 
Q 2378 3584 2631 3529 
Q 2884 3475 3122 3366 
z
" transform="scale(0.015625)"/>
       </defs>
       <use xlink:href="#DejaVuSans-28"/>
       <use xlink:href="#DejaVuSans-45" x="39.013672"/>
       <use xlink:href="#DejaVuSans-4d" x="102.197266"/>
       <use xlink:href="#DejaVuSans-4d" x="188.476562"/>
       <use xlink:href="#DejaVuSans-2c" x="274.755859"/>
       <use xlink:href="#DejaVuSans-20" x="306.542969"/>
       <use xlink:href="#DejaVuSans-6d" x="338.330078"/>
       <use xlink:href="#DejaVuSans-69" x="435.742188"/>
       <use xlink:href="#DejaVuSans-63" x="463.525391"/>
       <use xlink:href="#DejaVuSans-72" x="518.505859"/>
       <use xlink:href="#DejaVuSans-6f" x="557.369141"/>
       <use xlink:href="#DejaVuSans-61" x="618.550781"/>
       <use xlink:href="#DejaVuSans-72" x="679.830078"/>
       <use xlink:href="#DejaVuSans-72" x="719.193359"/>
       <use xlink:href="#DejaVuSans-61" x="760.306641"/>
       <use xlink:href="#DejaVuSans-79" x="821.585938"/>
       <use xlink:href="#DejaVuSans-2c" x="880.765625"/>
      </g>
      <!-- Linder et al. 2008) -->
      <g transform="translate(606.258728 404.935897) rotate(-35) scale(0.1 -0.1)">
       <defs>
        <path id="DejaVuSans-4c" d="M 628 4666 
L 1259 4666 
L 1259 531 
L 3531 531 
L 3531 0 
L 628 0 
L 628 4666 
z
" transform="scale(0.015625)"/>
       </defs>
       <use xlink:href="#DejaVuSans-4c"/>
       <use xlink:href="#DejaVuSans-69" x="55.712891"/>
       <use xlink:href="#DejaVuSans-6e" x="83.496094"/>
       <use xlink:href="#DejaVuSans-64" x="146.875"/>
       <use xlink:href="#DejaVuSans-65" x="210.351562"/>
       <use xlink:href="#DejaVuSans-72" x="271.875"/>
       <use xlink:href="#DejaVuSans-20" x="312.988281"/>
       <use xlink:href="#DejaVuSans-65" x="344.775391"/>
       <use xlink:href="#DejaVuSans-74" x="406.298828"/>
       <use xlink:href="#DejaVuSans-20" x="445.507812"/>
       <use xlink:href="#DejaVuSans-61" x="477.294922"/>
       <use xlink:href="#DejaVuSans-6c" x="538.574219"/>
       <use xlink:href="#DejaVuSans-2e" x="566.357422"/>
       <use xlink:href="#DejaVuSans-20" x="598.144531"/>
       <use xlink:href="#DejaVuSans-32" x="629.931641"/>
       <use xlink:href="#DejaVuSans-30" x="693.554688"/>
       <use xlink:href="#DejaVuSans-30" x="757.177734"/>
       <use xlink:href="#DejaVuSans-38" x="820.800781"/>
       <use xlink:href="#DejaVuSans-29" x="884.423828"/>
      </g>
     </g>
    </g>
    <g id="xtick_12">
     <g id="line2d_12">
      <g>
       <use xlink:href="#m1aef64735c" x="687.225" y="320.4" style="stroke: #000000; stroke-width: 0.8"/>
      </g>
     </g>
    </g>
   </g>
   <g id="matplotlib.axis_2">
    <g id="ytick_1">
     <g id="line2d_13">
      <defs>
       <path id="meec2b9e597" d="M 0 0 
L -3.5 0 
" style="stroke: #000000; stroke-width: 0.8"/>
      </defs>
      <g>
       <use xlink:href="#meec2b9e597" x="99" y="320.4" style="stroke: #000000; stroke-width: 0.8"/>
      </g>
     </g>
     <g id="text_7">
      <!-- −2 -->
      <g transform="translate(77.257812 324.199219) scale(0.1 -0.1)">
       <defs>
        <path id="DejaVuSans-2212" d="M 678 2272 
L 4684 2272 
L 4684 1741 
L 678 1741 
L 678 2272 
z
" transform="scale(0.015625)"/>
       </defs>
       <use xlink:href="#DejaVuSans-2212"/>
       <use xlink:href="#DejaVuSans-32" x="83.789062"/>
      </g>
     </g>
    </g>
    <g id="ytick_2">
     <g id="line2d_14">
      <g>
       <use xlink:href="#meec2b9e597" x="99" y="274.2" style="stroke: #000000; stroke-width: 0.8"/>
      </g>
     </g>
     <g id="text_8">
      <!-- −1 -->
      <g transform="translate(77.257812 277.999219) scale(0.1 -0.1)">
       <use xlink:href="#DejaVuSans-2212"/>
       <use xlink:href="#DejaVuSans-31" x="83.789062"/>
      </g>
     </g>
    </g>
    <g id="ytick_3">
     <g id="line2d_15">
      <g>
       <use xlink:href="#meec2b9e597" x="99" y="228" style="stroke: #000000; stroke-width: 0.8"/>
      </g>
     </g>
     <g id="text_9">
      <!-- 0 -->
      <g transform="translate(85.6375 231.799219) scale(0.1 -0.1)">
       <use xlink:href="#DejaVuSans-30"/>
      </g>
     </g>
    </g>
    <g id="ytick_4">
     <g id="line2d_16">
      <g>
       <use xlink:href="#meec2b9e597" x="99" y="181.8" style="stroke: #000000; stroke-width: 0.8"/>
      </g>
     </g>
     <g id="text_10">
      <!-- 1 -->
      <g transform="translate(85.6375 185.599219) scale(0.1 -0.1)">
       <use xlink:href="#DejaVuSans-31"/>
      </g>
     </g>
    </g>
    <g id="ytick_5">
     <g id="line2d_17">
      <g>
       <use xlink:href="#meec2b9e597" x="99" y="135.6" style="stroke: #000000; stroke-width: 0.8"/>
      </g>
     </g>
     <g id="text_11">
      <!-- 2 -->
      <g transform="translate(85.6375 139.399219) scale(0.1 -0.1)">
       <use xlink:href="#DejaVuSans-32"/>
      </g>
     </g>
    </g>
    <g id="ytick_6">
     <g id="line2d_18">
      <g>
       <use xlink:href="#meec2b9e597" x="99" y="89.4" style="stroke: #000000; stroke-width: 0.8"/>
      </g>
     </g>
     <g id="text_12">
      <!-- 3 -->
      <g transform="translate(85.6375 93.199219) scale(0.1 -0.1)">
       <defs>
        <path id="DejaVuSans-33" d="M 2597 2516 
Q 3050 2419 3304 2112 
Q 3559 1806 3559 1356 
Q 3559 666 3084 287 
Q 2609 -91 1734 -91 
Q 1441 -91 1130 -33 
Q 819 25 488 141 
L 488 750 
Q 750 597 1062 519 
Q 1375 441 1716 441 
Q 2309 441 2620 675 
Q 2931 909 2931 1356 
Q 2931 1769 2642 2001 
Q 2353 2234 1838 2234 
L 1294 2234 
L 1294 2753 
L 1863 2753 
Q 2328 2753 2575 2939 
Q 2822 3125 2822 3475 
Q 2822 3834 2567 4026 
Q 2313 4219 1838 4219 
Q 1578 4219 1281 4162 
Q 984 4106 628 3988 
L 628 4550 
Q 988 4650 1302 4700 
Q 1616 4750 1894 4750 
Q 2613 4750 3031 4423 
Q 3450 4097 3450 3541 
Q 3450 3153 3228 2886 
Q 3006 2619 2597 2516 
z
" transform="scale(0.015625)"/>
       </defs>
       <use xlink:href="#DejaVuSans-33"/>
      </g>
     </g>
    </g>
    <g id="ytick_7">
     <g id="line2d_19">
      <g>
       <use xlink:href="#meec2b9e597" x="99" y="43.2" style="stroke: #000000; stroke-width: 0.8"/>
      </g>
     </g>
     <g id="text_13">
      <!-- 4 -->
      <g transform="translate(85.6375 46.999219) scale(0.1 -0.1)">
       <use xlink:href="#DejaVuSans-34"/>
      </g>
     </g>
    </g>
    <g id="text_14">
     <!-- $\mathrm{log2FC}$ mbx2 -->
     <g transform="translate(69.897813 234.52) rotate(-90) scale(0.16 -0.16)">
      <defs>
       <path id="DejaVuSans-46" d="M 628 4666 
L 3309 4666 
L 3309 4134 
L 1259 4134 
L 1259 2759 
L 3109 2759 
L 3109 2228 
L 1259 2228 
L 1259 0 
L 628 0 
L 628 4666 
z
" transform="scale(0.015625)"/>
       <path id="DejaVuSans-Oblique-20" transform="scale(0.015625)"/>
       <path id="DejaVuSans-Oblique-6d" d="M 5747 2113 
L 5338 0 
L 4763 0 
L 5166 2094 
Q 5191 2228 5203 2325 
Q 5216 2422 5216 2491 
Q 5216 2772 5059 2928 
Q 4903 3084 4622 3084 
Q 4203 3084 3875 2770 
Q 3547 2456 3450 1953 
L 3066 0 
L 2491 0 
L 2900 2094 
Q 2925 2209 2937 2307 
Q 2950 2406 2950 2484 
Q 2950 2769 2794 2926 
Q 2638 3084 2363 3084 
Q 1938 3084 1609 2770 
Q 1281 2456 1184 1953 
L 800 0 
L 225 0 
L 909 3500 
L 1484 3500 
L 1375 2956 
Q 1609 3263 1923 3423 
Q 2238 3584 2597 3584 
Q 2978 3584 3223 3384 
Q 3469 3184 3519 2828 
Q 3781 3197 4126 3390 
Q 4472 3584 4856 3584 
Q 5306 3584 5551 3325 
Q 5797 3066 5797 2591 
Q 5797 2488 5784 2364 
Q 5772 2241 5747 2113 
z
" transform="scale(0.015625)"/>
       <path id="DejaVuSans-Oblique-62" d="M 3169 2138 
Q 3169 2591 2961 2847 
Q 2753 3103 2388 3103 
Q 2122 3103 1889 2973 
Q 1656 2844 1484 2597 
Q 1303 2338 1198 1995 
Q 1094 1653 1094 1313 
Q 1094 881 1298 636 
Q 1503 391 1863 391 
Q 2134 391 2365 517 
Q 2597 644 2772 891 
Q 2950 1147 3059 1487 
Q 3169 1828 3169 2138 
z
M 1381 2969 
Q 1594 3256 1914 3420 
Q 2234 3584 2584 3584 
Q 3122 3584 3439 3221 
Q 3756 2859 3756 2241 
Q 3756 1734 3570 1259 
Q 3384 784 3041 416 
Q 2816 172 2522 40 
Q 2228 -91 1906 -91 
Q 1566 -91 1316 65 
Q 1066 222 909 531 
L 806 0 
L 231 0 
L 1178 4863 
L 1753 4863 
L 1381 2969 
z
" transform="scale(0.015625)"/>
       <path id="DejaVuSans-Oblique-78" d="M 3841 3500 
L 2234 1784 
L 3219 0 
L 2559 0 
L 1819 1388 
L 531 0 
L -166 0 
L 1556 1844 
L 641 3500 
L 1300 3500 
L 1972 2234 
L 3144 3500 
L 3841 3500 
z
" transform="scale(0.015625)"/>
       <path id="DejaVuSans-Oblique-32" d="M 2950 2253 
L 934 525 
L 3163 525 
L 3053 0 
L 25 0 
L 128 531 
L 2234 2338 
Q 2656 2703 2832 2979 
Q 3009 3256 3009 3547 
Q 3009 3850 2796 4040 
Q 2584 4231 2241 4231 
Q 1944 4231 1581 4125 
Q 1219 4019 806 3816 
L 922 4441 
Q 1309 4594 1662 4672 
Q 2016 4750 2316 4750 
Q 2928 4750 3301 4425 
Q 3675 4100 3675 3572 
Q 3675 3216 3497 2892 
Q 3319 2569 2950 2253 
z
" transform="scale(0.015625)"/>
      </defs>
      <use xlink:href="#DejaVuSans-6c" transform="translate(0 0.015625)"/>
      <use xlink:href="#DejaVuSans-6f" transform="translate(27.783203 0.015625)"/>
      <use xlink:href="#DejaVuSans-67" transform="translate(88.964844 0.015625)"/>
      <use xlink:href="#DejaVuSans-32" transform="translate(152.441406 0.015625)"/>
      <use xlink:href="#DejaVuSans-46" transform="translate(216.064453 0.015625)"/>
      <use xlink:href="#DejaVuSans-43" transform="translate(273.583984 0.015625)"/>
      <use xlink:href="#DejaVuSans-Oblique-20" transform="translate(343.408203 0.015625)"/>
      <use xlink:href="#DejaVuSans-Oblique-6d" transform="translate(375.195312 0.015625)"/>
      <use xlink:href="#DejaVuSans-Oblique-62" transform="translate(472.607422 0.015625)"/>
      <use xlink:href="#DejaVuSans-Oblique-78" transform="translate(536.083984 0.015625)"/>
      <use xlink:href="#DejaVuSans-Oblique-32" transform="translate(595.263672 0.015625)"/>
     </g>
    </g>
   </g>
   <g id="line2d_20">
    <path clip-path="url(#p6862f888bf)" style="fill: none; stroke: #424242; stroke-width: 2.25; stroke-linecap: square"/>
   </g>
   <g id="line2d_21">
    <path clip-path="url(#p6862f888bf)" style="fill: none; stroke: #424242; stroke-width: 2.25; stroke-linecap: square"/>
   </g>
   <g id="line2d_22">
    <path clip-path="url(#p6862f888bf)" style="fill: none; stroke: #424242; stroke-width: 2.25; stroke-linecap: square"/>
   </g>
   <g id="line2d_23">
    <path clip-path="url(#p6862f888bf)" style="fill: none; stroke: #424242; stroke-width: 2.25; stroke-linecap: square"/>
   </g>
   <g id="line2d_24">
    <path clip-path="url(#p6862f888bf)" style="fill: none; stroke: #424242; stroke-width: 2.25; stroke-linecap: square"/>
   </g>
   <g id="line2d_25">
    <path clip-path="url(#p6862f888bf)" style="fill: none; stroke: #424242; stroke-width: 2.25; stroke-linecap: square"/>
   </g>
   <g id="line2d_26">
    <path clip-path="url(#p6862f888bf)" style="fill: none; stroke: #424242; stroke-width: 2.25; stroke-linecap: square"/>
   </g>
   <g id="line2d_27">
    <path clip-path="url(#p6862f888bf)" style="fill: none; stroke: #424242; stroke-width: 2.25; stroke-linecap: square"/>
   </g>
   <g id="line2d_28">
    <path clip-path="url(#p6862f888bf)" style="fill: none; stroke: #424242; stroke-width: 2.25; stroke-linecap: square"/>
   </g>
   <g id="line2d_29">
    <path clip-path="url(#p6862f888bf)" style="fill: none; stroke: #424242; stroke-width: 2.25; stroke-linecap: square"/>
   </g>
   <g id="line2d_30">
    <path clip-path="url(#p6862f888bf)" style="fill: none; stroke: #424242; stroke-width: 2.25; stroke-linecap: square"/>
   </g>
   <g id="line2d_31">
    <path clip-path="url(#p6862f888bf)" style="fill: none; stroke: #424242; stroke-width: 2.25; stroke-linecap: square"/>
   </g>
   <g id="patch_15">
    <path d="M 99 320.4 
L 99 43.2 
" style="fill: none; stroke: #000000; stroke-width: 0.8; stroke-linejoin: miter; stroke-linecap: square"/>
   </g>
   <g id="patch_16">
    <path d="M 712.8 320.4 
L 712.8 43.2 
" style="fill: none; stroke: #000000; stroke-width: 0.8; stroke-linejoin: miter; stroke-linecap: square"/>
   </g>
   <g id="patch_17">
    <path d="M 99 320.4 
L 712.8 320.4 
" style="fill: none; stroke: #000000; stroke-width: 0.8; stroke-linejoin: miter; stroke-linecap: square"/>
   </g>
   <g id="patch_18">
    <path d="M 99 43.2 
L 712.8 43.2 
" style="fill: none; stroke: #000000; stroke-width: 0.8; stroke-linejoin: miter; stroke-linecap: square"/>
   </g>
   <g id="text_15">
    <!-- fkh2::ura4+_6hr -->
    <g transform="translate(140.481232 461.762628) rotate(-35) scale(0.1 -0.1)">
     <defs>
      <path id="DejaVuSans-36" d="M 2113 2584 
Q 1688 2584 1439 2293 
Q 1191 2003 1191 1497 
Q 1191 994 1439 701 
Q 1688 409 2113 409 
Q 2538 409 2786 701 
Q 3034 994 3034 1497 
Q 3034 2003 2786 2293 
Q 2538 2584 2113 2584 
z
M 3366 4563 
L 3366 3988 
Q 3128 4100 2886 4159 
Q 2644 4219 2406 4219 
Q 1781 4219 1451 3797 
Q 1122 3375 1075 2522 
Q 1259 2794 1537 2939 
Q 1816 3084 2150 3084 
Q 2853 3084 3261 2657 
Q 3669 2231 3669 1497 
Q 3669 778 3244 343 
Q 2819 -91 2113 -91 
Q 1303 -91 875 529 
Q 447 1150 447 2328 
Q 447 3434 972 4092 
Q 1497 4750 2381 4750 
Q 2619 4750 2861 4703 
Q 3103 4656 3366 4563 
z
" transform="scale(0.015625)"/>
     </defs>
     <use xlink:href="#DejaVuSans-66"/>
     <use xlink:href="#DejaVuSans-6b" x="35.205078"/>
     <use xlink:href="#DejaVuSans-68" x="93.115234"/>
     <use xlink:href="#DejaVuSans-32" x="156.494141"/>
     <use xlink:href="#DejaVuSans-3a" x="220.117188"/>
     <use xlink:href="#DejaVuSans-3a" x="253.808594"/>
     <use xlink:href="#DejaVuSans-75" x="287.5"/>
     <use xlink:href="#DejaVuSans-72" x="350.878906"/>
     <use xlink:href="#DejaVuSans-61" x="391.992188"/>
     <use xlink:href="#DejaVuSans-34" x="453.271484"/>
     <use xlink:href="#DejaVuSans-2b" x="516.894531"/>
     <use xlink:href="#DejaVuSans-5f" x="600.683594"/>
     <use xlink:href="#DejaVuSans-36" x="650.683594"/>
     <use xlink:href="#DejaVuSans-68" x="714.306641"/>
     <use xlink:href="#DejaVuSans-72" x="777.685547"/>
    </g>
    <!-- (Garg et al. 2015) -->
    <g transform="translate(144.103093 473.236107) rotate(-35) scale(0.1 -0.1)">
     <use xlink:href="#DejaVuSans-28"/>
     <use xlink:href="#DejaVuSans-47" x="39.013672"/>
     <use xlink:href="#DejaVuSans-61" x="116.503906"/>
     <use xlink:href="#DejaVuSans-72" x="177.783203"/>
     <use xlink:href="#DejaVuSans-67" x="217.146484"/>
     <use xlink:href="#DejaVuSans-20" x="280.623047"/>
     <use xlink:href="#DejaVuSans-65" x="312.410156"/>
     <use xlink:href="#DejaVuSans-74" x="373.933594"/>
     <use xlink:href="#DejaVuSans-20" x="413.142578"/>
     <use xlink:href="#DejaVuSans-61" x="444.929688"/>
     <use xlink:href="#DejaVuSans-6c" x="506.208984"/>
     <use xlink:href="#DejaVuSans-2e" x="533.992188"/>
     <use xlink:href="#DejaVuSans-20" x="565.779297"/>
     <use xlink:href="#DejaVuSans-32" x="597.566406"/>
     <use xlink:href="#DejaVuSans-30" x="661.189453"/>
     <use xlink:href="#DejaVuSans-31" x="724.8125"/>
     <use xlink:href="#DejaVuSans-35" x="788.435547"/>
     <use xlink:href="#DejaVuSans-29" x="852.058594"/>
    </g>
   </g>
   <g id="text_16">
    <!-- fkh2::ura4+_10hr -->
    <g transform="translate(240.175305 463.587319) rotate(-35) scale(0.1 -0.1)">
     <use xlink:href="#DejaVuSans-66"/>
     <use xlink:href="#DejaVuSans-6b" x="35.205078"/>
     <use xlink:href="#DejaVuSans-68" x="93.115234"/>
     <use xlink:href="#DejaVuSans-32" x="156.494141"/>
     <use xlink:href="#DejaVuSans-3a" x="220.117188"/>
     <use xlink:href="#DejaVuSans-3a" x="253.808594"/>
     <use xlink:href="#DejaVuSans-75" x="287.5"/>
     <use xlink:href="#DejaVuSans-72" x="350.878906"/>
     <use xlink:href="#DejaVuSans-61" x="391.992188"/>
     <use xlink:href="#DejaVuSans-34" x="453.271484"/>
     <use xlink:href="#DejaVuSans-2b" x="516.894531"/>
     <use xlink:href="#DejaVuSans-5f" x="600.683594"/>
     <use xlink:href="#DejaVuSans-31" x="650.683594"/>
     <use xlink:href="#DejaVuSans-30" x="714.306641"/>
     <use xlink:href="#DejaVuSans-68" x="777.929688"/>
     <use xlink:href="#DejaVuSans-72" x="841.308594"/>
    </g>
    <!-- (Garg et al. 2015) -->
    <g transform="translate(246.403093 473.236107) rotate(-35) scale(0.1 -0.1)">
     <use xlink:href="#DejaVuSans-28"/>
     <use xlink:href="#DejaVuSans-47" x="39.013672"/>
     <use xlink:href="#DejaVuSans-61" x="116.503906"/>
     <use xlink:href="#DejaVuSans-72" x="177.783203"/>
     <use xlink:href="#DejaVuSans-67" x="217.146484"/>
     <use xlink:href="#DejaVuSans-20" x="280.623047"/>
     <use xlink:href="#DejaVuSans-65" x="312.410156"/>
     <use xlink:href="#DejaVuSans-74" x="373.933594"/>
     <use xlink:href="#DejaVuSans-20" x="413.142578"/>
     <use xlink:href="#DejaVuSans-61" x="444.929688"/>
     <use xlink:href="#DejaVuSans-6c" x="506.208984"/>
     <use xlink:href="#DejaVuSans-2e" x="533.992188"/>
     <use xlink:href="#DejaVuSans-20" x="565.779297"/>
     <use xlink:href="#DejaVuSans-32" x="597.566406"/>
     <use xlink:href="#DejaVuSans-30" x="661.189453"/>
     <use xlink:href="#DejaVuSans-31" x="724.8125"/>
     <use xlink:href="#DejaVuSans-35" x="788.435547"/>
     <use xlink:href="#DejaVuSans-29" x="852.058594"/>
    </g>
   </g>
   <g id="text_17">
    <!-- fkh2d -->
    <g transform="translate(367.080992 442.579374) rotate(-35) scale(0.1 -0.1)">
     <use xlink:href="#DejaVuSans-66"/>
     <use xlink:href="#DejaVuSans-6b" x="35.205078"/>
     <use xlink:href="#DejaVuSans-68" x="93.115234"/>
     <use xlink:href="#DejaVuSans-32" x="156.494141"/>
     <use xlink:href="#DejaVuSans-64" x="220.117188"/>
    </g>
    <!-- (Szilagyi et al. 2012) -->
    <g transform="translate(342.821429 473.236107) rotate(-35) scale(0.1 -0.1)">
     <use xlink:href="#DejaVuSans-28"/>
     <use xlink:href="#DejaVuSans-53" x="39.013672"/>
     <use xlink:href="#DejaVuSans-7a" x="102.490234"/>
     <use xlink:href="#DejaVuSans-69" x="154.980469"/>
     <use xlink:href="#DejaVuSans-6c" x="182.763672"/>
     <use xlink:href="#DejaVuSans-61" x="210.546875"/>
     <use xlink:href="#DejaVuSans-67" x="271.826172"/>
     <use xlink:href="#DejaVuSans-79" x="335.302734"/>
     <use xlink:href="#DejaVuSans-69" x="394.482422"/>
     <use xlink:href="#DejaVuSans-20" x="422.265625"/>
     <use xlink:href="#DejaVuSans-65" x="454.052734"/>
     <use xlink:href="#DejaVuSans-74" x="515.576172"/>
     <use xlink:href="#DejaVuSans-20" x="554.785156"/>
     <use xlink:href="#DejaVuSans-61" x="586.572266"/>
     <use xlink:href="#DejaVuSans-6c" x="647.851562"/>
     <use xlink:href="#DejaVuSans-2e" x="675.634766"/>
     <use xlink:href="#DejaVuSans-20" x="707.421875"/>
     <use xlink:href="#DejaVuSans-32" x="739.208984"/>
     <use xlink:href="#DejaVuSans-30" x="802.832031"/>
     <use xlink:href="#DejaVuSans-31" x="866.455078"/>
     <use xlink:href="#DejaVuSans-32" x="930.078125"/>
     <use xlink:href="#DejaVuSans-29" x="993.701172"/>
    </g>
   </g>
   <g id="text_18">
    <!-- srb11 truncation  -->
    <g transform="translate(442.464099 442.993455) rotate(-35) scale(0.1 -0.1)">
     <use xlink:href="#DejaVuSans-73"/>
     <use xlink:href="#DejaVuSans-72" x="52.099609"/>
     <use xlink:href="#DejaVuSans-62" x="93.212891"/>
     <use xlink:href="#DejaVuSans-31" x="156.689453"/>
     <use xlink:href="#DejaVuSans-31" x="220.3125"/>
     <use xlink:href="#DejaVuSans-20" x="283.935547"/>
     <use xlink:href="#DejaVuSans-74" x="315.722656"/>
     <use xlink:href="#DejaVuSans-72" x="354.931641"/>
     <use xlink:href="#DejaVuSans-75" x="396.044922"/>
     <use xlink:href="#DejaVuSans-6e" x="459.423828"/>
     <use xlink:href="#DejaVuSans-63" x="522.802734"/>
     <use xlink:href="#DejaVuSans-61" x="577.783203"/>
     <use xlink:href="#DejaVuSans-74" x="639.0625"/>
     <use xlink:href="#DejaVuSans-69" x="678.271484"/>
     <use xlink:href="#DejaVuSans-6f" x="706.054688"/>
     <use xlink:href="#DejaVuSans-6e" x="767.236328"/>
     <use xlink:href="#DejaVuSans-20" x="830.615234"/>
    </g>
    <!-- (EMM, RNA-seq, -->
    <g transform="translate(451.697616 450.198082) rotate(-35) scale(0.1 -0.1)">
     <defs>
      <path id="DejaVuSans-4e" d="M 628 4666 
L 1478 4666 
L 3547 763 
L 3547 4666 
L 4159 4666 
L 4159 0 
L 3309 0 
L 1241 3903 
L 1241 0 
L 628 0 
L 628 4666 
z
" transform="scale(0.015625)"/>
      <path id="DejaVuSans-41" d="M 2188 4044 
L 1331 1722 
L 3047 1722 
L 2188 4044 
z
M 1831 4666 
L 2547 4666 
L 4325 0 
L 3669 0 
L 3244 1197 
L 1141 1197 
L 716 0 
L 50 0 
L 1831 4666 
z
" transform="scale(0.015625)"/>
     </defs>
     <use xlink:href="#DejaVuSans-28"/>
     <use xlink:href="#DejaVuSans-45" x="39.013672"/>
     <use xlink:href="#DejaVuSans-4d" x="102.197266"/>
     <use xlink:href="#DejaVuSans-4d" x="188.476562"/>
     <use xlink:href="#DejaVuSans-2c" x="274.755859"/>
     <use xlink:href="#DejaVuSans-20" x="306.542969"/>
     <use xlink:href="#DejaVuSans-52" x="338.330078"/>
     <use xlink:href="#DejaVuSans-4e" x="407.8125"/>
     <use xlink:href="#DejaVuSans-41" x="482.617188"/>
     <use xlink:href="#DejaVuSans-2d" x="548.775391"/>
     <use xlink:href="#DejaVuSans-73" x="584.859375"/>
     <use xlink:href="#DejaVuSans-65" x="636.958984"/>
     <use xlink:href="#DejaVuSans-71" x="698.482422"/>
     <use xlink:href="#DejaVuSans-2c" x="761.958984"/>
    </g>
    <!-- Clement-Ziza et al. 2014) -->
    <g transform="translate(438.318696 473.236107) rotate(-35) scale(0.1 -0.1)">
     <defs>
      <path id="DejaVuSans-5a" d="M 359 4666 
L 4025 4666 
L 4025 4184 
L 1075 531 
L 4097 531 
L 4097 0 
L 288 0 
L 288 481 
L 3238 4134 
L 359 4134 
L 359 4666 
z
" transform="scale(0.015625)"/>
     </defs>
     <use xlink:href="#DejaVuSans-43"/>
     <use xlink:href="#DejaVuSans-6c" x="69.824219"/>
     <use xlink:href="#DejaVuSans-65" x="97.607422"/>
     <use xlink:href="#DejaVuSans-6d" x="159.130859"/>
     <use xlink:href="#DejaVuSans-65" x="256.542969"/>
     <use xlink:href="#DejaVuSans-6e" x="318.066406"/>
     <use xlink:href="#DejaVuSans-74" x="381.445312"/>
     <use xlink:href="#DejaVuSans-2d" x="420.654297"/>
     <use xlink:href="#DejaVuSans-5a" x="456.738281"/>
     <use xlink:href="#DejaVuSans-69" x="525.244141"/>
     <use xlink:href="#DejaVuSans-7a" x="553.027344"/>
     <use xlink:href="#DejaVuSans-61" x="605.517578"/>
     <use xlink:href="#DejaVuSans-20" x="666.796875"/>
     <use xlink:href="#DejaVuSans-65" x="698.583984"/>
     <use xlink:href="#DejaVuSans-74" x="760.107422"/>
     <use xlink:href="#DejaVuSans-20" x="799.316406"/>
     <use xlink:href="#DejaVuSans-61" x="831.103516"/>
     <use xlink:href="#DejaVuSans-6c" x="892.382812"/>
     <use xlink:href="#DejaVuSans-2e" x="920.166016"/>
     <use xlink:href="#DejaVuSans-20" x="951.953125"/>
     <use xlink:href="#DejaVuSans-32" x="983.740234"/>
     <use xlink:href="#DejaVuSans-30" x="1047.363281"/>
     <use xlink:href="#DejaVuSans-31" x="1110.986328"/>
     <use xlink:href="#DejaVuSans-34" x="1174.609375"/>
     <use xlink:href="#DejaVuSans-29" x="1238.232422"/>
    </g>
   </g>
   <g id="text_19">
    <!-- srb11 deletion  -->
    <g transform="translate(552.439878 462.99287) rotate(-35) scale(0.1 -0.1)">
     <use xlink:href="#DejaVuSans-73"/>
     <use xlink:href="#DejaVuSans-72" x="52.099609"/>
     <use xlink:href="#DejaVuSans-62" x="93.212891"/>
     <use xlink:href="#DejaVuSans-31" x="156.689453"/>
     <use xlink:href="#DejaVuSans-31" x="220.3125"/>
     <use xlink:href="#DejaVuSans-20" x="283.935547"/>
     <use xlink:href="#DejaVuSans-64" x="315.722656"/>
     <use xlink:href="#DejaVuSans-65" x="379.199219"/>
     <use xlink:href="#DejaVuSans-6c" x="440.722656"/>
     <use xlink:href="#DejaVuSans-65" x="468.505859"/>
     <use xlink:href="#DejaVuSans-74" x="530.029297"/>
     <use xlink:href="#DejaVuSans-69" x="569.238281"/>
     <use xlink:href="#DejaVuSans-6f" x="597.021484"/>
     <use xlink:href="#DejaVuSans-6e" x="658.203125"/>
     <use xlink:href="#DejaVuSans-20" x="721.582031"/>
    </g>
    <!-- (EMM, RT-qPCR) -->
    <g transform="translate(557.333809 473.236107) rotate(-35) scale(0.1 -0.1)">
     <use xlink:href="#DejaVuSans-28"/>
     <use xlink:href="#DejaVuSans-45" x="39.013672"/>
     <use xlink:href="#DejaVuSans-4d" x="102.197266"/>
     <use xlink:href="#DejaVuSans-4d" x="188.476562"/>
     <use xlink:href="#DejaVuSans-2c" x="274.755859"/>
     <use xlink:href="#DejaVuSans-20" x="306.542969"/>
     <use xlink:href="#DejaVuSans-52" x="338.330078"/>
     <use xlink:href="#DejaVuSans-54" x="400.5625"/>
     <use xlink:href="#DejaVuSans-2d" x="452.521484"/>
     <use xlink:href="#DejaVuSans-71" x="488.605469"/>
     <use xlink:href="#DejaVuSans-50" x="552.082031"/>
     <use xlink:href="#DejaVuSans-43" x="612.384766"/>
     <use xlink:href="#DejaVuSans-52" x="682.208984"/>
     <use xlink:href="#DejaVuSans-29" x="751.691406"/>
    </g>
   </g>
   <g id="text_20">
    <!-- med12 deletion  -->
    <g transform="translate(648.836155 451.898678) rotate(-35) scale(0.1 -0.1)">
     <use xlink:href="#DejaVuSans-6d"/>
     <use xlink:href="#DejaVuSans-65" x="97.412109"/>
     <use xlink:href="#DejaVuSans-64" x="158.935547"/>
     <use xlink:href="#DejaVuSans-31" x="222.412109"/>
     <use xlink:href="#DejaVuSans-32" x="286.035156"/>
     <use xlink:href="#DejaVuSans-20" x="349.658203"/>
     <use xlink:href="#DejaVuSans-64" x="381.445312"/>
     <use xlink:href="#DejaVuSans-65" x="444.921875"/>
     <use xlink:href="#DejaVuSans-6c" x="506.445312"/>
     <use xlink:href="#DejaVuSans-65" x="534.228516"/>
     <use xlink:href="#DejaVuSans-74" x="595.751953"/>
     <use xlink:href="#DejaVuSans-69" x="634.960938"/>
     <use xlink:href="#DejaVuSans-6f" x="662.744141"/>
     <use xlink:href="#DejaVuSans-6e" x="723.925781"/>
     <use xlink:href="#DejaVuSans-20" x="787.304688"/>
    </g>
    <!-- (EMM, microarray, -->
    <g transform="translate(651.431981 463.751066) rotate(-35) scale(0.1 -0.1)">
     <use xlink:href="#DejaVuSans-28"/>
     <use xlink:href="#DejaVuSans-45" x="39.013672"/>
     <use xlink:href="#DejaVuSans-4d" x="102.197266"/>
     <use xlink:href="#DejaVuSans-4d" x="188.476562"/>
     <use xlink:href="#DejaVuSans-2c" x="274.755859"/>
     <use xlink:href="#DejaVuSans-20" x="306.542969"/>
     <use xlink:href="#DejaVuSans-6d" x="338.330078"/>
     <use xlink:href="#DejaVuSans-69" x="435.742188"/>
     <use xlink:href="#DejaVuSans-63" x="463.525391"/>
     <use xlink:href="#DejaVuSans-72" x="518.505859"/>
     <use xlink:href="#DejaVuSans-6f" x="557.369141"/>
     <use xlink:href="#DejaVuSans-61" x="618.550781"/>
     <use xlink:href="#DejaVuSans-72" x="679.830078"/>
     <use xlink:href="#DejaVuSans-72" x="719.193359"/>
     <use xlink:href="#DejaVuSans-61" x="760.306641"/>
     <use xlink:href="#DejaVuSans-79" x="821.585938"/>
     <use xlink:href="#DejaVuSans-2c" x="880.765625"/>
    </g>
    <!-- Linder et al. 2008) -->
    <g transform="translate(657.408728 473.236107) rotate(-35) scale(0.1 -0.1)">
     <use xlink:href="#DejaVuSans-4c"/>
     <use xlink:href="#DejaVuSans-69" x="55.712891"/>
     <use xlink:href="#DejaVuSans-6e" x="83.496094"/>
     <use xlink:href="#DejaVuSans-64" x="146.875"/>
     <use xlink:href="#DejaVuSans-65" x="210.351562"/>
     <use xlink:href="#DejaVuSans-72" x="271.875"/>
     <use xlink:href="#DejaVuSans-20" x="312.988281"/>
     <use xlink:href="#DejaVuSans-65" x="344.775391"/>
     <use xlink:href="#DejaVuSans-74" x="406.298828"/>
     <use xlink:href="#DejaVuSans-20" x="445.507812"/>
     <use xlink:href="#DejaVuSans-61" x="477.294922"/>
     <use xlink:href="#DejaVuSans-6c" x="538.574219"/>
     <use xlink:href="#DejaVuSans-2e" x="566.357422"/>
     <use xlink:href="#DejaVuSans-20" x="598.144531"/>
     <use xlink:href="#DejaVuSans-32" x="629.931641"/>
     <use xlink:href="#DejaVuSans-30" x="693.554688"/>
     <use xlink:href="#DejaVuSans-30" x="757.177734"/>
     <use xlink:href="#DejaVuSans-38" x="820.800781"/>
     <use xlink:href="#DejaVuSans-29" x="884.423828"/>
    </g>
   </g>
   <g id="text_21">
    <!-- mbx2 $\mathrm{levels\ in\ fkh2Δ\ strains\ compared\ to\ CKM\ deletions}$ -->
    <g transform="translate(179.18 37.2) scale(0.16 -0.16)">
     <defs>
      <path id="DejaVuSans-76" d="M 191 3500 
L 800 3500 
L 1894 563 
L 2988 3500 
L 3597 3500 
L 2284 0 
L 1503 0 
L 191 3500 
z
" transform="scale(0.015625)"/>
      <path id="DejaVuSans-394" d="M 2188 4044 
L 906 525 
L 3472 525 
L 2188 4044 
z
M 50 0 
L 1831 4666 
L 2547 4666 
L 4325 0 
L 50 0 
z
" transform="scale(0.015625)"/>
      <path id="DejaVuSans-70" d="M 1159 525 
L 1159 -1331 
L 581 -1331 
L 581 3500 
L 1159 3500 
L 1159 2969 
Q 1341 3281 1617 3432 
Q 1894 3584 2278 3584 
Q 2916 3584 3314 3078 
Q 3713 2572 3713 1747 
Q 3713 922 3314 415 
Q 2916 -91 2278 -91 
Q 1894 -91 1617 61 
Q 1341 213 1159 525 
z
M 3116 1747 
Q 3116 2381 2855 2742 
Q 2594 3103 2138 3103 
Q 1681 3103 1420 2742 
Q 1159 2381 1159 1747 
Q 1159 1113 1420 752 
Q 1681 391 2138 391 
Q 2594 391 2855 752 
Q 3116 1113 3116 1747 
z
" transform="scale(0.015625)"/>
      <path id="DejaVuSans-4b" d="M 628 4666 
L 1259 4666 
L 1259 2694 
L 3353 4666 
L 4166 4666 
L 1850 2491 
L 4331 0 
L 3500 0 
L 1259 2247 
L 1259 0 
L 628 0 
L 628 4666 
z
" transform="scale(0.015625)"/>
     </defs>
     <use xlink:href="#DejaVuSans-Oblique-6d" transform="translate(0 0.015625)"/>
     <use xlink:href="#DejaVuSans-Oblique-62" transform="translate(97.412109 0.015625)"/>
     <use xlink:href="#DejaVuSans-Oblique-78" transform="translate(160.888672 0.015625)"/>
     <use xlink:href="#DejaVuSans-Oblique-32" transform="translate(220.068359 0.015625)"/>
     <use xlink:href="#DejaVuSans-Oblique-20" transform="translate(283.691406 0.015625)"/>
     <use xlink:href="#DejaVuSans-6c" transform="translate(315.478516 0.015625)"/>
     <use xlink:href="#DejaVuSans-65" transform="translate(343.261719 0.015625)"/>
     <use xlink:href="#DejaVuSans-76" transform="translate(404.785156 0.015625)"/>
     <use xlink:href="#DejaVuSans-65" transform="translate(463.964844 0.015625)"/>
     <use xlink:href="#DejaVuSans-6c" transform="translate(525.488281 0.015625)"/>
     <use xlink:href="#DejaVuSans-73" transform="translate(553.271484 0.015625)"/>
     <use xlink:href="#DejaVuSans-69" transform="translate(637.841472 0.015625)"/>
     <use xlink:href="#DejaVuSans-6e" transform="translate(665.624675 0.015625)"/>
     <use xlink:href="#DejaVuSans-66" transform="translate(761.47396 0.015625)"/>
     <use xlink:href="#DejaVuSans-6b" transform="translate(796.679038 0.015625)"/>
     <use xlink:href="#DejaVuSans-68" transform="translate(854.589194 0.015625)"/>
     <use xlink:href="#DejaVuSans-32" transform="translate(917.968101 0.015625)"/>
     <use xlink:href="#DejaVuSans-394" transform="translate(981.591147 0.015625)"/>
     <use xlink:href="#DejaVuSans-73" transform="translate(1082.469729 0.015625)"/>
     <use xlink:href="#DejaVuSans-74" transform="translate(1134.569338 0.015625)"/>
     <use xlink:href="#DejaVuSans-72" transform="translate(1173.778323 0.015625)"/>
     <use xlink:href="#DejaVuSans-61" transform="translate(1214.891604 0.015625)"/>
     <use xlink:href="#DejaVuSans-69" transform="translate(1276.170901 0.015625)"/>
     <use xlink:href="#DejaVuSans-6e" transform="translate(1303.954104 0.015625)"/>
     <use xlink:href="#DejaVuSans-73" transform="translate(1367.33301 0.015625)"/>
     <use xlink:href="#DejaVuSans-63" transform="translate(1451.902998 0.015625)"/>
     <use xlink:href="#DejaVuSans-6f" transform="translate(1506.883467 0.015625)"/>
     <use xlink:href="#DejaVuSans-6d" transform="translate(1568.065107 0.015625)"/>
     <use xlink:href="#DejaVuSans-70" transform="translate(1665.477217 0.015625)"/>
     <use xlink:href="#DejaVuSans-61" transform="translate(1728.953779 0.015625)"/>
     <use xlink:href="#DejaVuSans-72" transform="translate(1790.233076 0.015625)"/>
     <use xlink:href="#DejaVuSans-65" transform="translate(1831.346357 0.015625)"/>
     <use xlink:href="#DejaVuSans-64" transform="translate(1892.869795 0.015625)"/>
     <use xlink:href="#DejaVuSans-74" transform="translate(1988.816736 0.015625)"/>
     <use xlink:href="#DejaVuSans-6f" transform="translate(2028.02572 0.015625)"/>
     <use xlink:href="#DejaVuSans-43" transform="translate(2121.677739 0.015625)"/>
     <use xlink:href="#DejaVuSans-4b" transform="translate(2191.501958 0.015625)"/>
     <use xlink:href="#DejaVuSans-4d" transform="translate(2257.07813 0.015625)"/>
     <use xlink:href="#DejaVuSans-64" transform="translate(2375.827805 0.015625)"/>
     <use xlink:href="#DejaVuSans-65" transform="translate(2439.304368 0.015625)"/>
     <use xlink:href="#DejaVuSans-6c" transform="translate(2500.827805 0.015625)"/>
     <use xlink:href="#DejaVuSans-65" transform="translate(2528.611008 0.015625)"/>
     <use xlink:href="#DejaVuSans-74" transform="translate(2590.134446 0.015625)"/>
     <use xlink:href="#DejaVuSans-69" transform="translate(2629.34343 0.015625)"/>
     <use xlink:href="#DejaVuSans-6f" transform="translate(2657.126633 0.015625)"/>
     <use xlink:href="#DejaVuSans-6e" transform="translate(2718.308274 0.015625)"/>
     <use xlink:href="#DejaVuSans-73" transform="translate(2781.68718 0.015625)"/>
    </g>
   </g>
   <g id="legend_1">
    <g id="patch_19">
     <path d="M 107.4 88.0275 
L 231.1725 88.0275 
Q 233.5725 88.0275 233.5725 85.6275 
L 233.5725 51.6 
Q 233.5725 49.2 231.1725 49.2 
L 107.4 49.2 
Q 105 49.2 105 51.6 
L 105 85.6275 
Q 105 88.0275 107.4 88.0275 
z
" style="fill: #ffffff; opacity: 0.8; stroke: #cccccc; stroke-linejoin: miter"/>
    </g>
    <g id="patch_20">
     <path d="M 109.8 63.118125 
L 133.8 63.118125 
L 133.8 54.718125 
L 109.8 54.718125 
z
" style="fill: #ff0000; stroke: #ff0000; stroke-linejoin: miter"/>
    </g>
    <g id="text_22">
     <!-- fkh2Δ -->
     <g transform="translate(143.4 63.118125) scale(0.12 -0.12)">
      <use xlink:href="#DejaVuSans-66"/>
      <use xlink:href="#DejaVuSans-6b" x="35.205078"/>
      <use xlink:href="#DejaVuSans-68" x="93.115234"/>
      <use xlink:href="#DejaVuSans-32" x="156.494141"/>
      <use xlink:href="#DejaVuSans-394" x="220.117188"/>
     </g>
    </g>
    <g id="patch_21">
     <path d="M 109.8 80.731875 
L 133.8 80.731875 
L 133.8 72.331875 
L 109.8 72.331875 
z
" style="fill: #0000ff; stroke: #0000ff; stroke-linejoin: miter"/>
    </g>
    <g id="text_23">
     <!-- CKM deletions -->
     <g transform="translate(143.4 80.731875) scale(0.12 -0.12)">
      <use xlink:href="#DejaVuSans-43"/>
      <use xlink:href="#DejaVuSans-4b" x="69.824219"/>
      <use xlink:href="#DejaVuSans-4d" x="135.400391"/>
      <use xlink:href="#DejaVuSans-20" x="221.679688"/>
      <use xlink:href="#DejaVuSans-64" x="253.466797"/>
      <use xlink:href="#DejaVuSans-65" x="316.943359"/>
      <use xlink:href="#DejaVuSans-6c" x="378.466797"/>
      <use xlink:href="#DejaVuSans-65" x="406.25"/>
      <use xlink:href="#DejaVuSans-74" x="467.773438"/>
      <use xlink:href="#DejaVuSans-69" x="506.982422"/>
      <use xlink:href="#DejaVuSans-6f" x="534.765625"/>
      <use xlink:href="#DejaVuSans-6e" x="595.947266"/>
      <use xlink:href="#DejaVuSans-73" x="659.326172"/>
     </g>
    </g>
   </g>
  </g>
 </g>
 <defs>
  <clipPath id="p6862f888bf">
   <rect x="99" y="43.2" width="613.8" height="277.2"/>
  </clipPath>
 </defs>
</svg>
