<?xml version="1.0" encoding="utf-8" standalone="no"?>
<!DOCTYPE svg PUBLIC "-//W3C//DTD SVG 1.1//EN"
  "http://www.w3.org/Graphics/SVG/1.1/DTD/svg11.dtd">
<svg height="108pt" version="1.1" viewBox="0 0 432 108" width="432pt" xmlns="http://www.w3.org/2000/svg" xmlns:xlink="http://www.w3.org/1999/xlink">
 <metadata>
  <rdf:RDF xmlns:cc="http://creativecommons.org/ns#" xmlns:dc="http://purl.org/dc/elements/1.1/" xmlns:rdf="http://www.w3.org/1999/02/22-rdf-syntax-ns#">
   <cc:Work>
    <dc:type rdf:resource="http://purl.org/dc/dcmitype/StillImage"/>
    <dc:date>2023-08-20T14:20:26.758081</dc:date>
    <dc:format>image/svg+xml</dc:format>
    <dc:creator>
     <cc:Agent>
      <dc:title>Matplotlib v3.4.3, https://matplotlib.org/</dc:title>
     </cc:Agent>
    </dc:creator>
   </cc:Work>
  </rdf:RDF>
 </metadata>
 <defs>
  <style type="text/css">*{stroke-linecap:butt;stroke-linejoin:round;}</style>
 </defs>
 <g id="figure_1">
  <g id="patch_1">
   <path d="M 0 108 
L 432 108 
L 432 0 
L 0 0 
z
" style="fill:#ffffff;"/>
  </g>
  <g id="axes_1">
   <g id="patch_2">
    <path d="M 54 96.12 
L 388.8 96.12 
L 388.8 12.96 
L 54 12.96 
z
" style="fill:#ffffff;"/>
   </g>
   <g id="patch_3">
    <path clip-path="url(#p39646075b7)" d="M 54 96.12 
L 68.431034 96.12 
L 68.431034 96.12 
L 54 96.12 
z
" style="fill:#800080;fill-opacity:0.5;stroke:#000000;stroke-linejoin:miter;"/>
   </g>
   <g id="patch_4">
    <path clip-path="url(#p39646075b7)" d="M 68.431034 96.12 
L 82.862069 96.12 
L 82.862069 96.12 
L 68.431034 96.12 
z
" style="fill:#800080;fill-opacity:0.5;stroke:#000000;stroke-linejoin:miter;"/>
   </g>
   <g id="patch_5">
    <path clip-path="url(#p39646075b7)" d="M 82.862069 96.12 
L 97.293103 96.12 
L 97.293103 96.12 
L 82.862069 96.12 
z
" style="fill:#800080;fill-opacity:0.5;stroke:#000000;stroke-linejoin:miter;"/>
   </g>
   <g id="patch_6">
    <path clip-path="url(#p39646075b7)" d="M 97.293103 96.12 
L 111.724138 96.12 
L 111.724138 90.909474 
L 97.293103 90.909474 
z
" style="fill:#800080;fill-opacity:0.5;stroke:#000000;stroke-linejoin:miter;"/>
   </g>
   <g id="patch_7">
    <path clip-path="url(#p39646075b7)" d="M 111.724138 96.12 
L 126.155172 96.12 
L 126.155172 85.698947 
L 111.724138 85.698947 
z
" style="fill:#800080;fill-opacity:0.5;stroke:#000000;stroke-linejoin:miter;"/>
   </g>
   <g id="patch_8">
    <path clip-path="url(#p39646075b7)" d="M 126.155172 96.12 
L 140.586207 96.12 
L 140.586207 85.698947 
L 126.155172 85.698947 
z
" style="fill:#800080;fill-opacity:0.5;stroke:#000000;stroke-linejoin:miter;"/>
   </g>
   <g id="patch_9">
    <path clip-path="url(#p39646075b7)" d="M 140.586207 96.12 
L 155.017241 96.12 
L 155.017241 76.32 
L 140.586207 76.32 
z
" style="fill:#800080;fill-opacity:0.5;stroke:#000000;stroke-linejoin:miter;"/>
   </g>
   <g id="patch_10">
    <path clip-path="url(#p39646075b7)" d="M 155.017241 96.12 
L 169.448276 96.12 
L 169.448276 78.404211 
L 155.017241 78.404211 
z
" style="fill:#800080;fill-opacity:0.5;stroke:#000000;stroke-linejoin:miter;"/>
   </g>
   <g id="patch_11">
    <path clip-path="url(#p39646075b7)" d="M 169.448276 96.12 
L 183.87931 96.12 
L 183.87931 71.109474 
L 169.448276 71.109474 
z
" style="fill:#800080;fill-opacity:0.5;stroke:#000000;stroke-linejoin:miter;"/>
   </g>
   <g id="patch_12">
    <path clip-path="url(#p39646075b7)" d="M 183.87931 96.12 
L 198.310345 96.12 
L 198.310345 62.772632 
L 183.87931 62.772632 
z
" style="fill:#800080;fill-opacity:0.5;stroke:#000000;stroke-linejoin:miter;"/>
   </g>
   <g id="patch_13">
    <path clip-path="url(#p39646075b7)" d="M 198.310345 96.12 
L 212.741379 96.12 
L 212.741379 29.425263 
L 198.310345 29.425263 
z
" style="fill:#800080;fill-opacity:0.5;stroke:#000000;stroke-linejoin:miter;"/>
   </g>
   <g id="patch_14">
    <path clip-path="url(#p39646075b7)" d="M 212.741379 96.12 
L 227.172414 96.12 
L 227.172414 31.509474 
L 212.741379 31.509474 
z
" style="fill:#800080;fill-opacity:0.5;stroke:#000000;stroke-linejoin:miter;"/>
   </g>
   <g id="patch_15">
    <path clip-path="url(#p39646075b7)" d="M 227.172414 96.12 
L 241.603448 96.12 
L 241.603448 20.046316 
L 227.172414 20.046316 
z
" style="fill:#800080;fill-opacity:0.5;stroke:#000000;stroke-linejoin:miter;"/>
   </g>
   <g id="patch_16">
    <path clip-path="url(#p39646075b7)" d="M 241.603448 96.12 
L 256.034483 96.12 
L 256.034483 24.214737 
L 241.603448 24.214737 
z
" style="fill:#800080;fill-opacity:0.5;stroke:#000000;stroke-linejoin:miter;"/>
   </g>
   <g id="patch_17">
    <path clip-path="url(#p39646075b7)" d="M 256.034483 96.12 
L 270.465517 96.12 
L 270.465517 60.688421 
L 256.034483 60.688421 
z
" style="fill:#800080;fill-opacity:0.5;stroke:#000000;stroke-linejoin:miter;"/>
   </g>
   <g id="patch_18">
    <path clip-path="url(#p39646075b7)" d="M 270.465517 96.12 
L 284.896552 96.12 
L 284.896552 82.572632 
L 270.465517 82.572632 
z
" style="fill:#800080;fill-opacity:0.5;stroke:#000000;stroke-linejoin:miter;"/>
   </g>
   <g id="patch_19">
    <path clip-path="url(#p39646075b7)" d="M 284.896552 96.12 
L 299.327586 96.12 
L 299.327586 90.909474 
L 284.896552 90.909474 
z
" style="fill:#800080;fill-opacity:0.5;stroke:#000000;stroke-linejoin:miter;"/>
   </g>
   <g id="patch_20">
    <path clip-path="url(#p39646075b7)" d="M 299.327586 96.12 
L 313.758621 96.12 
L 313.758621 96.12 
L 299.327586 96.12 
z
" style="fill:#800080;fill-opacity:0.5;stroke:#000000;stroke-linejoin:miter;"/>
   </g>
   <g id="patch_21">
    <path clip-path="url(#p39646075b7)" d="M 313.758621 96.12 
L 328.189655 96.12 
L 328.189655 96.12 
L 313.758621 96.12 
z
" style="fill:#800080;fill-opacity:0.5;stroke:#000000;stroke-linejoin:miter;"/>
   </g>
   <g id="patch_22">
    <path clip-path="url(#p39646075b7)" d="M 328.189655 96.12 
L 342.62069 96.12 
L 342.62069 96.12 
L 328.189655 96.12 
z
" style="fill:#800080;fill-opacity:0.5;stroke:#000000;stroke-linejoin:miter;"/>
   </g>
   <g id="patch_23">
    <path clip-path="url(#p39646075b7)" d="M 342.62069 96.12 
L 357.051724 96.12 
L 357.051724 96.12 
L 342.62069 96.12 
z
" style="fill:#800080;fill-opacity:0.5;stroke:#000000;stroke-linejoin:miter;"/>
   </g>
   <g id="patch_24">
    <path clip-path="url(#p39646075b7)" d="M 357.051724 96.12 
L 371.482759 96.12 
L 371.482759 96.12 
L 357.051724 96.12 
z
" style="fill:#800080;fill-opacity:0.5;stroke:#000000;stroke-linejoin:miter;"/>
   </g>
   <g id="patch_25">
    <path clip-path="url(#p39646075b7)" d="M 371.482759 96.12 
L 385.913793 96.12 
L 385.913793 96.12 
L 371.482759 96.12 
z
" style="fill:#800080;fill-opacity:0.5;stroke:#000000;stroke-linejoin:miter;"/>
   </g>
   <g id="patch_26">
    <path clip-path="url(#p39646075b7)" d="M 385.913793 96.12 
L 400.344828 96.12 
L 400.344828 96.12 
L 385.913793 96.12 
z
" style="fill:#800080;fill-opacity:0.5;stroke:#000000;stroke-linejoin:miter;"/>
   </g>
   <g id="patch_27">
    <path clip-path="url(#p39646075b7)" d="M 400.344828 96.12 
L 414.775862 96.12 
L 414.775862 96.12 
L 400.344828 96.12 
z
" style="fill:#800080;fill-opacity:0.5;stroke:#000000;stroke-linejoin:miter;"/>
   </g>
   <g id="patch_28">
    <path clip-path="url(#p39646075b7)" d="M 414.775862 96.12 
L 429.206897 96.12 
L 429.206897 96.12 
L 414.775862 96.12 
z
" style="fill:#800080;fill-opacity:0.5;stroke:#000000;stroke-linejoin:miter;"/>
   </g>
   <g id="patch_29">
    <path clip-path="url(#p39646075b7)" d="M 429.206897 96.12 
L 443.637931 96.12 
L 443.637931 96.12 
L 429.206897 96.12 
z
" style="fill:#800080;fill-opacity:0.5;stroke:#000000;stroke-linejoin:miter;"/>
   </g>
   <g id="patch_30">
    <path clip-path="url(#p39646075b7)" d="M 443.637931 96.12 
L 458.068966 96.12 
L 458.068966 96.12 
L 443.637931 96.12 
z
" style="fill:#800080;fill-opacity:0.5;stroke:#000000;stroke-linejoin:miter;"/>
   </g>
   <g id="patch_31">
    <path clip-path="url(#p39646075b7)" d="M 458.068966 96.12 
L 472.5 96.12 
L 472.5 96.12 
L 458.068966 96.12 
z
" style="fill:#800080;fill-opacity:0.5;stroke:#000000;stroke-linejoin:miter;"/>
   </g>
   <g id="patch_32">
    <path clip-path="url(#p39646075b7)" d="M 54 96.12 
L 68.431034 96.12 
L 68.431034 96.12 
L 54 96.12 
z
" style="fill:#ffa500;fill-opacity:0.5;stroke:#000000;stroke-linejoin:miter;"/>
   </g>
   <g id="patch_33">
    <path clip-path="url(#p39646075b7)" d="M 68.431034 96.12 
L 82.862069 96.12 
L 82.862069 96.12 
L 68.431034 96.12 
z
" style="fill:#ffa500;fill-opacity:0.5;stroke:#000000;stroke-linejoin:miter;"/>
   </g>
   <g id="patch_34">
    <path clip-path="url(#p39646075b7)" d="M 82.862069 96.12 
L 97.293103 96.12 
L 97.293103 96.12 
L 82.862069 96.12 
z
" style="fill:#ffa500;fill-opacity:0.5;stroke:#000000;stroke-linejoin:miter;"/>
   </g>
   <g id="patch_35">
    <path clip-path="url(#p39646075b7)" d="M 97.293103 96.12 
L 111.724138 96.12 
L 111.724138 56.52 
L 97.293103 56.52 
z
" style="fill:#ffa500;fill-opacity:0.5;stroke:#000000;stroke-linejoin:miter;"/>
   </g>
   <g id="patch_36">
    <path clip-path="url(#p39646075b7)" d="M 111.724138 96.12 
L 126.155172 96.12 
L 126.155172 56.52 
L 111.724138 56.52 
z
" style="fill:#ffa500;fill-opacity:0.5;stroke:#000000;stroke-linejoin:miter;"/>
   </g>
   <g id="patch_37">
    <path clip-path="url(#p39646075b7)" d="M 126.155172 96.12 
L 140.586207 96.12 
L 140.586207 56.52 
L 126.155172 56.52 
z
" style="fill:#ffa500;fill-opacity:0.5;stroke:#000000;stroke-linejoin:miter;"/>
   </g>
   <g id="patch_38">
    <path clip-path="url(#p39646075b7)" d="M 140.586207 96.12 
L 155.017241 96.12 
L 155.017241 36.72 
L 140.586207 36.72 
z
" style="fill:#ffa500;fill-opacity:0.5;stroke:#000000;stroke-linejoin:miter;"/>
   </g>
   <g id="patch_39">
    <path clip-path="url(#p39646075b7)" d="M 155.017241 96.12 
L 169.448276 96.12 
L 169.448276 76.32 
L 155.017241 76.32 
z
" style="fill:#ffa500;fill-opacity:0.5;stroke:#000000;stroke-linejoin:miter;"/>
   </g>
   <g id="patch_40">
    <path clip-path="url(#p39646075b7)" d="M 169.448276 96.12 
L 183.87931 96.12 
L 183.87931 16.92 
L 169.448276 16.92 
z
" style="fill:#ffa500;fill-opacity:0.5;stroke:#000000;stroke-linejoin:miter;"/>
   </g>
   <g id="patch_41">
    <path clip-path="url(#p39646075b7)" d="M 183.87931 96.12 
L 198.310345 96.12 
L 198.310345 36.72 
L 183.87931 36.72 
z
" style="fill:#ffa500;fill-opacity:0.5;stroke:#000000;stroke-linejoin:miter;"/>
   </g>
   <g id="patch_42">
    <path clip-path="url(#p39646075b7)" d="M 198.310345 96.12 
L 212.741379 96.12 
L 212.741379 76.32 
L 198.310345 76.32 
z
" style="fill:#ffa500;fill-opacity:0.5;stroke:#000000;stroke-linejoin:miter;"/>
   </g>
   <g id="patch_43">
    <path clip-path="url(#p39646075b7)" d="M 212.741379 96.12 
L 227.172414 96.12 
L 227.172414 56.52 
L 212.741379 56.52 
z
" style="fill:#ffa500;fill-opacity:0.5;stroke:#000000;stroke-linejoin:miter;"/>
   </g>
   <g id="patch_44">
    <path clip-path="url(#p39646075b7)" d="M 227.172414 96.12 
L 241.603448 96.12 
L 241.603448 56.52 
L 227.172414 56.52 
z
" style="fill:#ffa500;fill-opacity:0.5;stroke:#000000;stroke-linejoin:miter;"/>
   </g>
   <g id="patch_45">
    <path clip-path="url(#p39646075b7)" d="M 241.603448 96.12 
L 256.034483 96.12 
L 256.034483 96.12 
L 241.603448 96.12 
z
" style="fill:#ffa500;fill-opacity:0.5;stroke:#000000;stroke-linejoin:miter;"/>
   </g>
   <g id="patch_46">
    <path clip-path="url(#p39646075b7)" d="M 256.034483 96.12 
L 270.465517 96.12 
L 270.465517 76.32 
L 256.034483 76.32 
z
" style="fill:#ffa500;fill-opacity:0.5;stroke:#000000;stroke-linejoin:miter;"/>
   </g>
   <g id="patch_47">
    <path clip-path="url(#p39646075b7)" d="M 270.465517 96.12 
L 284.896552 96.12 
L 284.896552 96.12 
L 270.465517 96.12 
z
" style="fill:#ffa500;fill-opacity:0.5;stroke:#000000;stroke-linejoin:miter;"/>
   </g>
   <g id="patch_48">
    <path clip-path="url(#p39646075b7)" d="M 284.896552 96.12 
L 299.327586 96.12 
L 299.327586 96.12 
L 284.896552 96.12 
z
" style="fill:#ffa500;fill-opacity:0.5;stroke:#000000;stroke-linejoin:miter;"/>
   </g>
   <g id="patch_49">
    <path clip-path="url(#p39646075b7)" d="M 299.327586 96.12 
L 313.758621 96.12 
L 313.758621 96.12 
L 299.327586 96.12 
z
" style="fill:#ffa500;fill-opacity:0.5;stroke:#000000;stroke-linejoin:miter;"/>
   </g>
   <g id="patch_50">
    <path clip-path="url(#p39646075b7)" d="M 313.758621 96.12 
L 328.189655 96.12 
L 328.189655 96.12 
L 313.758621 96.12 
z
" style="fill:#ffa500;fill-opacity:0.5;stroke:#000000;stroke-linejoin:miter;"/>
   </g>
   <g id="patch_51">
    <path clip-path="url(#p39646075b7)" d="M 328.189655 96.12 
L 342.62069 96.12 
L 342.62069 96.12 
L 328.189655 96.12 
z
" style="fill:#ffa500;fill-opacity:0.5;stroke:#000000;stroke-linejoin:miter;"/>
   </g>
   <g id="patch_52">
    <path clip-path="url(#p39646075b7)" d="M 342.62069 96.12 
L 357.051724 96.12 
L 357.051724 96.12 
L 342.62069 96.12 
z
" style="fill:#ffa500;fill-opacity:0.5;stroke:#000000;stroke-linejoin:miter;"/>
   </g>
   <g id="patch_53">
    <path clip-path="url(#p39646075b7)" d="M 357.051724 96.12 
L 371.482759 96.12 
L 371.482759 96.12 
L 357.051724 96.12 
z
" style="fill:#ffa500;fill-opacity:0.5;stroke:#000000;stroke-linejoin:miter;"/>
   </g>
   <g id="patch_54">
    <path clip-path="url(#p39646075b7)" d="M 371.482759 96.12 
L 385.913793 96.12 
L 385.913793 96.12 
L 371.482759 96.12 
z
" style="fill:#ffa500;fill-opacity:0.5;stroke:#000000;stroke-linejoin:miter;"/>
   </g>
   <g id="patch_55">
    <path clip-path="url(#p39646075b7)" d="M 385.913793 96.12 
L 400.344828 96.12 
L 400.344828 96.12 
L 385.913793 96.12 
z
" style="fill:#ffa500;fill-opacity:0.5;stroke:#000000;stroke-linejoin:miter;"/>
   </g>
   <g id="patch_56">
    <path clip-path="url(#p39646075b7)" d="M 400.344828 96.12 
L 414.775862 96.12 
L 414.775862 96.12 
L 400.344828 96.12 
z
" style="fill:#ffa500;fill-opacity:0.5;stroke:#000000;stroke-linejoin:miter;"/>
   </g>
   <g id="patch_57">
    <path clip-path="url(#p39646075b7)" d="M 414.775862 96.12 
L 429.206897 96.12 
L 429.206897 96.12 
L 414.775862 96.12 
z
" style="fill:#ffa500;fill-opacity:0.5;stroke:#000000;stroke-linejoin:miter;"/>
   </g>
   <g id="patch_58">
    <path clip-path="url(#p39646075b7)" d="M 429.206897 96.12 
L 443.637931 96.12 
L 443.637931 96.12 
L 429.206897 96.12 
z
" style="fill:#ffa500;fill-opacity:0.5;stroke:#000000;stroke-linejoin:miter;"/>
   </g>
   <g id="patch_59">
    <path clip-path="url(#p39646075b7)" d="M 443.637931 96.12 
L 458.068966 96.12 
L 458.068966 96.12 
L 443.637931 96.12 
z
" style="fill:#ffa500;fill-opacity:0.5;stroke:#000000;stroke-linejoin:miter;"/>
   </g>
   <g id="patch_60">
    <path clip-path="url(#p39646075b7)" d="M 458.068966 96.12 
L 472.5 96.12 
L 472.5 96.12 
L 458.068966 96.12 
z
" style="fill:#ffa500;fill-opacity:0.5;stroke:#000000;stroke-linejoin:miter;"/>
   </g>
   <g id="matplotlib.axis_1">
    <g id="xtick_1">
     <g id="line2d_1">
      <defs>
       <path d="M 0 0 
L 0 3.5 
" id="madee1bcc5a" style="stroke:#000000;stroke-width:0.8;"/>
      </defs>
      <g>
       <use style="stroke:#000000;stroke-width:0.8;" x="54" xlink:href="#madee1bcc5a" y="96.12"/>
      </g>
     </g>
     <g id="text_1">
      <!-- 0.0 -->
      <g transform="translate(47.05 110.277812)scale(0.1 -0.1)">
       <defs>
        <path d="M 266 2259 
Q 266 3072 433 3567 
Q 600 4063 929 4331 
Q 1259 4600 1759 4600 
Q 2128 4600 2406 4451 
Q 2684 4303 2865 4023 
Q 3047 3744 3150 3342 
Q 3253 2941 3253 2259 
Q 3253 1453 3087 958 
Q 2922 463 2592 192 
Q 2263 -78 1759 -78 
Q 1097 -78 719 397 
Q 266 969 266 2259 
z
M 844 2259 
Q 844 1131 1108 757 
Q 1372 384 1759 384 
Q 2147 384 2411 759 
Q 2675 1134 2675 2259 
Q 2675 3391 2411 3762 
Q 2147 4134 1753 4134 
Q 1366 4134 1134 3806 
Q 844 3388 844 2259 
z
" id="ArialMT-30" transform="scale(0.015625)"/>
        <path d="M 581 0 
L 581 641 
L 1222 641 
L 1222 0 
L 581 0 
z
" id="ArialMT-2e" transform="scale(0.015625)"/>
       </defs>
       <use xlink:href="#ArialMT-30"/>
       <use x="55.615234" xlink:href="#ArialMT-2e"/>
       <use x="83.398438" xlink:href="#ArialMT-30"/>
      </g>
     </g>
    </g>
    <g id="xtick_2">
     <g id="line2d_2">
      <g>
       <use style="stroke:#000000;stroke-width:0.8;" x="388.8" xlink:href="#madee1bcc5a" y="96.12"/>
      </g>
     </g>
     <g id="text_2">
      <!-- 0.8 -->
      <g transform="translate(381.85 110.277812)scale(0.1 -0.1)">
       <defs>
        <path d="M 1131 2484 
Q 781 2613 612 2850 
Q 444 3088 444 3419 
Q 444 3919 803 4259 
Q 1163 4600 1759 4600 
Q 2359 4600 2725 4251 
Q 3091 3903 3091 3403 
Q 3091 3084 2923 2848 
Q 2756 2613 2416 2484 
Q 2838 2347 3058 2040 
Q 3278 1734 3278 1309 
Q 3278 722 2862 322 
Q 2447 -78 1769 -78 
Q 1091 -78 675 323 
Q 259 725 259 1325 
Q 259 1772 486 2073 
Q 713 2375 1131 2484 
z
M 1019 3438 
Q 1019 3113 1228 2906 
Q 1438 2700 1772 2700 
Q 2097 2700 2305 2904 
Q 2513 3109 2513 3406 
Q 2513 3716 2298 3927 
Q 2084 4138 1766 4138 
Q 1444 4138 1231 3931 
Q 1019 3725 1019 3438 
z
M 838 1322 
Q 838 1081 952 856 
Q 1066 631 1291 507 
Q 1516 384 1775 384 
Q 2178 384 2440 643 
Q 2703 903 2703 1303 
Q 2703 1709 2433 1975 
Q 2163 2241 1756 2241 
Q 1359 2241 1098 1978 
Q 838 1716 838 1322 
z
" id="ArialMT-38" transform="scale(0.015625)"/>
       </defs>
       <use xlink:href="#ArialMT-30"/>
       <use x="55.615234" xlink:href="#ArialMT-2e"/>
       <use x="83.398438" xlink:href="#ArialMT-38"/>
      </g>
     </g>
    </g>
   </g>
   <g id="matplotlib.axis_2">
    <g id="ytick_1">
     <g id="line2d_3">
      <defs>
       <path d="M 0 0 
L -3.5 0 
" id="ma8362980ee" style="stroke:#000000;stroke-width:0.8;"/>
      </defs>
      <g>
       <use style="stroke:#000000;stroke-width:0.8;" x="54" xlink:href="#ma8362980ee" y="96.12"/>
      </g>
     </g>
     <g id="text_3">
      <!-- 0 -->
      <g transform="translate(41.439062 99.698906)scale(0.1 -0.1)">
       <use xlink:href="#ArialMT-30"/>
      </g>
     </g>
    </g>
    <g id="ytick_2">
     <g id="line2d_4">
      <g>
       <use style="stroke:#000000;stroke-width:0.8;" x="54" xlink:href="#ma8362980ee" y="64.713103"/>
      </g>
     </g>
     <g id="text_4">
      <!-- 2 -->
      <g transform="translate(41.439062 68.29201)scale(0.1 -0.1)">
       <defs>
        <path d="M 3222 541 
L 3222 0 
L 194 0 
Q 188 203 259 391 
Q 375 700 629 1000 
Q 884 1300 1366 1694 
Q 2113 2306 2375 2664 
Q 2638 3022 2638 3341 
Q 2638 3675 2398 3904 
Q 2159 4134 1775 4134 
Q 1369 4134 1125 3890 
Q 881 3647 878 3216 
L 300 3275 
Q 359 3922 746 4261 
Q 1134 4600 1788 4600 
Q 2447 4600 2831 4234 
Q 3216 3869 3216 3328 
Q 3216 3053 3103 2787 
Q 2991 2522 2730 2228 
Q 2469 1934 1863 1422 
Q 1356 997 1212 845 
Q 1069 694 975 541 
L 3222 541 
z
" id="ArialMT-32" transform="scale(0.015625)"/>
       </defs>
       <use xlink:href="#ArialMT-32"/>
      </g>
     </g>
    </g>
    <g id="ytick_3">
     <g id="line2d_5">
      <g>
       <use style="stroke:#000000;stroke-width:0.8;" x="54" xlink:href="#ma8362980ee" y="33.306207"/>
      </g>
     </g>
     <g id="text_5">
      <!-- 4 -->
      <g transform="translate(41.439062 36.885113)scale(0.1 -0.1)">
       <defs>
        <path d="M 2069 0 
L 2069 1097 
L 81 1097 
L 81 1613 
L 2172 4581 
L 2631 4581 
L 2631 1613 
L 3250 1613 
L 3250 1097 
L 2631 1097 
L 2631 0 
L 2069 0 
z
M 2069 1613 
L 2069 3678 
L 634 1613 
L 2069 1613 
z
" id="ArialMT-34" transform="scale(0.015625)"/>
       </defs>
       <use xlink:href="#ArialMT-34"/>
      </g>
     </g>
    </g>
    <g id="text_6">
     <!-- Density -->
     <g transform="translate(33.229687 87.88375)rotate(-90)scale(0.2 -0.2)">
      <defs>
       <path d="M 494 0 
L 494 4581 
L 2072 4581 
Q 2606 4581 2888 4516 
Q 3281 4425 3559 4188 
Q 3922 3881 4101 3404 
Q 4281 2928 4281 2316 
Q 4281 1794 4159 1391 
Q 4038 988 3847 723 
Q 3656 459 3429 307 
Q 3203 156 2883 78 
Q 2563 0 2147 0 
L 494 0 
z
M 1100 541 
L 2078 541 
Q 2531 541 2789 625 
Q 3047 709 3200 863 
Q 3416 1078 3536 1442 
Q 3656 1806 3656 2325 
Q 3656 3044 3420 3430 
Q 3184 3816 2847 3947 
Q 2603 4041 2063 4041 
L 1100 4041 
L 1100 541 
z
" id="ArialMT-44" transform="scale(0.015625)"/>
       <path d="M 2694 1069 
L 3275 997 
Q 3138 488 2766 206 
Q 2394 -75 1816 -75 
Q 1088 -75 661 373 
Q 234 822 234 1631 
Q 234 2469 665 2931 
Q 1097 3394 1784 3394 
Q 2450 3394 2872 2941 
Q 3294 2488 3294 1666 
Q 3294 1616 3291 1516 
L 816 1516 
Q 847 969 1125 678 
Q 1403 388 1819 388 
Q 2128 388 2347 550 
Q 2566 713 2694 1069 
z
M 847 1978 
L 2700 1978 
Q 2663 2397 2488 2606 
Q 2219 2931 1791 2931 
Q 1403 2931 1139 2672 
Q 875 2413 847 1978 
z
" id="ArialMT-65" transform="scale(0.015625)"/>
       <path d="M 422 0 
L 422 3319 
L 928 3319 
L 928 2847 
Q 1294 3394 1984 3394 
Q 2284 3394 2536 3286 
Q 2788 3178 2913 3003 
Q 3038 2828 3088 2588 
Q 3119 2431 3119 2041 
L 3119 0 
L 2556 0 
L 2556 2019 
Q 2556 2363 2490 2533 
Q 2425 2703 2258 2804 
Q 2091 2906 1866 2906 
Q 1506 2906 1245 2678 
Q 984 2450 984 1813 
L 984 0 
L 422 0 
z
" id="ArialMT-6e" transform="scale(0.015625)"/>
       <path d="M 197 991 
L 753 1078 
Q 800 744 1014 566 
Q 1228 388 1613 388 
Q 2000 388 2187 545 
Q 2375 703 2375 916 
Q 2375 1106 2209 1216 
Q 2094 1291 1634 1406 
Q 1016 1563 777 1677 
Q 538 1791 414 1992 
Q 291 2194 291 2438 
Q 291 2659 392 2848 
Q 494 3038 669 3163 
Q 800 3259 1026 3326 
Q 1253 3394 1513 3394 
Q 1903 3394 2198 3281 
Q 2494 3169 2634 2976 
Q 2775 2784 2828 2463 
L 2278 2388 
Q 2241 2644 2061 2787 
Q 1881 2931 1553 2931 
Q 1166 2931 1000 2803 
Q 834 2675 834 2503 
Q 834 2394 903 2306 
Q 972 2216 1119 2156 
Q 1203 2125 1616 2013 
Q 2213 1853 2448 1751 
Q 2684 1650 2818 1456 
Q 2953 1263 2953 975 
Q 2953 694 2789 445 
Q 2625 197 2315 61 
Q 2006 -75 1616 -75 
Q 969 -75 630 194 
Q 291 463 197 991 
z
" id="ArialMT-73" transform="scale(0.015625)"/>
       <path d="M 425 3934 
L 425 4581 
L 988 4581 
L 988 3934 
L 425 3934 
z
M 425 0 
L 425 3319 
L 988 3319 
L 988 0 
L 425 0 
z
" id="ArialMT-69" transform="scale(0.015625)"/>
       <path d="M 1650 503 
L 1731 6 
Q 1494 -44 1306 -44 
Q 1000 -44 831 53 
Q 663 150 594 308 
Q 525 466 525 972 
L 525 2881 
L 113 2881 
L 113 3319 
L 525 3319 
L 525 4141 
L 1084 4478 
L 1084 3319 
L 1650 3319 
L 1650 2881 
L 1084 2881 
L 1084 941 
Q 1084 700 1114 631 
Q 1144 563 1211 522 
Q 1278 481 1403 481 
Q 1497 481 1650 503 
z
" id="ArialMT-74" transform="scale(0.015625)"/>
       <path d="M 397 -1278 
L 334 -750 
Q 519 -800 656 -800 
Q 844 -800 956 -737 
Q 1069 -675 1141 -563 
Q 1194 -478 1313 -144 
Q 1328 -97 1363 -6 
L 103 3319 
L 709 3319 
L 1400 1397 
Q 1534 1031 1641 628 
Q 1738 1016 1872 1384 
L 2581 3319 
L 3144 3319 
L 1881 -56 
Q 1678 -603 1566 -809 
Q 1416 -1088 1222 -1217 
Q 1028 -1347 759 -1347 
Q 597 -1347 397 -1278 
z
" id="ArialMT-79" transform="scale(0.015625)"/>
      </defs>
      <use xlink:href="#ArialMT-44"/>
      <use x="72.216797" xlink:href="#ArialMT-65"/>
      <use x="127.832031" xlink:href="#ArialMT-6e"/>
      <use x="183.447266" xlink:href="#ArialMT-73"/>
      <use x="233.447266" xlink:href="#ArialMT-69"/>
      <use x="255.664062" xlink:href="#ArialMT-74"/>
      <use x="283.447266" xlink:href="#ArialMT-79"/>
     </g>
    </g>
   </g>
   <g id="line2d_6">
    <path clip-path="url(#p39646075b7)" d="M 174.08329 96.12 
L 174.08329 12.96 
" style="fill:none;stroke:#ffa500;stroke-dasharray:4,6.6;stroke-dashoffset:0;stroke-width:4;"/>
   </g>
   <g id="line2d_7">
    <path clip-path="url(#p39646075b7)" d="M 215.12775 96.12 
L 215.12775 12.96 
" style="fill:none;stroke:#800080;stroke-dasharray:4,6.6;stroke-dashoffset:0;stroke-width:4;"/>
   </g>
   <g id="patch_61">
    <path d="M 54 96.12 
L 54 12.96 
" style="fill:none;stroke:#000000;stroke-linecap:square;stroke-linejoin:miter;stroke-width:0.8;"/>
   </g>
   <g id="patch_62">
    <path d="M 388.8 96.12 
L 388.8 12.96 
" style="fill:none;stroke:#000000;stroke-linecap:square;stroke-linejoin:miter;stroke-width:0.8;"/>
   </g>
   <g id="patch_63">
    <path d="M 54 96.12 
L 388.8 96.12 
" style="fill:none;stroke:#000000;stroke-linecap:square;stroke-linejoin:miter;stroke-width:0.8;"/>
   </g>
   <g id="patch_64">
    <path d="M 54 12.96 
L 388.8 12.96 
" style="fill:none;stroke:#000000;stroke-linecap:square;stroke-linejoin:miter;stroke-width:0.8;"/>
   </g>
  </g>
 </g>
 <defs>
  <clipPath id="p39646075b7">
   <rect height="83.16" width="334.8" x="54" y="12.96"/>
  </clipPath>
 </defs>
</svg>
