<svg version="1.1" xmlns="http://www.w3.org/2000/svg" width="700" height="400"><defs><clipPath id="ufZnXQUTpuKd"><path fill="none" stroke="none" d="M 65.5 34.5 L 695.5 34.5 L 695.5 346.5 L 65.5 346.5 L 65.5 34.5"/></clipPath><clipPath id="LdrHsXczKRfL"><path fill="none" stroke="none" d="M 65.5 34.5 L 695.5 34.5 L 695.5 346.5 L 65.5 346.5 L 65.5 34.5"/></clipPath><clipPath id="BuEBcOncSXRd"><path fill="none" stroke="none" d="M 65.5 34.5 L 695.5 34.5 L 695.5 346.5 L 65.5 346.5 L 65.5 34.5"/></clipPath><clipPath id="xCkeQLKRaNCs"><path fill="none" stroke="none" d="M 65.5 34.5 L 695.5 34.5 L 695.5 346.5 L 65.5 346.5 L 65.5 34.5"/></clipPath><clipPath id="UOnzCMgmWPOk"><path fill="none" stroke="none" d="M 65.5 34.5 L 695.5 34.5 L 695.5 346.5 L 65.5 346.5 L 65.5 34.5"/></clipPath></defs><path fill="rgb(255,255,255)" stroke="none" paint-order="stroke" d="M 0.5 0.5 L 700.5 0.5 L 700.5 400.5 L 0.5 400.5 L 0.5 0.5" fill-opacity="1"/><rect fill="#FFFFFF" stroke="none" x="65" y="34" width="630" height="312" transform="matrix(1, 0, 0, 1, 0.5, 0.5)"/><path fill="rgb(255,255,255)" stroke="none" paint-order="stroke" d="M 65.5 34.5 L 695.5 34.5 L 695.5 346.5 L 65.5 346.5 L 65.5 34.5" fill-opacity="1"/><path fill="none" stroke="rgb(229,229,229)" paint-order="fill" d="M 65.5 34.5 L 695.5 34.5 L 695.5 346.5 L 65.5 346.5 L 65.5 34.5" stroke-opacity="1" stroke-linejoin="bevel" stroke-miterlimit="10" stroke-dasharray=""/><path fill="none" stroke="rgb(229,229,229)" paint-order="fill" d="M 185.5 346.5 L 185.5 34.5 M 305.5 346.5 L 305.5 34.5 M 425.5 346.5 L 425.5 34.5 M 545.5 346.5 L 545.5 34.5 M 665.5 346.5 L 665.5 34.5" stroke-opacity="1" stroke-linejoin="bevel" stroke-miterlimit="10" stroke-dasharray="" clip-path="url(#ufZnXQUTpuKd)"/><path fill="none" stroke="rgb(229,229,229)" paint-order="fill" d="M 65.5 332.5 L 695.5 332.5 M 65.5 275.5 L 695.5 275.5 M 65.5 218.5 L 695.5 218.5 M 65.5 162.5 L 695.5 162.5 M 65.5 105.5 L 695.5 105.5 M 65.5 48.5 L 695.5 48.5" stroke-opacity="1" stroke-linejoin="bevel" stroke-miterlimit="10" stroke-dasharray="" clip-path="url(#LdrHsXczKRfL)"/><path fill="rgb(31,119,179)" stroke="none" paint-order="stroke" d="M 630.7282104492188 332.31817626953125 L 630.7282104492188 319.4256286621094 L 630.7282104492188 319.4256286621094 L 630.7282104492188 306.5330505371094 L 630.7282104492188 306.5330505371094 L 630.7282104492188 293.6405029296875 L 634.3328247070312 293.6405029296875 L 634.3328247070312 280.7479248046875 L 634.3328247070312 280.7479248046875 L 634.3328247070312 267.8553771972656 L 638.0997924804688 267.8553771972656 L 638.0997924804688 254.9628143310547 L 638.4226684570312 254.9628143310547 L 638.4226684570312 242.07025146484375 L 638.4226684570312 242.07025146484375 L 638.4226684570312 229.1776885986328 L 640.1788940429688 229.1776885986328 L 640.1788940429688 216.28512573242188 L 641.1302490234375 216.28512573242188 L 641.1302490234375 203.39256286621094 L 641.1739501953125 203.39256286621094 L 641.1739501953125 190.5 L 644.7150268554688 190.5 L 644.7150268554688 177.60743713378906 L 647.4285888671875 177.60743713378906 L 647.4285888671875 164.71487426757812 L 647.4285888671875 164.71487426757812 L 647.4285888671875 151.8223114013672 L 649.4641723632812 151.8223114013672 L 649.4641723632812 138.92974853515625 L 649.675537109375 138.92974853515625 L 649.675537109375 126.03719329833984 L 656.1392822265625 126.03719329833984 L 656.1392822265625 113.1446304321289 L 656.2218017578125 113.1446304321289 L 656.2218017578125 100.25206756591797 L 656.5791015625 100.25206756591797 L 656.5791015625 87.35950469970703 L 658.9729614257812 87.35950469970703 L 658.9729614257812 74.4669418334961 L 662.0017700195312 74.4669418334961 L 662.0017700195312 61.574378967285156 L 664.6322021484375 61.574378967285156 L 664.6322021484375 48.681819915771484 L 665.5 48.681819915771484 L 665.5 61.574378967285156 L 665.5 61.574378967285156 L 665.5 74.4669418334961 L 665.5 74.4669418334961 L 665.5 87.35950469970703 L 665.5 87.35950469970703 L 665.5 100.25206756591797 L 665.5 100.25206756591797 L 665.5 113.1446304321289 L 665.5 113.1446304321289 L 665.5 126.03719329833984 L 664.6322021484375 126.03719329833984 L 664.6322021484375 138.92974853515625 L 664.6322021484375 138.92974853515625 L 664.6322021484375 151.8223114013672 L 664.62890625 151.8223114013672 L 664.62890625 164.71487426757812 L 662.0017700195312 164.71487426757812 L 662.0017700195312 177.60743713378906 L 658.9729614257812 177.60743713378906 L 658.9729614257812 190.5 L 656.5791015625 190.5 L 656.5791015625 203.39256286621094 L 656.5791015625 203.39256286621094 L 656.5791015625 216.28512573242188 L 656.2218017578125 216.28512573242188 L 656.2218017578125 229.1776885986328 L 656.1392822265625 229.1776885986328 L 656.1392822265625 242.07025146484375 L 650.3829956054688 242.07025146484375 L 650.3829956054688 254.9628143310547 L 649.4641723632812 254.9628143310547 L 649.4641723632812 267.8553771972656 L 647.4285888671875 267.8553771972656 L 647.4285888671875 280.7479248046875 L 644.7150268554688 280.7479248046875 L 644.7150268554688 293.6405029296875 L 641.1739501953125 293.6405029296875 L 641.1739501953125 306.5330505371094 L 641.1302490234375 306.5330505371094 L 641.1302490234375 319.4256286621094 L 638.4226684570312 319.4256286621094 L 638.4226684570312 332.31817626953125 Z" fill-opacity="0.30196078431372547" clip-path="url(#BuEBcOncSXRd)"/><path fill="rgb(31,119,179)" stroke="rgb(31,119,179)" paint-order="fill" d="M 667.5 74.4669418334961 A 2 2 0 1 1 667.4999990000001 74.46494183382943" fill-opacity="1" clip-path="url(#xCkeQLKRaNCs)" stroke-opacity="1" stroke-linejoin="bevel" stroke-miterlimit="10" stroke-dasharray=""/><path fill="rgb(31,119,179)" stroke="rgb(31,119,179)" paint-order="fill" d="M 667.5 61.574378967285156 A 2 2 0 1 1 667.4999990000001 61.57237896761849" fill-opacity="1" clip-path="url(#xCkeQLKRaNCs)" stroke-opacity="1" stroke-linejoin="bevel" stroke-miterlimit="10" stroke-dasharray=""/><path fill="rgb(31,119,179)" stroke="rgb(31,119,179)" paint-order="fill" d="M 667.5 48.681819915771484 A 2 2 0 1 1 667.4999990000001 48.67981991610482" fill-opacity="1" clip-path="url(#xCkeQLKRaNCs)" stroke-opacity="1" stroke-linejoin="bevel" stroke-miterlimit="10" stroke-dasharray=""/><path fill="rgb(31,119,179)" stroke="rgb(31,119,179)" paint-order="fill" d="M 649.4285888671875 216.28512573242188 A 2 2 0 1 1 649.4285878671876 216.2831257327552" fill-opacity="1" clip-path="url(#xCkeQLKRaNCs)" stroke-opacity="1" stroke-linejoin="bevel" stroke-miterlimit="10" stroke-dasharray=""/><path fill="rgb(31,119,179)" stroke="rgb(31,119,179)" paint-order="fill" d="M 643.1302490234375 254.9628143310547 A 2 2 0 1 1 643.1302480234376 254.960814331388" fill-opacity="1" clip-path="url(#xCkeQLKRaNCs)" stroke-opacity="1" stroke-linejoin="bevel" stroke-miterlimit="10" stroke-dasharray=""/><path fill="rgb(31,119,179)" stroke="rgb(31,119,179)" paint-order="fill" d="M 640.0997924804688 293.6405029296875 A 2 2 0 1 1 640.0997914804689 293.6385029300208" fill-opacity="1" clip-path="url(#xCkeQLKRaNCs)" stroke-opacity="1" stroke-linejoin="bevel" stroke-miterlimit="10" stroke-dasharray=""/><path fill="rgb(31,119,179)" stroke="rgb(31,119,179)" paint-order="fill" d="M 632.7282104492188 319.4256286621094 A 2 2 0 1 1 632.7282094492189 319.4236286624427" fill-opacity="1" clip-path="url(#xCkeQLKRaNCs)" stroke-opacity="1" stroke-linejoin="bevel" stroke-miterlimit="10" stroke-dasharray=""/><path fill="rgb(31,119,179)" stroke="rgb(31,119,179)" paint-order="fill" d="M 660.9729614257812 126.03719329833984 A 2 2 0 1 1 660.9729604257814 126.03519329867318" fill-opacity="1" clip-path="url(#xCkeQLKRaNCs)" stroke-opacity="1" stroke-linejoin="bevel" stroke-miterlimit="10" stroke-dasharray=""/><path fill="rgb(31,119,179)" stroke="rgb(31,119,179)" paint-order="fill" d="M 658.5791015625 138.92974853515625 A 2 2 0 1 1 658.5791005625001 138.92774853548957" fill-opacity="1" clip-path="url(#xCkeQLKRaNCs)" stroke-opacity="1" stroke-linejoin="bevel" stroke-miterlimit="10" stroke-dasharray=""/><path fill="rgb(31,119,179)" stroke="rgb(31,119,179)" paint-order="fill" d="M 636.3328247070312 306.5330505371094 A 2 2 0 1 1 636.3328237070314 306.5310505374427" fill-opacity="1" clip-path="url(#xCkeQLKRaNCs)" stroke-opacity="1" stroke-linejoin="bevel" stroke-miterlimit="10" stroke-dasharray=""/><path fill="rgb(31,119,179)" stroke="rgb(31,119,179)" paint-order="fill" d="M 640.4226684570312 280.7479248046875 A 2 2 0 1 1 640.4226674570314 280.7459248050208" fill-opacity="1" clip-path="url(#xCkeQLKRaNCs)" stroke-opacity="1" stroke-linejoin="bevel" stroke-miterlimit="10" stroke-dasharray=""/><path fill="rgb(31,119,179)" stroke="rgb(31,119,179)" paint-order="fill" d="M 658.1392822265625 164.71487426757812 A 2 2 0 1 1 658.1392812265626 164.71287426791145" fill-opacity="1" clip-path="url(#xCkeQLKRaNCs)" stroke-opacity="1" stroke-linejoin="bevel" stroke-miterlimit="10" stroke-dasharray=""/><path fill="rgb(31,119,179)" stroke="rgb(31,119,179)" paint-order="fill" d="M 652.3829956054688 177.60743713378906 A 2 2 0 1 1 652.3829946054689 177.60543713412238" fill-opacity="1" clip-path="url(#xCkeQLKRaNCs)" stroke-opacity="1" stroke-linejoin="bevel" stroke-miterlimit="10" stroke-dasharray=""/><path fill="rgb(31,119,179)" stroke="rgb(31,119,179)" paint-order="fill" d="M 666.62890625 100.25206756591797 A 2 2 0 1 1 666.6289052500001 100.2500675662513" fill-opacity="1" clip-path="url(#xCkeQLKRaNCs)" stroke-opacity="1" stroke-linejoin="bevel" stroke-miterlimit="10" stroke-dasharray=""/><path fill="rgb(31,119,179)" stroke="rgb(31,119,179)" paint-order="fill" d="M 658.2218017578125 151.8223114013672 A 2 2 0 1 1 658.2218007578126 151.8203114017005" fill-opacity="1" clip-path="url(#xCkeQLKRaNCs)" stroke-opacity="1" stroke-linejoin="bevel" stroke-miterlimit="10" stroke-dasharray=""/><path fill="rgb(31,119,179)" stroke="rgb(31,119,179)" paint-order="fill" d="M 643.1739501953125 242.07025146484375 A 2 2 0 1 1 643.1739491953126 242.06825146517707" fill-opacity="1" clip-path="url(#xCkeQLKRaNCs)" stroke-opacity="1" stroke-linejoin="bevel" stroke-miterlimit="10" stroke-dasharray=""/><path fill="rgb(31,119,179)" stroke="rgb(31,119,179)" paint-order="fill" d="M 646.7150268554688 229.1776885986328 A 2 2 0 1 1 646.7150258554689 229.17568859896613" fill-opacity="1" clip-path="url(#xCkeQLKRaNCs)" stroke-opacity="1" stroke-linejoin="bevel" stroke-miterlimit="10" stroke-dasharray=""/><path fill="rgb(31,119,179)" stroke="rgb(31,119,179)" paint-order="fill" d="M 642.1788940429688 267.8553771972656 A 2 2 0 1 1 642.1788930429689 267.85337719759895" fill-opacity="1" clip-path="url(#xCkeQLKRaNCs)" stroke-opacity="1" stroke-linejoin="bevel" stroke-miterlimit="10" stroke-dasharray=""/><path fill="rgb(31,119,179)" stroke="rgb(31,119,179)" paint-order="fill" d="M 651.4641723632812 203.39256286621094 A 2 2 0 1 1 651.4641713632814 203.39056286654426" fill-opacity="1" clip-path="url(#xCkeQLKRaNCs)" stroke-opacity="1" stroke-linejoin="bevel" stroke-miterlimit="10" stroke-dasharray=""/><path fill="rgb(31,119,179)" stroke="rgb(31,119,179)" paint-order="fill" d="M 651.675537109375 190.5 A 2 2 0 1 1 651.6755361093751 190.49800000033332" fill-opacity="1" clip-path="url(#xCkeQLKRaNCs)" stroke-opacity="1" stroke-linejoin="bevel" stroke-miterlimit="10" stroke-dasharray=""/><path fill="rgb(31,119,179)" stroke="rgb(31,119,179)" paint-order="fill" d="M 666.6322021484375 87.35950469970703 A 2 2 0 1 1 666.6322011484376 87.35750470004037" fill-opacity="1" clip-path="url(#xCkeQLKRaNCs)" stroke-opacity="1" stroke-linejoin="bevel" stroke-miterlimit="10" stroke-dasharray=""/><path fill="rgb(31,119,179)" stroke="rgb(31,119,179)" paint-order="fill" d="M 664.0017700195312 113.1446304321289 A 2 2 0 1 1 664.0017690195314 113.14263043246224" fill-opacity="1" clip-path="url(#xCkeQLKRaNCs)" stroke-opacity="1" stroke-linejoin="bevel" stroke-miterlimit="10" stroke-dasharray=""/><path fill="none" stroke="rgb(0,0,0)" paint-order="fill" d="M 65.5 346.5 L 695.5 346.5" stroke-opacity="1" stroke-linejoin="bevel" stroke-miterlimit="10" stroke-dasharray=""/><path fill="none" stroke="rgb(0,0,0)" paint-order="fill" d="M 65.5 352.5 L 65.5 344.5 M 185.5 352.5 L 185.5 344.5 M 305.5 352.5 L 305.5 344.5 M 425.5 352.5 L 425.5 344.5 M 545.5 352.5 L 545.5 344.5 M 665.5 352.5 L 665.5 344.5" stroke-opacity="1" stroke-linejoin="bevel" stroke-miterlimit="10" stroke-dasharray=""/><path fill="none" stroke="rgb(0,0,0)" paint-order="fill" d="M 65.5 350.5 L 65.5 346.5 M 89.5 350.5 L 89.5 346.5 M 113.5 350.5 L 113.5 346.5 M 137.5 350.5 L 137.5 346.5 M 161.5 350.5 L 161.5 346.5 M 185.5 350.5 L 185.5 346.5 M 209.5 350.5 L 209.5 346.5 M 233.5 350.5 L 233.5 346.5 M 257.5 350.5 L 257.5 346.5 M 281.5 350.5 L 281.5 346.5 M 305.5 350.5 L 305.5 346.5 M 329.5 350.5 L 329.5 346.5 M 353.5 350.5 L 353.5 346.5 M 377.5 350.5 L 377.5 346.5 M 401.5 350.5 L 401.5 346.5 M 425.5 350.5 L 425.5 346.5 M 449.5 350.5 L 449.5 346.5 M 473.5 350.5 L 473.5 346.5 M 497.5 350.5 L 497.5 346.5 M 521.5 350.5 L 521.5 346.5 M 545.5 350.5 L 545.5 346.5 M 569.5 350.5 L 569.5 346.5 M 593.5 350.5 L 593.5 346.5 M 617.5 350.5 L 617.5 346.5 M 641.5 350.5 L 641.5 346.5 M 665.5 350.5 L 665.5 346.5 M 689.5 350.5 L 689.5 346.5" stroke-opacity="1" stroke-linejoin="bevel" stroke-miterlimit="10" stroke-dasharray=""/><text fill="rgb(68,68,68)" stroke="none" font-family="helvetica" font-size="13pt" font-style="normal" font-weight="normal" text-decoration="normal" x="60.18333339691162" y="369.4329427083333" text-anchor="start" dominant-baseline="alphabetic" transform="matrix(1, 0, 0, 1, 0.5, 0.5)" fill-opacity="1">0</text><text fill="rgb(68,68,68)" stroke="none" font-family="helvetica" font-size="13pt" font-style="normal" font-weight="normal" text-decoration="normal" x="172.9583330154419" y="369.4329427083333" text-anchor="start" dominant-baseline="alphabetic" transform="matrix(1, 0, 0, 1, 0.5, 0.5)" fill-opacity="1">0.2</text><text fill="rgb(68,68,68)" stroke="none" font-family="helvetica" font-size="13pt" font-style="normal" font-weight="normal" text-decoration="normal" x="292.9583330154419" y="369.4329427083333" text-anchor="start" dominant-baseline="alphabetic" transform="matrix(1, 0, 0, 1, 0.5, 0.5)" fill-opacity="1">0.4</text><text fill="rgb(68,68,68)" stroke="none" font-family="helvetica" font-size="13pt" font-style="normal" font-weight="normal" text-decoration="normal" x="412.9583330154419" y="369.4329427083333" text-anchor="start" dominant-baseline="alphabetic" transform="matrix(1, 0, 0, 1, 0.5, 0.5)" fill-opacity="1">0.6</text><text fill="rgb(68,68,68)" stroke="none" font-family="helvetica" font-size="13pt" font-style="normal" font-weight="normal" text-decoration="normal" x="532.9583330154419" y="369.4329427083333" text-anchor="start" dominant-baseline="alphabetic" transform="matrix(1, 0, 0, 1, 0.5, 0.5)" fill-opacity="1">0.8</text><text fill="rgb(68,68,68)" stroke="none" font-family="helvetica" font-size="13pt" font-style="normal" font-weight="normal" text-decoration="normal" x="660.1833333969116" y="369.4329427083333" text-anchor="start" dominant-baseline="alphabetic" transform="matrix(1, 0, 0, 1, 0.5, 0.5)" fill-opacity="1">1</text><text fill="rgb(68,68,68)" stroke="none" font-family="arial" font-size="13pt" font-style="normal" font-weight="normal" text-decoration="normal" x="272.1416702270508" y="392.9720062255859" text-anchor="start" dominant-baseline="alphabetic" transform="matrix(1, 0, 0, 1, 0.5, 0.5)" fill-opacity="1">Adhesion ratio (after/before)</text><path fill="none" stroke="rgb(0,0,0)" paint-order="fill" d="M 65.5 346.5 L 65.5 34.5" stroke-opacity="1" stroke-linejoin="bevel" stroke-miterlimit="10" stroke-dasharray=""/><path fill="none" stroke="rgb(0,0,0)" paint-order="fill" d="M 59.5 332.5 L 67.5 332.5 M 59.5 275.5 L 67.5 275.5 M 59.5 218.5 L 67.5 218.5 M 59.5 162.5 L 67.5 162.5 M 59.5 105.5 L 67.5 105.5 M 59.5 48.5 L 67.5 48.5" stroke-opacity="1" stroke-linejoin="bevel" stroke-miterlimit="10" stroke-dasharray=""/><path fill="none" stroke="rgb(0,0,0)" paint-order="fill" d="M 61.5 343.5 L 65.5 343.5 M 61.5 332.5 L 65.5 332.5 M 61.5 320.5 L 65.5 320.5 M 61.5 309.5 L 65.5 309.5 M 61.5 298.5 L 65.5 298.5 M 61.5 286.5 L 65.5 286.5 M 61.5 275.5 L 65.5 275.5 M 61.5 264.5 L 65.5 264.5 M 61.5 252.5 L 65.5 252.5 M 61.5 241.5 L 65.5 241.5 M 61.5 230.5 L 65.5 230.5 M 61.5 218.5 L 65.5 218.5 M 61.5 207.5 L 65.5 207.5 M 61.5 196.5 L 65.5 196.5 M 61.5 184.5 L 65.5 184.5 M 61.5 173.5 L 65.5 173.5 M 61.5 162.5 L 65.5 162.5 M 61.5 150.5 L 65.5 150.5 M 61.5 139.5 L 65.5 139.5 M 61.5 128.5 L 65.5 128.5 M 61.5 116.5 L 65.5 116.5 M 61.5 105.5 L 65.5 105.5 M 61.5 94.5 L 65.5 94.5 M 61.5 82.5 L 65.5 82.5 M 61.5 71.5 L 65.5 71.5 M 61.5 60.5 L 65.5 60.5 M 61.5 48.5 L 65.5 48.5 M 61.5 37.5 L 65.5 37.5" stroke-opacity="1" stroke-linejoin="bevel" stroke-miterlimit="10" stroke-dasharray=""/><text fill="rgb(68,68,68)" stroke="none" font-family="helvetica" font-size="13pt" font-style="normal" font-weight="normal" text-decoration="normal" x="44.36666679382324" y="338.0346476236979" text-anchor="start" dominant-baseline="alphabetic" transform="matrix(1, 0, 0, 1, 0.5, 0.5)" fill-opacity="1">0</text><text fill="rgb(68,68,68)" stroke="none" font-family="helvetica" font-size="13pt" font-style="normal" font-weight="normal" text-decoration="normal" x="29.91666603088379" y="281.307383219401" text-anchor="start" dominant-baseline="alphabetic" transform="matrix(1, 0, 0, 1, 0.5, 0.5)" fill-opacity="1">0.2</text><text fill="rgb(68,68,68)" stroke="none" font-family="helvetica" font-size="13pt" font-style="normal" font-weight="normal" text-decoration="normal" x="29.91666603088379" y="224.58010355631512" text-anchor="start" dominant-baseline="alphabetic" transform="matrix(1, 0, 0, 1, 0.5, 0.5)" fill-opacity="1">0.4</text><text fill="rgb(68,68,68)" stroke="none" font-family="helvetica" font-size="13pt" font-style="normal" font-weight="normal" text-decoration="normal" x="29.91666603088379" y="167.85283915201825" text-anchor="start" dominant-baseline="alphabetic" transform="matrix(1, 0, 0, 1, 0.5, 0.5)" fill-opacity="1">0.6</text><text fill="rgb(68,68,68)" stroke="none" font-family="helvetica" font-size="13pt" font-style="normal" font-weight="normal" text-decoration="normal" x="29.91666603088379" y="111.12555948893228" text-anchor="start" dominant-baseline="alphabetic" transform="matrix(1, 0, 0, 1, 0.5, 0.5)" fill-opacity="1">0.8</text><text fill="rgb(68,68,68)" stroke="none" font-family="helvetica" font-size="13pt" font-style="normal" font-weight="normal" text-decoration="normal" x="44.36666679382324" y="54.398291269938156" text-anchor="start" dominant-baseline="alphabetic" transform="matrix(1, 0, 0, 1, 0.5, 0.5)" fill-opacity="1">1</text><text fill="rgb(68,68,68)" stroke="none" font-family="arial" font-size="13pt" font-style="normal" font-weight="normal" text-decoration="normal" x="-1.6750011444091797" y="186.35221252441406" text-anchor="start" dominant-baseline="alphabetic" transform="matrix(6.123233995736766e-17, -1, 1, 6.123233995736766e-17, -167.5833339691162, 212.4166660308838)" fill-opacity="1">ECDF</text><text fill="rgb(68,68,68)" stroke="none" font-family="arial" font-size="15pt" font-style="normal" font-weight="normal" text-decoration="normal" x="65" y="24.791015625" text-anchor="start" dominant-baseline="alphabetic" transform="matrix(1, 0, 0, 1, 0.5, 0.5)" fill-opacity="1">mbx2OE. 95% CI  of the mean: 0.968-0.983</text></svg>