<?xml version="1.0" encoding="utf-8" standalone="no"?>
<!DOCTYPE svg PUBLIC "-//W3C//DTD SVG 1.1//EN"
  "http://www.w3.org/Graphics/SVG/1.1/DTD/svg11.dtd">
<svg xmlns:xlink="http://www.w3.org/1999/xlink" width="317.53875pt" height="294.978229pt" viewBox="0 0 317.53875 294.978229" xmlns="http://www.w3.org/2000/svg" version="1.1">
 <metadata>
  <rdf:RDF xmlns:dc="http://purl.org/dc/elements/1.1/" xmlns:cc="http://creativecommons.org/ns#" xmlns:rdf="http://www.w3.org/1999/02/22-rdf-syntax-ns#">
   <cc:Work>
    <dc:type rdf:resource="http://purl.org/dc/dcmitype/StillImage"/>
    <dc:date>2023-12-15T15:55:44.171288</dc:date>
    <dc:format>image/svg+xml</dc:format>
    <dc:creator>
     <cc:Agent>
      <dc:title>Matplotlib v3.8.0, https://matplotlib.org/</dc:title>
     </cc:Agent>
    </dc:creator>
   </cc:Work>
  </rdf:RDF>
 </metadata>
 <defs>
  <style type="text/css">*{stroke-linejoin: round; stroke-linecap: butt}</style>
 </defs>
 <g id="figure_1">
  <g id="patch_1">
   <path d="M 0 294.978229 
L 317.53875 294.978229 
L 317.53875 0 
L 0 0 
z
" style="fill: #ffffff"/>
  </g>
  <g id="axes_1">
   <g id="patch_2">
    <path d="M 87.13875 234.497548 
L 310.33875 234.497548 
L 310.33875 12.737548 
L 87.13875 12.737548 
z
" style="fill: #ffffff"/>
   </g>
   <g id="matplotlib.axis_1">
    <g id="xtick_1">
     <g id="line2d_1">
      <defs>
       <path id="m41c757d3d9" d="M 0 0 
L 0 3.5 
" style="stroke: #000000; stroke-width: 0.8"/>
      </defs>
      <g>
       <use xlink:href="#m41c757d3d9" x="142.93875" y="234.497548" style="stroke: #000000; stroke-width: 0.8"/>
      </g>
     </g>
     <g id="text_1">
      <!-- Not MLP-forming -->
      <g transform="translate(83.815483 284.764993) rotate(-15) scale(0.15 -0.15)">
       <defs>
        <path id="DejaVuSans-4e" d="M 628 4666 
L 1478 4666 
L 3547 763 
L 3547 4666 
L 4159 4666 
L 4159 0 
L 3309 0 
L 1241 3903 
L 1241 0 
L 628 0 
L 628 4666 
z
" transform="scale(0.015625)"/>
        <path id="DejaVuSans-6f" d="M 1959 3097 
Q 1497 3097 1228 2736 
Q 959 2375 959 1747 
Q 959 1119 1226 758 
Q 1494 397 1959 397 
Q 2419 397 2687 759 
Q 2956 1122 2956 1747 
Q 2956 2369 2687 2733 
Q 2419 3097 1959 3097 
z
M 1959 3584 
Q 2709 3584 3137 3096 
Q 3566 2609 3566 1747 
Q 3566 888 3137 398 
Q 2709 -91 1959 -91 
Q 1206 -91 779 398 
Q 353 888 353 1747 
Q 353 2609 779 3096 
Q 1206 3584 1959 3584 
z
" transform="scale(0.015625)"/>
        <path id="DejaVuSans-74" d="M 1172 4494 
L 1172 3500 
L 2356 3500 
L 2356 3053 
L 1172 3053 
L 1172 1153 
Q 1172 725 1289 603 
Q 1406 481 1766 481 
L 2356 481 
L 2356 0 
L 1766 0 
Q 1100 0 847 248 
Q 594 497 594 1153 
L 594 3053 
L 172 3053 
L 172 3500 
L 594 3500 
L 594 4494 
L 1172 4494 
z
" transform="scale(0.015625)"/>
        <path id="DejaVuSans-20" transform="scale(0.015625)"/>
        <path id="DejaVuSans-4d" d="M 628 4666 
L 1569 4666 
L 2759 1491 
L 3956 4666 
L 4897 4666 
L 4897 0 
L 4281 0 
L 4281 4097 
L 3078 897 
L 2444 897 
L 1241 4097 
L 1241 0 
L 628 0 
L 628 4666 
z
" transform="scale(0.015625)"/>
        <path id="DejaVuSans-4c" d="M 628 4666 
L 1259 4666 
L 1259 531 
L 3531 531 
L 3531 0 
L 628 0 
L 628 4666 
z
" transform="scale(0.015625)"/>
        <path id="DejaVuSans-50" d="M 1259 4147 
L 1259 2394 
L 2053 2394 
Q 2494 2394 2734 2622 
Q 2975 2850 2975 3272 
Q 2975 3691 2734 3919 
Q 2494 4147 2053 4147 
L 1259 4147 
z
M 628 4666 
L 2053 4666 
Q 2838 4666 3239 4311 
Q 3641 3956 3641 3272 
Q 3641 2581 3239 2228 
Q 2838 1875 2053 1875 
L 1259 1875 
L 1259 0 
L 628 0 
L 628 4666 
z
" transform="scale(0.015625)"/>
        <path id="DejaVuSans-2d" d="M 313 2009 
L 1997 2009 
L 1997 1497 
L 313 1497 
L 313 2009 
z
" transform="scale(0.015625)"/>
        <path id="DejaVuSans-66" d="M 2375 4863 
L 2375 4384 
L 1825 4384 
Q 1516 4384 1395 4259 
Q 1275 4134 1275 3809 
L 1275 3500 
L 2222 3500 
L 2222 3053 
L 1275 3053 
L 1275 0 
L 697 0 
L 697 3053 
L 147 3053 
L 147 3500 
L 697 3500 
L 697 3744 
Q 697 4328 969 4595 
Q 1241 4863 1831 4863 
L 2375 4863 
z
" transform="scale(0.015625)"/>
        <path id="DejaVuSans-72" d="M 2631 2963 
Q 2534 3019 2420 3045 
Q 2306 3072 2169 3072 
Q 1681 3072 1420 2755 
Q 1159 2438 1159 1844 
L 1159 0 
L 581 0 
L 581 3500 
L 1159 3500 
L 1159 2956 
Q 1341 3275 1631 3429 
Q 1922 3584 2338 3584 
Q 2397 3584 2469 3576 
Q 2541 3569 2628 3553 
L 2631 2963 
z
" transform="scale(0.015625)"/>
        <path id="DejaVuSans-6d" d="M 3328 2828 
Q 3544 3216 3844 3400 
Q 4144 3584 4550 3584 
Q 5097 3584 5394 3201 
Q 5691 2819 5691 2113 
L 5691 0 
L 5113 0 
L 5113 2094 
Q 5113 2597 4934 2840 
Q 4756 3084 4391 3084 
Q 3944 3084 3684 2787 
Q 3425 2491 3425 1978 
L 3425 0 
L 2847 0 
L 2847 2094 
Q 2847 2600 2669 2842 
Q 2491 3084 2119 3084 
Q 1678 3084 1418 2786 
Q 1159 2488 1159 1978 
L 1159 0 
L 581 0 
L 581 3500 
L 1159 3500 
L 1159 2956 
Q 1356 3278 1631 3431 
Q 1906 3584 2284 3584 
Q 2666 3584 2933 3390 
Q 3200 3197 3328 2828 
z
" transform="scale(0.015625)"/>
        <path id="DejaVuSans-69" d="M 603 3500 
L 1178 3500 
L 1178 0 
L 603 0 
L 603 3500 
z
M 603 4863 
L 1178 4863 
L 1178 4134 
L 603 4134 
L 603 4863 
z
" transform="scale(0.015625)"/>
        <path id="DejaVuSans-6e" d="M 3513 2113 
L 3513 0 
L 2938 0 
L 2938 2094 
Q 2938 2591 2744 2837 
Q 2550 3084 2163 3084 
Q 1697 3084 1428 2787 
Q 1159 2491 1159 1978 
L 1159 0 
L 581 0 
L 581 3500 
L 1159 3500 
L 1159 2956 
Q 1366 3272 1645 3428 
Q 1925 3584 2291 3584 
Q 2894 3584 3203 3211 
Q 3513 2838 3513 2113 
z
" transform="scale(0.015625)"/>
        <path id="DejaVuSans-67" d="M 2906 1791 
Q 2906 2416 2648 2759 
Q 2391 3103 1925 3103 
Q 1463 3103 1205 2759 
Q 947 2416 947 1791 
Q 947 1169 1205 825 
Q 1463 481 1925 481 
Q 2391 481 2648 825 
Q 2906 1169 2906 1791 
z
M 3481 434 
Q 3481 -459 3084 -895 
Q 2688 -1331 1869 -1331 
Q 1566 -1331 1297 -1286 
Q 1028 -1241 775 -1147 
L 775 -588 
Q 1028 -725 1275 -790 
Q 1522 -856 1778 -856 
Q 2344 -856 2625 -561 
Q 2906 -266 2906 331 
L 2906 616 
Q 2728 306 2450 153 
Q 2172 0 1784 0 
Q 1141 0 747 490 
Q 353 981 353 1791 
Q 353 2603 747 3093 
Q 1141 3584 1784 3584 
Q 2172 3584 2450 3431 
Q 2728 3278 2906 2969 
L 2906 3500 
L 3481 3500 
L 3481 434 
z
" transform="scale(0.015625)"/>
       </defs>
       <use xlink:href="#DejaVuSans-4e"/>
       <use xlink:href="#DejaVuSans-6f" x="74.804688"/>
       <use xlink:href="#DejaVuSans-74" x="135.986328"/>
       <use xlink:href="#DejaVuSans-20" x="175.195312"/>
       <use xlink:href="#DejaVuSans-4d" x="206.982422"/>
       <use xlink:href="#DejaVuSans-4c" x="293.261719"/>
       <use xlink:href="#DejaVuSans-50" x="348.974609"/>
       <use xlink:href="#DejaVuSans-2d" x="407.027344"/>
       <use xlink:href="#DejaVuSans-66" x="443.111328"/>
       <use xlink:href="#DejaVuSans-6f" x="478.316406"/>
       <use xlink:href="#DejaVuSans-72" x="539.498047"/>
       <use xlink:href="#DejaVuSans-6d" x="578.861328"/>
       <use xlink:href="#DejaVuSans-69" x="676.273438"/>
       <use xlink:href="#DejaVuSans-6e" x="704.056641"/>
       <use xlink:href="#DejaVuSans-67" x="767.435547"/>
      </g>
     </g>
    </g>
    <g id="xtick_2">
     <g id="line2d_2">
      <g>
       <use xlink:href="#m41c757d3d9" x="254.53875" y="234.497548" style="stroke: #000000; stroke-width: 0.8"/>
      </g>
     </g>
     <g id="text_2">
      <!-- MLP-forming -->
      <g transform="translate(210.410349 276.729268) rotate(-15) scale(0.15 -0.15)">
       <use xlink:href="#DejaVuSans-4d"/>
       <use xlink:href="#DejaVuSans-4c" x="86.279297"/>
       <use xlink:href="#DejaVuSans-50" x="141.992188"/>
       <use xlink:href="#DejaVuSans-2d" x="200.044922"/>
       <use xlink:href="#DejaVuSans-66" x="236.128906"/>
       <use xlink:href="#DejaVuSans-6f" x="271.333984"/>
       <use xlink:href="#DejaVuSans-72" x="332.515625"/>
       <use xlink:href="#DejaVuSans-6d" x="371.878906"/>
       <use xlink:href="#DejaVuSans-69" x="469.291016"/>
       <use xlink:href="#DejaVuSans-6e" x="497.074219"/>
       <use xlink:href="#DejaVuSans-67" x="560.453125"/>
      </g>
     </g>
    </g>
   </g>
   <g id="matplotlib.axis_2">
    <g id="ytick_1">
     <g id="line2d_3">
      <defs>
       <path id="m4a8cbff6ee" d="M 0 0 
L -3.5 0 
" style="stroke: #000000; stroke-width: 0.8"/>
      </defs>
      <g>
       <use xlink:href="#m4a8cbff6ee" x="87.13875" y="224.417548" style="stroke: #000000; stroke-width: 0.8"/>
      </g>
     </g>
     <g id="text_3">
      <!-- 0.0000 -->
      <g transform="translate(27.652813 230.116376) scale(0.15 -0.15)">
       <defs>
        <path id="DejaVuSans-30" d="M 2034 4250 
Q 1547 4250 1301 3770 
Q 1056 3291 1056 2328 
Q 1056 1369 1301 889 
Q 1547 409 2034 409 
Q 2525 409 2770 889 
Q 3016 1369 3016 2328 
Q 3016 3291 2770 3770 
Q 2525 4250 2034 4250 
z
M 2034 4750 
Q 2819 4750 3233 4129 
Q 3647 3509 3647 2328 
Q 3647 1150 3233 529 
Q 2819 -91 2034 -91 
Q 1250 -91 836 529 
Q 422 1150 422 2328 
Q 422 3509 836 4129 
Q 1250 4750 2034 4750 
z
" transform="scale(0.015625)"/>
        <path id="DejaVuSans-2e" d="M 684 794 
L 1344 794 
L 1344 0 
L 684 0 
L 684 794 
z
" transform="scale(0.015625)"/>
       </defs>
       <use xlink:href="#DejaVuSans-30"/>
       <use xlink:href="#DejaVuSans-2e" x="63.623047"/>
       <use xlink:href="#DejaVuSans-30" x="95.410156"/>
       <use xlink:href="#DejaVuSans-30" x="159.033203"/>
       <use xlink:href="#DejaVuSans-30" x="222.65625"/>
       <use xlink:href="#DejaVuSans-30" x="286.279297"/>
      </g>
     </g>
    </g>
    <g id="ytick_2">
     <g id="line2d_4">
      <g>
       <use xlink:href="#m4a8cbff6ee" x="87.13875" y="189.164428" style="stroke: #000000; stroke-width: 0.8"/>
      </g>
     </g>
     <g id="text_4">
      <!-- 0.0002 -->
      <g transform="translate(27.652813 194.863256) scale(0.15 -0.15)">
       <defs>
        <path id="DejaVuSans-32" d="M 1228 531 
L 3431 531 
L 3431 0 
L 469 0 
L 469 531 
Q 828 903 1448 1529 
Q 2069 2156 2228 2338 
Q 2531 2678 2651 2914 
Q 2772 3150 2772 3378 
Q 2772 3750 2511 3984 
Q 2250 4219 1831 4219 
Q 1534 4219 1204 4116 
Q 875 4013 500 3803 
L 500 4441 
Q 881 4594 1212 4672 
Q 1544 4750 1819 4750 
Q 2544 4750 2975 4387 
Q 3406 4025 3406 3419 
Q 3406 3131 3298 2873 
Q 3191 2616 2906 2266 
Q 2828 2175 2409 1742 
Q 1991 1309 1228 531 
z
" transform="scale(0.015625)"/>
       </defs>
       <use xlink:href="#DejaVuSans-30"/>
       <use xlink:href="#DejaVuSans-2e" x="63.623047"/>
       <use xlink:href="#DejaVuSans-30" x="95.410156"/>
       <use xlink:href="#DejaVuSans-30" x="159.033203"/>
       <use xlink:href="#DejaVuSans-30" x="222.65625"/>
       <use xlink:href="#DejaVuSans-32" x="286.279297"/>
      </g>
     </g>
    </g>
    <g id="ytick_3">
     <g id="line2d_5">
      <g>
       <use xlink:href="#m4a8cbff6ee" x="87.13875" y="153.911308" style="stroke: #000000; stroke-width: 0.8"/>
      </g>
     </g>
     <g id="text_5">
      <!-- 0.0004 -->
      <g transform="translate(27.652813 159.610136) scale(0.15 -0.15)">
       <defs>
        <path id="DejaVuSans-34" d="M 2419 4116 
L 825 1625 
L 2419 1625 
L 2419 4116 
z
M 2253 4666 
L 3047 4666 
L 3047 1625 
L 3713 1625 
L 3713 1100 
L 3047 1100 
L 3047 0 
L 2419 0 
L 2419 1100 
L 313 1100 
L 313 1709 
L 2253 4666 
z
" transform="scale(0.015625)"/>
       </defs>
       <use xlink:href="#DejaVuSans-30"/>
       <use xlink:href="#DejaVuSans-2e" x="63.623047"/>
       <use xlink:href="#DejaVuSans-30" x="95.410156"/>
       <use xlink:href="#DejaVuSans-30" x="159.033203"/>
       <use xlink:href="#DejaVuSans-30" x="222.65625"/>
       <use xlink:href="#DejaVuSans-34" x="286.279297"/>
      </g>
     </g>
    </g>
    <g id="ytick_4">
     <g id="line2d_6">
      <g>
       <use xlink:href="#m4a8cbff6ee" x="87.13875" y="118.658188" style="stroke: #000000; stroke-width: 0.8"/>
      </g>
     </g>
     <g id="text_6">
      <!-- 0.0006 -->
      <g transform="translate(27.652813 124.357016) scale(0.15 -0.15)">
       <defs>
        <path id="DejaVuSans-36" d="M 2113 2584 
Q 1688 2584 1439 2293 
Q 1191 2003 1191 1497 
Q 1191 994 1439 701 
Q 1688 409 2113 409 
Q 2538 409 2786 701 
Q 3034 994 3034 1497 
Q 3034 2003 2786 2293 
Q 2538 2584 2113 2584 
z
M 3366 4563 
L 3366 3988 
Q 3128 4100 2886 4159 
Q 2644 4219 2406 4219 
Q 1781 4219 1451 3797 
Q 1122 3375 1075 2522 
Q 1259 2794 1537 2939 
Q 1816 3084 2150 3084 
Q 2853 3084 3261 2657 
Q 3669 2231 3669 1497 
Q 3669 778 3244 343 
Q 2819 -91 2113 -91 
Q 1303 -91 875 529 
Q 447 1150 447 2328 
Q 447 3434 972 4092 
Q 1497 4750 2381 4750 
Q 2619 4750 2861 4703 
Q 3103 4656 3366 4563 
z
" transform="scale(0.015625)"/>
       </defs>
       <use xlink:href="#DejaVuSans-30"/>
       <use xlink:href="#DejaVuSans-2e" x="63.623047"/>
       <use xlink:href="#DejaVuSans-30" x="95.410156"/>
       <use xlink:href="#DejaVuSans-30" x="159.033203"/>
       <use xlink:href="#DejaVuSans-30" x="222.65625"/>
       <use xlink:href="#DejaVuSans-36" x="286.279297"/>
      </g>
     </g>
    </g>
    <g id="ytick_5">
     <g id="line2d_7">
      <g>
       <use xlink:href="#m4a8cbff6ee" x="87.13875" y="83.405068" style="stroke: #000000; stroke-width: 0.8"/>
      </g>
     </g>
     <g id="text_7">
      <!-- 0.0008 -->
      <g transform="translate(27.652813 89.103896) scale(0.15 -0.15)">
       <defs>
        <path id="DejaVuSans-38" d="M 2034 2216 
Q 1584 2216 1326 1975 
Q 1069 1734 1069 1313 
Q 1069 891 1326 650 
Q 1584 409 2034 409 
Q 2484 409 2743 651 
Q 3003 894 3003 1313 
Q 3003 1734 2745 1975 
Q 2488 2216 2034 2216 
z
M 1403 2484 
Q 997 2584 770 2862 
Q 544 3141 544 3541 
Q 544 4100 942 4425 
Q 1341 4750 2034 4750 
Q 2731 4750 3128 4425 
Q 3525 4100 3525 3541 
Q 3525 3141 3298 2862 
Q 3072 2584 2669 2484 
Q 3125 2378 3379 2068 
Q 3634 1759 3634 1313 
Q 3634 634 3220 271 
Q 2806 -91 2034 -91 
Q 1263 -91 848 271 
Q 434 634 434 1313 
Q 434 1759 690 2068 
Q 947 2378 1403 2484 
z
M 1172 3481 
Q 1172 3119 1398 2916 
Q 1625 2713 2034 2713 
Q 2441 2713 2670 2916 
Q 2900 3119 2900 3481 
Q 2900 3844 2670 4047 
Q 2441 4250 2034 4250 
Q 1625 4250 1398 4047 
Q 1172 3844 1172 3481 
z
" transform="scale(0.015625)"/>
       </defs>
       <use xlink:href="#DejaVuSans-30"/>
       <use xlink:href="#DejaVuSans-2e" x="63.623047"/>
       <use xlink:href="#DejaVuSans-30" x="95.410156"/>
       <use xlink:href="#DejaVuSans-30" x="159.033203"/>
       <use xlink:href="#DejaVuSans-30" x="222.65625"/>
       <use xlink:href="#DejaVuSans-38" x="286.279297"/>
      </g>
     </g>
    </g>
    <g id="ytick_6">
     <g id="line2d_8">
      <g>
       <use xlink:href="#m4a8cbff6ee" x="87.13875" y="48.151948" style="stroke: #000000; stroke-width: 0.8"/>
      </g>
     </g>
     <g id="text_8">
      <!-- 0.0010 -->
      <g transform="translate(27.652813 53.850776) scale(0.15 -0.15)">
       <defs>
        <path id="DejaVuSans-31" d="M 794 531 
L 1825 531 
L 1825 4091 
L 703 3866 
L 703 4441 
L 1819 4666 
L 2450 4666 
L 2450 531 
L 3481 531 
L 3481 0 
L 794 0 
L 794 531 
z
" transform="scale(0.015625)"/>
       </defs>
       <use xlink:href="#DejaVuSans-30"/>
       <use xlink:href="#DejaVuSans-2e" x="63.623047"/>
       <use xlink:href="#DejaVuSans-30" x="95.410156"/>
       <use xlink:href="#DejaVuSans-30" x="159.033203"/>
       <use xlink:href="#DejaVuSans-31" x="222.65625"/>
       <use xlink:href="#DejaVuSans-30" x="286.279297"/>
      </g>
     </g>
    </g>
    <g id="ytick_7">
     <g id="line2d_9">
      <g>
       <use xlink:href="#m4a8cbff6ee" x="87.13875" y="12.898828" style="stroke: #000000; stroke-width: 0.8"/>
      </g>
     </g>
     <g id="text_9">
      <!-- 0.0012 -->
      <g transform="translate(27.652813 18.597656) scale(0.15 -0.15)">
       <use xlink:href="#DejaVuSans-30"/>
       <use xlink:href="#DejaVuSans-2e" x="63.623047"/>
       <use xlink:href="#DejaVuSans-30" x="95.410156"/>
       <use xlink:href="#DejaVuSans-30" x="159.033203"/>
       <use xlink:href="#DejaVuSans-31" x="222.65625"/>
       <use xlink:href="#DejaVuSans-32" x="286.279297"/>
      </g>
     </g>
    </g>
    <g id="text_10">
     <!-- NS in hits / Total in genome  -->
     <g transform="translate(20.117344 242.725126) rotate(-90) scale(0.17 -0.17)">
      <defs>
       <path id="DejaVuSans-53" d="M 3425 4513 
L 3425 3897 
Q 3066 4069 2747 4153 
Q 2428 4238 2131 4238 
Q 1616 4238 1336 4038 
Q 1056 3838 1056 3469 
Q 1056 3159 1242 3001 
Q 1428 2844 1947 2747 
L 2328 2669 
Q 3034 2534 3370 2195 
Q 3706 1856 3706 1288 
Q 3706 609 3251 259 
Q 2797 -91 1919 -91 
Q 1588 -91 1214 -16 
Q 841 59 441 206 
L 441 856 
Q 825 641 1194 531 
Q 1563 422 1919 422 
Q 2459 422 2753 634 
Q 3047 847 3047 1241 
Q 3047 1584 2836 1778 
Q 2625 1972 2144 2069 
L 1759 2144 
Q 1053 2284 737 2584 
Q 422 2884 422 3419 
Q 422 4038 858 4394 
Q 1294 4750 2059 4750 
Q 2388 4750 2728 4690 
Q 3069 4631 3425 4513 
z
" transform="scale(0.015625)"/>
       <path id="DejaVuSans-68" d="M 3513 2113 
L 3513 0 
L 2938 0 
L 2938 2094 
Q 2938 2591 2744 2837 
Q 2550 3084 2163 3084 
Q 1697 3084 1428 2787 
Q 1159 2491 1159 1978 
L 1159 0 
L 581 0 
L 581 4863 
L 1159 4863 
L 1159 2956 
Q 1366 3272 1645 3428 
Q 1925 3584 2291 3584 
Q 2894 3584 3203 3211 
Q 3513 2838 3513 2113 
z
" transform="scale(0.015625)"/>
       <path id="DejaVuSans-73" d="M 2834 3397 
L 2834 2853 
Q 2591 2978 2328 3040 
Q 2066 3103 1784 3103 
Q 1356 3103 1142 2972 
Q 928 2841 928 2578 
Q 928 2378 1081 2264 
Q 1234 2150 1697 2047 
L 1894 2003 
Q 2506 1872 2764 1633 
Q 3022 1394 3022 966 
Q 3022 478 2636 193 
Q 2250 -91 1575 -91 
Q 1294 -91 989 -36 
Q 684 19 347 128 
L 347 722 
Q 666 556 975 473 
Q 1284 391 1588 391 
Q 1994 391 2212 530 
Q 2431 669 2431 922 
Q 2431 1156 2273 1281 
Q 2116 1406 1581 1522 
L 1381 1569 
Q 847 1681 609 1914 
Q 372 2147 372 2553 
Q 372 3047 722 3315 
Q 1072 3584 1716 3584 
Q 2034 3584 2315 3537 
Q 2597 3491 2834 3397 
z
" transform="scale(0.015625)"/>
       <path id="DejaVuSans-2f" d="M 1625 4666 
L 2156 4666 
L 531 -594 
L 0 -594 
L 1625 4666 
z
" transform="scale(0.015625)"/>
       <path id="DejaVuSans-54" d="M -19 4666 
L 3928 4666 
L 3928 4134 
L 2272 4134 
L 2272 0 
L 1638 0 
L 1638 4134 
L -19 4134 
L -19 4666 
z
" transform="scale(0.015625)"/>
       <path id="DejaVuSans-61" d="M 2194 1759 
Q 1497 1759 1228 1600 
Q 959 1441 959 1056 
Q 959 750 1161 570 
Q 1363 391 1709 391 
Q 2188 391 2477 730 
Q 2766 1069 2766 1631 
L 2766 1759 
L 2194 1759 
z
M 3341 1997 
L 3341 0 
L 2766 0 
L 2766 531 
Q 2569 213 2275 61 
Q 1981 -91 1556 -91 
Q 1019 -91 701 211 
Q 384 513 384 1019 
Q 384 1609 779 1909 
Q 1175 2209 1959 2209 
L 2766 2209 
L 2766 2266 
Q 2766 2663 2505 2880 
Q 2244 3097 1772 3097 
Q 1472 3097 1187 3025 
Q 903 2953 641 2809 
L 641 3341 
Q 956 3463 1253 3523 
Q 1550 3584 1831 3584 
Q 2591 3584 2966 3190 
Q 3341 2797 3341 1997 
z
" transform="scale(0.015625)"/>
       <path id="DejaVuSans-6c" d="M 603 4863 
L 1178 4863 
L 1178 0 
L 603 0 
L 603 4863 
z
" transform="scale(0.015625)"/>
       <path id="DejaVuSans-65" d="M 3597 1894 
L 3597 1613 
L 953 1613 
Q 991 1019 1311 708 
Q 1631 397 2203 397 
Q 2534 397 2845 478 
Q 3156 559 3463 722 
L 3463 178 
Q 3153 47 2828 -22 
Q 2503 -91 2169 -91 
Q 1331 -91 842 396 
Q 353 884 353 1716 
Q 353 2575 817 3079 
Q 1281 3584 2069 3584 
Q 2775 3584 3186 3129 
Q 3597 2675 3597 1894 
z
M 3022 2063 
Q 3016 2534 2758 2815 
Q 2500 3097 2075 3097 
Q 1594 3097 1305 2825 
Q 1016 2553 972 2059 
L 3022 2063 
z
" transform="scale(0.015625)"/>
      </defs>
      <use xlink:href="#DejaVuSans-4e"/>
      <use xlink:href="#DejaVuSans-53" x="74.804688"/>
      <use xlink:href="#DejaVuSans-20" x="138.28125"/>
      <use xlink:href="#DejaVuSans-69" x="170.068359"/>
      <use xlink:href="#DejaVuSans-6e" x="197.851562"/>
      <use xlink:href="#DejaVuSans-20" x="261.230469"/>
      <use xlink:href="#DejaVuSans-68" x="293.017578"/>
      <use xlink:href="#DejaVuSans-69" x="356.396484"/>
      <use xlink:href="#DejaVuSans-74" x="384.179688"/>
      <use xlink:href="#DejaVuSans-73" x="423.388672"/>
      <use xlink:href="#DejaVuSans-20" x="475.488281"/>
      <use xlink:href="#DejaVuSans-2f" x="507.275391"/>
      <use xlink:href="#DejaVuSans-20" x="540.966797"/>
      <use xlink:href="#DejaVuSans-54" x="572.753906"/>
      <use xlink:href="#DejaVuSans-6f" x="616.837891"/>
      <use xlink:href="#DejaVuSans-74" x="678.019531"/>
      <use xlink:href="#DejaVuSans-61" x="717.228516"/>
      <use xlink:href="#DejaVuSans-6c" x="778.507812"/>
      <use xlink:href="#DejaVuSans-20" x="806.291016"/>
      <use xlink:href="#DejaVuSans-69" x="838.078125"/>
      <use xlink:href="#DejaVuSans-6e" x="865.861328"/>
      <use xlink:href="#DejaVuSans-20" x="929.240234"/>
      <use xlink:href="#DejaVuSans-67" x="961.027344"/>
      <use xlink:href="#DejaVuSans-65" x="1024.503906"/>
      <use xlink:href="#DejaVuSans-6e" x="1086.027344"/>
      <use xlink:href="#DejaVuSans-6f" x="1149.40625"/>
      <use xlink:href="#DejaVuSans-6d" x="1210.587891"/>
      <use xlink:href="#DejaVuSans-65" x="1308"/>
      <use xlink:href="#DejaVuSans-20" x="1369.523438"/>
     </g>
    </g>
   </g>
   <g id="patch_3">
    <path d="M 98.29875 150.363856 
L 187.57875 150.363856 
L 187.57875 99.009515 
L 98.29875 99.009515 
L 98.29875 150.363856 
z
" clip-path="url(#p814d4088bc)" style="fill: #3274a1; stroke: #3f3f3f; stroke-linejoin: miter"/>
   </g>
   <g id="line2d_10">
    <path d="M 142.93875 150.363856 
L 142.93875 224.417548 
" clip-path="url(#p814d4088bc)" style="fill: none; stroke: #3f3f3f"/>
   </g>
   <g id="line2d_11">
    <path d="M 142.93875 99.009515 
L 142.93875 40.143944 
" clip-path="url(#p814d4088bc)" style="fill: none; stroke: #3f3f3f"/>
   </g>
   <g id="line2d_12">
    <path d="M 120.61875 224.417548 
L 165.25875 224.417548 
" clip-path="url(#p814d4088bc)" style="fill: none; stroke: #3f3f3f; stroke-linecap: square"/>
   </g>
   <g id="line2d_13">
    <path d="M 120.61875 40.143944 
L 165.25875 40.143944 
" clip-path="url(#p814d4088bc)" style="fill: none; stroke: #3f3f3f; stroke-linecap: square"/>
   </g>
   <g id="line2d_14"/>
   <g id="patch_4">
    <path d="M 209.89875 116.128093 
L 299.17875 116.128093 
L 299.17875 51.149696 
L 209.89875 51.149696 
L 209.89875 116.128093 
z
" clip-path="url(#p814d4088bc)" style="fill: #3274a1; stroke: #3f3f3f; stroke-linejoin: miter"/>
   </g>
   <g id="line2d_15">
    <path d="M 254.53875 116.128093 
L 254.53875 141.082093 
" clip-path="url(#p814d4088bc)" style="fill: none; stroke: #3f3f3f"/>
   </g>
   <g id="line2d_16">
    <path d="M 254.53875 51.149696 
L 254.53875 22.817548 
" clip-path="url(#p814d4088bc)" style="fill: none; stroke: #3f3f3f"/>
   </g>
   <g id="line2d_17">
    <path d="M 232.21875 141.082093 
L 276.85875 141.082093 
" clip-path="url(#p814d4088bc)" style="fill: none; stroke: #3f3f3f; stroke-linecap: square"/>
   </g>
   <g id="line2d_18">
    <path d="M 232.21875 22.817548 
L 276.85875 22.817548 
" clip-path="url(#p814d4088bc)" style="fill: none; stroke: #3f3f3f; stroke-linecap: square"/>
   </g>
   <g id="line2d_19"/>
   <g id="line2d_20">
    <path d="M 98.29875 130.228534 
L 187.57875 130.228534 
" clip-path="url(#p814d4088bc)" style="fill: none; stroke: #3f3f3f"/>
   </g>
   <g id="line2d_21">
    <path d="M 209.89875 75.954679 
L 299.17875 75.954679 
" clip-path="url(#p814d4088bc)" style="fill: none; stroke: #3f3f3f"/>
   </g>
   <g id="patch_5">
    <path d="M 87.13875 234.497548 
L 87.13875 12.737548 
" style="fill: none; stroke: #000000; stroke-width: 0.8; stroke-linejoin: miter; stroke-linecap: square"/>
   </g>
   <g id="patch_6">
    <path d="M 310.33875 234.497548 
L 310.33875 12.737548 
" style="fill: none; stroke: #000000; stroke-width: 0.8; stroke-linejoin: miter; stroke-linecap: square"/>
   </g>
   <g id="patch_7">
    <path d="M 87.13875 234.497548 
L 310.33875 234.497548 
" style="fill: none; stroke: #000000; stroke-width: 0.8; stroke-linejoin: miter; stroke-linecap: square"/>
   </g>
   <g id="patch_8">
    <path d="M 87.13875 12.737548 
L 310.33875 12.737548 
" style="fill: none; stroke: #000000; stroke-width: 0.8; stroke-linejoin: miter; stroke-linecap: square"/>
   </g>
   <g id="PathCollection_1">
    <defs>
     <path id="m43f6ddbece" d="M 0 2.5 
C 0.663008 2.5 1.29895 2.236584 1.767767 1.767767 
C 2.236584 1.29895 2.5 0.663008 2.5 0 
C 2.5 -0.663008 2.236584 -1.29895 1.767767 -1.767767 
C 1.29895 -2.236584 0.663008 -2.5 0 -2.5 
C -0.663008 -2.5 -1.29895 -2.236584 -1.767767 -1.767767 
C -2.236584 -1.29895 -2.5 -0.663008 -2.5 0 
C -2.5 0.663008 -2.236584 1.29895 -1.767767 1.767767 
C -1.29895 2.236584 -0.663008 2.5 0 2.5 
z
"/>
    </defs>
    <g clip-path="url(#p814d4088bc)">
     <use xlink:href="#m43f6ddbece" x="146.558509" y="168.630233" style="fill: #404040"/>
     <use xlink:href="#m43f6ddbece" x="132.759409" y="159.070797" style="fill: #404040"/>
     <use xlink:href="#m43f6ddbece" x="143.229128" y="71.470966" style="fill: #404040"/>
     <use xlink:href="#m43f6ddbece" x="134.396595" y="131.789388" style="fill: #404040"/>
     <use xlink:href="#m43f6ddbece" x="146.211832" y="128.221371" style="fill: #404040"/>
     <use xlink:href="#m43f6ddbece" x="151.192817" y="110.016408" style="fill: #404040"/>
     <use xlink:href="#m43f6ddbece" x="139.824099" y="119.43357" style="fill: #404040"/>
     <use xlink:href="#m43f6ddbece" x="140.87334" y="152.413627" style="fill: #404040"/>
     <use xlink:href="#m43f6ddbece" x="139.768868" y="156.619827" style="fill: #404040"/>
     <use xlink:href="#m43f6ddbece" x="134.340687" y="67.800978" style="fill: #404040"/>
     <use xlink:href="#m43f6ddbece" x="139.041409" y="54.736143" style="fill: #404040"/>
     <use xlink:href="#m43f6ddbece" x="150.920639" y="133.649731" style="fill: #404040"/>
     <use xlink:href="#m43f6ddbece" x="139.735405" y="132.692171" style="fill: #404040"/>
     <use xlink:href="#m43f6ddbece" x="146.933005" y="172.398779" style="fill: #404040"/>
     <use xlink:href="#m43f6ddbece" x="146.899158" y="142.108139" style="fill: #404040"/>
     <use xlink:href="#m43f6ddbece" x="151.611938" y="142.567449" style="fill: #404040"/>
     <use xlink:href="#m43f6ddbece" x="146.639988" y="49.03637" style="fill: #404040"/>
     <use xlink:href="#m43f6ddbece" x="149.916359" y="117.32697" style="fill: #404040"/>
     <use xlink:href="#m43f6ddbece" x="146.904144" y="145.460143" style="fill: #404040"/>
     <use xlink:href="#m43f6ddbece" x="132.93432" y="166.531652" style="fill: #404040"/>
     <use xlink:href="#m43f6ddbece" x="141.467533" y="85.803815" style="fill: #404040"/>
     <use xlink:href="#m43f6ddbece" x="142.323119" y="40.143944" style="fill: #404040"/>
     <use xlink:href="#m43f6ddbece" x="140.711993" y="140.973013" style="fill: #404040"/>
     <use xlink:href="#m43f6ddbece" x="142.031111" y="128.667681" style="fill: #404040"/>
     <use xlink:href="#m43f6ddbece" x="135.776276" y="84.78847" style="fill: #404040"/>
     <use xlink:href="#m43f6ddbece" x="134.088796" y="149.680599" style="fill: #404040"/>
     <use xlink:href="#m43f6ddbece" x="147.273488" y="108.993107" style="fill: #404040"/>
     <use xlink:href="#m43f6ddbece" x="138.639183" y="132.55673" style="fill: #404040"/>
     <use xlink:href="#m43f6ddbece" x="147.325483" y="146.035994" style="fill: #404040"/>
     <use xlink:href="#m43f6ddbece" x="136.68486" y="58.745974" style="fill: #404040"/>
     <use xlink:href="#m43f6ddbece" x="141.079254" y="111.51618" style="fill: #404040"/>
     <use xlink:href="#m43f6ddbece" x="144.702214" y="164.533874" style="fill: #404040"/>
     <use xlink:href="#m43f6ddbece" x="134.744071" y="138.546589" style="fill: #404040"/>
     <use xlink:href="#m43f6ddbece" x="135.003183" y="128.182064" style="fill: #404040"/>
     <use xlink:href="#m43f6ddbece" x="132.891481" y="106.708972" style="fill: #404040"/>
     <use xlink:href="#m43f6ddbece" x="151.522999" y="60.653301" style="fill: #404040"/>
     <use xlink:href="#m43f6ddbece" x="145.644375" y="162.710704" style="fill: #404040"/>
     <use xlink:href="#m43f6ddbece" x="145.454836" y="118.114108" style="fill: #404040"/>
     <use xlink:href="#m43f6ddbece" x="134.536578" y="40.254608" style="fill: #404040"/>
     <use xlink:href="#m43f6ddbece" x="135.710848" y="62.729222" style="fill: #404040"/>
     <use xlink:href="#m43f6ddbece" x="139.927953" y="43.857015" style="fill: #404040"/>
     <use xlink:href="#m43f6ddbece" x="133.551465" y="103.411415" style="fill: #404040"/>
     <use xlink:href="#m43f6ddbece" x="149.35363" y="197.785961" style="fill: #404040"/>
     <use xlink:href="#m43f6ddbece" x="152.935701" y="132.57428" style="fill: #404040"/>
     <use xlink:href="#m43f6ddbece" x="141.44021" y="127.354993" style="fill: #404040"/>
     <use xlink:href="#m43f6ddbece" x="134.539944" y="224.417548" style="fill: #404040"/>
     <use xlink:href="#m43f6ddbece" x="139.764908" y="208.406503" style="fill: #404040"/>
     <use xlink:href="#m43f6ddbece" x="142.177951" y="224.417548" style="fill: #404040"/>
    </g>
   </g>
   <g id="PathCollection_2">
    <g clip-path="url(#p814d4088bc)">
     <use xlink:href="#m43f6ddbece" x="258.097587" y="108.397638" style="fill: #404040"/>
     <use xlink:href="#m43f6ddbece" x="253.461419" y="37.78462" style="fill: #404040"/>
     <use xlink:href="#m43f6ddbece" x="263.407593" y="55.604722" style="fill: #404040"/>
     <use xlink:href="#m43f6ddbece" x="248.206955" y="139.319456" style="fill: #404040"/>
     <use xlink:href="#m43f6ddbece" x="258.222775" y="141.082093" style="fill: #404040"/>
     <use xlink:href="#m43f6ddbece" x="256.330931" y="87.888547" style="fill: #404040"/>
     <use xlink:href="#m43f6ddbece" x="246.729267" y="64.02081" style="fill: #404040"/>
     <use xlink:href="#m43f6ddbece" x="256.717394" y="22.817548" style="fill: #404040"/>
    </g>
   </g>
   <g id="text_11">
    <!-- P = 0.021 -->
    <g transform="translate(195.13875 179.777548) scale(0.15 -0.15)">
     <defs>
      <path id="DejaVuSans-3d" d="M 678 2906 
L 4684 2906 
L 4684 2381 
L 678 2381 
L 678 2906 
z
M 678 1631 
L 4684 1631 
L 4684 1100 
L 678 1100 
L 678 1631 
z
" transform="scale(0.015625)"/>
     </defs>
     <use xlink:href="#DejaVuSans-50"/>
     <use xlink:href="#DejaVuSans-20" x="60.302734"/>
     <use xlink:href="#DejaVuSans-3d" x="92.089844"/>
     <use xlink:href="#DejaVuSans-20" x="175.878906"/>
     <use xlink:href="#DejaVuSans-30" x="207.666016"/>
     <use xlink:href="#DejaVuSans-2e" x="271.289062"/>
     <use xlink:href="#DejaVuSans-30" x="303.076172"/>
     <use xlink:href="#DejaVuSans-32" x="366.699219"/>
     <use xlink:href="#DejaVuSans-31" x="430.322266"/>
    </g>
   </g>
  </g>
 </g>
 <defs>
  <clipPath id="p814d4088bc">
   <rect x="87.13875" y="12.737548" width="223.2" height="221.76"/>
  </clipPath>
 </defs>
</svg>
