<?xml version="1.0" encoding="utf-8" standalone="no"?>
<!DOCTYPE svg PUBLIC "-//W3C//DTD SVG 1.1//EN"
  "http://www.w3.org/Graphics/SVG/1.1/DTD/svg11.dtd">
<svg xmlns:xlink="http://www.w3.org/1999/xlink" width="288pt" height="360pt" viewBox="0 0 288 360" xmlns="http://www.w3.org/2000/svg" version="1.1">
 <metadata>
  <rdf:RDF xmlns:dc="http://purl.org/dc/elements/1.1/" xmlns:cc="http://creativecommons.org/ns#" xmlns:rdf="http://www.w3.org/1999/02/22-rdf-syntax-ns#">
   <cc:Work>
    <dc:type rdf:resource="http://purl.org/dc/dcmitype/StillImage"/>
    <dc:date>2023-12-04T10:38:42.311558</dc:date>
    <dc:format>image/svg+xml</dc:format>
    <dc:creator>
     <cc:Agent>
      <dc:title>Matplotlib v3.8.0, https://matplotlib.org/</dc:title>
     </cc:Agent>
    </dc:creator>
   </cc:Work>
  </rdf:RDF>
 </metadata>
 <defs>
  <style type="text/css">*{stroke-linejoin: round; stroke-linecap: butt}</style>
 </defs>
 <g id="figure_1">
  <g id="patch_1">
   <path d="M 0 360 
L 288 360 
L 288 0 
L 0 0 
z
" style="fill: #ffffff"/>
  </g>
  <g id="axes_1">
   <g id="patch_2">
    <path d="M 36 320.4 
L 259.2 320.4 
L 259.2 43.2 
L 36 43.2 
z
" style="fill: #ffffff"/>
   </g>
   <g id="patch_3">
    <path d="M 43.44 320.4 
L 73.2 320.4 
L 73.2 139.850518 
L 43.44 139.850518 
z
" clip-path="url(#p967607e4d5)" style="fill: #2eabb8; opacity: 0.4"/>
   </g>
   <g id="patch_4">
    <path d="M 117.84 320.4 
L 147.6 320.4 
L 147.6 142.590822 
L 117.84 142.590822 
z
" clip-path="url(#p967607e4d5)" style="fill: #2eabb8; opacity: 0.4"/>
   </g>
   <g id="patch_5">
    <path d="M 192.24 320.4 
L 222 320.4 
L 222 270 
L 192.24 270 
z
" clip-path="url(#p967607e4d5)" style="fill: #2eabb8; opacity: 0.4"/>
   </g>
   <g id="patch_6">
    <path d="M 73.2 320.4 
L 102.96 320.4 
L 102.96 272.015796 
L 73.2 272.015796 
z
" clip-path="url(#p967607e4d5)" style="fill: #e1812c; opacity: 0.4"/>
   </g>
   <g id="patch_7">
    <path d="M 147.6 320.4 
L 177.36 320.4 
L 177.36 242.24995 
L 147.6 242.24995 
z
" clip-path="url(#p967607e4d5)" style="fill: #e1812c; opacity: 0.4"/>
   </g>
   <g id="patch_8">
    <path d="M 222 320.4 
L 251.76 320.4 
L 251.76 214.640832 
L 222 214.640832 
z
" clip-path="url(#p967607e4d5)" style="fill: #e1812c; opacity: 0.4"/>
   </g>
   <g id="patch_9">
    <path d="M 73.2 320.4 
L 73.2 320.4 
L 73.2 320.4 
L 73.2 320.4 
z
" clip-path="url(#p967607e4d5)" style="fill: #2eabb8; opacity: 0.4"/>
   </g>
   <g id="patch_10">
    <path d="M 73.2 320.4 
L 73.2 320.4 
L 73.2 320.4 
L 73.2 320.4 
z
" clip-path="url(#p967607e4d5)" style="fill: #e1812c; opacity: 0.4"/>
   </g>
   <g id="matplotlib.axis_1">
    <g id="xtick_1">
     <g id="line2d_1">
      <defs>
       <path id="me071acd947" d="M 0 0 
L 0 3.5 
" style="stroke: #000000; stroke-width: 0.8"/>
      </defs>
      <g>
       <use xlink:href="#me071acd947" x="73.2" y="320.4" style="stroke: #000000; stroke-width: 0.8"/>
      </g>
     </g>
     <g id="text_1">
      <!-- srb10Δ -->
      <g transform="translate(45.187436 362.53102) rotate(-20) scale(0.2 -0.2)">
       <defs>
        <path id="ArialMT-73" d="M 197 991 
L 753 1078 
Q 800 744 1014 566 
Q 1228 388 1613 388 
Q 2000 388 2187 545 
Q 2375 703 2375 916 
Q 2375 1106 2209 1216 
Q 2094 1291 1634 1406 
Q 1016 1563 777 1677 
Q 538 1791 414 1992 
Q 291 2194 291 2438 
Q 291 2659 392 2848 
Q 494 3038 669 3163 
Q 800 3259 1026 3326 
Q 1253 3394 1513 3394 
Q 1903 3394 2198 3281 
Q 2494 3169 2634 2976 
Q 2775 2784 2828 2463 
L 2278 2388 
Q 2241 2644 2061 2787 
Q 1881 2931 1553 2931 
Q 1166 2931 1000 2803 
Q 834 2675 834 2503 
Q 834 2394 903 2306 
Q 972 2216 1119 2156 
Q 1203 2125 1616 2013 
Q 2213 1853 2448 1751 
Q 2684 1650 2818 1456 
Q 2953 1263 2953 975 
Q 2953 694 2789 445 
Q 2625 197 2315 61 
Q 2006 -75 1616 -75 
Q 969 -75 630 194 
Q 291 463 197 991 
z
" transform="scale(0.015625)"/>
        <path id="ArialMT-72" d="M 416 0 
L 416 3319 
L 922 3319 
L 922 2816 
Q 1116 3169 1280 3281 
Q 1444 3394 1641 3394 
Q 1925 3394 2219 3213 
L 2025 2691 
Q 1819 2813 1613 2813 
Q 1428 2813 1281 2702 
Q 1134 2591 1072 2394 
Q 978 2094 978 1738 
L 978 0 
L 416 0 
z
" transform="scale(0.015625)"/>
        <path id="ArialMT-62" d="M 941 0 
L 419 0 
L 419 4581 
L 981 4581 
L 981 2947 
Q 1338 3394 1891 3394 
Q 2197 3394 2470 3270 
Q 2744 3147 2920 2923 
Q 3097 2700 3197 2384 
Q 3297 2069 3297 1709 
Q 3297 856 2875 390 
Q 2453 -75 1863 -75 
Q 1275 -75 941 416 
L 941 0 
z
M 934 1684 
Q 934 1088 1097 822 
Q 1363 388 1816 388 
Q 2184 388 2453 708 
Q 2722 1028 2722 1663 
Q 2722 2313 2464 2622 
Q 2206 2931 1841 2931 
Q 1472 2931 1203 2611 
Q 934 2291 934 1684 
z
" transform="scale(0.015625)"/>
        <path id="ArialMT-31" d="M 2384 0 
L 1822 0 
L 1822 3584 
Q 1619 3391 1289 3197 
Q 959 3003 697 2906 
L 697 3450 
Q 1169 3672 1522 3987 
Q 1875 4303 2022 4600 
L 2384 4600 
L 2384 0 
z
" transform="scale(0.015625)"/>
        <path id="ArialMT-30" d="M 266 2259 
Q 266 3072 433 3567 
Q 600 4063 929 4331 
Q 1259 4600 1759 4600 
Q 2128 4600 2406 4451 
Q 2684 4303 2865 4023 
Q 3047 3744 3150 3342 
Q 3253 2941 3253 2259 
Q 3253 1453 3087 958 
Q 2922 463 2592 192 
Q 2263 -78 1759 -78 
Q 1097 -78 719 397 
Q 266 969 266 2259 
z
M 844 2259 
Q 844 1131 1108 757 
Q 1372 384 1759 384 
Q 2147 384 2411 759 
Q 2675 1134 2675 2259 
Q 2675 3391 2411 3762 
Q 2147 4134 1753 4134 
Q 1366 4134 1134 3806 
Q 844 3388 844 2259 
z
" transform="scale(0.015625)"/>
        <path id="ArialMT-394" d="M -6 0 
L 1753 4581 
L 2406 4581 
L 4281 0 
L -6 0 
z
M 834 541 
L 3381 541 
L 2391 3150 
Q 2169 3738 2066 4100 
Q 1981 3675 1819 3225 
L 834 541 
z
" transform="scale(0.015625)"/>
       </defs>
       <use xlink:href="#ArialMT-73"/>
       <use xlink:href="#ArialMT-72" x="50"/>
       <use xlink:href="#ArialMT-62" x="83.300781"/>
       <use xlink:href="#ArialMT-31" x="138.916016"/>
       <use xlink:href="#ArialMT-30" x="194.53125"/>
       <use xlink:href="#ArialMT-394" x="250.146484"/>
      </g>
     </g>
    </g>
    <g id="xtick_2">
     <g id="line2d_2">
      <g>
       <use xlink:href="#me071acd947" x="147.6" y="320.4" style="stroke: #000000; stroke-width: 0.8"/>
      </g>
     </g>
     <g id="text_2">
      <!-- srb11Δ -->
      <g transform="translate(120.28046 362.02654) rotate(-20) scale(0.2 -0.2)">
       <use xlink:href="#ArialMT-73"/>
       <use xlink:href="#ArialMT-72" x="50"/>
       <use xlink:href="#ArialMT-62" x="83.300781"/>
       <use xlink:href="#ArialMT-31" x="138.916016"/>
       <use xlink:href="#ArialMT-31" x="187.15625"/>
       <use xlink:href="#ArialMT-394" x="242.771484"/>
      </g>
     </g>
    </g>
    <g id="xtick_3">
     <g id="line2d_3">
      <g>
       <use xlink:href="#me071acd947" x="222" y="320.4" style="stroke: #000000; stroke-width: 0.8"/>
      </g>
     </g>
     <g id="text_3">
      <!-- WT -->
      <g transform="translate(209.159067 351.486976) rotate(-20) scale(0.2 -0.2)">
       <defs>
        <path id="ArialMT-57" d="M 1294 0 
L 78 4581 
L 700 4581 
L 1397 1578 
Q 1509 1106 1591 641 
Q 1766 1375 1797 1488 
L 2669 4581 
L 3400 4581 
L 4056 2263 
Q 4303 1400 4413 641 
Q 4500 1075 4641 1638 
L 5359 4581 
L 5969 4581 
L 4713 0 
L 4128 0 
L 3163 3491 
Q 3041 3928 3019 4028 
Q 2947 3713 2884 3491 
L 1913 0 
L 1294 0 
z
" transform="scale(0.015625)"/>
        <path id="ArialMT-54" d="M 1659 0 
L 1659 4041 
L 150 4041 
L 150 4581 
L 3781 4581 
L 3781 4041 
L 2266 4041 
L 2266 0 
L 1659 0 
z
" transform="scale(0.015625)"/>
       </defs>
       <use xlink:href="#ArialMT-57"/>
       <use xlink:href="#ArialMT-54" x="94.384766"/>
      </g>
     </g>
    </g>
   </g>
   <g id="matplotlib.axis_2">
    <g id="ytick_1">
     <g id="line2d_4">
      <defs>
       <path id="m976d458e2c" d="M 0 0 
L -3.5 0 
" style="stroke: #000000; stroke-width: 0.8"/>
      </defs>
      <g>
       <use xlink:href="#m976d458e2c" x="36" y="320.4" style="stroke: #000000; stroke-width: 0.8"/>
      </g>
     </g>
     <g id="text_4">
      <!-- 0 -->
      <g transform="translate(18.990313 326.842031) scale(0.18 -0.18)">
       <use xlink:href="#ArialMT-30"/>
      </g>
     </g>
    </g>
    <g id="ytick_2">
     <g id="line2d_5">
      <g>
       <use xlink:href="#m976d458e2c" x="36" y="270" style="stroke: #000000; stroke-width: 0.8"/>
      </g>
     </g>
     <g id="text_5">
      <!-- 1 -->
      <g transform="translate(18.990313 276.442031) scale(0.18 -0.18)">
       <use xlink:href="#ArialMT-31"/>
      </g>
     </g>
    </g>
    <g id="ytick_3">
     <g id="line2d_6">
      <g>
       <use xlink:href="#m976d458e2c" x="36" y="219.6" style="stroke: #000000; stroke-width: 0.8"/>
      </g>
     </g>
     <g id="text_6">
      <!-- 2 -->
      <g transform="translate(18.990313 226.042031) scale(0.18 -0.18)">
       <defs>
        <path id="ArialMT-32" d="M 3222 541 
L 3222 0 
L 194 0 
Q 188 203 259 391 
Q 375 700 629 1000 
Q 884 1300 1366 1694 
Q 2113 2306 2375 2664 
Q 2638 3022 2638 3341 
Q 2638 3675 2398 3904 
Q 2159 4134 1775 4134 
Q 1369 4134 1125 3890 
Q 881 3647 878 3216 
L 300 3275 
Q 359 3922 746 4261 
Q 1134 4600 1788 4600 
Q 2447 4600 2831 4234 
Q 3216 3869 3216 3328 
Q 3216 3053 3103 2787 
Q 2991 2522 2730 2228 
Q 2469 1934 1863 1422 
Q 1356 997 1212 845 
Q 1069 694 975 541 
L 3222 541 
z
" transform="scale(0.015625)"/>
       </defs>
       <use xlink:href="#ArialMT-32"/>
      </g>
     </g>
    </g>
    <g id="ytick_4">
     <g id="line2d_7">
      <g>
       <use xlink:href="#m976d458e2c" x="36" y="169.2" style="stroke: #000000; stroke-width: 0.8"/>
      </g>
     </g>
     <g id="text_7">
      <!-- 3 -->
      <g transform="translate(18.990313 175.642031) scale(0.18 -0.18)">
       <defs>
        <path id="ArialMT-33" d="M 269 1209 
L 831 1284 
Q 928 806 1161 595 
Q 1394 384 1728 384 
Q 2125 384 2398 659 
Q 2672 934 2672 1341 
Q 2672 1728 2419 1979 
Q 2166 2231 1775 2231 
Q 1616 2231 1378 2169 
L 1441 2663 
Q 1497 2656 1531 2656 
Q 1891 2656 2178 2843 
Q 2466 3031 2466 3422 
Q 2466 3731 2256 3934 
Q 2047 4138 1716 4138 
Q 1388 4138 1169 3931 
Q 950 3725 888 3313 
L 325 3413 
Q 428 3978 793 4289 
Q 1159 4600 1703 4600 
Q 2078 4600 2393 4439 
Q 2709 4278 2876 4000 
Q 3044 3722 3044 3409 
Q 3044 3113 2884 2869 
Q 2725 2625 2413 2481 
Q 2819 2388 3044 2092 
Q 3269 1797 3269 1353 
Q 3269 753 2831 336 
Q 2394 -81 1725 -81 
Q 1122 -81 723 278 
Q 325 638 269 1209 
z
" transform="scale(0.015625)"/>
       </defs>
       <use xlink:href="#ArialMT-33"/>
      </g>
     </g>
    </g>
    <g id="ytick_5">
     <g id="line2d_8">
      <g>
       <use xlink:href="#m976d458e2c" x="36" y="118.8" style="stroke: #000000; stroke-width: 0.8"/>
      </g>
     </g>
     <g id="text_8">
      <!-- 4 -->
      <g transform="translate(18.990313 125.242031) scale(0.18 -0.18)">
       <defs>
        <path id="ArialMT-34" d="M 2069 0 
L 2069 1097 
L 81 1097 
L 81 1613 
L 2172 4581 
L 2631 4581 
L 2631 1613 
L 3250 1613 
L 3250 1097 
L 2631 1097 
L 2631 0 
L 2069 0 
z
M 2069 1613 
L 2069 3678 
L 634 1613 
L 2069 1613 
z
" transform="scale(0.015625)"/>
       </defs>
       <use xlink:href="#ArialMT-34"/>
      </g>
     </g>
    </g>
    <g id="ytick_6">
     <g id="line2d_9">
      <g>
       <use xlink:href="#m976d458e2c" x="36" y="68.4" style="stroke: #000000; stroke-width: 0.8"/>
      </g>
     </g>
     <g id="text_9">
      <!-- 5 -->
      <g transform="translate(18.990313 74.842031) scale(0.18 -0.18)">
       <defs>
        <path id="ArialMT-35" d="M 266 1200 
L 856 1250 
Q 922 819 1161 601 
Q 1400 384 1738 384 
Q 2144 384 2425 690 
Q 2706 997 2706 1503 
Q 2706 1984 2436 2262 
Q 2166 2541 1728 2541 
Q 1456 2541 1237 2417 
Q 1019 2294 894 2097 
L 366 2166 
L 809 4519 
L 3088 4519 
L 3088 3981 
L 1259 3981 
L 1013 2750 
Q 1425 3038 1878 3038 
Q 2478 3038 2890 2622 
Q 3303 2206 3303 1553 
Q 3303 931 2941 478 
Q 2500 -78 1738 -78 
Q 1113 -78 717 272 
Q 322 622 266 1200 
z
" transform="scale(0.015625)"/>
       </defs>
       <use xlink:href="#ArialMT-35"/>
      </g>
     </g>
    </g>
    <g id="text_10">
     <!-- mbx2/act1 -->
     <g transform="translate(11.015312 227.929688) rotate(-90) scale(0.2 -0.2)">
      <defs>
       <path id="Arial-ItalicMT-6d" d="M 209 0 
L 903 3319 
L 1469 3319 
L 1353 2772 
Q 1669 3125 1917 3259 
Q 2166 3394 2456 3394 
Q 2766 3394 2973 3230 
Q 3181 3066 3247 2772 
Q 3500 3084 3779 3239 
Q 4059 3394 4369 3394 
Q 4784 3394 4992 3197 
Q 5200 3000 5200 2644 
Q 5200 2491 5128 2138 
L 4681 0 
L 4116 0 
L 4572 2194 
Q 4631 2463 4631 2578 
Q 4631 2741 4528 2834 
Q 4425 2928 4238 2928 
Q 3984 2928 3721 2775 
Q 3459 2622 3314 2373 
Q 3169 2125 3059 1609 
L 2722 0 
L 2156 0 
L 2625 2241 
Q 2675 2469 2675 2566 
Q 2675 2728 2573 2828 
Q 2472 2928 2309 2928 
Q 2069 2928 1805 2775 
Q 1541 2622 1375 2348 
Q 1209 2075 1103 1569 
L 775 0 
L 209 0 
z
" transform="scale(0.015625)"/>
       <path id="Arial-ItalicMT-62" d="M 213 0 
L 1169 4581 
L 1734 4581 
L 1394 2944 
Q 1663 3191 1881 3292 
Q 2100 3394 2338 3394 
Q 2803 3394 3114 3047 
Q 3425 2700 3425 2038 
Q 3425 1597 3300 1231 
Q 3175 866 2990 617 
Q 2806 369 2609 220 
Q 2413 72 2206 -1 
Q 2000 -75 1809 -75 
Q 1481 -75 1231 98 
Q 981 272 841 628 
L 709 0 
L 213 0 
z
M 1050 1363 
L 1047 1256 
Q 1047 831 1250 609 
Q 1453 388 1756 388 
Q 2053 388 2301 595 
Q 2550 803 2709 1243 
Q 2869 1684 2869 2056 
Q 2869 2475 2667 2706 
Q 2466 2938 2169 2938 
Q 1863 2938 1606 2702 
Q 1350 2466 1178 1975 
Q 1050 1609 1050 1363 
z
" transform="scale(0.015625)"/>
       <path id="Arial-ItalicMT-78" d="M -9 0 
L 1434 1684 
L 606 3319 
L 1231 3319 
L 1513 2728 
Q 1669 2397 1794 2094 
L 2750 3319 
L 3441 3319 
L 2047 1641 
L 2884 0 
L 2259 0 
L 1928 675 
Q 1822 891 1688 1209 
L 700 0 
L -9 0 
z
" transform="scale(0.015625)"/>
       <path id="Arial-ItalicMT-32" d="M 375 0 
Q 463 409 617 686 
Q 772 963 1028 1211 
Q 1284 1459 2016 2044 
Q 2459 2397 2622 2566 
Q 2856 2809 2963 3044 
Q 3034 3203 3034 3391 
Q 3034 3706 2811 3926 
Q 2588 4147 2263 4147 
Q 1941 4147 1700 3923 
Q 1459 3700 1356 3206 
L 803 3288 
Q 884 3897 1276 4248 
Q 1669 4600 2253 4600 
Q 2644 4600 2961 4437 
Q 3278 4275 3437 3981 
Q 3597 3688 3597 3375 
Q 3597 2919 3272 2497 
Q 3072 2234 2097 1463 
Q 1678 1131 1473 918 
Q 1269 706 1166 519 
L 3216 519 
L 3106 0 
L 375 0 
z
" transform="scale(0.015625)"/>
       <path id="Arial-ItalicMT-2f" d="M -325 -75 
L 2138 4659 
L 2628 4659 
L 166 -75 
L -325 -75 
z
" transform="scale(0.015625)"/>
       <path id="Arial-ItalicMT-61" d="M 2450 413 
Q 2156 159 1884 42 
Q 1613 -75 1303 -75 
Q 844 -75 562 195 
Q 281 466 281 888 
Q 281 1166 407 1380 
Q 534 1594 743 1723 
Q 953 1853 1256 1909 
Q 1447 1947 1980 1969 
Q 2513 1991 2744 2081 
Q 2809 2313 2809 2466 
Q 2809 2663 2666 2775 
Q 2469 2931 2091 2931 
Q 1734 2931 1507 2773 
Q 1281 2616 1178 2325 
L 606 2375 
Q 781 2869 1161 3131 
Q 1541 3394 2119 3394 
Q 2734 3394 3094 3100 
Q 3369 2881 3369 2531 
Q 3369 2266 3291 1916 
L 3106 1091 
Q 3019 697 3019 450 
Q 3019 294 3088 0 
L 2516 0 
Q 2469 163 2450 413 
z
M 2659 1681 
Q 2541 1634 2405 1609 
Q 2269 1584 1950 1556 
Q 1456 1513 1253 1445 
Q 1050 1378 947 1231 
Q 844 1084 844 906 
Q 844 669 1008 516 
Q 1172 363 1475 363 
Q 1756 363 2015 511 
Q 2275 659 2425 925 
Q 2575 1191 2659 1681 
z
" transform="scale(0.015625)"/>
       <path id="Arial-ItalicMT-63" d="M 2503 1209 
L 3069 1150 
Q 2856 528 2464 226 
Q 2072 -75 1572 -75 
Q 1031 -75 695 275 
Q 359 625 359 1253 
Q 359 1797 575 2322 
Q 791 2847 1192 3120 
Q 1594 3394 2109 3394 
Q 2644 3394 2956 3092 
Q 3269 2791 3269 2294 
L 2713 2256 
Q 2709 2572 2529 2750 
Q 2350 2928 2056 2928 
Q 1716 2928 1466 2712 
Q 1216 2497 1073 2058 
Q 931 1619 931 1213 
Q 931 788 1118 575 
Q 1306 363 1581 363 
Q 1856 363 2107 572 
Q 2359 781 2503 1209 
z
" transform="scale(0.015625)"/>
       <path id="Arial-ItalicMT-74" d="M 1534 459 
L 1441 -3 
Q 1238 -56 1047 -56 
Q 709 -56 509 109 
Q 359 234 359 450 
Q 359 559 441 953 
L 844 2881 
L 397 2881 
L 488 3319 
L 934 3319 
L 1106 4134 
L 1753 4525 
L 1500 3319 
L 2056 3319 
L 1963 2881 
L 1409 2881 
L 1025 1047 
Q 953 697 953 628 
Q 953 528 1011 475 
Q 1069 422 1200 422 
Q 1388 422 1534 459 
z
" transform="scale(0.015625)"/>
       <path id="Arial-ItalicMT-31" d="M 1541 0 
L 2266 3459 
Q 1797 3091 947 2869 
L 1053 3381 
Q 1475 3550 1886 3822 
Q 2297 4094 2503 4297 
Q 2628 4422 2741 4600 
L 3069 4600 
L 2109 0 
L 1541 0 
z
" transform="scale(0.015625)"/>
      </defs>
      <use xlink:href="#Arial-ItalicMT-6d"/>
      <use xlink:href="#Arial-ItalicMT-62" x="83.300781"/>
      <use xlink:href="#Arial-ItalicMT-78" x="138.916016"/>
      <use xlink:href="#Arial-ItalicMT-32" x="188.916016"/>
      <use xlink:href="#Arial-ItalicMT-2f" x="244.53125"/>
      <use xlink:href="#Arial-ItalicMT-61" x="272.314453"/>
      <use xlink:href="#Arial-ItalicMT-63" x="327.929688"/>
      <use xlink:href="#Arial-ItalicMT-74" x="377.929688"/>
      <use xlink:href="#Arial-ItalicMT-31" x="405.712891"/>
     </g>
    </g>
   </g>
   <g id="patch_11">
    <path d="M 36 320.4 
L 36 43.2 
" style="fill: none; stroke: #000000; stroke-width: 0.8; stroke-linejoin: miter; stroke-linecap: square"/>
   </g>
   <g id="patch_12">
    <path d="M 259.2 320.4 
L 259.2 43.2 
" style="fill: none; stroke: #000000; stroke-width: 0.8; stroke-linejoin: miter; stroke-linecap: square"/>
   </g>
   <g id="patch_13">
    <path d="M 36 320.4 
L 259.2 320.4 
" style="fill: none; stroke: #000000; stroke-width: 0.8; stroke-linejoin: miter; stroke-linecap: square"/>
   </g>
   <g id="patch_14">
    <path d="M 36 43.2 
L 259.2 43.2 
" style="fill: none; stroke: #000000; stroke-width: 0.8; stroke-linejoin: miter; stroke-linecap: square"/>
   </g>
   <g id="PathCollection_1">
    <defs>
     <path id="C0_0_38971646ec" d="M 0 7.5 
C 1.989023 7.5 3.896849 6.709753 5.303301 5.303301 
C 6.709753 3.896849 7.5 1.989023 7.5 -0 
C 7.5 -1.989023 6.709753 -3.896849 5.303301 -5.303301 
C 3.896849 -6.709753 1.989023 -7.5 0 -7.5 
C -1.989023 -7.5 -3.896849 -6.709753 -5.303301 -5.303301 
C -6.709753 -3.896849 -7.5 -1.989023 -7.5 0 
C -7.5 1.989023 -6.709753 3.896849 -5.303301 5.303301 
C -3.896849 6.709753 -1.989023 7.5 0 7.5 
z
"/>
    </defs>
    <g clip-path="url(#p967607e4d5)">
     <use xlink:href="#C0_0_38971646ec" x="54.895138" y="131.886272" style="fill: #17becf; fill-opacity: 0.8; stroke: #000000; stroke-opacity: 0.8"/>
    </g>
    <g clip-path="url(#p967607e4d5)">
     <use xlink:href="#C0_0_38971646ec" x="51.665074" y="114.176559" style="fill: #17becf; fill-opacity: 0.8; stroke: #000000; stroke-opacity: 0.8"/>
    </g>
    <g clip-path="url(#p967607e4d5)">
     <use xlink:href="#C0_0_38971646ec" x="50.497251" y="173.488722" style="fill: #17becf; fill-opacity: 0.8; stroke: #000000; stroke-opacity: 0.8"/>
    </g>
   </g>
   <g id="PathCollection_2">
    <defs>
     <path id="C1_0_9c1b14b722" d="M 0 7.5 
C 1.989023 7.5 3.896849 6.709753 5.303301 5.303301 
C 6.709753 3.896849 7.5 1.989023 7.5 -0 
C 7.5 -1.989023 6.709753 -3.896849 5.303301 -5.303301 
C 3.896849 -6.709753 1.989023 -7.5 0 -7.5 
C -1.989023 -7.5 -3.896849 -6.709753 -5.303301 -5.303301 
C -6.709753 -3.896849 -7.5 -1.989023 -7.5 0 
C -7.5 1.989023 -6.709753 3.896849 -5.303301 5.303301 
C -3.896849 6.709753 -1.989023 7.5 0 7.5 
z
"/>
    </defs>
    <g clip-path="url(#p967607e4d5)">
     <use xlink:href="#C1_0_9c1b14b722" x="84.191557" y="263.590712" style="fill: #ff7f0e; fill-opacity: 0.8; stroke: #000000; stroke-opacity: 0.8"/>
    </g>
    <g clip-path="url(#p967607e4d5)">
     <use xlink:href="#C1_0_9c1b14b722" x="87.032294" y="277.158942" style="fill: #ff7f0e; fill-opacity: 0.8; stroke: #000000; stroke-opacity: 0.8"/>
    </g>
    <g clip-path="url(#p967607e4d5)">
     <use xlink:href="#C1_0_9c1b14b722" x="85.445263" y="275.297735" style="fill: #ff7f0e; fill-opacity: 0.8; stroke: #000000; stroke-opacity: 0.8"/>
    </g>
   </g>
   <g id="PathCollection_3">
    <defs>
     <path id="C2_0_51937d7d89" d="M 0 7.5 
C 1.989023 7.5 3.896849 6.709753 5.303301 5.303301 
C 6.709753 3.896849 7.5 1.989023 7.5 -0 
C 7.5 -1.989023 6.709753 -3.896849 5.303301 -5.303301 
C 3.896849 -6.709753 1.989023 -7.5 0 -7.5 
C -1.989023 -7.5 -3.896849 -6.709753 -5.303301 -5.303301 
C -6.709753 -3.896849 -7.5 -1.989023 -7.5 0 
C -7.5 1.989023 -6.709753 3.896849 -5.303301 5.303301 
C -3.896849 6.709753 -1.989023 7.5 0 7.5 
z
"/>
    </defs>
    <g clip-path="url(#p967607e4d5)">
     <use xlink:href="#C2_0_51937d7d89" x="127.874753" y="95.890198" style="fill: #17becf; fill-opacity: 0.8; stroke: #000000; stroke-opacity: 0.8"/>
    </g>
    <g clip-path="url(#p967607e4d5)">
     <use xlink:href="#C2_0_51937d7d89" x="132.310314" y="173.298807" style="fill: #17becf; fill-opacity: 0.8; stroke: #000000; stroke-opacity: 0.8"/>
    </g>
    <g clip-path="url(#p967607e4d5)">
     <use xlink:href="#C2_0_51937d7d89" x="128.033033" y="158.58346" style="fill: #17becf; fill-opacity: 0.8; stroke: #000000; stroke-opacity: 0.8"/>
    </g>
   </g>
   <g id="PathCollection_4">
    <defs>
     <path id="C3_0_798a5021b3" d="M 0 7.5 
C 1.989023 7.5 3.896849 6.709753 5.303301 5.303301 
C 6.709753 3.896849 7.5 1.989023 7.5 -0 
C 7.5 -1.989023 6.709753 -3.896849 5.303301 -5.303301 
C 3.896849 -6.709753 1.989023 -7.5 0 -7.5 
C -1.989023 -7.5 -3.896849 -6.709753 -5.303301 -5.303301 
C -6.709753 -3.896849 -7.5 -1.989023 -7.5 0 
C -7.5 1.989023 -6.709753 3.896849 -5.303301 5.303301 
C -3.896849 6.709753 -1.989023 7.5 0 7.5 
z
"/>
    </defs>
    <g clip-path="url(#p967607e4d5)">
     <use xlink:href="#C3_0_798a5021b3" x="154.322038" y="233.937206" style="fill: #ff7f0e; fill-opacity: 0.8; stroke: #000000; stroke-opacity: 0.8"/>
    </g>
    <g clip-path="url(#p967607e4d5)">
     <use xlink:href="#C3_0_798a5021b3" x="169.119862" y="275.522005" style="fill: #ff7f0e; fill-opacity: 0.8; stroke: #000000; stroke-opacity: 0.8"/>
    </g>
    <g clip-path="url(#p967607e4d5)">
     <use xlink:href="#C3_0_798a5021b3" x="167.252119" y="217.290638" style="fill: #ff7f0e; fill-opacity: 0.8; stroke: #000000; stroke-opacity: 0.8"/>
    </g>
   </g>
   <g id="PathCollection_5">
    <defs>
     <path id="C4_0_07cbf0b9e5" d="M 0 7.5 
C 1.989023 7.5 3.896849 6.709753 5.303301 5.303301 
C 6.709753 3.896849 7.5 1.989023 7.5 -0 
C 7.5 -1.989023 6.709753 -3.896849 5.303301 -5.303301 
C 3.896849 -6.709753 1.989023 -7.5 0 -7.5 
C -1.989023 -7.5 -3.896849 -6.709753 -5.303301 -5.303301 
C -6.709753 -3.896849 -7.5 -1.989023 -7.5 0 
C -7.5 1.989023 -6.709753 3.896849 -5.303301 5.303301 
C -3.896849 6.709753 -1.989023 7.5 0 7.5 
z
"/>
    </defs>
    <g clip-path="url(#p967607e4d5)">
     <use xlink:href="#C4_0_07cbf0b9e5" x="205.306639" y="271.98992" style="fill: #17becf; fill-opacity: 0.8; stroke: #000000; stroke-opacity: 0.8"/>
    </g>
    <g clip-path="url(#p967607e4d5)">
     <use xlink:href="#C4_0_07cbf0b9e5" x="206.575255" y="265.006606" style="fill: #17becf; fill-opacity: 0.8; stroke: #000000; stroke-opacity: 0.8"/>
    </g>
    <g clip-path="url(#p967607e4d5)">
     <use xlink:href="#C4_0_07cbf0b9e5" x="208.764347" y="273.003474" style="fill: #17becf; fill-opacity: 0.8; stroke: #000000; stroke-opacity: 0.8"/>
    </g>
   </g>
   <g id="PathCollection_6">
    <defs>
     <path id="C5_0_9832679c41" d="M 0 7.5 
C 1.989023 7.5 3.896849 6.709753 5.303301 5.303301 
C 6.709753 3.896849 7.5 1.989023 7.5 -0 
C 7.5 -1.989023 6.709753 -3.896849 5.303301 -5.303301 
C 3.896849 -6.709753 1.989023 -7.5 0 -7.5 
C -1.989023 -7.5 -3.896849 -6.709753 -5.303301 -5.303301 
C -6.709753 -3.896849 -7.5 -1.989023 -7.5 0 
C -7.5 1.989023 -6.709753 3.896849 -5.303301 5.303301 
C -3.896849 6.709753 -1.989023 7.5 0 7.5 
z
"/>
    </defs>
    <g clip-path="url(#p967607e4d5)">
     <use xlink:href="#C5_0_9832679c41" x="230.941181" y="235.463866" style="fill: #ff7f0e; fill-opacity: 0.8; stroke: #000000; stroke-opacity: 0.8"/>
    </g>
    <g clip-path="url(#p967607e4d5)">
     <use xlink:href="#C5_0_9832679c41" x="232.685764" y="190.474159" style="fill: #ff7f0e; fill-opacity: 0.8; stroke: #000000; stroke-opacity: 0.8"/>
    </g>
    <g clip-path="url(#p967607e4d5)">
     <use xlink:href="#C5_0_9832679c41" x="238.356513" y="217.98447" style="fill: #ff7f0e; fill-opacity: 0.8; stroke: #000000; stroke-opacity: 0.8"/>
    </g>
   </g>
   <g id="line2d_10"/>
   <g id="line2d_11"/>
   <g id="text_11">
    <!-- RT-qPCR -->
    <g transform="translate(94.338281 37.2) scale(0.25 -0.25)">
     <defs>
      <path id="ArialMT-52" d="M 503 0 
L 503 4581 
L 2534 4581 
Q 3147 4581 3465 4457 
Q 3784 4334 3975 4021 
Q 4166 3709 4166 3331 
Q 4166 2844 3850 2509 
Q 3534 2175 2875 2084 
Q 3116 1969 3241 1856 
Q 3506 1613 3744 1247 
L 4541 0 
L 3778 0 
L 3172 953 
Q 2906 1366 2734 1584 
Q 2563 1803 2427 1890 
Q 2291 1978 2150 2013 
Q 2047 2034 1813 2034 
L 1109 2034 
L 1109 0 
L 503 0 
z
M 1109 2559 
L 2413 2559 
Q 2828 2559 3062 2645 
Q 3297 2731 3419 2920 
Q 3541 3109 3541 3331 
Q 3541 3656 3305 3865 
Q 3069 4075 2559 4075 
L 1109 4075 
L 1109 2559 
z
" transform="scale(0.015625)"/>
      <path id="ArialMT-2d" d="M 203 1375 
L 203 1941 
L 1931 1941 
L 1931 1375 
L 203 1375 
z
" transform="scale(0.015625)"/>
      <path id="ArialMT-71" d="M 2538 -1272 
L 2538 353 
Q 2406 169 2170 47 
Q 1934 -75 1669 -75 
Q 1078 -75 651 397 
Q 225 869 225 1691 
Q 225 2191 398 2587 
Q 572 2984 901 3189 
Q 1231 3394 1625 3394 
Q 2241 3394 2594 2875 
L 2594 3319 
L 3100 3319 
L 3100 -1272 
L 2538 -1272 
z
M 803 1669 
Q 803 1028 1072 708 
Q 1341 388 1716 388 
Q 2075 388 2334 692 
Q 2594 997 2594 1619 
Q 2594 2281 2320 2615 
Q 2047 2950 1678 2950 
Q 1313 2950 1058 2639 
Q 803 2328 803 1669 
z
" transform="scale(0.015625)"/>
      <path id="ArialMT-50" d="M 494 0 
L 494 4581 
L 2222 4581 
Q 2678 4581 2919 4538 
Q 3256 4481 3484 4323 
Q 3713 4166 3852 3881 
Q 3991 3597 3991 3256 
Q 3991 2672 3619 2267 
Q 3247 1863 2275 1863 
L 1100 1863 
L 1100 0 
L 494 0 
z
M 1100 2403 
L 2284 2403 
Q 2872 2403 3119 2622 
Q 3366 2841 3366 3238 
Q 3366 3525 3220 3729 
Q 3075 3934 2838 4000 
Q 2684 4041 2272 4041 
L 1100 4041 
L 1100 2403 
z
" transform="scale(0.015625)"/>
      <path id="ArialMT-43" d="M 3763 1606 
L 4369 1453 
Q 4178 706 3683 314 
Q 3188 -78 2472 -78 
Q 1731 -78 1267 223 
Q 803 525 561 1097 
Q 319 1669 319 2325 
Q 319 3041 592 3573 
Q 866 4106 1370 4382 
Q 1875 4659 2481 4659 
Q 3169 4659 3637 4309 
Q 4106 3959 4291 3325 
L 3694 3184 
Q 3534 3684 3231 3912 
Q 2928 4141 2469 4141 
Q 1941 4141 1586 3887 
Q 1231 3634 1087 3207 
Q 944 2781 944 2328 
Q 944 1744 1114 1308 
Q 1284 872 1643 656 
Q 2003 441 2422 441 
Q 2931 441 3284 734 
Q 3638 1028 3763 1606 
z
" transform="scale(0.015625)"/>
     </defs>
     <use xlink:href="#ArialMT-52"/>
     <use xlink:href="#ArialMT-54" x="70.466797"/>
     <use xlink:href="#ArialMT-2d" x="126.050781"/>
     <use xlink:href="#ArialMT-71" x="159.351562"/>
     <use xlink:href="#ArialMT-50" x="214.966797"/>
     <use xlink:href="#ArialMT-43" x="281.666016"/>
     <use xlink:href="#ArialMT-52" x="353.882812"/>
    </g>
   </g>
   <g id="legend_1">
    <g id="patch_15">
     <path d="M 50.655 78.6325 
L 248 78.6325 
Q 251.2 78.6325 251.2 75.4325 
L 251.2 54.4 
Q 251.2 51.2 248 51.2 
L 50.655 51.2 
Q 47.455 51.2 47.455 54.4 
L 47.455 75.4325 
Q 47.455 78.6325 50.655 78.6325 
z
" style="fill: #ffffff; opacity: 0.8; stroke: #cccccc; stroke-linejoin: miter"/>
    </g>
    <g id="line2d_12">
     <defs>
      <path id="m8fa604170a" d="M 0 7.5 
C 1.989023 7.5 3.896849 6.709753 5.303301 5.303301 
C 6.709753 3.896849 7.5 1.989023 7.5 0 
C 7.5 -1.989023 6.709753 -3.896849 5.303301 -5.303301 
C 3.896849 -6.709753 1.989023 -7.5 0 -7.5 
C -1.989023 -7.5 -3.896849 -6.709753 -5.303301 -5.303301 
C -6.709753 -3.896849 -7.5 -1.989023 -7.5 0 
C -7.5 1.989023 -6.709753 3.896849 -5.303301 5.303301 
C -3.896849 6.709753 -1.989023 7.5 0 7.5 
z
" style="stroke: #000000; stroke-opacity: 0.8"/>
     </defs>
     <g>
      <use xlink:href="#m8fa604170a" x="69.855" y="63.4525" style="fill: #17becf; fill-opacity: 0.8; stroke: #000000; stroke-opacity: 0.8"/>
     </g>
    </g>
    <g id="text_12">
     <!-- EMM -->
     <g transform="translate(98.655 69.0525) scale(0.16 -0.16)">
      <defs>
       <path id="ArialMT-45" d="M 506 0 
L 506 4581 
L 3819 4581 
L 3819 4041 
L 1113 4041 
L 1113 2638 
L 3647 2638 
L 3647 2100 
L 1113 2100 
L 1113 541 
L 3925 541 
L 3925 0 
L 506 0 
z
" transform="scale(0.015625)"/>
       <path id="ArialMT-4d" d="M 475 0 
L 475 4581 
L 1388 4581 
L 2472 1338 
Q 2622 884 2691 659 
Q 2769 909 2934 1394 
L 4031 4581 
L 4847 4581 
L 4847 0 
L 4263 0 
L 4263 3834 
L 2931 0 
L 2384 0 
L 1059 3900 
L 1059 0 
L 475 0 
z
" transform="scale(0.015625)"/>
      </defs>
      <use xlink:href="#ArialMT-45"/>
      <use xlink:href="#ArialMT-4d" x="66.699219"/>
      <use xlink:href="#ArialMT-4d" x="150"/>
     </g>
    </g>
    <g id="line2d_13">
     <defs>
      <path id="md6ae6daeae" d="M 0 7.5 
C 1.989023 7.5 3.896849 6.709753 5.303301 5.303301 
C 6.709753 3.896849 7.5 1.989023 7.5 0 
C 7.5 -1.989023 6.709753 -3.896849 5.303301 -5.303301 
C 3.896849 -6.709753 1.989023 -7.5 0 -7.5 
C -1.989023 -7.5 -3.896849 -6.709753 -5.303301 -5.303301 
C -6.709753 -3.896849 -7.5 -1.989023 -7.5 0 
C -7.5 1.989023 -6.709753 3.896849 -5.303301 5.303301 
C -3.896849 6.709753 -1.989023 7.5 0 7.5 
z
" style="stroke: #000000; stroke-opacity: 0.8"/>
     </defs>
     <g>
      <use xlink:href="#md6ae6daeae" x="183.9825" y="63.4525" style="fill: #ff7f0e; fill-opacity: 0.8; stroke: #000000; stroke-opacity: 0.8"/>
     </g>
    </g>
    <g id="text_13">
     <!-- YES -->
     <g transform="translate(212.7825 69.0525) scale(0.16 -0.16)">
      <defs>
       <path id="ArialMT-59" d="M 1784 0 
L 1784 1941 
L 19 4581 
L 756 4581 
L 1659 3200 
Q 1909 2813 2125 2425 
Q 2331 2784 2625 3234 
L 3513 4581 
L 4219 4581 
L 2391 1941 
L 2391 0 
L 1784 0 
z
" transform="scale(0.015625)"/>
       <path id="ArialMT-53" d="M 288 1472 
L 859 1522 
Q 900 1178 1048 958 
Q 1197 738 1509 602 
Q 1822 466 2213 466 
Q 2559 466 2825 569 
Q 3091 672 3220 851 
Q 3350 1031 3350 1244 
Q 3350 1459 3225 1620 
Q 3100 1781 2813 1891 
Q 2628 1963 1997 2114 
Q 1366 2266 1113 2400 
Q 784 2572 623 2826 
Q 463 3081 463 3397 
Q 463 3744 659 4045 
Q 856 4347 1234 4503 
Q 1613 4659 2075 4659 
Q 2584 4659 2973 4495 
Q 3363 4331 3572 4012 
Q 3781 3694 3797 3291 
L 3216 3247 
Q 3169 3681 2898 3903 
Q 2628 4125 2100 4125 
Q 1550 4125 1298 3923 
Q 1047 3722 1047 3438 
Q 1047 3191 1225 3031 
Q 1400 2872 2139 2705 
Q 2878 2538 3153 2413 
Q 3553 2228 3743 1945 
Q 3934 1663 3934 1294 
Q 3934 928 3725 604 
Q 3516 281 3123 101 
Q 2731 -78 2241 -78 
Q 1619 -78 1198 103 
Q 778 284 539 648 
Q 300 1013 288 1472 
z
" transform="scale(0.015625)"/>
      </defs>
      <use xlink:href="#ArialMT-59"/>
      <use xlink:href="#ArialMT-45" x="66.699219"/>
      <use xlink:href="#ArialMT-53" x="133.398438"/>
     </g>
    </g>
   </g>
  </g>
 </g>
 <defs>
  <clipPath id="p967607e4d5">
   <rect x="36" y="43.2" width="223.2" height="277.2"/>
  </clipPath>
 </defs>
</svg>
