<?xml version="1.0" encoding="utf-8" standalone="no"?>
<!DOCTYPE svg PUBLIC "-//W3C//DTD SVG 1.1//EN"
  "http://www.w3.org/Graphics/SVG/1.1/DTD/svg11.dtd">
<svg xmlns:xlink="http://www.w3.org/1999/xlink" width="360pt" height="360pt" viewBox="0 0 360 360" xmlns="http://www.w3.org/2000/svg" version="1.1">
 <metadata>
  <rdf:RDF xmlns:dc="http://purl.org/dc/elements/1.1/" xmlns:cc="http://creativecommons.org/ns#" xmlns:rdf="http://www.w3.org/1999/02/22-rdf-syntax-ns#">
   <cc:Work>
    <dc:type rdf:resource="http://purl.org/dc/dcmitype/StillImage"/>
    <dc:date>2023-12-09T23:10:34.597475</dc:date>
    <dc:format>image/svg+xml</dc:format>
    <dc:creator>
     <cc:Agent>
      <dc:title>Matplotlib v3.8.0, https://matplotlib.org/</dc:title>
     </cc:Agent>
    </dc:creator>
   </cc:Work>
  </rdf:RDF>
 </metadata>
 <defs>
  <style type="text/css">*{stroke-linejoin: round; stroke-linecap: butt}</style>
 </defs>
 <g id="figure_1">
  <g id="patch_1">
   <path d="M 0 360 
L 360 360 
L 360 0 
L 0 0 
z
" style="fill: #ffffff"/>
  </g>
  <g id="axes_1">
   <g id="patch_2">
    <path d="M 45 320.4 
L 324 320.4 
L 324 43.2 
L 45 43.2 
z
" style="fill: #ffffff"/>
   </g>
   <g id="PathCollection_1">
    <defs>
     <path id="m457b9c4fb0" d="M 0 5 
C 1.326016 5 2.597899 4.473168 3.535534 3.535534 
C 4.473168 2.597899 5 1.326016 5 0 
C 5 -1.326016 4.473168 -2.597899 3.535534 -3.535534 
C 2.597899 -4.473168 1.326016 -5 0 -5 
C -1.326016 -5 -2.597899 -4.473168 -3.535534 -3.535534 
C -4.473168 -2.597899 -5 -1.326016 -5 0 
C -5 1.326016 -4.473168 2.597899 -3.535534 3.535534 
C -2.597899 4.473168 -1.326016 5 0 5 
z
" style="stroke: #000000; stroke-opacity: 0.5"/>
    </defs>
    <g clip-path="url(#pcb713060d0)">
     <use xlink:href="#m457b9c4fb0" x="127.693075" y="69.781917" style="fill: #ffa500; fill-opacity: 0.5; stroke: #000000; stroke-opacity: 0.5"/>
     <use xlink:href="#m457b9c4fb0" x="131.699382" y="148.12499" style="fill: #ffa500; fill-opacity: 0.5; stroke: #000000; stroke-opacity: 0.5"/>
     <use xlink:href="#m457b9c4fb0" x="111.365391" y="156.597579" style="fill: #ffa500; fill-opacity: 0.5; stroke: #000000; stroke-opacity: 0.5"/>
     <use xlink:href="#m457b9c4fb0" x="95.493768" y="164.358796" style="fill: #ffa500; fill-opacity: 0.5; stroke: #000000; stroke-opacity: 0.5"/>
     <use xlink:href="#m457b9c4fb0" x="108.083107" y="180.303931" style="fill: #ffa500; fill-opacity: 0.5; stroke: #000000; stroke-opacity: 0.5"/>
     <use xlink:href="#m457b9c4fb0" x="101.692337" y="180.464397" style="fill: #ffa500; fill-opacity: 0.5; stroke: #000000; stroke-opacity: 0.5"/>
     <use xlink:href="#m457b9c4fb0" x="154.888455" y="200.16784" style="fill: #ffa500; fill-opacity: 0.5; stroke: #000000; stroke-opacity: 0.5"/>
     <use xlink:href="#m457b9c4fb0" x="158.598549" y="206.133973" style="fill: #ffa500; fill-opacity: 0.5; stroke: #000000; stroke-opacity: 0.5"/>
     <use xlink:href="#m457b9c4fb0" x="136.968225" y="214.277444" style="fill: #ffa500; fill-opacity: 0.5; stroke: #000000; stroke-opacity: 0.5"/>
     <use xlink:href="#m457b9c4fb0" x="160.400927" y="218.048661" style="fill: #ffa500; fill-opacity: 0.5; stroke: #000000; stroke-opacity: 0.5"/>
     <use xlink:href="#m457b9c4fb0" x="104.898128" y="226.997687" style="fill: #ffa500; fill-opacity: 0.5; stroke: #000000; stroke-opacity: 0.5"/>
     <use xlink:href="#m457b9c4fb0" x="138.135034" y="228.214386" style="fill: #ffa500; fill-opacity: 0.5; stroke: #000000; stroke-opacity: 0.5"/>
     <use xlink:href="#m457b9c4fb0" x="149.761378" y="246.744968" style="fill: #ffa500; fill-opacity: 0.5; stroke: #000000; stroke-opacity: 0.5"/>
     <use xlink:href="#m457b9c4fb0" x="132.188182" y="248.24128" style="fill: #ffa500; fill-opacity: 0.5; stroke: #000000; stroke-opacity: 0.5"/>
     <use xlink:href="#m457b9c4fb0" x="121.884948" y="254.757183" style="fill: #ffa500; fill-opacity: 0.5; stroke: #000000; stroke-opacity: 0.5"/>
     <use xlink:href="#m457b9c4fb0" x="190.278341" y="262.231117" style="fill: #ffa500; fill-opacity: 0.5; stroke: #000000; stroke-opacity: 0.5"/>
     <use xlink:href="#m457b9c4fb0" x="146.595692" y="262.873771" style="fill: #ffa500; fill-opacity: 0.5; stroke: #000000; stroke-opacity: 0.5"/>
     <use xlink:href="#m457b9c4fb0" x="191.232466" y="263.064673" style="fill: #ffa500; fill-opacity: 0.5; stroke: #000000; stroke-opacity: 0.5"/>
     <use xlink:href="#m457b9c4fb0" x="190.325458" y="263.998678" style="fill: #ffa500; fill-opacity: 0.5; stroke: #000000; stroke-opacity: 0.5"/>
     <use xlink:href="#m457b9c4fb0" x="204.33103" y="264.816469" style="fill: #ffa500; fill-opacity: 0.5; stroke: #000000; stroke-opacity: 0.5"/>
     <use xlink:href="#m457b9c4fb0" x="196.682704" y="268.342769" style="fill: #ffa500; fill-opacity: 0.5; stroke: #000000; stroke-opacity: 0.5"/>
     <use xlink:href="#m457b9c4fb0" x="167.410527" y="268.892954" style="fill: #ffa500; fill-opacity: 0.5; stroke: #000000; stroke-opacity: 0.5"/>
     <use xlink:href="#m457b9c4fb0" x="183.857021" y="269.903879" style="fill: #ffa500; fill-opacity: 0.5; stroke: #000000; stroke-opacity: 0.5"/>
     <use xlink:href="#m457b9c4fb0" x="194.84067" y="281.945807" style="fill: #ffa500; fill-opacity: 0.5; stroke: #000000; stroke-opacity: 0.5"/>
     <use xlink:href="#m457b9c4fb0" x="197.93915" y="282.173601" style="fill: #ffa500; fill-opacity: 0.5; stroke: #000000; stroke-opacity: 0.5"/>
     <use xlink:href="#m457b9c4fb0" x="204.06406" y="283.179591" style="fill: #ffa500; fill-opacity: 0.5; stroke: #000000; stroke-opacity: 0.5"/>
     <use xlink:href="#m457b9c4fb0" x="229.753123" y="283.291063" style="fill: #ffa500; fill-opacity: 0.5; stroke: #000000; stroke-opacity: 0.5"/>
     <use xlink:href="#m457b9c4fb0" x="193.393672" y="283.546206" style="fill: #ffa500; fill-opacity: 0.5; stroke: #000000; stroke-opacity: 0.5"/>
     <use xlink:href="#m457b9c4fb0" x="201.469348" y="283.821945" style="fill: #ffa500; fill-opacity: 0.5; stroke: #000000; stroke-opacity: 0.5"/>
     <use xlink:href="#m457b9c4fb0" x="237.121953" y="288.106626" style="fill: #ffa500; fill-opacity: 0.5; stroke: #000000; stroke-opacity: 0.5"/>
     <use xlink:href="#m457b9c4fb0" x="248.197074" y="293.138929" style="fill: #ffa500; fill-opacity: 0.5; stroke: #000000; stroke-opacity: 0.5"/>
     <use xlink:href="#m457b9c4fb0" x="191.124215" y="158.539514" style="fill: #ffa500; fill-opacity: 0.5; stroke: #000000; stroke-opacity: 0.5"/>
     <use xlink:href="#m457b9c4fb0" x="195.575978" y="142.137908" style="fill: #ffa500; fill-opacity: 0.5; stroke: #000000; stroke-opacity: 0.5"/>
    </g>
   </g>
   <g id="PathCollection_2">
    <defs>
     <path id="mc61d7ed7af" d="M 0 5 
C 1.326016 5 2.597899 4.473168 3.535534 3.535534 
C 4.473168 2.597899 5 1.326016 5 0 
C 5 -1.326016 4.473168 -2.597899 3.535534 -3.535534 
C 2.597899 -4.473168 1.326016 -5 0 -5 
C -1.326016 -5 -2.597899 -4.473168 -3.535534 -3.535534 
C -4.473168 -2.597899 -5 -1.326016 -5 0 
C -5 1.326016 -4.473168 2.597899 -3.535534 3.535534 
C -2.597899 4.473168 -1.326016 5 0 5 
z
" style="stroke: #000000; stroke-opacity: 0.5"/>
    </defs>
    <g clip-path="url(#pcb713060d0)">
     <use xlink:href="#mc61d7ed7af" x="191.124215" y="158.539514" style="fill: #008000; fill-opacity: 0.5; stroke: #000000; stroke-opacity: 0.5"/>
    </g>
   </g>
   <g id="PathCollection_3">
    <g clip-path="url(#pcb713060d0)">
     <use xlink:href="#mc61d7ed7af" x="195.575978" y="142.137908" style="fill: #008000; fill-opacity: 0.5; stroke: #000000; stroke-opacity: 0.5"/>
    </g>
   </g>
   <g id="patch_3">
    <path d="M 164.187489 320.4 
L 164.187489 43.2 
L 324 43.2 
L 324 320.4 
z
" clip-path="url(#pcb713060d0)" style="fill: #008000; opacity: 0.1; stroke: #008000; stroke-linejoin: miter"/>
   </g>
   <g id="matplotlib.axis_1">
    <g id="xtick_1">
     <g id="line2d_1">
      <defs>
       <path id="mae4d596751" d="M 0 0 
L 0 3.5 
" style="stroke: #000000; stroke-width: 0.8"/>
      </defs>
      <g>
       <use xlink:href="#mae4d596751" x="45" y="320.4" style="stroke: #000000; stroke-width: 0.8"/>
      </g>
     </g>
     <g id="text_1">
      <!-- 0.0 -->
      <g transform="translate(33.185 339.568281) scale(0.17 -0.17)">
       <defs>
        <path id="ArialMT-30" d="M 266 2259 
Q 266 3072 433 3567 
Q 600 4063 929 4331 
Q 1259 4600 1759 4600 
Q 2128 4600 2406 4451 
Q 2684 4303 2865 4023 
Q 3047 3744 3150 3342 
Q 3253 2941 3253 2259 
Q 3253 1453 3087 958 
Q 2922 463 2592 192 
Q 2263 -78 1759 -78 
Q 1097 -78 719 397 
Q 266 969 266 2259 
z
M 844 2259 
Q 844 1131 1108 757 
Q 1372 384 1759 384 
Q 2147 384 2411 759 
Q 2675 1134 2675 2259 
Q 2675 3391 2411 3762 
Q 2147 4134 1753 4134 
Q 1366 4134 1134 3806 
Q 844 3388 844 2259 
z
" transform="scale(0.015625)"/>
        <path id="ArialMT-2e" d="M 581 0 
L 581 641 
L 1222 641 
L 1222 0 
L 581 0 
z
" transform="scale(0.015625)"/>
       </defs>
       <use xlink:href="#ArialMT-30"/>
       <use xlink:href="#ArialMT-2e" x="55.615234"/>
       <use xlink:href="#ArialMT-30" x="83.398438"/>
      </g>
     </g>
    </g>
    <g id="xtick_2">
     <g id="line2d_2">
      <g>
       <use xlink:href="#mae4d596751" x="119.4" y="320.4" style="stroke: #000000; stroke-width: 0.8"/>
      </g>
     </g>
     <g id="text_2">
      <!-- 0.2 -->
      <g transform="translate(107.585 339.568281) scale(0.17 -0.17)">
       <defs>
        <path id="ArialMT-32" d="M 3222 541 
L 3222 0 
L 194 0 
Q 188 203 259 391 
Q 375 700 629 1000 
Q 884 1300 1366 1694 
Q 2113 2306 2375 2664 
Q 2638 3022 2638 3341 
Q 2638 3675 2398 3904 
Q 2159 4134 1775 4134 
Q 1369 4134 1125 3890 
Q 881 3647 878 3216 
L 300 3275 
Q 359 3922 746 4261 
Q 1134 4600 1788 4600 
Q 2447 4600 2831 4234 
Q 3216 3869 3216 3328 
Q 3216 3053 3103 2787 
Q 2991 2522 2730 2228 
Q 2469 1934 1863 1422 
Q 1356 997 1212 845 
Q 1069 694 975 541 
L 3222 541 
z
" transform="scale(0.015625)"/>
       </defs>
       <use xlink:href="#ArialMT-30"/>
       <use xlink:href="#ArialMT-2e" x="55.615234"/>
       <use xlink:href="#ArialMT-32" x="83.398438"/>
      </g>
     </g>
    </g>
    <g id="xtick_3">
     <g id="line2d_3">
      <g>
       <use xlink:href="#mae4d596751" x="193.8" y="320.4" style="stroke: #000000; stroke-width: 0.8"/>
      </g>
     </g>
     <g id="text_3">
      <!-- 0.4 -->
      <g transform="translate(181.985 339.568281) scale(0.17 -0.17)">
       <defs>
        <path id="ArialMT-34" d="M 2069 0 
L 2069 1097 
L 81 1097 
L 81 1613 
L 2172 4581 
L 2631 4581 
L 2631 1613 
L 3250 1613 
L 3250 1097 
L 2631 1097 
L 2631 0 
L 2069 0 
z
M 2069 1613 
L 2069 3678 
L 634 1613 
L 2069 1613 
z
" transform="scale(0.015625)"/>
       </defs>
       <use xlink:href="#ArialMT-30"/>
       <use xlink:href="#ArialMT-2e" x="55.615234"/>
       <use xlink:href="#ArialMT-34" x="83.398438"/>
      </g>
     </g>
    </g>
    <g id="xtick_4">
     <g id="line2d_4">
      <g>
       <use xlink:href="#mae4d596751" x="268.2" y="320.4" style="stroke: #000000; stroke-width: 0.8"/>
      </g>
     </g>
     <g id="text_4">
      <!-- 0.6 -->
      <g transform="translate(256.385 339.568281) scale(0.17 -0.17)">
       <defs>
        <path id="ArialMT-36" d="M 3184 3459 
L 2625 3416 
Q 2550 3747 2413 3897 
Q 2184 4138 1850 4138 
Q 1581 4138 1378 3988 
Q 1113 3794 959 3422 
Q 806 3050 800 2363 
Q 1003 2672 1297 2822 
Q 1591 2972 1913 2972 
Q 2475 2972 2870 2558 
Q 3266 2144 3266 1488 
Q 3266 1056 3080 686 
Q 2894 316 2569 119 
Q 2244 -78 1831 -78 
Q 1128 -78 684 439 
Q 241 956 241 2144 
Q 241 3472 731 4075 
Q 1159 4600 1884 4600 
Q 2425 4600 2770 4297 
Q 3116 3994 3184 3459 
z
M 888 1484 
Q 888 1194 1011 928 
Q 1134 663 1356 523 
Q 1578 384 1822 384 
Q 2178 384 2434 671 
Q 2691 959 2691 1453 
Q 2691 1928 2437 2201 
Q 2184 2475 1800 2475 
Q 1419 2475 1153 2201 
Q 888 1928 888 1484 
z
" transform="scale(0.015625)"/>
       </defs>
       <use xlink:href="#ArialMT-30"/>
       <use xlink:href="#ArialMT-2e" x="55.615234"/>
       <use xlink:href="#ArialMT-36" x="83.398438"/>
      </g>
     </g>
    </g>
    <g id="text_5">
     <!-- Before wash intensity -->
     <g transform="translate(94.208438 360.778437) scale(0.19 -0.19)">
      <defs>
       <path id="ArialMT-42" d="M 469 0 
L 469 4581 
L 2188 4581 
Q 2713 4581 3030 4442 
Q 3347 4303 3526 4014 
Q 3706 3725 3706 3409 
Q 3706 3116 3547 2856 
Q 3388 2597 3066 2438 
Q 3481 2316 3704 2022 
Q 3928 1728 3928 1328 
Q 3928 1006 3792 729 
Q 3656 453 3456 303 
Q 3256 153 2954 76 
Q 2653 0 2216 0 
L 469 0 
z
M 1075 2656 
L 2066 2656 
Q 2469 2656 2644 2709 
Q 2875 2778 2992 2937 
Q 3109 3097 3109 3338 
Q 3109 3566 3000 3739 
Q 2891 3913 2687 3977 
Q 2484 4041 1991 4041 
L 1075 4041 
L 1075 2656 
z
M 1075 541 
L 2216 541 
Q 2509 541 2628 563 
Q 2838 600 2978 687 
Q 3119 775 3209 942 
Q 3300 1109 3300 1328 
Q 3300 1584 3169 1773 
Q 3038 1963 2805 2039 
Q 2572 2116 2134 2116 
L 1075 2116 
L 1075 541 
z
" transform="scale(0.015625)"/>
       <path id="ArialMT-65" d="M 2694 1069 
L 3275 997 
Q 3138 488 2766 206 
Q 2394 -75 1816 -75 
Q 1088 -75 661 373 
Q 234 822 234 1631 
Q 234 2469 665 2931 
Q 1097 3394 1784 3394 
Q 2450 3394 2872 2941 
Q 3294 2488 3294 1666 
Q 3294 1616 3291 1516 
L 816 1516 
Q 847 969 1125 678 
Q 1403 388 1819 388 
Q 2128 388 2347 550 
Q 2566 713 2694 1069 
z
M 847 1978 
L 2700 1978 
Q 2663 2397 2488 2606 
Q 2219 2931 1791 2931 
Q 1403 2931 1139 2672 
Q 875 2413 847 1978 
z
" transform="scale(0.015625)"/>
       <path id="ArialMT-66" d="M 556 0 
L 556 2881 
L 59 2881 
L 59 3319 
L 556 3319 
L 556 3672 
Q 556 4006 616 4169 
Q 697 4388 901 4523 
Q 1106 4659 1475 4659 
Q 1713 4659 2000 4603 
L 1916 4113 
Q 1741 4144 1584 4144 
Q 1328 4144 1222 4034 
Q 1116 3925 1116 3625 
L 1116 3319 
L 1763 3319 
L 1763 2881 
L 1116 2881 
L 1116 0 
L 556 0 
z
" transform="scale(0.015625)"/>
       <path id="ArialMT-6f" d="M 213 1659 
Q 213 2581 725 3025 
Q 1153 3394 1769 3394 
Q 2453 3394 2887 2945 
Q 3322 2497 3322 1706 
Q 3322 1066 3130 698 
Q 2938 331 2570 128 
Q 2203 -75 1769 -75 
Q 1072 -75 642 372 
Q 213 819 213 1659 
z
M 791 1659 
Q 791 1022 1069 705 
Q 1347 388 1769 388 
Q 2188 388 2466 706 
Q 2744 1025 2744 1678 
Q 2744 2294 2464 2611 
Q 2184 2928 1769 2928 
Q 1347 2928 1069 2612 
Q 791 2297 791 1659 
z
" transform="scale(0.015625)"/>
       <path id="ArialMT-72" d="M 416 0 
L 416 3319 
L 922 3319 
L 922 2816 
Q 1116 3169 1280 3281 
Q 1444 3394 1641 3394 
Q 1925 3394 2219 3213 
L 2025 2691 
Q 1819 2813 1613 2813 
Q 1428 2813 1281 2702 
Q 1134 2591 1072 2394 
Q 978 2094 978 1738 
L 978 0 
L 416 0 
z
" transform="scale(0.015625)"/>
       <path id="ArialMT-20" transform="scale(0.015625)"/>
       <path id="ArialMT-77" d="M 1034 0 
L 19 3319 
L 600 3319 
L 1128 1403 
L 1325 691 
Q 1338 744 1497 1375 
L 2025 3319 
L 2603 3319 
L 3100 1394 
L 3266 759 
L 3456 1400 
L 4025 3319 
L 4572 3319 
L 3534 0 
L 2950 0 
L 2422 1988 
L 2294 2553 
L 1622 0 
L 1034 0 
z
" transform="scale(0.015625)"/>
       <path id="ArialMT-61" d="M 2588 409 
Q 2275 144 1986 34 
Q 1697 -75 1366 -75 
Q 819 -75 525 192 
Q 231 459 231 875 
Q 231 1119 342 1320 
Q 453 1522 633 1644 
Q 813 1766 1038 1828 
Q 1203 1872 1538 1913 
Q 2219 1994 2541 2106 
Q 2544 2222 2544 2253 
Q 2544 2597 2384 2738 
Q 2169 2928 1744 2928 
Q 1347 2928 1158 2789 
Q 969 2650 878 2297 
L 328 2372 
Q 403 2725 575 2942 
Q 747 3159 1072 3276 
Q 1397 3394 1825 3394 
Q 2250 3394 2515 3294 
Q 2781 3194 2906 3042 
Q 3031 2891 3081 2659 
Q 3109 2516 3109 2141 
L 3109 1391 
Q 3109 606 3145 398 
Q 3181 191 3288 0 
L 2700 0 
Q 2613 175 2588 409 
z
M 2541 1666 
Q 2234 1541 1622 1453 
Q 1275 1403 1131 1340 
Q 988 1278 909 1158 
Q 831 1038 831 891 
Q 831 666 1001 516 
Q 1172 366 1500 366 
Q 1825 366 2078 508 
Q 2331 650 2450 897 
Q 2541 1088 2541 1459 
L 2541 1666 
z
" transform="scale(0.015625)"/>
       <path id="ArialMT-73" d="M 197 991 
L 753 1078 
Q 800 744 1014 566 
Q 1228 388 1613 388 
Q 2000 388 2187 545 
Q 2375 703 2375 916 
Q 2375 1106 2209 1216 
Q 2094 1291 1634 1406 
Q 1016 1563 777 1677 
Q 538 1791 414 1992 
Q 291 2194 291 2438 
Q 291 2659 392 2848 
Q 494 3038 669 3163 
Q 800 3259 1026 3326 
Q 1253 3394 1513 3394 
Q 1903 3394 2198 3281 
Q 2494 3169 2634 2976 
Q 2775 2784 2828 2463 
L 2278 2388 
Q 2241 2644 2061 2787 
Q 1881 2931 1553 2931 
Q 1166 2931 1000 2803 
Q 834 2675 834 2503 
Q 834 2394 903 2306 
Q 972 2216 1119 2156 
Q 1203 2125 1616 2013 
Q 2213 1853 2448 1751 
Q 2684 1650 2818 1456 
Q 2953 1263 2953 975 
Q 2953 694 2789 445 
Q 2625 197 2315 61 
Q 2006 -75 1616 -75 
Q 969 -75 630 194 
Q 291 463 197 991 
z
" transform="scale(0.015625)"/>
       <path id="ArialMT-68" d="M 422 0 
L 422 4581 
L 984 4581 
L 984 2938 
Q 1378 3394 1978 3394 
Q 2347 3394 2619 3248 
Q 2891 3103 3008 2847 
Q 3125 2591 3125 2103 
L 3125 0 
L 2563 0 
L 2563 2103 
Q 2563 2525 2380 2717 
Q 2197 2909 1863 2909 
Q 1613 2909 1392 2779 
Q 1172 2650 1078 2428 
Q 984 2206 984 1816 
L 984 0 
L 422 0 
z
" transform="scale(0.015625)"/>
       <path id="ArialMT-69" d="M 425 3934 
L 425 4581 
L 988 4581 
L 988 3934 
L 425 3934 
z
M 425 0 
L 425 3319 
L 988 3319 
L 988 0 
L 425 0 
z
" transform="scale(0.015625)"/>
       <path id="ArialMT-6e" d="M 422 0 
L 422 3319 
L 928 3319 
L 928 2847 
Q 1294 3394 1984 3394 
Q 2284 3394 2536 3286 
Q 2788 3178 2913 3003 
Q 3038 2828 3088 2588 
Q 3119 2431 3119 2041 
L 3119 0 
L 2556 0 
L 2556 2019 
Q 2556 2363 2490 2533 
Q 2425 2703 2258 2804 
Q 2091 2906 1866 2906 
Q 1506 2906 1245 2678 
Q 984 2450 984 1813 
L 984 0 
L 422 0 
z
" transform="scale(0.015625)"/>
       <path id="ArialMT-74" d="M 1650 503 
L 1731 6 
Q 1494 -44 1306 -44 
Q 1000 -44 831 53 
Q 663 150 594 308 
Q 525 466 525 972 
L 525 2881 
L 113 2881 
L 113 3319 
L 525 3319 
L 525 4141 
L 1084 4478 
L 1084 3319 
L 1650 3319 
L 1650 2881 
L 1084 2881 
L 1084 941 
Q 1084 700 1114 631 
Q 1144 563 1211 522 
Q 1278 481 1403 481 
Q 1497 481 1650 503 
z
" transform="scale(0.015625)"/>
       <path id="ArialMT-79" d="M 397 -1278 
L 334 -750 
Q 519 -800 656 -800 
Q 844 -800 956 -737 
Q 1069 -675 1141 -563 
Q 1194 -478 1313 -144 
Q 1328 -97 1363 -6 
L 103 3319 
L 709 3319 
L 1400 1397 
Q 1534 1031 1641 628 
Q 1738 1016 1872 1384 
L 2581 3319 
L 3144 3319 
L 1881 -56 
Q 1678 -603 1566 -809 
Q 1416 -1088 1222 -1217 
Q 1028 -1347 759 -1347 
Q 597 -1347 397 -1278 
z
" transform="scale(0.015625)"/>
      </defs>
      <use xlink:href="#ArialMT-42"/>
      <use xlink:href="#ArialMT-65" x="66.699219"/>
      <use xlink:href="#ArialMT-66" x="122.314453"/>
      <use xlink:href="#ArialMT-6f" x="150.097656"/>
      <use xlink:href="#ArialMT-72" x="205.712891"/>
      <use xlink:href="#ArialMT-65" x="239.013672"/>
      <use xlink:href="#ArialMT-20" x="294.628906"/>
      <use xlink:href="#ArialMT-77" x="322.412109"/>
      <use xlink:href="#ArialMT-61" x="394.628906"/>
      <use xlink:href="#ArialMT-73" x="450.244141"/>
      <use xlink:href="#ArialMT-68" x="500.244141"/>
      <use xlink:href="#ArialMT-20" x="555.859375"/>
      <use xlink:href="#ArialMT-69" x="583.642578"/>
      <use xlink:href="#ArialMT-6e" x="605.859375"/>
      <use xlink:href="#ArialMT-74" x="661.474609"/>
      <use xlink:href="#ArialMT-65" x="689.257812"/>
      <use xlink:href="#ArialMT-6e" x="744.873047"/>
      <use xlink:href="#ArialMT-73" x="800.488281"/>
      <use xlink:href="#ArialMT-69" x="850.488281"/>
      <use xlink:href="#ArialMT-74" x="872.705078"/>
      <use xlink:href="#ArialMT-79" x="900.488281"/>
     </g>
    </g>
   </g>
   <g id="matplotlib.axis_2">
    <g id="ytick_1">
     <g id="line2d_5">
      <defs>
       <path id="mb03c8911ff" d="M 0 0 
L -3.5 0 
" style="stroke: #000000; stroke-width: 0.8"/>
      </defs>
      <g>
       <use xlink:href="#mb03c8911ff" x="45" y="320.4" style="stroke: #000000; stroke-width: 0.8"/>
      </g>
     </g>
     <g id="text_6">
      <!-- 0.0 -->
      <g transform="translate(14.37 326.484141) scale(0.17 -0.17)">
       <use xlink:href="#ArialMT-30"/>
       <use xlink:href="#ArialMT-2e" x="55.615234"/>
       <use xlink:href="#ArialMT-30" x="83.398438"/>
      </g>
     </g>
    </g>
    <g id="ytick_2">
     <g id="line2d_6">
      <g>
       <use xlink:href="#mb03c8911ff" x="45" y="267.6" style="stroke: #000000; stroke-width: 0.8"/>
      </g>
     </g>
     <g id="text_7">
      <!-- 0.2 -->
      <g transform="translate(14.37 273.684141) scale(0.17 -0.17)">
       <use xlink:href="#ArialMT-30"/>
       <use xlink:href="#ArialMT-2e" x="55.615234"/>
       <use xlink:href="#ArialMT-32" x="83.398438"/>
      </g>
     </g>
    </g>
    <g id="ytick_3">
     <g id="line2d_7">
      <g>
       <use xlink:href="#mb03c8911ff" x="45" y="214.8" style="stroke: #000000; stroke-width: 0.8"/>
      </g>
     </g>
     <g id="text_8">
      <!-- 0.4 -->
      <g transform="translate(14.37 220.884141) scale(0.17 -0.17)">
       <use xlink:href="#ArialMT-30"/>
       <use xlink:href="#ArialMT-2e" x="55.615234"/>
       <use xlink:href="#ArialMT-34" x="83.398438"/>
      </g>
     </g>
    </g>
    <g id="ytick_4">
     <g id="line2d_8">
      <g>
       <use xlink:href="#mb03c8911ff" x="45" y="162" style="stroke: #000000; stroke-width: 0.8"/>
      </g>
     </g>
     <g id="text_9">
      <!-- 0.6 -->
      <g transform="translate(14.37 168.084141) scale(0.17 -0.17)">
       <use xlink:href="#ArialMT-30"/>
       <use xlink:href="#ArialMT-2e" x="55.615234"/>
       <use xlink:href="#ArialMT-36" x="83.398438"/>
      </g>
     </g>
    </g>
    <g id="ytick_5">
     <g id="line2d_9">
      <g>
       <use xlink:href="#mb03c8911ff" x="45" y="109.2" style="stroke: #000000; stroke-width: 0.8"/>
      </g>
     </g>
     <g id="text_10">
      <!-- 0.8 -->
      <g transform="translate(14.37 115.284141) scale(0.17 -0.17)">
       <defs>
        <path id="ArialMT-38" d="M 1131 2484 
Q 781 2613 612 2850 
Q 444 3088 444 3419 
Q 444 3919 803 4259 
Q 1163 4600 1759 4600 
Q 2359 4600 2725 4251 
Q 3091 3903 3091 3403 
Q 3091 3084 2923 2848 
Q 2756 2613 2416 2484 
Q 2838 2347 3058 2040 
Q 3278 1734 3278 1309 
Q 3278 722 2862 322 
Q 2447 -78 1769 -78 
Q 1091 -78 675 323 
Q 259 725 259 1325 
Q 259 1772 486 2073 
Q 713 2375 1131 2484 
z
M 1019 3438 
Q 1019 3113 1228 2906 
Q 1438 2700 1772 2700 
Q 2097 2700 2305 2904 
Q 2513 3109 2513 3406 
Q 2513 3716 2298 3927 
Q 2084 4138 1766 4138 
Q 1444 4138 1231 3931 
Q 1019 3725 1019 3438 
z
M 838 1322 
Q 838 1081 952 856 
Q 1066 631 1291 507 
Q 1516 384 1775 384 
Q 2178 384 2440 643 
Q 2703 903 2703 1303 
Q 2703 1709 2433 1975 
Q 2163 2241 1756 2241 
Q 1359 2241 1098 1978 
Q 838 1716 838 1322 
z
" transform="scale(0.015625)"/>
       </defs>
       <use xlink:href="#ArialMT-30"/>
       <use xlink:href="#ArialMT-2e" x="55.615234"/>
       <use xlink:href="#ArialMT-38" x="83.398438"/>
      </g>
     </g>
    </g>
    <g id="ytick_6">
     <g id="line2d_10">
      <g>
       <use xlink:href="#mb03c8911ff" x="45" y="56.4" style="stroke: #000000; stroke-width: 0.8"/>
      </g>
     </g>
     <g id="text_11">
      <!-- 1.0 -->
      <g transform="translate(14.37 62.484141) scale(0.17 -0.17)">
       <defs>
        <path id="ArialMT-31" d="M 2384 0 
L 1822 0 
L 1822 3584 
Q 1619 3391 1289 3197 
Q 959 3003 697 2906 
L 697 3450 
Q 1169 3672 1522 3987 
Q 1875 4303 2022 4600 
L 2384 4600 
L 2384 0 
z
" transform="scale(0.015625)"/>
       </defs>
       <use xlink:href="#ArialMT-31"/>
       <use xlink:href="#ArialMT-2e" x="55.615234"/>
       <use xlink:href="#ArialMT-30" x="83.398438"/>
      </g>
     </g>
    </g>
    <g id="text_12">
     <!-- Adhesion ratio -->
     <g transform="translate(6.59375 242.530234) rotate(-90) scale(0.19 -0.19)">
      <defs>
       <path id="ArialMT-41" d="M -9 0 
L 1750 4581 
L 2403 4581 
L 4278 0 
L 3588 0 
L 3053 1388 
L 1138 1388 
L 634 0 
L -9 0 
z
M 1313 1881 
L 2866 1881 
L 2388 3150 
Q 2169 3728 2063 4100 
Q 1975 3659 1816 3225 
L 1313 1881 
z
" transform="scale(0.015625)"/>
       <path id="ArialMT-64" d="M 2575 0 
L 2575 419 
Q 2259 -75 1647 -75 
Q 1250 -75 917 144 
Q 584 363 401 755 
Q 219 1147 219 1656 
Q 219 2153 384 2558 
Q 550 2963 881 3178 
Q 1213 3394 1622 3394 
Q 1922 3394 2156 3267 
Q 2391 3141 2538 2938 
L 2538 4581 
L 3097 4581 
L 3097 0 
L 2575 0 
z
M 797 1656 
Q 797 1019 1065 703 
Q 1334 388 1700 388 
Q 2069 388 2326 689 
Q 2584 991 2584 1609 
Q 2584 2291 2321 2609 
Q 2059 2928 1675 2928 
Q 1300 2928 1048 2622 
Q 797 2316 797 1656 
z
" transform="scale(0.015625)"/>
      </defs>
      <use xlink:href="#ArialMT-41"/>
      <use xlink:href="#ArialMT-64" x="66.699219"/>
      <use xlink:href="#ArialMT-68" x="122.314453"/>
      <use xlink:href="#ArialMT-65" x="177.929688"/>
      <use xlink:href="#ArialMT-73" x="233.544922"/>
      <use xlink:href="#ArialMT-69" x="283.544922"/>
      <use xlink:href="#ArialMT-6f" x="305.761719"/>
      <use xlink:href="#ArialMT-6e" x="361.376953"/>
      <use xlink:href="#ArialMT-20" x="416.992188"/>
      <use xlink:href="#ArialMT-72" x="444.775391"/>
      <use xlink:href="#ArialMT-61" x="478.076172"/>
      <use xlink:href="#ArialMT-74" x="533.691406"/>
      <use xlink:href="#ArialMT-69" x="561.474609"/>
      <use xlink:href="#ArialMT-6f" x="583.691406"/>
     </g>
    </g>
   </g>
   <g id="patch_4">
    <path d="M 45 320.4 
L 45 43.2 
" style="fill: none; stroke: #000000; stroke-width: 0.8; stroke-linejoin: miter; stroke-linecap: square"/>
   </g>
   <g id="patch_5">
    <path d="M 324 320.4 
L 324 43.2 
" style="fill: none; stroke: #000000; stroke-width: 0.8; stroke-linejoin: miter; stroke-linecap: square"/>
   </g>
   <g id="patch_6">
    <path d="M 45 320.4 
L 324 320.4 
" style="fill: none; stroke: #000000; stroke-width: 0.8; stroke-linejoin: miter; stroke-linecap: square"/>
   </g>
   <g id="patch_7">
    <path d="M 45 43.2 
L 324 43.2 
" style="fill: none; stroke: #000000; stroke-width: 0.8; stroke-linejoin: miter; stroke-linecap: square"/>
   </g>
   <g id="text_13">
    <!-- rpl15 -->
    <g transform="translate(103.885075 65.293917) scale(0.15 -0.15)">
     <defs>
      <path id="Arial-ItalicMT-72" d="M 213 0 
L 906 3319 
L 1406 3319 
L 1266 2641 
Q 1522 3025 1767 3209 
Q 2013 3394 2269 3394 
Q 2438 3394 2684 3272 
L 2453 2747 
Q 2306 2853 2131 2853 
Q 1834 2853 1521 2522 
Q 1209 2191 1031 1331 
L 750 0 
L 213 0 
z
" transform="scale(0.015625)"/>
      <path id="Arial-ItalicMT-70" d="M -66 -1272 
L 894 3319 
L 1416 3319 
L 1319 2856 
Q 1609 3159 1839 3276 
Q 2069 3394 2325 3394 
Q 2800 3394 3112 3048 
Q 3425 2703 3425 2059 
Q 3425 1541 3253 1114 
Q 3081 688 2831 428 
Q 2581 169 2325 47 
Q 2069 -75 1800 -75 
Q 1203 -75 875 531 
L 500 -1272 
L -66 -1272 
z
M 1053 1356 
Q 1053 984 1106 841 
Q 1184 638 1362 513 
Q 1541 388 1775 388 
Q 2263 388 2563 936 
Q 2863 1484 2863 2056 
Q 2863 2478 2661 2708 
Q 2459 2938 2159 2938 
Q 1944 2938 1759 2823 
Q 1575 2709 1417 2482 
Q 1259 2256 1156 1928 
Q 1053 1600 1053 1356 
z
" transform="scale(0.015625)"/>
      <path id="Arial-ItalicMT-6c" d="M 169 0 
L 1125 4581 
L 1691 4581 
L 734 0 
L 169 0 
z
" transform="scale(0.015625)"/>
      <path id="Arial-ItalicMT-31" d="M 1541 0 
L 2266 3459 
Q 1797 3091 947 2869 
L 1053 3381 
Q 1475 3550 1886 3822 
Q 2297 4094 2503 4297 
Q 2628 4422 2741 4600 
L 3069 4600 
L 2109 0 
L 1541 0 
z
" transform="scale(0.015625)"/>
      <path id="Arial-ItalicMT-35" d="M 447 1309 
L 1022 1366 
Q 1016 1244 1016 1219 
Q 1016 1013 1120 803 
Q 1225 594 1404 483 
Q 1584 372 1784 372 
Q 2047 372 2319 553 
Q 2591 734 2759 1081 
Q 2928 1428 2928 1769 
Q 2928 2153 2701 2384 
Q 2475 2616 2106 2616 
Q 1859 2616 1639 2497 
Q 1419 2378 1228 2141 
L 734 2175 
L 1425 4519 
L 3663 4519 
L 3553 4000 
L 1813 4000 
L 1469 2834 
Q 1663 2975 1867 3045 
Q 2072 3116 2288 3116 
Q 2813 3116 3150 2769 
Q 3488 2422 3488 1819 
Q 3488 1291 3256 845 
Q 3025 400 2620 161 
Q 2216 -78 1747 -78 
Q 1353 -78 1050 100 
Q 747 278 595 590 
Q 444 903 444 1216 
Q 444 1247 447 1309 
z
" transform="scale(0.015625)"/>
     </defs>
     <use xlink:href="#Arial-ItalicMT-72"/>
     <use xlink:href="#Arial-ItalicMT-70" x="33.300781"/>
     <use xlink:href="#Arial-ItalicMT-6c" x="88.916016"/>
     <use xlink:href="#Arial-ItalicMT-31" x="111.132812"/>
     <use xlink:href="#Arial-ItalicMT-35" x="166.748047"/>
    </g>
   </g>
   <g id="text_14">
    <!-- rpa12 -->
    <g transform="translate(107.891382 143.63699) scale(0.15 -0.15)">
     <defs>
      <path id="Arial-ItalicMT-61" d="M 2450 413 
Q 2156 159 1884 42 
Q 1613 -75 1303 -75 
Q 844 -75 562 195 
Q 281 466 281 888 
Q 281 1166 407 1380 
Q 534 1594 743 1723 
Q 953 1853 1256 1909 
Q 1447 1947 1980 1969 
Q 2513 1991 2744 2081 
Q 2809 2313 2809 2466 
Q 2809 2663 2666 2775 
Q 2469 2931 2091 2931 
Q 1734 2931 1507 2773 
Q 1281 2616 1178 2325 
L 606 2375 
Q 781 2869 1161 3131 
Q 1541 3394 2119 3394 
Q 2734 3394 3094 3100 
Q 3369 2881 3369 2531 
Q 3369 2266 3291 1916 
L 3106 1091 
Q 3019 697 3019 450 
Q 3019 294 3088 0 
L 2516 0 
Q 2469 163 2450 413 
z
M 2659 1681 
Q 2541 1634 2405 1609 
Q 2269 1584 1950 1556 
Q 1456 1513 1253 1445 
Q 1050 1378 947 1231 
Q 844 1084 844 906 
Q 844 669 1008 516 
Q 1172 363 1475 363 
Q 1756 363 2015 511 
Q 2275 659 2425 925 
Q 2575 1191 2659 1681 
z
" transform="scale(0.015625)"/>
      <path id="Arial-ItalicMT-32" d="M 375 0 
Q 463 409 617 686 
Q 772 963 1028 1211 
Q 1284 1459 2016 2044 
Q 2459 2397 2622 2566 
Q 2856 2809 2963 3044 
Q 3034 3203 3034 3391 
Q 3034 3706 2811 3926 
Q 2588 4147 2263 4147 
Q 1941 4147 1700 3923 
Q 1459 3700 1356 3206 
L 803 3288 
Q 884 3897 1276 4248 
Q 1669 4600 2253 4600 
Q 2644 4600 2961 4437 
Q 3278 4275 3437 3981 
Q 3597 3688 3597 3375 
Q 3597 2919 3272 2497 
Q 3072 2234 2097 1463 
Q 1678 1131 1473 918 
Q 1269 706 1166 519 
L 3216 519 
L 3106 0 
L 375 0 
z
" transform="scale(0.015625)"/>
     </defs>
     <use xlink:href="#Arial-ItalicMT-72"/>
     <use xlink:href="#Arial-ItalicMT-70" x="33.300781"/>
     <use xlink:href="#Arial-ItalicMT-61" x="88.916016"/>
     <use xlink:href="#Arial-ItalicMT-31" x="144.53125"/>
     <use xlink:href="#Arial-ItalicMT-32" x="200.146484"/>
    </g>
   </g>
   <g id="text_15">
    <!-- mus7 -->
    <g transform="translate(87.557391 152.109579) scale(0.15 -0.15)">
     <defs>
      <path id="Arial-ItalicMT-6d" d="M 209 0 
L 903 3319 
L 1469 3319 
L 1353 2772 
Q 1669 3125 1917 3259 
Q 2166 3394 2456 3394 
Q 2766 3394 2973 3230 
Q 3181 3066 3247 2772 
Q 3500 3084 3779 3239 
Q 4059 3394 4369 3394 
Q 4784 3394 4992 3197 
Q 5200 3000 5200 2644 
Q 5200 2491 5128 2138 
L 4681 0 
L 4116 0 
L 4572 2194 
Q 4631 2463 4631 2578 
Q 4631 2741 4528 2834 
Q 4425 2928 4238 2928 
Q 3984 2928 3721 2775 
Q 3459 2622 3314 2373 
Q 3169 2125 3059 1609 
L 2722 0 
L 2156 0 
L 2625 2241 
Q 2675 2469 2675 2566 
Q 2675 2728 2573 2828 
Q 2472 2928 2309 2928 
Q 2069 2928 1805 2775 
Q 1541 2622 1375 2348 
Q 1209 2075 1103 1569 
L 775 0 
L 209 0 
z
" transform="scale(0.015625)"/>
      <path id="Arial-ItalicMT-75" d="M 2478 600 
Q 1881 -75 1256 -75 
Q 872 -75 636 145 
Q 400 366 400 684 
Q 400 894 506 1403 
L 906 3319 
L 1472 3319 
L 1028 1197 
Q 972 931 972 784 
Q 972 597 1086 492 
Q 1200 388 1422 388 
Q 1659 388 1886 503 
Q 2113 619 2277 816 
Q 2441 1013 2544 1281 
Q 2613 1453 2703 1884 
L 3003 3319 
L 3569 3319 
L 2875 0 
L 2353 0 
L 2478 600 
z
" transform="scale(0.015625)"/>
      <path id="Arial-ItalicMT-73" d="M 266 1134 
L 831 1169 
Q 831 925 906 753 
Q 981 581 1182 472 
Q 1384 363 1653 363 
Q 2028 363 2215 513 
Q 2403 663 2403 866 
Q 2403 1013 2291 1144 
Q 2175 1275 1726 1467 
Q 1278 1659 1153 1738 
Q 944 1866 837 2039 
Q 731 2213 731 2438 
Q 731 2831 1043 3112 
Q 1356 3394 1919 3394 
Q 2544 3394 2870 3105 
Q 3197 2816 3209 2344 
L 2656 2306 
Q 2644 2606 2444 2781 
Q 2244 2956 1878 2956 
Q 1584 2956 1421 2822 
Q 1259 2688 1259 2531 
Q 1259 2375 1400 2256 
Q 1494 2175 1884 2006 
Q 2534 1725 2703 1563 
Q 2972 1303 2972 931 
Q 2972 684 2820 446 
Q 2669 209 2358 67 
Q 2047 -75 1625 -75 
Q 1050 -75 647 209 
Q 244 494 266 1134 
z
" transform="scale(0.015625)"/>
      <path id="Arial-ItalicMT-37" d="M 928 0 
Q 1003 463 1247 1113 
Q 1538 1897 2009 2670 
Q 2481 3444 3059 4000 
L 775 4000 
L 884 4519 
L 3809 4519 
L 3703 4000 
Q 2959 3347 2403 2316 
Q 1756 1125 1519 0 
L 928 0 
z
" transform="scale(0.015625)"/>
     </defs>
     <use xlink:href="#Arial-ItalicMT-6d"/>
     <use xlink:href="#Arial-ItalicMT-75" x="83.300781"/>
     <use xlink:href="#Arial-ItalicMT-73" x="138.916016"/>
     <use xlink:href="#Arial-ItalicMT-37" x="188.916016"/>
    </g>
   </g>
   <g id="text_16">
    <!-- kgd2 -->
    <g transform="translate(71.685768 159.870796) scale(0.15 -0.15)">
     <defs>
      <path id="Arial-ItalicMT-6b" d="M 219 0 
L 1178 4581 
L 1741 4581 
L 1147 1741 
L 2797 3319 
L 3544 3319 
L 2128 2081 
L 2984 0 
L 2366 0 
L 1703 1703 
L 1016 1109 
L 784 0 
L 219 0 
z
" transform="scale(0.015625)"/>
      <path id="Arial-ItalicMT-67" d="M 181 -300 
L 753 -353 
Q 747 -547 800 -644 
Q 853 -741 969 -794 
Q 1122 -863 1366 -863 
Q 1878 -863 2103 -597 
Q 2250 -419 2375 178 
L 2431 447 
Q 1991 0 1494 0 
Q 991 0 652 370 
Q 313 741 313 1419 
Q 313 1978 580 2447 
Q 847 2916 1215 3155 
Q 1584 3394 1975 3394 
Q 2628 3394 2981 2775 
L 3094 3319 
L 3613 3319 
L 2944 116 
Q 2834 -413 2656 -708 
Q 2478 -1003 2161 -1165 
Q 1844 -1328 1428 -1328 
Q 1028 -1328 739 -1225 
Q 450 -1122 308 -923 
Q 166 -725 166 -469 
Q 166 -391 181 -300 
z
M 888 1469 
Q 888 1128 953 956 
Q 1047 716 1220 589 
Q 1394 463 1606 463 
Q 1884 463 2159 658 
Q 2434 853 2604 1262 
Q 2775 1672 2775 2044 
Q 2775 2453 2548 2695 
Q 2322 2938 1988 2938 
Q 1781 2938 1587 2827 
Q 1394 2716 1226 2489 
Q 1059 2263 973 1947 
Q 888 1631 888 1469 
z
" transform="scale(0.015625)"/>
      <path id="Arial-ItalicMT-64" d="M 2450 481 
Q 1966 -75 1438 -75 
Q 966 -75 652 273 
Q 338 622 338 1284 
Q 338 1891 586 2392 
Q 834 2894 1207 3144 
Q 1581 3394 1956 3394 
Q 2575 3394 2891 2797 
L 3266 4581 
L 3828 4581 
L 2872 0 
L 2350 0 
L 2450 481 
z
M 900 1391 
Q 900 1044 969 844 
Q 1038 644 1203 511 
Q 1369 378 1600 378 
Q 1984 378 2297 778 
Q 2716 1309 2716 2091 
Q 2716 2484 2509 2706 
Q 2303 2928 1991 2928 
Q 1788 2928 1620 2837 
Q 1453 2747 1289 2530 
Q 1125 2313 1012 1978 
Q 900 1644 900 1391 
z
" transform="scale(0.015625)"/>
     </defs>
     <use xlink:href="#Arial-ItalicMT-6b"/>
     <use xlink:href="#Arial-ItalicMT-67" x="50"/>
     <use xlink:href="#Arial-ItalicMT-64" x="105.615234"/>
     <use xlink:href="#Arial-ItalicMT-32" x="161.230469"/>
    </g>
   </g>
   <g id="text_17">
    <!-- tlg2 -->
    <g transform="translate(84.275107 175.815931) scale(0.15 -0.15)">
     <defs>
      <path id="Arial-ItalicMT-74" d="M 1534 459 
L 1441 -3 
Q 1238 -56 1047 -56 
Q 709 -56 509 109 
Q 359 234 359 450 
Q 359 559 441 953 
L 844 2881 
L 397 2881 
L 488 3319 
L 934 3319 
L 1106 4134 
L 1753 4525 
L 1500 3319 
L 2056 3319 
L 1963 2881 
L 1409 2881 
L 1025 1047 
Q 953 697 953 628 
Q 953 528 1011 475 
Q 1069 422 1200 422 
Q 1388 422 1534 459 
z
" transform="scale(0.015625)"/>
     </defs>
     <use xlink:href="#Arial-ItalicMT-74"/>
     <use xlink:href="#Arial-ItalicMT-6c" x="27.783203"/>
     <use xlink:href="#Arial-ItalicMT-67" x="50"/>
     <use xlink:href="#Arial-ItalicMT-32" x="105.615234"/>
    </g>
   </g>
   <g id="text_18">
    <!-- mmp1 -->
    <g transform="translate(77.884337 175.976397) scale(0.15 -0.15)">
     <use xlink:href="#Arial-ItalicMT-6d"/>
     <use xlink:href="#Arial-ItalicMT-6d" x="83.300781"/>
     <use xlink:href="#Arial-ItalicMT-70" x="166.601562"/>
     <use xlink:href="#Arial-ItalicMT-31" x="222.216797"/>
    </g>
   </g>
   <g id="text_19">
    <!-- dcd1 -->
    <g transform="translate(131.080455 195.67984) scale(0.15 -0.15)">
     <defs>
      <path id="Arial-ItalicMT-63" d="M 2503 1209 
L 3069 1150 
Q 2856 528 2464 226 
Q 2072 -75 1572 -75 
Q 1031 -75 695 275 
Q 359 625 359 1253 
Q 359 1797 575 2322 
Q 791 2847 1192 3120 
Q 1594 3394 2109 3394 
Q 2644 3394 2956 3092 
Q 3269 2791 3269 2294 
L 2713 2256 
Q 2709 2572 2529 2750 
Q 2350 2928 2056 2928 
Q 1716 2928 1466 2712 
Q 1216 2497 1073 2058 
Q 931 1619 931 1213 
Q 931 788 1118 575 
Q 1306 363 1581 363 
Q 1856 363 2107 572 
Q 2359 781 2503 1209 
z
" transform="scale(0.015625)"/>
     </defs>
     <use xlink:href="#Arial-ItalicMT-64"/>
     <use xlink:href="#Arial-ItalicMT-63" x="55.615234"/>
     <use xlink:href="#Arial-ItalicMT-64" x="105.615234"/>
     <use xlink:href="#Arial-ItalicMT-31" x="161.230469"/>
    </g>
   </g>
   <g id="text_20">
    <!-- rpl3602 -->
    <g transform="translate(134.790549 201.645973) scale(0.15 -0.15)">
     <defs>
      <path id="Arial-ItalicMT-33" d="M 350 1200 
L 900 1269 
Q 963 788 1177 580 
Q 1391 372 1738 372 
Q 2156 372 2461 672 
Q 2766 972 2766 1359 
Q 2766 1697 2537 1917 
Q 2309 2138 1925 2138 
Q 1881 2138 1744 2125 
L 1841 2597 
Q 1922 2584 1997 2584 
Q 2481 2584 2742 2820 
Q 3003 3056 3003 3400 
Q 3003 3716 2789 3931 
Q 2575 4147 2266 4147 
Q 1963 4147 1720 3926 
Q 1478 3706 1409 3303 
L 853 3416 
Q 991 3981 1381 4290 
Q 1772 4600 2306 4600 
Q 2869 4600 3217 4259 
Q 3566 3919 3566 3422 
Q 3566 3059 3377 2789 
Q 3188 2519 2809 2341 
Q 3078 2181 3211 1956 
Q 3344 1731 3344 1441 
Q 3344 825 2883 373 
Q 2422 -78 1781 -78 
Q 1159 -78 776 270 
Q 394 619 350 1200 
z
" transform="scale(0.015625)"/>
      <path id="Arial-ItalicMT-36" d="M 1288 2656 
Q 1525 2853 1761 2951 
Q 1997 3050 2228 3050 
Q 2750 3050 3090 2694 
Q 3431 2338 3431 1734 
Q 3431 956 2925 400 
Q 2488 -78 1863 -78 
Q 1294 -78 914 339 
Q 534 756 534 1528 
Q 534 2219 778 2956 
Q 966 3522 1242 3889 
Q 1519 4256 1830 4428 
Q 2141 4600 2531 4600 
Q 3000 4600 3297 4308 
Q 3594 4016 3634 3472 
L 3109 3422 
Q 3066 3794 2898 3959 
Q 2731 4125 2491 4125 
Q 2238 4125 1981 3928 
Q 1725 3731 1540 3345 
Q 1356 2959 1288 2656 
z
M 1091 1288 
Q 1091 900 1331 636 
Q 1572 372 1875 372 
Q 2088 372 2325 533 
Q 2563 694 2728 1022 
Q 2894 1350 2894 1675 
Q 2894 2094 2664 2345 
Q 2434 2597 2109 2597 
Q 1734 2597 1412 2230 
Q 1091 1863 1091 1288 
z
" transform="scale(0.015625)"/>
      <path id="Arial-ItalicMT-30" d="M 453 1503 
Q 453 2084 626 2684 
Q 800 3284 1012 3643 
Q 1225 4003 1453 4206 
Q 1681 4409 1901 4504 
Q 2122 4600 2391 4600 
Q 2916 4600 3267 4209 
Q 3619 3819 3619 3081 
Q 3619 2322 3375 1578 
Q 3088 697 2575 256 
Q 2181 -78 1678 -78 
Q 1163 -78 808 326 
Q 453 731 453 1503 
z
M 1000 1359 
Q 1000 938 1141 700 
Q 1331 372 1706 372 
Q 2034 372 2303 669 
Q 2691 1088 2886 1895 
Q 3081 2703 3081 3216 
Q 3081 3709 2892 3928 
Q 2703 4147 2394 4147 
Q 2169 4147 1973 4031 
Q 1778 3916 1600 3634 
Q 1347 3238 1159 2447 
Q 1000 1772 1000 1359 
z
" transform="scale(0.015625)"/>
     </defs>
     <use xlink:href="#Arial-ItalicMT-72"/>
     <use xlink:href="#Arial-ItalicMT-70" x="33.300781"/>
     <use xlink:href="#Arial-ItalicMT-6c" x="88.916016"/>
     <use xlink:href="#Arial-ItalicMT-33" x="111.132812"/>
     <use xlink:href="#Arial-ItalicMT-36" x="166.748047"/>
     <use xlink:href="#Arial-ItalicMT-30" x="222.363281"/>
     <use xlink:href="#Arial-ItalicMT-32" x="277.978516"/>
    </g>
   </g>
   <g id="text_21">
    <!-- rps1201 -->
    <g transform="translate(113.160225 209.789444) scale(0.15 -0.15)">
     <use xlink:href="#Arial-ItalicMT-72"/>
     <use xlink:href="#Arial-ItalicMT-70" x="33.300781"/>
     <use xlink:href="#Arial-ItalicMT-73" x="88.916016"/>
     <use xlink:href="#Arial-ItalicMT-31" x="138.916016"/>
     <use xlink:href="#Arial-ItalicMT-32" x="194.53125"/>
     <use xlink:href="#Arial-ItalicMT-30" x="250.146484"/>
     <use xlink:href="#Arial-ItalicMT-31" x="305.761719"/>
    </g>
   </g>
   <g id="text_22">
    <!-- rpl2102 -->
    <g transform="translate(136.592927 213.560661) scale(0.15 -0.15)">
     <use xlink:href="#Arial-ItalicMT-72"/>
     <use xlink:href="#Arial-ItalicMT-70" x="33.300781"/>
     <use xlink:href="#Arial-ItalicMT-6c" x="88.916016"/>
     <use xlink:href="#Arial-ItalicMT-32" x="111.132812"/>
     <use xlink:href="#Arial-ItalicMT-31" x="166.748047"/>
     <use xlink:href="#Arial-ItalicMT-30" x="222.363281"/>
     <use xlink:href="#Arial-ItalicMT-32" x="277.978516"/>
    </g>
   </g>
   <g id="text_23">
    <!-- shm1 -->
    <g transform="translate(81.090128 222.509687) scale(0.15 -0.15)">
     <defs>
      <path id="Arial-ItalicMT-68" d="M 213 0 
L 1169 4581 
L 1734 4581 
L 1369 2822 
Q 1684 3128 1956 3261 
Q 2228 3394 2516 3394 
Q 2928 3394 3156 3176 
Q 3384 2959 3384 2603 
Q 3384 2428 3284 1959 
L 2875 0 
L 2309 0 
L 2731 2009 
Q 2822 2447 2822 2559 
Q 2822 2722 2709 2825 
Q 2597 2928 2384 2928 
Q 2078 2928 1800 2767 
Q 1522 2606 1364 2326 
Q 1206 2047 1075 1425 
L 778 0 
L 213 0 
z
" transform="scale(0.015625)"/>
     </defs>
     <use xlink:href="#Arial-ItalicMT-73"/>
     <use xlink:href="#Arial-ItalicMT-68" x="50"/>
     <use xlink:href="#Arial-ItalicMT-6d" x="105.615234"/>
     <use xlink:href="#Arial-ItalicMT-31" x="188.916016"/>
    </g>
   </g>
   <g id="text_24">
    <!-- srb10 -->
    <g transform="translate(167.316215 154.051514) scale(0.15 -0.15)">
     <defs>
      <path id="Arial-ItalicMT-62" d="M 213 0 
L 1169 4581 
L 1734 4581 
L 1394 2944 
Q 1663 3191 1881 3292 
Q 2100 3394 2338 3394 
Q 2803 3394 3114 3047 
Q 3425 2700 3425 2038 
Q 3425 1597 3300 1231 
Q 3175 866 2990 617 
Q 2806 369 2609 220 
Q 2413 72 2206 -1 
Q 2000 -75 1809 -75 
Q 1481 -75 1231 98 
Q 981 272 841 628 
L 709 0 
L 213 0 
z
M 1050 1363 
L 1047 1256 
Q 1047 831 1250 609 
Q 1453 388 1756 388 
Q 2053 388 2301 595 
Q 2550 803 2709 1243 
Q 2869 1684 2869 2056 
Q 2869 2475 2667 2706 
Q 2466 2938 2169 2938 
Q 1863 2938 1606 2702 
Q 1350 2466 1178 1975 
Q 1050 1609 1050 1363 
z
" transform="scale(0.015625)"/>
     </defs>
     <use xlink:href="#Arial-ItalicMT-73"/>
     <use xlink:href="#Arial-ItalicMT-72" x="50"/>
     <use xlink:href="#Arial-ItalicMT-62" x="83.300781"/>
     <use xlink:href="#Arial-ItalicMT-31" x="138.916016"/>
     <use xlink:href="#Arial-ItalicMT-30" x="194.53125"/>
    </g>
   </g>
   <g id="text_25">
    <!-- srb11 -->
    <g transform="translate(171.767978 137.649908) scale(0.15 -0.15)">
     <use xlink:href="#Arial-ItalicMT-73"/>
     <use xlink:href="#Arial-ItalicMT-72" x="50"/>
     <use xlink:href="#Arial-ItalicMT-62" x="83.300781"/>
     <use xlink:href="#Arial-ItalicMT-31" x="138.916016"/>
     <use xlink:href="#Arial-ItalicMT-31" x="187.15625"/>
    </g>
   </g>
  </g>
  <g id="axes_2">
   <g id="patch_8">
    <path d="M 45 320.4 
L 49.592593 320.4 
L 49.592593 320.4 
L 45 320.4 
z
" clip-path="url(#pcb713060d0)" style="fill: #800080; fill-opacity: 0.2; stroke: #000000; stroke-width: 0.459259; stroke-linejoin: miter"/>
   </g>
   <g id="patch_9">
    <path d="M 49.592593 320.4 
L 54.185185 320.4 
L 54.185185 320.4 
L 49.592593 320.4 
z
" clip-path="url(#pcb713060d0)" style="fill: #800080; fill-opacity: 0.2; stroke: #000000; stroke-width: 0.459259; stroke-linejoin: miter"/>
   </g>
   <g id="patch_10">
    <path d="M 54.185185 320.4 
L 58.777778 320.4 
L 58.777778 320.4 
L 54.185185 320.4 
z
" clip-path="url(#pcb713060d0)" style="fill: #800080; fill-opacity: 0.2; stroke: #000000; stroke-width: 0.459259; stroke-linejoin: miter"/>
   </g>
   <g id="patch_11">
    <path d="M 58.777778 320.4 
L 63.37037 320.4 
L 63.37037 320.4 
L 58.777778 320.4 
z
" clip-path="url(#pcb713060d0)" style="fill: #800080; fill-opacity: 0.2; stroke: #000000; stroke-width: 0.459259; stroke-linejoin: miter"/>
   </g>
   <g id="patch_12">
    <path d="M 63.37037 320.4 
L 67.962963 320.4 
L 67.962963 320.4 
L 63.37037 320.4 
z
" clip-path="url(#pcb713060d0)" style="fill: #800080; fill-opacity: 0.2; stroke: #000000; stroke-width: 0.459259; stroke-linejoin: miter"/>
   </g>
   <g id="patch_13">
    <path d="M 67.962963 320.4 
L 72.555556 320.4 
L 72.555556 320.4 
L 67.962963 320.4 
z
" clip-path="url(#pcb713060d0)" style="fill: #800080; fill-opacity: 0.2; stroke: #000000; stroke-width: 0.459259; stroke-linejoin: miter"/>
   </g>
   <g id="patch_14">
    <path d="M 72.555556 320.4 
L 77.148148 320.4 
L 77.148148 320.4 
L 72.555556 320.4 
z
" clip-path="url(#pcb713060d0)" style="fill: #800080; fill-opacity: 0.2; stroke: #000000; stroke-width: 0.459259; stroke-linejoin: miter"/>
   </g>
   <g id="patch_15">
    <path d="M 77.148148 320.4 
L 81.740741 320.4 
L 81.740741 320.4 
L 77.148148 320.4 
z
" clip-path="url(#pcb713060d0)" style="fill: #800080; fill-opacity: 0.2; stroke: #000000; stroke-width: 0.459259; stroke-linejoin: miter"/>
   </g>
   <g id="patch_16">
    <path d="M 81.740741 320.4 
L 86.333333 320.4 
L 86.333333 320.4 
L 81.740741 320.4 
z
" clip-path="url(#pcb713060d0)" style="fill: #800080; fill-opacity: 0.2; stroke: #000000; stroke-width: 0.459259; stroke-linejoin: miter"/>
   </g>
   <g id="patch_17">
    <path d="M 86.333333 320.4 
L 90.925926 320.4 
L 90.925926 318.718471 
L 86.333333 318.718471 
z
" clip-path="url(#pcb713060d0)" style="fill: #800080; fill-opacity: 0.2; stroke: #000000; stroke-width: 0.459259; stroke-linejoin: miter"/>
   </g>
   <g id="patch_18">
    <path d="M 90.925926 320.4 
L 95.518519 320.4 
L 95.518519 317.036943 
L 90.925926 317.036943 
z
" clip-path="url(#pcb713060d0)" style="fill: #800080; fill-opacity: 0.2; stroke: #000000; stroke-width: 0.459259; stroke-linejoin: miter"/>
   </g>
   <g id="patch_19">
    <path d="M 95.518519 320.4 
L 100.111111 320.4 
L 100.111111 317.036943 
L 95.518519 317.036943 
z
" clip-path="url(#pcb713060d0)" style="fill: #800080; fill-opacity: 0.2; stroke: #000000; stroke-width: 0.459259; stroke-linejoin: miter"/>
   </g>
   <g id="patch_20">
    <path d="M 100.111111 320.4 
L 104.703704 320.4 
L 104.703704 320.4 
L 100.111111 320.4 
z
" clip-path="url(#pcb713060d0)" style="fill: #800080; fill-opacity: 0.2; stroke: #000000; stroke-width: 0.459259; stroke-linejoin: miter"/>
   </g>
   <g id="patch_21">
    <path d="M 104.703704 320.4 
L 109.296296 320.4 
L 109.296296 320.4 
L 104.703704 320.4 
z
" clip-path="url(#pcb713060d0)" style="fill: #800080; fill-opacity: 0.2; stroke: #000000; stroke-width: 0.459259; stroke-linejoin: miter"/>
   </g>
   <g id="patch_22">
    <path d="M 109.296296 320.4 
L 113.888889 320.4 
L 113.888889 315.355414 
L 109.296296 315.355414 
z
" clip-path="url(#pcb713060d0)" style="fill: #800080; fill-opacity: 0.2; stroke: #000000; stroke-width: 0.459259; stroke-linejoin: miter"/>
   </g>
   <g id="patch_23">
    <path d="M 113.888889 320.4 
L 118.481481 320.4 
L 118.481481 317.036943 
L 113.888889 317.036943 
z
" clip-path="url(#pcb713060d0)" style="fill: #800080; fill-opacity: 0.2; stroke: #000000; stroke-width: 0.459259; stroke-linejoin: miter"/>
   </g>
   <g id="patch_24">
    <path d="M 118.481481 320.4 
L 123.074074 320.4 
L 123.074074 318.718471 
L 118.481481 318.718471 
z
" clip-path="url(#pcb713060d0)" style="fill: #800080; fill-opacity: 0.2; stroke: #000000; stroke-width: 0.459259; stroke-linejoin: miter"/>
   </g>
   <g id="patch_25">
    <path d="M 123.074074 320.4 
L 127.666667 320.4 
L 127.666667 315.355414 
L 123.074074 315.355414 
z
" clip-path="url(#pcb713060d0)" style="fill: #800080; fill-opacity: 0.2; stroke: #000000; stroke-width: 0.459259; stroke-linejoin: miter"/>
   </g>
   <g id="patch_26">
    <path d="M 127.666667 320.4 
L 132.259259 320.4 
L 132.259259 318.718471 
L 127.666667 318.718471 
z
" clip-path="url(#pcb713060d0)" style="fill: #800080; fill-opacity: 0.2; stroke: #000000; stroke-width: 0.459259; stroke-linejoin: miter"/>
   </g>
   <g id="patch_27">
    <path d="M 132.259259 320.4 
L 136.851852 320.4 
L 136.851852 313.673885 
L 132.259259 313.673885 
z
" clip-path="url(#pcb713060d0)" style="fill: #800080; fill-opacity: 0.2; stroke: #000000; stroke-width: 0.459259; stroke-linejoin: miter"/>
   </g>
   <g id="patch_28">
    <path d="M 136.851852 320.4 
L 141.444444 320.4 
L 141.444444 317.036943 
L 136.851852 317.036943 
z
" clip-path="url(#pcb713060d0)" style="fill: #800080; fill-opacity: 0.2; stroke: #000000; stroke-width: 0.459259; stroke-linejoin: miter"/>
   </g>
   <g id="patch_29">
    <path d="M 141.444444 320.4 
L 146.037037 320.4 
L 146.037037 310.310828 
L 141.444444 310.310828 
z
" clip-path="url(#pcb713060d0)" style="fill: #800080; fill-opacity: 0.2; stroke: #000000; stroke-width: 0.459259; stroke-linejoin: miter"/>
   </g>
   <g id="patch_30">
    <path d="M 146.037037 320.4 
L 150.62963 320.4 
L 150.62963 301.903185 
L 146.037037 301.903185 
z
" clip-path="url(#pcb713060d0)" style="fill: #800080; fill-opacity: 0.2; stroke: #000000; stroke-width: 0.459259; stroke-linejoin: miter"/>
   </g>
   <g id="patch_31">
    <path d="M 150.62963 320.4 
L 155.222222 320.4 
L 155.222222 308.629299 
L 150.62963 308.629299 
z
" clip-path="url(#pcb713060d0)" style="fill: #800080; fill-opacity: 0.2; stroke: #000000; stroke-width: 0.459259; stroke-linejoin: miter"/>
   </g>
   <g id="patch_32">
    <path d="M 155.222222 320.4 
L 159.814815 320.4 
L 159.814815 313.673885 
L 155.222222 313.673885 
z
" clip-path="url(#pcb713060d0)" style="fill: #800080; fill-opacity: 0.2; stroke: #000000; stroke-width: 0.459259; stroke-linejoin: miter"/>
   </g>
   <g id="patch_33">
    <path d="M 159.814815 320.4 
L 164.407407 320.4 
L 164.407407 308.629299 
L 159.814815 308.629299 
z
" clip-path="url(#pcb713060d0)" style="fill: #800080; fill-opacity: 0.2; stroke: #000000; stroke-width: 0.459259; stroke-linejoin: miter"/>
   </g>
   <g id="patch_34">
    <path d="M 164.407407 320.4 
L 169 320.4 
L 169 308.629299 
L 164.407407 308.629299 
z
" clip-path="url(#pcb713060d0)" style="fill: #800080; fill-opacity: 0.2; stroke: #000000; stroke-width: 0.459259; stroke-linejoin: miter"/>
   </g>
   <g id="patch_35">
    <path d="M 169 320.4 
L 173.592593 320.4 
L 173.592593 301.903185 
L 169 301.903185 
z
" clip-path="url(#pcb713060d0)" style="fill: #800080; fill-opacity: 0.2; stroke: #000000; stroke-width: 0.459259; stroke-linejoin: miter"/>
   </g>
   <g id="patch_36">
    <path d="M 173.592593 320.4 
L 178.185185 320.4 
L 178.185185 296.858599 
L 173.592593 296.858599 
z
" clip-path="url(#pcb713060d0)" style="fill: #800080; fill-opacity: 0.2; stroke: #000000; stroke-width: 0.459259; stroke-linejoin: miter"/>
   </g>
   <g id="patch_37">
    <path d="M 178.185185 320.4 
L 182.777778 320.4 
L 182.777778 285.087898 
L 178.185185 285.087898 
z
" clip-path="url(#pcb713060d0)" style="fill: #800080; fill-opacity: 0.2; stroke: #000000; stroke-width: 0.459259; stroke-linejoin: miter"/>
   </g>
   <g id="patch_38">
    <path d="M 182.777778 320.4 
L 187.37037 320.4 
L 187.37037 285.087898 
L 182.777778 285.087898 
z
" clip-path="url(#pcb713060d0)" style="fill: #800080; fill-opacity: 0.2; stroke: #000000; stroke-width: 0.459259; stroke-linejoin: miter"/>
   </g>
   <g id="patch_39">
    <path d="M 187.37037 320.4 
L 191.962963 320.4 
L 191.962963 278.361783 
L 187.37037 278.361783 
z
" clip-path="url(#pcb713060d0)" style="fill: #800080; fill-opacity: 0.2; stroke: #000000; stroke-width: 0.459259; stroke-linejoin: miter"/>
   </g>
   <g id="patch_40">
    <path d="M 191.962963 320.4 
L 196.555556 320.4 
L 196.555556 243.049682 
L 191.962963 243.049682 
z
" clip-path="url(#pcb713060d0)" style="fill: #800080; fill-opacity: 0.2; stroke: #000000; stroke-width: 0.459259; stroke-linejoin: miter"/>
   </g>
   <g id="patch_41">
    <path d="M 196.555556 320.4 
L 201.148148 320.4 
L 201.148148 234.642038 
L 196.555556 234.642038 
z
" clip-path="url(#pcb713060d0)" style="fill: #800080; fill-opacity: 0.2; stroke: #000000; stroke-width: 0.459259; stroke-linejoin: miter"/>
   </g>
   <g id="patch_42">
    <path d="M 201.148148 320.4 
L 205.740741 320.4 
L 205.740741 175.788535 
L 201.148148 175.788535 
z
" clip-path="url(#pcb713060d0)" style="fill: #800080; fill-opacity: 0.2; stroke: #000000; stroke-width: 0.459259; stroke-linejoin: miter"/>
   </g>
   <g id="patch_43">
    <path d="M 205.740741 320.4 
L 210.333333 320.4 
L 210.333333 167.380892 
L 205.740741 167.380892 
z
" clip-path="url(#pcb713060d0)" style="fill: #800080; fill-opacity: 0.2; stroke: #000000; stroke-width: 0.459259; stroke-linejoin: miter"/>
   </g>
   <g id="patch_44">
    <path d="M 210.333333 320.4 
L 214.925926 320.4 
L 214.925926 105.164331 
L 210.333333 105.164331 
z
" clip-path="url(#pcb713060d0)" style="fill: #800080; fill-opacity: 0.2; stroke: #000000; stroke-width: 0.459259; stroke-linejoin: miter"/>
   </g>
   <g id="patch_45">
    <path d="M 214.925926 320.4 
L 219.518519 320.4 
L 219.518519 79.941401 
L 214.925926 79.941401 
z
" clip-path="url(#pcb713060d0)" style="fill: #800080; fill-opacity: 0.2; stroke: #000000; stroke-width: 0.459259; stroke-linejoin: miter"/>
   </g>
   <g id="patch_46">
    <path d="M 219.518519 320.4 
L 224.111111 320.4 
L 224.111111 56.4 
L 219.518519 56.4 
z
" clip-path="url(#pcb713060d0)" style="fill: #800080; fill-opacity: 0.2; stroke: #000000; stroke-width: 0.459259; stroke-linejoin: miter"/>
   </g>
   <g id="patch_47">
    <path d="M 224.111111 320.4 
L 228.703704 320.4 
L 228.703704 106.84586 
L 224.111111 106.84586 
z
" clip-path="url(#pcb713060d0)" style="fill: #800080; fill-opacity: 0.2; stroke: #000000; stroke-width: 0.459259; stroke-linejoin: miter"/>
   </g>
   <g id="patch_48">
    <path d="M 228.703704 320.4 
L 233.296296 320.4 
L 233.296296 164.017834 
L 228.703704 164.017834 
z
" clip-path="url(#pcb713060d0)" style="fill: #800080; fill-opacity: 0.2; stroke: #000000; stroke-width: 0.459259; stroke-linejoin: miter"/>
   </g>
   <g id="patch_49">
    <path d="M 233.296296 320.4 
L 237.888889 320.4 
L 237.888889 175.788535 
L 233.296296 175.788535 
z
" clip-path="url(#pcb713060d0)" style="fill: #800080; fill-opacity: 0.2; stroke: #000000; stroke-width: 0.459259; stroke-linejoin: miter"/>
   </g>
   <g id="patch_50">
    <path d="M 237.888889 320.4 
L 242.481481 320.4 
L 242.481481 231.278981 
L 237.888889 231.278981 
z
" clip-path="url(#pcb713060d0)" style="fill: #800080; fill-opacity: 0.2; stroke: #000000; stroke-width: 0.459259; stroke-linejoin: miter"/>
   </g>
   <g id="patch_51">
    <path d="M 242.481481 320.4 
L 247.074074 320.4 
L 247.074074 246.412739 
L 242.481481 246.412739 
z
" clip-path="url(#pcb713060d0)" style="fill: #800080; fill-opacity: 0.2; stroke: #000000; stroke-width: 0.459259; stroke-linejoin: miter"/>
   </g>
   <g id="patch_52">
    <path d="M 247.074074 320.4 
L 251.666667 320.4 
L 251.666667 259.864968 
L 247.074074 259.864968 
z
" clip-path="url(#pcb713060d0)" style="fill: #800080; fill-opacity: 0.2; stroke: #000000; stroke-width: 0.459259; stroke-linejoin: miter"/>
   </g>
   <g id="patch_53">
    <path d="M 251.666667 320.4 
L 256.259259 320.4 
L 256.259259 276.680255 
L 251.666667 276.680255 
z
" clip-path="url(#pcb713060d0)" style="fill: #800080; fill-opacity: 0.2; stroke: #000000; stroke-width: 0.459259; stroke-linejoin: miter"/>
   </g>
   <g id="patch_54">
    <path d="M 256.259259 320.4 
L 260.851852 320.4 
L 260.851852 300.221656 
L 256.259259 300.221656 
z
" clip-path="url(#pcb713060d0)" style="fill: #800080; fill-opacity: 0.2; stroke: #000000; stroke-width: 0.459259; stroke-linejoin: miter"/>
   </g>
   <g id="patch_55">
    <path d="M 260.851852 320.4 
L 265.444444 320.4 
L 265.444444 303.584713 
L 260.851852 303.584713 
z
" clip-path="url(#pcb713060d0)" style="fill: #800080; fill-opacity: 0.2; stroke: #000000; stroke-width: 0.459259; stroke-linejoin: miter"/>
   </g>
   <g id="patch_56">
    <path d="M 265.444444 320.4 
L 270.037037 320.4 
L 270.037037 310.310828 
L 265.444444 310.310828 
z
" clip-path="url(#pcb713060d0)" style="fill: #800080; fill-opacity: 0.2; stroke: #000000; stroke-width: 0.459259; stroke-linejoin: miter"/>
   </g>
   <g id="patch_57">
    <path d="M 270.037037 320.4 
L 274.62963 320.4 
L 274.62963 310.310828 
L 270.037037 310.310828 
z
" clip-path="url(#pcb713060d0)" style="fill: #800080; fill-opacity: 0.2; stroke: #000000; stroke-width: 0.459259; stroke-linejoin: miter"/>
   </g>
   <g id="patch_58">
    <path d="M 274.62963 320.4 
L 279.222222 320.4 
L 279.222222 311.992357 
L 274.62963 311.992357 
z
" clip-path="url(#pcb713060d0)" style="fill: #800080; fill-opacity: 0.2; stroke: #000000; stroke-width: 0.459259; stroke-linejoin: miter"/>
   </g>
   <g id="patch_59">
    <path d="M 279.222222 320.4 
L 283.814815 320.4 
L 283.814815 315.355414 
L 279.222222 315.355414 
z
" clip-path="url(#pcb713060d0)" style="fill: #800080; fill-opacity: 0.2; stroke: #000000; stroke-width: 0.459259; stroke-linejoin: miter"/>
   </g>
   <g id="patch_60">
    <path d="M 283.814815 320.4 
L 288.407407 320.4 
L 288.407407 310.310828 
L 283.814815 310.310828 
z
" clip-path="url(#pcb713060d0)" style="fill: #800080; fill-opacity: 0.2; stroke: #000000; stroke-width: 0.459259; stroke-linejoin: miter"/>
   </g>
   <g id="patch_61">
    <path d="M 288.407407 320.4 
L 293 320.4 
L 293 318.718471 
L 288.407407 318.718471 
z
" clip-path="url(#pcb713060d0)" style="fill: #800080; fill-opacity: 0.2; stroke: #000000; stroke-width: 0.459259; stroke-linejoin: miter"/>
   </g>
   <g id="patch_62">
    <path d="M 293 320.4 
L 297.592593 320.4 
L 297.592593 317.036943 
L 293 317.036943 
z
" clip-path="url(#pcb713060d0)" style="fill: #800080; fill-opacity: 0.2; stroke: #000000; stroke-width: 0.459259; stroke-linejoin: miter"/>
   </g>
   <g id="patch_63">
    <path d="M 297.592593 320.4 
L 302.185185 320.4 
L 302.185185 320.4 
L 297.592593 320.4 
z
" clip-path="url(#pcb713060d0)" style="fill: #800080; fill-opacity: 0.2; stroke: #000000; stroke-width: 0.459259; stroke-linejoin: miter"/>
   </g>
   <g id="patch_64">
    <path d="M 302.185185 320.4 
L 306.777778 320.4 
L 306.777778 320.4 
L 302.185185 320.4 
z
" clip-path="url(#pcb713060d0)" style="fill: #800080; fill-opacity: 0.2; stroke: #000000; stroke-width: 0.459259; stroke-linejoin: miter"/>
   </g>
   <g id="patch_65">
    <path d="M 306.777778 320.4 
L 311.37037 320.4 
L 311.37037 320.4 
L 306.777778 320.4 
z
" clip-path="url(#pcb713060d0)" style="fill: #800080; fill-opacity: 0.2; stroke: #000000; stroke-width: 0.459259; stroke-linejoin: miter"/>
   </g>
   <g id="patch_66">
    <path d="M 311.37037 320.4 
L 315.962963 320.4 
L 315.962963 320.4 
L 311.37037 320.4 
z
" clip-path="url(#pcb713060d0)" style="fill: #800080; fill-opacity: 0.2; stroke: #000000; stroke-width: 0.459259; stroke-linejoin: miter"/>
   </g>
   <g id="patch_67">
    <path d="M 315.962963 320.4 
L 320.555556 320.4 
L 320.555556 320.4 
L 315.962963 320.4 
z
" clip-path="url(#pcb713060d0)" style="fill: #800080; fill-opacity: 0.2; stroke: #000000; stroke-width: 0.459259; stroke-linejoin: miter"/>
   </g>
   <g id="patch_68">
    <path d="M 320.555556 320.4 
L 325.148148 320.4 
L 325.148148 320.4 
L 320.555556 320.4 
z
" clip-path="url(#pcb713060d0)" style="fill: #800080; fill-opacity: 0.2; stroke: #000000; stroke-width: 0.459259; stroke-linejoin: miter"/>
   </g>
   <g id="patch_69">
    <path d="M 325.148148 320.4 
L 329.740741 320.4 
L 329.740741 320.4 
L 325.148148 320.4 
z
" clip-path="url(#pcb713060d0)" style="fill: #800080; fill-opacity: 0.2; stroke: #000000; stroke-width: 0.459259; stroke-linejoin: miter"/>
   </g>
   <g id="patch_70">
    <path d="M 329.740741 320.4 
L 334.333333 320.4 
L 334.333333 320.4 
L 329.740741 320.4 
z
" clip-path="url(#pcb713060d0)" style="fill: #800080; fill-opacity: 0.2; stroke: #000000; stroke-width: 0.459259; stroke-linejoin: miter"/>
   </g>
   <g id="patch_71">
    <path d="M 334.333333 320.4 
L 338.925926 320.4 
L 338.925926 320.4 
L 334.333333 320.4 
z
" clip-path="url(#pcb713060d0)" style="fill: #800080; fill-opacity: 0.2; stroke: #000000; stroke-width: 0.459259; stroke-linejoin: miter"/>
   </g>
   <g id="patch_72">
    <path d="M 338.925926 320.4 
L 343.518519 320.4 
L 343.518519 320.4 
L 338.925926 320.4 
z
" clip-path="url(#pcb713060d0)" style="fill: #800080; fill-opacity: 0.2; stroke: #000000; stroke-width: 0.459259; stroke-linejoin: miter"/>
   </g>
   <g id="patch_73">
    <path d="M 343.518519 320.4 
L 348.111111 320.4 
L 348.111111 320.4 
L 343.518519 320.4 
z
" clip-path="url(#pcb713060d0)" style="fill: #800080; fill-opacity: 0.2; stroke: #000000; stroke-width: 0.459259; stroke-linejoin: miter"/>
   </g>
   <g id="patch_74">
    <path d="M 348.111111 320.4 
L 352.703704 320.4 
L 352.703704 320.4 
L 348.111111 320.4 
z
" clip-path="url(#pcb713060d0)" style="fill: #800080; fill-opacity: 0.2; stroke: #000000; stroke-width: 0.459259; stroke-linejoin: miter"/>
   </g>
   <g id="patch_75">
    <path d="M 352.703704 320.4 
L 357.296296 320.4 
L 357.296296 320.4 
L 352.703704 320.4 
z
" clip-path="url(#pcb713060d0)" style="fill: #800080; fill-opacity: 0.2; stroke: #000000; stroke-width: 0.459259; stroke-linejoin: miter"/>
   </g>
   <g id="patch_76">
    <path d="M 357.296296 320.4 
L 361.888889 320.4 
L 361.888889 320.4 
L 357.296296 320.4 
z
" clip-path="url(#pcb713060d0)" style="fill: #800080; fill-opacity: 0.2; stroke: #000000; stroke-width: 0.459259; stroke-linejoin: miter"/>
   </g>
   <g id="patch_77">
    <path d="M 361.888889 320.4 
L 366.481481 320.4 
L 366.481481 320.4 
L 361.888889 320.4 
z
" clip-path="url(#pcb713060d0)" style="fill: #800080; fill-opacity: 0.2; stroke: #000000; stroke-width: 0.459259; stroke-linejoin: miter"/>
   </g>
   <g id="patch_78">
    <path d="M 366.481481 320.4 
L 371.074074 320.4 
L 371.074074 320.4 
L 366.481481 320.4 
z
" clip-path="url(#pcb713060d0)" style="fill: #800080; fill-opacity: 0.2; stroke: #000000; stroke-width: 0.459259; stroke-linejoin: miter"/>
   </g>
   <g id="patch_79">
    <path d="M 371.074074 320.4 
L 375.666667 320.4 
L 375.666667 320.4 
L 371.074074 320.4 
z
" clip-path="url(#pcb713060d0)" style="fill: #800080; fill-opacity: 0.2; stroke: #000000; stroke-width: 0.459259; stroke-linejoin: miter"/>
   </g>
   <g id="patch_80">
    <path d="M 375.666667 320.4 
L 380.259259 320.4 
L 380.259259 320.4 
L 375.666667 320.4 
z
" clip-path="url(#pcb713060d0)" style="fill: #800080; fill-opacity: 0.2; stroke: #000000; stroke-width: 0.459259; stroke-linejoin: miter"/>
   </g>
   <g id="patch_81">
    <path d="M 380.259259 320.4 
L 384.851852 320.4 
L 384.851852 320.4 
L 380.259259 320.4 
z
" clip-path="url(#pcb713060d0)" style="fill: #800080; fill-opacity: 0.2; stroke: #000000; stroke-width: 0.459259; stroke-linejoin: miter"/>
   </g>
   <g id="patch_82">
    <path d="M 384.851852 320.4 
L 389.444444 320.4 
L 389.444444 320.4 
L 384.851852 320.4 
z
" clip-path="url(#pcb713060d0)" style="fill: #800080; fill-opacity: 0.2; stroke: #000000; stroke-width: 0.459259; stroke-linejoin: miter"/>
   </g>
   <g id="patch_83">
    <path d="M 389.444444 320.4 
L 394.037037 320.4 
L 394.037037 320.4 
L 389.444444 320.4 
z
" clip-path="url(#pcb713060d0)" style="fill: #800080; fill-opacity: 0.2; stroke: #000000; stroke-width: 0.459259; stroke-linejoin: miter"/>
   </g>
   <g id="patch_84">
    <path d="M 394.037037 320.4 
L 398.62963 320.4 
L 398.62963 320.4 
L 394.037037 320.4 
z
" clip-path="url(#pcb713060d0)" style="fill: #800080; fill-opacity: 0.2; stroke: #000000; stroke-width: 0.459259; stroke-linejoin: miter"/>
   </g>
   <g id="patch_85">
    <path d="M 398.62963 320.4 
L 403.222222 320.4 
L 403.222222 320.4 
L 398.62963 320.4 
z
" clip-path="url(#pcb713060d0)" style="fill: #800080; fill-opacity: 0.2; stroke: #000000; stroke-width: 0.459259; stroke-linejoin: miter"/>
   </g>
   <g id="patch_86">
    <path d="M 403.222222 320.4 
L 407.814815 320.4 
L 407.814815 320.4 
L 403.222222 320.4 
z
" clip-path="url(#pcb713060d0)" style="fill: #800080; fill-opacity: 0.2; stroke: #000000; stroke-width: 0.459259; stroke-linejoin: miter"/>
   </g>
   <g id="patch_87">
    <path d="M 407.814815 320.4 
L 412.407407 320.4 
L 412.407407 320.4 
L 407.814815 320.4 
z
" clip-path="url(#pcb713060d0)" style="fill: #800080; fill-opacity: 0.2; stroke: #000000; stroke-width: 0.459259; stroke-linejoin: miter"/>
   </g>
   <g id="patch_88">
    <path d="M 412.407407 320.4 
L 417 320.4 
L 417 320.4 
L 412.407407 320.4 
z
" clip-path="url(#pcb713060d0)" style="fill: #800080; fill-opacity: 0.2; stroke: #000000; stroke-width: 0.459259; stroke-linejoin: miter"/>
   </g>
   <g id="matplotlib.axis_3">
    <g id="ytick_7">
     <g id="line2d_11">
      <defs>
       <path id="mb1654838c2" d="M 0 0 
L 3.5 0 
" style="stroke: #000000; stroke-width: 0.8"/>
      </defs>
      <g>
       <use xlink:href="#mb1654838c2" x="324" y="320.4" style="stroke: #000000; stroke-width: 0.8"/>
      </g>
     </g>
     <g id="text_26">
      <!-- 0 -->
      <g transform="translate(331 326.484141) scale(0.17 -0.17)">
       <use xlink:href="#ArialMT-30"/>
      </g>
     </g>
    </g>
    <g id="ytick_8">
     <g id="line2d_12">
      <g>
       <use xlink:href="#mb1654838c2" x="324" y="278.361783" style="stroke: #000000; stroke-width: 0.8"/>
      </g>
     </g>
     <g id="text_27">
      <!-- 25 -->
      <g transform="translate(331 284.445924) scale(0.17 -0.17)">
       <defs>
        <path id="ArialMT-35" d="M 266 1200 
L 856 1250 
Q 922 819 1161 601 
Q 1400 384 1738 384 
Q 2144 384 2425 690 
Q 2706 997 2706 1503 
Q 2706 1984 2436 2262 
Q 2166 2541 1728 2541 
Q 1456 2541 1237 2417 
Q 1019 2294 894 2097 
L 366 2166 
L 809 4519 
L 3088 4519 
L 3088 3981 
L 1259 3981 
L 1013 2750 
Q 1425 3038 1878 3038 
Q 2478 3038 2890 2622 
Q 3303 2206 3303 1553 
Q 3303 931 2941 478 
Q 2500 -78 1738 -78 
Q 1113 -78 717 272 
Q 322 622 266 1200 
z
" transform="scale(0.015625)"/>
       </defs>
       <use xlink:href="#ArialMT-32"/>
       <use xlink:href="#ArialMT-35" x="55.615234"/>
      </g>
     </g>
    </g>
    <g id="ytick_9">
     <g id="line2d_13">
      <g>
       <use xlink:href="#mb1654838c2" x="324" y="236.323567" style="stroke: #000000; stroke-width: 0.8"/>
      </g>
     </g>
     <g id="text_28">
      <!-- 50 -->
      <g transform="translate(331 242.407708) scale(0.17 -0.17)">
       <use xlink:href="#ArialMT-35"/>
       <use xlink:href="#ArialMT-30" x="55.615234"/>
      </g>
     </g>
    </g>
    <g id="ytick_10">
     <g id="line2d_14">
      <g>
       <use xlink:href="#mb1654838c2" x="324" y="194.28535" style="stroke: #000000; stroke-width: 0.8"/>
      </g>
     </g>
     <g id="text_29">
      <!-- 75 -->
      <g transform="translate(331 200.369491) scale(0.17 -0.17)">
       <defs>
        <path id="ArialMT-37" d="M 303 3981 
L 303 4522 
L 3269 4522 
L 3269 4084 
Q 2831 3619 2401 2847 
Q 1972 2075 1738 1259 
Q 1569 684 1522 0 
L 944 0 
Q 953 541 1156 1306 
Q 1359 2072 1739 2783 
Q 2119 3494 2547 3981 
L 303 3981 
z
" transform="scale(0.015625)"/>
       </defs>
       <use xlink:href="#ArialMT-37"/>
       <use xlink:href="#ArialMT-35" x="55.615234"/>
      </g>
     </g>
    </g>
    <g id="ytick_11">
     <g id="line2d_15">
      <g>
       <use xlink:href="#mb1654838c2" x="324" y="152.247134" style="stroke: #000000; stroke-width: 0.8"/>
      </g>
     </g>
     <g id="text_30">
      <!-- 100 -->
      <g transform="translate(331 158.331274) scale(0.17 -0.17)">
       <use xlink:href="#ArialMT-31"/>
       <use xlink:href="#ArialMT-30" x="55.615234"/>
       <use xlink:href="#ArialMT-30" x="111.230469"/>
      </g>
     </g>
    </g>
    <g id="ytick_12">
     <g id="line2d_16">
      <g>
       <use xlink:href="#mb1654838c2" x="324" y="110.208917" style="stroke: #000000; stroke-width: 0.8"/>
      </g>
     </g>
     <g id="text_31">
      <!-- 125 -->
      <g transform="translate(331 116.293058) scale(0.17 -0.17)">
       <use xlink:href="#ArialMT-31"/>
       <use xlink:href="#ArialMT-32" x="55.615234"/>
       <use xlink:href="#ArialMT-35" x="111.230469"/>
      </g>
     </g>
    </g>
    <g id="ytick_13">
     <g id="line2d_17">
      <g>
       <use xlink:href="#mb1654838c2" x="324" y="68.170701" style="stroke: #000000; stroke-width: 0.8"/>
      </g>
     </g>
     <g id="text_32">
      <!-- 150 -->
      <g transform="translate(331 74.254841) scale(0.17 -0.17)">
       <use xlink:href="#ArialMT-31"/>
       <use xlink:href="#ArialMT-35" x="55.615234"/>
       <use xlink:href="#ArialMT-30" x="111.230469"/>
      </g>
     </g>
    </g>
    <g id="text_33">
     <!-- Count of strains -->
     <g transform="translate(376.960625 248.328203) rotate(-90) scale(0.19 -0.19)">
      <defs>
       <path id="ArialMT-43" d="M 3763 1606 
L 4369 1453 
Q 4178 706 3683 314 
Q 3188 -78 2472 -78 
Q 1731 -78 1267 223 
Q 803 525 561 1097 
Q 319 1669 319 2325 
Q 319 3041 592 3573 
Q 866 4106 1370 4382 
Q 1875 4659 2481 4659 
Q 3169 4659 3637 4309 
Q 4106 3959 4291 3325 
L 3694 3184 
Q 3534 3684 3231 3912 
Q 2928 4141 2469 4141 
Q 1941 4141 1586 3887 
Q 1231 3634 1087 3207 
Q 944 2781 944 2328 
Q 944 1744 1114 1308 
Q 1284 872 1643 656 
Q 2003 441 2422 441 
Q 2931 441 3284 734 
Q 3638 1028 3763 1606 
z
" transform="scale(0.015625)"/>
       <path id="ArialMT-75" d="M 2597 0 
L 2597 488 
Q 2209 -75 1544 -75 
Q 1250 -75 995 37 
Q 741 150 617 320 
Q 494 491 444 738 
Q 409 903 409 1263 
L 409 3319 
L 972 3319 
L 972 1478 
Q 972 1038 1006 884 
Q 1059 663 1231 536 
Q 1403 409 1656 409 
Q 1909 409 2131 539 
Q 2353 669 2445 892 
Q 2538 1116 2538 1541 
L 2538 3319 
L 3100 3319 
L 3100 0 
L 2597 0 
z
" transform="scale(0.015625)"/>
      </defs>
      <use xlink:href="#ArialMT-43"/>
      <use xlink:href="#ArialMT-6f" x="72.216797"/>
      <use xlink:href="#ArialMT-75" x="127.832031"/>
      <use xlink:href="#ArialMT-6e" x="183.447266"/>
      <use xlink:href="#ArialMT-74" x="239.0625"/>
      <use xlink:href="#ArialMT-20" x="266.845703"/>
      <use xlink:href="#ArialMT-6f" x="294.628906"/>
      <use xlink:href="#ArialMT-66" x="350.244141"/>
      <use xlink:href="#ArialMT-20" x="378.027344"/>
      <use xlink:href="#ArialMT-73" x="405.810547"/>
      <use xlink:href="#ArialMT-74" x="455.810547"/>
      <use xlink:href="#ArialMT-72" x="483.59375"/>
      <use xlink:href="#ArialMT-61" x="516.894531"/>
      <use xlink:href="#ArialMT-69" x="572.509766"/>
      <use xlink:href="#ArialMT-6e" x="594.726562"/>
      <use xlink:href="#ArialMT-73" x="650.341797"/>
     </g>
    </g>
   </g>
   <g id="patch_89">
    <path d="M 45 320.4 
L 45 43.2 
" style="fill: none; stroke: #000000; stroke-width: 0.8; stroke-linejoin: miter; stroke-linecap: square"/>
   </g>
   <g id="patch_90">
    <path d="M 324 320.4 
L 324 43.2 
" style="fill: none; stroke: #000000; stroke-width: 0.8; stroke-linejoin: miter; stroke-linecap: square"/>
   </g>
   <g id="patch_91">
    <path d="M 45 320.4 
L 324 320.4 
" style="fill: none; stroke: #000000; stroke-width: 0.8; stroke-linejoin: miter; stroke-linecap: square"/>
   </g>
   <g id="patch_92">
    <path d="M 45 43.2 
L 324 43.2 
" style="fill: none; stroke: #000000; stroke-width: 0.8; stroke-linejoin: miter; stroke-linecap: square"/>
   </g>
   <g id="legend_1">
    <g id="line2d_18">
     <defs>
      <path id="m242a865a9d" d="M 0 5 
C 1.326016 5 2.597899 4.473168 3.535534 3.535534 
C 4.473168 2.597899 5 1.326016 5 0 
C 5 -1.326016 4.473168 -2.597899 3.535534 -3.535534 
C 2.597899 -4.473168 1.326016 -5 0 -5 
C -1.326016 -5 -2.597899 -4.473168 -3.535534 -3.535534 
C -4.473168 -2.597899 -5 -1.326016 -5 0 
C -5 1.326016 -4.473168 2.597899 -3.535534 3.535534 
C -2.597899 4.473168 -1.326016 5 0 5 
z
" style="stroke: #ffa500"/>
     </defs>
     <g>
      <use xlink:href="#m242a865a9d" x="217.56" y="58.389375" style="fill: #ffa500; stroke: #ffa500"/>
     </g>
    </g>
    <g id="text_34">
     <!-- Hits -->
     <g transform="translate(239.16 62.589375) scale(0.12 -0.12)">
      <defs>
       <path id="ArialMT-48" d="M 513 0 
L 513 4581 
L 1119 4581 
L 1119 2700 
L 3500 2700 
L 3500 4581 
L 4106 4581 
L 4106 0 
L 3500 0 
L 3500 2159 
L 1119 2159 
L 1119 0 
L 513 0 
z
" transform="scale(0.015625)"/>
      </defs>
      <use xlink:href="#ArialMT-48"/>
      <use xlink:href="#ArialMT-69" x="72.216797"/>
      <use xlink:href="#ArialMT-74" x="94.433594"/>
      <use xlink:href="#ArialMT-73" x="122.216797"/>
     </g>
    </g>
    <g id="line2d_19">
     <defs>
      <path id="m142da81153" d="M 0 5 
C 1.326016 5 2.597899 4.473168 3.535534 3.535534 
C 4.473168 2.597899 5 1.326016 5 0 
C 5 -1.326016 4.473168 -2.597899 3.535534 -3.535534 
C 2.597899 -4.473168 1.326016 -5 0 -5 
C -1.326016 -5 -2.597899 -4.473168 -3.535534 -3.535534 
C -4.473168 -2.597899 -5 -1.326016 -5 0 
C -5 1.326016 -4.473168 2.597899 -3.535534 3.535534 
C -2.597899 4.473168 -1.326016 5 0 5 
z
" style="stroke: #008000"/>
     </defs>
     <g>
      <use xlink:href="#m142da81153" x="217.56" y="75.36375" style="fill: #008000; stroke: #008000"/>
     </g>
    </g>
    <g id="text_35">
     <!-- srb10/11 -->
     <g transform="translate(239.16 79.56375) scale(0.12 -0.12)">
      <defs>
       <path id="Arial-ItalicMT-2f" d="M -325 -75 
L 2138 4659 
L 2628 4659 
L 166 -75 
L -325 -75 
z
" transform="scale(0.015625)"/>
       <path id="Arial-ItalicMT-394" d="M -63 0 
L 2534 4581 
L 3256 4581 
L 4013 0 
L -63 0 
z
M 900 519 
L 3331 519 
L 2944 2941 
Q 2841 3588 2816 4081 
Q 2659 3684 2359 3147 
L 900 519 
z
" transform="scale(0.015625)"/>
      </defs>
      <use xlink:href="#Arial-ItalicMT-73"/>
      <use xlink:href="#Arial-ItalicMT-72" x="50"/>
      <use xlink:href="#Arial-ItalicMT-62" x="83.300781"/>
      <use xlink:href="#Arial-ItalicMT-31" x="138.916016"/>
      <use xlink:href="#Arial-ItalicMT-30" x="194.53125"/>
      <use xlink:href="#Arial-ItalicMT-2f" x="250.146484"/>
      <use xlink:href="#Arial-ItalicMT-31" x="277.929688"/>
      <use xlink:href="#Arial-ItalicMT-31" x="326.169922"/>
      <use xlink:href="#Arial-ItalicMT-394" x="381.785156"/>
     </g>
    </g>
    <g id="patch_93">
     <path d="M 205.56 96.538125 
L 229.56 96.538125 
L 229.56 88.138125 
L 205.56 88.138125 
z
" style="fill: #800080; stroke: #800080; stroke-linejoin: miter"/>
    </g>
    <g id="text_36">
     <!-- Non-adhesive -->
     <g transform="translate(239.16 96.538125) scale(0.12 -0.12)">
      <defs>
       <path id="ArialMT-4e" d="M 488 0 
L 488 4581 
L 1109 4581 
L 3516 984 
L 3516 4581 
L 4097 4581 
L 4097 0 
L 3475 0 
L 1069 3600 
L 1069 0 
L 488 0 
z
" transform="scale(0.015625)"/>
       <path id="ArialMT-2d" d="M 203 1375 
L 203 1941 
L 1931 1941 
L 1931 1375 
L 203 1375 
z
" transform="scale(0.015625)"/>
       <path id="ArialMT-76" d="M 1344 0 
L 81 3319 
L 675 3319 
L 1388 1331 
Q 1503 1009 1600 663 
Q 1675 925 1809 1294 
L 2547 3319 
L 3125 3319 
L 1869 0 
L 1344 0 
z
" transform="scale(0.015625)"/>
      </defs>
      <use xlink:href="#ArialMT-4e"/>
      <use xlink:href="#ArialMT-6f" x="72.216797"/>
      <use xlink:href="#ArialMT-6e" x="127.832031"/>
      <use xlink:href="#ArialMT-2d" x="183.447266"/>
      <use xlink:href="#ArialMT-61" x="216.748047"/>
      <use xlink:href="#ArialMT-64" x="272.363281"/>
      <use xlink:href="#ArialMT-68" x="327.978516"/>
      <use xlink:href="#ArialMT-65" x="383.59375"/>
      <use xlink:href="#ArialMT-73" x="439.208984"/>
      <use xlink:href="#ArialMT-69" x="489.208984"/>
      <use xlink:href="#ArialMT-76" x="511.425781"/>
      <use xlink:href="#ArialMT-65" x="561.425781"/>
     </g>
    </g>
   </g>
  </g>
 </g>
 <defs>
  <clipPath id="pcb713060d0">
   <rect x="45" y="43.2" width="279" height="277.2"/>
  </clipPath>
 </defs>
</svg>
