<?xml version="1.0" encoding="utf-8" standalone="no"?>
<!DOCTYPE svg PUBLIC "-//W3C//DTD SVG 1.1//EN"
  "http://www.w3.org/Graphics/SVG/1.1/DTD/svg11.dtd">
<svg xmlns:xlink="http://www.w3.org/1999/xlink" width="612pt" height="216pt" viewBox="0 0 612 216" xmlns="http://www.w3.org/2000/svg" version="1.1">
 <metadata>
  <rdf:RDF xmlns:dc="http://purl.org/dc/elements/1.1/" xmlns:cc="http://creativecommons.org/ns#" xmlns:rdf="http://www.w3.org/1999/02/22-rdf-syntax-ns#">
   <cc:Work>
    <dc:type rdf:resource="http://purl.org/dc/dcmitype/StillImage"/>
    <dc:date>2023-12-10T10:19:02.716218</dc:date>
    <dc:format>image/svg+xml</dc:format>
    <dc:creator>
     <cc:Agent>
      <dc:title>Matplotlib v3.8.0, https://matplotlib.org/</dc:title>
     </cc:Agent>
    </dc:creator>
   </cc:Work>
  </rdf:RDF>
 </metadata>
 <defs>
  <style type="text/css">*{stroke-linejoin: round; stroke-linecap: butt}</style>
 </defs>
 <g id="figure_1">
  <g id="patch_1">
   <path d="M 0 216 
L 612 216 
L 612 0 
L 0 0 
z
" style="fill: #ffffff"/>
  </g>
  <g id="axes_1">
   <g id="patch_2">
    <path d="M 76.5 192.24 
L 550.8 192.24 
L 550.8 25.92 
L 76.5 25.92 
z
" style="fill: #ffffff"/>
   </g>
   <g id="matplotlib.axis_1">
    <g id="xtick_1">
     <g id="line2d_1">
      <defs>
       <path id="mee4c7b6c40" d="M 0 0 
L 0 6 
" style="stroke: #262626; stroke-width: 1.25"/>
      </defs>
      <g>
       <use xlink:href="#mee4c7b6c40" x="110.378571" y="192.24" style="fill: #262626; stroke: #262626; stroke-width: 1.25"/>
      </g>
     </g>
     <g id="text_1">
      <!-- med10 -->
      <g style="fill: #262626" transform="translate(82.862478 214.624063) scale(0.18 -0.18)">
       <defs>
        <path id="Arial-ItalicMT-6d" d="M 209 0 
L 903 3319 
L 1469 3319 
L 1353 2772 
Q 1669 3125 1917 3259 
Q 2166 3394 2456 3394 
Q 2766 3394 2973 3230 
Q 3181 3066 3247 2772 
Q 3500 3084 3779 3239 
Q 4059 3394 4369 3394 
Q 4784 3394 4992 3197 
Q 5200 3000 5200 2644 
Q 5200 2491 5128 2138 
L 4681 0 
L 4116 0 
L 4572 2194 
Q 4631 2463 4631 2578 
Q 4631 2741 4528 2834 
Q 4425 2928 4238 2928 
Q 3984 2928 3721 2775 
Q 3459 2622 3314 2373 
Q 3169 2125 3059 1609 
L 2722 0 
L 2156 0 
L 2625 2241 
Q 2675 2469 2675 2566 
Q 2675 2728 2573 2828 
Q 2472 2928 2309 2928 
Q 2069 2928 1805 2775 
Q 1541 2622 1375 2348 
Q 1209 2075 1103 1569 
L 775 0 
L 209 0 
z
" transform="scale(0.015625)"/>
        <path id="Arial-ItalicMT-65" d="M 2650 1128 
L 3200 1072 
Q 3081 663 2654 294 
Q 2228 -75 1638 -75 
Q 1269 -75 961 95 
Q 653 266 492 591 
Q 331 916 331 1331 
Q 331 1875 582 2386 
Q 834 2897 1234 3145 
Q 1634 3394 2100 3394 
Q 2694 3394 3048 3025 
Q 3403 2656 3403 2019 
Q 3403 1775 3359 1519 
L 916 1519 
Q 903 1422 903 1344 
Q 903 878 1117 633 
Q 1331 388 1641 388 
Q 1931 388 2212 578 
Q 2494 769 2650 1128 
z
M 1006 1950 
L 2869 1950 
Q 2872 2038 2872 2075 
Q 2872 2500 2659 2726 
Q 2447 2953 2113 2953 
Q 1750 2953 1451 2703 
Q 1153 2453 1006 1950 
z
" transform="scale(0.015625)"/>
        <path id="Arial-ItalicMT-64" d="M 2450 481 
Q 1966 -75 1438 -75 
Q 966 -75 652 273 
Q 338 622 338 1284 
Q 338 1891 586 2392 
Q 834 2894 1207 3144 
Q 1581 3394 1956 3394 
Q 2575 3394 2891 2797 
L 3266 4581 
L 3828 4581 
L 2872 0 
L 2350 0 
L 2450 481 
z
M 900 1391 
Q 900 1044 969 844 
Q 1038 644 1203 511 
Q 1369 378 1600 378 
Q 1984 378 2297 778 
Q 2716 1309 2716 2091 
Q 2716 2484 2509 2706 
Q 2303 2928 1991 2928 
Q 1788 2928 1620 2837 
Q 1453 2747 1289 2530 
Q 1125 2313 1012 1978 
Q 900 1644 900 1391 
z
" transform="scale(0.015625)"/>
        <path id="Arial-ItalicMT-31" d="M 1541 0 
L 2266 3459 
Q 1797 3091 947 2869 
L 1053 3381 
Q 1475 3550 1886 3822 
Q 2297 4094 2503 4297 
Q 2628 4422 2741 4600 
L 3069 4600 
L 2109 0 
L 1541 0 
z
" transform="scale(0.015625)"/>
        <path id="Arial-ItalicMT-30" d="M 453 1503 
Q 453 2084 626 2684 
Q 800 3284 1012 3643 
Q 1225 4003 1453 4206 
Q 1681 4409 1901 4504 
Q 2122 4600 2391 4600 
Q 2916 4600 3267 4209 
Q 3619 3819 3619 3081 
Q 3619 2322 3375 1578 
Q 3088 697 2575 256 
Q 2181 -78 1678 -78 
Q 1163 -78 808 326 
Q 453 731 453 1503 
z
M 1000 1359 
Q 1000 938 1141 700 
Q 1331 372 1706 372 
Q 2034 372 2303 669 
Q 2691 1088 2886 1895 
Q 3081 2703 3081 3216 
Q 3081 3709 2892 3928 
Q 2703 4147 2394 4147 
Q 2169 4147 1973 4031 
Q 1778 3916 1600 3634 
Q 1347 3238 1159 2447 
Q 1000 1772 1000 1359 
z
" transform="scale(0.015625)"/>
       </defs>
       <use xlink:href="#Arial-ItalicMT-6d"/>
       <use xlink:href="#Arial-ItalicMT-65" x="83.300781"/>
       <use xlink:href="#Arial-ItalicMT-64" x="138.916016"/>
       <use xlink:href="#Arial-ItalicMT-31" x="194.53125"/>
       <use xlink:href="#Arial-ItalicMT-30" x="250.146484"/>
      </g>
     </g>
    </g>
    <g id="xtick_2">
     <g id="line2d_2">
      <g>
       <use xlink:href="#mee4c7b6c40" x="178.135714" y="192.24" style="fill: #262626; stroke: #262626; stroke-width: 1.25"/>
      </g>
     </g>
     <g id="text_2">
      <!-- med13 -->
      <g style="fill: #262626" transform="translate(150.619621 214.624063) scale(0.18 -0.18)">
       <defs>
        <path id="Arial-ItalicMT-33" d="M 350 1200 
L 900 1269 
Q 963 788 1177 580 
Q 1391 372 1738 372 
Q 2156 372 2461 672 
Q 2766 972 2766 1359 
Q 2766 1697 2537 1917 
Q 2309 2138 1925 2138 
Q 1881 2138 1744 2125 
L 1841 2597 
Q 1922 2584 1997 2584 
Q 2481 2584 2742 2820 
Q 3003 3056 3003 3400 
Q 3003 3716 2789 3931 
Q 2575 4147 2266 4147 
Q 1963 4147 1720 3926 
Q 1478 3706 1409 3303 
L 853 3416 
Q 991 3981 1381 4290 
Q 1772 4600 2306 4600 
Q 2869 4600 3217 4259 
Q 3566 3919 3566 3422 
Q 3566 3059 3377 2789 
Q 3188 2519 2809 2341 
Q 3078 2181 3211 1956 
Q 3344 1731 3344 1441 
Q 3344 825 2883 373 
Q 2422 -78 1781 -78 
Q 1159 -78 776 270 
Q 394 619 350 1200 
z
" transform="scale(0.015625)"/>
       </defs>
       <use xlink:href="#Arial-ItalicMT-6d"/>
       <use xlink:href="#Arial-ItalicMT-65" x="83.300781"/>
       <use xlink:href="#Arial-ItalicMT-64" x="138.916016"/>
       <use xlink:href="#Arial-ItalicMT-31" x="194.53125"/>
       <use xlink:href="#Arial-ItalicMT-33" x="250.146484"/>
      </g>
     </g>
    </g>
    <g id="xtick_3">
     <g id="line2d_3">
      <g>
       <use xlink:href="#mee4c7b6c40" x="245.892857" y="192.24" style="fill: #262626; stroke: #262626; stroke-width: 1.25"/>
      </g>
     </g>
     <g id="text_3">
      <!-- med18 -->
      <g style="fill: #262626" transform="translate(218.376763 214.624063) scale(0.18 -0.18)">
       <defs>
        <path id="Arial-ItalicMT-38" d="M 1444 2519 
Q 1188 2659 1059 2879 
Q 931 3100 931 3353 
Q 931 3769 1231 4122 
Q 1631 4600 2316 4600 
Q 2919 4600 3266 4276 
Q 3613 3953 3613 3484 
Q 3613 3150 3425 2881 
Q 3238 2613 2838 2453 
Q 3113 2281 3231 2088 
Q 3384 1834 3384 1497 
Q 3384 881 2948 400 
Q 2513 -81 1788 -81 
Q 1209 -81 843 275 
Q 478 631 478 1166 
Q 478 1669 737 2030 
Q 997 2391 1444 2519 
z
M 1488 3328 
Q 1488 3034 1677 2854 
Q 1866 2675 2197 2675 
Q 2584 2675 2826 2911 
Q 3069 3147 3069 3491 
Q 3069 3781 2880 3964 
Q 2691 4147 2359 4147 
Q 2109 4147 1900 4031 
Q 1691 3916 1589 3717 
Q 1488 3519 1488 3328 
z
M 1047 1119 
Q 1047 928 1139 753 
Q 1231 578 1418 475 
Q 1606 372 1847 372 
Q 2306 372 2591 803 
Q 2816 1141 2816 1531 
Q 2816 1850 2608 2053 
Q 2400 2256 2063 2256 
Q 1638 2256 1342 1940 
Q 1047 1625 1047 1119 
z
" transform="scale(0.015625)"/>
       </defs>
       <use xlink:href="#Arial-ItalicMT-6d"/>
       <use xlink:href="#Arial-ItalicMT-65" x="83.300781"/>
       <use xlink:href="#Arial-ItalicMT-64" x="138.916016"/>
       <use xlink:href="#Arial-ItalicMT-31" x="194.53125"/>
       <use xlink:href="#Arial-ItalicMT-38" x="250.146484"/>
      </g>
     </g>
    </g>
    <g id="xtick_4">
     <g id="line2d_4">
      <g>
       <use xlink:href="#mee4c7b6c40" x="313.65" y="192.24" style="fill: #262626; stroke: #262626; stroke-width: 1.25"/>
      </g>
     </g>
     <g id="text_4">
      <!-- med19 -->
      <g style="fill: #262626" transform="translate(286.133906 214.624063) scale(0.18 -0.18)">
       <defs>
        <path id="Arial-ItalicMT-39" d="M 431 1050 
L 963 1103 
Q 1016 719 1181 556 
Q 1347 394 1575 394 
Q 1900 394 2178 675 
Q 2588 1088 2781 1859 
Q 2497 1647 2276 1556 
Q 2056 1466 1825 1466 
Q 1406 1466 1075 1747 
Q 638 2113 638 2797 
Q 638 3572 1144 4125 
Q 1578 4600 2209 4600 
Q 2778 4600 3153 4179 
Q 3528 3759 3528 2991 
Q 3528 2244 3278 1516 
Q 2981 659 2475 253 
Q 2063 -78 1547 -78 
Q 1072 -78 770 217 
Q 469 513 431 1050 
z
M 1184 2863 
Q 1184 2431 1414 2175 
Q 1644 1919 1959 1919 
Q 2194 1919 2425 2078 
Q 2656 2238 2822 2555 
Q 2988 2872 2988 3206 
Q 2988 3469 2878 3694 
Q 2769 3919 2580 4033 
Q 2391 4147 2197 4147 
Q 2009 4147 1828 4047 
Q 1647 3947 1492 3753 
Q 1338 3559 1261 3307 
Q 1184 3056 1184 2863 
z
" transform="scale(0.015625)"/>
       </defs>
       <use xlink:href="#Arial-ItalicMT-6d"/>
       <use xlink:href="#Arial-ItalicMT-65" x="83.300781"/>
       <use xlink:href="#Arial-ItalicMT-64" x="138.916016"/>
       <use xlink:href="#Arial-ItalicMT-31" x="194.53125"/>
       <use xlink:href="#Arial-ItalicMT-39" x="250.146484"/>
      </g>
     </g>
    </g>
    <g id="xtick_5">
     <g id="line2d_5">
      <g>
       <use xlink:href="#mee4c7b6c40" x="381.407143" y="192.24" style="fill: #262626; stroke: #262626; stroke-width: 1.25"/>
      </g>
     </g>
     <g id="text_5">
      <!-- med27 -->
      <g style="fill: #262626" transform="translate(353.891049 214.624063) scale(0.18 -0.18)">
       <defs>
        <path id="Arial-ItalicMT-32" d="M 375 0 
Q 463 409 617 686 
Q 772 963 1028 1211 
Q 1284 1459 2016 2044 
Q 2459 2397 2622 2566 
Q 2856 2809 2963 3044 
Q 3034 3203 3034 3391 
Q 3034 3706 2811 3926 
Q 2588 4147 2263 4147 
Q 1941 4147 1700 3923 
Q 1459 3700 1356 3206 
L 803 3288 
Q 884 3897 1276 4248 
Q 1669 4600 2253 4600 
Q 2644 4600 2961 4437 
Q 3278 4275 3437 3981 
Q 3597 3688 3597 3375 
Q 3597 2919 3272 2497 
Q 3072 2234 2097 1463 
Q 1678 1131 1473 918 
Q 1269 706 1166 519 
L 3216 519 
L 3106 0 
L 375 0 
z
" transform="scale(0.015625)"/>
        <path id="Arial-ItalicMT-37" d="M 928 0 
Q 1003 463 1247 1113 
Q 1538 1897 2009 2670 
Q 2481 3444 3059 4000 
L 775 4000 
L 884 4519 
L 3809 4519 
L 3703 4000 
Q 2959 3347 2403 2316 
Q 1756 1125 1519 0 
L 928 0 
z
" transform="scale(0.015625)"/>
       </defs>
       <use xlink:href="#Arial-ItalicMT-6d"/>
       <use xlink:href="#Arial-ItalicMT-65" x="83.300781"/>
       <use xlink:href="#Arial-ItalicMT-64" x="138.916016"/>
       <use xlink:href="#Arial-ItalicMT-32" x="194.53125"/>
       <use xlink:href="#Arial-ItalicMT-37" x="250.146484"/>
      </g>
     </g>
    </g>
    <g id="xtick_6">
     <g id="line2d_6">
      <g>
       <use xlink:href="#mee4c7b6c40" x="449.164286" y="192.24" style="fill: #262626; stroke: #262626; stroke-width: 1.25"/>
      </g>
     </g>
     <g id="text_6">
      <!-- srb10 -->
      <g style="fill: #262626" transform="translate(426.653036 214.624063) scale(0.18 -0.18)">
       <defs>
        <path id="Arial-ItalicMT-73" d="M 266 1134 
L 831 1169 
Q 831 925 906 753 
Q 981 581 1182 472 
Q 1384 363 1653 363 
Q 2028 363 2215 513 
Q 2403 663 2403 866 
Q 2403 1013 2291 1144 
Q 2175 1275 1726 1467 
Q 1278 1659 1153 1738 
Q 944 1866 837 2039 
Q 731 2213 731 2438 
Q 731 2831 1043 3112 
Q 1356 3394 1919 3394 
Q 2544 3394 2870 3105 
Q 3197 2816 3209 2344 
L 2656 2306 
Q 2644 2606 2444 2781 
Q 2244 2956 1878 2956 
Q 1584 2956 1421 2822 
Q 1259 2688 1259 2531 
Q 1259 2375 1400 2256 
Q 1494 2175 1884 2006 
Q 2534 1725 2703 1563 
Q 2972 1303 2972 931 
Q 2972 684 2820 446 
Q 2669 209 2358 67 
Q 2047 -75 1625 -75 
Q 1050 -75 647 209 
Q 244 494 266 1134 
z
" transform="scale(0.015625)"/>
        <path id="Arial-ItalicMT-72" d="M 213 0 
L 906 3319 
L 1406 3319 
L 1266 2641 
Q 1522 3025 1767 3209 
Q 2013 3394 2269 3394 
Q 2438 3394 2684 3272 
L 2453 2747 
Q 2306 2853 2131 2853 
Q 1834 2853 1521 2522 
Q 1209 2191 1031 1331 
L 750 0 
L 213 0 
z
" transform="scale(0.015625)"/>
        <path id="Arial-ItalicMT-62" d="M 213 0 
L 1169 4581 
L 1734 4581 
L 1394 2944 
Q 1663 3191 1881 3292 
Q 2100 3394 2338 3394 
Q 2803 3394 3114 3047 
Q 3425 2700 3425 2038 
Q 3425 1597 3300 1231 
Q 3175 866 2990 617 
Q 2806 369 2609 220 
Q 2413 72 2206 -1 
Q 2000 -75 1809 -75 
Q 1481 -75 1231 98 
Q 981 272 841 628 
L 709 0 
L 213 0 
z
M 1050 1363 
L 1047 1256 
Q 1047 831 1250 609 
Q 1453 388 1756 388 
Q 2053 388 2301 595 
Q 2550 803 2709 1243 
Q 2869 1684 2869 2056 
Q 2869 2475 2667 2706 
Q 2466 2938 2169 2938 
Q 1863 2938 1606 2702 
Q 1350 2466 1178 1975 
Q 1050 1609 1050 1363 
z
" transform="scale(0.015625)"/>
       </defs>
       <use xlink:href="#Arial-ItalicMT-73"/>
       <use xlink:href="#Arial-ItalicMT-72" x="50"/>
       <use xlink:href="#Arial-ItalicMT-62" x="83.300781"/>
       <use xlink:href="#Arial-ItalicMT-31" x="138.916016"/>
       <use xlink:href="#Arial-ItalicMT-30" x="194.53125"/>
      </g>
     </g>
    </g>
    <g id="xtick_7">
     <g id="line2d_7">
      <g>
       <use xlink:href="#mee4c7b6c40" x="516.921429" y="192.24" style="fill: #262626; stroke: #262626; stroke-width: 1.25"/>
      </g>
     </g>
     <g id="text_7">
      <!-- srb11 -->
      <g style="fill: #262626" transform="translate(495.073929 214.624063) scale(0.18 -0.18)">
       <use xlink:href="#Arial-ItalicMT-73"/>
       <use xlink:href="#Arial-ItalicMT-72" x="50"/>
       <use xlink:href="#Arial-ItalicMT-62" x="83.300781"/>
       <use xlink:href="#Arial-ItalicMT-31" x="138.916016"/>
       <use xlink:href="#Arial-ItalicMT-31" x="187.15625"/>
      </g>
     </g>
    </g>
   </g>
   <g id="matplotlib.axis_2">
    <g id="ytick_1">
     <g id="line2d_8">
      <defs>
       <path id="m9a87093899" d="M 0 0 
L -6 0 
" style="stroke: #262626; stroke-width: 1.25"/>
      </defs>
      <g>
       <use xlink:href="#m9a87093899" x="76.5" y="191.900872" style="fill: #262626; stroke: #262626; stroke-width: 1.25"/>
      </g>
     </g>
     <g id="text_8">
      <!-- 0.0 -->
      <g style="fill: #262626" transform="translate(46.15 197.269231) scale(0.15 -0.15)">
       <defs>
        <path id="ArialMT-30" d="M 266 2259 
Q 266 3072 433 3567 
Q 600 4063 929 4331 
Q 1259 4600 1759 4600 
Q 2128 4600 2406 4451 
Q 2684 4303 2865 4023 
Q 3047 3744 3150 3342 
Q 3253 2941 3253 2259 
Q 3253 1453 3087 958 
Q 2922 463 2592 192 
Q 2263 -78 1759 -78 
Q 1097 -78 719 397 
Q 266 969 266 2259 
z
M 844 2259 
Q 844 1131 1108 757 
Q 1372 384 1759 384 
Q 2147 384 2411 759 
Q 2675 1134 2675 2259 
Q 2675 3391 2411 3762 
Q 2147 4134 1753 4134 
Q 1366 4134 1134 3806 
Q 844 3388 844 2259 
z
" transform="scale(0.015625)"/>
        <path id="ArialMT-2e" d="M 581 0 
L 581 641 
L 1222 641 
L 1222 0 
L 581 0 
z
" transform="scale(0.015625)"/>
       </defs>
       <use xlink:href="#ArialMT-30"/>
       <use xlink:href="#ArialMT-2e" x="55.615234"/>
       <use xlink:href="#ArialMT-30" x="83.398438"/>
      </g>
     </g>
    </g>
    <g id="ytick_2">
     <g id="line2d_9">
      <g>
       <use xlink:href="#m9a87093899" x="76.5" y="158.704697" style="fill: #262626; stroke: #262626; stroke-width: 1.25"/>
      </g>
     </g>
     <g id="text_9">
      <!-- 0.2 -->
      <g style="fill: #262626" transform="translate(46.15 164.073057) scale(0.15 -0.15)">
       <defs>
        <path id="ArialMT-32" d="M 3222 541 
L 3222 0 
L 194 0 
Q 188 203 259 391 
Q 375 700 629 1000 
Q 884 1300 1366 1694 
Q 2113 2306 2375 2664 
Q 2638 3022 2638 3341 
Q 2638 3675 2398 3904 
Q 2159 4134 1775 4134 
Q 1369 4134 1125 3890 
Q 881 3647 878 3216 
L 300 3275 
Q 359 3922 746 4261 
Q 1134 4600 1788 4600 
Q 2447 4600 2831 4234 
Q 3216 3869 3216 3328 
Q 3216 3053 3103 2787 
Q 2991 2522 2730 2228 
Q 2469 1934 1863 1422 
Q 1356 997 1212 845 
Q 1069 694 975 541 
L 3222 541 
z
" transform="scale(0.015625)"/>
       </defs>
       <use xlink:href="#ArialMT-30"/>
       <use xlink:href="#ArialMT-2e" x="55.615234"/>
       <use xlink:href="#ArialMT-32" x="83.398438"/>
      </g>
     </g>
    </g>
    <g id="ytick_3">
     <g id="line2d_10">
      <g>
       <use xlink:href="#m9a87093899" x="76.5" y="125.508523" style="fill: #262626; stroke: #262626; stroke-width: 1.25"/>
      </g>
     </g>
     <g id="text_10">
      <!-- 0.4 -->
      <g style="fill: #262626" transform="translate(46.15 130.876882) scale(0.15 -0.15)">
       <defs>
        <path id="ArialMT-34" d="M 2069 0 
L 2069 1097 
L 81 1097 
L 81 1613 
L 2172 4581 
L 2631 4581 
L 2631 1613 
L 3250 1613 
L 3250 1097 
L 2631 1097 
L 2631 0 
L 2069 0 
z
M 2069 1613 
L 2069 3678 
L 634 1613 
L 2069 1613 
z
" transform="scale(0.015625)"/>
       </defs>
       <use xlink:href="#ArialMT-30"/>
       <use xlink:href="#ArialMT-2e" x="55.615234"/>
       <use xlink:href="#ArialMT-34" x="83.398438"/>
      </g>
     </g>
    </g>
    <g id="ytick_4">
     <g id="line2d_11">
      <g>
       <use xlink:href="#m9a87093899" x="76.5" y="92.312349" style="fill: #262626; stroke: #262626; stroke-width: 1.25"/>
      </g>
     </g>
     <g id="text_11">
      <!-- 0.6 -->
      <g style="fill: #262626" transform="translate(46.15 97.680708) scale(0.15 -0.15)">
       <defs>
        <path id="ArialMT-36" d="M 3184 3459 
L 2625 3416 
Q 2550 3747 2413 3897 
Q 2184 4138 1850 4138 
Q 1581 4138 1378 3988 
Q 1113 3794 959 3422 
Q 806 3050 800 2363 
Q 1003 2672 1297 2822 
Q 1591 2972 1913 2972 
Q 2475 2972 2870 2558 
Q 3266 2144 3266 1488 
Q 3266 1056 3080 686 
Q 2894 316 2569 119 
Q 2244 -78 1831 -78 
Q 1128 -78 684 439 
Q 241 956 241 2144 
Q 241 3472 731 4075 
Q 1159 4600 1884 4600 
Q 2425 4600 2770 4297 
Q 3116 3994 3184 3459 
z
M 888 1484 
Q 888 1194 1011 928 
Q 1134 663 1356 523 
Q 1578 384 1822 384 
Q 2178 384 2434 671 
Q 2691 959 2691 1453 
Q 2691 1928 2437 2201 
Q 2184 2475 1800 2475 
Q 1419 2475 1153 2201 
Q 888 1928 888 1484 
z
" transform="scale(0.015625)"/>
       </defs>
       <use xlink:href="#ArialMT-30"/>
       <use xlink:href="#ArialMT-2e" x="55.615234"/>
       <use xlink:href="#ArialMT-36" x="83.398438"/>
      </g>
     </g>
    </g>
    <g id="ytick_5">
     <g id="line2d_12">
      <g>
       <use xlink:href="#m9a87093899" x="76.5" y="59.116174" style="fill: #262626; stroke: #262626; stroke-width: 1.25"/>
      </g>
     </g>
     <g id="text_12">
      <!-- 0.8 -->
      <g style="fill: #262626" transform="translate(46.15 64.484534) scale(0.15 -0.15)">
       <defs>
        <path id="ArialMT-38" d="M 1131 2484 
Q 781 2613 612 2850 
Q 444 3088 444 3419 
Q 444 3919 803 4259 
Q 1163 4600 1759 4600 
Q 2359 4600 2725 4251 
Q 3091 3903 3091 3403 
Q 3091 3084 2923 2848 
Q 2756 2613 2416 2484 
Q 2838 2347 3058 2040 
Q 3278 1734 3278 1309 
Q 3278 722 2862 322 
Q 2447 -78 1769 -78 
Q 1091 -78 675 323 
Q 259 725 259 1325 
Q 259 1772 486 2073 
Q 713 2375 1131 2484 
z
M 1019 3438 
Q 1019 3113 1228 2906 
Q 1438 2700 1772 2700 
Q 2097 2700 2305 2904 
Q 2513 3109 2513 3406 
Q 2513 3716 2298 3927 
Q 2084 4138 1766 4138 
Q 1444 4138 1231 3931 
Q 1019 3725 1019 3438 
z
M 838 1322 
Q 838 1081 952 856 
Q 1066 631 1291 507 
Q 1516 384 1775 384 
Q 2178 384 2440 643 
Q 2703 903 2703 1303 
Q 2703 1709 2433 1975 
Q 2163 2241 1756 2241 
Q 1359 2241 1098 1978 
Q 838 1716 838 1322 
z
" transform="scale(0.015625)"/>
       </defs>
       <use xlink:href="#ArialMT-30"/>
       <use xlink:href="#ArialMT-2e" x="55.615234"/>
       <use xlink:href="#ArialMT-38" x="83.398438"/>
      </g>
     </g>
    </g>
    <g id="ytick_6">
     <g id="line2d_13">
      <g>
       <use xlink:href="#m9a87093899" x="76.5" y="25.92" style="fill: #262626; stroke: #262626; stroke-width: 1.25"/>
      </g>
     </g>
     <g id="text_13">
      <!-- 1.0 -->
      <g style="fill: #262626" transform="translate(46.15 31.288359) scale(0.15 -0.15)">
       <defs>
        <path id="ArialMT-31" d="M 2384 0 
L 1822 0 
L 1822 3584 
Q 1619 3391 1289 3197 
Q 959 3003 697 2906 
L 697 3450 
Q 1169 3672 1522 3987 
Q 1875 4303 2022 4600 
L 2384 4600 
L 2384 0 
z
" transform="scale(0.015625)"/>
       </defs>
       <use xlink:href="#ArialMT-31"/>
       <use xlink:href="#ArialMT-2e" x="55.615234"/>
       <use xlink:href="#ArialMT-30" x="83.398438"/>
      </g>
     </g>
    </g>
    <g id="text_14">
     <!-- Adhesion ratio -->
     <g style="fill: #262626" transform="translate(38.5725 166.613906) rotate(-90) scale(0.18 -0.18)">
      <defs>
       <path id="ArialMT-41" d="M -9 0 
L 1750 4581 
L 2403 4581 
L 4278 0 
L 3588 0 
L 3053 1388 
L 1138 1388 
L 634 0 
L -9 0 
z
M 1313 1881 
L 2866 1881 
L 2388 3150 
Q 2169 3728 2063 4100 
Q 1975 3659 1816 3225 
L 1313 1881 
z
" transform="scale(0.015625)"/>
       <path id="ArialMT-64" d="M 2575 0 
L 2575 419 
Q 2259 -75 1647 -75 
Q 1250 -75 917 144 
Q 584 363 401 755 
Q 219 1147 219 1656 
Q 219 2153 384 2558 
Q 550 2963 881 3178 
Q 1213 3394 1622 3394 
Q 1922 3394 2156 3267 
Q 2391 3141 2538 2938 
L 2538 4581 
L 3097 4581 
L 3097 0 
L 2575 0 
z
M 797 1656 
Q 797 1019 1065 703 
Q 1334 388 1700 388 
Q 2069 388 2326 689 
Q 2584 991 2584 1609 
Q 2584 2291 2321 2609 
Q 2059 2928 1675 2928 
Q 1300 2928 1048 2622 
Q 797 2316 797 1656 
z
" transform="scale(0.015625)"/>
       <path id="ArialMT-68" d="M 422 0 
L 422 4581 
L 984 4581 
L 984 2938 
Q 1378 3394 1978 3394 
Q 2347 3394 2619 3248 
Q 2891 3103 3008 2847 
Q 3125 2591 3125 2103 
L 3125 0 
L 2563 0 
L 2563 2103 
Q 2563 2525 2380 2717 
Q 2197 2909 1863 2909 
Q 1613 2909 1392 2779 
Q 1172 2650 1078 2428 
Q 984 2206 984 1816 
L 984 0 
L 422 0 
z
" transform="scale(0.015625)"/>
       <path id="ArialMT-65" d="M 2694 1069 
L 3275 997 
Q 3138 488 2766 206 
Q 2394 -75 1816 -75 
Q 1088 -75 661 373 
Q 234 822 234 1631 
Q 234 2469 665 2931 
Q 1097 3394 1784 3394 
Q 2450 3394 2872 2941 
Q 3294 2488 3294 1666 
Q 3294 1616 3291 1516 
L 816 1516 
Q 847 969 1125 678 
Q 1403 388 1819 388 
Q 2128 388 2347 550 
Q 2566 713 2694 1069 
z
M 847 1978 
L 2700 1978 
Q 2663 2397 2488 2606 
Q 2219 2931 1791 2931 
Q 1403 2931 1139 2672 
Q 875 2413 847 1978 
z
" transform="scale(0.015625)"/>
       <path id="ArialMT-73" d="M 197 991 
L 753 1078 
Q 800 744 1014 566 
Q 1228 388 1613 388 
Q 2000 388 2187 545 
Q 2375 703 2375 916 
Q 2375 1106 2209 1216 
Q 2094 1291 1634 1406 
Q 1016 1563 777 1677 
Q 538 1791 414 1992 
Q 291 2194 291 2438 
Q 291 2659 392 2848 
Q 494 3038 669 3163 
Q 800 3259 1026 3326 
Q 1253 3394 1513 3394 
Q 1903 3394 2198 3281 
Q 2494 3169 2634 2976 
Q 2775 2784 2828 2463 
L 2278 2388 
Q 2241 2644 2061 2787 
Q 1881 2931 1553 2931 
Q 1166 2931 1000 2803 
Q 834 2675 834 2503 
Q 834 2394 903 2306 
Q 972 2216 1119 2156 
Q 1203 2125 1616 2013 
Q 2213 1853 2448 1751 
Q 2684 1650 2818 1456 
Q 2953 1263 2953 975 
Q 2953 694 2789 445 
Q 2625 197 2315 61 
Q 2006 -75 1616 -75 
Q 969 -75 630 194 
Q 291 463 197 991 
z
" transform="scale(0.015625)"/>
       <path id="ArialMT-69" d="M 425 3934 
L 425 4581 
L 988 4581 
L 988 3934 
L 425 3934 
z
M 425 0 
L 425 3319 
L 988 3319 
L 988 0 
L 425 0 
z
" transform="scale(0.015625)"/>
       <path id="ArialMT-6f" d="M 213 1659 
Q 213 2581 725 3025 
Q 1153 3394 1769 3394 
Q 2453 3394 2887 2945 
Q 3322 2497 3322 1706 
Q 3322 1066 3130 698 
Q 2938 331 2570 128 
Q 2203 -75 1769 -75 
Q 1072 -75 642 372 
Q 213 819 213 1659 
z
M 791 1659 
Q 791 1022 1069 705 
Q 1347 388 1769 388 
Q 2188 388 2466 706 
Q 2744 1025 2744 1678 
Q 2744 2294 2464 2611 
Q 2184 2928 1769 2928 
Q 1347 2928 1069 2612 
Q 791 2297 791 1659 
z
" transform="scale(0.015625)"/>
       <path id="ArialMT-6e" d="M 422 0 
L 422 3319 
L 928 3319 
L 928 2847 
Q 1294 3394 1984 3394 
Q 2284 3394 2536 3286 
Q 2788 3178 2913 3003 
Q 3038 2828 3088 2588 
Q 3119 2431 3119 2041 
L 3119 0 
L 2556 0 
L 2556 2019 
Q 2556 2363 2490 2533 
Q 2425 2703 2258 2804 
Q 2091 2906 1866 2906 
Q 1506 2906 1245 2678 
Q 984 2450 984 1813 
L 984 0 
L 422 0 
z
" transform="scale(0.015625)"/>
       <path id="ArialMT-20" transform="scale(0.015625)"/>
       <path id="ArialMT-72" d="M 416 0 
L 416 3319 
L 922 3319 
L 922 2816 
Q 1116 3169 1280 3281 
Q 1444 3394 1641 3394 
Q 1925 3394 2219 3213 
L 2025 2691 
Q 1819 2813 1613 2813 
Q 1428 2813 1281 2702 
Q 1134 2591 1072 2394 
Q 978 2094 978 1738 
L 978 0 
L 416 0 
z
" transform="scale(0.015625)"/>
       <path id="ArialMT-61" d="M 2588 409 
Q 2275 144 1986 34 
Q 1697 -75 1366 -75 
Q 819 -75 525 192 
Q 231 459 231 875 
Q 231 1119 342 1320 
Q 453 1522 633 1644 
Q 813 1766 1038 1828 
Q 1203 1872 1538 1913 
Q 2219 1994 2541 2106 
Q 2544 2222 2544 2253 
Q 2544 2597 2384 2738 
Q 2169 2928 1744 2928 
Q 1347 2928 1158 2789 
Q 969 2650 878 2297 
L 328 2372 
Q 403 2725 575 2942 
Q 747 3159 1072 3276 
Q 1397 3394 1825 3394 
Q 2250 3394 2515 3294 
Q 2781 3194 2906 3042 
Q 3031 2891 3081 2659 
Q 3109 2516 3109 2141 
L 3109 1391 
Q 3109 606 3145 398 
Q 3181 191 3288 0 
L 2700 0 
Q 2613 175 2588 409 
z
M 2541 1666 
Q 2234 1541 1622 1453 
Q 1275 1403 1131 1340 
Q 988 1278 909 1158 
Q 831 1038 831 891 
Q 831 666 1001 516 
Q 1172 366 1500 366 
Q 1825 366 2078 508 
Q 2331 650 2450 897 
Q 2541 1088 2541 1459 
L 2541 1666 
z
" transform="scale(0.015625)"/>
       <path id="ArialMT-74" d="M 1650 503 
L 1731 6 
Q 1494 -44 1306 -44 
Q 1000 -44 831 53 
Q 663 150 594 308 
Q 525 466 525 972 
L 525 2881 
L 113 2881 
L 113 3319 
L 525 3319 
L 525 4141 
L 1084 4478 
L 1084 3319 
L 1650 3319 
L 1650 2881 
L 1084 2881 
L 1084 941 
Q 1084 700 1114 631 
Q 1144 563 1211 522 
Q 1278 481 1403 481 
Q 1497 481 1650 503 
z
" transform="scale(0.015625)"/>
      </defs>
      <use xlink:href="#ArialMT-41"/>
      <use xlink:href="#ArialMT-64" x="66.699219"/>
      <use xlink:href="#ArialMT-68" x="122.314453"/>
      <use xlink:href="#ArialMT-65" x="177.929688"/>
      <use xlink:href="#ArialMT-73" x="233.544922"/>
      <use xlink:href="#ArialMT-69" x="283.544922"/>
      <use xlink:href="#ArialMT-6f" x="305.761719"/>
      <use xlink:href="#ArialMT-6e" x="361.376953"/>
      <use xlink:href="#ArialMT-20" x="416.992188"/>
      <use xlink:href="#ArialMT-72" x="444.775391"/>
      <use xlink:href="#ArialMT-61" x="478.076172"/>
      <use xlink:href="#ArialMT-74" x="533.691406"/>
      <use xlink:href="#ArialMT-69" x="561.474609"/>
      <use xlink:href="#ArialMT-6f" x="583.691406"/>
     </g>
    </g>
   </g>
   <g id="patch_3">
    <path d="M 83.275714 188.136669 
L 137.481429 188.136669 
L 137.481429 182.972604 
L 83.275714 182.972604 
L 83.275714 188.136669 
z
" clip-path="url(#p30fc574c67)" style="fill: #7f7f7f; opacity: 0.6; stroke: #3d3d3d; stroke-width: 2; stroke-linejoin: miter"/>
   </g>
   <g id="line2d_14">
    <path d="M 110.378571 188.136669 
L 110.378571 188.333284 
" clip-path="url(#p30fc574c67)" style="fill: none; stroke: #3d3d3d; stroke-width: 2"/>
   </g>
   <g id="line2d_15">
    <path d="M 110.378571 182.972604 
L 110.378571 175.571083 
" clip-path="url(#p30fc574c67)" style="fill: none; stroke: #3d3d3d; stroke-width: 2"/>
   </g>
   <g id="line2d_16">
    <path d="M 96.827143 188.333284 
L 123.93 188.333284 
" clip-path="url(#p30fc574c67)" style="fill: none; stroke: #3d3d3d; stroke-width: 2; stroke-linecap: round"/>
   </g>
   <g id="line2d_17">
    <path d="M 96.827143 175.571083 
L 123.93 175.571083 
" clip-path="url(#p30fc574c67)" style="fill: none; stroke: #3d3d3d; stroke-width: 2; stroke-linecap: round"/>
   </g>
   <g id="patch_4">
    <path d="M 151.032857 188.046983 
L 205.238571 188.046983 
L 205.238571 183.551853 
L 151.032857 183.551853 
L 151.032857 188.046983 
z
" clip-path="url(#p30fc574c67)" style="fill: #a9aa35; opacity: 0.6; stroke: #3d3d3d; stroke-width: 2; stroke-linejoin: miter"/>
   </g>
   <g id="line2d_18">
    <path d="M 178.135714 188.046983 
L 178.135714 191.048327 
" clip-path="url(#p30fc574c67)" style="fill: none; stroke: #3d3d3d; stroke-width: 2"/>
   </g>
   <g id="line2d_19">
    <path d="M 178.135714 183.551853 
L 178.135714 181.600746 
" clip-path="url(#p30fc574c67)" style="fill: none; stroke: #3d3d3d; stroke-width: 2"/>
   </g>
   <g id="line2d_20">
    <path d="M 164.584286 191.048327 
L 191.687143 191.048327 
" clip-path="url(#p30fc574c67)" style="fill: none; stroke: #3d3d3d; stroke-width: 2; stroke-linecap: round"/>
   </g>
   <g id="line2d_21">
    <path d="M 164.584286 181.600746 
L 191.687143 181.600746 
" clip-path="url(#p30fc574c67)" style="fill: none; stroke: #3d3d3d; stroke-width: 2; stroke-linecap: round"/>
   </g>
   <g id="patch_5">
    <path d="M 218.79 189.447622 
L 272.995714 189.447622 
L 272.995714 186.859275 
L 218.79 186.859275 
L 218.79 189.447622 
z
" clip-path="url(#p30fc574c67)" style="fill: #e1812c; opacity: 0.6; stroke: #3d3d3d; stroke-width: 2; stroke-linejoin: miter"/>
   </g>
   <g id="line2d_22">
    <path d="M 245.892857 189.447622 
L 245.892857 190.165769 
" clip-path="url(#p30fc574c67)" style="fill: none; stroke: #3d3d3d; stroke-width: 2"/>
   </g>
   <g id="line2d_23">
    <path d="M 245.892857 186.859275 
L 245.892857 185.108141 
" clip-path="url(#p30fc574c67)" style="fill: none; stroke: #3d3d3d; stroke-width: 2"/>
   </g>
   <g id="line2d_24">
    <path d="M 232.341429 190.165769 
L 259.444286 190.165769 
" clip-path="url(#p30fc574c67)" style="fill: none; stroke: #3d3d3d; stroke-width: 2; stroke-linecap: round"/>
   </g>
   <g id="line2d_25">
    <path d="M 232.341429 185.108141 
L 259.444286 185.108141 
" clip-path="url(#p30fc574c67)" style="fill: none; stroke: #3d3d3d; stroke-width: 2; stroke-linecap: round"/>
   </g>
   <g id="patch_6">
    <path d="M 286.547143 189.245857 
L 340.752857 189.245857 
L 340.752857 185.124617 
L 286.547143 185.124617 
L 286.547143 189.245857 
z
" clip-path="url(#p30fc574c67)" style="fill: #3274a1; opacity: 0.6; stroke: #3d3d3d; stroke-width: 2; stroke-linejoin: miter"/>
   </g>
   <g id="line2d_26">
    <path d="M 313.65 189.245857 
L 313.65 190.559988 
" clip-path="url(#p30fc574c67)" style="fill: none; stroke: #3d3d3d; stroke-width: 2"/>
   </g>
   <g id="line2d_27">
    <path d="M 313.65 185.124617 
L 313.65 184.287495 
" clip-path="url(#p30fc574c67)" style="fill: none; stroke: #3d3d3d; stroke-width: 2"/>
   </g>
   <g id="line2d_28">
    <path d="M 300.098571 190.559988 
L 327.201429 190.559988 
" clip-path="url(#p30fc574c67)" style="fill: none; stroke: #3d3d3d; stroke-width: 2; stroke-linecap: round"/>
   </g>
   <g id="line2d_29">
    <path d="M 300.098571 184.287495 
L 327.201429 184.287495 
" clip-path="url(#p30fc574c67)" style="fill: none; stroke: #3d3d3d; stroke-width: 2; stroke-linecap: round"/>
   </g>
   <g id="patch_7">
    <path d="M 354.304286 189.003142 
L 408.51 189.003142 
L 408.51 186.090727 
L 354.304286 186.090727 
L 354.304286 189.003142 
z
" clip-path="url(#p30fc574c67)" style="fill: #3a923a; opacity: 0.6; stroke: #3d3d3d; stroke-width: 2; stroke-linejoin: miter"/>
   </g>
   <g id="line2d_30">
    <path d="M 381.407143 189.003142 
L 381.407143 190.98558 
" clip-path="url(#p30fc574c67)" style="fill: none; stroke: #3d3d3d; stroke-width: 2"/>
   </g>
   <g id="line2d_31">
    <path d="M 381.407143 186.090727 
L 381.407143 186.080488 
" clip-path="url(#p30fc574c67)" style="fill: none; stroke: #3d3d3d; stroke-width: 2"/>
   </g>
   <g id="line2d_32">
    <path d="M 367.855714 190.98558 
L 394.958571 190.98558 
" clip-path="url(#p30fc574c67)" style="fill: none; stroke: #3d3d3d; stroke-width: 2; stroke-linecap: round"/>
   </g>
   <g id="line2d_33">
    <path d="M 367.855714 186.080488 
L 394.958571 186.080488 
" clip-path="url(#p30fc574c67)" style="fill: none; stroke: #3d3d3d; stroke-width: 2; stroke-linecap: round"/>
   </g>
   <g id="patch_8">
    <path d="M 422.061429 181.691943 
L 476.267143 181.691943 
L 476.267143 174.899267 
L 422.061429 174.899267 
L 422.061429 181.691943 
z
" clip-path="url(#p30fc574c67)" style="fill: #c03d3e; opacity: 0.6; stroke: #3d3d3d; stroke-width: 2; stroke-linejoin: miter"/>
   </g>
   <g id="line2d_34">
    <path d="M 449.164286 181.691943 
L 449.164286 185.229762 
" clip-path="url(#p30fc574c67)" style="fill: none; stroke: #3d3d3d; stroke-width: 2"/>
   </g>
   <g id="line2d_35">
    <path d="M 449.164286 174.899267 
L 449.164286 167.214864 
" clip-path="url(#p30fc574c67)" style="fill: none; stroke: #3d3d3d; stroke-width: 2"/>
   </g>
   <g id="line2d_36">
    <path d="M 435.612857 185.229762 
L 462.715714 185.229762 
" clip-path="url(#p30fc574c67)" style="fill: none; stroke: #3d3d3d; stroke-width: 2; stroke-linecap: round"/>
   </g>
   <g id="line2d_37">
    <path d="M 435.612857 167.214864 
L 462.715714 167.214864 
" clip-path="url(#p30fc574c67)" style="fill: none; stroke: #3d3d3d; stroke-width: 2; stroke-linecap: round"/>
   </g>
   <g id="patch_9">
    <path d="M 489.818571 184.36655 
L 544.024286 184.36655 
L 544.024286 179.437088 
L 489.818571 179.437088 
L 489.818571 184.36655 
z
" clip-path="url(#p30fc574c67)" style="fill: #9372b2; opacity: 0.6; stroke: #3d3d3d; stroke-width: 2; stroke-linejoin: miter"/>
   </g>
   <g id="line2d_38">
    <path d="M 516.921429 184.36655 
L 516.921429 188.99152 
" clip-path="url(#p30fc574c67)" style="fill: none; stroke: #3d3d3d; stroke-width: 2"/>
   </g>
   <g id="line2d_39">
    <path d="M 516.921429 179.437088 
L 516.921429 173.500731 
" clip-path="url(#p30fc574c67)" style="fill: none; stroke: #3d3d3d; stroke-width: 2"/>
   </g>
   <g id="line2d_40">
    <path d="M 503.37 188.99152 
L 530.472857 188.99152 
" clip-path="url(#p30fc574c67)" style="fill: none; stroke: #3d3d3d; stroke-width: 2; stroke-linecap: round"/>
   </g>
   <g id="line2d_41">
    <path d="M 503.37 173.500731 
L 530.472857 173.500731 
" clip-path="url(#p30fc574c67)" style="fill: none; stroke: #3d3d3d; stroke-width: 2; stroke-linecap: round"/>
   </g>
   <g id="line2d_42">
    <path d="M 83.275714 186.734235 
L 137.481429 186.734235 
" clip-path="url(#p30fc574c67)" style="fill: none; stroke: #3d3d3d; stroke-width: 2"/>
   </g>
   <g id="line2d_43">
    <path d="M 151.032857 184.342533 
L 205.238571 184.342533 
" clip-path="url(#p30fc574c67)" style="fill: none; stroke: #3d3d3d; stroke-width: 2"/>
   </g>
   <g id="line2d_44">
    <path d="M 218.79 188.484514 
L 272.995714 188.484514 
" clip-path="url(#p30fc574c67)" style="fill: none; stroke: #3d3d3d; stroke-width: 2"/>
   </g>
   <g id="line2d_45">
    <path d="M 286.547143 186.70243 
L 340.752857 186.70243 
" clip-path="url(#p30fc574c67)" style="fill: none; stroke: #3d3d3d; stroke-width: 2"/>
   </g>
   <g id="line2d_46">
    <path d="M 354.304286 187.006577 
L 408.51 187.006577 
" clip-path="url(#p30fc574c67)" style="fill: none; stroke: #3d3d3d; stroke-width: 2"/>
   </g>
   <g id="line2d_47">
    <path d="M 422.061429 177.289496 
L 476.267143 177.289496 
" clip-path="url(#p30fc574c67)" style="fill: none; stroke: #3d3d3d; stroke-width: 2"/>
   </g>
   <g id="line2d_48">
    <path d="M 489.818571 181.759282 
L 544.024286 181.759282 
" clip-path="url(#p30fc574c67)" style="fill: none; stroke: #3d3d3d; stroke-width: 2"/>
   </g>
   <g id="patch_10">
    <path d="M 76.5 192.24 
L 76.5 25.92 
" style="fill: none; stroke: #262626; stroke-width: 1.25; stroke-linejoin: miter; stroke-linecap: square"/>
   </g>
   <g id="patch_11">
    <path d="M 550.8 192.24 
L 550.8 25.92 
" style="fill: none; stroke: #262626; stroke-width: 1.25; stroke-linejoin: miter; stroke-linecap: square"/>
   </g>
   <g id="patch_12">
    <path d="M 76.5 192.24 
L 550.8 192.24 
" style="fill: none; stroke: #262626; stroke-width: 1.25; stroke-linejoin: miter; stroke-linecap: square"/>
   </g>
   <g id="patch_13">
    <path d="M 76.5 25.92 
L 550.8 25.92 
" style="fill: none; stroke: #262626; stroke-width: 1.25; stroke-linejoin: miter; stroke-linecap: square"/>
   </g>
   <g id="PathCollection_1">
    <defs>
     <path id="C0_0_f7035861e9" d="M 0 4 
C 1.060812 4 2.078319 3.578535 2.828427 2.828427 
C 3.578535 2.078319 4 1.060812 4 -0 
C 4 -1.060812 3.578535 -2.078319 2.828427 -2.828427 
C 2.078319 -3.578535 1.060812 -4 0 -4 
C -1.060812 -4 -2.078319 -3.578535 -2.828427 -2.828427 
C -3.578535 -2.078319 -4 -1.060812 -4 0 
C -4 1.060812 -3.578535 2.078319 -2.828427 2.828427 
C -2.078319 3.578535 -1.060812 4 0 4 
z
"/>
    </defs>
    <g clip-path="url(#p30fc574c67)">
     <use xlink:href="#C0_0_f7035861e9" x="116.711077" y="188.333284" style="fill: #7f7f7f; fill-opacity: 0.5; stroke: #000000; stroke-opacity: 0.5; stroke-width: 2"/>
    </g>
    <g clip-path="url(#p30fc574c67)">
     <use xlink:href="#C0_0_f7035861e9" x="121.943045" y="182.021745" style="fill: #7f7f7f; fill-opacity: 0.5; stroke: #000000; stroke-opacity: 0.5; stroke-width: 2"/>
    </g>
    <g clip-path="url(#p30fc574c67)">
     <use xlink:href="#C0_0_f7035861e9" x="123.712102" y="175.571083" style="fill: #7f7f7f; fill-opacity: 0.5; stroke: #000000; stroke-opacity: 0.5; stroke-width: 2"/>
    </g>
    <g clip-path="url(#p30fc574c67)">
     <use xlink:href="#C0_0_f7035861e9" x="94.217287" y="187.643287" style="fill: #7f7f7f; fill-opacity: 0.5; stroke: #000000; stroke-opacity: 0.5; stroke-width: 2"/>
    </g>
    <g clip-path="url(#p30fc574c67)">
     <use xlink:href="#C0_0_f7035861e9" x="113.919504" y="185.825182" style="fill: #7f7f7f; fill-opacity: 0.5; stroke: #000000; stroke-opacity: 0.5; stroke-width: 2"/>
    </g>
    <g clip-path="url(#p30fc574c67)">
     <use xlink:href="#C0_0_f7035861e9" x="123.571774" y="188.301129" style="fill: #7f7f7f; fill-opacity: 0.5; stroke: #000000; stroke-opacity: 0.5; stroke-width: 2"/>
    </g>
   </g>
   <g id="PathCollection_2">
    <defs>
     <path id="C1_0_43de408ca9" d="M 0 4 
C 1.060812 4 2.078319 3.578535 2.828427 2.828427 
C 3.578535 2.078319 4 1.060812 4 -0 
C 4 -1.060812 3.578535 -2.078319 2.828427 -2.828427 
C 2.078319 -3.578535 1.060812 -4 0 -4 
C -1.060812 -4 -2.078319 -3.578535 -2.828427 -2.828427 
C -3.578535 -2.078319 -4 -1.060812 -4 0 
C -4 1.060812 -3.578535 2.078319 -2.828427 2.828427 
C -2.078319 3.578535 -1.060812 4 0 4 
z
"/>
    </defs>
    <g clip-path="url(#p30fc574c67)">
     <use xlink:href="#C1_0_43de408ca9" x="193.934296" y="184.131803" style="fill: #bcbd22; fill-opacity: 0.5; stroke: #000000; stroke-opacity: 0.5; stroke-width: 2"/>
    </g>
    <g clip-path="url(#p30fc574c67)">
     <use xlink:href="#C1_0_43de408ca9" x="168.229058" y="184.553263" style="fill: #bcbd22; fill-opacity: 0.5; stroke: #000000; stroke-opacity: 0.5; stroke-width: 2"/>
    </g>
    <g clip-path="url(#p30fc574c67)">
     <use xlink:href="#C1_0_43de408ca9" x="160.697232" y="186.508569" style="fill: #bcbd22; fill-opacity: 0.5; stroke: #000000; stroke-opacity: 0.5; stroke-width: 2"/>
    </g>
    <g clip-path="url(#p30fc574c67)">
     <use xlink:href="#C1_0_43de408ca9" x="159.071276" y="187.749711" style="fill: #bcbd22; fill-opacity: 0.5; stroke: #000000; stroke-opacity: 0.5; stroke-width: 2"/>
    </g>
    <g clip-path="url(#p30fc574c67)">
     <use xlink:href="#C1_0_43de408ca9" x="158.671759" y="188.938799" style="fill: #bcbd22; fill-opacity: 0.5; stroke: #000000; stroke-opacity: 0.5; stroke-width: 2"/>
    </g>
    <g clip-path="url(#p30fc574c67)">
     <use xlink:href="#C1_0_43de408ca9" x="164.829862" y="183.131368" style="fill: #bcbd22; fill-opacity: 0.5; stroke: #000000; stroke-opacity: 0.5; stroke-width: 2"/>
    </g>
    <g clip-path="url(#p30fc574c67)">
     <use xlink:href="#C1_0_43de408ca9" x="193.308805" y="183.692015" style="fill: #bcbd22; fill-opacity: 0.5; stroke: #000000; stroke-opacity: 0.5; stroke-width: 2"/>
    </g>
    <g clip-path="url(#p30fc574c67)">
     <use xlink:href="#C1_0_43de408ca9" x="173.786707" y="190.610295" style="fill: #bcbd22; fill-opacity: 0.5; stroke: #000000; stroke-opacity: 0.5; stroke-width: 2"/>
    </g>
    <g clip-path="url(#p30fc574c67)">
     <use xlink:href="#C1_0_43de408ca9" x="160.286003" y="191.048327" style="fill: #bcbd22; fill-opacity: 0.5; stroke: #000000; stroke-opacity: 0.5; stroke-width: 2"/>
    </g>
    <g clip-path="url(#p30fc574c67)">
     <use xlink:href="#C1_0_43de408ca9" x="183.820479" y="181.600746" style="fill: #bcbd22; fill-opacity: 0.5; stroke: #000000; stroke-opacity: 0.5; stroke-width: 2"/>
    </g>
    <g clip-path="url(#p30fc574c67)">
     <use xlink:href="#C1_0_43de408ca9" x="166.627811" y="182.979933" style="fill: #bcbd22; fill-opacity: 0.5; stroke: #000000; stroke-opacity: 0.5; stroke-width: 2"/>
    </g>
    <g clip-path="url(#p30fc574c67)">
     <use xlink:href="#C1_0_43de408ca9" x="187.525569" y="183.908507" style="fill: #bcbd22; fill-opacity: 0.5; stroke: #000000; stroke-opacity: 0.5; stroke-width: 2"/>
    </g>
   </g>
   <g id="PathCollection_3">
    <defs>
     <path id="C2_0_83c1dea630" d="M 0 4 
C 1.060812 4 2.078319 3.578535 2.828427 2.828427 
C 3.578535 2.078319 4 1.060812 4 -0 
C 4 -1.060812 3.578535 -2.078319 2.828427 -2.828427 
C 2.078319 -3.578535 1.060812 -4 0 -4 
C -1.060812 -4 -2.078319 -3.578535 -2.828427 -2.828427 
C -3.578535 -2.078319 -4 -1.060812 -4 0 
C -4 1.060812 -3.578535 2.078319 -2.828427 2.828427 
C -2.078319 3.578535 -1.060812 4 0 4 
z
"/>
    </defs>
    <g clip-path="url(#p30fc574c67)">
     <use xlink:href="#C2_0_83c1dea630" x="241.611171" y="187.69811" style="fill: #ff7f0e; fill-opacity: 0.5; stroke: #000000; stroke-opacity: 0.5; stroke-width: 2"/>
    </g>
    <g clip-path="url(#p30fc574c67)">
     <use xlink:href="#C2_0_83c1dea630" x="255.603473" y="189.506523" style="fill: #ff7f0e; fill-opacity: 0.5; stroke: #000000; stroke-opacity: 0.5; stroke-width: 2"/>
    </g>
    <g clip-path="url(#p30fc574c67)">
     <use xlink:href="#C2_0_83c1dea630" x="257.435302" y="186.579663" style="fill: #ff7f0e; fill-opacity: 0.5; stroke: #000000; stroke-opacity: 0.5; stroke-width: 2"/>
    </g>
    <g clip-path="url(#p30fc574c67)">
     <use xlink:href="#C2_0_83c1dea630" x="263.264048" y="185.108141" style="fill: #ff7f0e; fill-opacity: 0.5; stroke: #000000; stroke-opacity: 0.5; stroke-width: 2"/>
    </g>
    <g clip-path="url(#p30fc574c67)">
     <use xlink:href="#C2_0_83c1dea630" x="244.693336" y="190.165769" style="fill: #ff7f0e; fill-opacity: 0.5; stroke: #000000; stroke-opacity: 0.5; stroke-width: 2"/>
    </g>
    <g clip-path="url(#p30fc574c67)">
     <use xlink:href="#C2_0_83c1dea630" x="237.373146" y="189.270918" style="fill: #ff7f0e; fill-opacity: 0.5; stroke: #000000; stroke-opacity: 0.5; stroke-width: 2"/>
    </g>
   </g>
   <g id="PathCollection_4">
    <defs>
     <path id="C3_0_227a415160" d="M 0 4 
C 1.060812 4 2.078319 3.578535 2.828427 2.828427 
C 3.578535 2.078319 4 1.060812 4 -0 
C 4 -1.060812 3.578535 -2.078319 2.828427 -2.828427 
C 2.078319 -3.578535 1.060812 -4 0 -4 
C -1.060812 -4 -2.078319 -3.578535 -2.828427 -2.828427 
C -3.578535 -2.078319 -4 -1.060812 -4 0 
C -4 1.060812 -3.578535 2.078319 -2.828427 2.828427 
C -2.078319 3.578535 -1.060812 4 0 4 
z
"/>
    </defs>
    <g clip-path="url(#p30fc574c67)">
     <use xlink:href="#C3_0_227a415160" x="327.236105" y="184.287495" style="fill: #1f77b4; fill-opacity: 0.5; stroke: #000000; stroke-opacity: 0.5; stroke-width: 2"/>
    </g>
    <g clip-path="url(#p30fc574c67)">
     <use xlink:href="#C3_0_227a415160" x="293.963408" y="186.757628" style="fill: #1f77b4; fill-opacity: 0.5; stroke: #000000; stroke-opacity: 0.5; stroke-width: 2"/>
    </g>
    <g clip-path="url(#p30fc574c67)">
     <use xlink:href="#C3_0_227a415160" x="313.336057" y="184.617079" style="fill: #1f77b4; fill-opacity: 0.5; stroke: #000000; stroke-opacity: 0.5; stroke-width: 2"/>
    </g>
    <g clip-path="url(#p30fc574c67)">
     <use xlink:href="#C3_0_227a415160" x="301.600148" y="190.559988" style="fill: #1f77b4; fill-opacity: 0.5; stroke: #000000; stroke-opacity: 0.5; stroke-width: 2"/>
    </g>
    <g clip-path="url(#p30fc574c67)">
     <use xlink:href="#C3_0_227a415160" x="326.725233" y="186.647232" style="fill: #1f77b4; fill-opacity: 0.5; stroke: #000000; stroke-opacity: 0.5; stroke-width: 2"/>
    </g>
    <g clip-path="url(#p30fc574c67)">
     <use xlink:href="#C3_0_227a415160" x="311.490432" y="190.075266" style="fill: #1f77b4; fill-opacity: 0.5; stroke: #000000; stroke-opacity: 0.5; stroke-width: 2"/>
    </g>
   </g>
   <g id="PathCollection_5">
    <defs>
     <path id="C4_0_e8f51d6aa7" d="M 0 4 
C 1.060812 4 2.078319 3.578535 2.828427 2.828427 
C 3.578535 2.078319 4 1.060812 4 -0 
C 4 -1.060812 3.578535 -2.078319 2.828427 -2.828427 
C 2.078319 -3.578535 1.060812 -4 0 -4 
C -1.060812 -4 -2.078319 -3.578535 -2.828427 -2.828427 
C -3.578535 -2.078319 -4 -1.060812 -4 0 
C -4 1.060812 -3.578535 2.078319 -2.828427 2.828427 
C -2.078319 3.578535 -1.060812 4 0 4 
z
"/>
    </defs>
    <g clip-path="url(#p30fc574c67)">
     <use xlink:href="#C4_0_e8f51d6aa7" x="381.356397" y="186.092097" style="fill: #2ca02c; fill-opacity: 0.5; stroke: #000000; stroke-opacity: 0.5; stroke-width: 2"/>
    </g>
    <g clip-path="url(#p30fc574c67)">
     <use xlink:href="#C4_0_e8f51d6aa7" x="392.746658" y="186.080488" style="fill: #2ca02c; fill-opacity: 0.5; stroke: #000000; stroke-opacity: 0.5; stroke-width: 2"/>
    </g>
    <g clip-path="url(#p30fc574c67)">
     <use xlink:href="#C4_0_e8f51d6aa7" x="381.902896" y="190.98558" style="fill: #2ca02c; fill-opacity: 0.5; stroke: #000000; stroke-opacity: 0.5; stroke-width: 2"/>
    </g>
    <g clip-path="url(#p30fc574c67)">
     <use xlink:href="#C4_0_e8f51d6aa7" x="363.403847" y="186.090271" style="fill: #2ca02c; fill-opacity: 0.5; stroke: #000000; stroke-opacity: 0.5; stroke-width: 2"/>
    </g>
    <g clip-path="url(#p30fc574c67)">
     <use xlink:href="#C4_0_e8f51d6aa7" x="383.404116" y="189.363836" style="fill: #2ca02c; fill-opacity: 0.5; stroke: #000000; stroke-opacity: 0.5; stroke-width: 2"/>
    </g>
    <g clip-path="url(#p30fc574c67)">
     <use xlink:href="#C4_0_e8f51d6aa7" x="365.01264" y="187.921057" style="fill: #2ca02c; fill-opacity: 0.5; stroke: #000000; stroke-opacity: 0.5; stroke-width: 2"/>
    </g>
   </g>
   <g id="PathCollection_6">
    <defs>
     <path id="C5_0_3f6a7d8838" d="M 0 4 
C 1.060812 4 2.078319 3.578535 2.828427 2.828427 
C 3.578535 2.078319 4 1.060812 4 -0 
C 4 -1.060812 3.578535 -2.078319 2.828427 -2.828427 
C 2.078319 -3.578535 1.060812 -4 0 -4 
C -1.060812 -4 -2.078319 -3.578535 -2.828427 -2.828427 
C -3.578535 -2.078319 -4 -1.060812 -4 0 
C -4 1.060812 -3.578535 2.078319 -2.828427 2.828427 
C -2.078319 3.578535 -1.060812 4 0 4 
z
"/>
    </defs>
    <g clip-path="url(#p30fc574c67)">
     <use xlink:href="#C5_0_3f6a7d8838" x="440.558869" y="172.549881" style="fill: #d62728; fill-opacity: 0.5; stroke: #000000; stroke-opacity: 0.5; stroke-width: 2"/>
    </g>
    <g clip-path="url(#p30fc574c67)">
     <use xlink:href="#C5_0_3f6a7d8838" x="462.956993" y="167.214864" style="fill: #d62728; fill-opacity: 0.5; stroke: #000000; stroke-opacity: 0.5; stroke-width: 2"/>
    </g>
    <g clip-path="url(#p30fc574c67)">
     <use xlink:href="#C5_0_3f6a7d8838" x="459.128308" y="177.017391" style="fill: #d62728; fill-opacity: 0.5; stroke: #000000; stroke-opacity: 0.5; stroke-width: 2"/>
    </g>
    <g clip-path="url(#p30fc574c67)">
     <use xlink:href="#C5_0_3f6a7d8838" x="440.336525" y="177.5616" style="fill: #d62728; fill-opacity: 0.5; stroke: #000000; stroke-opacity: 0.5; stroke-width: 2"/>
    </g>
    <g clip-path="url(#p30fc574c67)">
     <use xlink:href="#C5_0_3f6a7d8838" x="443.781096" y="171.772287" style="fill: #d62728; fill-opacity: 0.5; stroke: #000000; stroke-opacity: 0.5; stroke-width: 2"/>
    </g>
    <g clip-path="url(#p30fc574c67)">
     <use xlink:href="#C5_0_3f6a7d8838" x="453.894742" y="178.470898" style="fill: #d62728; fill-opacity: 0.5; stroke: #000000; stroke-opacity: 0.5; stroke-width: 2"/>
    </g>
    <g clip-path="url(#p30fc574c67)">
     <use xlink:href="#C5_0_3f6a7d8838" x="462.677968" y="175.682396" style="fill: #d62728; fill-opacity: 0.5; stroke: #000000; stroke-opacity: 0.5; stroke-width: 2"/>
    </g>
    <g clip-path="url(#p30fc574c67)">
     <use xlink:href="#C5_0_3f6a7d8838" x="460.511311" y="182.687922" style="fill: #d62728; fill-opacity: 0.5; stroke: #000000; stroke-opacity: 0.5; stroke-width: 2"/>
    </g>
    <g clip-path="url(#p30fc574c67)">
     <use xlink:href="#C5_0_3f6a7d8838" x="437.980345" y="181.666574" style="fill: #d62728; fill-opacity: 0.5; stroke: #000000; stroke-opacity: 0.5; stroke-width: 2"/>
    </g>
    <g clip-path="url(#p30fc574c67)">
     <use xlink:href="#C5_0_3f6a7d8838" x="433.03179" y="185.229762" style="fill: #d62728; fill-opacity: 0.5; stroke: #000000; stroke-opacity: 0.5; stroke-width: 2"/>
    </g>
    <g clip-path="url(#p30fc574c67)">
     <use xlink:href="#C5_0_3f6a7d8838" x="453.845815" y="176.756239" style="fill: #d62728; fill-opacity: 0.5; stroke: #000000; stroke-opacity: 0.5; stroke-width: 2"/>
    </g>
    <g clip-path="url(#p30fc574c67)">
     <use xlink:href="#C5_0_3f6a7d8838" x="429.48083" y="181.768048" style="fill: #d62728; fill-opacity: 0.5; stroke: #000000; stroke-opacity: 0.5; stroke-width: 2"/>
    </g>
   </g>
   <g id="PathCollection_7">
    <defs>
     <path id="C6_0_19d37cf964" d="M 0 4 
C 1.060812 4 2.078319 3.578535 2.828427 2.828427 
C 3.578535 2.078319 4 1.060812 4 -0 
C 4 -1.060812 3.578535 -2.078319 2.828427 -2.828427 
C 2.078319 -3.578535 1.060812 -4 0 -4 
C -1.060812 -4 -2.078319 -3.578535 -2.828427 -2.828427 
C -3.578535 -2.078319 -4 -1.060812 -4 0 
C -4 1.060812 -3.578535 2.078319 -2.828427 2.828427 
C -2.078319 3.578535 -1.060812 4 0 4 
z
"/>
    </defs>
    <g clip-path="url(#p30fc574c67)">
     <use xlink:href="#C6_0_19d37cf964" x="512.484664" y="184.496878" style="fill: #9467bd; fill-opacity: 0.5; stroke: #000000; stroke-opacity: 0.5; stroke-width: 2"/>
    </g>
    <g clip-path="url(#p30fc574c67)">
     <use xlink:href="#C6_0_19d37cf964" x="504.457681" y="182.087693" style="fill: #9467bd; fill-opacity: 0.5; stroke: #000000; stroke-opacity: 0.5; stroke-width: 2"/>
    </g>
    <g clip-path="url(#p30fc574c67)">
     <use xlink:href="#C6_0_19d37cf964" x="498.42917" y="184.453324" style="fill: #9467bd; fill-opacity: 0.5; stroke: #000000; stroke-opacity: 0.5; stroke-width: 2"/>
    </g>
    <g clip-path="url(#p30fc574c67)">
     <use xlink:href="#C6_0_19d37cf964" x="519.657593" y="188.99152" style="fill: #9467bd; fill-opacity: 0.5; stroke: #000000; stroke-opacity: 0.5; stroke-width: 2"/>
    </g>
    <g clip-path="url(#p30fc574c67)">
     <use xlink:href="#C6_0_19d37cf964" x="506.325816" y="185.858308" style="fill: #9467bd; fill-opacity: 0.5; stroke: #000000; stroke-opacity: 0.5; stroke-width: 2"/>
    </g>
    <g clip-path="url(#p30fc574c67)">
     <use xlink:href="#C6_0_19d37cf964" x="527.014144" y="181.43087" style="fill: #9467bd; fill-opacity: 0.5; stroke: #000000; stroke-opacity: 0.5; stroke-width: 2"/>
    </g>
    <g clip-path="url(#p30fc574c67)">
     <use xlink:href="#C6_0_19d37cf964" x="531.382726" y="178.655201" style="fill: #9467bd; fill-opacity: 0.5; stroke: #000000; stroke-opacity: 0.5; stroke-width: 2"/>
    </g>
    <g clip-path="url(#p30fc574c67)">
     <use xlink:href="#C6_0_19d37cf964" x="501.716272" y="183.619456" style="fill: #9467bd; fill-opacity: 0.5; stroke: #000000; stroke-opacity: 0.5; stroke-width: 2"/>
    </g>
    <g clip-path="url(#p30fc574c67)">
     <use xlink:href="#C6_0_19d37cf964" x="525.39778" y="183.799" style="fill: #9467bd; fill-opacity: 0.5; stroke: #000000; stroke-opacity: 0.5; stroke-width: 2"/>
    </g>
    <g clip-path="url(#p30fc574c67)">
     <use xlink:href="#C6_0_19d37cf964" x="532.977219" y="178.694327" style="fill: #9467bd; fill-opacity: 0.5; stroke: #000000; stroke-opacity: 0.5; stroke-width: 2"/>
    </g>
    <g clip-path="url(#p30fc574c67)">
     <use xlink:href="#C6_0_19d37cf964" x="497.107637" y="179.762046" style="fill: #9467bd; fill-opacity: 0.5; stroke: #000000; stroke-opacity: 0.5; stroke-width: 2"/>
    </g>
    <g clip-path="url(#p30fc574c67)">
     <use xlink:href="#C6_0_19d37cf964" x="505.300904" y="185.13794" style="fill: #9467bd; fill-opacity: 0.5; stroke: #000000; stroke-opacity: 0.5; stroke-width: 2"/>
    </g>
    <g clip-path="url(#p30fc574c67)">
     <use xlink:href="#C6_0_19d37cf964" x="515.3705" y="173.894516" style="fill: #9467bd; fill-opacity: 0.5; stroke: #000000; stroke-opacity: 0.5; stroke-width: 2"/>
    </g>
    <g clip-path="url(#p30fc574c67)">
     <use xlink:href="#C6_0_19d37cf964" x="525.433656" y="173.500731" style="fill: #9467bd; fill-opacity: 0.5; stroke: #000000; stroke-opacity: 0.5; stroke-width: 2"/>
    </g>
    <g clip-path="url(#p30fc574c67)">
     <use xlink:href="#C6_0_19d37cf964" x="504.774573" y="179.465501" style="fill: #9467bd; fill-opacity: 0.5; stroke: #000000; stroke-opacity: 0.5; stroke-width: 2"/>
    </g>
    <g clip-path="url(#p30fc574c67)">
     <use xlink:href="#C6_0_19d37cf964" x="513.376526" y="178.192299" style="fill: #9467bd; fill-opacity: 0.5; stroke: #000000; stroke-opacity: 0.5; stroke-width: 2"/>
    </g>
    <g clip-path="url(#p30fc574c67)">
     <use xlink:href="#C6_0_19d37cf964" x="524.876455" y="179.635409" style="fill: #9467bd; fill-opacity: 0.5; stroke: #000000; stroke-opacity: 0.5; stroke-width: 2"/>
    </g>
    <g clip-path="url(#p30fc574c67)">
     <use xlink:href="#C6_0_19d37cf964" x="530.792565" y="182.30447" style="fill: #9467bd; fill-opacity: 0.5; stroke: #000000; stroke-opacity: 0.5; stroke-width: 2"/>
    </g>
    <g clip-path="url(#p30fc574c67)">
     <use xlink:href="#C6_0_19d37cf964" x="529.656638" y="179.427617" style="fill: #9467bd; fill-opacity: 0.5; stroke: #000000; stroke-opacity: 0.5; stroke-width: 2"/>
    </g>
    <g clip-path="url(#p30fc574c67)">
     <use xlink:href="#C6_0_19d37cf964" x="499.429492" y="179.484053" style="fill: #9467bd; fill-opacity: 0.5; stroke: #000000; stroke-opacity: 0.5; stroke-width: 2"/>
    </g>
    <g clip-path="url(#p30fc574c67)">
     <use xlink:href="#C6_0_19d37cf964" x="516.301134" y="184.106227" style="fill: #9467bd; fill-opacity: 0.5; stroke: #000000; stroke-opacity: 0.5; stroke-width: 2"/>
    </g>
    <g clip-path="url(#p30fc574c67)">
     <use xlink:href="#C6_0_19d37cf964" x="524.334215" y="185.098156" style="fill: #9467bd; fill-opacity: 0.5; stroke: #000000; stroke-opacity: 0.5; stroke-width: 2"/>
    </g>
   </g>
  </g>
 </g>
 <defs>
  <clipPath id="p30fc574c67">
   <rect x="76.5" y="25.92" width="474.3" height="166.32"/>
  </clipPath>
 </defs>
</svg>
