<?xml version="1.0" encoding="utf-8" standalone="no"?>
<!DOCTYPE svg PUBLIC "-//W3C//DTD SVG 1.1//EN"
  "http://www.w3.org/Graphics/SVG/1.1/DTD/svg11.dtd">
<svg height="468pt" version="1.1" viewBox="0 0 468 468" width="468pt" xmlns="http://www.w3.org/2000/svg" xmlns:xlink="http://www.w3.org/1999/xlink">
 <metadata>
  <rdf:RDF xmlns:cc="http://creativecommons.org/ns#" xmlns:dc="http://purl.org/dc/elements/1.1/" xmlns:rdf="http://www.w3.org/1999/02/22-rdf-syntax-ns#">
   <cc:Work>
    <dc:type rdf:resource="http://purl.org/dc/dcmitype/StillImage"/>
    <dc:date>2023-08-20T14:20:55.854960</dc:date>
    <dc:format>image/svg+xml</dc:format>
    <dc:creator>
     <cc:Agent>
      <dc:title>Matplotlib v3.4.3, https://matplotlib.org/</dc:title>
     </cc:Agent>
    </dc:creator>
   </cc:Work>
  </rdf:RDF>
 </metadata>
 <defs>
  <style type="text/css">*{stroke-linecap:butt;stroke-linejoin:round;}</style>
 </defs>
 <g id="figure_1">
  <g id="patch_1">
   <path d="M 0 468 
L 468 468 
L 468 0 
L 0 0 
z
" style="fill:#ffffff;"/>
  </g>
  <g id="axes_1">
   <g id="patch_2">
    <path d="M 58.5 416.52 
L 421.2 416.52 
L 421.2 56.16 
L 58.5 56.16 
z
" style="fill:#ffffff;"/>
   </g>
   <g id="PathCollection_1">
    <defs>
     <path d="M 0 -10 
L -2.24514 -3.09017 
L -9.510565 -3.09017 
L -3.632713 1.18034 
L -5.877853 8.09017 
L -0 3.81966 
L 5.877853 8.09017 
L 3.632713 1.18034 
L 9.510565 -3.09017 
L 2.24514 -3.09017 
z
" id="mf57be4e00b" style="stroke:#ff0000;"/>
    </defs>
    <g clip-path="url(#p6ea301590c)">
     <use style="fill:#ff0000;stroke:#ff0000;" x="85.313204" xlink:href="#mf57be4e00b" y="397.276337"/>
    </g>
   </g>
   <g id="PathCollection_2">
    <defs>
     <path d="M 0 -10 
L -2.24514 -3.09017 
L -9.510565 -3.09017 
L -3.632713 1.18034 
L -5.877853 8.09017 
L -0 3.81966 
L 5.877853 8.09017 
L 3.632713 1.18034 
L 9.510565 -3.09017 
L 2.24514 -3.09017 
z
" id="m4408e463ec" style="stroke:#ffa500;"/>
    </defs>
    <g clip-path="url(#p6ea301590c)">
     <use style="fill:#ffa500;stroke:#ffa500;" x="206.683047" xlink:href="#m4408e463ec" y="349.66562"/>
    </g>
   </g>
   <g id="matplotlib.axis_1">
    <g id="xtick_1">
     <g id="line2d_1">
      <defs>
       <path d="M 0 0 
L 0 3.5 
" id="m3202e7d353" style="stroke:#000000;stroke-width:0.8;"/>
      </defs>
      <g>
       <use style="stroke:#000000;stroke-width:0.8;" x="58.5" xlink:href="#m3202e7d353" y="416.52"/>
      </g>
     </g>
     <g id="text_1">
      <!-- 0.0 -->
      <g transform="translate(44.6 437.835625)scale(0.2 -0.2)">
       <defs>
        <path d="M 266 2259 
Q 266 3072 433 3567 
Q 600 4063 929 4331 
Q 1259 4600 1759 4600 
Q 2128 4600 2406 4451 
Q 2684 4303 2865 4023 
Q 3047 3744 3150 3342 
Q 3253 2941 3253 2259 
Q 3253 1453 3087 958 
Q 2922 463 2592 192 
Q 2263 -78 1759 -78 
Q 1097 -78 719 397 
Q 266 969 266 2259 
z
M 844 2259 
Q 844 1131 1108 757 
Q 1372 384 1759 384 
Q 2147 384 2411 759 
Q 2675 1134 2675 2259 
Q 2675 3391 2411 3762 
Q 2147 4134 1753 4134 
Q 1366 4134 1134 3806 
Q 844 3388 844 2259 
z
" id="ArialMT-30" transform="scale(0.015625)"/>
        <path d="M 581 0 
L 581 641 
L 1222 641 
L 1222 0 
L 581 0 
z
" id="ArialMT-2e" transform="scale(0.015625)"/>
       </defs>
       <use xlink:href="#ArialMT-30"/>
       <use x="55.615234" xlink:href="#ArialMT-2e"/>
       <use x="83.398438" xlink:href="#ArialMT-30"/>
      </g>
     </g>
    </g>
    <g id="xtick_2">
     <g id="line2d_2">
      <g>
       <use style="stroke:#000000;stroke-width:0.8;" x="124.445455" xlink:href="#m3202e7d353" y="416.52"/>
      </g>
     </g>
     <g id="text_2">
      <!-- 0.2 -->
      <g transform="translate(110.545455 437.835625)scale(0.2 -0.2)">
       <defs>
        <path d="M 3222 541 
L 3222 0 
L 194 0 
Q 188 203 259 391 
Q 375 700 629 1000 
Q 884 1300 1366 1694 
Q 2113 2306 2375 2664 
Q 2638 3022 2638 3341 
Q 2638 3675 2398 3904 
Q 2159 4134 1775 4134 
Q 1369 4134 1125 3890 
Q 881 3647 878 3216 
L 300 3275 
Q 359 3922 746 4261 
Q 1134 4600 1788 4600 
Q 2447 4600 2831 4234 
Q 3216 3869 3216 3328 
Q 3216 3053 3103 2787 
Q 2991 2522 2730 2228 
Q 2469 1934 1863 1422 
Q 1356 997 1212 845 
Q 1069 694 975 541 
L 3222 541 
z
" id="ArialMT-32" transform="scale(0.015625)"/>
       </defs>
       <use xlink:href="#ArialMT-30"/>
       <use x="55.615234" xlink:href="#ArialMT-2e"/>
       <use x="83.398438" xlink:href="#ArialMT-32"/>
      </g>
     </g>
    </g>
    <g id="xtick_3">
     <g id="line2d_3">
      <g>
       <use style="stroke:#000000;stroke-width:0.8;" x="190.390909" xlink:href="#m3202e7d353" y="416.52"/>
      </g>
     </g>
     <g id="text_3">
      <!-- 0.4 -->
      <g transform="translate(176.490909 437.835625)scale(0.2 -0.2)">
       <defs>
        <path d="M 2069 0 
L 2069 1097 
L 81 1097 
L 81 1613 
L 2172 4581 
L 2631 4581 
L 2631 1613 
L 3250 1613 
L 3250 1097 
L 2631 1097 
L 2631 0 
L 2069 0 
z
M 2069 1613 
L 2069 3678 
L 634 1613 
L 2069 1613 
z
" id="ArialMT-34" transform="scale(0.015625)"/>
       </defs>
       <use xlink:href="#ArialMT-30"/>
       <use x="55.615234" xlink:href="#ArialMT-2e"/>
       <use x="83.398438" xlink:href="#ArialMT-34"/>
      </g>
     </g>
    </g>
    <g id="xtick_4">
     <g id="line2d_4">
      <g>
       <use style="stroke:#000000;stroke-width:0.8;" x="256.336364" xlink:href="#m3202e7d353" y="416.52"/>
      </g>
     </g>
     <g id="text_4">
      <!-- 0.6 -->
      <g transform="translate(242.436364 437.835625)scale(0.2 -0.2)">
       <defs>
        <path d="M 3184 3459 
L 2625 3416 
Q 2550 3747 2413 3897 
Q 2184 4138 1850 4138 
Q 1581 4138 1378 3988 
Q 1113 3794 959 3422 
Q 806 3050 800 2363 
Q 1003 2672 1297 2822 
Q 1591 2972 1913 2972 
Q 2475 2972 2870 2558 
Q 3266 2144 3266 1488 
Q 3266 1056 3080 686 
Q 2894 316 2569 119 
Q 2244 -78 1831 -78 
Q 1128 -78 684 439 
Q 241 956 241 2144 
Q 241 3472 731 4075 
Q 1159 4600 1884 4600 
Q 2425 4600 2770 4297 
Q 3116 3994 3184 3459 
z
M 888 1484 
Q 888 1194 1011 928 
Q 1134 663 1356 523 
Q 1578 384 1822 384 
Q 2178 384 2434 671 
Q 2691 959 2691 1453 
Q 2691 1928 2437 2201 
Q 2184 2475 1800 2475 
Q 1419 2475 1153 2201 
Q 888 1928 888 1484 
z
" id="ArialMT-36" transform="scale(0.015625)"/>
       </defs>
       <use xlink:href="#ArialMT-30"/>
       <use x="55.615234" xlink:href="#ArialMT-2e"/>
       <use x="83.398438" xlink:href="#ArialMT-36"/>
      </g>
     </g>
    </g>
    <g id="xtick_5">
     <g id="line2d_5">
      <g>
       <use style="stroke:#000000;stroke-width:0.8;" x="322.281818" xlink:href="#m3202e7d353" y="416.52"/>
      </g>
     </g>
     <g id="text_5">
      <!-- 0.8 -->
      <g transform="translate(308.381818 437.835625)scale(0.2 -0.2)">
       <defs>
        <path d="M 1131 2484 
Q 781 2613 612 2850 
Q 444 3088 444 3419 
Q 444 3919 803 4259 
Q 1163 4600 1759 4600 
Q 2359 4600 2725 4251 
Q 3091 3903 3091 3403 
Q 3091 3084 2923 2848 
Q 2756 2613 2416 2484 
Q 2838 2347 3058 2040 
Q 3278 1734 3278 1309 
Q 3278 722 2862 322 
Q 2447 -78 1769 -78 
Q 1091 -78 675 323 
Q 259 725 259 1325 
Q 259 1772 486 2073 
Q 713 2375 1131 2484 
z
M 1019 3438 
Q 1019 3113 1228 2906 
Q 1438 2700 1772 2700 
Q 2097 2700 2305 2904 
Q 2513 3109 2513 3406 
Q 2513 3716 2298 3927 
Q 2084 4138 1766 4138 
Q 1444 4138 1231 3931 
Q 1019 3725 1019 3438 
z
M 838 1322 
Q 838 1081 952 856 
Q 1066 631 1291 507 
Q 1516 384 1775 384 
Q 2178 384 2440 643 
Q 2703 903 2703 1303 
Q 2703 1709 2433 1975 
Q 2163 2241 1756 2241 
Q 1359 2241 1098 1978 
Q 838 1716 838 1322 
z
" id="ArialMT-38" transform="scale(0.015625)"/>
       </defs>
       <use xlink:href="#ArialMT-30"/>
       <use x="55.615234" xlink:href="#ArialMT-2e"/>
       <use x="83.398438" xlink:href="#ArialMT-38"/>
      </g>
     </g>
    </g>
    <g id="xtick_6">
     <g id="line2d_6">
      <g>
       <use style="stroke:#000000;stroke-width:0.8;" x="388.227273" xlink:href="#m3202e7d353" y="416.52"/>
      </g>
     </g>
     <g id="text_6">
      <!-- 1.0 -->
      <g transform="translate(374.327273 437.835625)scale(0.2 -0.2)">
       <defs>
        <path d="M 2384 0 
L 1822 0 
L 1822 3584 
Q 1619 3391 1289 3197 
Q 959 3003 697 2906 
L 697 3450 
Q 1169 3672 1522 3987 
Q 1875 4303 2022 4600 
L 2384 4600 
L 2384 0 
z
" id="ArialMT-31" transform="scale(0.015625)"/>
       </defs>
       <use xlink:href="#ArialMT-31"/>
       <use x="55.615234" xlink:href="#ArialMT-2e"/>
       <use x="83.398438" xlink:href="#ArialMT-30"/>
      </g>
     </g>
    </g>
    <g id="text_7">
     <!-- Flocculation (filtering assay) -->
     <g transform="translate(115.921875 460.37)scale(0.2 -0.2)">
      <defs>
       <path d="M 525 0 
L 525 4581 
L 3616 4581 
L 3616 4041 
L 1131 4041 
L 1131 2622 
L 3281 2622 
L 3281 2081 
L 1131 2081 
L 1131 0 
L 525 0 
z
" id="ArialMT-46" transform="scale(0.015625)"/>
       <path d="M 409 0 
L 409 4581 
L 972 4581 
L 972 0 
L 409 0 
z
" id="ArialMT-6c" transform="scale(0.015625)"/>
       <path d="M 213 1659 
Q 213 2581 725 3025 
Q 1153 3394 1769 3394 
Q 2453 3394 2887 2945 
Q 3322 2497 3322 1706 
Q 3322 1066 3130 698 
Q 2938 331 2570 128 
Q 2203 -75 1769 -75 
Q 1072 -75 642 372 
Q 213 819 213 1659 
z
M 791 1659 
Q 791 1022 1069 705 
Q 1347 388 1769 388 
Q 2188 388 2466 706 
Q 2744 1025 2744 1678 
Q 2744 2294 2464 2611 
Q 2184 2928 1769 2928 
Q 1347 2928 1069 2612 
Q 791 2297 791 1659 
z
" id="ArialMT-6f" transform="scale(0.015625)"/>
       <path d="M 2588 1216 
L 3141 1144 
Q 3050 572 2676 248 
Q 2303 -75 1759 -75 
Q 1078 -75 664 370 
Q 250 816 250 1647 
Q 250 2184 428 2587 
Q 606 2991 970 3192 
Q 1334 3394 1763 3394 
Q 2303 3394 2647 3120 
Q 2991 2847 3088 2344 
L 2541 2259 
Q 2463 2594 2264 2762 
Q 2066 2931 1784 2931 
Q 1359 2931 1093 2626 
Q 828 2322 828 1663 
Q 828 994 1084 691 
Q 1341 388 1753 388 
Q 2084 388 2306 591 
Q 2528 794 2588 1216 
z
" id="ArialMT-63" transform="scale(0.015625)"/>
       <path d="M 2597 0 
L 2597 488 
Q 2209 -75 1544 -75 
Q 1250 -75 995 37 
Q 741 150 617 320 
Q 494 491 444 738 
Q 409 903 409 1263 
L 409 3319 
L 972 3319 
L 972 1478 
Q 972 1038 1006 884 
Q 1059 663 1231 536 
Q 1403 409 1656 409 
Q 1909 409 2131 539 
Q 2353 669 2445 892 
Q 2538 1116 2538 1541 
L 2538 3319 
L 3100 3319 
L 3100 0 
L 2597 0 
z
" id="ArialMT-75" transform="scale(0.015625)"/>
       <path d="M 2588 409 
Q 2275 144 1986 34 
Q 1697 -75 1366 -75 
Q 819 -75 525 192 
Q 231 459 231 875 
Q 231 1119 342 1320 
Q 453 1522 633 1644 
Q 813 1766 1038 1828 
Q 1203 1872 1538 1913 
Q 2219 1994 2541 2106 
Q 2544 2222 2544 2253 
Q 2544 2597 2384 2738 
Q 2169 2928 1744 2928 
Q 1347 2928 1158 2789 
Q 969 2650 878 2297 
L 328 2372 
Q 403 2725 575 2942 
Q 747 3159 1072 3276 
Q 1397 3394 1825 3394 
Q 2250 3394 2515 3294 
Q 2781 3194 2906 3042 
Q 3031 2891 3081 2659 
Q 3109 2516 3109 2141 
L 3109 1391 
Q 3109 606 3145 398 
Q 3181 191 3288 0 
L 2700 0 
Q 2613 175 2588 409 
z
M 2541 1666 
Q 2234 1541 1622 1453 
Q 1275 1403 1131 1340 
Q 988 1278 909 1158 
Q 831 1038 831 891 
Q 831 666 1001 516 
Q 1172 366 1500 366 
Q 1825 366 2078 508 
Q 2331 650 2450 897 
Q 2541 1088 2541 1459 
L 2541 1666 
z
" id="ArialMT-61" transform="scale(0.015625)"/>
       <path d="M 1650 503 
L 1731 6 
Q 1494 -44 1306 -44 
Q 1000 -44 831 53 
Q 663 150 594 308 
Q 525 466 525 972 
L 525 2881 
L 113 2881 
L 113 3319 
L 525 3319 
L 525 4141 
L 1084 4478 
L 1084 3319 
L 1650 3319 
L 1650 2881 
L 1084 2881 
L 1084 941 
Q 1084 700 1114 631 
Q 1144 563 1211 522 
Q 1278 481 1403 481 
Q 1497 481 1650 503 
z
" id="ArialMT-74" transform="scale(0.015625)"/>
       <path d="M 425 3934 
L 425 4581 
L 988 4581 
L 988 3934 
L 425 3934 
z
M 425 0 
L 425 3319 
L 988 3319 
L 988 0 
L 425 0 
z
" id="ArialMT-69" transform="scale(0.015625)"/>
       <path d="M 422 0 
L 422 3319 
L 928 3319 
L 928 2847 
Q 1294 3394 1984 3394 
Q 2284 3394 2536 3286 
Q 2788 3178 2913 3003 
Q 3038 2828 3088 2588 
Q 3119 2431 3119 2041 
L 3119 0 
L 2556 0 
L 2556 2019 
Q 2556 2363 2490 2533 
Q 2425 2703 2258 2804 
Q 2091 2906 1866 2906 
Q 1506 2906 1245 2678 
Q 984 2450 984 1813 
L 984 0 
L 422 0 
z
" id="ArialMT-6e" transform="scale(0.015625)"/>
       <path id="ArialMT-20" transform="scale(0.015625)"/>
       <path d="M 1497 -1347 
Q 1031 -759 709 28 
Q 388 816 388 1659 
Q 388 2403 628 3084 
Q 909 3875 1497 4659 
L 1900 4659 
Q 1522 4009 1400 3731 
Q 1209 3300 1100 2831 
Q 966 2247 966 1656 
Q 966 153 1900 -1347 
L 1497 -1347 
z
" id="ArialMT-28" transform="scale(0.015625)"/>
       <path d="M 556 0 
L 556 2881 
L 59 2881 
L 59 3319 
L 556 3319 
L 556 3672 
Q 556 4006 616 4169 
Q 697 4388 901 4523 
Q 1106 4659 1475 4659 
Q 1713 4659 2000 4603 
L 1916 4113 
Q 1741 4144 1584 4144 
Q 1328 4144 1222 4034 
Q 1116 3925 1116 3625 
L 1116 3319 
L 1763 3319 
L 1763 2881 
L 1116 2881 
L 1116 0 
L 556 0 
z
" id="ArialMT-66" transform="scale(0.015625)"/>
       <path d="M 2694 1069 
L 3275 997 
Q 3138 488 2766 206 
Q 2394 -75 1816 -75 
Q 1088 -75 661 373 
Q 234 822 234 1631 
Q 234 2469 665 2931 
Q 1097 3394 1784 3394 
Q 2450 3394 2872 2941 
Q 3294 2488 3294 1666 
Q 3294 1616 3291 1516 
L 816 1516 
Q 847 969 1125 678 
Q 1403 388 1819 388 
Q 2128 388 2347 550 
Q 2566 713 2694 1069 
z
M 847 1978 
L 2700 1978 
Q 2663 2397 2488 2606 
Q 2219 2931 1791 2931 
Q 1403 2931 1139 2672 
Q 875 2413 847 1978 
z
" id="ArialMT-65" transform="scale(0.015625)"/>
       <path d="M 416 0 
L 416 3319 
L 922 3319 
L 922 2816 
Q 1116 3169 1280 3281 
Q 1444 3394 1641 3394 
Q 1925 3394 2219 3213 
L 2025 2691 
Q 1819 2813 1613 2813 
Q 1428 2813 1281 2702 
Q 1134 2591 1072 2394 
Q 978 2094 978 1738 
L 978 0 
L 416 0 
z
" id="ArialMT-72" transform="scale(0.015625)"/>
       <path d="M 319 -275 
L 866 -356 
Q 900 -609 1056 -725 
Q 1266 -881 1628 -881 
Q 2019 -881 2231 -725 
Q 2444 -569 2519 -288 
Q 2563 -116 2559 434 
Q 2191 0 1641 0 
Q 956 0 581 494 
Q 206 988 206 1678 
Q 206 2153 378 2554 
Q 550 2956 876 3175 
Q 1203 3394 1644 3394 
Q 2231 3394 2613 2919 
L 2613 3319 
L 3131 3319 
L 3131 450 
Q 3131 -325 2973 -648 
Q 2816 -972 2473 -1159 
Q 2131 -1347 1631 -1347 
Q 1038 -1347 672 -1080 
Q 306 -813 319 -275 
z
M 784 1719 
Q 784 1066 1043 766 
Q 1303 466 1694 466 
Q 2081 466 2343 764 
Q 2606 1063 2606 1700 
Q 2606 2309 2336 2618 
Q 2066 2928 1684 2928 
Q 1309 2928 1046 2623 
Q 784 2319 784 1719 
z
" id="ArialMT-67" transform="scale(0.015625)"/>
       <path d="M 197 991 
L 753 1078 
Q 800 744 1014 566 
Q 1228 388 1613 388 
Q 2000 388 2187 545 
Q 2375 703 2375 916 
Q 2375 1106 2209 1216 
Q 2094 1291 1634 1406 
Q 1016 1563 777 1677 
Q 538 1791 414 1992 
Q 291 2194 291 2438 
Q 291 2659 392 2848 
Q 494 3038 669 3163 
Q 800 3259 1026 3326 
Q 1253 3394 1513 3394 
Q 1903 3394 2198 3281 
Q 2494 3169 2634 2976 
Q 2775 2784 2828 2463 
L 2278 2388 
Q 2241 2644 2061 2787 
Q 1881 2931 1553 2931 
Q 1166 2931 1000 2803 
Q 834 2675 834 2503 
Q 834 2394 903 2306 
Q 972 2216 1119 2156 
Q 1203 2125 1616 2013 
Q 2213 1853 2448 1751 
Q 2684 1650 2818 1456 
Q 2953 1263 2953 975 
Q 2953 694 2789 445 
Q 2625 197 2315 61 
Q 2006 -75 1616 -75 
Q 969 -75 630 194 
Q 291 463 197 991 
z
" id="ArialMT-73" transform="scale(0.015625)"/>
       <path d="M 397 -1278 
L 334 -750 
Q 519 -800 656 -800 
Q 844 -800 956 -737 
Q 1069 -675 1141 -563 
Q 1194 -478 1313 -144 
Q 1328 -97 1363 -6 
L 103 3319 
L 709 3319 
L 1400 1397 
Q 1534 1031 1641 628 
Q 1738 1016 1872 1384 
L 2581 3319 
L 3144 3319 
L 1881 -56 
Q 1678 -603 1566 -809 
Q 1416 -1088 1222 -1217 
Q 1028 -1347 759 -1347 
Q 597 -1347 397 -1278 
z
" id="ArialMT-79" transform="scale(0.015625)"/>
       <path d="M 791 -1347 
L 388 -1347 
Q 1322 153 1322 1656 
Q 1322 2244 1188 2822 
Q 1081 3291 891 3722 
Q 769 4003 388 4659 
L 791 4659 
Q 1378 3875 1659 3084 
Q 1900 2403 1900 1659 
Q 1900 816 1576 28 
Q 1253 -759 791 -1347 
z
" id="ArialMT-29" transform="scale(0.015625)"/>
      </defs>
      <use xlink:href="#ArialMT-46"/>
      <use x="61.083984" xlink:href="#ArialMT-6c"/>
      <use x="83.300781" xlink:href="#ArialMT-6f"/>
      <use x="138.916016" xlink:href="#ArialMT-63"/>
      <use x="188.916016" xlink:href="#ArialMT-63"/>
      <use x="238.916016" xlink:href="#ArialMT-75"/>
      <use x="294.53125" xlink:href="#ArialMT-6c"/>
      <use x="316.748047" xlink:href="#ArialMT-61"/>
      <use x="372.363281" xlink:href="#ArialMT-74"/>
      <use x="400.146484" xlink:href="#ArialMT-69"/>
      <use x="422.363281" xlink:href="#ArialMT-6f"/>
      <use x="477.978516" xlink:href="#ArialMT-6e"/>
      <use x="533.59375" xlink:href="#ArialMT-20"/>
      <use x="561.376953" xlink:href="#ArialMT-28"/>
      <use x="594.677734" xlink:href="#ArialMT-66"/>
      <use x="622.460938" xlink:href="#ArialMT-69"/>
      <use x="644.677734" xlink:href="#ArialMT-6c"/>
      <use x="666.894531" xlink:href="#ArialMT-74"/>
      <use x="694.677734" xlink:href="#ArialMT-65"/>
      <use x="750.292969" xlink:href="#ArialMT-72"/>
      <use x="783.59375" xlink:href="#ArialMT-69"/>
      <use x="805.810547" xlink:href="#ArialMT-6e"/>
      <use x="861.425781" xlink:href="#ArialMT-67"/>
      <use x="917.041016" xlink:href="#ArialMT-20"/>
      <use x="944.824219" xlink:href="#ArialMT-61"/>
      <use x="1000.439453" xlink:href="#ArialMT-73"/>
      <use x="1050.439453" xlink:href="#ArialMT-73"/>
      <use x="1100.439453" xlink:href="#ArialMT-61"/>
      <use x="1156.054688" xlink:href="#ArialMT-79"/>
      <use x="1206.054688" xlink:href="#ArialMT-29"/>
     </g>
    </g>
   </g>
   <g id="matplotlib.axis_2">
    <g id="ytick_1">
     <g id="line2d_7">
      <defs>
       <path d="M 0 0 
L -3.5 0 
" id="m23bdb2499f" style="stroke:#000000;stroke-width:0.8;"/>
      </defs>
      <g>
       <use style="stroke:#000000;stroke-width:0.8;" x="58.5" xlink:href="#m23bdb2499f" y="416.52"/>
      </g>
     </g>
     <g id="text_8">
      <!-- 0.0 -->
      <g transform="translate(23.7 423.677813)scale(0.2 -0.2)">
       <use xlink:href="#ArialMT-30"/>
       <use x="55.615234" xlink:href="#ArialMT-2e"/>
       <use x="83.398438" xlink:href="#ArialMT-30"/>
      </g>
     </g>
    </g>
    <g id="ytick_2">
     <g id="line2d_8">
      <g>
       <use style="stroke:#000000;stroke-width:0.8;" x="58.5" xlink:href="#m23bdb2499f" y="351"/>
      </g>
     </g>
     <g id="text_9">
      <!-- 0.2 -->
      <g transform="translate(23.7 358.157812)scale(0.2 -0.2)">
       <use xlink:href="#ArialMT-30"/>
       <use x="55.615234" xlink:href="#ArialMT-2e"/>
       <use x="83.398438" xlink:href="#ArialMT-32"/>
      </g>
     </g>
    </g>
    <g id="ytick_3">
     <g id="line2d_9">
      <g>
       <use style="stroke:#000000;stroke-width:0.8;" x="58.5" xlink:href="#m23bdb2499f" y="285.48"/>
      </g>
     </g>
     <g id="text_10">
      <!-- 0.4 -->
      <g transform="translate(23.7 292.637812)scale(0.2 -0.2)">
       <use xlink:href="#ArialMT-30"/>
       <use x="55.615234" xlink:href="#ArialMT-2e"/>
       <use x="83.398438" xlink:href="#ArialMT-34"/>
      </g>
     </g>
    </g>
    <g id="ytick_4">
     <g id="line2d_10">
      <g>
       <use style="stroke:#000000;stroke-width:0.8;" x="58.5" xlink:href="#m23bdb2499f" y="219.96"/>
      </g>
     </g>
     <g id="text_11">
      <!-- 0.6 -->
      <g transform="translate(23.7 227.117813)scale(0.2 -0.2)">
       <use xlink:href="#ArialMT-30"/>
       <use x="55.615234" xlink:href="#ArialMT-2e"/>
       <use x="83.398438" xlink:href="#ArialMT-36"/>
      </g>
     </g>
    </g>
    <g id="ytick_5">
     <g id="line2d_11">
      <g>
       <use style="stroke:#000000;stroke-width:0.8;" x="58.5" xlink:href="#m23bdb2499f" y="154.44"/>
      </g>
     </g>
     <g id="text_12">
      <!-- 0.8 -->
      <g transform="translate(23.7 161.597812)scale(0.2 -0.2)">
       <use xlink:href="#ArialMT-30"/>
       <use x="55.615234" xlink:href="#ArialMT-2e"/>
       <use x="83.398438" xlink:href="#ArialMT-38"/>
      </g>
     </g>
    </g>
    <g id="ytick_6">
     <g id="line2d_12">
      <g>
       <use style="stroke:#000000;stroke-width:0.8;" x="58.5" xlink:href="#m23bdb2499f" y="88.92"/>
      </g>
     </g>
     <g id="text_13">
      <!-- 1.0 -->
      <g transform="translate(23.7 96.077812)scale(0.2 -0.2)">
       <use xlink:href="#ArialMT-31"/>
       <use x="55.615234" xlink:href="#ArialMT-2e"/>
       <use x="83.398438" xlink:href="#ArialMT-30"/>
      </g>
     </g>
    </g>
    <g id="text_14">
     <!-- Adhesion (washing assay) -->
     <g transform="translate(15.490625 353.061875)rotate(-90)scale(0.2 -0.2)">
      <defs>
       <path d="M -9 0 
L 1750 4581 
L 2403 4581 
L 4278 0 
L 3588 0 
L 3053 1388 
L 1138 1388 
L 634 0 
L -9 0 
z
M 1313 1881 
L 2866 1881 
L 2388 3150 
Q 2169 3728 2063 4100 
Q 1975 3659 1816 3225 
L 1313 1881 
z
" id="ArialMT-41" transform="scale(0.015625)"/>
       <path d="M 2575 0 
L 2575 419 
Q 2259 -75 1647 -75 
Q 1250 -75 917 144 
Q 584 363 401 755 
Q 219 1147 219 1656 
Q 219 2153 384 2558 
Q 550 2963 881 3178 
Q 1213 3394 1622 3394 
Q 1922 3394 2156 3267 
Q 2391 3141 2538 2938 
L 2538 4581 
L 3097 4581 
L 3097 0 
L 2575 0 
z
M 797 1656 
Q 797 1019 1065 703 
Q 1334 388 1700 388 
Q 2069 388 2326 689 
Q 2584 991 2584 1609 
Q 2584 2291 2321 2609 
Q 2059 2928 1675 2928 
Q 1300 2928 1048 2622 
Q 797 2316 797 1656 
z
" id="ArialMT-64" transform="scale(0.015625)"/>
       <path d="M 422 0 
L 422 4581 
L 984 4581 
L 984 2938 
Q 1378 3394 1978 3394 
Q 2347 3394 2619 3248 
Q 2891 3103 3008 2847 
Q 3125 2591 3125 2103 
L 3125 0 
L 2563 0 
L 2563 2103 
Q 2563 2525 2380 2717 
Q 2197 2909 1863 2909 
Q 1613 2909 1392 2779 
Q 1172 2650 1078 2428 
Q 984 2206 984 1816 
L 984 0 
L 422 0 
z
" id="ArialMT-68" transform="scale(0.015625)"/>
       <path d="M 1034 0 
L 19 3319 
L 600 3319 
L 1128 1403 
L 1325 691 
Q 1338 744 1497 1375 
L 2025 3319 
L 2603 3319 
L 3100 1394 
L 3266 759 
L 3456 1400 
L 4025 3319 
L 4572 3319 
L 3534 0 
L 2950 0 
L 2422 1988 
L 2294 2553 
L 1622 0 
L 1034 0 
z
" id="ArialMT-77" transform="scale(0.015625)"/>
      </defs>
      <use xlink:href="#ArialMT-41"/>
      <use x="66.699219" xlink:href="#ArialMT-64"/>
      <use x="122.314453" xlink:href="#ArialMT-68"/>
      <use x="177.929688" xlink:href="#ArialMT-65"/>
      <use x="233.544922" xlink:href="#ArialMT-73"/>
      <use x="283.544922" xlink:href="#ArialMT-69"/>
      <use x="305.761719" xlink:href="#ArialMT-6f"/>
      <use x="361.376953" xlink:href="#ArialMT-6e"/>
      <use x="416.992188" xlink:href="#ArialMT-20"/>
      <use x="444.775391" xlink:href="#ArialMT-28"/>
      <use x="478.076172" xlink:href="#ArialMT-77"/>
      <use x="550.292969" xlink:href="#ArialMT-61"/>
      <use x="605.908203" xlink:href="#ArialMT-73"/>
      <use x="655.908203" xlink:href="#ArialMT-68"/>
      <use x="711.523438" xlink:href="#ArialMT-69"/>
      <use x="733.740234" xlink:href="#ArialMT-6e"/>
      <use x="789.355469" xlink:href="#ArialMT-67"/>
      <use x="844.970703" xlink:href="#ArialMT-20"/>
      <use x="872.753906" xlink:href="#ArialMT-61"/>
      <use x="928.369141" xlink:href="#ArialMT-73"/>
      <use x="978.369141" xlink:href="#ArialMT-73"/>
      <use x="1028.369141" xlink:href="#ArialMT-61"/>
      <use x="1083.984375" xlink:href="#ArialMT-79"/>
      <use x="1133.984375" xlink:href="#ArialMT-29"/>
     </g>
    </g>
   </g>
   <g id="LineCollection_1">
    <path clip-path="url(#p6ea301590c)" d="M 80.780652 400.196395 
L 105.046009 400.196395 
" style="fill:none;stroke:#0000ff;stroke-opacity:0.3;stroke-width:1.5;"/>
    <path clip-path="url(#p6ea301590c)" d="M 71.054117 409.376279 
L 81.06298 409.376279 
" style="fill:none;stroke:#0000ff;stroke-opacity:0.3;stroke-width:1.5;"/>
    <path clip-path="url(#p6ea301590c)" d="M 71.494178 397.387413 
L 87.255635 397.387413 
" style="fill:none;stroke:#0000ff;stroke-opacity:0.3;stroke-width:1.5;"/>
    <path clip-path="url(#p6ea301590c)" d="M 337.5 255.559501 
L 351.602227 255.559501 
" style="fill:none;stroke:#0000ff;stroke-opacity:0.3;stroke-width:1.5;"/>
    <path clip-path="url(#p6ea301590c)" d="M 64.473931 405.920572 
L 66.90172 405.920572 
" style="fill:none;stroke:#0000ff;stroke-opacity:0.3;stroke-width:1.5;"/>
    <path clip-path="url(#p6ea301590c)" d="M 72.525651 398.067692 
L 77.152509 398.067692 
" style="fill:none;stroke:#0000ff;stroke-opacity:0.3;stroke-width:1.5;"/>
    <path clip-path="url(#p6ea301590c)" d="M 66.357546 405.339391 
L 71.339457 405.339391 
" style="fill:none;stroke:#0000ff;stroke-opacity:0.3;stroke-width:1.5;"/>
    <path clip-path="url(#p6ea301590c)" d="M 64.40341 410.74352 
L 68.283895 410.74352 
" style="fill:none;stroke:#0000ff;stroke-opacity:0.3;stroke-width:1.5;"/>
    <path clip-path="url(#p6ea301590c)" d="M 104.632101 409.675531 
L 133.928497 409.675531 
" style="fill:none;stroke:#0000ff;stroke-opacity:0.3;stroke-width:1.5;"/>
    <path clip-path="url(#p6ea301590c)" d="M 184.818715 366.186972 
L 225.593718 366.186972 
" style="fill:none;stroke:#0000ff;stroke-opacity:0.3;stroke-width:1.5;"/>
    <path clip-path="url(#p6ea301590c)" d="M 65.783939 404.126175 
L 69.831977 404.126175 
" style="fill:none;stroke:#0000ff;stroke-opacity:0.3;stroke-width:1.5;"/>
    <path clip-path="url(#p6ea301590c)" d="M 107.461426 396.033515 
L 128.018701 396.033515 
" style="fill:none;stroke:#0000ff;stroke-opacity:0.3;stroke-width:1.5;"/>
    <path clip-path="url(#p6ea301590c)" d="M 66.137407 408.078432 
L 67.546415 408.078432 
" style="fill:none;stroke:#0000ff;stroke-opacity:0.3;stroke-width:1.5;"/>
    <path clip-path="url(#p6ea301590c)" d="M 73.250392 329.355678 
L 89.70215 329.355678 
" style="fill:none;stroke:#0000ff;stroke-opacity:0.3;stroke-width:1.5;"/>
    <path clip-path="url(#p6ea301590c)" d="M 65.574661 410.742174 
L 69.047885 410.742174 
" style="fill:none;stroke:#0000ff;stroke-opacity:0.3;stroke-width:1.5;"/>
    <path clip-path="url(#p6ea301590c)" d="M 67.934293 407.492688 
L 73.709621 407.492688 
" style="fill:none;stroke:#0000ff;stroke-opacity:0.3;stroke-width:1.5;"/>
    <path clip-path="url(#p6ea301590c)" d="M 194.876375 360.086038 
L 249.150429 360.086038 
" style="fill:none;stroke:#0000ff;stroke-opacity:0.3;stroke-width:1.5;"/>
    <path clip-path="url(#p6ea301590c)" d="M 65.849712 407.239172 
L 67.183724 407.239172 
" style="fill:none;stroke:#0000ff;stroke-opacity:0.3;stroke-width:1.5;"/>
    <path clip-path="url(#p6ea301590c)" d="M 64.693204 408.200311 
L 67.436546 408.200311 
" style="fill:none;stroke:#0000ff;stroke-opacity:0.3;stroke-width:1.5;"/>
    <path clip-path="url(#p6ea301590c)" d="M 65.399615 406.647886 
L 74.461925 406.647886 
" style="fill:none;stroke:#0000ff;stroke-opacity:0.3;stroke-width:1.5;"/>
    <path clip-path="url(#p6ea301590c)" d="M 65.669105 413.685266 
L 68.706068 413.685266 
" style="fill:none;stroke:#0000ff;stroke-opacity:0.3;stroke-width:1.5;"/>
    <path clip-path="url(#p6ea301590c)" d="M 70.003958 398.121094 
L 73.982372 398.121094 
" style="fill:none;stroke:#0000ff;stroke-opacity:0.3;stroke-width:1.5;"/>
    <path clip-path="url(#p6ea301590c)" d="M 71.801485 407.425916 
L 80.844983 407.425916 
" style="fill:none;stroke:#0000ff;stroke-opacity:0.3;stroke-width:1.5;"/>
    <path clip-path="url(#p6ea301590c)" d="M 64.725537 411.595163 
L 66.183194 411.595163 
" style="fill:none;stroke:#0000ff;stroke-opacity:0.3;stroke-width:1.5;"/>
    <path clip-path="url(#p6ea301590c)" d="M 67.897542 407.237856 
L 71.079442 407.237856 
" style="fill:none;stroke:#0000ff;stroke-opacity:0.3;stroke-width:1.5;"/>
    <path clip-path="url(#p6ea301590c)" d="M 65.850819 409.490053 
L 69.191778 409.490053 
" style="fill:none;stroke:#0000ff;stroke-opacity:0.3;stroke-width:1.5;"/>
    <path clip-path="url(#p6ea301590c)" d="M 64.385795 413.777607 
L 66.299563 413.777607 
" style="fill:none;stroke:#0000ff;stroke-opacity:0.3;stroke-width:1.5;"/>
    <path clip-path="url(#p6ea301590c)" d="M 68.35938 273.613598 
L 72.850329 273.613598 
" style="fill:none;stroke:#0000ff;stroke-opacity:0.3;stroke-width:1.5;"/>
    <path clip-path="url(#p6ea301590c)" d="M 66.942802 403.198432 
L 72.033269 403.198432 
" style="fill:none;stroke:#0000ff;stroke-opacity:0.3;stroke-width:1.5;"/>
    <path clip-path="url(#p6ea301590c)" d="M 175.63688 342.163201 
L 270.325998 342.163201 
" style="fill:none;stroke:#0000ff;stroke-opacity:0.3;stroke-width:1.5;"/>
    <path clip-path="url(#p6ea301590c)" d="M 64.292193 410.151858 
L 71.299961 410.151858 
" style="fill:none;stroke:#0000ff;stroke-opacity:0.3;stroke-width:1.5;"/>
    <path clip-path="url(#p6ea301590c)" d="M 67.32794 411.262483 
L 67.858386 411.262483 
" style="fill:none;stroke:#0000ff;stroke-opacity:0.3;stroke-width:1.5;"/>
    <path clip-path="url(#p6ea301590c)" d="M 125.64211 347.446634 
L 129.369753 347.446634 
" style="fill:none;stroke:#0000ff;stroke-opacity:0.3;stroke-width:1.5;"/>
    <path clip-path="url(#p6ea301590c)" d="M 367.283243 102.880907 
L 381.785963 102.880907 
" style="fill:none;stroke:#0000ff;stroke-opacity:0.3;stroke-width:1.5;"/>
    <path clip-path="url(#p6ea301590c)" d="M 107.483049 396.698169 
L 192.879678 396.698169 
" style="fill:none;stroke:#0000ff;stroke-opacity:0.3;stroke-width:1.5;"/>
    <path clip-path="url(#p6ea301590c)" d="M 65.258866 414.707543 
L 66.880582 414.707543 
" style="fill:none;stroke:#0000ff;stroke-opacity:0.3;stroke-width:1.5;"/>
    <path clip-path="url(#p6ea301590c)" d="M 69.658265 396.39609 
L 79.667868 396.39609 
" style="fill:none;stroke:#0000ff;stroke-opacity:0.3;stroke-width:1.5;"/>
    <path clip-path="url(#p6ea301590c)" d="M 79.68211 399.249814 
L 91.790471 399.249814 
" style="fill:none;stroke:#0000ff;stroke-opacity:0.3;stroke-width:1.5;"/>
    <path clip-path="url(#p6ea301590c)" d="M 74.731852 405.3215 
L 78.423843 405.3215 
" style="fill:none;stroke:#0000ff;stroke-opacity:0.3;stroke-width:1.5;"/>
    <path clip-path="url(#p6ea301590c)" d="M 384.540037 91.712948 
L 384.9866 91.712948 
" style="fill:none;stroke:#0000ff;stroke-opacity:0.3;stroke-width:1.5;"/>
    <path clip-path="url(#p6ea301590c)" d="M 65.399541 412.741296 
L 68.554424 412.741296 
" style="fill:none;stroke:#0000ff;stroke-opacity:0.3;stroke-width:1.5;"/>
    <path clip-path="url(#p6ea301590c)" d="M 95.307119 362.739905 
L 111.941837 362.739905 
" style="fill:none;stroke:#0000ff;stroke-opacity:0.3;stroke-width:1.5;"/>
    <path clip-path="url(#p6ea301590c)" d="M 71.435037 413.061458 
L 93.535027 413.061458 
" style="fill:none;stroke:#0000ff;stroke-opacity:0.3;stroke-width:1.5;"/>
    <path clip-path="url(#p6ea301590c)" d="M 81.928134 387.532368 
L 104.557713 387.532368 
" style="fill:none;stroke:#0000ff;stroke-opacity:0.3;stroke-width:1.5;"/>
    <path clip-path="url(#p6ea301590c)" d="M 99.480852 397.126651 
L 162.26429 397.126651 
" style="fill:none;stroke:#0000ff;stroke-opacity:0.3;stroke-width:1.5;"/>
    <path clip-path="url(#p6ea301590c)" d="M 155.004162 323.794098 
L 177.50386 323.794098 
" style="fill:none;stroke:#0000ff;stroke-opacity:0.3;stroke-width:1.5;"/>
    <path clip-path="url(#p6ea301590c)" d="M 159.341344 188.456466 
L 229.89502 188.456466 
" style="fill:none;stroke:#0000ff;stroke-opacity:0.3;stroke-width:1.5;"/>
    <path clip-path="url(#p6ea301590c)" d="M 341.129009 287.97845 
L 363.500109 287.97845 
" style="fill:none;stroke:#0000ff;stroke-opacity:0.3;stroke-width:1.5;"/>
    <path clip-path="url(#p6ea301590c)" d="M 69.950773 410.612398 
L 89.799008 410.612398 
" style="fill:none;stroke:#0000ff;stroke-opacity:0.3;stroke-width:1.5;"/>
    <path clip-path="url(#p6ea301590c)" d="M 364.842396 92.84091 
L 384.13177 92.84091 
" style="fill:none;stroke:#0000ff;stroke-opacity:0.3;stroke-width:1.5;"/>
    <path clip-path="url(#p6ea301590c)" d="M 68.355069 403.947243 
L 70.524109 403.947243 
" style="fill:none;stroke:#0000ff;stroke-opacity:0.3;stroke-width:1.5;"/>
    <path clip-path="url(#p6ea301590c)" d="M 373.759318 107.636476 
L 379.792381 107.636476 
" style="fill:none;stroke:#0000ff;stroke-opacity:0.3;stroke-width:1.5;"/>
    <path clip-path="url(#p6ea301590c)" d="M 79.956757 398.759547 
L 110.912377 398.759547 
" style="fill:none;stroke:#0000ff;stroke-opacity:0.3;stroke-width:1.5;"/>
    <path clip-path="url(#p6ea301590c)" d="M 67.173692 407.64672 
L 70.646097 407.64672 
" style="fill:none;stroke:#0000ff;stroke-opacity:0.3;stroke-width:1.5;"/>
    <path clip-path="url(#p6ea301590c)" d="M 83.753228 397.276337 
L 86.873179 397.276337 
" style="fill:none;stroke:#0000ff;stroke-opacity:0.3;stroke-width:1.5;"/>
    <path clip-path="url(#p6ea301590c)" d="M 161.538727 349.66562 
L 251.827367 349.66562 
" style="fill:none;stroke:#0000ff;stroke-opacity:0.3;stroke-width:1.5;"/>
   </g>
   <g id="LineCollection_2">
    <path clip-path="url(#p6ea301590c)" d="M 92.91333 401.355384 
L 92.91333 399.037405 
" style="fill:none;stroke:#0000ff;stroke-opacity:0.3;stroke-width:1.5;"/>
    <path clip-path="url(#p6ea301590c)" d="M 76.058549 410.164862 
L 76.058549 408.587696 
" style="fill:none;stroke:#0000ff;stroke-opacity:0.3;stroke-width:1.5;"/>
    <path clip-path="url(#p6ea301590c)" d="M 79.374907 400.987826 
L 79.374907 393.786999 
" style="fill:none;stroke:#0000ff;stroke-opacity:0.3;stroke-width:1.5;"/>
    <path clip-path="url(#p6ea301590c)" d="M 344.551114 273.596346 
L 344.551114 237.522656 
" style="fill:none;stroke:#0000ff;stroke-opacity:0.3;stroke-width:1.5;"/>
    <path clip-path="url(#p6ea301590c)" d="M 65.687826 406.982728 
L 65.687826 404.858415 
" style="fill:none;stroke:#0000ff;stroke-opacity:0.3;stroke-width:1.5;"/>
    <path clip-path="url(#p6ea301590c)" d="M 74.83908 400.175812 
L 74.83908 395.959572 
" style="fill:none;stroke:#0000ff;stroke-opacity:0.3;stroke-width:1.5;"/>
    <path clip-path="url(#p6ea301590c)" d="M 68.848502 407.040779 
L 68.848502 403.638003 
" style="fill:none;stroke:#0000ff;stroke-opacity:0.3;stroke-width:1.5;"/>
    <path clip-path="url(#p6ea301590c)" d="M 66.343652 411.474718 
L 66.343652 410.012322 
" style="fill:none;stroke:#0000ff;stroke-opacity:0.3;stroke-width:1.5;"/>
    <path clip-path="url(#p6ea301590c)" d="M 119.280299 410.264856 
L 119.280299 409.086206 
" style="fill:none;stroke:#0000ff;stroke-opacity:0.3;stroke-width:1.5;"/>
    <path clip-path="url(#p6ea301590c)" d="M 205.206217 372.568956 
L 205.206217 359.804987 
" style="fill:none;stroke:#0000ff;stroke-opacity:0.3;stroke-width:1.5;"/>
    <path clip-path="url(#p6ea301590c)" d="M 67.807958 405.213501 
L 67.807958 403.03885 
" style="fill:none;stroke:#0000ff;stroke-opacity:0.3;stroke-width:1.5;"/>
    <path clip-path="url(#p6ea301590c)" d="M 117.740064 398.345168 
L 117.740064 393.721862 
" style="fill:none;stroke:#0000ff;stroke-opacity:0.3;stroke-width:1.5;"/>
    <path clip-path="url(#p6ea301590c)" d="M 66.841911 408.760242 
L 66.841911 407.396622 
" style="fill:none;stroke:#0000ff;stroke-opacity:0.3;stroke-width:1.5;"/>
    <path clip-path="url(#p6ea301590c)" d="M 81.476271 362.671983 
L 81.476271 296.039373 
" style="fill:none;stroke:#0000ff;stroke-opacity:0.3;stroke-width:1.5;"/>
    <path clip-path="url(#p6ea301590c)" d="M 67.311273 411.413346 
L 67.311273 410.071003 
" style="fill:none;stroke:#0000ff;stroke-opacity:0.3;stroke-width:1.5;"/>
    <path clip-path="url(#p6ea301590c)" d="M 70.821957 408.278898 
L 70.821957 406.706478 
" style="fill:none;stroke:#0000ff;stroke-opacity:0.3;stroke-width:1.5;"/>
    <path clip-path="url(#p6ea301590c)" d="M 222.013402 369.792931 
L 222.013402 350.379145 
" style="fill:none;stroke:#0000ff;stroke-opacity:0.3;stroke-width:1.5;"/>
    <path clip-path="url(#p6ea301590c)" d="M 66.516718 408.364892 
L 66.516718 406.113452 
" style="fill:none;stroke:#0000ff;stroke-opacity:0.3;stroke-width:1.5;"/>
    <path clip-path="url(#p6ea301590c)" d="M 66.064875 409.182826 
L 66.064875 407.217796 
" style="fill:none;stroke:#0000ff;stroke-opacity:0.3;stroke-width:1.5;"/>
    <path clip-path="url(#p6ea301590c)" d="M 69.93077 408.277078 
L 69.93077 405.018693 
" style="fill:none;stroke:#0000ff;stroke-opacity:0.3;stroke-width:1.5;"/>
    <path clip-path="url(#p6ea301590c)" d="M 67.187587 414.37341 
L 67.187587 412.997122 
" style="fill:none;stroke:#0000ff;stroke-opacity:0.3;stroke-width:1.5;"/>
    <path clip-path="url(#p6ea301590c)" d="M 71.993165 406.808871 
L 71.993165 389.433317 
" style="fill:none;stroke:#0000ff;stroke-opacity:0.3;stroke-width:1.5;"/>
    <path clip-path="url(#p6ea301590c)" d="M 76.323234 408.27234 
L 76.323234 406.579492 
" style="fill:none;stroke:#0000ff;stroke-opacity:0.3;stroke-width:1.5;"/>
    <path clip-path="url(#p6ea301590c)" d="M 65.454366 412.084695 
L 65.454366 411.105631 
" style="fill:none;stroke:#0000ff;stroke-opacity:0.3;stroke-width:1.5;"/>
    <path clip-path="url(#p6ea301590c)" d="M 69.488492 408.007308 
L 69.488492 406.468404 
" style="fill:none;stroke:#0000ff;stroke-opacity:0.3;stroke-width:1.5;"/>
    <path clip-path="url(#p6ea301590c)" d="M 67.521299 410.576621 
L 67.521299 408.403485 
" style="fill:none;stroke:#0000ff;stroke-opacity:0.3;stroke-width:1.5;"/>
    <path clip-path="url(#p6ea301590c)" d="M 65.342679 414.411337 
L 65.342679 413.143877 
" style="fill:none;stroke:#0000ff;stroke-opacity:0.3;stroke-width:1.5;"/>
    <path clip-path="url(#p6ea301590c)" d="M 70.604854 314.439828 
L 70.604854 232.787369 
" style="fill:none;stroke:#0000ff;stroke-opacity:0.3;stroke-width:1.5;"/>
    <path clip-path="url(#p6ea301590c)" d="M 69.488036 405.588774 
L 69.488036 400.808091 
" style="fill:none;stroke:#0000ff;stroke-opacity:0.3;stroke-width:1.5;"/>
    <path clip-path="url(#p6ea301590c)" d="M 222.981439 371.916825 
L 222.981439 312.409578 
" style="fill:none;stroke:#0000ff;stroke-opacity:0.3;stroke-width:1.5;"/>
    <path clip-path="url(#p6ea301590c)" d="M 67.796077 411.53649 
L 67.796077 408.767226 
" style="fill:none;stroke:#0000ff;stroke-opacity:0.3;stroke-width:1.5;"/>
    <path clip-path="url(#p6ea301590c)" d="M 67.593163 412.020136 
L 67.593163 410.50483 
" style="fill:none;stroke:#0000ff;stroke-opacity:0.3;stroke-width:1.5;"/>
    <path clip-path="url(#p6ea301590c)" d="M 127.505931 362.14279 
L 127.505931 332.750477 
" style="fill:none;stroke:#0000ff;stroke-opacity:0.3;stroke-width:1.5;"/>
    <path clip-path="url(#p6ea301590c)" d="M 374.534603 114.238716 
L 374.534603 91.523098 
" style="fill:none;stroke:#0000ff;stroke-opacity:0.3;stroke-width:1.5;"/>
    <path clip-path="url(#p6ea301590c)" d="M 150.181364 400.484361 
L 150.181364 392.911977 
" style="fill:none;stroke:#0000ff;stroke-opacity:0.3;stroke-width:1.5;"/>
    <path clip-path="url(#p6ea301590c)" d="M 66.069724 415.126775 
L 66.069724 414.28831 
" style="fill:none;stroke:#0000ff;stroke-opacity:0.3;stroke-width:1.5;"/>
    <path clip-path="url(#p6ea301590c)" d="M 74.663066 402.915338 
L 74.663066 389.876843 
" style="fill:none;stroke:#0000ff;stroke-opacity:0.3;stroke-width:1.5;"/>
    <path clip-path="url(#p6ea301590c)" d="M 85.73629 401.111413 
L 85.73629 397.388215 
" style="fill:none;stroke:#0000ff;stroke-opacity:0.3;stroke-width:1.5;"/>
    <path clip-path="url(#p6ea301590c)" d="M 76.577847 407.161596 
L 76.577847 403.481404 
" style="fill:none;stroke:#0000ff;stroke-opacity:0.3;stroke-width:1.5;"/>
    <path clip-path="url(#p6ea301590c)" d="M 384.763319 93.210146 
L 384.763319 90.215751 
" style="fill:none;stroke:#0000ff;stroke-opacity:0.3;stroke-width:1.5;"/>
    <path clip-path="url(#p6ea301590c)" d="M 66.976983 414.747944 
L 66.976983 410.734649 
" style="fill:none;stroke:#0000ff;stroke-opacity:0.3;stroke-width:1.5;"/>
    <path clip-path="url(#p6ea301590c)" d="M 103.624478 386.550713 
L 103.624478 338.929098 
" style="fill:none;stroke:#0000ff;stroke-opacity:0.3;stroke-width:1.5;"/>
    <path clip-path="url(#p6ea301590c)" d="M 82.485032 413.786573 
L 82.485032 412.336344 
" style="fill:none;stroke:#0000ff;stroke-opacity:0.3;stroke-width:1.5;"/>
    <path clip-path="url(#p6ea301590c)" d="M 93.242923 395.176977 
L 93.242923 379.887758 
" style="fill:none;stroke:#0000ff;stroke-opacity:0.3;stroke-width:1.5;"/>
    <path clip-path="url(#p6ea301590c)" d="M 130.872571 399.370089 
L 130.872571 394.883213 
" style="fill:none;stroke:#0000ff;stroke-opacity:0.3;stroke-width:1.5;"/>
    <path clip-path="url(#p6ea301590c)" d="M 166.254011 338.227176 
L 166.254011 309.361021 
" style="fill:none;stroke:#0000ff;stroke-opacity:0.3;stroke-width:1.5;"/>
    <path clip-path="url(#p6ea301590c)" d="M 194.618182 213.524251 
L 194.618182 163.388681 
" style="fill:none;stroke:#0000ff;stroke-opacity:0.3;stroke-width:1.5;"/>
    <path clip-path="url(#p6ea301590c)" d="M 352.314559 303.137055 
L 352.314559 272.819844 
" style="fill:none;stroke:#0000ff;stroke-opacity:0.3;stroke-width:1.5;"/>
    <path clip-path="url(#p6ea301590c)" d="M 79.87489 413.026166 
L 79.87489 408.19863 
" style="fill:none;stroke:#0000ff;stroke-opacity:0.3;stroke-width:1.5;"/>
    <path clip-path="url(#p6ea301590c)" d="M 374.487083 96.363343 
L 374.487083 89.318478 
" style="fill:none;stroke:#0000ff;stroke-opacity:0.3;stroke-width:1.5;"/>
    <path clip-path="url(#p6ea301590c)" d="M 69.439589 405.585963 
L 69.439589 402.308523 
" style="fill:none;stroke:#0000ff;stroke-opacity:0.3;stroke-width:1.5;"/>
    <path clip-path="url(#p6ea301590c)" d="M 376.77585 120.025487 
L 376.77585 95.247465 
" style="fill:none;stroke:#0000ff;stroke-opacity:0.3;stroke-width:1.5;"/>
    <path clip-path="url(#p6ea301590c)" d="M 95.434567 400.978682 
L 95.434567 396.540412 
" style="fill:none;stroke:#0000ff;stroke-opacity:0.3;stroke-width:1.5;"/>
    <path clip-path="url(#p6ea301590c)" d="M 68.909894 408.5308 
L 68.909894 406.762639 
" style="fill:none;stroke:#0000ff;stroke-opacity:0.3;stroke-width:1.5;"/>
    <path clip-path="url(#p6ea301590c)" d="M 85.313204 399.403827 
L 85.313204 395.148847 
" style="fill:none;stroke:#0000ff;stroke-opacity:0.3;stroke-width:1.5;"/>
    <path clip-path="url(#p6ea301590c)" d="M 206.683047 357.611805 
L 206.683047 341.719435 
" style="fill:none;stroke:#0000ff;stroke-opacity:0.3;stroke-width:1.5;"/>
   </g>
   <g id="line2d_13">
    <defs>
     <path d="M 0 3 
C 0.795609 3 1.55874 2.683901 2.12132 2.12132 
C 2.683901 1.55874 3 0.795609 3 0 
C 3 -0.795609 2.683901 -1.55874 2.12132 -2.12132 
C 1.55874 -2.683901 0.795609 -3 0 -3 
C -0.795609 -3 -1.55874 -2.683901 -2.12132 -2.12132 
C -2.683901 -1.55874 -3 -0.795609 -3 0 
C -3 0.795609 -2.683901 1.55874 -2.12132 2.12132 
C -1.55874 2.683901 -0.795609 3 0 3 
z
" id="mb2b31f569f" style="stroke:#0000ff;stroke-opacity:0.3;"/>
    </defs>
    <g clip-path="url(#p6ea301590c)">
     <use style="fill:#0000ff;fill-opacity:0.3;stroke:#0000ff;stroke-opacity:0.3;" x="92.91333" xlink:href="#mb2b31f569f" y="400.196395"/>
     <use style="fill:#0000ff;fill-opacity:0.3;stroke:#0000ff;stroke-opacity:0.3;" x="76.058549" xlink:href="#mb2b31f569f" y="409.376279"/>
     <use style="fill:#0000ff;fill-opacity:0.3;stroke:#0000ff;stroke-opacity:0.3;" x="79.374907" xlink:href="#mb2b31f569f" y="397.387413"/>
     <use style="fill:#0000ff;fill-opacity:0.3;stroke:#0000ff;stroke-opacity:0.3;" x="344.551114" xlink:href="#mb2b31f569f" y="255.559501"/>
     <use style="fill:#0000ff;fill-opacity:0.3;stroke:#0000ff;stroke-opacity:0.3;" x="65.687826" xlink:href="#mb2b31f569f" y="405.920572"/>
     <use style="fill:#0000ff;fill-opacity:0.3;stroke:#0000ff;stroke-opacity:0.3;" x="74.83908" xlink:href="#mb2b31f569f" y="398.067692"/>
     <use style="fill:#0000ff;fill-opacity:0.3;stroke:#0000ff;stroke-opacity:0.3;" x="68.848502" xlink:href="#mb2b31f569f" y="405.339391"/>
     <use style="fill:#0000ff;fill-opacity:0.3;stroke:#0000ff;stroke-opacity:0.3;" x="66.343652" xlink:href="#mb2b31f569f" y="410.74352"/>
     <use style="fill:#0000ff;fill-opacity:0.3;stroke:#0000ff;stroke-opacity:0.3;" x="119.280299" xlink:href="#mb2b31f569f" y="409.675531"/>
     <use style="fill:#0000ff;fill-opacity:0.3;stroke:#0000ff;stroke-opacity:0.3;" x="205.206217" xlink:href="#mb2b31f569f" y="366.186972"/>
     <use style="fill:#0000ff;fill-opacity:0.3;stroke:#0000ff;stroke-opacity:0.3;" x="67.807958" xlink:href="#mb2b31f569f" y="404.126175"/>
     <use style="fill:#0000ff;fill-opacity:0.3;stroke:#0000ff;stroke-opacity:0.3;" x="117.740064" xlink:href="#mb2b31f569f" y="396.033515"/>
     <use style="fill:#0000ff;fill-opacity:0.3;stroke:#0000ff;stroke-opacity:0.3;" x="66.841911" xlink:href="#mb2b31f569f" y="408.078432"/>
     <use style="fill:#0000ff;fill-opacity:0.3;stroke:#0000ff;stroke-opacity:0.3;" x="81.476271" xlink:href="#mb2b31f569f" y="329.355678"/>
     <use style="fill:#0000ff;fill-opacity:0.3;stroke:#0000ff;stroke-opacity:0.3;" x="67.311273" xlink:href="#mb2b31f569f" y="410.742174"/>
     <use style="fill:#0000ff;fill-opacity:0.3;stroke:#0000ff;stroke-opacity:0.3;" x="70.821957" xlink:href="#mb2b31f569f" y="407.492688"/>
     <use style="fill:#0000ff;fill-opacity:0.3;stroke:#0000ff;stroke-opacity:0.3;" x="222.013402" xlink:href="#mb2b31f569f" y="360.086038"/>
     <use style="fill:#0000ff;fill-opacity:0.3;stroke:#0000ff;stroke-opacity:0.3;" x="66.516718" xlink:href="#mb2b31f569f" y="407.239172"/>
     <use style="fill:#0000ff;fill-opacity:0.3;stroke:#0000ff;stroke-opacity:0.3;" x="66.064875" xlink:href="#mb2b31f569f" y="408.200311"/>
     <use style="fill:#0000ff;fill-opacity:0.3;stroke:#0000ff;stroke-opacity:0.3;" x="69.93077" xlink:href="#mb2b31f569f" y="406.647886"/>
     <use style="fill:#0000ff;fill-opacity:0.3;stroke:#0000ff;stroke-opacity:0.3;" x="67.187587" xlink:href="#mb2b31f569f" y="413.685266"/>
     <use style="fill:#0000ff;fill-opacity:0.3;stroke:#0000ff;stroke-opacity:0.3;" x="71.993165" xlink:href="#mb2b31f569f" y="398.121094"/>
     <use style="fill:#0000ff;fill-opacity:0.3;stroke:#0000ff;stroke-opacity:0.3;" x="76.323234" xlink:href="#mb2b31f569f" y="407.425916"/>
     <use style="fill:#0000ff;fill-opacity:0.3;stroke:#0000ff;stroke-opacity:0.3;" x="65.454366" xlink:href="#mb2b31f569f" y="411.595163"/>
     <use style="fill:#0000ff;fill-opacity:0.3;stroke:#0000ff;stroke-opacity:0.3;" x="69.488492" xlink:href="#mb2b31f569f" y="407.237856"/>
     <use style="fill:#0000ff;fill-opacity:0.3;stroke:#0000ff;stroke-opacity:0.3;" x="67.521299" xlink:href="#mb2b31f569f" y="409.490053"/>
     <use style="fill:#0000ff;fill-opacity:0.3;stroke:#0000ff;stroke-opacity:0.3;" x="65.342679" xlink:href="#mb2b31f569f" y="413.777607"/>
     <use style="fill:#0000ff;fill-opacity:0.3;stroke:#0000ff;stroke-opacity:0.3;" x="70.604854" xlink:href="#mb2b31f569f" y="273.613598"/>
     <use style="fill:#0000ff;fill-opacity:0.3;stroke:#0000ff;stroke-opacity:0.3;" x="69.488036" xlink:href="#mb2b31f569f" y="403.198432"/>
     <use style="fill:#0000ff;fill-opacity:0.3;stroke:#0000ff;stroke-opacity:0.3;" x="222.981439" xlink:href="#mb2b31f569f" y="342.163201"/>
     <use style="fill:#0000ff;fill-opacity:0.3;stroke:#0000ff;stroke-opacity:0.3;" x="67.796077" xlink:href="#mb2b31f569f" y="410.151858"/>
     <use style="fill:#0000ff;fill-opacity:0.3;stroke:#0000ff;stroke-opacity:0.3;" x="67.593163" xlink:href="#mb2b31f569f" y="411.262483"/>
     <use style="fill:#0000ff;fill-opacity:0.3;stroke:#0000ff;stroke-opacity:0.3;" x="127.505931" xlink:href="#mb2b31f569f" y="347.446634"/>
     <use style="fill:#0000ff;fill-opacity:0.3;stroke:#0000ff;stroke-opacity:0.3;" x="374.534603" xlink:href="#mb2b31f569f" y="102.880907"/>
     <use style="fill:#0000ff;fill-opacity:0.3;stroke:#0000ff;stroke-opacity:0.3;" x="150.181364" xlink:href="#mb2b31f569f" y="396.698169"/>
     <use style="fill:#0000ff;fill-opacity:0.3;stroke:#0000ff;stroke-opacity:0.3;" x="66.069724" xlink:href="#mb2b31f569f" y="414.707543"/>
     <use style="fill:#0000ff;fill-opacity:0.3;stroke:#0000ff;stroke-opacity:0.3;" x="74.663066" xlink:href="#mb2b31f569f" y="396.39609"/>
     <use style="fill:#0000ff;fill-opacity:0.3;stroke:#0000ff;stroke-opacity:0.3;" x="85.73629" xlink:href="#mb2b31f569f" y="399.249814"/>
     <use style="fill:#0000ff;fill-opacity:0.3;stroke:#0000ff;stroke-opacity:0.3;" x="76.577847" xlink:href="#mb2b31f569f" y="405.3215"/>
     <use style="fill:#0000ff;fill-opacity:0.3;stroke:#0000ff;stroke-opacity:0.3;" x="384.763319" xlink:href="#mb2b31f569f" y="91.712948"/>
     <use style="fill:#0000ff;fill-opacity:0.3;stroke:#0000ff;stroke-opacity:0.3;" x="66.976983" xlink:href="#mb2b31f569f" y="412.741296"/>
     <use style="fill:#0000ff;fill-opacity:0.3;stroke:#0000ff;stroke-opacity:0.3;" x="103.624478" xlink:href="#mb2b31f569f" y="362.739905"/>
     <use style="fill:#0000ff;fill-opacity:0.3;stroke:#0000ff;stroke-opacity:0.3;" x="82.485032" xlink:href="#mb2b31f569f" y="413.061458"/>
     <use style="fill:#0000ff;fill-opacity:0.3;stroke:#0000ff;stroke-opacity:0.3;" x="93.242923" xlink:href="#mb2b31f569f" y="387.532368"/>
     <use style="fill:#0000ff;fill-opacity:0.3;stroke:#0000ff;stroke-opacity:0.3;" x="130.872571" xlink:href="#mb2b31f569f" y="397.126651"/>
     <use style="fill:#0000ff;fill-opacity:0.3;stroke:#0000ff;stroke-opacity:0.3;" x="166.254011" xlink:href="#mb2b31f569f" y="323.794098"/>
     <use style="fill:#0000ff;fill-opacity:0.3;stroke:#0000ff;stroke-opacity:0.3;" x="194.618182" xlink:href="#mb2b31f569f" y="188.456466"/>
     <use style="fill:#0000ff;fill-opacity:0.3;stroke:#0000ff;stroke-opacity:0.3;" x="352.314559" xlink:href="#mb2b31f569f" y="287.97845"/>
     <use style="fill:#0000ff;fill-opacity:0.3;stroke:#0000ff;stroke-opacity:0.3;" x="79.87489" xlink:href="#mb2b31f569f" y="410.612398"/>
     <use style="fill:#0000ff;fill-opacity:0.3;stroke:#0000ff;stroke-opacity:0.3;" x="374.487083" xlink:href="#mb2b31f569f" y="92.84091"/>
     <use style="fill:#0000ff;fill-opacity:0.3;stroke:#0000ff;stroke-opacity:0.3;" x="69.439589" xlink:href="#mb2b31f569f" y="403.947243"/>
     <use style="fill:#0000ff;fill-opacity:0.3;stroke:#0000ff;stroke-opacity:0.3;" x="376.77585" xlink:href="#mb2b31f569f" y="107.636476"/>
     <use style="fill:#0000ff;fill-opacity:0.3;stroke:#0000ff;stroke-opacity:0.3;" x="95.434567" xlink:href="#mb2b31f569f" y="398.759547"/>
     <use style="fill:#0000ff;fill-opacity:0.3;stroke:#0000ff;stroke-opacity:0.3;" x="68.909894" xlink:href="#mb2b31f569f" y="407.64672"/>
     <use style="fill:#0000ff;fill-opacity:0.3;stroke:#0000ff;stroke-opacity:0.3;" x="85.313204" xlink:href="#mb2b31f569f" y="397.276337"/>
     <use style="fill:#0000ff;fill-opacity:0.3;stroke:#0000ff;stroke-opacity:0.3;" x="206.683047" xlink:href="#mb2b31f569f" y="349.66562"/>
    </g>
   </g>
   <g id="patch_3">
    <path d="M 58.5 416.52 
L 58.5 56.16 
" style="fill:none;stroke:#000000;stroke-linecap:square;stroke-linejoin:miter;stroke-width:0.8;"/>
   </g>
   <g id="patch_4">
    <path d="M 421.2 416.52 
L 421.2 56.16 
" style="fill:none;stroke:#000000;stroke-linecap:square;stroke-linejoin:miter;stroke-width:0.8;"/>
   </g>
   <g id="patch_5">
    <path d="M 58.5 416.52 
L 421.2 416.52 
" style="fill:none;stroke:#000000;stroke-linecap:square;stroke-linejoin:miter;stroke-width:0.8;"/>
   </g>
   <g id="patch_6">
    <path d="M 58.5 56.16 
L 421.2 56.16 
" style="fill:none;stroke:#000000;stroke-linecap:square;stroke-linejoin:miter;stroke-width:0.8;"/>
   </g>
   <g id="text_15">
    <!-- JB50 -->
    <g transform="translate(88.610476 394.000337)scale(0.16 -0.16)">
     <defs>
      <path d="M 184 1300 
L 731 1375 
Q 753 850 928 656 
Q 1103 463 1413 463 
Q 1641 463 1806 567 
Q 1972 672 2034 851 
Q 2097 1031 2097 1425 
L 2097 4581 
L 2703 4581 
L 2703 1459 
Q 2703 884 2564 568 
Q 2425 253 2123 87 
Q 1822 -78 1416 -78 
Q 813 -78 492 269 
Q 172 616 184 1300 
z
" id="ArialMT-4a" transform="scale(0.015625)"/>
      <path d="M 469 0 
L 469 4581 
L 2188 4581 
Q 2713 4581 3030 4442 
Q 3347 4303 3526 4014 
Q 3706 3725 3706 3409 
Q 3706 3116 3547 2856 
Q 3388 2597 3066 2438 
Q 3481 2316 3704 2022 
Q 3928 1728 3928 1328 
Q 3928 1006 3792 729 
Q 3656 453 3456 303 
Q 3256 153 2954 76 
Q 2653 0 2216 0 
L 469 0 
z
M 1075 2656 
L 2066 2656 
Q 2469 2656 2644 2709 
Q 2875 2778 2992 2937 
Q 3109 3097 3109 3338 
Q 3109 3566 3000 3739 
Q 2891 3913 2687 3977 
Q 2484 4041 1991 4041 
L 1075 4041 
L 1075 2656 
z
M 1075 541 
L 2216 541 
Q 2509 541 2628 563 
Q 2838 600 2978 687 
Q 3119 775 3209 942 
Q 3300 1109 3300 1328 
Q 3300 1584 3169 1773 
Q 3038 1963 2805 2039 
Q 2572 2116 2134 2116 
L 1075 2116 
L 1075 541 
z
" id="ArialMT-42" transform="scale(0.015625)"/>
      <path d="M 266 1200 
L 856 1250 
Q 922 819 1161 601 
Q 1400 384 1738 384 
Q 2144 384 2425 690 
Q 2706 997 2706 1503 
Q 2706 1984 2436 2262 
Q 2166 2541 1728 2541 
Q 1456 2541 1237 2417 
Q 1019 2294 894 2097 
L 366 2166 
L 809 4519 
L 3088 4519 
L 3088 3981 
L 1259 3981 
L 1013 2750 
Q 1425 3038 1878 3038 
Q 2478 3038 2890 2622 
Q 3303 2206 3303 1553 
Q 3303 931 2941 478 
Q 2500 -78 1738 -78 
Q 1113 -78 717 272 
Q 322 622 266 1200 
z
" id="ArialMT-35" transform="scale(0.015625)"/>
     </defs>
     <use xlink:href="#ArialMT-4a"/>
     <use x="50" xlink:href="#ArialMT-42"/>
     <use x="116.699219" xlink:href="#ArialMT-35"/>
     <use x="172.314453" xlink:href="#ArialMT-30"/>
    </g>
   </g>
   <g id="text_16">
    <!-- JB759 -->
    <g transform="translate(209.980319 346.38962)scale(0.16 -0.16)">
     <defs>
      <path d="M 303 3981 
L 303 4522 
L 3269 4522 
L 3269 4084 
Q 2831 3619 2401 2847 
Q 1972 2075 1738 1259 
Q 1569 684 1522 0 
L 944 0 
Q 953 541 1156 1306 
Q 1359 2072 1739 2783 
Q 2119 3494 2547 3981 
L 303 3981 
z
" id="ArialMT-37" transform="scale(0.015625)"/>
      <path d="M 350 1059 
L 891 1109 
Q 959 728 1153 556 
Q 1347 384 1650 384 
Q 1909 384 2104 503 
Q 2300 622 2425 820 
Q 2550 1019 2634 1356 
Q 2719 1694 2719 2044 
Q 2719 2081 2716 2156 
Q 2547 1888 2255 1720 
Q 1963 1553 1622 1553 
Q 1053 1553 659 1965 
Q 266 2378 266 3053 
Q 266 3750 677 4175 
Q 1088 4600 1706 4600 
Q 2153 4600 2523 4359 
Q 2894 4119 3086 3673 
Q 3278 3228 3278 2384 
Q 3278 1506 3087 986 
Q 2897 466 2520 194 
Q 2144 -78 1638 -78 
Q 1100 -78 759 220 
Q 419 519 350 1059 
z
M 2653 3081 
Q 2653 3566 2395 3850 
Q 2138 4134 1775 4134 
Q 1400 4134 1122 3828 
Q 844 3522 844 3034 
Q 844 2597 1108 2323 
Q 1372 2050 1759 2050 
Q 2150 2050 2401 2323 
Q 2653 2597 2653 3081 
z
" id="ArialMT-39" transform="scale(0.015625)"/>
     </defs>
     <use xlink:href="#ArialMT-4a"/>
     <use x="50" xlink:href="#ArialMT-42"/>
     <use x="116.699219" xlink:href="#ArialMT-37"/>
     <use x="172.314453" xlink:href="#ArialMT-35"/>
     <use x="227.929688" xlink:href="#ArialMT-39"/>
    </g>
   </g>
   <g id="text_17">
    <!-- Pearson correlation coefficient: 0.88 -->
    <g transform="translate(91.472727 88.92)scale(0.2 -0.2)">
     <defs>
      <path d="M 494 0 
L 494 4581 
L 2222 4581 
Q 2678 4581 2919 4538 
Q 3256 4481 3484 4323 
Q 3713 4166 3852 3881 
Q 3991 3597 3991 3256 
Q 3991 2672 3619 2267 
Q 3247 1863 2275 1863 
L 1100 1863 
L 1100 0 
L 494 0 
z
M 1100 2403 
L 2284 2403 
Q 2872 2403 3119 2622 
Q 3366 2841 3366 3238 
Q 3366 3525 3220 3729 
Q 3075 3934 2838 4000 
Q 2684 4041 2272 4041 
L 1100 4041 
L 1100 2403 
z
" id="ArialMT-50" transform="scale(0.015625)"/>
      <path d="M 578 2678 
L 578 3319 
L 1219 3319 
L 1219 2678 
L 578 2678 
z
M 578 0 
L 578 641 
L 1219 641 
L 1219 0 
L 578 0 
z
" id="ArialMT-3a" transform="scale(0.015625)"/>
     </defs>
     <use xlink:href="#ArialMT-50"/>
     <use x="66.699219" xlink:href="#ArialMT-65"/>
     <use x="122.314453" xlink:href="#ArialMT-61"/>
     <use x="177.929688" xlink:href="#ArialMT-72"/>
     <use x="211.230469" xlink:href="#ArialMT-73"/>
     <use x="261.230469" xlink:href="#ArialMT-6f"/>
     <use x="316.845703" xlink:href="#ArialMT-6e"/>
     <use x="372.460938" xlink:href="#ArialMT-20"/>
     <use x="400.244141" xlink:href="#ArialMT-63"/>
     <use x="450.244141" xlink:href="#ArialMT-6f"/>
     <use x="505.859375" xlink:href="#ArialMT-72"/>
     <use x="539.160156" xlink:href="#ArialMT-72"/>
     <use x="572.460938" xlink:href="#ArialMT-65"/>
     <use x="628.076172" xlink:href="#ArialMT-6c"/>
     <use x="650.292969" xlink:href="#ArialMT-61"/>
     <use x="705.908203" xlink:href="#ArialMT-74"/>
     <use x="733.691406" xlink:href="#ArialMT-69"/>
     <use x="755.908203" xlink:href="#ArialMT-6f"/>
     <use x="811.523438" xlink:href="#ArialMT-6e"/>
     <use x="867.138672" xlink:href="#ArialMT-20"/>
     <use x="894.921875" xlink:href="#ArialMT-63"/>
     <use x="944.921875" xlink:href="#ArialMT-6f"/>
     <use x="1000.537109" xlink:href="#ArialMT-65"/>
     <use x="1056.152344" xlink:href="#ArialMT-66"/>
     <use x="1082.185547" xlink:href="#ArialMT-66"/>
     <use x="1109.96875" xlink:href="#ArialMT-69"/>
     <use x="1132.185547" xlink:href="#ArialMT-63"/>
     <use x="1182.185547" xlink:href="#ArialMT-69"/>
     <use x="1204.402344" xlink:href="#ArialMT-65"/>
     <use x="1260.017578" xlink:href="#ArialMT-6e"/>
     <use x="1315.632812" xlink:href="#ArialMT-74"/>
     <use x="1343.416016" xlink:href="#ArialMT-3a"/>
     <use x="1371.199219" xlink:href="#ArialMT-20"/>
     <use x="1398.982422" xlink:href="#ArialMT-30"/>
     <use x="1454.597656" xlink:href="#ArialMT-2e"/>
     <use x="1482.380859" xlink:href="#ArialMT-38"/>
     <use x="1537.996094" xlink:href="#ArialMT-38"/>
    </g>
   </g>
   <g id="text_18">
    <!-- P-value: 4.1e-19 -->
    <g transform="translate(91.472727 121.68)scale(0.22 -0.22)">
     <defs>
      <path d="M 203 1375 
L 203 1941 
L 1931 1941 
L 1931 1375 
L 203 1375 
z
" id="ArialMT-2d" transform="scale(0.015625)"/>
      <path d="M 1344 0 
L 81 3319 
L 675 3319 
L 1388 1331 
Q 1503 1009 1600 663 
Q 1675 925 1809 1294 
L 2547 3319 
L 3125 3319 
L 1869 0 
L 1344 0 
z
" id="ArialMT-76" transform="scale(0.015625)"/>
     </defs>
     <use xlink:href="#ArialMT-50"/>
     <use x="66.699219" xlink:href="#ArialMT-2d"/>
     <use x="100" xlink:href="#ArialMT-76"/>
     <use x="150" xlink:href="#ArialMT-61"/>
     <use x="205.615234" xlink:href="#ArialMT-6c"/>
     <use x="227.832031" xlink:href="#ArialMT-75"/>
     <use x="283.447266" xlink:href="#ArialMT-65"/>
     <use x="339.0625" xlink:href="#ArialMT-3a"/>
     <use x="366.845703" xlink:href="#ArialMT-20"/>
     <use x="394.628906" xlink:href="#ArialMT-34"/>
     <use x="450.244141" xlink:href="#ArialMT-2e"/>
     <use x="478.027344" xlink:href="#ArialMT-31"/>
     <use x="533.642578" xlink:href="#ArialMT-65"/>
     <use x="589.257812" xlink:href="#ArialMT-2d"/>
     <use x="622.558594" xlink:href="#ArialMT-31"/>
     <use x="678.173828" xlink:href="#ArialMT-39"/>
    </g>
   </g>
   <g id="text_19">
    <!-- JB50-JB759 Segregant library, EMM -->
    <g transform="translate(54.069297 50.16)scale(0.23 -0.23)">
     <defs>
      <path d="M 288 1472 
L 859 1522 
Q 900 1178 1048 958 
Q 1197 738 1509 602 
Q 1822 466 2213 466 
Q 2559 466 2825 569 
Q 3091 672 3220 851 
Q 3350 1031 3350 1244 
Q 3350 1459 3225 1620 
Q 3100 1781 2813 1891 
Q 2628 1963 1997 2114 
Q 1366 2266 1113 2400 
Q 784 2572 623 2826 
Q 463 3081 463 3397 
Q 463 3744 659 4045 
Q 856 4347 1234 4503 
Q 1613 4659 2075 4659 
Q 2584 4659 2973 4495 
Q 3363 4331 3572 4012 
Q 3781 3694 3797 3291 
L 3216 3247 
Q 3169 3681 2898 3903 
Q 2628 4125 2100 4125 
Q 1550 4125 1298 3923 
Q 1047 3722 1047 3438 
Q 1047 3191 1225 3031 
Q 1400 2872 2139 2705 
Q 2878 2538 3153 2413 
Q 3553 2228 3743 1945 
Q 3934 1663 3934 1294 
Q 3934 928 3725 604 
Q 3516 281 3123 101 
Q 2731 -78 2241 -78 
Q 1619 -78 1198 103 
Q 778 284 539 648 
Q 300 1013 288 1472 
z
" id="ArialMT-53" transform="scale(0.015625)"/>
      <path d="M 941 0 
L 419 0 
L 419 4581 
L 981 4581 
L 981 2947 
Q 1338 3394 1891 3394 
Q 2197 3394 2470 3270 
Q 2744 3147 2920 2923 
Q 3097 2700 3197 2384 
Q 3297 2069 3297 1709 
Q 3297 856 2875 390 
Q 2453 -75 1863 -75 
Q 1275 -75 941 416 
L 941 0 
z
M 934 1684 
Q 934 1088 1097 822 
Q 1363 388 1816 388 
Q 2184 388 2453 708 
Q 2722 1028 2722 1663 
Q 2722 2313 2464 2622 
Q 2206 2931 1841 2931 
Q 1472 2931 1203 2611 
Q 934 2291 934 1684 
z
" id="ArialMT-62" transform="scale(0.015625)"/>
      <path d="M 569 0 
L 569 641 
L 1209 641 
L 1209 0 
Q 1209 -353 1084 -570 
Q 959 -788 688 -906 
L 531 -666 
Q 709 -588 793 -436 
Q 878 -284 888 0 
L 569 0 
z
" id="ArialMT-2c" transform="scale(0.015625)"/>
      <path d="M 506 0 
L 506 4581 
L 3819 4581 
L 3819 4041 
L 1113 4041 
L 1113 2638 
L 3647 2638 
L 3647 2100 
L 1113 2100 
L 1113 541 
L 3925 541 
L 3925 0 
L 506 0 
z
" id="ArialMT-45" transform="scale(0.015625)"/>
      <path d="M 475 0 
L 475 4581 
L 1388 4581 
L 2472 1338 
Q 2622 884 2691 659 
Q 2769 909 2934 1394 
L 4031 4581 
L 4847 4581 
L 4847 0 
L 4263 0 
L 4263 3834 
L 2931 0 
L 2384 0 
L 1059 3900 
L 1059 0 
L 475 0 
z
" id="ArialMT-4d" transform="scale(0.015625)"/>
     </defs>
     <use xlink:href="#ArialMT-4a"/>
     <use x="50" xlink:href="#ArialMT-42"/>
     <use x="116.699219" xlink:href="#ArialMT-35"/>
     <use x="172.314453" xlink:href="#ArialMT-30"/>
     <use x="227.929688" xlink:href="#ArialMT-2d"/>
     <use x="261.230469" xlink:href="#ArialMT-4a"/>
     <use x="311.230469" xlink:href="#ArialMT-42"/>
     <use x="377.929688" xlink:href="#ArialMT-37"/>
     <use x="433.544922" xlink:href="#ArialMT-35"/>
     <use x="489.160156" xlink:href="#ArialMT-39"/>
     <use x="544.775391" xlink:href="#ArialMT-20"/>
     <use x="572.558594" xlink:href="#ArialMT-53"/>
     <use x="639.257812" xlink:href="#ArialMT-65"/>
     <use x="694.873047" xlink:href="#ArialMT-67"/>
     <use x="750.488281" xlink:href="#ArialMT-72"/>
     <use x="783.789062" xlink:href="#ArialMT-65"/>
     <use x="839.404297" xlink:href="#ArialMT-67"/>
     <use x="895.019531" xlink:href="#ArialMT-61"/>
     <use x="950.634766" xlink:href="#ArialMT-6e"/>
     <use x="1006.25" xlink:href="#ArialMT-74"/>
     <use x="1034.033203" xlink:href="#ArialMT-20"/>
     <use x="1061.816406" xlink:href="#ArialMT-6c"/>
     <use x="1084.033203" xlink:href="#ArialMT-69"/>
     <use x="1106.25" xlink:href="#ArialMT-62"/>
     <use x="1161.865234" xlink:href="#ArialMT-72"/>
     <use x="1195.166016" xlink:href="#ArialMT-61"/>
     <use x="1250.78125" xlink:href="#ArialMT-72"/>
     <use x="1284.082031" xlink:href="#ArialMT-79"/>
     <use x="1326.707031" xlink:href="#ArialMT-2c"/>
     <use x="1354.490234" xlink:href="#ArialMT-20"/>
     <use x="1382.273438" xlink:href="#ArialMT-45"/>
     <use x="1448.972656" xlink:href="#ArialMT-4d"/>
     <use x="1532.273438" xlink:href="#ArialMT-4d"/>
    </g>
   </g>
  </g>
 </g>
 <defs>
  <clipPath id="p6ea301590c">
   <rect height="360.36" width="362.7" x="58.5" y="56.16"/>
  </clipPath>
 </defs>
</svg>
