<?xml version="1.0" encoding="utf-8" standalone="no"?>
<!DOCTYPE svg PUBLIC "-//W3C//DTD SVG 1.1//EN"
  "http://www.w3.org/Graphics/SVG/1.1/DTD/svg11.dtd">
<svg height="720pt" version="1.1" viewBox="0 0 1440 720" width="1440pt" xmlns="http://www.w3.org/2000/svg" xmlns:xlink="http://www.w3.org/1999/xlink">
 <metadata>
  <rdf:RDF xmlns:cc="http://creativecommons.org/ns#" xmlns:dc="http://purl.org/dc/elements/1.1/" xmlns:rdf="http://www.w3.org/1999/02/22-rdf-syntax-ns#">
   <cc:Work>
    <dc:type rdf:resource="http://purl.org/dc/dcmitype/StillImage"/>
    <dc:date>2023-07-06T12:04:28.209038</dc:date>
    <dc:format>image/svg+xml</dc:format>
    <dc:creator>
     <cc:Agent>
      <dc:title>Matplotlib v3.4.3, https://matplotlib.org/</dc:title>
     </cc:Agent>
    </dc:creator>
   </cc:Work>
  </rdf:RDF>
 </metadata>
 <defs>
  <style type="text/css">*{stroke-linecap:butt;stroke-linejoin:round;}</style>
 </defs>
 <g id="figure_1">
  <g id="patch_1">
   <path d="M 0 720 
L 1440 720 
L 1440 0 
L 0 0 
z
" style="fill:#ffffff;"/>
  </g>
  <g id="axes_1">
   <g id="patch_2">
    <path d="M 180 640.8 
L 1296 640.8 
L 1296 86.4 
L 180 86.4 
z
" style="fill:#ffffff;"/>
   </g>
   <g id="patch_3">
    <path clip-path="url(#p035e832b82)" d="M 235.8 560.876459 
L 682.2 560.876459 
L 682.2 424.174971 
L 235.8 424.174971 
L 235.8 560.876459 
z
" style="fill:#3274a1;stroke:#3f3f3f;stroke-linejoin:miter;stroke-width:1.5;"/>
   </g>
   <g id="patch_4">
    <path clip-path="url(#p035e832b82)" d="M 793.8 600.601512 
L 1240.2 600.601512 
L 1240.2 574.306453 
L 793.8 574.306453 
L 793.8 600.601512 
z
" style="fill:#e1812c;stroke:#3f3f3f;stroke-linejoin:miter;stroke-width:1.5;"/>
   </g>
   <g id="PathCollection_1">
    <defs>
     <path d="M 0 7.071068 
C 1.875269 7.071068 3.673985 6.326016 5 5 
C 6.326016 3.673985 7.071068 1.875269 7.071068 0 
C 7.071068 -1.875269 6.326016 -3.673985 5 -5 
C 3.673985 -6.326016 1.875269 -7.071068 0 -7.071068 
C -1.875269 -7.071068 -3.673985 -6.326016 -5 -5 
C -6.326016 -3.673985 -7.071068 -1.875269 -7.071068 0 
C -7.071068 1.875269 -6.326016 3.673985 -5 5 
C -3.673985 6.326016 -1.875269 7.071068 0 7.071068 
z
" id="m2a6f425164" style="stroke:#000000;stroke-opacity:0.5;stroke-width:1.131371;"/>
    </defs>
    <g clip-path="url(#p035e832b82)">
     <use style="fill-opacity:0.5;stroke:#000000;stroke-opacity:0.5;stroke-width:1.131371;" x="1012.766325" xlink:href="#m2a6f425164" y="520.657311"/>
     <use style="fill-opacity:0.5;stroke:#000000;stroke-opacity:0.5;stroke-width:1.131371;" x="433.07669" xlink:href="#m2a6f425164" y="588.057584"/>
     <use style="fill-opacity:0.5;stroke:#000000;stroke-opacity:0.5;stroke-width:1.131371;" x="466.292742" xlink:href="#m2a6f425164" y="584.328788"/>
     <use style="fill-opacity:0.5;stroke:#000000;stroke-opacity:0.5;stroke-width:1.131371;" x="447.236576" xlink:href="#m2a6f425164" y="517.293134"/>
     <use style="fill-opacity:0.5;stroke:#000000;stroke-opacity:0.5;stroke-width:1.131371;" x="1027.48444" xlink:href="#m2a6f425164" y="346.90371"/>
     <use style="fill-opacity:0.5;stroke:#000000;stroke-opacity:0.5;stroke-width:1.131371;" x="1096.97354" xlink:href="#m2a6f425164" y="605.946646"/>
     <use style="fill-opacity:0.5;stroke:#000000;stroke-opacity:0.5;stroke-width:1.131371;" x="538.399162" xlink:href="#m2a6f425164" y="524.849119"/>
     <use style="fill-opacity:0.5;stroke:#000000;stroke-opacity:0.5;stroke-width:1.131371;" x="944.19288" xlink:href="#m2a6f425164" y="593.762357"/>
     <use style="fill-opacity:0.5;stroke:#000000;stroke-opacity:0.5;stroke-width:1.131371;" x="907.64774" xlink:href="#m2a6f425164" y="594.766587"/>
     <use style="fill-opacity:0.5;stroke:#000000;stroke-opacity:0.5;stroke-width:1.131371;" x="929.99177" xlink:href="#m2a6f425164" y="593.764313"/>
     <use style="fill-opacity:0.5;stroke:#000000;stroke-opacity:0.5;stroke-width:1.131371;" x="1011.77528" xlink:href="#m2a6f425164" y="382.862842"/>
     <use style="fill-opacity:0.5;stroke:#000000;stroke-opacity:0.5;stroke-width:1.131371;" x="986.481107" xlink:href="#m2a6f425164" y="595.004405"/>
     <use style="fill-opacity:0.5;stroke:#000000;stroke-opacity:0.5;stroke-width:1.131371;" x="962.812152" xlink:href="#m2a6f425164" y="579.522464"/>
     <use style="fill-opacity:0.5;stroke:#000000;stroke-opacity:0.5;stroke-width:1.131371;" x="1135.036882" xlink:href="#m2a6f425164" y="602.923906"/>
     <use style="fill-opacity:0.5;stroke:#000000;stroke-opacity:0.5;stroke-width:1.131371;" x="442.944731" xlink:href="#m2a6f425164" y="111.6"/>
     <use style="fill-opacity:0.5;stroke:#000000;stroke-opacity:0.5;stroke-width:1.131371;" x="1040.91137" xlink:href="#m2a6f425164" y="581.363613"/>
     <use style="fill-opacity:0.5;stroke:#000000;stroke-opacity:0.5;stroke-width:1.131371;" x="508.491443" xlink:href="#m2a6f425164" y="536.411107"/>
     <use style="fill-opacity:0.5;stroke:#000000;stroke-opacity:0.5;stroke-width:1.131371;" x="955.58184" xlink:href="#m2a6f425164" y="538.787809"/>
     <use style="fill-opacity:0.5;stroke:#000000;stroke-opacity:0.5;stroke-width:1.131371;" x="1069.096177" xlink:href="#m2a6f425164" y="604.203392"/>
     <use style="fill-opacity:0.5;stroke:#000000;stroke-opacity:0.5;stroke-width:1.131371;" x="1133.120844" xlink:href="#m2a6f425164" y="604.355316"/>
     <use style="fill-opacity:0.5;stroke:#000000;stroke-opacity:0.5;stroke-width:1.131371;" x="1007.327562" xlink:href="#m2a6f425164" y="607.867021"/>
     <use style="fill-opacity:0.5;stroke:#000000;stroke-opacity:0.5;stroke-width:1.131371;" x="504.770312" xlink:href="#m2a6f425164" y="281.096979"/>
     <use style="fill-opacity:0.5;stroke:#000000;stroke-opacity:0.5;stroke-width:1.131371;" x="1142.965559" xlink:href="#m2a6f425164" y="589.868615"/>
     <use style="fill-opacity:0.5;stroke:#000000;stroke-opacity:0.5;stroke-width:1.131371;" x="1004.184701" xlink:href="#m2a6f425164" y="591.875356"/>
     <use style="fill-opacity:0.5;stroke:#000000;stroke-opacity:0.5;stroke-width:1.131371;" x="957.896291" xlink:href="#m2a6f425164" y="599.824224"/>
     <use style="fill-opacity:0.5;stroke:#000000;stroke-opacity:0.5;stroke-width:1.131371;" x="956.798117" xlink:href="#m2a6f425164" y="602.077625"/>
     <use style="fill-opacity:0.5;stroke:#000000;stroke-opacity:0.5;stroke-width:1.131371;" x="1068.892446" xlink:href="#m2a6f425164" y="610.797154"/>
     <use style="fill-opacity:0.5;stroke:#000000;stroke-opacity:0.5;stroke-width:1.131371;" x="545.077455" xlink:href="#m2a6f425164" y="509.251636"/>
     <use style="fill-opacity:0.5;stroke:#000000;stroke-opacity:0.5;stroke-width:1.131371;" x="555.629798" xlink:href="#m2a6f425164" y="460.642455"/>
     <use style="fill-opacity:0.5;stroke:#000000;stroke-opacity:0.5;stroke-width:1.131371;" x="454.395544" xlink:href="#m2a6f425164" y="615.6"/>
     <use style="fill-opacity:0.5;stroke:#000000;stroke-opacity:0.5;stroke-width:1.131371;" x="1118.886917" xlink:href="#m2a6f425164" y="580.625936"/>
     <use style="fill-opacity:0.5;stroke:#000000;stroke-opacity:0.5;stroke-width:1.131371;" x="448.956353" xlink:href="#m2a6f425164" y="575.833946"/>
     <use style="fill-opacity:0.5;stroke:#000000;stroke-opacity:0.5;stroke-width:1.131371;" x="927.807573" xlink:href="#m2a6f425164" y="581.462035"/>
     <use style="fill-opacity:0.5;stroke:#000000;stroke-opacity:0.5;stroke-width:1.131371;" x="377.416902" xlink:href="#m2a6f425164" y="436.68005"/>
     <use style="fill-opacity:0.5;stroke:#000000;stroke-opacity:0.5;stroke-width:1.131371;" x="522.506289" xlink:href="#m2a6f425164" y="545.918971"/>
     <use style="fill-opacity:0.5;stroke:#000000;stroke-opacity:0.5;stroke-width:1.131371;" x="957.800911" xlink:href="#m2a6f425164" y="574.306453"/>
     <use style="fill-opacity:0.5;stroke:#000000;stroke-opacity:0.5;stroke-width:1.131371;" x="1087.658335" xlink:href="#m2a6f425164" y="600.601512"/>
     <use style="fill-opacity:0.5;stroke:#000000;stroke-opacity:0.5;stroke-width:1.131371;" x="447.476521" xlink:href="#m2a6f425164" y="188.522086"/>
     <use style="fill-opacity:0.5;stroke:#000000;stroke-opacity:0.5;stroke-width:1.131371;" x="1097.560162" xlink:href="#m2a6f425164" y="553.208126"/>
     <use style="fill-opacity:0.5;stroke:#000000;stroke-opacity:0.5;stroke-width:1.131371;" x="1040.036734" xlink:href="#m2a6f425164" y="499.014233"/>
     <use style="fill-opacity:0.5;stroke:#000000;stroke-opacity:0.5;stroke-width:1.131371;" x="1088.054147" xlink:href="#m2a6f425164" y="588.33928"/>
     <use style="fill-opacity:0.5;stroke:#000000;stroke-opacity:0.5;stroke-width:1.131371;" x="1026.280368" xlink:href="#m2a6f425164" y="565.239553"/>
     <use style="fill-opacity:0.5;stroke:#000000;stroke-opacity:0.5;stroke-width:1.131371;" x="588.288444" xlink:href="#m2a6f425164" y="411.669891"/>
     <use style="fill-opacity:0.5;stroke:#000000;stroke-opacity:0.5;stroke-width:1.131371;" x="1030.466263" xlink:href="#m2a6f425164" y="576.724346"/>
    </g>
   </g>
   <g id="matplotlib.axis_1">
    <g id="xtick_1">
     <g id="line2d_1">
      <defs>
       <path d="M 0 0 
L 0 3.5 
" id="m0dff702713" style="stroke:#000000;stroke-width:0.8;"/>
      </defs>
      <g>
       <use style="stroke:#000000;stroke-width:0.8;" x="459" xlink:href="#m0dff702713" y="640.8"/>
      </g>
     </g>
     <g id="text_1">
      <!-- 0.0 -->
      <g transform="translate(452.05 654.957813)scale(0.1 -0.1)">
       <defs>
        <path d="M 266 2259 
Q 266 3072 433 3567 
Q 600 4063 929 4331 
Q 1259 4600 1759 4600 
Q 2128 4600 2406 4451 
Q 2684 4303 2865 4023 
Q 3047 3744 3150 3342 
Q 3253 2941 3253 2259 
Q 3253 1453 3087 958 
Q 2922 463 2592 192 
Q 2263 -78 1759 -78 
Q 1097 -78 719 397 
Q 266 969 266 2259 
z
M 844 2259 
Q 844 1131 1108 757 
Q 1372 384 1759 384 
Q 2147 384 2411 759 
Q 2675 1134 2675 2259 
Q 2675 3391 2411 3762 
Q 2147 4134 1753 4134 
Q 1366 4134 1134 3806 
Q 844 3388 844 2259 
z
" id="ArialMT-30" transform="scale(0.015625)"/>
        <path d="M 581 0 
L 581 641 
L 1222 641 
L 1222 0 
L 581 0 
z
" id="ArialMT-2e" transform="scale(0.015625)"/>
       </defs>
       <use xlink:href="#ArialMT-30"/>
       <use x="55.615234" xlink:href="#ArialMT-2e"/>
       <use x="83.398438" xlink:href="#ArialMT-30"/>
      </g>
     </g>
    </g>
    <g id="xtick_2">
     <g id="line2d_2">
      <g>
       <use style="stroke:#000000;stroke-width:0.8;" x="1017" xlink:href="#m0dff702713" y="640.8"/>
      </g>
     </g>
     <g id="text_2">
      <!-- 1.0 -->
      <g transform="translate(1010.05 654.957813)scale(0.1 -0.1)">
       <defs>
        <path d="M 2384 0 
L 1822 0 
L 1822 3584 
Q 1619 3391 1289 3197 
Q 959 3003 697 2906 
L 697 3450 
Q 1169 3672 1522 3987 
Q 1875 4303 2022 4600 
L 2384 4600 
L 2384 0 
z
" id="ArialMT-31" transform="scale(0.015625)"/>
       </defs>
       <use xlink:href="#ArialMT-31"/>
       <use x="55.615234" xlink:href="#ArialMT-2e"/>
       <use x="83.398438" xlink:href="#ArialMT-30"/>
      </g>
     </g>
    </g>
    <g id="text_3">
     <!-- srb_geno -->
     <g transform="translate(717.152344 668.103125)scale(0.1 -0.1)">
      <defs>
       <path d="M 197 991 
L 753 1078 
Q 800 744 1014 566 
Q 1228 388 1613 388 
Q 2000 388 2187 545 
Q 2375 703 2375 916 
Q 2375 1106 2209 1216 
Q 2094 1291 1634 1406 
Q 1016 1563 777 1677 
Q 538 1791 414 1992 
Q 291 2194 291 2438 
Q 291 2659 392 2848 
Q 494 3038 669 3163 
Q 800 3259 1026 3326 
Q 1253 3394 1513 3394 
Q 1903 3394 2198 3281 
Q 2494 3169 2634 2976 
Q 2775 2784 2828 2463 
L 2278 2388 
Q 2241 2644 2061 2787 
Q 1881 2931 1553 2931 
Q 1166 2931 1000 2803 
Q 834 2675 834 2503 
Q 834 2394 903 2306 
Q 972 2216 1119 2156 
Q 1203 2125 1616 2013 
Q 2213 1853 2448 1751 
Q 2684 1650 2818 1456 
Q 2953 1263 2953 975 
Q 2953 694 2789 445 
Q 2625 197 2315 61 
Q 2006 -75 1616 -75 
Q 969 -75 630 194 
Q 291 463 197 991 
z
" id="ArialMT-73" transform="scale(0.015625)"/>
       <path d="M 416 0 
L 416 3319 
L 922 3319 
L 922 2816 
Q 1116 3169 1280 3281 
Q 1444 3394 1641 3394 
Q 1925 3394 2219 3213 
L 2025 2691 
Q 1819 2813 1613 2813 
Q 1428 2813 1281 2702 
Q 1134 2591 1072 2394 
Q 978 2094 978 1738 
L 978 0 
L 416 0 
z
" id="ArialMT-72" transform="scale(0.015625)"/>
       <path d="M 941 0 
L 419 0 
L 419 4581 
L 981 4581 
L 981 2947 
Q 1338 3394 1891 3394 
Q 2197 3394 2470 3270 
Q 2744 3147 2920 2923 
Q 3097 2700 3197 2384 
Q 3297 2069 3297 1709 
Q 3297 856 2875 390 
Q 2453 -75 1863 -75 
Q 1275 -75 941 416 
L 941 0 
z
M 934 1684 
Q 934 1088 1097 822 
Q 1363 388 1816 388 
Q 2184 388 2453 708 
Q 2722 1028 2722 1663 
Q 2722 2313 2464 2622 
Q 2206 2931 1841 2931 
Q 1472 2931 1203 2611 
Q 934 2291 934 1684 
z
" id="ArialMT-62" transform="scale(0.015625)"/>
       <path d="M -97 -1272 
L -97 -866 
L 3631 -866 
L 3631 -1272 
L -97 -1272 
z
" id="ArialMT-5f" transform="scale(0.015625)"/>
       <path d="M 319 -275 
L 866 -356 
Q 900 -609 1056 -725 
Q 1266 -881 1628 -881 
Q 2019 -881 2231 -725 
Q 2444 -569 2519 -288 
Q 2563 -116 2559 434 
Q 2191 0 1641 0 
Q 956 0 581 494 
Q 206 988 206 1678 
Q 206 2153 378 2554 
Q 550 2956 876 3175 
Q 1203 3394 1644 3394 
Q 2231 3394 2613 2919 
L 2613 3319 
L 3131 3319 
L 3131 450 
Q 3131 -325 2973 -648 
Q 2816 -972 2473 -1159 
Q 2131 -1347 1631 -1347 
Q 1038 -1347 672 -1080 
Q 306 -813 319 -275 
z
M 784 1719 
Q 784 1066 1043 766 
Q 1303 466 1694 466 
Q 2081 466 2343 764 
Q 2606 1063 2606 1700 
Q 2606 2309 2336 2618 
Q 2066 2928 1684 2928 
Q 1309 2928 1046 2623 
Q 784 2319 784 1719 
z
" id="ArialMT-67" transform="scale(0.015625)"/>
       <path d="M 2694 1069 
L 3275 997 
Q 3138 488 2766 206 
Q 2394 -75 1816 -75 
Q 1088 -75 661 373 
Q 234 822 234 1631 
Q 234 2469 665 2931 
Q 1097 3394 1784 3394 
Q 2450 3394 2872 2941 
Q 3294 2488 3294 1666 
Q 3294 1616 3291 1516 
L 816 1516 
Q 847 969 1125 678 
Q 1403 388 1819 388 
Q 2128 388 2347 550 
Q 2566 713 2694 1069 
z
M 847 1978 
L 2700 1978 
Q 2663 2397 2488 2606 
Q 2219 2931 1791 2931 
Q 1403 2931 1139 2672 
Q 875 2413 847 1978 
z
" id="ArialMT-65" transform="scale(0.015625)"/>
       <path d="M 422 0 
L 422 3319 
L 928 3319 
L 928 2847 
Q 1294 3394 1984 3394 
Q 2284 3394 2536 3286 
Q 2788 3178 2913 3003 
Q 3038 2828 3088 2588 
Q 3119 2431 3119 2041 
L 3119 0 
L 2556 0 
L 2556 2019 
Q 2556 2363 2490 2533 
Q 2425 2703 2258 2804 
Q 2091 2906 1866 2906 
Q 1506 2906 1245 2678 
Q 984 2450 984 1813 
L 984 0 
L 422 0 
z
" id="ArialMT-6e" transform="scale(0.015625)"/>
       <path d="M 213 1659 
Q 213 2581 725 3025 
Q 1153 3394 1769 3394 
Q 2453 3394 2887 2945 
Q 3322 2497 3322 1706 
Q 3322 1066 3130 698 
Q 2938 331 2570 128 
Q 2203 -75 1769 -75 
Q 1072 -75 642 372 
Q 213 819 213 1659 
z
M 791 1659 
Q 791 1022 1069 705 
Q 1347 388 1769 388 
Q 2188 388 2466 706 
Q 2744 1025 2744 1678 
Q 2744 2294 2464 2611 
Q 2184 2928 1769 2928 
Q 1347 2928 1069 2612 
Q 791 2297 791 1659 
z
" id="ArialMT-6f" transform="scale(0.015625)"/>
      </defs>
      <use xlink:href="#ArialMT-73"/>
      <use x="50" xlink:href="#ArialMT-72"/>
      <use x="83.300781" xlink:href="#ArialMT-62"/>
      <use x="138.916016" xlink:href="#ArialMT-5f"/>
      <use x="194.53125" xlink:href="#ArialMT-67"/>
      <use x="250.146484" xlink:href="#ArialMT-65"/>
      <use x="305.761719" xlink:href="#ArialMT-6e"/>
      <use x="361.376953" xlink:href="#ArialMT-6f"/>
     </g>
    </g>
   </g>
   <g id="matplotlib.axis_2">
    <g id="ytick_1">
     <g id="line2d_3">
      <defs>
       <path d="M 0 0 
L -3.5 0 
" id="m3a23e603ef" style="stroke:#000000;stroke-width:0.8;"/>
      </defs>
      <g>
       <use style="stroke:#000000;stroke-width:0.8;" x="180" xlink:href="#m3a23e603ef" y="618.700272"/>
      </g>
     </g>
     <g id="text_4">
      <!-- 0.0 -->
      <g transform="translate(159.1 622.279178)scale(0.1 -0.1)">
       <use xlink:href="#ArialMT-30"/>
       <use x="55.615234" xlink:href="#ArialMT-2e"/>
       <use x="83.398438" xlink:href="#ArialMT-30"/>
      </g>
     </g>
    </g>
    <g id="ytick_2">
     <g id="line2d_4">
      <g>
       <use style="stroke:#000000;stroke-width:0.8;" x="180" xlink:href="#m3a23e603ef" y="540.635386"/>
      </g>
     </g>
     <g id="text_5">
      <!-- 0.1 -->
      <g transform="translate(159.1 544.214293)scale(0.1 -0.1)">
       <use xlink:href="#ArialMT-30"/>
       <use x="55.615234" xlink:href="#ArialMT-2e"/>
       <use x="83.398438" xlink:href="#ArialMT-31"/>
      </g>
     </g>
    </g>
    <g id="ytick_3">
     <g id="line2d_5">
      <g>
       <use style="stroke:#000000;stroke-width:0.8;" x="180" xlink:href="#m3a23e603ef" y="462.570501"/>
      </g>
     </g>
     <g id="text_6">
      <!-- 0.2 -->
      <g transform="translate(159.1 466.149407)scale(0.1 -0.1)">
       <defs>
        <path d="M 3222 541 
L 3222 0 
L 194 0 
Q 188 203 259 391 
Q 375 700 629 1000 
Q 884 1300 1366 1694 
Q 2113 2306 2375 2664 
Q 2638 3022 2638 3341 
Q 2638 3675 2398 3904 
Q 2159 4134 1775 4134 
Q 1369 4134 1125 3890 
Q 881 3647 878 3216 
L 300 3275 
Q 359 3922 746 4261 
Q 1134 4600 1788 4600 
Q 2447 4600 2831 4234 
Q 3216 3869 3216 3328 
Q 3216 3053 3103 2787 
Q 2991 2522 2730 2228 
Q 2469 1934 1863 1422 
Q 1356 997 1212 845 
Q 1069 694 975 541 
L 3222 541 
z
" id="ArialMT-32" transform="scale(0.015625)"/>
       </defs>
       <use xlink:href="#ArialMT-30"/>
       <use x="55.615234" xlink:href="#ArialMT-2e"/>
       <use x="83.398438" xlink:href="#ArialMT-32"/>
      </g>
     </g>
    </g>
    <g id="ytick_4">
     <g id="line2d_6">
      <g>
       <use style="stroke:#000000;stroke-width:0.8;" x="180" xlink:href="#m3a23e603ef" y="384.505615"/>
      </g>
     </g>
     <g id="text_7">
      <!-- 0.3 -->
      <g transform="translate(159.1 388.084522)scale(0.1 -0.1)">
       <defs>
        <path d="M 269 1209 
L 831 1284 
Q 928 806 1161 595 
Q 1394 384 1728 384 
Q 2125 384 2398 659 
Q 2672 934 2672 1341 
Q 2672 1728 2419 1979 
Q 2166 2231 1775 2231 
Q 1616 2231 1378 2169 
L 1441 2663 
Q 1497 2656 1531 2656 
Q 1891 2656 2178 2843 
Q 2466 3031 2466 3422 
Q 2466 3731 2256 3934 
Q 2047 4138 1716 4138 
Q 1388 4138 1169 3931 
Q 950 3725 888 3313 
L 325 3413 
Q 428 3978 793 4289 
Q 1159 4600 1703 4600 
Q 2078 4600 2393 4439 
Q 2709 4278 2876 4000 
Q 3044 3722 3044 3409 
Q 3044 3113 2884 2869 
Q 2725 2625 2413 2481 
Q 2819 2388 3044 2092 
Q 3269 1797 3269 1353 
Q 3269 753 2831 336 
Q 2394 -81 1725 -81 
Q 1122 -81 723 278 
Q 325 638 269 1209 
z
" id="ArialMT-33" transform="scale(0.015625)"/>
       </defs>
       <use xlink:href="#ArialMT-30"/>
       <use x="55.615234" xlink:href="#ArialMT-2e"/>
       <use x="83.398438" xlink:href="#ArialMT-33"/>
      </g>
     </g>
    </g>
    <g id="ytick_5">
     <g id="line2d_7">
      <g>
       <use style="stroke:#000000;stroke-width:0.8;" x="180" xlink:href="#m3a23e603ef" y="306.44073"/>
      </g>
     </g>
     <g id="text_8">
      <!-- 0.4 -->
      <g transform="translate(159.1 310.019636)scale(0.1 -0.1)">
       <defs>
        <path d="M 2069 0 
L 2069 1097 
L 81 1097 
L 81 1613 
L 2172 4581 
L 2631 4581 
L 2631 1613 
L 3250 1613 
L 3250 1097 
L 2631 1097 
L 2631 0 
L 2069 0 
z
M 2069 1613 
L 2069 3678 
L 634 1613 
L 2069 1613 
z
" id="ArialMT-34" transform="scale(0.015625)"/>
       </defs>
       <use xlink:href="#ArialMT-30"/>
       <use x="55.615234" xlink:href="#ArialMT-2e"/>
       <use x="83.398438" xlink:href="#ArialMT-34"/>
      </g>
     </g>
    </g>
    <g id="ytick_6">
     <g id="line2d_8">
      <g>
       <use style="stroke:#000000;stroke-width:0.8;" x="180" xlink:href="#m3a23e603ef" y="228.375845"/>
      </g>
     </g>
     <g id="text_9">
      <!-- 0.5 -->
      <g transform="translate(159.1 231.954751)scale(0.1 -0.1)">
       <defs>
        <path d="M 266 1200 
L 856 1250 
Q 922 819 1161 601 
Q 1400 384 1738 384 
Q 2144 384 2425 690 
Q 2706 997 2706 1503 
Q 2706 1984 2436 2262 
Q 2166 2541 1728 2541 
Q 1456 2541 1237 2417 
Q 1019 2294 894 2097 
L 366 2166 
L 809 4519 
L 3088 4519 
L 3088 3981 
L 1259 3981 
L 1013 2750 
Q 1425 3038 1878 3038 
Q 2478 3038 2890 2622 
Q 3303 2206 3303 1553 
Q 3303 931 2941 478 
Q 2500 -78 1738 -78 
Q 1113 -78 717 272 
Q 322 622 266 1200 
z
" id="ArialMT-35" transform="scale(0.015625)"/>
       </defs>
       <use xlink:href="#ArialMT-30"/>
       <use x="55.615234" xlink:href="#ArialMT-2e"/>
       <use x="83.398438" xlink:href="#ArialMT-35"/>
      </g>
     </g>
    </g>
    <g id="ytick_7">
     <g id="line2d_9">
      <g>
       <use style="stroke:#000000;stroke-width:0.8;" x="180" xlink:href="#m3a23e603ef" y="150.310959"/>
      </g>
     </g>
     <g id="text_10">
      <!-- 0.6 -->
      <g transform="translate(159.1 153.889865)scale(0.1 -0.1)">
       <defs>
        <path d="M 3184 3459 
L 2625 3416 
Q 2550 3747 2413 3897 
Q 2184 4138 1850 4138 
Q 1581 4138 1378 3988 
Q 1113 3794 959 3422 
Q 806 3050 800 2363 
Q 1003 2672 1297 2822 
Q 1591 2972 1913 2972 
Q 2475 2972 2870 2558 
Q 3266 2144 3266 1488 
Q 3266 1056 3080 686 
Q 2894 316 2569 119 
Q 2244 -78 1831 -78 
Q 1128 -78 684 439 
Q 241 956 241 2144 
Q 241 3472 731 4075 
Q 1159 4600 1884 4600 
Q 2425 4600 2770 4297 
Q 3116 3994 3184 3459 
z
M 888 1484 
Q 888 1194 1011 928 
Q 1134 663 1356 523 
Q 1578 384 1822 384 
Q 2178 384 2434 671 
Q 2691 959 2691 1453 
Q 2691 1928 2437 2201 
Q 2184 2475 1800 2475 
Q 1419 2475 1153 2201 
Q 888 1928 888 1484 
z
" id="ArialMT-36" transform="scale(0.015625)"/>
       </defs>
       <use xlink:href="#ArialMT-30"/>
       <use x="55.615234" xlink:href="#ArialMT-2e"/>
       <use x="83.398438" xlink:href="#ArialMT-36"/>
      </g>
     </g>
    </g>
    <g id="text_11">
     <!-- ratio -->
     <g transform="translate(153.1125 373.325781)rotate(-90)scale(0.1 -0.1)">
      <defs>
       <path d="M 2588 409 
Q 2275 144 1986 34 
Q 1697 -75 1366 -75 
Q 819 -75 525 192 
Q 231 459 231 875 
Q 231 1119 342 1320 
Q 453 1522 633 1644 
Q 813 1766 1038 1828 
Q 1203 1872 1538 1913 
Q 2219 1994 2541 2106 
Q 2544 2222 2544 2253 
Q 2544 2597 2384 2738 
Q 2169 2928 1744 2928 
Q 1347 2928 1158 2789 
Q 969 2650 878 2297 
L 328 2372 
Q 403 2725 575 2942 
Q 747 3159 1072 3276 
Q 1397 3394 1825 3394 
Q 2250 3394 2515 3294 
Q 2781 3194 2906 3042 
Q 3031 2891 3081 2659 
Q 3109 2516 3109 2141 
L 3109 1391 
Q 3109 606 3145 398 
Q 3181 191 3288 0 
L 2700 0 
Q 2613 175 2588 409 
z
M 2541 1666 
Q 2234 1541 1622 1453 
Q 1275 1403 1131 1340 
Q 988 1278 909 1158 
Q 831 1038 831 891 
Q 831 666 1001 516 
Q 1172 366 1500 366 
Q 1825 366 2078 508 
Q 2331 650 2450 897 
Q 2541 1088 2541 1459 
L 2541 1666 
z
" id="ArialMT-61" transform="scale(0.015625)"/>
       <path d="M 1650 503 
L 1731 6 
Q 1494 -44 1306 -44 
Q 1000 -44 831 53 
Q 663 150 594 308 
Q 525 466 525 972 
L 525 2881 
L 113 2881 
L 113 3319 
L 525 3319 
L 525 4141 
L 1084 4478 
L 1084 3319 
L 1650 3319 
L 1650 2881 
L 1084 2881 
L 1084 941 
Q 1084 700 1114 631 
Q 1144 563 1211 522 
Q 1278 481 1403 481 
Q 1497 481 1650 503 
z
" id="ArialMT-74" transform="scale(0.015625)"/>
       <path d="M 425 3934 
L 425 4581 
L 988 4581 
L 988 3934 
L 425 3934 
z
M 425 0 
L 425 3319 
L 988 3319 
L 988 0 
L 425 0 
z
" id="ArialMT-69" transform="scale(0.015625)"/>
      </defs>
      <use xlink:href="#ArialMT-72"/>
      <use x="33.300781" xlink:href="#ArialMT-61"/>
      <use x="88.916016" xlink:href="#ArialMT-74"/>
      <use x="116.699219" xlink:href="#ArialMT-69"/>
      <use x="138.916016" xlink:href="#ArialMT-6f"/>
     </g>
    </g>
   </g>
   <g id="line2d_10">
    <path clip-path="url(#p035e832b82)" d="M 459 560.876459 
L 459 615.6 
" style="fill:none;stroke:#3f3f3f;stroke-linecap:square;stroke-width:1.5;"/>
   </g>
   <g id="line2d_11">
    <path clip-path="url(#p035e832b82)" d="M 459 424.174971 
L 459 281.096979 
" style="fill:none;stroke:#3f3f3f;stroke-linecap:square;stroke-width:1.5;"/>
   </g>
   <g id="line2d_12">
    <path clip-path="url(#p035e832b82)" d="M 347.4 615.6 
L 570.6 615.6 
" style="fill:none;stroke:#3f3f3f;stroke-linecap:square;stroke-width:1.5;"/>
   </g>
   <g id="line2d_13">
    <path clip-path="url(#p035e832b82)" d="M 347.4 281.096979 
L 570.6 281.096979 
" style="fill:none;stroke:#3f3f3f;stroke-linecap:square;stroke-width:1.5;"/>
   </g>
   <g id="line2d_14">
    <path clip-path="url(#p035e832b82)" d="M 1017 600.601512 
L 1017 610.797154 
" style="fill:none;stroke:#3f3f3f;stroke-linecap:square;stroke-width:1.5;"/>
   </g>
   <g id="line2d_15">
    <path clip-path="url(#p035e832b82)" d="M 1017 574.306453 
L 1017 538.787809 
" style="fill:none;stroke:#3f3f3f;stroke-linecap:square;stroke-width:1.5;"/>
   </g>
   <g id="line2d_16">
    <path clip-path="url(#p035e832b82)" d="M 905.4 610.797154 
L 1128.6 610.797154 
" style="fill:none;stroke:#3f3f3f;stroke-linecap:square;stroke-width:1.5;"/>
   </g>
   <g id="line2d_17">
    <path clip-path="url(#p035e832b82)" d="M 905.4 538.787809 
L 1128.6 538.787809 
" style="fill:none;stroke:#3f3f3f;stroke-linecap:square;stroke-width:1.5;"/>
   </g>
   <g id="line2d_18">
    <path clip-path="url(#p035e832b82)" d="M 235.8 517.293134 
L 682.2 517.293134 
" style="fill:none;stroke:#3f3f3f;stroke-linecap:square;stroke-width:1.5;"/>
   </g>
   <g id="line2d_19">
    <path clip-path="url(#p035e832b82)" d="M 793.8 589.868615 
L 1240.2 589.868615 
" style="fill:none;stroke:#3f3f3f;stroke-linecap:square;stroke-width:1.5;"/>
   </g>
   <g id="patch_5">
    <path d="M 180 640.8 
L 180 86.4 
" style="fill:none;stroke:#000000;stroke-linecap:square;stroke-linejoin:miter;stroke-width:0.8;"/>
   </g>
   <g id="patch_6">
    <path d="M 1296 640.8 
L 1296 86.4 
" style="fill:none;stroke:#000000;stroke-linecap:square;stroke-linejoin:miter;stroke-width:0.8;"/>
   </g>
   <g id="patch_7">
    <path d="M 180 640.8 
L 1296 640.8 
" style="fill:none;stroke:#000000;stroke-linecap:square;stroke-linejoin:miter;stroke-width:0.8;"/>
   </g>
   <g id="patch_8">
    <path d="M 180 86.4 
L 1296 86.4 
" style="fill:none;stroke:#000000;stroke-linecap:square;stroke-linejoin:miter;stroke-width:0.8;"/>
   </g>
  </g>
 </g>
 <defs>
  <clipPath id="p035e832b82">
   <rect height="554.4" width="1116" x="180" y="86.4"/>
  </clipPath>
 </defs>
</svg>
