<?xml version="1.0" encoding="utf-8" standalone="no"?>
<!DOCTYPE svg PUBLIC "-//W3C//DTD SVG 1.1//EN"
  "http://www.w3.org/Graphics/SVG/1.1/DTD/svg11.dtd">
<svg xmlns:xlink="http://www.w3.org/1999/xlink" width="432pt" height="432pt" viewBox="0 0 432 432" xmlns="http://www.w3.org/2000/svg" version="1.1">
 <metadata>
  <rdf:RDF xmlns:dc="http://purl.org/dc/elements/1.1/" xmlns:cc="http://creativecommons.org/ns#" xmlns:rdf="http://www.w3.org/1999/02/22-rdf-syntax-ns#">
   <cc:Work>
    <dc:type rdf:resource="http://purl.org/dc/dcmitype/StillImage"/>
    <dc:date>2025-12-19T16:04:07.393872</dc:date>
    <dc:format>image/svg+xml</dc:format>
    <dc:creator>
     <cc:Agent>
      <dc:title>Matplotlib v3.10.1, https://matplotlib.org/</dc:title>
     </cc:Agent>
    </dc:creator>
   </cc:Work>
  </rdf:RDF>
 </metadata>
 <defs>
  <style type="text/css">*{stroke-linejoin: round; stroke-linecap: butt}</style>
 </defs>
 <g id="figure_1">
  <g id="patch_1">
   <path d="M 0 432 
L 432 432 
L 432 0 
L 0 0 
z
" style="fill: #ffffff"/>
  </g>
  <g id="axes_1">
   <g id="patch_2">
    <path d="M 54 384.48 
L 388.8 384.48 
L 388.8 51.84 
L 54 51.84 
z
" style="fill: #ffffff"/>
   </g>
   <g id="matplotlib.axis_1">
    <g id="xtick_1">
     <g id="line2d_1">
      <defs>
       <path id="m11c53369f5" d="M 0 0 
L 0 3.5 
" style="stroke: #000000; stroke-width: 0.8"/>
      </defs>
      <g>
       <use xlink:href="#m11c53369f5" x="136.854545" y="384.48" style="stroke: #000000; stroke-width: 0.8"/>
      </g>
     </g>
     <g id="text_1">
      <!-- YES -->
      <g transform="translate(118.844702 404.364062) scale(0.18 -0.18)">
       <defs>
        <path id="ArialMT-59" d="M 1784 0 
L 1784 1941 
L 19 4581 
L 756 4581 
L 1659 3200 
Q 1909 2813 2125 2425 
Q 2331 2784 2625 3234 
L 3513 4581 
L 4219 4581 
L 2391 1941 
L 2391 0 
L 1784 0 
z
" transform="scale(0.015625)"/>
        <path id="ArialMT-45" d="M 506 0 
L 506 4581 
L 3819 4581 
L 3819 4041 
L 1113 4041 
L 1113 2638 
L 3647 2638 
L 3647 2100 
L 1113 2100 
L 1113 541 
L 3925 541 
L 3925 0 
L 506 0 
z
" transform="scale(0.015625)"/>
        <path id="ArialMT-53" d="M 288 1472 
L 859 1522 
Q 900 1178 1048 958 
Q 1197 738 1509 602 
Q 1822 466 2213 466 
Q 2559 466 2825 569 
Q 3091 672 3220 851 
Q 3350 1031 3350 1244 
Q 3350 1459 3225 1620 
Q 3100 1781 2813 1891 
Q 2628 1963 1997 2114 
Q 1366 2266 1113 2400 
Q 784 2572 623 2826 
Q 463 3081 463 3397 
Q 463 3744 659 4045 
Q 856 4347 1234 4503 
Q 1613 4659 2075 4659 
Q 2584 4659 2973 4495 
Q 3363 4331 3572 4012 
Q 3781 3694 3797 3291 
L 3216 3247 
Q 3169 3681 2898 3903 
Q 2628 4125 2100 4125 
Q 1550 4125 1298 3923 
Q 1047 3722 1047 3438 
Q 1047 3191 1225 3031 
Q 1400 2872 2139 2705 
Q 2878 2538 3153 2413 
Q 3553 2228 3743 1945 
Q 3934 1663 3934 1294 
Q 3934 928 3725 604 
Q 3516 281 3123 101 
Q 2731 -78 2241 -78 
Q 1619 -78 1198 103 
Q 778 284 539 648 
Q 300 1013 288 1472 
z
" transform="scale(0.015625)"/>
       </defs>
       <use xlink:href="#ArialMT-59"/>
       <use xlink:href="#ArialMT-45" transform="translate(66.699219 0)"/>
       <use xlink:href="#ArialMT-53" transform="translate(133.398438 0)"/>
      </g>
     </g>
    </g>
    <g id="xtick_2">
     <g id="line2d_2">
      <g>
       <use xlink:href="#m11c53369f5" x="305.945455" y="384.48" style="stroke: #000000; stroke-width: 0.8"/>
      </g>
     </g>
     <g id="text_2">
      <!-- EMM -->
      <g transform="translate(284.948736 404.364062) scale(0.18 -0.18)">
       <defs>
        <path id="ArialMT-4d" d="M 475 0 
L 475 4581 
L 1388 4581 
L 2472 1338 
Q 2622 884 2691 659 
Q 2769 909 2934 1394 
L 4031 4581 
L 4847 4581 
L 4847 0 
L 4263 0 
L 4263 3834 
L 2931 0 
L 2384 0 
L 1059 3900 
L 1059 0 
L 475 0 
z
" transform="scale(0.015625)"/>
       </defs>
       <use xlink:href="#ArialMT-45"/>
       <use xlink:href="#ArialMT-4d" transform="translate(66.699219 0)"/>
       <use xlink:href="#ArialMT-4d" transform="translate(150 0)"/>
      </g>
     </g>
    </g>
    <g id="text_3">
     <!-- Condition -->
     <g transform="translate(179.151563 426.257187) scale(0.2 -0.2)">
      <defs>
       <path id="ArialMT-43" d="M 3763 1606 
L 4369 1453 
Q 4178 706 3683 314 
Q 3188 -78 2472 -78 
Q 1731 -78 1267 223 
Q 803 525 561 1097 
Q 319 1669 319 2325 
Q 319 3041 592 3573 
Q 866 4106 1370 4382 
Q 1875 4659 2481 4659 
Q 3169 4659 3637 4309 
Q 4106 3959 4291 3325 
L 3694 3184 
Q 3534 3684 3231 3912 
Q 2928 4141 2469 4141 
Q 1941 4141 1586 3887 
Q 1231 3634 1087 3207 
Q 944 2781 944 2328 
Q 944 1744 1114 1308 
Q 1284 872 1643 656 
Q 2003 441 2422 441 
Q 2931 441 3284 734 
Q 3638 1028 3763 1606 
z
" transform="scale(0.015625)"/>
       <path id="ArialMT-6f" d="M 213 1659 
Q 213 2581 725 3025 
Q 1153 3394 1769 3394 
Q 2453 3394 2887 2945 
Q 3322 2497 3322 1706 
Q 3322 1066 3130 698 
Q 2938 331 2570 128 
Q 2203 -75 1769 -75 
Q 1072 -75 642 372 
Q 213 819 213 1659 
z
M 791 1659 
Q 791 1022 1069 705 
Q 1347 388 1769 388 
Q 2188 388 2466 706 
Q 2744 1025 2744 1678 
Q 2744 2294 2464 2611 
Q 2184 2928 1769 2928 
Q 1347 2928 1069 2612 
Q 791 2297 791 1659 
z
" transform="scale(0.015625)"/>
       <path id="ArialMT-6e" d="M 422 0 
L 422 3319 
L 928 3319 
L 928 2847 
Q 1294 3394 1984 3394 
Q 2284 3394 2536 3286 
Q 2788 3178 2913 3003 
Q 3038 2828 3088 2588 
Q 3119 2431 3119 2041 
L 3119 0 
L 2556 0 
L 2556 2019 
Q 2556 2363 2490 2533 
Q 2425 2703 2258 2804 
Q 2091 2906 1866 2906 
Q 1506 2906 1245 2678 
Q 984 2450 984 1813 
L 984 0 
L 422 0 
z
" transform="scale(0.015625)"/>
       <path id="ArialMT-64" d="M 2575 0 
L 2575 419 
Q 2259 -75 1647 -75 
Q 1250 -75 917 144 
Q 584 363 401 755 
Q 219 1147 219 1656 
Q 219 2153 384 2558 
Q 550 2963 881 3178 
Q 1213 3394 1622 3394 
Q 1922 3394 2156 3267 
Q 2391 3141 2538 2938 
L 2538 4581 
L 3097 4581 
L 3097 0 
L 2575 0 
z
M 797 1656 
Q 797 1019 1065 703 
Q 1334 388 1700 388 
Q 2069 388 2326 689 
Q 2584 991 2584 1609 
Q 2584 2291 2321 2609 
Q 2059 2928 1675 2928 
Q 1300 2928 1048 2622 
Q 797 2316 797 1656 
z
" transform="scale(0.015625)"/>
       <path id="ArialMT-69" d="M 425 3934 
L 425 4581 
L 988 4581 
L 988 3934 
L 425 3934 
z
M 425 0 
L 425 3319 
L 988 3319 
L 988 0 
L 425 0 
z
" transform="scale(0.015625)"/>
       <path id="ArialMT-74" d="M 1650 503 
L 1731 6 
Q 1494 -44 1306 -44 
Q 1000 -44 831 53 
Q 663 150 594 308 
Q 525 466 525 972 
L 525 2881 
L 113 2881 
L 113 3319 
L 525 3319 
L 525 4141 
L 1084 4478 
L 1084 3319 
L 1650 3319 
L 1650 2881 
L 1084 2881 
L 1084 941 
Q 1084 700 1114 631 
Q 1144 563 1211 522 
Q 1278 481 1403 481 
Q 1497 481 1650 503 
z
" transform="scale(0.015625)"/>
      </defs>
      <use xlink:href="#ArialMT-43"/>
      <use xlink:href="#ArialMT-6f" transform="translate(72.216797 0)"/>
      <use xlink:href="#ArialMT-6e" transform="translate(127.832031 0)"/>
      <use xlink:href="#ArialMT-64" transform="translate(183.447266 0)"/>
      <use xlink:href="#ArialMT-69" transform="translate(239.0625 0)"/>
      <use xlink:href="#ArialMT-74" transform="translate(261.279297 0)"/>
      <use xlink:href="#ArialMT-69" transform="translate(289.0625 0)"/>
      <use xlink:href="#ArialMT-6f" transform="translate(311.279297 0)"/>
      <use xlink:href="#ArialMT-6e" transform="translate(366.894531 0)"/>
     </g>
    </g>
   </g>
   <g id="matplotlib.axis_2">
    <g id="ytick_1">
     <g id="line2d_3">
      <defs>
       <path id="m8ff36f7558" d="M 0 0 
L -3.5 0 
" style="stroke: #000000; stroke-width: 0.8"/>
      </defs>
      <g>
       <use xlink:href="#m8ff36f7558" x="54" y="315.087153" style="stroke: #000000; stroke-width: 0.8"/>
      </g>
     </g>
     <g id="text_4">
      <!-- 0.2 -->
      <g transform="translate(15.03 323.318637) scale(0.23 -0.23)">
       <defs>
        <path id="ArialMT-30" d="M 266 2259 
Q 266 3072 433 3567 
Q 600 4063 929 4331 
Q 1259 4600 1759 4600 
Q 2128 4600 2406 4451 
Q 2684 4303 2865 4023 
Q 3047 3744 3150 3342 
Q 3253 2941 3253 2259 
Q 3253 1453 3087 958 
Q 2922 463 2592 192 
Q 2263 -78 1759 -78 
Q 1097 -78 719 397 
Q 266 969 266 2259 
z
M 844 2259 
Q 844 1131 1108 757 
Q 1372 384 1759 384 
Q 2147 384 2411 759 
Q 2675 1134 2675 2259 
Q 2675 3391 2411 3762 
Q 2147 4134 1753 4134 
Q 1366 4134 1134 3806 
Q 844 3388 844 2259 
z
" transform="scale(0.015625)"/>
        <path id="ArialMT-2e" d="M 581 0 
L 581 641 
L 1222 641 
L 1222 0 
L 581 0 
z
" transform="scale(0.015625)"/>
        <path id="ArialMT-32" d="M 3222 541 
L 3222 0 
L 194 0 
Q 188 203 259 391 
Q 375 700 629 1000 
Q 884 1300 1366 1694 
Q 2113 2306 2375 2664 
Q 2638 3022 2638 3341 
Q 2638 3675 2398 3904 
Q 2159 4134 1775 4134 
Q 1369 4134 1125 3890 
Q 881 3647 878 3216 
L 300 3275 
Q 359 3922 746 4261 
Q 1134 4600 1788 4600 
Q 2447 4600 2831 4234 
Q 3216 3869 3216 3328 
Q 3216 3053 3103 2787 
Q 2991 2522 2730 2228 
Q 2469 1934 1863 1422 
Q 1356 997 1212 845 
Q 1069 694 975 541 
L 3222 541 
z
" transform="scale(0.015625)"/>
       </defs>
       <use xlink:href="#ArialMT-30"/>
       <use xlink:href="#ArialMT-2e" transform="translate(55.615234 0)"/>
       <use xlink:href="#ArialMT-32" transform="translate(83.398438 0)"/>
      </g>
     </g>
    </g>
    <g id="ytick_2">
     <g id="line2d_4">
      <g>
       <use xlink:href="#m8ff36f7558" x="54" y="259.328242" style="stroke: #000000; stroke-width: 0.8"/>
      </g>
     </g>
     <g id="text_5">
      <!-- 0.4 -->
      <g transform="translate(15.03 267.559727) scale(0.23 -0.23)">
       <defs>
        <path id="ArialMT-34" d="M 2069 0 
L 2069 1097 
L 81 1097 
L 81 1613 
L 2172 4581 
L 2631 4581 
L 2631 1613 
L 3250 1613 
L 3250 1097 
L 2631 1097 
L 2631 0 
L 2069 0 
z
M 2069 1613 
L 2069 3678 
L 634 1613 
L 2069 1613 
z
" transform="scale(0.015625)"/>
       </defs>
       <use xlink:href="#ArialMT-30"/>
       <use xlink:href="#ArialMT-2e" transform="translate(55.615234 0)"/>
       <use xlink:href="#ArialMT-34" transform="translate(83.398438 0)"/>
      </g>
     </g>
    </g>
    <g id="ytick_3">
     <g id="line2d_5">
      <g>
       <use xlink:href="#m8ff36f7558" x="54" y="203.569331" style="stroke: #000000; stroke-width: 0.8"/>
      </g>
     </g>
     <g id="text_6">
      <!-- 0.6 -->
      <g transform="translate(15.03 211.800816) scale(0.23 -0.23)">
       <defs>
        <path id="ArialMT-36" d="M 3184 3459 
L 2625 3416 
Q 2550 3747 2413 3897 
Q 2184 4138 1850 4138 
Q 1581 4138 1378 3988 
Q 1113 3794 959 3422 
Q 806 3050 800 2363 
Q 1003 2672 1297 2822 
Q 1591 2972 1913 2972 
Q 2475 2972 2870 2558 
Q 3266 2144 3266 1488 
Q 3266 1056 3080 686 
Q 2894 316 2569 119 
Q 2244 -78 1831 -78 
Q 1128 -78 684 439 
Q 241 956 241 2144 
Q 241 3472 731 4075 
Q 1159 4600 1884 4600 
Q 2425 4600 2770 4297 
Q 3116 3994 3184 3459 
z
M 888 1484 
Q 888 1194 1011 928 
Q 1134 663 1356 523 
Q 1578 384 1822 384 
Q 2178 384 2434 671 
Q 2691 959 2691 1453 
Q 2691 1928 2437 2201 
Q 2184 2475 1800 2475 
Q 1419 2475 1153 2201 
Q 888 1928 888 1484 
z
" transform="scale(0.015625)"/>
       </defs>
       <use xlink:href="#ArialMT-30"/>
       <use xlink:href="#ArialMT-2e" transform="translate(55.615234 0)"/>
       <use xlink:href="#ArialMT-36" transform="translate(83.398438 0)"/>
      </g>
     </g>
    </g>
    <g id="ytick_4">
     <g id="line2d_6">
      <g>
       <use xlink:href="#m8ff36f7558" x="54" y="147.810421" style="stroke: #000000; stroke-width: 0.8"/>
      </g>
     </g>
     <g id="text_7">
      <!-- 0.8 -->
      <g transform="translate(15.03 156.041905) scale(0.23 -0.23)">
       <defs>
        <path id="ArialMT-38" d="M 1131 2484 
Q 781 2613 612 2850 
Q 444 3088 444 3419 
Q 444 3919 803 4259 
Q 1163 4600 1759 4600 
Q 2359 4600 2725 4251 
Q 3091 3903 3091 3403 
Q 3091 3084 2923 2848 
Q 2756 2613 2416 2484 
Q 2838 2347 3058 2040 
Q 3278 1734 3278 1309 
Q 3278 722 2862 322 
Q 2447 -78 1769 -78 
Q 1091 -78 675 323 
Q 259 725 259 1325 
Q 259 1772 486 2073 
Q 713 2375 1131 2484 
z
M 1019 3438 
Q 1019 3113 1228 2906 
Q 1438 2700 1772 2700 
Q 2097 2700 2305 2904 
Q 2513 3109 2513 3406 
Q 2513 3716 2298 3927 
Q 2084 4138 1766 4138 
Q 1444 4138 1231 3931 
Q 1019 3725 1019 3438 
z
M 838 1322 
Q 838 1081 952 856 
Q 1066 631 1291 507 
Q 1516 384 1775 384 
Q 2178 384 2440 643 
Q 2703 903 2703 1303 
Q 2703 1709 2433 1975 
Q 2163 2241 1756 2241 
Q 1359 2241 1098 1978 
Q 838 1716 838 1322 
z
" transform="scale(0.015625)"/>
       </defs>
       <use xlink:href="#ArialMT-30"/>
       <use xlink:href="#ArialMT-2e" transform="translate(55.615234 0)"/>
       <use xlink:href="#ArialMT-38" transform="translate(83.398438 0)"/>
      </g>
     </g>
    </g>
    <g id="ytick_5">
     <g id="line2d_7">
      <g>
       <use xlink:href="#m8ff36f7558" x="54" y="92.05151" style="stroke: #000000; stroke-width: 0.8"/>
      </g>
     </g>
     <g id="text_8">
      <!-- 1.0 -->
      <g transform="translate(15.03 100.282994) scale(0.23 -0.23)">
       <defs>
        <path id="ArialMT-31" d="M 2384 0 
L 1822 0 
L 1822 3584 
Q 1619 3391 1289 3197 
Q 959 3003 697 2906 
L 697 3450 
Q 1169 3672 1522 3987 
Q 1875 4303 2022 4600 
L 2384 4600 
L 2384 0 
z
" transform="scale(0.015625)"/>
       </defs>
       <use xlink:href="#ArialMT-31"/>
       <use xlink:href="#ArialMT-2e" transform="translate(55.615234 0)"/>
       <use xlink:href="#ArialMT-30" transform="translate(83.398438 0)"/>
      </g>
     </g>
    </g>
    <g id="text_9">
     <!-- Adhesion ratio (washing assay) -->
     <g transform="translate(6.820625 357.111562) rotate(-90) scale(0.2 -0.2)">
      <defs>
       <path id="ArialMT-41" d="M -9 0 
L 1750 4581 
L 2403 4581 
L 4278 0 
L 3588 0 
L 3053 1388 
L 1138 1388 
L 634 0 
L -9 0 
z
M 1313 1881 
L 2866 1881 
L 2388 3150 
Q 2169 3728 2063 4100 
Q 1975 3659 1816 3225 
L 1313 1881 
z
" transform="scale(0.015625)"/>
       <path id="ArialMT-68" d="M 422 0 
L 422 4581 
L 984 4581 
L 984 2938 
Q 1378 3394 1978 3394 
Q 2347 3394 2619 3248 
Q 2891 3103 3008 2847 
Q 3125 2591 3125 2103 
L 3125 0 
L 2563 0 
L 2563 2103 
Q 2563 2525 2380 2717 
Q 2197 2909 1863 2909 
Q 1613 2909 1392 2779 
Q 1172 2650 1078 2428 
Q 984 2206 984 1816 
L 984 0 
L 422 0 
z
" transform="scale(0.015625)"/>
       <path id="ArialMT-65" d="M 2694 1069 
L 3275 997 
Q 3138 488 2766 206 
Q 2394 -75 1816 -75 
Q 1088 -75 661 373 
Q 234 822 234 1631 
Q 234 2469 665 2931 
Q 1097 3394 1784 3394 
Q 2450 3394 2872 2941 
Q 3294 2488 3294 1666 
Q 3294 1616 3291 1516 
L 816 1516 
Q 847 969 1125 678 
Q 1403 388 1819 388 
Q 2128 388 2347 550 
Q 2566 713 2694 1069 
z
M 847 1978 
L 2700 1978 
Q 2663 2397 2488 2606 
Q 2219 2931 1791 2931 
Q 1403 2931 1139 2672 
Q 875 2413 847 1978 
z
" transform="scale(0.015625)"/>
       <path id="ArialMT-73" d="M 197 991 
L 753 1078 
Q 800 744 1014 566 
Q 1228 388 1613 388 
Q 2000 388 2187 545 
Q 2375 703 2375 916 
Q 2375 1106 2209 1216 
Q 2094 1291 1634 1406 
Q 1016 1563 777 1677 
Q 538 1791 414 1992 
Q 291 2194 291 2438 
Q 291 2659 392 2848 
Q 494 3038 669 3163 
Q 800 3259 1026 3326 
Q 1253 3394 1513 3394 
Q 1903 3394 2198 3281 
Q 2494 3169 2634 2976 
Q 2775 2784 2828 2463 
L 2278 2388 
Q 2241 2644 2061 2787 
Q 1881 2931 1553 2931 
Q 1166 2931 1000 2803 
Q 834 2675 834 2503 
Q 834 2394 903 2306 
Q 972 2216 1119 2156 
Q 1203 2125 1616 2013 
Q 2213 1853 2448 1751 
Q 2684 1650 2818 1456 
Q 2953 1263 2953 975 
Q 2953 694 2789 445 
Q 2625 197 2315 61 
Q 2006 -75 1616 -75 
Q 969 -75 630 194 
Q 291 463 197 991 
z
" transform="scale(0.015625)"/>
       <path id="ArialMT-20" transform="scale(0.015625)"/>
       <path id="ArialMT-72" d="M 416 0 
L 416 3319 
L 922 3319 
L 922 2816 
Q 1116 3169 1280 3281 
Q 1444 3394 1641 3394 
Q 1925 3394 2219 3213 
L 2025 2691 
Q 1819 2813 1613 2813 
Q 1428 2813 1281 2702 
Q 1134 2591 1072 2394 
Q 978 2094 978 1738 
L 978 0 
L 416 0 
z
" transform="scale(0.015625)"/>
       <path id="ArialMT-61" d="M 2588 409 
Q 2275 144 1986 34 
Q 1697 -75 1366 -75 
Q 819 -75 525 192 
Q 231 459 231 875 
Q 231 1119 342 1320 
Q 453 1522 633 1644 
Q 813 1766 1038 1828 
Q 1203 1872 1538 1913 
Q 2219 1994 2541 2106 
Q 2544 2222 2544 2253 
Q 2544 2597 2384 2738 
Q 2169 2928 1744 2928 
Q 1347 2928 1158 2789 
Q 969 2650 878 2297 
L 328 2372 
Q 403 2725 575 2942 
Q 747 3159 1072 3276 
Q 1397 3394 1825 3394 
Q 2250 3394 2515 3294 
Q 2781 3194 2906 3042 
Q 3031 2891 3081 2659 
Q 3109 2516 3109 2141 
L 3109 1391 
Q 3109 606 3145 398 
Q 3181 191 3288 0 
L 2700 0 
Q 2613 175 2588 409 
z
M 2541 1666 
Q 2234 1541 1622 1453 
Q 1275 1403 1131 1340 
Q 988 1278 909 1158 
Q 831 1038 831 891 
Q 831 666 1001 516 
Q 1172 366 1500 366 
Q 1825 366 2078 508 
Q 2331 650 2450 897 
Q 2541 1088 2541 1459 
L 2541 1666 
z
" transform="scale(0.015625)"/>
       <path id="ArialMT-28" d="M 1497 -1347 
Q 1031 -759 709 28 
Q 388 816 388 1659 
Q 388 2403 628 3084 
Q 909 3875 1497 4659 
L 1900 4659 
Q 1522 4009 1400 3731 
Q 1209 3300 1100 2831 
Q 966 2247 966 1656 
Q 966 153 1900 -1347 
L 1497 -1347 
z
" transform="scale(0.015625)"/>
       <path id="ArialMT-77" d="M 1034 0 
L 19 3319 
L 600 3319 
L 1128 1403 
L 1325 691 
Q 1338 744 1497 1375 
L 2025 3319 
L 2603 3319 
L 3100 1394 
L 3266 759 
L 3456 1400 
L 4025 3319 
L 4572 3319 
L 3534 0 
L 2950 0 
L 2422 1988 
L 2294 2553 
L 1622 0 
L 1034 0 
z
" transform="scale(0.015625)"/>
       <path id="ArialMT-67" d="M 319 -275 
L 866 -356 
Q 900 -609 1056 -725 
Q 1266 -881 1628 -881 
Q 2019 -881 2231 -725 
Q 2444 -569 2519 -288 
Q 2563 -116 2559 434 
Q 2191 0 1641 0 
Q 956 0 581 494 
Q 206 988 206 1678 
Q 206 2153 378 2554 
Q 550 2956 876 3175 
Q 1203 3394 1644 3394 
Q 2231 3394 2613 2919 
L 2613 3319 
L 3131 3319 
L 3131 450 
Q 3131 -325 2973 -648 
Q 2816 -972 2473 -1159 
Q 2131 -1347 1631 -1347 
Q 1038 -1347 672 -1080 
Q 306 -813 319 -275 
z
M 784 1719 
Q 784 1066 1043 766 
Q 1303 466 1694 466 
Q 2081 466 2343 764 
Q 2606 1063 2606 1700 
Q 2606 2309 2336 2618 
Q 2066 2928 1684 2928 
Q 1309 2928 1046 2623 
Q 784 2319 784 1719 
z
" transform="scale(0.015625)"/>
       <path id="ArialMT-79" d="M 397 -1278 
L 334 -750 
Q 519 -800 656 -800 
Q 844 -800 956 -737 
Q 1069 -675 1141 -563 
Q 1194 -478 1313 -144 
Q 1328 -97 1363 -6 
L 103 3319 
L 709 3319 
L 1400 1397 
Q 1534 1031 1641 628 
Q 1738 1016 1872 1384 
L 2581 3319 
L 3144 3319 
L 1881 -56 
Q 1678 -603 1566 -809 
Q 1416 -1088 1222 -1217 
Q 1028 -1347 759 -1347 
Q 597 -1347 397 -1278 
z
" transform="scale(0.015625)"/>
       <path id="ArialMT-29" d="M 791 -1347 
L 388 -1347 
Q 1322 153 1322 1656 
Q 1322 2244 1188 2822 
Q 1081 3291 891 3722 
Q 769 4003 388 4659 
L 791 4659 
Q 1378 3875 1659 3084 
Q 1900 2403 1900 1659 
Q 1900 816 1576 28 
Q 1253 -759 791 -1347 
z
" transform="scale(0.015625)"/>
      </defs>
      <use xlink:href="#ArialMT-41"/>
      <use xlink:href="#ArialMT-64" transform="translate(66.699219 0)"/>
      <use xlink:href="#ArialMT-68" transform="translate(122.314453 0)"/>
      <use xlink:href="#ArialMT-65" transform="translate(177.929688 0)"/>
      <use xlink:href="#ArialMT-73" transform="translate(233.544922 0)"/>
      <use xlink:href="#ArialMT-69" transform="translate(283.544922 0)"/>
      <use xlink:href="#ArialMT-6f" transform="translate(305.761719 0)"/>
      <use xlink:href="#ArialMT-6e" transform="translate(361.376953 0)"/>
      <use xlink:href="#ArialMT-20" transform="translate(416.992188 0)"/>
      <use xlink:href="#ArialMT-72" transform="translate(444.775391 0)"/>
      <use xlink:href="#ArialMT-61" transform="translate(478.076172 0)"/>
      <use xlink:href="#ArialMT-74" transform="translate(533.691406 0)"/>
      <use xlink:href="#ArialMT-69" transform="translate(561.474609 0)"/>
      <use xlink:href="#ArialMT-6f" transform="translate(583.691406 0)"/>
      <use xlink:href="#ArialMT-20" transform="translate(639.306641 0)"/>
      <use xlink:href="#ArialMT-28" transform="translate(667.089844 0)"/>
      <use xlink:href="#ArialMT-77" transform="translate(700.390625 0)"/>
      <use xlink:href="#ArialMT-61" transform="translate(772.607422 0)"/>
      <use xlink:href="#ArialMT-73" transform="translate(828.222656 0)"/>
      <use xlink:href="#ArialMT-68" transform="translate(878.222656 0)"/>
      <use xlink:href="#ArialMT-69" transform="translate(933.837891 0)"/>
      <use xlink:href="#ArialMT-6e" transform="translate(956.054688 0)"/>
      <use xlink:href="#ArialMT-67" transform="translate(1011.669922 0)"/>
      <use xlink:href="#ArialMT-20" transform="translate(1067.285156 0)"/>
      <use xlink:href="#ArialMT-61" transform="translate(1095.068359 0)"/>
      <use xlink:href="#ArialMT-73" transform="translate(1150.683594 0)"/>
      <use xlink:href="#ArialMT-73" transform="translate(1200.683594 0)"/>
      <use xlink:href="#ArialMT-61" transform="translate(1250.683594 0)"/>
      <use xlink:href="#ArialMT-79" transform="translate(1306.298828 0)"/>
      <use xlink:href="#ArialMT-29" transform="translate(1356.298828 0)"/>
     </g>
    </g>
   </g>
   <g id="patch_3">
    <path d="M 69.218182 365.618723 
L 204.490909 365.618723 
L 204.490909 359.391272 
L 69.218182 359.391272 
L 69.218182 365.618723 
z
" clip-path="url(#p75ba9f2dd3)" style="fill: #e1812c; stroke: #454545; stroke-linejoin: miter"/>
   </g>
   <g id="line2d_8">
    <path d="M 136.854545 365.618723 
L 136.854545 369.36 
" clip-path="url(#p75ba9f2dd3)" style="fill: none; stroke: #454545"/>
   </g>
   <g id="line2d_9">
    <path d="M 136.854545 359.391272 
L 136.854545 351.178404 
" clip-path="url(#p75ba9f2dd3)" style="fill: none; stroke: #454545"/>
   </g>
   <g id="line2d_10">
    <path d="M 103.036364 369.36 
L 170.672727 369.36 
" clip-path="url(#p75ba9f2dd3)" style="fill: none; stroke: #454545; stroke-linecap: square"/>
   </g>
   <g id="line2d_11">
    <path d="M 103.036364 351.178404 
L 170.672727 351.178404 
" clip-path="url(#p75ba9f2dd3)" style="fill: none; stroke: #454545; stroke-linecap: square"/>
   </g>
   <g id="patch_4">
    <path d="M 238.309091 364.738057 
L 373.581818 364.738057 
L 373.581818 328.070983 
L 238.309091 328.070983 
L 238.309091 364.738057 
z
" clip-path="url(#p75ba9f2dd3)" style="fill: #2eabb8; stroke: #454545; stroke-linejoin: miter"/>
   </g>
   <g id="line2d_12">
    <path d="M 305.945455 364.738057 
L 305.945455 369.305355 
" clip-path="url(#p75ba9f2dd3)" style="fill: none; stroke: #454545"/>
   </g>
   <g id="line2d_13">
    <path d="M 305.945455 328.070983 
L 305.945455 291.825437 
" clip-path="url(#p75ba9f2dd3)" style="fill: none; stroke: #454545"/>
   </g>
   <g id="line2d_14">
    <path d="M 272.127273 369.305355 
L 339.763636 369.305355 
" clip-path="url(#p75ba9f2dd3)" style="fill: none; stroke: #454545; stroke-linecap: square"/>
   </g>
   <g id="line2d_15">
    <path d="M 272.127273 291.825437 
L 339.763636 291.825437 
" clip-path="url(#p75ba9f2dd3)" style="fill: none; stroke: #454545; stroke-linecap: square"/>
   </g>
   <g id="line2d_16">
    <path d="M 136.854545 66.96 
L 305.945455 66.96 
" clip-path="url(#p75ba9f2dd3)" style="fill: none; stroke: #ff0000; stroke-width: 1.5; stroke-linecap: square"/>
   </g>
   <g id="line2d_17">
    <path d="M 69.218182 363.136109 
L 204.490909 363.136109 
" clip-path="url(#p75ba9f2dd3)" style="fill: none; stroke: #454545"/>
   </g>
   <g id="line2d_18">
    <path d="M 238.309091 360.066222 
L 373.581818 360.066222 
" clip-path="url(#p75ba9f2dd3)" style="fill: none; stroke: #454545"/>
   </g>
   <g id="patch_5">
    <path d="M 54 384.48 
L 54 51.84 
" style="fill: none; stroke: #000000; stroke-width: 0.8; stroke-linejoin: miter; stroke-linecap: square"/>
   </g>
   <g id="patch_6">
    <path d="M 388.8 384.48 
L 388.8 51.84 
" style="fill: none; stroke: #000000; stroke-width: 0.8; stroke-linejoin: miter; stroke-linecap: square"/>
   </g>
   <g id="patch_7">
    <path d="M 54 384.48 
L 388.8 384.48 
" style="fill: none; stroke: #000000; stroke-width: 0.8; stroke-linejoin: miter; stroke-linecap: square"/>
   </g>
   <g id="patch_8">
    <path d="M 54 51.84 
L 388.8 51.84 
" style="fill: none; stroke: #000000; stroke-width: 0.8; stroke-linejoin: miter; stroke-linecap: square"/>
   </g>
   <g id="PathCollection_1">
    <defs>
     <path id="C0_0_8060d8e8a5" d="M 0 5 
C 1.326016 5 2.597899 4.473168 3.535534 3.535534 
C 4.473168 2.597899 5 1.326016 5 -0 
C 5 -1.326016 4.473168 -2.597899 3.535534 -3.535534 
C 2.597899 -4.473168 1.326016 -5 0 -5 
C -1.326016 -5 -2.597899 -4.473168 -3.535534 -3.535534 
C -4.473168 -2.597899 -5 -1.326016 -5 0 
C -5 1.326016 -4.473168 2.597899 -3.535534 3.535534 
C -2.597899 4.473168 -1.326016 5 0 5 
z
"/>
    </defs>
    <g clip-path="url(#p75ba9f2dd3)">
     <use xlink:href="#C0_0_8060d8e8a5" x="98.277602" y="358.769551" style="fill: #808080; fill-opacity: 0.3; stroke: #000000; stroke-opacity: 0.3; stroke-width: 0.5"/>
    </g>
    <g clip-path="url(#p75ba9f2dd3)">
     <use xlink:href="#C0_0_8060d8e8a5" x="101.515138" y="363.146212" style="fill: #808080; fill-opacity: 0.3; stroke: #000000; stroke-opacity: 0.3; stroke-width: 0.5"/>
    </g>
    <g clip-path="url(#p75ba9f2dd3)">
     <use xlink:href="#C0_0_8060d8e8a5" x="102.522215" y="366.503656" style="fill: #808080; fill-opacity: 0.3; stroke: #000000; stroke-opacity: 0.3; stroke-width: 0.5"/>
    </g>
    <g clip-path="url(#p75ba9f2dd3)">
     <use xlink:href="#C0_0_8060d8e8a5" x="105.653949" y="353.122929" style="fill: #808080; fill-opacity: 0.3; stroke: #000000; stroke-opacity: 0.3; stroke-width: 0.5"/>
    </g>
    <g clip-path="url(#p75ba9f2dd3)">
     <use xlink:href="#C0_0_8060d8e8a5" x="99.462569" y="358.70688" style="fill: #808080; fill-opacity: 0.3; stroke: #000000; stroke-opacity: 0.3; stroke-width: 0.5"/>
    </g>
    <g clip-path="url(#p75ba9f2dd3)">
     <use xlink:href="#C0_0_8060d8e8a5" x="107.113896" y="360.611375" style="fill: #808080; fill-opacity: 0.3; stroke: #000000; stroke-opacity: 0.3; stroke-width: 0.5"/>
    </g>
    <g clip-path="url(#p75ba9f2dd3)">
     <use xlink:href="#C0_0_8060d8e8a5" x="97.022468" y="364.626029" style="fill: #808080; fill-opacity: 0.3; stroke: #000000; stroke-opacity: 0.3; stroke-width: 0.5"/>
    </g>
    <g clip-path="url(#p75ba9f2dd3)">
     <use xlink:href="#C0_0_8060d8e8a5" x="103.691009" y="357.395269" style="fill: #808080; fill-opacity: 0.3; stroke: #000000; stroke-opacity: 0.3; stroke-width: 0.5"/>
    </g>
    <g clip-path="url(#p75ba9f2dd3)">
     <use xlink:href="#C0_0_8060d8e8a5" x="107.217026" y="365.618723" style="fill: #808080; fill-opacity: 0.3; stroke: #000000; stroke-opacity: 0.3; stroke-width: 0.5"/>
    </g>
    <g clip-path="url(#p75ba9f2dd3)">
     <use xlink:href="#C0_0_8060d8e8a5" x="103.363853" y="365.548184" style="fill: #808080; fill-opacity: 0.3; stroke: #000000; stroke-opacity: 0.3; stroke-width: 0.5"/>
    </g>
    <g clip-path="url(#p75ba9f2dd3)">
     <use xlink:href="#C0_0_8060d8e8a5" x="101.810003" y="352.383231" style="fill: #808080; fill-opacity: 0.3; stroke: #000000; stroke-opacity: 0.3; stroke-width: 0.5"/>
    </g>
    <g clip-path="url(#p75ba9f2dd3)">
     <use xlink:href="#C0_0_8060d8e8a5" x="103.07908" y="361.116714" style="fill: #808080; fill-opacity: 0.3; stroke: #000000; stroke-opacity: 0.3; stroke-width: 0.5"/>
    </g>
    <g clip-path="url(#p75ba9f2dd3)">
     <use xlink:href="#C0_0_8060d8e8a5" x="101.098822" y="354.372047" style="fill: #808080; fill-opacity: 0.3; stroke: #000000; stroke-opacity: 0.3; stroke-width: 0.5"/>
    </g>
    <g clip-path="url(#p75ba9f2dd3)">
     <use xlink:href="#C0_0_8060d8e8a5" x="100.153429" y="360.69016" style="fill: #808080; fill-opacity: 0.3; stroke: #000000; stroke-opacity: 0.3; stroke-width: 0.5"/>
    </g>
    <g clip-path="url(#p75ba9f2dd3)">
     <use xlink:href="#C0_0_8060d8e8a5" x="109.41113" y="363.22359" style="fill: #808080; fill-opacity: 0.3; stroke: #000000; stroke-opacity: 0.3; stroke-width: 0.5"/>
    </g>
    <g clip-path="url(#p75ba9f2dd3)">
     <use xlink:href="#C0_0_8060d8e8a5" x="95.854116" y="366.300976" style="fill: #808080; fill-opacity: 0.3; stroke: #000000; stroke-opacity: 0.3; stroke-width: 0.5"/>
    </g>
    <g clip-path="url(#p75ba9f2dd3)">
     <use xlink:href="#C0_0_8060d8e8a5" x="99.560607" y="365.585251" style="fill: #808080; fill-opacity: 0.3; stroke: #000000; stroke-opacity: 0.3; stroke-width: 0.5"/>
    </g>
    <g clip-path="url(#p75ba9f2dd3)">
     <use xlink:href="#C0_0_8060d8e8a5" x="107.798484" y="357.113629" style="fill: #808080; fill-opacity: 0.3; stroke: #000000; stroke-opacity: 0.3; stroke-width: 0.5"/>
    </g>
    <g clip-path="url(#p75ba9f2dd3)">
     <use xlink:href="#C0_0_8060d8e8a5" x="109.602336" y="363.388805" style="fill: #808080; fill-opacity: 0.3; stroke: #000000; stroke-opacity: 0.3; stroke-width: 0.5"/>
    </g>
    <g clip-path="url(#p75ba9f2dd3)">
     <use xlink:href="#C0_0_8060d8e8a5" x="103.25829" y="365.091042" style="fill: #808080; fill-opacity: 0.3; stroke: #000000; stroke-opacity: 0.3; stroke-width: 0.5"/>
    </g>
    <g clip-path="url(#p75ba9f2dd3)">
     <use xlink:href="#C0_0_8060d8e8a5" x="106.605794" y="365.62554" style="fill: #808080; fill-opacity: 0.3; stroke: #000000; stroke-opacity: 0.3; stroke-width: 0.5"/>
    </g>
    <g clip-path="url(#p75ba9f2dd3)">
     <use xlink:href="#C0_0_8060d8e8a5" x="95.043059" y="366.803481" style="fill: #808080; fill-opacity: 0.3; stroke: #000000; stroke-opacity: 0.3; stroke-width: 0.5"/>
    </g>
    <g clip-path="url(#p75ba9f2dd3)">
     <use xlink:href="#C0_0_8060d8e8a5" x="97.433843" y="361.686385" style="fill: #808080; fill-opacity: 0.3; stroke: #000000; stroke-opacity: 0.3; stroke-width: 0.5"/>
    </g>
    <g clip-path="url(#p75ba9f2dd3)">
     <use xlink:href="#C0_0_8060d8e8a5" x="109.530785" y="365.650427" style="fill: #808080; fill-opacity: 0.3; stroke: #000000; stroke-opacity: 0.3; stroke-width: 0.5"/>
    </g>
    <g clip-path="url(#p75ba9f2dd3)">
     <use xlink:href="#C0_0_8060d8e8a5" x="109.110753" y="357.604623" style="fill: #808080; fill-opacity: 0.3; stroke: #000000; stroke-opacity: 0.3; stroke-width: 0.5"/>
    </g>
    <g clip-path="url(#p75ba9f2dd3)">
     <use xlink:href="#C0_0_8060d8e8a5" x="103.836807" y="361.691055" style="fill: #808080; fill-opacity: 0.3; stroke: #000000; stroke-opacity: 0.3; stroke-width: 0.5"/>
    </g>
    <g clip-path="url(#p75ba9f2dd3)">
     <use xlink:href="#C0_0_8060d8e8a5" x="105.419574" y="362.112151" style="fill: #808080; fill-opacity: 0.3; stroke: #000000; stroke-opacity: 0.3; stroke-width: 0.5"/>
    </g>
    <g clip-path="url(#p75ba9f2dd3)">
     <use xlink:href="#C0_0_8060d8e8a5" x="110.342558" y="365.74931" style="fill: #808080; fill-opacity: 0.3; stroke: #000000; stroke-opacity: 0.3; stroke-width: 0.5"/>
    </g>
    <g clip-path="url(#p75ba9f2dd3)">
     <use xlink:href="#C0_0_8060d8e8a5" x="111.283828" y="364.345899" style="fill: #808080; fill-opacity: 0.3; stroke: #000000; stroke-opacity: 0.3; stroke-width: 0.5"/>
    </g>
    <g clip-path="url(#p75ba9f2dd3)">
     <use xlink:href="#C0_0_8060d8e8a5" x="110.234172" y="362.492888" style="fill: #808080; fill-opacity: 0.3; stroke: #000000; stroke-opacity: 0.3; stroke-width: 0.5"/>
    </g>
    <g clip-path="url(#p75ba9f2dd3)">
     <use xlink:href="#C0_0_8060d8e8a5" x="110.682798" y="358.402467" style="fill: #808080; fill-opacity: 0.3; stroke: #000000; stroke-opacity: 0.3; stroke-width: 0.5"/>
    </g>
    <g clip-path="url(#p75ba9f2dd3)">
     <use xlink:href="#C0_0_8060d8e8a5" x="101.483436" y="360.214147" style="fill: #808080; fill-opacity: 0.3; stroke: #000000; stroke-opacity: 0.3; stroke-width: 0.5"/>
    </g>
    <g clip-path="url(#p75ba9f2dd3)">
     <use xlink:href="#C0_0_8060d8e8a5" x="102.441752" y="352.190858" style="fill: #808080; fill-opacity: 0.3; stroke: #000000; stroke-opacity: 0.3; stroke-width: 0.5"/>
    </g>
    <g clip-path="url(#p75ba9f2dd3)">
     <use xlink:href="#C0_0_8060d8e8a5" x="99.54888" y="369.035749" style="fill: #808080; fill-opacity: 0.3; stroke: #000000; stroke-opacity: 0.3; stroke-width: 0.5"/>
    </g>
    <g clip-path="url(#p75ba9f2dd3)">
     <use xlink:href="#C0_0_8060d8e8a5" x="95.612994" y="367.29948" style="fill: #808080; fill-opacity: 0.3; stroke: #000000; stroke-opacity: 0.3; stroke-width: 0.5"/>
    </g>
    <g clip-path="url(#p75ba9f2dd3)">
     <use xlink:href="#C0_0_8060d8e8a5" x="97.867823" y="368.257507" style="fill: #808080; fill-opacity: 0.3; stroke: #000000; stroke-opacity: 0.3; stroke-width: 0.5"/>
    </g>
    <g clip-path="url(#p75ba9f2dd3)">
     <use xlink:href="#C0_0_8060d8e8a5" x="99.890007" y="360.686484" style="fill: #808080; fill-opacity: 0.3; stroke: #000000; stroke-opacity: 0.3; stroke-width: 0.5"/>
    </g>
    <g clip-path="url(#p75ba9f2dd3)">
     <use xlink:href="#C0_0_8060d8e8a5" x="106.656519" y="369.36" style="fill: #808080; fill-opacity: 0.3; stroke: #000000; stroke-opacity: 0.3; stroke-width: 0.5"/>
    </g>
    <g clip-path="url(#p75ba9f2dd3)">
     <use xlink:href="#C0_0_8060d8e8a5" x="110.834572" y="369.085891" style="fill: #808080; fill-opacity: 0.3; stroke: #000000; stroke-opacity: 0.3; stroke-width: 0.5"/>
    </g>
    <g clip-path="url(#p75ba9f2dd3)">
     <use xlink:href="#C0_0_8060d8e8a5" x="109.088736" y="363.136109" style="fill: #808080; fill-opacity: 0.3; stroke: #000000; stroke-opacity: 0.3; stroke-width: 0.5"/>
    </g>
    <g clip-path="url(#p75ba9f2dd3)">
     <use xlink:href="#C0_0_8060d8e8a5" x="95.678274" y="363.29494" style="fill: #808080; fill-opacity: 0.3; stroke: #000000; stroke-opacity: 0.3; stroke-width: 0.5"/>
    </g>
    <g clip-path="url(#p75ba9f2dd3)">
     <use xlink:href="#C0_0_8060d8e8a5" x="107.149855" y="349.922535" style="fill: #808080; fill-opacity: 0.3; stroke: #000000; stroke-opacity: 0.3; stroke-width: 0.5"/>
    </g>
    <g clip-path="url(#p75ba9f2dd3)">
     <use xlink:href="#C0_0_8060d8e8a5" x="100.091926" y="358.19914" style="fill: #808080; fill-opacity: 0.3; stroke: #000000; stroke-opacity: 0.3; stroke-width: 0.5"/>
    </g>
    <g clip-path="url(#p75ba9f2dd3)">
     <use xlink:href="#C0_0_8060d8e8a5" x="110.742091" y="361.947071" style="fill: #808080; fill-opacity: 0.3; stroke: #000000; stroke-opacity: 0.3; stroke-width: 0.5"/>
    </g>
   </g>
   <g id="PathCollection_2">
    <defs>
     <path id="C1_0_19317b2559" d="M 0 5 
C 1.326016 5 2.597899 4.473168 3.535534 3.535534 
C 4.473168 2.597899 5 1.326016 5 -0 
C 5 -1.326016 4.473168 -2.597899 3.535534 -3.535534 
C 2.597899 -4.473168 1.326016 -5 0 -5 
C -1.326016 -5 -2.597899 -4.473168 -3.535534 -3.535534 
C -4.473168 -2.597899 -5 -1.326016 -5 0 
C -5 1.326016 -4.473168 2.597899 -3.535534 3.535534 
C -2.597899 4.473168 -1.326016 5 0 5 
z
"/>
    </defs>
    <g clip-path="url(#p75ba9f2dd3)">
     <use xlink:href="#C1_0_19317b2559" x="170.187749" y="364.758674" style="fill: #ff0000; fill-opacity: 0.3; stroke: #000000; stroke-opacity: 0.3; stroke-width: 0.5"/>
    </g>
    <g clip-path="url(#p75ba9f2dd3)">
     <use xlink:href="#C1_0_19317b2559" x="171.050023" y="364.039707" style="fill: #ff0000; fill-opacity: 0.3; stroke: #000000; stroke-opacity: 0.3; stroke-width: 0.5"/>
    </g>
    <g clip-path="url(#p75ba9f2dd3)">
     <use xlink:href="#C1_0_19317b2559" x="167.689944" y="366.624828" style="fill: #ff0000; fill-opacity: 0.3; stroke: #000000; stroke-opacity: 0.3; stroke-width: 0.5"/>
    </g>
    <g clip-path="url(#p75ba9f2dd3)">
     <use xlink:href="#C1_0_19317b2559" x="175.580842" y="351.178404" style="fill: #ff0000; fill-opacity: 0.3; stroke: #000000; stroke-opacity: 0.3; stroke-width: 0.5"/>
    </g>
    <g clip-path="url(#p75ba9f2dd3)">
     <use xlink:href="#C1_0_19317b2559" x="169.053707" y="362.619673" style="fill: #ff0000; fill-opacity: 0.3; stroke: #000000; stroke-opacity: 0.3; stroke-width: 0.5"/>
    </g>
    <g clip-path="url(#p75ba9f2dd3)">
     <use xlink:href="#C1_0_19317b2559" x="175.038887" y="359.391272" style="fill: #ff0000; fill-opacity: 0.3; stroke: #000000; stroke-opacity: 0.3; stroke-width: 0.5"/>
    </g>
    <g clip-path="url(#p75ba9f2dd3)">
     <use xlink:href="#C1_0_19317b2559" x="173.412644" y="362.559849" style="fill: #ff0000; fill-opacity: 0.3; stroke: #000000; stroke-opacity: 0.3; stroke-width: 0.5"/>
    </g>
    <g clip-path="url(#p75ba9f2dd3)">
     <use xlink:href="#C1_0_19317b2559" x="169.945006" y="367.988873" style="fill: #ff0000; fill-opacity: 0.3; stroke: #000000; stroke-opacity: 0.3; stroke-width: 0.5"/>
    </g>
    <g clip-path="url(#p75ba9f2dd3)">
     <use xlink:href="#C1_0_19317b2559" x="174.196651" y="363.561719" style="fill: #ff0000; fill-opacity: 0.3; stroke: #000000; stroke-opacity: 0.3; stroke-width: 0.5"/>
    </g>
   </g>
   <g id="PathCollection_3">
    <defs>
     <path id="C2_0_98c5b0090e" d="M 0 5 
C 1.326016 5 2.597899 4.473168 3.535534 3.535534 
C 4.473168 2.597899 5 1.326016 5 -0 
C 5 -1.326016 4.473168 -2.597899 3.535534 -3.535534 
C 2.597899 -4.473168 1.326016 -5 0 -5 
C -1.326016 -5 -2.597899 -4.473168 -3.535534 -3.535534 
C -4.473168 -2.597899 -5 -1.326016 -5 0 
C -5 1.326016 -4.473168 2.597899 -3.535534 3.535534 
C -2.597899 4.473168 -1.326016 5 0 5 
z
"/>
    </defs>
    <g clip-path="url(#p75ba9f2dd3)">
     <use xlink:href="#C2_0_98c5b0090e" x="265.251295" y="356.961042" style="fill: #808080; fill-opacity: 0.3; stroke: #000000; stroke-opacity: 0.3; stroke-width: 0.5"/>
    </g>
    <g clip-path="url(#p75ba9f2dd3)">
     <use xlink:href="#C2_0_98c5b0090e" x="276.573916" y="364.738057" style="fill: #808080; fill-opacity: 0.3; stroke: #000000; stroke-opacity: 0.3; stroke-width: 0.5"/>
    </g>
    <g clip-path="url(#p75ba9f2dd3)">
     <use xlink:href="#C2_0_98c5b0090e" x="278.659867" y="354.54041" style="fill: #808080; fill-opacity: 0.3; stroke: #000000; stroke-opacity: 0.3; stroke-width: 0.5"/>
    </g>
    <g clip-path="url(#p75ba9f2dd3)">
     <use xlink:href="#C2_0_98c5b0090e" x="279.586044" y="233.941381" style="fill: #808080; fill-opacity: 0.3; stroke: #000000; stroke-opacity: 0.3; stroke-width: 0.5"/>
    </g>
    <g clip-path="url(#p75ba9f2dd3)">
     <use xlink:href="#C2_0_98c5b0090e" x="267.118409" y="361.780392" style="fill: #808080; fill-opacity: 0.3; stroke: #000000; stroke-opacity: 0.3; stroke-width: 0.5"/>
    </g>
    <g clip-path="url(#p75ba9f2dd3)">
     <use xlink:href="#C2_0_98c5b0090e" x="264.857182" y="355.145341" style="fill: #808080; fill-opacity: 0.3; stroke: #000000; stroke-opacity: 0.3; stroke-width: 0.5"/>
    </g>
    <g clip-path="url(#p75ba9f2dd3)">
     <use xlink:href="#C2_0_98c5b0090e" x="269.645974" y="361.35817" style="fill: #808080; fill-opacity: 0.3; stroke: #000000; stroke-opacity: 0.3; stroke-width: 0.5"/>
    </g>
    <g clip-path="url(#p75ba9f2dd3)">
     <use xlink:href="#C2_0_98c5b0090e" x="269.978599" y="365.931922" style="fill: #808080; fill-opacity: 0.3; stroke: #000000; stroke-opacity: 0.3; stroke-width: 0.5"/>
    </g>
    <g clip-path="url(#p75ba9f2dd3)">
     <use xlink:href="#C2_0_98c5b0090e" x="265.681784" y="365.003819" style="fill: #808080; fill-opacity: 0.3; stroke: #000000; stroke-opacity: 0.3; stroke-width: 0.5"/>
    </g>
    <g clip-path="url(#p75ba9f2dd3)">
     <use xlink:href="#C2_0_98c5b0090e" x="266.302484" y="328.070983" style="fill: #808080; fill-opacity: 0.3; stroke: #000000; stroke-opacity: 0.3; stroke-width: 0.5"/>
    </g>
    <g clip-path="url(#p75ba9f2dd3)">
     <use xlink:href="#C2_0_98c5b0090e" x="277.689404" y="360.27492" style="fill: #808080; fill-opacity: 0.3; stroke: #000000; stroke-opacity: 0.3; stroke-width: 0.5"/>
    </g>
    <g clip-path="url(#p75ba9f2dd3)">
     <use xlink:href="#C2_0_98c5b0090e" x="269.381006" y="353.33597" style="fill: #808080; fill-opacity: 0.3; stroke: #000000; stroke-opacity: 0.3; stroke-width: 0.5"/>
    </g>
    <g clip-path="url(#p75ba9f2dd3)">
     <use xlink:href="#C2_0_98c5b0090e" x="279.586164" y="363.653156" style="fill: #808080; fill-opacity: 0.3; stroke: #000000; stroke-opacity: 0.3; stroke-width: 0.5"/>
    </g>
    <g clip-path="url(#p75ba9f2dd3)">
     <use xlink:href="#C2_0_98c5b0090e" x="279.957687" y="296.422513" style="fill: #808080; fill-opacity: 0.3; stroke: #000000; stroke-opacity: 0.3; stroke-width: 0.5"/>
    </g>
    <g clip-path="url(#p75ba9f2dd3)">
     <use xlink:href="#C2_0_98c5b0090e" x="268.551743" y="365.93006" style="fill: #808080; fill-opacity: 0.3; stroke: #000000; stroke-opacity: 0.3; stroke-width: 0.5"/>
    </g>
    <g clip-path="url(#p75ba9f2dd3)">
     <use xlink:href="#C2_0_98c5b0090e" x="279.115293" y="363.156286" style="fill: #808080; fill-opacity: 0.3; stroke: #000000; stroke-opacity: 0.3; stroke-width: 0.5"/>
    </g>
    <g clip-path="url(#p75ba9f2dd3)">
     <use xlink:href="#C2_0_98c5b0090e" x="275.13117" y="322.985915" style="fill: #808080; fill-opacity: 0.3; stroke: #000000; stroke-opacity: 0.3; stroke-width: 0.5"/>
    </g>
    <g clip-path="url(#p75ba9f2dd3)">
     <use xlink:href="#C2_0_98c5b0090e" x="265.888681" y="362.922609" style="fill: #808080; fill-opacity: 0.3; stroke: #000000; stroke-opacity: 0.3; stroke-width: 0.5"/>
    </g>
    <g clip-path="url(#p75ba9f2dd3)">
     <use xlink:href="#C2_0_98c5b0090e" x="270.819258" y="363.90927" style="fill: #808080; fill-opacity: 0.3; stroke: #000000; stroke-opacity: 0.3; stroke-width: 0.5"/>
    </g>
    <g clip-path="url(#p75ba9f2dd3)">
     <use xlink:href="#C2_0_98c5b0090e" x="276.81742" y="362.489429" style="fill: #808080; fill-opacity: 0.3; stroke: #000000; stroke-opacity: 0.3; stroke-width: 0.5"/>
    </g>
    <g clip-path="url(#p75ba9f2dd3)">
     <use xlink:href="#C2_0_98c5b0090e" x="267.974065" y="368.441805" style="fill: #808080; fill-opacity: 0.3; stroke: #000000; stroke-opacity: 0.3; stroke-width: 0.5"/>
    </g>
    <g clip-path="url(#p75ba9f2dd3)">
     <use xlink:href="#C2_0_98c5b0090e" x="277.761829" y="354.969236" style="fill: #808080; fill-opacity: 0.3; stroke: #000000; stroke-opacity: 0.3; stroke-width: 0.5"/>
    </g>
    <g clip-path="url(#p75ba9f2dd3)">
     <use xlink:href="#C2_0_98c5b0090e" x="276.41371" y="363.100846" style="fill: #808080; fill-opacity: 0.3; stroke: #000000; stroke-opacity: 0.3; stroke-width: 0.5"/>
    </g>
    <g clip-path="url(#p75ba9f2dd3)">
     <use xlink:href="#C2_0_98c5b0090e" x="276.538327" y="366.654224" style="fill: #808080; fill-opacity: 0.3; stroke: #000000; stroke-opacity: 0.3; stroke-width: 0.5"/>
    </g>
    <g clip-path="url(#p75ba9f2dd3)">
     <use xlink:href="#C2_0_98c5b0090e" x="268.249658" y="362.934255" style="fill: #808080; fill-opacity: 0.3; stroke: #000000; stroke-opacity: 0.3; stroke-width: 0.5"/>
    </g>
    <g clip-path="url(#p75ba9f2dd3)">
     <use xlink:href="#C2_0_98c5b0090e" x="264.84863" y="364.85796" style="fill: #808080; fill-opacity: 0.3; stroke: #000000; stroke-opacity: 0.3; stroke-width: 0.5"/>
    </g>
    <g clip-path="url(#p75ba9f2dd3)">
     <use xlink:href="#C2_0_98c5b0090e" x="277.069889" y="368.512326" style="fill: #808080; fill-opacity: 0.3; stroke: #000000; stroke-opacity: 0.3; stroke-width: 0.5"/>
    </g>
    <g clip-path="url(#p75ba9f2dd3)">
     <use xlink:href="#C2_0_98c5b0090e" x="273.009367" y="359.685286" style="fill: #808080; fill-opacity: 0.3; stroke: #000000; stroke-opacity: 0.3; stroke-width: 0.5"/>
    </g>
    <g clip-path="url(#p75ba9f2dd3)">
     <use xlink:href="#C2_0_98c5b0090e" x="269.855677" y="307.482406" style="fill: #808080; fill-opacity: 0.3; stroke: #000000; stroke-opacity: 0.3; stroke-width: 0.5"/>
    </g>
    <g clip-path="url(#p75ba9f2dd3)">
     <use xlink:href="#C2_0_98c5b0090e" x="274.446012" y="365.43657" style="fill: #808080; fill-opacity: 0.3; stroke: #000000; stroke-opacity: 0.3; stroke-width: 0.5"/>
    </g>
    <g clip-path="url(#p75ba9f2dd3)">
     <use xlink:href="#C2_0_98c5b0090e" x="274.487456" y="366.403305" style="fill: #808080; fill-opacity: 0.3; stroke: #000000; stroke-opacity: 0.3; stroke-width: 0.5"/>
    </g>
    <g clip-path="url(#p75ba9f2dd3)">
     <use xlink:href="#C2_0_98c5b0090e" x="265.461921" y="311.821788" style="fill: #808080; fill-opacity: 0.3; stroke: #000000; stroke-opacity: 0.3; stroke-width: 0.5"/>
    </g>
    <g clip-path="url(#p75ba9f2dd3)">
     <use xlink:href="#C2_0_98c5b0090e" x="270.176235" y="104.002276" style="fill: #808080; fill-opacity: 0.3; stroke: #000000; stroke-opacity: 0.3; stroke-width: 0.5"/>
    </g>
    <g clip-path="url(#p75ba9f2dd3)">
     <use xlink:href="#C2_0_98c5b0090e" x="278.579526" y="354.035685" style="fill: #808080; fill-opacity: 0.3; stroke: #000000; stroke-opacity: 0.3; stroke-width: 0.5"/>
    </g>
    <g clip-path="url(#p75ba9f2dd3)">
     <use xlink:href="#C2_0_98c5b0090e" x="269.039629" y="369.305355" style="fill: #808080; fill-opacity: 0.3; stroke: #000000; stroke-opacity: 0.3; stroke-width: 0.5"/>
    </g>
    <g clip-path="url(#p75ba9f2dd3)">
     <use xlink:href="#C2_0_98c5b0090e" x="271.96082" y="354.284889" style="fill: #808080; fill-opacity: 0.3; stroke: #000000; stroke-opacity: 0.3; stroke-width: 0.5"/>
    </g>
    <g clip-path="url(#p75ba9f2dd3)">
     <use xlink:href="#C2_0_98c5b0090e" x="273.965348" y="356.212301" style="fill: #808080; fill-opacity: 0.3; stroke: #000000; stroke-opacity: 0.3; stroke-width: 0.5"/>
    </g>
    <g clip-path="url(#p75ba9f2dd3)">
     <use xlink:href="#C2_0_98c5b0090e" x="278.595133" y="367.690592" style="fill: #808080; fill-opacity: 0.3; stroke: #000000; stroke-opacity: 0.3; stroke-width: 0.5"/>
    </g>
    <g clip-path="url(#p75ba9f2dd3)">
     <use xlink:href="#C2_0_98c5b0090e" x="279.755802" y="324.575683" style="fill: #808080; fill-opacity: 0.3; stroke: #000000; stroke-opacity: 0.3; stroke-width: 0.5"/>
    </g>
    <g clip-path="url(#p75ba9f2dd3)">
     <use xlink:href="#C2_0_98c5b0090e" x="274.526815" y="354.31406" style="fill: #808080; fill-opacity: 0.3; stroke: #000000; stroke-opacity: 0.3; stroke-width: 0.5"/>
    </g>
    <g clip-path="url(#p75ba9f2dd3)">
     <use xlink:href="#C2_0_98c5b0090e" x="270.529236" y="360.066222" style="fill: #808080; fill-opacity: 0.3; stroke: #000000; stroke-opacity: 0.3; stroke-width: 0.5"/>
    </g>
    <g clip-path="url(#p75ba9f2dd3)">
     <use xlink:href="#C2_0_98c5b0090e" x="270.013579" y="107.574698" style="fill: #808080; fill-opacity: 0.3; stroke: #000000; stroke-opacity: 0.3; stroke-width: 0.5"/>
    </g>
    <g clip-path="url(#p75ba9f2dd3)">
     <use xlink:href="#C2_0_98c5b0090e" x="272.134915" y="355.653398" style="fill: #808080; fill-opacity: 0.3; stroke: #000000; stroke-opacity: 0.3; stroke-width: 0.5"/>
    </g>
    <g clip-path="url(#p75ba9f2dd3)">
     <use xlink:href="#C2_0_98c5b0090e" x="275.464762" y="363.264954" style="fill: #808080; fill-opacity: 0.3; stroke: #000000; stroke-opacity: 0.3; stroke-width: 0.5"/>
    </g>
   </g>
   <g id="PathCollection_4">
    <defs>
     <path id="C3_0_a93f7ca518" d="M 0 5 
C 1.326016 5 2.597899 4.473168 3.535534 3.535534 
C 4.473168 2.597899 5 1.326016 5 -0 
C 5 -1.326016 4.473168 -2.597899 3.535534 -3.535534 
C 2.597899 -4.473168 1.326016 -5 0 -5 
C -1.326016 -5 -2.597899 -4.473168 -3.535534 -3.535534 
C -4.473168 -2.597899 -5 -1.326016 -5 0 
C -5 1.326016 -4.473168 2.597899 -3.535534 3.535534 
C -2.597899 4.473168 -1.326016 5 0 5 
z
"/>
    </defs>
    <g clip-path="url(#p75ba9f2dd3)">
     <use xlink:href="#C3_0_a93f7ca518" x="331.503971" y="249.048548" style="fill: #ff0000; fill-opacity: 0.3; stroke: #000000; stroke-opacity: 0.3; stroke-width: 0.5"/>
    </g>
    <g clip-path="url(#p75ba9f2dd3)">
     <use xlink:href="#C3_0_a93f7ca518" x="332.343959" y="361.415626" style="fill: #ff0000; fill-opacity: 0.3; stroke: #000000; stroke-opacity: 0.3; stroke-width: 0.5"/>
    </g>
    <g clip-path="url(#p75ba9f2dd3)">
     <use xlink:href="#C3_0_a93f7ca518" x="346.505977" y="367.889022" style="fill: #ff0000; fill-opacity: 0.3; stroke: #000000; stroke-opacity: 0.3; stroke-width: 0.5"/>
    </g>
    <g clip-path="url(#p75ba9f2dd3)">
     <use xlink:href="#C3_0_a93f7ca518" x="345.170333" y="346.306094" style="fill: #ff0000; fill-opacity: 0.3; stroke: #000000; stroke-opacity: 0.3; stroke-width: 0.5"/>
    </g>
    <g clip-path="url(#p75ba9f2dd3)">
     <use xlink:href="#C3_0_a93f7ca518" x="344.851129" y="291.825437" style="fill: #ff0000; fill-opacity: 0.3; stroke: #000000; stroke-opacity: 0.3; stroke-width: 0.5"/>
    </g>
    <g clip-path="url(#p75ba9f2dd3)">
     <use xlink:href="#C3_0_a93f7ca518" x="340.389528" y="176.548708" style="fill: #ff0000; fill-opacity: 0.3; stroke: #000000; stroke-opacity: 0.3; stroke-width: 0.5"/>
    </g>
    <g clip-path="url(#p75ba9f2dd3)">
     <use xlink:href="#C3_0_a93f7ca518" x="347.950489" y="261.17916" style="fill: #ff0000; fill-opacity: 0.3; stroke: #000000; stroke-opacity: 0.3; stroke-width: 0.5"/>
    </g>
    <g clip-path="url(#p75ba9f2dd3)">
     <use xlink:href="#C3_0_a93f7ca518" x="341.236675" y="365.784909" style="fill: #ff0000; fill-opacity: 0.3; stroke: #000000; stroke-opacity: 0.3; stroke-width: 0.5"/>
    </g>
    <g clip-path="url(#p75ba9f2dd3)">
     <use xlink:href="#C3_0_a93f7ca518" x="344.813852" y="95.282357" style="fill: #ff0000; fill-opacity: 0.3; stroke: #000000; stroke-opacity: 0.3; stroke-width: 0.5"/>
    </g>
   </g>
   <g id="line2d_19"/>
   <g id="line2d_20"/>
   <g id="text_10">
    <!-- P-value: 1.90e-05 -->
    <g transform="translate(136.854545 97.627401) scale(0.18 -0.18)">
     <defs>
      <path id="ArialMT-50" d="M 494 0 
L 494 4581 
L 2222 4581 
Q 2678 4581 2919 4538 
Q 3256 4481 3484 4323 
Q 3713 4166 3852 3881 
Q 3991 3597 3991 3256 
Q 3991 2672 3619 2267 
Q 3247 1863 2275 1863 
L 1100 1863 
L 1100 0 
L 494 0 
z
M 1100 2403 
L 2284 2403 
Q 2872 2403 3119 2622 
Q 3366 2841 3366 3238 
Q 3366 3525 3220 3729 
Q 3075 3934 2838 4000 
Q 2684 4041 2272 4041 
L 1100 4041 
L 1100 2403 
z
" transform="scale(0.015625)"/>
      <path id="ArialMT-2d" d="M 203 1375 
L 203 1941 
L 1931 1941 
L 1931 1375 
L 203 1375 
z
" transform="scale(0.015625)"/>
      <path id="ArialMT-76" d="M 1344 0 
L 81 3319 
L 675 3319 
L 1388 1331 
Q 1503 1009 1600 663 
Q 1675 925 1809 1294 
L 2547 3319 
L 3125 3319 
L 1869 0 
L 1344 0 
z
" transform="scale(0.015625)"/>
      <path id="ArialMT-6c" d="M 409 0 
L 409 4581 
L 972 4581 
L 972 0 
L 409 0 
z
" transform="scale(0.015625)"/>
      <path id="ArialMT-75" d="M 2597 0 
L 2597 488 
Q 2209 -75 1544 -75 
Q 1250 -75 995 37 
Q 741 150 617 320 
Q 494 491 444 738 
Q 409 903 409 1263 
L 409 3319 
L 972 3319 
L 972 1478 
Q 972 1038 1006 884 
Q 1059 663 1231 536 
Q 1403 409 1656 409 
Q 1909 409 2131 539 
Q 2353 669 2445 892 
Q 2538 1116 2538 1541 
L 2538 3319 
L 3100 3319 
L 3100 0 
L 2597 0 
z
" transform="scale(0.015625)"/>
      <path id="ArialMT-3a" d="M 578 2678 
L 578 3319 
L 1219 3319 
L 1219 2678 
L 578 2678 
z
M 578 0 
L 578 641 
L 1219 641 
L 1219 0 
L 578 0 
z
" transform="scale(0.015625)"/>
      <path id="ArialMT-39" d="M 350 1059 
L 891 1109 
Q 959 728 1153 556 
Q 1347 384 1650 384 
Q 1909 384 2104 503 
Q 2300 622 2425 820 
Q 2550 1019 2634 1356 
Q 2719 1694 2719 2044 
Q 2719 2081 2716 2156 
Q 2547 1888 2255 1720 
Q 1963 1553 1622 1553 
Q 1053 1553 659 1965 
Q 266 2378 266 3053 
Q 266 3750 677 4175 
Q 1088 4600 1706 4600 
Q 2153 4600 2523 4359 
Q 2894 4119 3086 3673 
Q 3278 3228 3278 2384 
Q 3278 1506 3087 986 
Q 2897 466 2520 194 
Q 2144 -78 1638 -78 
Q 1100 -78 759 220 
Q 419 519 350 1059 
z
M 2653 3081 
Q 2653 3566 2395 3850 
Q 2138 4134 1775 4134 
Q 1400 4134 1122 3828 
Q 844 3522 844 3034 
Q 844 2597 1108 2323 
Q 1372 2050 1759 2050 
Q 2150 2050 2401 2323 
Q 2653 2597 2653 3081 
z
" transform="scale(0.015625)"/>
      <path id="ArialMT-35" d="M 266 1200 
L 856 1250 
Q 922 819 1161 601 
Q 1400 384 1738 384 
Q 2144 384 2425 690 
Q 2706 997 2706 1503 
Q 2706 1984 2436 2262 
Q 2166 2541 1728 2541 
Q 1456 2541 1237 2417 
Q 1019 2294 894 2097 
L 366 2166 
L 809 4519 
L 3088 4519 
L 3088 3981 
L 1259 3981 
L 1013 2750 
Q 1425 3038 1878 3038 
Q 2478 3038 2890 2622 
Q 3303 2206 3303 1553 
Q 3303 931 2941 478 
Q 2500 -78 1738 -78 
Q 1113 -78 717 272 
Q 322 622 266 1200 
z
" transform="scale(0.015625)"/>
     </defs>
     <use xlink:href="#ArialMT-50"/>
     <use xlink:href="#ArialMT-2d" transform="translate(66.699219 0)"/>
     <use xlink:href="#ArialMT-76" transform="translate(100 0)"/>
     <use xlink:href="#ArialMT-61" transform="translate(150 0)"/>
     <use xlink:href="#ArialMT-6c" transform="translate(205.615234 0)"/>
     <use xlink:href="#ArialMT-75" transform="translate(227.832031 0)"/>
     <use xlink:href="#ArialMT-65" transform="translate(283.447266 0)"/>
     <use xlink:href="#ArialMT-3a" transform="translate(339.0625 0)"/>
     <use xlink:href="#ArialMT-20" transform="translate(366.845703 0)"/>
     <use xlink:href="#ArialMT-31" transform="translate(394.628906 0)"/>
     <use xlink:href="#ArialMT-2e" transform="translate(450.244141 0)"/>
     <use xlink:href="#ArialMT-39" transform="translate(478.027344 0)"/>
     <use xlink:href="#ArialMT-30" transform="translate(533.642578 0)"/>
     <use xlink:href="#ArialMT-65" transform="translate(589.257812 0)"/>
     <use xlink:href="#ArialMT-2d" transform="translate(644.873047 0)"/>
     <use xlink:href="#ArialMT-30" transform="translate(678.173828 0)"/>
     <use xlink:href="#ArialMT-35" transform="translate(733.789062 0)"/>
    </g>
   </g>
   <g id="text_11">
    <!-- R12 -->
    <g transform="translate(305.945455 233.941381) scale(0.15 -0.15)">
     <defs>
      <path id="ArialMT-52" d="M 503 0 
L 503 4581 
L 2534 4581 
Q 3147 4581 3465 4457 
Q 3784 4334 3975 4021 
Q 4166 3709 4166 3331 
Q 4166 2844 3850 2509 
Q 3534 2175 2875 2084 
Q 3116 1969 3241 1856 
Q 3506 1613 3744 1247 
L 4541 0 
L 3778 0 
L 3172 953 
Q 2906 1366 2734 1584 
Q 2563 1803 2427 1890 
Q 2291 1978 2150 2013 
Q 2047 2034 1813 2034 
L 1109 2034 
L 1109 0 
L 503 0 
z
M 1109 2559 
L 2413 2559 
Q 2828 2559 3062 2645 
Q 3297 2731 3419 2920 
Q 3541 3109 3541 3331 
Q 3541 3656 3305 3865 
Q 3069 4075 2559 4075 
L 1109 4075 
L 1109 2559 
z
" transform="scale(0.015625)"/>
     </defs>
     <use xlink:href="#ArialMT-52"/>
     <use xlink:href="#ArialMT-31" transform="translate(72.216797 0)"/>
     <use xlink:href="#ArialMT-32" transform="translate(127.832031 0)"/>
    </g>
   </g>
   <g id="text_12">
    <!-- R34 -->
    <g transform="translate(305.945455 249.048548) scale(0.15 -0.15)">
     <defs>
      <path id="ArialMT-33" d="M 269 1209 
L 831 1284 
Q 928 806 1161 595 
Q 1394 384 1728 384 
Q 2125 384 2398 659 
Q 2672 934 2672 1341 
Q 2672 1728 2419 1979 
Q 2166 2231 1775 2231 
Q 1616 2231 1378 2169 
L 1441 2663 
Q 1497 2656 1531 2656 
Q 1891 2656 2178 2843 
Q 2466 3031 2466 3422 
Q 2466 3731 2256 3934 
Q 2047 4138 1716 4138 
Q 1388 4138 1169 3931 
Q 950 3725 888 3313 
L 325 3413 
Q 428 3978 793 4289 
Q 1159 4600 1703 4600 
Q 2078 4600 2393 4439 
Q 2709 4278 2876 4000 
Q 3044 3722 3044 3409 
Q 3044 3113 2884 2869 
Q 2725 2625 2413 2481 
Q 2819 2388 3044 2092 
Q 3269 1797 3269 1353 
Q 3269 753 2831 336 
Q 2394 -81 1725 -81 
Q 1122 -81 723 278 
Q 325 638 269 1209 
z
" transform="scale(0.015625)"/>
     </defs>
     <use xlink:href="#ArialMT-52"/>
     <use xlink:href="#ArialMT-33" transform="translate(72.216797 0)"/>
     <use xlink:href="#ArialMT-34" transform="translate(127.832031 0)"/>
    </g>
   </g>
   <g id="text_13">
    <!-- R4 -->
    <g transform="translate(305.945455 104.002276) scale(0.15 -0.15)">
     <use xlink:href="#ArialMT-52"/>
     <use xlink:href="#ArialMT-34" transform="translate(72.216797 0)"/>
    </g>
   </g>
   <g id="text_14">
    <!-- R51 -->
    <g transform="translate(305.945455 176.548708) scale(0.15 -0.15)">
     <use xlink:href="#ArialMT-52"/>
     <use xlink:href="#ArialMT-35" transform="translate(72.216797 0)"/>
     <use xlink:href="#ArialMT-31" transform="translate(127.832031 0)"/>
    </g>
   </g>
   <g id="text_15">
    <!-- R52 -->
    <g transform="translate(305.945455 261.17916) scale(0.15 -0.15)">
     <use xlink:href="#ArialMT-52"/>
     <use xlink:href="#ArialMT-35" transform="translate(72.216797 0)"/>
     <use xlink:href="#ArialMT-32" transform="translate(127.832031 0)"/>
    </g>
   </g>
   <g id="text_16">
    <!-- R54 -->
    <g transform="translate(305.945455 95.282357) scale(0.15 -0.15)">
     <use xlink:href="#ArialMT-52"/>
     <use xlink:href="#ArialMT-35" transform="translate(72.216797 0)"/>
     <use xlink:href="#ArialMT-34" transform="translate(127.832031 0)"/>
    </g>
   </g>
   <g id="text_17">
    <!-- R7 -->
    <g transform="translate(305.945455 121.975647) scale(0.15 -0.15)">
     <defs>
      <path id="ArialMT-37" d="M 303 3981 
L 303 4522 
L 3269 4522 
L 3269 4084 
Q 2831 3619 2401 2847 
Q 1972 2075 1738 1259 
Q 1569 684 1522 0 
L 944 0 
Q 953 541 1156 1306 
Q 1359 2072 1739 2783 
Q 2119 3494 2547 3981 
L 303 3981 
z
" transform="scale(0.015625)"/>
     </defs>
     <use xlink:href="#ArialMT-52"/>
     <use xlink:href="#ArialMT-37" transform="translate(72.216797 0)"/>
    </g>
   </g>
   <g id="legend_1">
    <g id="patch_9">
     <path d="M 61 240.936562 
L 145.053125 240.936562 
Q 147.053125 240.936562 147.053125 238.936562 
L 147.053125 197.383437 
Q 147.053125 195.383437 145.053125 195.383437 
L 61 195.383437 
Q 59 195.383437 59 197.383437 
L 59 238.936562 
Q 59 240.936562 61 240.936562 
z
" style="fill: #ffffff; opacity: 0.8; stroke: #cccccc; stroke-linejoin: miter"/>
    </g>
    <g id="text_18">
     <!-- newly_sequenced -->
     <g transform="translate(63 206.54125) scale(0.1 -0.1)">
      <defs>
       <path id="ArialMT-5f" d="M -97 -1272 
L -97 -866 
L 3631 -866 
L 3631 -1272 
L -97 -1272 
z
" transform="scale(0.015625)"/>
       <path id="ArialMT-71" d="M 2538 -1272 
L 2538 353 
Q 2406 169 2170 47 
Q 1934 -75 1669 -75 
Q 1078 -75 651 397 
Q 225 869 225 1691 
Q 225 2191 398 2587 
Q 572 2984 901 3189 
Q 1231 3394 1625 3394 
Q 2241 3394 2594 2875 
L 2594 3319 
L 3100 3319 
L 3100 -1272 
L 2538 -1272 
z
M 803 1669 
Q 803 1028 1072 708 
Q 1341 388 1716 388 
Q 2075 388 2334 692 
Q 2594 997 2594 1619 
Q 2594 2281 2320 2615 
Q 2047 2950 1678 2950 
Q 1313 2950 1058 2639 
Q 803 2328 803 1669 
z
" transform="scale(0.015625)"/>
       <path id="ArialMT-63" d="M 2588 1216 
L 3141 1144 
Q 3050 572 2676 248 
Q 2303 -75 1759 -75 
Q 1078 -75 664 370 
Q 250 816 250 1647 
Q 250 2184 428 2587 
Q 606 2991 970 3192 
Q 1334 3394 1763 3394 
Q 2303 3394 2647 3120 
Q 2991 2847 3088 2344 
L 2541 2259 
Q 2463 2594 2264 2762 
Q 2066 2931 1784 2931 
Q 1359 2931 1093 2626 
Q 828 2322 828 1663 
Q 828 994 1084 691 
Q 1341 388 1753 388 
Q 2084 388 2306 591 
Q 2528 794 2588 1216 
z
" transform="scale(0.015625)"/>
      </defs>
      <use xlink:href="#ArialMT-6e"/>
      <use xlink:href="#ArialMT-65" transform="translate(55.615234 0)"/>
      <use xlink:href="#ArialMT-77" transform="translate(111.230469 0)"/>
      <use xlink:href="#ArialMT-6c" transform="translate(183.447266 0)"/>
      <use xlink:href="#ArialMT-79" transform="translate(205.664062 0)"/>
      <use xlink:href="#ArialMT-5f" transform="translate(255.664062 0)"/>
      <use xlink:href="#ArialMT-73" transform="translate(311.279297 0)"/>
      <use xlink:href="#ArialMT-65" transform="translate(361.279297 0)"/>
      <use xlink:href="#ArialMT-71" transform="translate(416.894531 0)"/>
      <use xlink:href="#ArialMT-75" transform="translate(472.509766 0)"/>
      <use xlink:href="#ArialMT-65" transform="translate(528.125 0)"/>
      <use xlink:href="#ArialMT-6e" transform="translate(583.740234 0)"/>
      <use xlink:href="#ArialMT-63" transform="translate(639.355469 0)"/>
      <use xlink:href="#ArialMT-65" transform="translate(689.355469 0)"/>
      <use xlink:href="#ArialMT-64" transform="translate(744.970703 0)"/>
     </g>
    </g>
    <g id="line2d_21">
     <defs>
      <path id="mbec87533ac" d="M 0 5 
C 1.326016 5 2.597899 4.473168 3.535534 3.535534 
C 4.473168 2.597899 5 1.326016 5 0 
C 5 -1.326016 4.473168 -2.597899 3.535534 -3.535534 
C 2.597899 -4.473168 1.326016 -5 0 -5 
C -1.326016 -5 -2.597899 -4.473168 -3.535534 -3.535534 
C -4.473168 -2.597899 -5 -1.326016 -5 0 
C -5 1.326016 -4.473168 2.597899 -3.535534 3.535534 
C -2.597899 4.473168 -1.326016 5 0 5 
z
" style="stroke: #000000; stroke-opacity: 0.3; stroke-width: 0.5"/>
     </defs>
     <g>
      <use xlink:href="#mbec87533ac" x="86.800781" y="217.30375" style="fill: #808080; fill-opacity: 0.3; stroke: #000000; stroke-opacity: 0.3; stroke-width: 0.5"/>
     </g>
    </g>
    <g id="text_19">
     <!-- False -->
     <g transform="translate(104.800781 220.80375) scale(0.1 -0.1)">
      <defs>
       <path id="ArialMT-46" d="M 525 0 
L 525 4581 
L 3616 4581 
L 3616 4041 
L 1131 4041 
L 1131 2622 
L 3281 2622 
L 3281 2081 
L 1131 2081 
L 1131 0 
L 525 0 
z
" transform="scale(0.015625)"/>
      </defs>
      <use xlink:href="#ArialMT-46"/>
      <use xlink:href="#ArialMT-61" transform="translate(61.083984 0)"/>
      <use xlink:href="#ArialMT-6c" transform="translate(116.699219 0)"/>
      <use xlink:href="#ArialMT-73" transform="translate(138.916016 0)"/>
      <use xlink:href="#ArialMT-65" transform="translate(188.916016 0)"/>
     </g>
    </g>
    <g id="line2d_22">
     <defs>
      <path id="m84f2c2e9cf" d="M 0 5 
C 1.326016 5 2.597899 4.473168 3.535534 3.535534 
C 4.473168 2.597899 5 1.326016 5 0 
C 5 -1.326016 4.473168 -2.597899 3.535534 -3.535534 
C 2.597899 -4.473168 1.326016 -5 0 -5 
C -1.326016 -5 -2.597899 -4.473168 -3.535534 -3.535534 
C -4.473168 -2.597899 -5 -1.326016 -5 0 
C -5 1.326016 -4.473168 2.597899 -3.535534 3.535534 
C -2.597899 4.473168 -1.326016 5 0 5 
z
" style="stroke: #000000; stroke-opacity: 0.3; stroke-width: 0.5"/>
     </defs>
     <g>
      <use xlink:href="#m84f2c2e9cf" x="86.800781" y="231.449062" style="fill: #ff0000; fill-opacity: 0.3; stroke: #000000; stroke-opacity: 0.3; stroke-width: 0.5"/>
     </g>
    </g>
    <g id="text_20">
     <!-- True -->
     <g transform="translate(104.800781 234.949062) scale(0.1 -0.1)">
      <defs>
       <path id="ArialMT-54" d="M 1659 0 
L 1659 4041 
L 150 4041 
L 150 4581 
L 3781 4581 
L 3781 4041 
L 2266 4041 
L 2266 0 
L 1659 0 
z
" transform="scale(0.015625)"/>
      </defs>
      <use xlink:href="#ArialMT-54"/>
      <use xlink:href="#ArialMT-72" transform="translate(57.333984 0)"/>
      <use xlink:href="#ArialMT-75" transform="translate(90.634766 0)"/>
      <use xlink:href="#ArialMT-65" transform="translate(146.25 0)"/>
     </g>
    </g>
   </g>
  </g>
 </g>
 <defs>
  <clipPath id="p75ba9f2dd3">
   <rect x="54" y="51.84" width="334.8" height="332.64"/>
  </clipPath>
 </defs>
</svg>
