<?xml version="1.0" encoding="utf-8" standalone="no"?>
<!DOCTYPE svg PUBLIC "-//W3C//DTD SVG 1.1//EN"
  "http://www.w3.org/Graphics/SVG/1.1/DTD/svg11.dtd">
<svg height="432pt" version="1.1" viewBox="0 0 288 432" width="288pt" xmlns="http://www.w3.org/2000/svg" xmlns:xlink="http://www.w3.org/1999/xlink">
 <metadata>
  <rdf:RDF xmlns:cc="http://creativecommons.org/ns#" xmlns:dc="http://purl.org/dc/elements/1.1/" xmlns:rdf="http://www.w3.org/1999/02/22-rdf-syntax-ns#">
   <cc:Work>
    <dc:type rdf:resource="http://purl.org/dc/dcmitype/StillImage"/>
    <dc:date>2023-08-17T12:47:01.614115</dc:date>
    <dc:format>image/svg+xml</dc:format>
    <dc:creator>
     <cc:Agent>
      <dc:title>Matplotlib v3.4.3, https://matplotlib.org/</dc:title>
     </cc:Agent>
    </dc:creator>
   </cc:Work>
  </rdf:RDF>
 </metadata>
 <defs>
  <style type="text/css">*{stroke-linecap:butt;stroke-linejoin:round;}</style>
 </defs>
 <g id="figure_1">
  <g id="patch_1">
   <path d="M 0 432 
L 288 432 
L 288 0 
L 0 0 
z
" style="fill:#ffffff;"/>
  </g>
  <g id="axes_1">
   <g id="patch_2">
    <path d="M 36 384.48 
L 259.2 384.48 
L 259.2 51.84 
L 36 51.84 
z
" style="fill:#ffffff;"/>
   </g>
   <g id="matplotlib.axis_1">
    <g id="xtick_1">
     <g id="text_1">
      <!-- srb11Δ (Bioneer) -->
      <g style="fill:#262626;" transform="translate(49.527555 478.016612)rotate(-45)scale(0.15 -0.15)">
       <defs>
        <path d="M 197 991 
L 753 1078 
Q 800 744 1014 566 
Q 1228 388 1613 388 
Q 2000 388 2187 545 
Q 2375 703 2375 916 
Q 2375 1106 2209 1216 
Q 2094 1291 1634 1406 
Q 1016 1563 777 1677 
Q 538 1791 414 1992 
Q 291 2194 291 2438 
Q 291 2659 392 2848 
Q 494 3038 669 3163 
Q 800 3259 1026 3326 
Q 1253 3394 1513 3394 
Q 1903 3394 2198 3281 
Q 2494 3169 2634 2976 
Q 2775 2784 2828 2463 
L 2278 2388 
Q 2241 2644 2061 2787 
Q 1881 2931 1553 2931 
Q 1166 2931 1000 2803 
Q 834 2675 834 2503 
Q 834 2394 903 2306 
Q 972 2216 1119 2156 
Q 1203 2125 1616 2013 
Q 2213 1853 2448 1751 
Q 2684 1650 2818 1456 
Q 2953 1263 2953 975 
Q 2953 694 2789 445 
Q 2625 197 2315 61 
Q 2006 -75 1616 -75 
Q 969 -75 630 194 
Q 291 463 197 991 
z
" id="ArialMT-73" transform="scale(0.015625)"/>
        <path d="M 416 0 
L 416 3319 
L 922 3319 
L 922 2816 
Q 1116 3169 1280 3281 
Q 1444 3394 1641 3394 
Q 1925 3394 2219 3213 
L 2025 2691 
Q 1819 2813 1613 2813 
Q 1428 2813 1281 2702 
Q 1134 2591 1072 2394 
Q 978 2094 978 1738 
L 978 0 
L 416 0 
z
" id="ArialMT-72" transform="scale(0.015625)"/>
        <path d="M 941 0 
L 419 0 
L 419 4581 
L 981 4581 
L 981 2947 
Q 1338 3394 1891 3394 
Q 2197 3394 2470 3270 
Q 2744 3147 2920 2923 
Q 3097 2700 3197 2384 
Q 3297 2069 3297 1709 
Q 3297 856 2875 390 
Q 2453 -75 1863 -75 
Q 1275 -75 941 416 
L 941 0 
z
M 934 1684 
Q 934 1088 1097 822 
Q 1363 388 1816 388 
Q 2184 388 2453 708 
Q 2722 1028 2722 1663 
Q 2722 2313 2464 2622 
Q 2206 2931 1841 2931 
Q 1472 2931 1203 2611 
Q 934 2291 934 1684 
z
" id="ArialMT-62" transform="scale(0.015625)"/>
        <path d="M 2384 0 
L 1822 0 
L 1822 3584 
Q 1619 3391 1289 3197 
Q 959 3003 697 2906 
L 697 3450 
Q 1169 3672 1522 3987 
Q 1875 4303 2022 4600 
L 2384 4600 
L 2384 0 
z
" id="ArialMT-31" transform="scale(0.015625)"/>
        <path d="M -6 0 
L 1753 4581 
L 2406 4581 
L 4281 0 
L -6 0 
z
M 834 541 
L 3381 541 
L 2391 3150 
Q 2169 3738 2066 4100 
Q 1981 3675 1819 3225 
L 834 541 
z
" id="ArialMT-394" transform="scale(0.015625)"/>
        <path id="ArialMT-20" transform="scale(0.015625)"/>
        <path d="M 1497 -1347 
Q 1031 -759 709 28 
Q 388 816 388 1659 
Q 388 2403 628 3084 
Q 909 3875 1497 4659 
L 1900 4659 
Q 1522 4009 1400 3731 
Q 1209 3300 1100 2831 
Q 966 2247 966 1656 
Q 966 153 1900 -1347 
L 1497 -1347 
z
" id="ArialMT-28" transform="scale(0.015625)"/>
        <path d="M 469 0 
L 469 4581 
L 2188 4581 
Q 2713 4581 3030 4442 
Q 3347 4303 3526 4014 
Q 3706 3725 3706 3409 
Q 3706 3116 3547 2856 
Q 3388 2597 3066 2438 
Q 3481 2316 3704 2022 
Q 3928 1728 3928 1328 
Q 3928 1006 3792 729 
Q 3656 453 3456 303 
Q 3256 153 2954 76 
Q 2653 0 2216 0 
L 469 0 
z
M 1075 2656 
L 2066 2656 
Q 2469 2656 2644 2709 
Q 2875 2778 2992 2937 
Q 3109 3097 3109 3338 
Q 3109 3566 3000 3739 
Q 2891 3913 2687 3977 
Q 2484 4041 1991 4041 
L 1075 4041 
L 1075 2656 
z
M 1075 541 
L 2216 541 
Q 2509 541 2628 563 
Q 2838 600 2978 687 
Q 3119 775 3209 942 
Q 3300 1109 3300 1328 
Q 3300 1584 3169 1773 
Q 3038 1963 2805 2039 
Q 2572 2116 2134 2116 
L 1075 2116 
L 1075 541 
z
" id="ArialMT-42" transform="scale(0.015625)"/>
        <path d="M 425 3934 
L 425 4581 
L 988 4581 
L 988 3934 
L 425 3934 
z
M 425 0 
L 425 3319 
L 988 3319 
L 988 0 
L 425 0 
z
" id="ArialMT-69" transform="scale(0.015625)"/>
        <path d="M 213 1659 
Q 213 2581 725 3025 
Q 1153 3394 1769 3394 
Q 2453 3394 2887 2945 
Q 3322 2497 3322 1706 
Q 3322 1066 3130 698 
Q 2938 331 2570 128 
Q 2203 -75 1769 -75 
Q 1072 -75 642 372 
Q 213 819 213 1659 
z
M 791 1659 
Q 791 1022 1069 705 
Q 1347 388 1769 388 
Q 2188 388 2466 706 
Q 2744 1025 2744 1678 
Q 2744 2294 2464 2611 
Q 2184 2928 1769 2928 
Q 1347 2928 1069 2612 
Q 791 2297 791 1659 
z
" id="ArialMT-6f" transform="scale(0.015625)"/>
        <path d="M 422 0 
L 422 3319 
L 928 3319 
L 928 2847 
Q 1294 3394 1984 3394 
Q 2284 3394 2536 3286 
Q 2788 3178 2913 3003 
Q 3038 2828 3088 2588 
Q 3119 2431 3119 2041 
L 3119 0 
L 2556 0 
L 2556 2019 
Q 2556 2363 2490 2533 
Q 2425 2703 2258 2804 
Q 2091 2906 1866 2906 
Q 1506 2906 1245 2678 
Q 984 2450 984 1813 
L 984 0 
L 422 0 
z
" id="ArialMT-6e" transform="scale(0.015625)"/>
        <path d="M 2694 1069 
L 3275 997 
Q 3138 488 2766 206 
Q 2394 -75 1816 -75 
Q 1088 -75 661 373 
Q 234 822 234 1631 
Q 234 2469 665 2931 
Q 1097 3394 1784 3394 
Q 2450 3394 2872 2941 
Q 3294 2488 3294 1666 
Q 3294 1616 3291 1516 
L 816 1516 
Q 847 969 1125 678 
Q 1403 388 1819 388 
Q 2128 388 2347 550 
Q 2566 713 2694 1069 
z
M 847 1978 
L 2700 1978 
Q 2663 2397 2488 2606 
Q 2219 2931 1791 2931 
Q 1403 2931 1139 2672 
Q 875 2413 847 1978 
z
" id="ArialMT-65" transform="scale(0.015625)"/>
        <path d="M 791 -1347 
L 388 -1347 
Q 1322 153 1322 1656 
Q 1322 2244 1188 2822 
Q 1081 3291 891 3722 
Q 769 4003 388 4659 
L 791 4659 
Q 1378 3875 1659 3084 
Q 1900 2403 1900 1659 
Q 1900 816 1576 28 
Q 1253 -759 791 -1347 
z
" id="ArialMT-29" transform="scale(0.015625)"/>
       </defs>
       <use xlink:href="#ArialMT-73"/>
       <use x="50" xlink:href="#ArialMT-72"/>
       <use x="83.300781" xlink:href="#ArialMT-62"/>
       <use x="138.916016" xlink:href="#ArialMT-31"/>
       <use x="187.15625" xlink:href="#ArialMT-31"/>
       <use x="242.771484" xlink:href="#ArialMT-394"/>
       <use x="304.068359" xlink:href="#ArialMT-20"/>
       <use x="331.851562" xlink:href="#ArialMT-28"/>
       <use x="365.152344" xlink:href="#ArialMT-42"/>
       <use x="431.851562" xlink:href="#ArialMT-69"/>
       <use x="454.068359" xlink:href="#ArialMT-6f"/>
       <use x="509.683594" xlink:href="#ArialMT-6e"/>
       <use x="565.298828" xlink:href="#ArialMT-65"/>
       <use x="620.914062" xlink:href="#ArialMT-65"/>
       <use x="676.529297" xlink:href="#ArialMT-72"/>
       <use x="709.830078" xlink:href="#ArialMT-29"/>
      </g>
      <!--  n=20  -->
      <g style="fill:#262626;" transform="translate(85.386486 464.843212)rotate(-45)scale(0.15 -0.15)">
       <defs>
        <path d="M 3381 2694 
L 356 2694 
L 356 3219 
L 3381 3219 
L 3381 2694 
z
M 3381 1303 
L 356 1303 
L 356 1828 
L 3381 1828 
L 3381 1303 
z
" id="ArialMT-3d" transform="scale(0.015625)"/>
        <path d="M 3222 541 
L 3222 0 
L 194 0 
Q 188 203 259 391 
Q 375 700 629 1000 
Q 884 1300 1366 1694 
Q 2113 2306 2375 2664 
Q 2638 3022 2638 3341 
Q 2638 3675 2398 3904 
Q 2159 4134 1775 4134 
Q 1369 4134 1125 3890 
Q 881 3647 878 3216 
L 300 3275 
Q 359 3922 746 4261 
Q 1134 4600 1788 4600 
Q 2447 4600 2831 4234 
Q 3216 3869 3216 3328 
Q 3216 3053 3103 2787 
Q 2991 2522 2730 2228 
Q 2469 1934 1863 1422 
Q 1356 997 1212 845 
Q 1069 694 975 541 
L 3222 541 
z
" id="ArialMT-32" transform="scale(0.015625)"/>
        <path d="M 266 2259 
Q 266 3072 433 3567 
Q 600 4063 929 4331 
Q 1259 4600 1759 4600 
Q 2128 4600 2406 4451 
Q 2684 4303 2865 4023 
Q 3047 3744 3150 3342 
Q 3253 2941 3253 2259 
Q 3253 1453 3087 958 
Q 2922 463 2592 192 
Q 2263 -78 1759 -78 
Q 1097 -78 719 397 
Q 266 969 266 2259 
z
M 844 2259 
Q 844 1131 1108 757 
Q 1372 384 1759 384 
Q 2147 384 2411 759 
Q 2675 1134 2675 2259 
Q 2675 3391 2411 3762 
Q 2147 4134 1753 4134 
Q 1366 4134 1134 3806 
Q 844 3388 844 2259 
z
" id="ArialMT-30" transform="scale(0.015625)"/>
       </defs>
       <use xlink:href="#ArialMT-20"/>
       <use x="27.783203" xlink:href="#ArialMT-6e"/>
       <use x="83.398438" xlink:href="#ArialMT-3d"/>
       <use x="141.796875" xlink:href="#ArialMT-32"/>
       <use x="197.412109" xlink:href="#ArialMT-30"/>
       <use x="253.027344" xlink:href="#ArialMT-20"/>
      </g>
     </g>
    </g>
    <g id="xtick_2">
     <g id="text_2">
      <!-- srb11Δ (Bioneer) -->
      <g style="fill:#262626;" transform="translate(155.378611 481.343604)rotate(-45)scale(0.15 -0.15)">
       <use xlink:href="#ArialMT-73"/>
       <use x="50" xlink:href="#ArialMT-72"/>
       <use x="83.300781" xlink:href="#ArialMT-62"/>
       <use x="138.916016" xlink:href="#ArialMT-31"/>
       <use x="187.15625" xlink:href="#ArialMT-31"/>
       <use x="242.771484" xlink:href="#ArialMT-394"/>
       <use x="304.068359" xlink:href="#ArialMT-20"/>
       <use x="331.851562" xlink:href="#ArialMT-28"/>
       <use x="365.152344" xlink:href="#ArialMT-42"/>
       <use x="431.851562" xlink:href="#ArialMT-69"/>
       <use x="454.068359" xlink:href="#ArialMT-6f"/>
       <use x="509.683594" xlink:href="#ArialMT-6e"/>
       <use x="565.298828" xlink:href="#ArialMT-65"/>
       <use x="620.914062" xlink:href="#ArialMT-65"/>
       <use x="676.529297" xlink:href="#ArialMT-72"/>
       <use x="709.830078" xlink:href="#ArialMT-29"/>
      </g>
      <!--  mbx2Δ (CRISPR) -->
      <g style="fill:#262626;" transform="translate(163.549506 496.168485)rotate(-45)scale(0.15 -0.15)">
       <defs>
        <path d="M 422 0 
L 422 3319 
L 925 3319 
L 925 2853 
Q 1081 3097 1340 3245 
Q 1600 3394 1931 3394 
Q 2300 3394 2536 3241 
Q 2772 3088 2869 2813 
Q 3263 3394 3894 3394 
Q 4388 3394 4653 3120 
Q 4919 2847 4919 2278 
L 4919 0 
L 4359 0 
L 4359 2091 
Q 4359 2428 4304 2576 
Q 4250 2725 4106 2815 
Q 3963 2906 3769 2906 
Q 3419 2906 3187 2673 
Q 2956 2441 2956 1928 
L 2956 0 
L 2394 0 
L 2394 2156 
Q 2394 2531 2256 2718 
Q 2119 2906 1806 2906 
Q 1569 2906 1367 2781 
Q 1166 2656 1075 2415 
Q 984 2175 984 1722 
L 984 0 
L 422 0 
z
" id="ArialMT-6d" transform="scale(0.015625)"/>
        <path d="M 47 0 
L 1259 1725 
L 138 3319 
L 841 3319 
L 1350 2541 
Q 1494 2319 1581 2169 
Q 1719 2375 1834 2534 
L 2394 3319 
L 3066 3319 
L 1919 1756 
L 3153 0 
L 2463 0 
L 1781 1031 
L 1600 1309 
L 728 0 
L 47 0 
z
" id="ArialMT-78" transform="scale(0.015625)"/>
        <path d="M 3763 1606 
L 4369 1453 
Q 4178 706 3683 314 
Q 3188 -78 2472 -78 
Q 1731 -78 1267 223 
Q 803 525 561 1097 
Q 319 1669 319 2325 
Q 319 3041 592 3573 
Q 866 4106 1370 4382 
Q 1875 4659 2481 4659 
Q 3169 4659 3637 4309 
Q 4106 3959 4291 3325 
L 3694 3184 
Q 3534 3684 3231 3912 
Q 2928 4141 2469 4141 
Q 1941 4141 1586 3887 
Q 1231 3634 1087 3207 
Q 944 2781 944 2328 
Q 944 1744 1114 1308 
Q 1284 872 1643 656 
Q 2003 441 2422 441 
Q 2931 441 3284 734 
Q 3638 1028 3763 1606 
z
" id="ArialMT-43" transform="scale(0.015625)"/>
        <path d="M 503 0 
L 503 4581 
L 2534 4581 
Q 3147 4581 3465 4457 
Q 3784 4334 3975 4021 
Q 4166 3709 4166 3331 
Q 4166 2844 3850 2509 
Q 3534 2175 2875 2084 
Q 3116 1969 3241 1856 
Q 3506 1613 3744 1247 
L 4541 0 
L 3778 0 
L 3172 953 
Q 2906 1366 2734 1584 
Q 2563 1803 2427 1890 
Q 2291 1978 2150 2013 
Q 2047 2034 1813 2034 
L 1109 2034 
L 1109 0 
L 503 0 
z
M 1109 2559 
L 2413 2559 
Q 2828 2559 3062 2645 
Q 3297 2731 3419 2920 
Q 3541 3109 3541 3331 
Q 3541 3656 3305 3865 
Q 3069 4075 2559 4075 
L 1109 4075 
L 1109 2559 
z
" id="ArialMT-52" transform="scale(0.015625)"/>
        <path d="M 597 0 
L 597 4581 
L 1203 4581 
L 1203 0 
L 597 0 
z
" id="ArialMT-49" transform="scale(0.015625)"/>
        <path d="M 288 1472 
L 859 1522 
Q 900 1178 1048 958 
Q 1197 738 1509 602 
Q 1822 466 2213 466 
Q 2559 466 2825 569 
Q 3091 672 3220 851 
Q 3350 1031 3350 1244 
Q 3350 1459 3225 1620 
Q 3100 1781 2813 1891 
Q 2628 1963 1997 2114 
Q 1366 2266 1113 2400 
Q 784 2572 623 2826 
Q 463 3081 463 3397 
Q 463 3744 659 4045 
Q 856 4347 1234 4503 
Q 1613 4659 2075 4659 
Q 2584 4659 2973 4495 
Q 3363 4331 3572 4012 
Q 3781 3694 3797 3291 
L 3216 3247 
Q 3169 3681 2898 3903 
Q 2628 4125 2100 4125 
Q 1550 4125 1298 3923 
Q 1047 3722 1047 3438 
Q 1047 3191 1225 3031 
Q 1400 2872 2139 2705 
Q 2878 2538 3153 2413 
Q 3553 2228 3743 1945 
Q 3934 1663 3934 1294 
Q 3934 928 3725 604 
Q 3516 281 3123 101 
Q 2731 -78 2241 -78 
Q 1619 -78 1198 103 
Q 778 284 539 648 
Q 300 1013 288 1472 
z
" id="ArialMT-53" transform="scale(0.015625)"/>
        <path d="M 494 0 
L 494 4581 
L 2222 4581 
Q 2678 4581 2919 4538 
Q 3256 4481 3484 4323 
Q 3713 4166 3852 3881 
Q 3991 3597 3991 3256 
Q 3991 2672 3619 2267 
Q 3247 1863 2275 1863 
L 1100 1863 
L 1100 0 
L 494 0 
z
M 1100 2403 
L 2284 2403 
Q 2872 2403 3119 2622 
Q 3366 2841 3366 3238 
Q 3366 3525 3220 3729 
Q 3075 3934 2838 4000 
Q 2684 4041 2272 4041 
L 1100 4041 
L 1100 2403 
z
" id="ArialMT-50" transform="scale(0.015625)"/>
       </defs>
       <use xlink:href="#ArialMT-20"/>
       <use x="27.783203" xlink:href="#ArialMT-6d"/>
       <use x="111.083984" xlink:href="#ArialMT-62"/>
       <use x="166.699219" xlink:href="#ArialMT-78"/>
       <use x="216.699219" xlink:href="#ArialMT-32"/>
       <use x="272.314453" xlink:href="#ArialMT-394"/>
       <use x="333.611328" xlink:href="#ArialMT-20"/>
       <use x="361.394531" xlink:href="#ArialMT-28"/>
       <use x="394.695312" xlink:href="#ArialMT-43"/>
       <use x="466.912109" xlink:href="#ArialMT-52"/>
       <use x="539.128906" xlink:href="#ArialMT-49"/>
       <use x="566.912109" xlink:href="#ArialMT-53"/>
       <use x="633.611328" xlink:href="#ArialMT-50"/>
       <use x="700.310547" xlink:href="#ArialMT-52"/>
       <use x="772.527344" xlink:href="#ArialMT-29"/>
      </g>
      <!--  n=60  -->
      <g style="fill:#262626;" transform="translate(202.73543 479.668093)rotate(-45)scale(0.15 -0.15)">
       <defs>
        <path d="M 3184 3459 
L 2625 3416 
Q 2550 3747 2413 3897 
Q 2184 4138 1850 4138 
Q 1581 4138 1378 3988 
Q 1113 3794 959 3422 
Q 806 3050 800 2363 
Q 1003 2672 1297 2822 
Q 1591 2972 1913 2972 
Q 2475 2972 2870 2558 
Q 3266 2144 3266 1488 
Q 3266 1056 3080 686 
Q 2894 316 2569 119 
Q 2244 -78 1831 -78 
Q 1128 -78 684 439 
Q 241 956 241 2144 
Q 241 3472 731 4075 
Q 1159 4600 1884 4600 
Q 2425 4600 2770 4297 
Q 3116 3994 3184 3459 
z
M 888 1484 
Q 888 1194 1011 928 
Q 1134 663 1356 523 
Q 1578 384 1822 384 
Q 2178 384 2434 671 
Q 2691 959 2691 1453 
Q 2691 1928 2437 2201 
Q 2184 2475 1800 2475 
Q 1419 2475 1153 2201 
Q 888 1928 888 1484 
z
" id="ArialMT-36" transform="scale(0.015625)"/>
       </defs>
       <use xlink:href="#ArialMT-20"/>
       <use x="27.783203" xlink:href="#ArialMT-6e"/>
       <use x="83.398438" xlink:href="#ArialMT-3d"/>
       <use x="141.796875" xlink:href="#ArialMT-36"/>
       <use x="197.412109" xlink:href="#ArialMT-30"/>
       <use x="253.027344" xlink:href="#ArialMT-20"/>
      </g>
     </g>
    </g>
   </g>
   <g id="matplotlib.axis_2">
    <g id="ytick_1">
     <g id="line2d_1">
      <path clip-path="url(#p2390e6f6f5)" d="M 36 384.48 
L 259.2 384.48 
" style="fill:none;stroke:#cccccc;stroke-linecap:round;stroke-width:0.8;"/>
     </g>
     <g id="text_3">
      <!-- 0.0 -->
      <g style="fill:#262626;" transform="translate(12.148762 401.446824)rotate(-45)scale(0.15 -0.15)">
       <defs>
        <path d="M 581 0 
L 581 641 
L 1222 641 
L 1222 0 
L 581 0 
z
" id="ArialMT-2e" transform="scale(0.015625)"/>
       </defs>
       <use xlink:href="#ArialMT-30"/>
       <use x="55.615234" xlink:href="#ArialMT-2e"/>
       <use x="83.398438" xlink:href="#ArialMT-30"/>
      </g>
     </g>
    </g>
    <g id="ytick_2">
     <g id="line2d_2">
      <path clip-path="url(#p2390e6f6f5)" d="M 36 318.640593 
L 259.2 318.640593 
" style="fill:none;stroke:#cccccc;stroke-linecap:round;stroke-width:0.8;"/>
     </g>
     <g id="text_4">
      <!-- 0.2 -->
      <g style="fill:#262626;" transform="translate(12.148762 335.607417)rotate(-45)scale(0.15 -0.15)">
       <use xlink:href="#ArialMT-30"/>
       <use x="55.615234" xlink:href="#ArialMT-2e"/>
       <use x="83.398438" xlink:href="#ArialMT-32"/>
      </g>
     </g>
    </g>
    <g id="ytick_3">
     <g id="line2d_3">
      <path clip-path="url(#p2390e6f6f5)" d="M 36 252.801186 
L 259.2 252.801186 
" style="fill:none;stroke:#cccccc;stroke-linecap:round;stroke-width:0.8;"/>
     </g>
     <g id="text_5">
      <!-- 0.4 -->
      <g style="fill:#262626;" transform="translate(12.148762 269.768009)rotate(-45)scale(0.15 -0.15)">
       <defs>
        <path d="M 2069 0 
L 2069 1097 
L 81 1097 
L 81 1613 
L 2172 4581 
L 2631 4581 
L 2631 1613 
L 3250 1613 
L 3250 1097 
L 2631 1097 
L 2631 0 
L 2069 0 
z
M 2069 1613 
L 2069 3678 
L 634 1613 
L 2069 1613 
z
" id="ArialMT-34" transform="scale(0.015625)"/>
       </defs>
       <use xlink:href="#ArialMT-30"/>
       <use x="55.615234" xlink:href="#ArialMT-2e"/>
       <use x="83.398438" xlink:href="#ArialMT-34"/>
      </g>
     </g>
    </g>
    <g id="ytick_4">
     <g id="line2d_4">
      <path clip-path="url(#p2390e6f6f5)" d="M 36 186.961779 
L 259.2 186.961779 
" style="fill:none;stroke:#cccccc;stroke-linecap:round;stroke-width:0.8;"/>
     </g>
     <g id="text_6">
      <!-- 0.6 -->
      <g style="fill:#262626;" transform="translate(12.148762 203.928602)rotate(-45)scale(0.15 -0.15)">
       <use xlink:href="#ArialMT-30"/>
       <use x="55.615234" xlink:href="#ArialMT-2e"/>
       <use x="83.398438" xlink:href="#ArialMT-36"/>
      </g>
     </g>
    </g>
    <g id="ytick_5">
     <g id="line2d_5">
      <path clip-path="url(#p2390e6f6f5)" d="M 36 121.122372 
L 259.2 121.122372 
" style="fill:none;stroke:#cccccc;stroke-linecap:round;stroke-width:0.8;"/>
     </g>
     <g id="text_7">
      <!-- 0.8 -->
      <g style="fill:#262626;" transform="translate(12.148762 138.089195)rotate(-45)scale(0.15 -0.15)">
       <defs>
        <path d="M 1131 2484 
Q 781 2613 612 2850 
Q 444 3088 444 3419 
Q 444 3919 803 4259 
Q 1163 4600 1759 4600 
Q 2359 4600 2725 4251 
Q 3091 3903 3091 3403 
Q 3091 3084 2923 2848 
Q 2756 2613 2416 2484 
Q 2838 2347 3058 2040 
Q 3278 1734 3278 1309 
Q 3278 722 2862 322 
Q 2447 -78 1769 -78 
Q 1091 -78 675 323 
Q 259 725 259 1325 
Q 259 1772 486 2073 
Q 713 2375 1131 2484 
z
M 1019 3438 
Q 1019 3113 1228 2906 
Q 1438 2700 1772 2700 
Q 2097 2700 2305 2904 
Q 2513 3109 2513 3406 
Q 2513 3716 2298 3927 
Q 2084 4138 1766 4138 
Q 1444 4138 1231 3931 
Q 1019 3725 1019 3438 
z
M 838 1322 
Q 838 1081 952 856 
Q 1066 631 1291 507 
Q 1516 384 1775 384 
Q 2178 384 2440 643 
Q 2703 903 2703 1303 
Q 2703 1709 2433 1975 
Q 2163 2241 1756 2241 
Q 1359 2241 1098 1978 
Q 838 1716 838 1322 
z
" id="ArialMT-38" transform="scale(0.015625)"/>
       </defs>
       <use xlink:href="#ArialMT-30"/>
       <use x="55.615234" xlink:href="#ArialMT-2e"/>
       <use x="83.398438" xlink:href="#ArialMT-38"/>
      </g>
     </g>
    </g>
    <g id="ytick_6">
     <g id="line2d_6">
      <path clip-path="url(#p2390e6f6f5)" d="M 36 55.282965 
L 259.2 55.282965 
" style="fill:none;stroke:#cccccc;stroke-linecap:round;stroke-width:0.8;"/>
     </g>
     <g id="text_8">
      <!-- 1.0 -->
      <g style="fill:#262626;" transform="translate(12.148762 72.249788)rotate(-45)scale(0.15 -0.15)">
       <use xlink:href="#ArialMT-31"/>
       <use x="55.615234" xlink:href="#ArialMT-2e"/>
       <use x="83.398438" xlink:href="#ArialMT-30"/>
      </g>
     </g>
    </g>
    <g id="text_9">
     <!-- Adhesion ratio (before/after) -->
     <g style="fill:#262626;" transform="translate(-3.65262 342.661562)rotate(-90)scale(0.2 -0.2)">
      <defs>
       <path d="M -9 0 
L 1750 4581 
L 2403 4581 
L 4278 0 
L 3588 0 
L 3053 1388 
L 1138 1388 
L 634 0 
L -9 0 
z
M 1313 1881 
L 2866 1881 
L 2388 3150 
Q 2169 3728 2063 4100 
Q 1975 3659 1816 3225 
L 1313 1881 
z
" id="ArialMT-41" transform="scale(0.015625)"/>
       <path d="M 2575 0 
L 2575 419 
Q 2259 -75 1647 -75 
Q 1250 -75 917 144 
Q 584 363 401 755 
Q 219 1147 219 1656 
Q 219 2153 384 2558 
Q 550 2963 881 3178 
Q 1213 3394 1622 3394 
Q 1922 3394 2156 3267 
Q 2391 3141 2538 2938 
L 2538 4581 
L 3097 4581 
L 3097 0 
L 2575 0 
z
M 797 1656 
Q 797 1019 1065 703 
Q 1334 388 1700 388 
Q 2069 388 2326 689 
Q 2584 991 2584 1609 
Q 2584 2291 2321 2609 
Q 2059 2928 1675 2928 
Q 1300 2928 1048 2622 
Q 797 2316 797 1656 
z
" id="ArialMT-64" transform="scale(0.015625)"/>
       <path d="M 422 0 
L 422 4581 
L 984 4581 
L 984 2938 
Q 1378 3394 1978 3394 
Q 2347 3394 2619 3248 
Q 2891 3103 3008 2847 
Q 3125 2591 3125 2103 
L 3125 0 
L 2563 0 
L 2563 2103 
Q 2563 2525 2380 2717 
Q 2197 2909 1863 2909 
Q 1613 2909 1392 2779 
Q 1172 2650 1078 2428 
Q 984 2206 984 1816 
L 984 0 
L 422 0 
z
" id="ArialMT-68" transform="scale(0.015625)"/>
       <path d="M 2588 409 
Q 2275 144 1986 34 
Q 1697 -75 1366 -75 
Q 819 -75 525 192 
Q 231 459 231 875 
Q 231 1119 342 1320 
Q 453 1522 633 1644 
Q 813 1766 1038 1828 
Q 1203 1872 1538 1913 
Q 2219 1994 2541 2106 
Q 2544 2222 2544 2253 
Q 2544 2597 2384 2738 
Q 2169 2928 1744 2928 
Q 1347 2928 1158 2789 
Q 969 2650 878 2297 
L 328 2372 
Q 403 2725 575 2942 
Q 747 3159 1072 3276 
Q 1397 3394 1825 3394 
Q 2250 3394 2515 3294 
Q 2781 3194 2906 3042 
Q 3031 2891 3081 2659 
Q 3109 2516 3109 2141 
L 3109 1391 
Q 3109 606 3145 398 
Q 3181 191 3288 0 
L 2700 0 
Q 2613 175 2588 409 
z
M 2541 1666 
Q 2234 1541 1622 1453 
Q 1275 1403 1131 1340 
Q 988 1278 909 1158 
Q 831 1038 831 891 
Q 831 666 1001 516 
Q 1172 366 1500 366 
Q 1825 366 2078 508 
Q 2331 650 2450 897 
Q 2541 1088 2541 1459 
L 2541 1666 
z
" id="ArialMT-61" transform="scale(0.015625)"/>
       <path d="M 1650 503 
L 1731 6 
Q 1494 -44 1306 -44 
Q 1000 -44 831 53 
Q 663 150 594 308 
Q 525 466 525 972 
L 525 2881 
L 113 2881 
L 113 3319 
L 525 3319 
L 525 4141 
L 1084 4478 
L 1084 3319 
L 1650 3319 
L 1650 2881 
L 1084 2881 
L 1084 941 
Q 1084 700 1114 631 
Q 1144 563 1211 522 
Q 1278 481 1403 481 
Q 1497 481 1650 503 
z
" id="ArialMT-74" transform="scale(0.015625)"/>
       <path d="M 556 0 
L 556 2881 
L 59 2881 
L 59 3319 
L 556 3319 
L 556 3672 
Q 556 4006 616 4169 
Q 697 4388 901 4523 
Q 1106 4659 1475 4659 
Q 1713 4659 2000 4603 
L 1916 4113 
Q 1741 4144 1584 4144 
Q 1328 4144 1222 4034 
Q 1116 3925 1116 3625 
L 1116 3319 
L 1763 3319 
L 1763 2881 
L 1116 2881 
L 1116 0 
L 556 0 
z
" id="ArialMT-66" transform="scale(0.015625)"/>
       <path d="M 0 -78 
L 1328 4659 
L 1778 4659 
L 453 -78 
L 0 -78 
z
" id="ArialMT-2f" transform="scale(0.015625)"/>
      </defs>
      <use xlink:href="#ArialMT-41"/>
      <use x="66.699219" xlink:href="#ArialMT-64"/>
      <use x="122.314453" xlink:href="#ArialMT-68"/>
      <use x="177.929688" xlink:href="#ArialMT-65"/>
      <use x="233.544922" xlink:href="#ArialMT-73"/>
      <use x="283.544922" xlink:href="#ArialMT-69"/>
      <use x="305.761719" xlink:href="#ArialMT-6f"/>
      <use x="361.376953" xlink:href="#ArialMT-6e"/>
      <use x="416.992188" xlink:href="#ArialMT-20"/>
      <use x="444.775391" xlink:href="#ArialMT-72"/>
      <use x="478.076172" xlink:href="#ArialMT-61"/>
      <use x="533.691406" xlink:href="#ArialMT-74"/>
      <use x="561.474609" xlink:href="#ArialMT-69"/>
      <use x="583.691406" xlink:href="#ArialMT-6f"/>
      <use x="639.306641" xlink:href="#ArialMT-20"/>
      <use x="667.089844" xlink:href="#ArialMT-28"/>
      <use x="700.390625" xlink:href="#ArialMT-62"/>
      <use x="756.005859" xlink:href="#ArialMT-65"/>
      <use x="811.621094" xlink:href="#ArialMT-66"/>
      <use x="839.404297" xlink:href="#ArialMT-6f"/>
      <use x="895.019531" xlink:href="#ArialMT-72"/>
      <use x="928.320312" xlink:href="#ArialMT-65"/>
      <use x="983.935547" xlink:href="#ArialMT-2f"/>
      <use x="1011.71875" xlink:href="#ArialMT-61"/>
      <use x="1067.333984" xlink:href="#ArialMT-66"/>
      <use x="1095.117188" xlink:href="#ArialMT-74"/>
      <use x="1122.900391" xlink:href="#ArialMT-65"/>
      <use x="1178.515625" xlink:href="#ArialMT-72"/>
      <use x="1211.816406" xlink:href="#ArialMT-29"/>
     </g>
    </g>
   </g>
   <g id="patch_3">
    <path clip-path="url(#p2390e6f6f5)" d="M 47.16 384.48 
L 136.44 384.48 
L 136.44 151.646773 
L 47.16 151.646773 
z
" style="fill:#3274a1;stroke:#ffffff;stroke-linejoin:miter;"/>
   </g>
   <g id="patch_4">
    <path clip-path="url(#p2390e6f6f5)" d="M 158.76 384.48 
L 248.04 384.48 
L 248.04 379.744262 
L 158.76 379.744262 
z
" style="fill:#e1812c;stroke:#ffffff;stroke-linejoin:miter;"/>
   </g>
   <g id="line2d_7">
    <path clip-path="url(#p2390e6f6f5)" d="M 91.8 173.141681 
L 91.8 129.261476 
" style="fill:none;stroke:#000000;stroke-linecap:round;stroke-width:2.7;"/>
   </g>
   <g id="line2d_8">
    <path clip-path="url(#p2390e6f6f5)" d="M 80.64 173.141681 
L 102.96 173.141681 
" style="fill:none;stroke:#000000;stroke-linecap:round;stroke-width:2.7;"/>
   </g>
   <g id="line2d_9">
    <path clip-path="url(#p2390e6f6f5)" d="M 80.64 129.261476 
L 102.96 129.261476 
" style="fill:none;stroke:#000000;stroke-linecap:round;stroke-width:2.7;"/>
   </g>
   <g id="line2d_10">
    <path clip-path="url(#p2390e6f6f5)" d="M 203.4 380.755708 
L 203.4 378.614494 
" style="fill:none;stroke:#000000;stroke-linecap:round;stroke-width:2.7;"/>
   </g>
   <g id="line2d_11">
    <path clip-path="url(#p2390e6f6f5)" d="M 192.24 380.755708 
L 214.56 380.755708 
" style="fill:none;stroke:#000000;stroke-linecap:round;stroke-width:2.7;"/>
   </g>
   <g id="line2d_12">
    <path clip-path="url(#p2390e6f6f5)" d="M 192.24 378.614494 
L 214.56 378.614494 
" style="fill:none;stroke:#000000;stroke-linecap:round;stroke-width:2.7;"/>
   </g>
   <g id="patch_5">
    <path d="M 36 384.48 
L 36 51.84 
" style="fill:none;stroke:#cccccc;stroke-linecap:square;stroke-linejoin:miter;stroke-width:0.8;"/>
   </g>
   <g id="patch_6">
    <path d="M 259.2 384.48 
L 259.2 51.84 
" style="fill:none;stroke:#cccccc;stroke-linecap:square;stroke-linejoin:miter;stroke-width:0.8;"/>
   </g>
   <g id="patch_7">
    <path d="M 36 384.48 
L 259.2 384.48 
" style="fill:none;stroke:#cccccc;stroke-linecap:square;stroke-linejoin:miter;stroke-width:0.8;"/>
   </g>
   <g id="patch_8">
    <path d="M 36 51.84 
L 259.2 51.84 
" style="fill:none;stroke:#cccccc;stroke-linecap:square;stroke-linejoin:miter;stroke-width:0.8;"/>
   </g>
   <g id="PathCollection_1">
    <defs>
     <path d="M 0 4.5 
C 1.193414 4.5 2.338109 4.025852 3.181981 3.181981 
C 4.025852 2.338109 4.5 1.193414 4.5 -0 
C 4.5 -1.193414 4.025852 -2.338109 3.181981 -3.181981 
C 2.338109 -4.025852 1.193414 -4.5 0 -4.5 
C -1.193414 -4.5 -2.338109 -4.025852 -3.181981 -3.181981 
C -4.025852 -2.338109 -4.5 -1.193414 -4.5 0 
C -4.5 1.193414 -4.025852 2.338109 -3.181981 3.181981 
C -2.338109 4.025852 -1.193414 4.5 0 4.5 
z
" id="C0_0_b65a8fdae8"/>
    </defs>
    <g clip-path="url(#p2390e6f6f5)">
     <use style="fill-opacity:0.4;" x="91.8" xlink:href="#C0_0_b65a8fdae8" y="243.485475"/>
    </g>
    <g clip-path="url(#p2390e6f6f5)">
     <use style="fill-opacity:0.4;" x="91.8" xlink:href="#C0_0_b65a8fdae8" y="217.739906"/>
    </g>
    <g clip-path="url(#p2390e6f6f5)">
     <use style="fill-opacity:0.4;" x="91.8" xlink:href="#C0_0_b65a8fdae8" y="196.555692"/>
    </g>
    <g clip-path="url(#p2390e6f6f5)">
     <use style="fill-opacity:0.4;" x="101.220387" xlink:href="#C0_0_b65a8fdae8" y="195.843759"/>
    </g>
    <g clip-path="url(#p2390e6f6f5)">
     <use style="fill-opacity:0.4;" x="83.814286" xlink:href="#C0_0_b65a8fdae8" y="191.743494"/>
    </g>
    <g clip-path="url(#p2390e6f6f5)">
     <use style="fill-opacity:0.4;" x="95.838688" xlink:href="#C0_0_b65a8fdae8" y="188.41902"/>
    </g>
    <g clip-path="url(#p2390e6f6f5)">
     <use style="fill-opacity:0.4;" x="105.134468" xlink:href="#C0_0_b65a8fdae8" y="186.799701"/>
    </g>
    <g clip-path="url(#p2390e6f6f5)">
     <use style="fill-opacity:0.4;" x="91.8" xlink:href="#C0_0_b65a8fdae8" y="174.546649"/>
    </g>
    <g clip-path="url(#p2390e6f6f5)">
     <use style="fill-opacity:0.4;" x="100.543219" xlink:href="#C0_0_b65a8fdae8" y="171.131514"/>
    </g>
    <g clip-path="url(#p2390e6f6f5)">
     <use style="fill-opacity:0.4;" x="91.8" xlink:href="#C0_0_b65a8fdae8" y="157.324033"/>
    </g>
    <g clip-path="url(#p2390e6f6f5)">
     <use style="fill-opacity:0.4;" x="89.653247" xlink:href="#C0_0_b65a8fdae8" y="148.559336"/>
    </g>
    <g clip-path="url(#p2390e6f6f5)">
     <use style="fill-opacity:0.4;" x="97.91616" xlink:href="#C0_0_b65a8fdae8" y="144.192198"/>
    </g>
    <g clip-path="url(#p2390e6f6f5)">
     <use style="fill-opacity:0.4;" x="84.836994" xlink:href="#C0_0_b65a8fdae8" y="140.815934"/>
    </g>
    <g clip-path="url(#p2390e6f6f5)">
     <use style="fill-opacity:0.4;" x="91.8" xlink:href="#C0_0_b65a8fdae8" y="132.426353"/>
    </g>
    <g clip-path="url(#p2390e6f6f5)">
     <use style="fill-opacity:0.4;" x="91.8" xlink:href="#C0_0_b65a8fdae8" y="117.36151"/>
    </g>
    <g clip-path="url(#p2390e6f6f5)">
     <use style="fill-opacity:0.4;" x="91.8" xlink:href="#C0_0_b65a8fdae8" y="107.163304"/>
    </g>
    <g clip-path="url(#p2390e6f6f5)">
     <use style="fill-opacity:0.4;" x="91.8" xlink:href="#C0_0_b65a8fdae8" y="91.276405"/>
    </g>
    <g clip-path="url(#p2390e6f6f5)">
     <use style="fill-opacity:0.4;" x="82.787452" xlink:href="#C0_0_b65a8fdae8" y="88.56982"/>
    </g>
    <g clip-path="url(#p2390e6f6f5)">
     <use style="fill-opacity:0.4;" x="91.8" xlink:href="#C0_0_b65a8fdae8" y="71.301362"/>
    </g>
    <g clip-path="url(#p2390e6f6f5)">
     <use style="fill-opacity:0.4;" x="83.148756" xlink:href="#C0_0_b65a8fdae8" y="67.68"/>
    </g>
   </g>
   <g id="PathCollection_2">
    <defs>
     <path d="M 0 4.5 
C 1.193414 4.5 2.338109 4.025852 3.181981 3.181981 
C 4.025852 2.338109 4.5 1.193414 4.5 -0 
C 4.5 -1.193414 4.025852 -2.338109 3.181981 -3.181981 
C 2.338109 -4.025852 1.193414 -4.5 0 -4.5 
C -1.193414 -4.5 -2.338109 -4.025852 -3.181981 -3.181981 
C -4.025852 -2.338109 -4.5 -1.193414 -4.5 0 
C -4.5 1.193414 -4.025852 2.338109 -3.181981 3.181981 
C -2.338109 4.025852 -1.193414 4.5 0 4.5 
z
" id="C1_0_88d3e4c53c"/>
    </defs>
    <g clip-path="url(#p2390e6f6f5)">
     <use style="fill-opacity:0.4;" x="203.4" xlink:href="#C1_0_88d3e4c53c" y="384.48"/>
    </g>
    <g clip-path="url(#p2390e6f6f5)">
     <use style="fill-opacity:0.4;" x="193.95" xlink:href="#C1_0_88d3e4c53c" y="384.48"/>
    </g>
    <g clip-path="url(#p2390e6f6f5)">
     <use style="fill-opacity:0.4;" x="212.85" xlink:href="#C1_0_88d3e4c53c" y="384.48"/>
    </g>
    <g clip-path="url(#p2390e6f6f5)">
     <use style="fill-opacity:0.4;" x="184.5" xlink:href="#C1_0_88d3e4c53c" y="384.48"/>
    </g>
    <g clip-path="url(#p2390e6f6f5)">
     <use style="fill-opacity:0.4;" x="222.3" xlink:href="#C1_0_88d3e4c53c" y="384.48"/>
    </g>
    <g clip-path="url(#p2390e6f6f5)">
     <use style="fill-opacity:0.4;" x="175.05" xlink:href="#C1_0_88d3e4c53c" y="384.48"/>
    </g>
    <g clip-path="url(#p2390e6f6f5)">
     <use style="fill-opacity:0.4;" x="231.749748" xlink:href="#C1_0_88d3e4c53c" y="384.414219"/>
    </g>
    <g clip-path="url(#p2390e6f6f5)">
     <use style="fill-opacity:0.4;" x="165.605526" xlink:href="#C1_0_88d3e4c53c" y="384.172272"/>
    </g>
    <g clip-path="url(#p2390e6f6f5)">
     <use style="fill-opacity:0.4;" x="241.194073" xlink:href="#C1_0_88d3e4c53c" y="384.102372"/>
    </g>
    <g clip-path="url(#p2390e6f6f5)">
     <use style="fill-opacity:0.4;" x="158.76" xlink:href="#C1_0_88d3e4c53c" y="383.723496"/>
    </g>
    <g clip-path="url(#p2390e6f6f5)">
     <use style="fill-opacity:0.4;" x="248.04" xlink:href="#C1_0_88d3e4c53c" y="383.524771"/>
    </g>
    <g clip-path="url(#p2390e6f6f5)">
     <use style="fill-opacity:0.4;" x="248.04" xlink:href="#C1_0_88d3e4c53c" y="383.49128"/>
    </g>
    <g clip-path="url(#p2390e6f6f5)">
     <use style="fill-opacity:0.4;" x="158.76" xlink:href="#C1_0_88d3e4c53c" y="383.471383"/>
    </g>
    <g clip-path="url(#p2390e6f6f5)">
     <use style="fill-opacity:0.4;" x="248.04" xlink:href="#C1_0_88d3e4c53c" y="383.273269"/>
    </g>
    <g clip-path="url(#p2390e6f6f5)">
     <use style="fill-opacity:0.4;" x="158.76" xlink:href="#C1_0_88d3e4c53c" y="383.246117"/>
    </g>
    <g clip-path="url(#p2390e6f6f5)">
     <use style="fill-opacity:0.4;" x="248.04" xlink:href="#C1_0_88d3e4c53c" y="383.101673"/>
    </g>
    <g clip-path="url(#p2390e6f6f5)">
     <use style="fill-opacity:0.4;" x="158.76" xlink:href="#C1_0_88d3e4c53c" y="382.922935"/>
    </g>
    <g clip-path="url(#p2390e6f6f5)">
     <use style="fill-opacity:0.4;" x="248.04" xlink:href="#C1_0_88d3e4c53c" y="382.784767"/>
    </g>
    <g clip-path="url(#p2390e6f6f5)">
     <use style="fill-opacity:0.4;" x="158.76" xlink:href="#C1_0_88d3e4c53c" y="382.595218"/>
    </g>
    <g clip-path="url(#p2390e6f6f5)">
     <use style="fill-opacity:0.4;" x="248.04" xlink:href="#C1_0_88d3e4c53c" y="382.531052"/>
    </g>
    <g clip-path="url(#p2390e6f6f5)">
     <use style="fill-opacity:0.4;" x="158.76" xlink:href="#C1_0_88d3e4c53c" y="382.523945"/>
    </g>
    <g clip-path="url(#p2390e6f6f5)">
     <use style="fill-opacity:0.4;" x="248.04" xlink:href="#C1_0_88d3e4c53c" y="382.523345"/>
    </g>
    <g clip-path="url(#p2390e6f6f5)">
     <use style="fill-opacity:0.4;" x="158.76" xlink:href="#C1_0_88d3e4c53c" y="382.298995"/>
    </g>
    <g clip-path="url(#p2390e6f6f5)">
     <use style="fill-opacity:0.4;" x="248.04" xlink:href="#C1_0_88d3e4c53c" y="382.29892"/>
    </g>
    <g clip-path="url(#p2390e6f6f5)">
     <use style="fill-opacity:0.4;" x="158.76" xlink:href="#C1_0_88d3e4c53c" y="382.180002"/>
    </g>
    <g clip-path="url(#p2390e6f6f5)">
     <use style="fill-opacity:0.4;" x="248.04" xlink:href="#C1_0_88d3e4c53c" y="381.75075"/>
    </g>
    <g clip-path="url(#p2390e6f6f5)">
     <use style="fill-opacity:0.4;" x="158.76" xlink:href="#C1_0_88d3e4c53c" y="381.743584"/>
    </g>
    <g clip-path="url(#p2390e6f6f5)">
     <use style="fill-opacity:0.4;" x="248.04" xlink:href="#C1_0_88d3e4c53c" y="381.338179"/>
    </g>
    <g clip-path="url(#p2390e6f6f5)">
     <use style="fill-opacity:0.4;" x="158.76" xlink:href="#C1_0_88d3e4c53c" y="381.25887"/>
    </g>
    <g clip-path="url(#p2390e6f6f5)">
     <use style="fill-opacity:0.4;" x="248.04" xlink:href="#C1_0_88d3e4c53c" y="381.142234"/>
    </g>
    <g clip-path="url(#p2390e6f6f5)">
     <use style="fill-opacity:0.4;" x="158.76" xlink:href="#C1_0_88d3e4c53c" y="381.10058"/>
    </g>
    <g clip-path="url(#p2390e6f6f5)">
     <use style="fill-opacity:0.4;" x="248.04" xlink:href="#C1_0_88d3e4c53c" y="380.930721"/>
    </g>
    <g clip-path="url(#p2390e6f6f5)">
     <use style="fill-opacity:0.4;" x="158.76" xlink:href="#C1_0_88d3e4c53c" y="380.372263"/>
    </g>
    <g clip-path="url(#p2390e6f6f5)">
     <use style="fill-opacity:0.4;" x="248.04" xlink:href="#C1_0_88d3e4c53c" y="380.272931"/>
    </g>
    <g clip-path="url(#p2390e6f6f5)">
     <use style="fill-opacity:0.4;" x="158.76" xlink:href="#C1_0_88d3e4c53c" y="379.851111"/>
    </g>
    <g clip-path="url(#p2390e6f6f5)">
     <use style="fill-opacity:0.4;" x="248.04" xlink:href="#C1_0_88d3e4c53c" y="379.647442"/>
    </g>
    <g clip-path="url(#p2390e6f6f5)">
     <use style="fill-opacity:0.4;" x="158.76" xlink:href="#C1_0_88d3e4c53c" y="379.357485"/>
    </g>
    <g clip-path="url(#p2390e6f6f5)">
     <use style="fill-opacity:0.4;" x="248.04" xlink:href="#C1_0_88d3e4c53c" y="379.215618"/>
    </g>
    <g clip-path="url(#p2390e6f6f5)">
     <use style="fill-opacity:0.4;" x="158.76" xlink:href="#C1_0_88d3e4c53c" y="379.117304"/>
    </g>
    <g clip-path="url(#p2390e6f6f5)">
     <use style="fill-opacity:0.4;" x="248.04" xlink:href="#C1_0_88d3e4c53c" y="378.703681"/>
    </g>
    <g clip-path="url(#p2390e6f6f5)">
     <use style="fill-opacity:0.4;" x="158.76" xlink:href="#C1_0_88d3e4c53c" y="378.696338"/>
    </g>
    <g clip-path="url(#p2390e6f6f5)">
     <use style="fill-opacity:0.4;" x="248.04" xlink:href="#C1_0_88d3e4c53c" y="378.330824"/>
    </g>
    <g clip-path="url(#p2390e6f6f5)">
     <use style="fill-opacity:0.4;" x="158.76" xlink:href="#C1_0_88d3e4c53c" y="377.993561"/>
    </g>
    <g clip-path="url(#p2390e6f6f5)">
     <use style="fill-opacity:0.4;" x="248.04" xlink:href="#C1_0_88d3e4c53c" y="377.279179"/>
    </g>
    <g clip-path="url(#p2390e6f6f5)">
     <use style="fill-opacity:0.4;" x="158.76" xlink:href="#C1_0_88d3e4c53c" y="377.180521"/>
    </g>
    <g clip-path="url(#p2390e6f6f5)">
     <use style="fill-opacity:0.4;" x="248.04" xlink:href="#C1_0_88d3e4c53c" y="377.115074"/>
    </g>
    <g clip-path="url(#p2390e6f6f5)">
     <use style="fill-opacity:0.4;" x="158.76" xlink:href="#C1_0_88d3e4c53c" y="376.819874"/>
    </g>
    <g clip-path="url(#p2390e6f6f5)">
     <use style="fill-opacity:0.4;" x="199.076216" xlink:href="#C1_0_88d3e4c53c" y="376.477314"/>
    </g>
    <g clip-path="url(#p2390e6f6f5)">
     <use style="fill-opacity:0.4;" x="208.518065" xlink:href="#C1_0_88d3e4c53c" y="376.103576"/>
    </g>
    <g clip-path="url(#p2390e6f6f5)">
     <use style="fill-opacity:0.4;" x="189.778872" xlink:href="#C1_0_88d3e4c53c" y="374.866157"/>
    </g>
    <g clip-path="url(#p2390e6f6f5)">
     <use style="fill-opacity:0.4;" x="217.831267" xlink:href="#C1_0_88d3e4c53c" y="374.577756"/>
    </g>
    <g clip-path="url(#p2390e6f6f5)">
     <use style="fill-opacity:0.4;" x="180.334716" xlink:href="#C1_0_88d3e4c53c" y="374.549685"/>
    </g>
    <g clip-path="url(#p2390e6f6f5)">
     <use style="fill-opacity:0.4;" x="227.261541" xlink:href="#C1_0_88d3e4c53c" y="373.996542"/>
    </g>
    <g clip-path="url(#p2390e6f6f5)">
     <use style="fill-opacity:0.4;" x="170.926451" xlink:href="#C1_0_88d3e4c53c" y="373.704777"/>
    </g>
    <g clip-path="url(#p2390e6f6f5)">
     <use style="fill-opacity:0.4;" x="236.695129" xlink:href="#C1_0_88d3e4c53c" y="373.466353"/>
    </g>
    <g clip-path="url(#p2390e6f6f5)">
     <use style="fill-opacity:0.4;" x="161.554589" xlink:href="#C1_0_88d3e4c53c" y="372.549799"/>
    </g>
    <g clip-path="url(#p2390e6f6f5)">
     <use style="fill-opacity:0.4;" x="245.873367" xlink:href="#C1_0_88d3e4c53c" y="371.323508"/>
    </g>
    <g clip-path="url(#p2390e6f6f5)">
     <use style="fill-opacity:0.4;" x="158.76" xlink:href="#C1_0_88d3e4c53c" y="370.63366"/>
    </g>
    <g clip-path="url(#p2390e6f6f5)">
     <use style="fill-opacity:0.4;" x="248.04" xlink:href="#C1_0_88d3e4c53c" y="369.341611"/>
    </g>
    <g clip-path="url(#p2390e6f6f5)">
     <use style="fill-opacity:0.4;" x="203.4" xlink:href="#C1_0_88d3e4c53c" y="367.786843"/>
    </g>
   </g>
  </g>
 </g>
 <defs>
  <clipPath id="p2390e6f6f5">
   <rect height="332.64" width="223.2" x="36" y="51.84"/>
  </clipPath>
 </defs>
</svg>
