<?xml version="1.0" encoding="utf-8" standalone="no"?>
<!DOCTYPE svg PUBLIC "-//W3C//DTD SVG 1.1//EN"
  "http://www.w3.org/Graphics/SVG/1.1/DTD/svg11.dtd">
<svg xmlns:xlink="http://www.w3.org/1999/xlink" width="288pt" height="432pt" viewBox="0 0 288 432" xmlns="http://www.w3.org/2000/svg" version="1.1">
 <metadata>
  <rdf:RDF xmlns:dc="http://purl.org/dc/elements/1.1/" xmlns:cc="http://creativecommons.org/ns#" xmlns:rdf="http://www.w3.org/1999/02/22-rdf-syntax-ns#">
   <cc:Work>
    <dc:type rdf:resource="http://purl.org/dc/dcmitype/StillImage"/>
    <dc:date>2023-12-04T11:00:07.919842</dc:date>
    <dc:format>image/svg+xml</dc:format>
    <dc:creator>
     <cc:Agent>
      <dc:title>Matplotlib v3.8.0, https://matplotlib.org/</dc:title>
     </cc:Agent>
    </dc:creator>
   </cc:Work>
  </rdf:RDF>
 </metadata>
 <defs>
  <style type="text/css">*{stroke-linejoin: round; stroke-linecap: butt}</style>
 </defs>
 <g id="figure_1">
  <g id="patch_1">
   <path d="M 0 432 
L 288 432 
L 288 0 
L 0 0 
z
" style="fill: #ffffff"/>
  </g>
  <g id="axes_1">
   <g id="patch_2">
    <path d="M 36 384.48 
L 259.2 384.48 
L 259.2 51.84 
L 36 51.84 
z
" style="fill: #ffffff"/>
   </g>
   <g id="patch_3">
    <path d="M 47.16 384.48 
L 136.44 384.48 
L 136.44 151.635078 
L 47.16 151.635078 
z
" clip-path="url(#p254f8da25e)" style="fill: #3274a1; opacity: 0.8"/>
   </g>
   <g id="patch_4">
    <path d="M 158.76 384.48 
L 248.04 384.48 
L 248.04 379.735706 
L 158.76 379.735706 
z
" clip-path="url(#p254f8da25e)" style="fill: #a9aa35; opacity: 0.8"/>
   </g>
   <g id="matplotlib.axis_1">
    <g id="xtick_1">
     <g id="line2d_1">
      <defs>
       <path id="m6bff2a0d07" d="M 0 0 
L 0 3.5 
" style="stroke: #000000; stroke-width: 0.8"/>
      </defs>
      <g>
       <use xlink:href="#m6bff2a0d07" x="91.8" y="384.48" style="stroke: #000000; stroke-width: 0.8"/>
      </g>
     </g>
     <g id="text_1">
      <!-- srb11Δ -->
      <g transform="translate(57.769251 429.569195) rotate(-20) scale(0.22 -0.22)">
       <defs>
        <path id="ArialMT-73" d="M 197 991 
L 753 1078 
Q 800 744 1014 566 
Q 1228 388 1613 388 
Q 2000 388 2187 545 
Q 2375 703 2375 916 
Q 2375 1106 2209 1216 
Q 2094 1291 1634 1406 
Q 1016 1563 777 1677 
Q 538 1791 414 1992 
Q 291 2194 291 2438 
Q 291 2659 392 2848 
Q 494 3038 669 3163 
Q 800 3259 1026 3326 
Q 1253 3394 1513 3394 
Q 1903 3394 2198 3281 
Q 2494 3169 2634 2976 
Q 2775 2784 2828 2463 
L 2278 2388 
Q 2241 2644 2061 2787 
Q 1881 2931 1553 2931 
Q 1166 2931 1000 2803 
Q 834 2675 834 2503 
Q 834 2394 903 2306 
Q 972 2216 1119 2156 
Q 1203 2125 1616 2013 
Q 2213 1853 2448 1751 
Q 2684 1650 2818 1456 
Q 2953 1263 2953 975 
Q 2953 694 2789 445 
Q 2625 197 2315 61 
Q 2006 -75 1616 -75 
Q 969 -75 630 194 
Q 291 463 197 991 
z
" transform="scale(0.015625)"/>
        <path id="ArialMT-72" d="M 416 0 
L 416 3319 
L 922 3319 
L 922 2816 
Q 1116 3169 1280 3281 
Q 1444 3394 1641 3394 
Q 1925 3394 2219 3213 
L 2025 2691 
Q 1819 2813 1613 2813 
Q 1428 2813 1281 2702 
Q 1134 2591 1072 2394 
Q 978 2094 978 1738 
L 978 0 
L 416 0 
z
" transform="scale(0.015625)"/>
        <path id="ArialMT-62" d="M 941 0 
L 419 0 
L 419 4581 
L 981 4581 
L 981 2947 
Q 1338 3394 1891 3394 
Q 2197 3394 2470 3270 
Q 2744 3147 2920 2923 
Q 3097 2700 3197 2384 
Q 3297 2069 3297 1709 
Q 3297 856 2875 390 
Q 2453 -75 1863 -75 
Q 1275 -75 941 416 
L 941 0 
z
M 934 1684 
Q 934 1088 1097 822 
Q 1363 388 1816 388 
Q 2184 388 2453 708 
Q 2722 1028 2722 1663 
Q 2722 2313 2464 2622 
Q 2206 2931 1841 2931 
Q 1472 2931 1203 2611 
Q 934 2291 934 1684 
z
" transform="scale(0.015625)"/>
        <path id="ArialMT-31" d="M 2384 0 
L 1822 0 
L 1822 3584 
Q 1619 3391 1289 3197 
Q 959 3003 697 2906 
L 697 3450 
Q 1169 3672 1522 3987 
Q 1875 4303 2022 4600 
L 2384 4600 
L 2384 0 
z
" transform="scale(0.015625)"/>
        <path id="ArialMT-394" d="M -6 0 
L 1753 4581 
L 2406 4581 
L 4281 0 
L -6 0 
z
M 834 541 
L 3381 541 
L 2391 3150 
Q 2169 3738 2066 4100 
Q 1981 3675 1819 3225 
L 834 541 
z
" transform="scale(0.015625)"/>
       </defs>
       <use xlink:href="#ArialMT-73"/>
       <use xlink:href="#ArialMT-72" x="50"/>
       <use xlink:href="#ArialMT-62" x="83.300781"/>
       <use xlink:href="#ArialMT-31" x="138.916016"/>
       <use xlink:href="#ArialMT-31" x="187.15625"/>
       <use xlink:href="#ArialMT-394" x="242.771484"/>
      </g>
      <!--  n=20  -->
      <g transform="translate(68.699538 450.353381) rotate(-20) scale(0.22 -0.22)">
       <defs>
        <path id="ArialMT-20" transform="scale(0.015625)"/>
        <path id="ArialMT-6e" d="M 422 0 
L 422 3319 
L 928 3319 
L 928 2847 
Q 1294 3394 1984 3394 
Q 2284 3394 2536 3286 
Q 2788 3178 2913 3003 
Q 3038 2828 3088 2588 
Q 3119 2431 3119 2041 
L 3119 0 
L 2556 0 
L 2556 2019 
Q 2556 2363 2490 2533 
Q 2425 2703 2258 2804 
Q 2091 2906 1866 2906 
Q 1506 2906 1245 2678 
Q 984 2450 984 1813 
L 984 0 
L 422 0 
z
" transform="scale(0.015625)"/>
        <path id="ArialMT-3d" d="M 3381 2694 
L 356 2694 
L 356 3219 
L 3381 3219 
L 3381 2694 
z
M 3381 1303 
L 356 1303 
L 356 1828 
L 3381 1828 
L 3381 1303 
z
" transform="scale(0.015625)"/>
        <path id="ArialMT-32" d="M 3222 541 
L 3222 0 
L 194 0 
Q 188 203 259 391 
Q 375 700 629 1000 
Q 884 1300 1366 1694 
Q 2113 2306 2375 2664 
Q 2638 3022 2638 3341 
Q 2638 3675 2398 3904 
Q 2159 4134 1775 4134 
Q 1369 4134 1125 3890 
Q 881 3647 878 3216 
L 300 3275 
Q 359 3922 746 4261 
Q 1134 4600 1788 4600 
Q 2447 4600 2831 4234 
Q 3216 3869 3216 3328 
Q 3216 3053 3103 2787 
Q 2991 2522 2730 2228 
Q 2469 1934 1863 1422 
Q 1356 997 1212 845 
Q 1069 694 975 541 
L 3222 541 
z
" transform="scale(0.015625)"/>
        <path id="ArialMT-30" d="M 266 2259 
Q 266 3072 433 3567 
Q 600 4063 929 4331 
Q 1259 4600 1759 4600 
Q 2128 4600 2406 4451 
Q 2684 4303 2865 4023 
Q 3047 3744 3150 3342 
Q 3253 2941 3253 2259 
Q 3253 1453 3087 958 
Q 2922 463 2592 192 
Q 2263 -78 1759 -78 
Q 1097 -78 719 397 
Q 266 969 266 2259 
z
M 844 2259 
Q 844 1131 1108 757 
Q 1372 384 1759 384 
Q 2147 384 2411 759 
Q 2675 1134 2675 2259 
Q 2675 3391 2411 3762 
Q 2147 4134 1753 4134 
Q 1366 4134 1134 3806 
Q 844 3388 844 2259 
z
" transform="scale(0.015625)"/>
       </defs>
       <use xlink:href="#ArialMT-20"/>
       <use xlink:href="#ArialMT-6e" x="27.783203"/>
       <use xlink:href="#ArialMT-3d" x="83.398438"/>
       <use xlink:href="#ArialMT-32" x="141.796875"/>
       <use xlink:href="#ArialMT-30" x="197.412109"/>
       <use xlink:href="#ArialMT-20" x="253.027344"/>
      </g>
     </g>
    </g>
    <g id="xtick_2">
     <g id="line2d_2">
      <g>
       <use xlink:href="#m6bff2a0d07" x="203.4" y="384.48" style="stroke: #000000; stroke-width: 0.8"/>
      </g>
     </g>
     <g id="text_2">
      <!-- srb11Δ -->
      <g transform="translate(165.389996 430.680813) rotate(-20) scale(0.22 -0.22)">
       <use xlink:href="#ArialMT-73"/>
       <use xlink:href="#ArialMT-72" x="50"/>
       <use xlink:href="#ArialMT-62" x="83.300781"/>
       <use xlink:href="#ArialMT-31" x="138.916016"/>
       <use xlink:href="#ArialMT-31" x="187.15625"/>
       <use xlink:href="#ArialMT-394" x="242.771484"/>
      </g>
      <!--  mbx2Δ -->
      <g transform="translate(170.294358 453.658257) rotate(-20) scale(0.22 -0.22)">
       <defs>
        <path id="ArialMT-6d" d="M 422 0 
L 422 3319 
L 925 3319 
L 925 2853 
Q 1081 3097 1340 3245 
Q 1600 3394 1931 3394 
Q 2300 3394 2536 3241 
Q 2772 3088 2869 2813 
Q 3263 3394 3894 3394 
Q 4388 3394 4653 3120 
Q 4919 2847 4919 2278 
L 4919 0 
L 4359 0 
L 4359 2091 
Q 4359 2428 4304 2576 
Q 4250 2725 4106 2815 
Q 3963 2906 3769 2906 
Q 3419 2906 3187 2673 
Q 2956 2441 2956 1928 
L 2956 0 
L 2394 0 
L 2394 2156 
Q 2394 2531 2256 2718 
Q 2119 2906 1806 2906 
Q 1569 2906 1367 2781 
Q 1166 2656 1075 2415 
Q 984 2175 984 1722 
L 984 0 
L 422 0 
z
" transform="scale(0.015625)"/>
        <path id="ArialMT-78" d="M 47 0 
L 1259 1725 
L 138 3319 
L 841 3319 
L 1350 2541 
Q 1494 2319 1581 2169 
Q 1719 2375 1834 2534 
L 2394 3319 
L 3066 3319 
L 1919 1756 
L 3153 0 
L 2463 0 
L 1781 1031 
L 1600 1309 
L 728 0 
L 47 0 
z
" transform="scale(0.015625)"/>
       </defs>
       <use xlink:href="#ArialMT-20"/>
       <use xlink:href="#ArialMT-6d" x="27.783203"/>
       <use xlink:href="#ArialMT-62" x="111.083984"/>
       <use xlink:href="#ArialMT-78" x="166.699219"/>
       <use xlink:href="#ArialMT-32" x="216.699219"/>
       <use xlink:href="#ArialMT-394" x="272.314453"/>
      </g>
      <!--  n=60  -->
      <g transform="translate(184.278793 473.330825) rotate(-20) scale(0.22 -0.22)">
       <defs>
        <path id="ArialMT-36" d="M 3184 3459 
L 2625 3416 
Q 2550 3747 2413 3897 
Q 2184 4138 1850 4138 
Q 1581 4138 1378 3988 
Q 1113 3794 959 3422 
Q 806 3050 800 2363 
Q 1003 2672 1297 2822 
Q 1591 2972 1913 2972 
Q 2475 2972 2870 2558 
Q 3266 2144 3266 1488 
Q 3266 1056 3080 686 
Q 2894 316 2569 119 
Q 2244 -78 1831 -78 
Q 1128 -78 684 439 
Q 241 956 241 2144 
Q 241 3472 731 4075 
Q 1159 4600 1884 4600 
Q 2425 4600 2770 4297 
Q 3116 3994 3184 3459 
z
M 888 1484 
Q 888 1194 1011 928 
Q 1134 663 1356 523 
Q 1578 384 1822 384 
Q 2178 384 2434 671 
Q 2691 959 2691 1453 
Q 2691 1928 2437 2201 
Q 2184 2475 1800 2475 
Q 1419 2475 1153 2201 
Q 888 1928 888 1484 
z
" transform="scale(0.015625)"/>
       </defs>
       <use xlink:href="#ArialMT-20"/>
       <use xlink:href="#ArialMT-6e" x="27.783203"/>
       <use xlink:href="#ArialMT-3d" x="83.398438"/>
       <use xlink:href="#ArialMT-36" x="141.796875"/>
       <use xlink:href="#ArialMT-30" x="197.412109"/>
       <use xlink:href="#ArialMT-20" x="253.027344"/>
      </g>
     </g>
    </g>
   </g>
   <g id="matplotlib.axis_2">
    <g id="ytick_1">
     <g id="line2d_3">
      <defs>
       <path id="md2e4218770" d="M 0 0 
L -3.5 0 
" style="stroke: #000000; stroke-width: 0.8"/>
      </defs>
      <g>
       <use xlink:href="#md2e4218770" x="36" y="384.48" style="stroke: #000000; stroke-width: 0.8"/>
      </g>
     </g>
     <g id="text_3">
      <!-- 0.0 -->
      <g transform="translate(1.2 391.637812) scale(0.2 -0.2)">
       <defs>
        <path id="ArialMT-2e" d="M 581 0 
L 581 641 
L 1222 641 
L 1222 0 
L 581 0 
z
" transform="scale(0.015625)"/>
       </defs>
       <use xlink:href="#ArialMT-30"/>
       <use xlink:href="#ArialMT-2e" x="55.615234"/>
       <use xlink:href="#ArialMT-30" x="83.398438"/>
      </g>
     </g>
    </g>
    <g id="ytick_2">
     <g id="line2d_4">
      <g>
       <use xlink:href="#md2e4218770" x="36" y="318.640593" style="stroke: #000000; stroke-width: 0.8"/>
      </g>
     </g>
     <g id="text_4">
      <!-- 0.2 -->
      <g transform="translate(1.2 325.798405) scale(0.2 -0.2)">
       <use xlink:href="#ArialMT-30"/>
       <use xlink:href="#ArialMT-2e" x="55.615234"/>
       <use xlink:href="#ArialMT-32" x="83.398438"/>
      </g>
     </g>
    </g>
    <g id="ytick_3">
     <g id="line2d_5">
      <g>
       <use xlink:href="#md2e4218770" x="36" y="252.801186" style="stroke: #000000; stroke-width: 0.8"/>
      </g>
     </g>
     <g id="text_5">
      <!-- 0.4 -->
      <g transform="translate(1.2 259.958998) scale(0.2 -0.2)">
       <defs>
        <path id="ArialMT-34" d="M 2069 0 
L 2069 1097 
L 81 1097 
L 81 1613 
L 2172 4581 
L 2631 4581 
L 2631 1613 
L 3250 1613 
L 3250 1097 
L 2631 1097 
L 2631 0 
L 2069 0 
z
M 2069 1613 
L 2069 3678 
L 634 1613 
L 2069 1613 
z
" transform="scale(0.015625)"/>
       </defs>
       <use xlink:href="#ArialMT-30"/>
       <use xlink:href="#ArialMT-2e" x="55.615234"/>
       <use xlink:href="#ArialMT-34" x="83.398438"/>
      </g>
     </g>
    </g>
    <g id="ytick_4">
     <g id="line2d_6">
      <g>
       <use xlink:href="#md2e4218770" x="36" y="186.961779" style="stroke: #000000; stroke-width: 0.8"/>
      </g>
     </g>
     <g id="text_6">
      <!-- 0.6 -->
      <g transform="translate(1.2 194.119591) scale(0.2 -0.2)">
       <use xlink:href="#ArialMT-30"/>
       <use xlink:href="#ArialMT-2e" x="55.615234"/>
       <use xlink:href="#ArialMT-36" x="83.398438"/>
      </g>
     </g>
    </g>
    <g id="ytick_5">
     <g id="line2d_7">
      <g>
       <use xlink:href="#md2e4218770" x="36" y="121.122372" style="stroke: #000000; stroke-width: 0.8"/>
      </g>
     </g>
     <g id="text_7">
      <!-- 0.8 -->
      <g transform="translate(1.2 128.280184) scale(0.2 -0.2)">
       <defs>
        <path id="ArialMT-38" d="M 1131 2484 
Q 781 2613 612 2850 
Q 444 3088 444 3419 
Q 444 3919 803 4259 
Q 1163 4600 1759 4600 
Q 2359 4600 2725 4251 
Q 3091 3903 3091 3403 
Q 3091 3084 2923 2848 
Q 2756 2613 2416 2484 
Q 2838 2347 3058 2040 
Q 3278 1734 3278 1309 
Q 3278 722 2862 322 
Q 2447 -78 1769 -78 
Q 1091 -78 675 323 
Q 259 725 259 1325 
Q 259 1772 486 2073 
Q 713 2375 1131 2484 
z
M 1019 3438 
Q 1019 3113 1228 2906 
Q 1438 2700 1772 2700 
Q 2097 2700 2305 2904 
Q 2513 3109 2513 3406 
Q 2513 3716 2298 3927 
Q 2084 4138 1766 4138 
Q 1444 4138 1231 3931 
Q 1019 3725 1019 3438 
z
M 838 1322 
Q 838 1081 952 856 
Q 1066 631 1291 507 
Q 1516 384 1775 384 
Q 2178 384 2440 643 
Q 2703 903 2703 1303 
Q 2703 1709 2433 1975 
Q 2163 2241 1756 2241 
Q 1359 2241 1098 1978 
Q 838 1716 838 1322 
z
" transform="scale(0.015625)"/>
       </defs>
       <use xlink:href="#ArialMT-30"/>
       <use xlink:href="#ArialMT-2e" x="55.615234"/>
       <use xlink:href="#ArialMT-38" x="83.398438"/>
      </g>
     </g>
    </g>
    <g id="ytick_6">
     <g id="line2d_8">
      <g>
       <use xlink:href="#md2e4218770" x="36" y="55.282965" style="stroke: #000000; stroke-width: 0.8"/>
      </g>
     </g>
     <g id="text_8">
      <!-- 1.0 -->
      <g transform="translate(1.2 62.440777) scale(0.2 -0.2)">
       <use xlink:href="#ArialMT-31"/>
       <use xlink:href="#ArialMT-2e" x="55.615234"/>
       <use xlink:href="#ArialMT-30" x="83.398438"/>
      </g>
     </g>
    </g>
    <g id="text_9">
     <!-- Adhesion ratio (washing assay) -->
     <g transform="translate(-8.061719 391.849453) rotate(-90) scale(0.25 -0.25)">
      <defs>
       <path id="ArialMT-41" d="M -9 0 
L 1750 4581 
L 2403 4581 
L 4278 0 
L 3588 0 
L 3053 1388 
L 1138 1388 
L 634 0 
L -9 0 
z
M 1313 1881 
L 2866 1881 
L 2388 3150 
Q 2169 3728 2063 4100 
Q 1975 3659 1816 3225 
L 1313 1881 
z
" transform="scale(0.015625)"/>
       <path id="ArialMT-64" d="M 2575 0 
L 2575 419 
Q 2259 -75 1647 -75 
Q 1250 -75 917 144 
Q 584 363 401 755 
Q 219 1147 219 1656 
Q 219 2153 384 2558 
Q 550 2963 881 3178 
Q 1213 3394 1622 3394 
Q 1922 3394 2156 3267 
Q 2391 3141 2538 2938 
L 2538 4581 
L 3097 4581 
L 3097 0 
L 2575 0 
z
M 797 1656 
Q 797 1019 1065 703 
Q 1334 388 1700 388 
Q 2069 388 2326 689 
Q 2584 991 2584 1609 
Q 2584 2291 2321 2609 
Q 2059 2928 1675 2928 
Q 1300 2928 1048 2622 
Q 797 2316 797 1656 
z
" transform="scale(0.015625)"/>
       <path id="ArialMT-68" d="M 422 0 
L 422 4581 
L 984 4581 
L 984 2938 
Q 1378 3394 1978 3394 
Q 2347 3394 2619 3248 
Q 2891 3103 3008 2847 
Q 3125 2591 3125 2103 
L 3125 0 
L 2563 0 
L 2563 2103 
Q 2563 2525 2380 2717 
Q 2197 2909 1863 2909 
Q 1613 2909 1392 2779 
Q 1172 2650 1078 2428 
Q 984 2206 984 1816 
L 984 0 
L 422 0 
z
" transform="scale(0.015625)"/>
       <path id="ArialMT-65" d="M 2694 1069 
L 3275 997 
Q 3138 488 2766 206 
Q 2394 -75 1816 -75 
Q 1088 -75 661 373 
Q 234 822 234 1631 
Q 234 2469 665 2931 
Q 1097 3394 1784 3394 
Q 2450 3394 2872 2941 
Q 3294 2488 3294 1666 
Q 3294 1616 3291 1516 
L 816 1516 
Q 847 969 1125 678 
Q 1403 388 1819 388 
Q 2128 388 2347 550 
Q 2566 713 2694 1069 
z
M 847 1978 
L 2700 1978 
Q 2663 2397 2488 2606 
Q 2219 2931 1791 2931 
Q 1403 2931 1139 2672 
Q 875 2413 847 1978 
z
" transform="scale(0.015625)"/>
       <path id="ArialMT-69" d="M 425 3934 
L 425 4581 
L 988 4581 
L 988 3934 
L 425 3934 
z
M 425 0 
L 425 3319 
L 988 3319 
L 988 0 
L 425 0 
z
" transform="scale(0.015625)"/>
       <path id="ArialMT-6f" d="M 213 1659 
Q 213 2581 725 3025 
Q 1153 3394 1769 3394 
Q 2453 3394 2887 2945 
Q 3322 2497 3322 1706 
Q 3322 1066 3130 698 
Q 2938 331 2570 128 
Q 2203 -75 1769 -75 
Q 1072 -75 642 372 
Q 213 819 213 1659 
z
M 791 1659 
Q 791 1022 1069 705 
Q 1347 388 1769 388 
Q 2188 388 2466 706 
Q 2744 1025 2744 1678 
Q 2744 2294 2464 2611 
Q 2184 2928 1769 2928 
Q 1347 2928 1069 2612 
Q 791 2297 791 1659 
z
" transform="scale(0.015625)"/>
       <path id="ArialMT-61" d="M 2588 409 
Q 2275 144 1986 34 
Q 1697 -75 1366 -75 
Q 819 -75 525 192 
Q 231 459 231 875 
Q 231 1119 342 1320 
Q 453 1522 633 1644 
Q 813 1766 1038 1828 
Q 1203 1872 1538 1913 
Q 2219 1994 2541 2106 
Q 2544 2222 2544 2253 
Q 2544 2597 2384 2738 
Q 2169 2928 1744 2928 
Q 1347 2928 1158 2789 
Q 969 2650 878 2297 
L 328 2372 
Q 403 2725 575 2942 
Q 747 3159 1072 3276 
Q 1397 3394 1825 3394 
Q 2250 3394 2515 3294 
Q 2781 3194 2906 3042 
Q 3031 2891 3081 2659 
Q 3109 2516 3109 2141 
L 3109 1391 
Q 3109 606 3145 398 
Q 3181 191 3288 0 
L 2700 0 
Q 2613 175 2588 409 
z
M 2541 1666 
Q 2234 1541 1622 1453 
Q 1275 1403 1131 1340 
Q 988 1278 909 1158 
Q 831 1038 831 891 
Q 831 666 1001 516 
Q 1172 366 1500 366 
Q 1825 366 2078 508 
Q 2331 650 2450 897 
Q 2541 1088 2541 1459 
L 2541 1666 
z
" transform="scale(0.015625)"/>
       <path id="ArialMT-74" d="M 1650 503 
L 1731 6 
Q 1494 -44 1306 -44 
Q 1000 -44 831 53 
Q 663 150 594 308 
Q 525 466 525 972 
L 525 2881 
L 113 2881 
L 113 3319 
L 525 3319 
L 525 4141 
L 1084 4478 
L 1084 3319 
L 1650 3319 
L 1650 2881 
L 1084 2881 
L 1084 941 
Q 1084 700 1114 631 
Q 1144 563 1211 522 
Q 1278 481 1403 481 
Q 1497 481 1650 503 
z
" transform="scale(0.015625)"/>
       <path id="ArialMT-28" d="M 1497 -1347 
Q 1031 -759 709 28 
Q 388 816 388 1659 
Q 388 2403 628 3084 
Q 909 3875 1497 4659 
L 1900 4659 
Q 1522 4009 1400 3731 
Q 1209 3300 1100 2831 
Q 966 2247 966 1656 
Q 966 153 1900 -1347 
L 1497 -1347 
z
" transform="scale(0.015625)"/>
       <path id="ArialMT-77" d="M 1034 0 
L 19 3319 
L 600 3319 
L 1128 1403 
L 1325 691 
Q 1338 744 1497 1375 
L 2025 3319 
L 2603 3319 
L 3100 1394 
L 3266 759 
L 3456 1400 
L 4025 3319 
L 4572 3319 
L 3534 0 
L 2950 0 
L 2422 1988 
L 2294 2553 
L 1622 0 
L 1034 0 
z
" transform="scale(0.015625)"/>
       <path id="ArialMT-67" d="M 319 -275 
L 866 -356 
Q 900 -609 1056 -725 
Q 1266 -881 1628 -881 
Q 2019 -881 2231 -725 
Q 2444 -569 2519 -288 
Q 2563 -116 2559 434 
Q 2191 0 1641 0 
Q 956 0 581 494 
Q 206 988 206 1678 
Q 206 2153 378 2554 
Q 550 2956 876 3175 
Q 1203 3394 1644 3394 
Q 2231 3394 2613 2919 
L 2613 3319 
L 3131 3319 
L 3131 450 
Q 3131 -325 2973 -648 
Q 2816 -972 2473 -1159 
Q 2131 -1347 1631 -1347 
Q 1038 -1347 672 -1080 
Q 306 -813 319 -275 
z
M 784 1719 
Q 784 1066 1043 766 
Q 1303 466 1694 466 
Q 2081 466 2343 764 
Q 2606 1063 2606 1700 
Q 2606 2309 2336 2618 
Q 2066 2928 1684 2928 
Q 1309 2928 1046 2623 
Q 784 2319 784 1719 
z
" transform="scale(0.015625)"/>
       <path id="ArialMT-79" d="M 397 -1278 
L 334 -750 
Q 519 -800 656 -800 
Q 844 -800 956 -737 
Q 1069 -675 1141 -563 
Q 1194 -478 1313 -144 
Q 1328 -97 1363 -6 
L 103 3319 
L 709 3319 
L 1400 1397 
Q 1534 1031 1641 628 
Q 1738 1016 1872 1384 
L 2581 3319 
L 3144 3319 
L 1881 -56 
Q 1678 -603 1566 -809 
Q 1416 -1088 1222 -1217 
Q 1028 -1347 759 -1347 
Q 597 -1347 397 -1278 
z
" transform="scale(0.015625)"/>
       <path id="ArialMT-29" d="M 791 -1347 
L 388 -1347 
Q 1322 153 1322 1656 
Q 1322 2244 1188 2822 
Q 1081 3291 891 3722 
Q 769 4003 388 4659 
L 791 4659 
Q 1378 3875 1659 3084 
Q 1900 2403 1900 1659 
Q 1900 816 1576 28 
Q 1253 -759 791 -1347 
z
" transform="scale(0.015625)"/>
      </defs>
      <use xlink:href="#ArialMT-41"/>
      <use xlink:href="#ArialMT-64" x="66.699219"/>
      <use xlink:href="#ArialMT-68" x="122.314453"/>
      <use xlink:href="#ArialMT-65" x="177.929688"/>
      <use xlink:href="#ArialMT-73" x="233.544922"/>
      <use xlink:href="#ArialMT-69" x="283.544922"/>
      <use xlink:href="#ArialMT-6f" x="305.761719"/>
      <use xlink:href="#ArialMT-6e" x="361.376953"/>
      <use xlink:href="#ArialMT-20" x="416.992188"/>
      <use xlink:href="#ArialMT-72" x="444.775391"/>
      <use xlink:href="#ArialMT-61" x="478.076172"/>
      <use xlink:href="#ArialMT-74" x="533.691406"/>
      <use xlink:href="#ArialMT-69" x="561.474609"/>
      <use xlink:href="#ArialMT-6f" x="583.691406"/>
      <use xlink:href="#ArialMT-20" x="639.306641"/>
      <use xlink:href="#ArialMT-28" x="667.089844"/>
      <use xlink:href="#ArialMT-77" x="700.390625"/>
      <use xlink:href="#ArialMT-61" x="772.607422"/>
      <use xlink:href="#ArialMT-73" x="828.222656"/>
      <use xlink:href="#ArialMT-68" x="878.222656"/>
      <use xlink:href="#ArialMT-69" x="933.837891"/>
      <use xlink:href="#ArialMT-6e" x="956.054688"/>
      <use xlink:href="#ArialMT-67" x="1011.669922"/>
      <use xlink:href="#ArialMT-20" x="1067.285156"/>
      <use xlink:href="#ArialMT-61" x="1095.068359"/>
      <use xlink:href="#ArialMT-73" x="1150.683594"/>
      <use xlink:href="#ArialMT-73" x="1200.683594"/>
      <use xlink:href="#ArialMT-61" x="1250.683594"/>
      <use xlink:href="#ArialMT-79" x="1306.298828"/>
      <use xlink:href="#ArialMT-29" x="1356.298828"/>
     </g>
    </g>
   </g>
   <g id="line2d_9">
    <path d="M 80.64 172.841917 
L 102.96 172.841917 
M 91.8 172.841917 
L 91.8 130.05064 
M 80.64 130.05064 
L 102.96 130.05064 
" clip-path="url(#p254f8da25e)" style="fill: none; stroke: #000000; stroke-width: 2.25; stroke-linecap: square"/>
   </g>
   <g id="line2d_10">
    <path d="M 192.24 380.736717 
L 214.56 380.736717 
M 203.4 380.736717 
L 203.4 378.64703 
M 192.24 378.64703 
L 214.56 378.64703 
" clip-path="url(#p254f8da25e)" style="fill: none; stroke: #000000; stroke-width: 2.25; stroke-linecap: square"/>
   </g>
   <g id="patch_5">
    <path d="M 36 384.48 
L 36 51.84 
" style="fill: none; stroke: #000000; stroke-width: 0.8; stroke-linejoin: miter; stroke-linecap: square"/>
   </g>
   <g id="patch_6">
    <path d="M 259.2 384.48 
L 259.2 51.84 
" style="fill: none; stroke: #000000; stroke-width: 0.8; stroke-linejoin: miter; stroke-linecap: square"/>
   </g>
   <g id="patch_7">
    <path d="M 36 384.48 
L 259.2 384.48 
" style="fill: none; stroke: #000000; stroke-width: 0.8; stroke-linejoin: miter; stroke-linecap: square"/>
   </g>
   <g id="patch_8">
    <path d="M 36 51.84 
L 259.2 51.84 
" style="fill: none; stroke: #000000; stroke-width: 0.8; stroke-linejoin: miter; stroke-linecap: square"/>
   </g>
   <g id="PathCollection_1">
    <defs>
     <path id="C0_0_41e693ed5c" d="M 0 4.5 
C 1.193414 4.5 2.338109 4.025852 3.181981 3.181981 
C 4.025852 2.338109 4.5 1.193414 4.5 -0 
C 4.5 -1.193414 4.025852 -2.338109 3.181981 -3.181981 
C 2.338109 -4.025852 1.193414 -4.5 0 -4.5 
C -1.193414 -4.5 -2.338109 -4.025852 -3.181981 -3.181981 
C -4.025852 -2.338109 -4.5 -1.193414 -4.5 0 
C -4.5 1.193414 -4.025852 2.338109 -3.181981 3.181981 
C -2.338109 4.025852 -1.193414 4.5 0 4.5 
z
"/>
    </defs>
    <g clip-path="url(#p254f8da25e)">
     <use xlink:href="#C0_0_41e693ed5c" x="81.69291" y="171.131514" style="fill: #1f77b4; fill-opacity: 0.5; stroke: #000000; stroke-opacity: 0.5"/>
    </g>
    <g clip-path="url(#p254f8da25e)">
     <use xlink:href="#C0_0_41e693ed5c" x="97.140322" y="144.192198" style="fill: #1f77b4; fill-opacity: 0.5; stroke: #000000; stroke-opacity: 0.5"/>
    </g>
    <g clip-path="url(#p254f8da25e)">
     <use xlink:href="#C0_0_41e693ed5c" x="83.288902" y="243.485475" style="fill: #1f77b4; fill-opacity: 0.5; stroke: #000000; stroke-opacity: 0.5"/>
    </g>
    <g clip-path="url(#p254f8da25e)">
     <use xlink:href="#C0_0_41e693ed5c" x="90.900179" y="191.743494" style="fill: #1f77b4; fill-opacity: 0.5; stroke: #000000; stroke-opacity: 0.5"/>
    </g>
    <g clip-path="url(#p254f8da25e)">
     <use xlink:href="#C0_0_41e693ed5c" x="81.06035" y="196.371568" style="fill: #1f77b4; fill-opacity: 0.5; stroke: #000000; stroke-opacity: 0.5"/>
    </g>
    <g clip-path="url(#p254f8da25e)">
     <use xlink:href="#C0_0_41e693ed5c" x="98.615007" y="117.31172" style="fill: #1f77b4; fill-opacity: 0.5; stroke: #000000; stroke-opacity: 0.5"/>
    </g>
    <g clip-path="url(#p254f8da25e)">
     <use xlink:href="#C0_0_41e693ed5c" x="96.507794" y="91.276405" style="fill: #1f77b4; fill-opacity: 0.5; stroke: #000000; stroke-opacity: 0.5"/>
    </g>
    <g clip-path="url(#p254f8da25e)">
     <use xlink:href="#C0_0_41e693ed5c" x="90.139352" y="67.68" style="fill: #1f77b4; fill-opacity: 0.5; stroke: #000000; stroke-opacity: 0.5"/>
    </g>
    <g clip-path="url(#p254f8da25e)">
     <use xlink:href="#C0_0_41e693ed5c" x="101.603197" y="88.56982" style="fill: #1f77b4; fill-opacity: 0.5; stroke: #000000; stroke-opacity: 0.5"/>
    </g>
    <g clip-path="url(#p254f8da25e)">
     <use xlink:href="#C0_0_41e693ed5c" x="82.543887" y="71.301362" style="fill: #1f77b4; fill-opacity: 0.5; stroke: #000000; stroke-opacity: 0.5"/>
    </g>
    <g clip-path="url(#p254f8da25e)">
     <use xlink:href="#C0_0_41e693ed5c" x="81.305269" y="188.41902" style="fill: #1f77b4; fill-opacity: 0.5; stroke: #000000; stroke-opacity: 0.5"/>
    </g>
    <g clip-path="url(#p254f8da25e)">
     <use xlink:href="#C0_0_41e693ed5c" x="90.505754" y="132.426353" style="fill: #1f77b4; fill-opacity: 0.5; stroke: #000000; stroke-opacity: 0.5"/>
    </g>
    <g clip-path="url(#p254f8da25e)">
     <use xlink:href="#C0_0_41e693ed5c" x="93.185092" y="217.739906" style="fill: #1f77b4; fill-opacity: 0.5; stroke: #000000; stroke-opacity: 0.5"/>
    </g>
    <g clip-path="url(#p254f8da25e)">
     <use xlink:href="#C0_0_41e693ed5c" x="102.81762" y="186.799701" style="fill: #1f77b4; fill-opacity: 0.5; stroke: #000000; stroke-opacity: 0.5"/>
    </g>
    <g clip-path="url(#p254f8da25e)">
     <use xlink:href="#C0_0_41e693ed5c" x="88.964108" y="195.843759" style="fill: #1f77b4; fill-opacity: 0.5; stroke: #000000; stroke-opacity: 0.5"/>
    </g>
    <g clip-path="url(#p254f8da25e)">
     <use xlink:href="#C0_0_41e693ed5c" x="90.904732" y="174.546649" style="fill: #1f77b4; fill-opacity: 0.5; stroke: #000000; stroke-opacity: 0.5"/>
    </g>
    <g clip-path="url(#p254f8da25e)">
     <use xlink:href="#C0_0_41e693ed5c" x="92.890119" y="157.324033" style="fill: #1f77b4; fill-opacity: 0.5; stroke: #000000; stroke-opacity: 0.5"/>
    </g>
    <g clip-path="url(#p254f8da25e)">
     <use xlink:href="#C0_0_41e693ed5c" x="87.446103" y="148.559336" style="fill: #1f77b4; fill-opacity: 0.5; stroke: #000000; stroke-opacity: 0.5"/>
    </g>
    <g clip-path="url(#p254f8da25e)">
     <use xlink:href="#C0_0_41e693ed5c" x="85.637026" y="140.815934" style="fill: #1f77b4; fill-opacity: 0.5; stroke: #000000; stroke-opacity: 0.5"/>
    </g>
    <g clip-path="url(#p254f8da25e)">
     <use xlink:href="#C0_0_41e693ed5c" x="99.090479" y="107.163304" style="fill: #1f77b4; fill-opacity: 0.5; stroke: #000000; stroke-opacity: 0.5"/>
    </g>
   </g>
   <g id="PathCollection_2">
    <defs>
     <path id="C1_0_66ae481518" d="M 0 4.5 
C 1.193414 4.5 2.338109 4.025852 3.181981 3.181981 
C 4.025852 2.338109 4.5 1.193414 4.5 -0 
C 4.5 -1.193414 4.025852 -2.338109 3.181981 -3.181981 
C 2.338109 -4.025852 1.193414 -4.5 0 -4.5 
C -1.193414 -4.5 -2.338109 -4.025852 -3.181981 -3.181981 
C -4.025852 -2.338109 -4.5 -1.193414 -4.5 0 
C -4.5 1.193414 -4.025852 2.338109 -3.181981 3.181981 
C -2.338109 4.025852 -1.193414 4.5 0 4.5 
z
"/>
    </defs>
    <g clip-path="url(#p254f8da25e)">
     <use xlink:href="#C1_0_66ae481518" x="192.347696" y="379.516034" style="fill: #bcbd22; fill-opacity: 0.5; stroke: #000000; stroke-opacity: 0.5"/>
    </g>
    <g clip-path="url(#p254f8da25e)">
     <use xlink:href="#C1_0_66ae481518" x="199.988395" y="373.572055" style="fill: #bcbd22; fill-opacity: 0.5; stroke: #000000; stroke-opacity: 0.5"/>
    </g>
    <g clip-path="url(#p254f8da25e)">
     <use xlink:href="#C1_0_66ae481518" x="201.546078" y="370.63366" style="fill: #bcbd22; fill-opacity: 0.5; stroke: #000000; stroke-opacity: 0.5"/>
    </g>
    <g clip-path="url(#p254f8da25e)">
     <use xlink:href="#C1_0_66ae481518" x="193.078167" y="367.786843" style="fill: #bcbd22; fill-opacity: 0.5; stroke: #000000; stroke-opacity: 0.5"/>
    </g>
    <g clip-path="url(#p254f8da25e)">
     <use xlink:href="#C1_0_66ae481518" x="197.559801" y="377.169445" style="fill: #bcbd22; fill-opacity: 0.5; stroke: #000000; stroke-opacity: 0.5"/>
    </g>
    <g clip-path="url(#p254f8da25e)">
     <use xlink:href="#C1_0_66ae481518" x="200.59529" y="374.95036" style="fill: #bcbd22; fill-opacity: 0.5; stroke: #000000; stroke-opacity: 0.5"/>
    </g>
    <g clip-path="url(#p254f8da25e)">
     <use xlink:href="#C1_0_66ae481518" x="203.993177" y="374.549685" style="fill: #bcbd22; fill-opacity: 0.5; stroke: #000000; stroke-opacity: 0.5"/>
    </g>
    <g clip-path="url(#p254f8da25e)">
     <use xlink:href="#C1_0_66ae481518" x="202.179954" y="373.704777" style="fill: #bcbd22; fill-opacity: 0.5; stroke: #000000; stroke-opacity: 0.5"/>
    </g>
    <g clip-path="url(#p254f8da25e)">
     <use xlink:href="#C1_0_66ae481518" x="199.132182" y="373.466353" style="fill: #bcbd22; fill-opacity: 0.5; stroke: #000000; stroke-opacity: 0.5"/>
    </g>
    <g clip-path="url(#p254f8da25e)">
     <use xlink:href="#C1_0_66ae481518" x="197.479306" y="371.323508" style="fill: #bcbd22; fill-opacity: 0.5; stroke: #000000; stroke-opacity: 0.5"/>
    </g>
    <g clip-path="url(#p254f8da25e)">
     <use xlink:href="#C1_0_66ae481518" x="194.021053" y="383.49128" style="fill: #bcbd22; fill-opacity: 0.5; stroke: #000000; stroke-opacity: 0.5"/>
    </g>
    <g clip-path="url(#p254f8da25e)">
     <use xlink:href="#C1_0_66ae481518" x="195.298173" y="381.75075" style="fill: #bcbd22; fill-opacity: 0.5; stroke: #000000; stroke-opacity: 0.5"/>
    </g>
    <g clip-path="url(#p254f8da25e)">
     <use xlink:href="#C1_0_66ae481518" x="193.908099" y="372.549799" style="fill: #bcbd22; fill-opacity: 0.5; stroke: #000000; stroke-opacity: 0.5"/>
    </g>
    <g clip-path="url(#p254f8da25e)">
     <use xlink:href="#C1_0_66ae481518" x="213.467876" y="369.341611" style="fill: #bcbd22; fill-opacity: 0.5; stroke: #000000; stroke-opacity: 0.5"/>
    </g>
    <g clip-path="url(#p254f8da25e)">
     <use xlink:href="#C1_0_66ae481518" x="201.78364" y="379.357485" style="fill: #bcbd22; fill-opacity: 0.5; stroke: #000000; stroke-opacity: 0.5"/>
    </g>
    <g clip-path="url(#p254f8da25e)">
     <use xlink:href="#C1_0_66ae481518" x="202.372008" y="376.819874" style="fill: #bcbd22; fill-opacity: 0.5; stroke: #000000; stroke-opacity: 0.5"/>
    </g>
    <g clip-path="url(#p254f8da25e)">
     <use xlink:href="#C1_0_66ae481518" x="195.974431" y="377.279179" style="fill: #bcbd22; fill-opacity: 0.5; stroke: #000000; stroke-opacity: 0.5"/>
    </g>
    <g clip-path="url(#p254f8da25e)">
     <use xlink:href="#C1_0_66ae481518" x="212.803063" y="376.477314" style="fill: #bcbd22; fill-opacity: 0.5; stroke: #000000; stroke-opacity: 0.5"/>
    </g>
    <g clip-path="url(#p254f8da25e)">
     <use xlink:href="#C1_0_66ae481518" x="200.311102" y="381.338179" style="fill: #bcbd22; fill-opacity: 0.5; stroke: #000000; stroke-opacity: 0.5"/>
    </g>
    <g clip-path="url(#p254f8da25e)">
     <use xlink:href="#C1_0_66ae481518" x="208.076732" y="378.330824" style="fill: #bcbd22; fill-opacity: 0.5; stroke: #000000; stroke-opacity: 0.5"/>
    </g>
    <g clip-path="url(#p254f8da25e)">
     <use xlink:href="#C1_0_66ae481518" x="205.28933" y="380.737421" style="fill: #bcbd22; fill-opacity: 0.5; stroke: #000000; stroke-opacity: 0.5"/>
    </g>
    <g clip-path="url(#p254f8da25e)">
     <use xlink:href="#C1_0_66ae481518" x="207.218478" y="381.720564" style="fill: #bcbd22; fill-opacity: 0.5; stroke: #000000; stroke-opacity: 0.5"/>
    </g>
    <g clip-path="url(#p254f8da25e)">
     <use xlink:href="#C1_0_66ae481518" x="212.565967" y="378.696338" style="fill: #bcbd22; fill-opacity: 0.5; stroke: #000000; stroke-opacity: 0.5"/>
    </g>
    <g clip-path="url(#p254f8da25e)">
     <use xlink:href="#C1_0_66ae481518" x="192.826574" y="379.851111" style="fill: #bcbd22; fill-opacity: 0.5; stroke: #000000; stroke-opacity: 0.5"/>
    </g>
    <g clip-path="url(#p254f8da25e)">
     <use xlink:href="#C1_0_66ae481518" x="199.271055" y="382.604834" style="fill: #bcbd22; fill-opacity: 0.5; stroke: #000000; stroke-opacity: 0.5"/>
    </g>
    <g clip-path="url(#p254f8da25e)">
     <use xlink:href="#C1_0_66ae481518" x="214.089257" y="383.325975" style="fill: #bcbd22; fill-opacity: 0.5; stroke: #000000; stroke-opacity: 0.5"/>
    </g>
    <g clip-path="url(#p254f8da25e)">
     <use xlink:href="#C1_0_66ae481518" x="213.533783" y="379.117304" style="fill: #bcbd22; fill-opacity: 0.5; stroke: #000000; stroke-opacity: 0.5"/>
    </g>
    <g clip-path="url(#p254f8da25e)">
     <use xlink:href="#C1_0_66ae481518" x="210.534336" y="376.103576" style="fill: #bcbd22; fill-opacity: 0.5; stroke: #000000; stroke-opacity: 0.5"/>
    </g>
    <g clip-path="url(#p254f8da25e)">
     <use xlink:href="#C1_0_66ae481518" x="208.091034" y="384.48" style="fill: #bcbd22; fill-opacity: 0.5; stroke: #000000; stroke-opacity: 0.5"/>
    </g>
    <g clip-path="url(#p254f8da25e)">
     <use xlink:href="#C1_0_66ae481518" x="203.865238" y="382.922935" style="fill: #bcbd22; fill-opacity: 0.5; stroke: #000000; stroke-opacity: 0.5"/>
    </g>
    <g clip-path="url(#p254f8da25e)">
     <use xlink:href="#C1_0_66ae481518" x="210.349591" y="381.10058" style="fill: #bcbd22; fill-opacity: 0.5; stroke: #000000; stroke-opacity: 0.5"/>
    </g>
    <g clip-path="url(#p254f8da25e)">
     <use xlink:href="#C1_0_66ae481518" x="210.336829" y="381.142234" style="fill: #bcbd22; fill-opacity: 0.5; stroke: #000000; stroke-opacity: 0.5"/>
    </g>
    <g clip-path="url(#p254f8da25e)">
     <use xlink:href="#C1_0_66ae481518" x="203.334538" y="382.531052" style="fill: #bcbd22; fill-opacity: 0.5; stroke: #000000; stroke-opacity: 0.5"/>
    </g>
    <g clip-path="url(#p254f8da25e)">
     <use xlink:href="#C1_0_66ae481518" x="201.290305" y="382.595218" style="fill: #bcbd22; fill-opacity: 0.5; stroke: #000000; stroke-opacity: 0.5"/>
    </g>
    <g clip-path="url(#p254f8da25e)">
     <use xlink:href="#C1_0_66ae481518" x="192.541241" y="384.48" style="fill: #bcbd22; fill-opacity: 0.5; stroke: #000000; stroke-opacity: 0.5"/>
    </g>
    <g clip-path="url(#p254f8da25e)">
     <use xlink:href="#C1_0_66ae481518" x="204.199206" y="384.102372" style="fill: #bcbd22; fill-opacity: 0.5; stroke: #000000; stroke-opacity: 0.5"/>
    </g>
    <g clip-path="url(#p254f8da25e)">
     <use xlink:href="#C1_0_66ae481518" x="196.946796" y="377.993561" style="fill: #bcbd22; fill-opacity: 0.5; stroke: #000000; stroke-opacity: 0.5"/>
    </g>
    <g clip-path="url(#p254f8da25e)">
     <use xlink:href="#C1_0_66ae481518" x="212.852456" y="378.703681" style="fill: #bcbd22; fill-opacity: 0.5; stroke: #000000; stroke-opacity: 0.5"/>
    </g>
    <g clip-path="url(#p254f8da25e)">
     <use xlink:href="#C1_0_66ae481518" x="192.969047" y="382.523945" style="fill: #bcbd22; fill-opacity: 0.5; stroke: #000000; stroke-opacity: 0.5"/>
    </g>
    <g clip-path="url(#p254f8da25e)">
     <use xlink:href="#C1_0_66ae481518" x="197.120096" y="383.101673" style="fill: #bcbd22; fill-opacity: 0.5; stroke: #000000; stroke-opacity: 0.5"/>
    </g>
    <g clip-path="url(#p254f8da25e)">
     <use xlink:href="#C1_0_66ae481518" x="211.197836" y="383.403011" style="fill: #bcbd22; fill-opacity: 0.5; stroke: #000000; stroke-opacity: 0.5"/>
    </g>
    <g clip-path="url(#p254f8da25e)">
     <use xlink:href="#C1_0_66ae481518" x="201.475371" y="384.48" style="fill: #bcbd22; fill-opacity: 0.5; stroke: #000000; stroke-opacity: 0.5"/>
    </g>
    <g clip-path="url(#p254f8da25e)">
     <use xlink:href="#C1_0_66ae481518" x="204.545868" y="380.372263" style="fill: #bcbd22; fill-opacity: 0.5; stroke: #000000; stroke-opacity: 0.5"/>
    </g>
    <g clip-path="url(#p254f8da25e)">
     <use xlink:href="#C1_0_66ae481518" x="209.760748" y="379.215618" style="fill: #bcbd22; fill-opacity: 0.5; stroke: #000000; stroke-opacity: 0.5"/>
    </g>
    <g clip-path="url(#p254f8da25e)">
     <use xlink:href="#C1_0_66ae481518" x="203.784749" y="384.48" style="fill: #bcbd22; fill-opacity: 0.5; stroke: #000000; stroke-opacity: 0.5"/>
    </g>
    <g clip-path="url(#p254f8da25e)">
     <use xlink:href="#C1_0_66ae481518" x="200.239511" y="382.892607" style="fill: #bcbd22; fill-opacity: 0.5; stroke: #000000; stroke-opacity: 0.5"/>
    </g>
    <g clip-path="url(#p254f8da25e)">
     <use xlink:href="#C1_0_66ae481518" x="196.732706" y="377.180521" style="fill: #bcbd22; fill-opacity: 0.5; stroke: #000000; stroke-opacity: 0.5"/>
    </g>
    <g clip-path="url(#p254f8da25e)">
     <use xlink:href="#C1_0_66ae481518" x="200.757098" y="374.577756" style="fill: #bcbd22; fill-opacity: 0.5; stroke: #000000; stroke-opacity: 0.5"/>
    </g>
    <g clip-path="url(#p254f8da25e)">
     <use xlink:href="#C1_0_66ae481518" x="193.053285" y="383.471383" style="fill: #bcbd22; fill-opacity: 0.5; stroke: #000000; stroke-opacity: 0.5"/>
    </g>
    <g clip-path="url(#p254f8da25e)">
     <use xlink:href="#C1_0_66ae481518" x="196.186797" y="382.180002" style="fill: #bcbd22; fill-opacity: 0.5; stroke: #000000; stroke-opacity: 0.5"/>
    </g>
    <g clip-path="url(#p254f8da25e)">
     <use xlink:href="#C1_0_66ae481518" x="205.890171" y="382.29892" style="fill: #bcbd22; fill-opacity: 0.5; stroke: #000000; stroke-opacity: 0.5"/>
    </g>
    <g clip-path="url(#p254f8da25e)">
     <use xlink:href="#C1_0_66ae481518" x="196.738843" y="384.48" style="fill: #bcbd22; fill-opacity: 0.5; stroke: #000000; stroke-opacity: 0.5"/>
    </g>
    <g clip-path="url(#p254f8da25e)">
     <use xlink:href="#C1_0_66ae481518" x="199.808436" y="383.723496" style="fill: #bcbd22; fill-opacity: 0.5; stroke: #000000; stroke-opacity: 0.5"/>
    </g>
    <g clip-path="url(#p254f8da25e)">
     <use xlink:href="#C1_0_66ae481518" x="193.333332" y="383.246117" style="fill: #bcbd22; fill-opacity: 0.5; stroke: #000000; stroke-opacity: 0.5"/>
    </g>
    <g clip-path="url(#p254f8da25e)">
     <use xlink:href="#C1_0_66ae481518" x="204.551551" y="382.298995" style="fill: #bcbd22; fill-opacity: 0.5; stroke: #000000; stroke-opacity: 0.5"/>
    </g>
    <g clip-path="url(#p254f8da25e)">
     <use xlink:href="#C1_0_66ae481518" x="202.547136" y="384.414219" style="fill: #bcbd22; fill-opacity: 0.5; stroke: #000000; stroke-opacity: 0.5"/>
    </g>
    <g clip-path="url(#p254f8da25e)">
     <use xlink:href="#C1_0_66ae481518" x="203.32779" y="380.272931" style="fill: #bcbd22; fill-opacity: 0.5; stroke: #000000; stroke-opacity: 0.5"/>
    </g>
    <g clip-path="url(#p254f8da25e)">
     <use xlink:href="#C1_0_66ae481518" x="211.420683" y="381.25887" style="fill: #bcbd22; fill-opacity: 0.5; stroke: #000000; stroke-opacity: 0.5"/>
    </g>
    <g clip-path="url(#p254f8da25e)">
     <use xlink:href="#C1_0_66ae481518" x="195.336353" y="384.172272" style="fill: #bcbd22; fill-opacity: 0.5; stroke: #000000; stroke-opacity: 0.5"/>
    </g>
    <g clip-path="url(#p254f8da25e)">
     <use xlink:href="#C1_0_66ae481518" x="195.118949" y="384.48" style="fill: #bcbd22; fill-opacity: 0.5; stroke: #000000; stroke-opacity: 0.5"/>
    </g>
   </g>
  </g>
 </g>
 <defs>
  <clipPath id="p254f8da25e">
   <rect x="36" y="51.84" width="223.2" height="332.64"/>
  </clipPath>
 </defs>
</svg>
