<?xml version="1.0" encoding="utf-8" standalone="no"?>
<!DOCTYPE svg PUBLIC "-//W3C//DTD SVG 1.1//EN"
  "http://www.w3.org/Graphics/SVG/1.1/DTD/svg11.dtd">
<svg height="345.6pt" version="1.1" viewBox="0 0 460.8 345.6" width="460.8pt" xmlns="http://www.w3.org/2000/svg" xmlns:xlink="http://www.w3.org/1999/xlink">
 <metadata>
  <rdf:RDF xmlns:cc="http://creativecommons.org/ns#" xmlns:dc="http://purl.org/dc/elements/1.1/" xmlns:rdf="http://www.w3.org/1999/02/22-rdf-syntax-ns#">
   <cc:Work>
    <dc:type rdf:resource="http://purl.org/dc/dcmitype/StillImage"/>
    <dc:date>2023-08-31T09:32:22.450879</dc:date>
    <dc:format>image/svg+xml</dc:format>
    <dc:creator>
     <cc:Agent>
      <dc:title>Matplotlib v3.4.3, https://matplotlib.org/</dc:title>
     </cc:Agent>
    </dc:creator>
   </cc:Work>
  </rdf:RDF>
 </metadata>
 <defs>
  <style type="text/css">*{stroke-linecap:butt;stroke-linejoin:round;}</style>
 </defs>
 <g id="figure_1">
  <g id="patch_1">
   <path d="M 0 345.6 
L 460.8 345.6 
L 460.8 0 
L 0 0 
z
" style="fill:#ffffff;"/>
  </g>
  <g id="axes_1">
   <g id="patch_2">
    <path clip-path="url(#pf2f5d094fa)" d="M 236.16 68.321521 
C 217.22058 59.957668 195.841386 58.885838 176.160405 65.313486 
C 156.479424 71.741134 139.85399 85.224964 129.50199 103.155155 
C 119.149989 121.085346 115.785366 142.225309 120.059351 162.483363 
C 124.333335 182.741417 135.951163 200.720426 152.664182 212.940519 
C 151.079015 198.285033 153.380014 183.467282 159.334962 169.982675 
C 165.28991 156.498068 174.691509 144.816019 186.590948 136.115481 
C 188.176116 121.459995 193.592268 107.476947 202.292806 95.577507 
C 210.993344 83.678068 222.675393 74.276469 236.16 68.321521 
" style="fill:#ff0000;opacity:0.4;"/>
   </g>
   <g id="patch_3">
    <path clip-path="url(#pf2f5d094fa)" d="M 236.16 68.321521 
C 249.644607 74.276469 261.326656 83.678068 270.027194 95.577507 
C 278.727732 107.476947 284.143884 121.459995 285.729052 136.115481 
C 297.628491 144.816019 307.03009 156.498068 312.985038 169.982675 
C 318.939986 183.467282 321.240985 198.285033 319.655818 212.940519 
C 336.368837 200.720426 347.986665 182.741417 352.260649 162.483363 
C 356.534634 142.225309 353.170011 121.085346 342.81801 103.155155 
C 332.46601 85.224964 315.840576 71.741134 296.159595 65.313486 
C 276.478614 58.885838 255.09942 59.957668 236.16 68.321521 
" style="fill:#008000;opacity:0.4;"/>
   </g>
   <g id="patch_4">
    <path clip-path="url(#pf2f5d094fa)" d="M 236.16 68.321521 
C 222.675393 74.276469 210.993344 83.678068 202.292806 95.577507 
C 193.592268 107.476947 188.176116 121.459995 186.590948 136.115481 
C 200.975393 125.597976 218.340624 119.926634 236.16 119.926634 
C 253.979376 119.926634 271.344607 125.597976 285.729052 136.115481 
C 284.143884 121.459995 278.727732 107.476947 270.027194 95.577507 
C 261.326656 83.678068 249.644607 74.276469 236.16 68.321521 
" style="fill:#b25900;opacity:0.4;"/>
   </g>
   <g id="patch_5">
    <path clip-path="url(#pf2f5d094fa)" d="M 152.664182 212.940519 
C 154.890584 233.524465 164.651949 252.575304 180.058945 266.40571 
C 195.465942 280.236116 215.455999 287.892248 236.16 287.892248 
C 256.864001 287.892248 276.854058 280.236116 292.261055 266.40571 
C 307.668051 252.575304 317.429416 233.524465 319.655818 212.940519 
C 307.756378 221.641057 293.77333 227.057209 279.117844 228.642376 
C 264.462358 230.227544 249.644607 227.926545 236.16 221.971597 
C 222.675393 227.926545 207.857642 230.227544 193.202156 228.642376 
C 178.54667 227.057209 164.563622 221.641057 152.664182 212.940519 
" style="fill:#0000ff;opacity:0.4;"/>
   </g>
   <g id="patch_6">
    <path clip-path="url(#pf2f5d094fa)" d="M 152.664182 212.940519 
C 164.563622 221.641057 178.54667 227.057209 193.202156 228.642376 
C 207.857642 230.227544 222.675393 227.926545 236.16 221.971597 
C 219.859351 214.773055 206.265209 202.569995 197.355521 187.137963 
C 188.445833 171.70593 184.674745 153.831528 186.590948 136.115481 
C 174.691509 144.816019 165.28991 156.498068 159.334962 169.982675 
C 153.380014 183.467282 151.079015 198.285033 152.664182 212.940519 
" style="fill:#b200b2;opacity:0.4;"/>
   </g>
   <g id="patch_7">
    <path clip-path="url(#pf2f5d094fa)" d="M 285.729052 136.115481 
C 287.645255 153.831528 283.874167 171.70593 274.964479 187.137963 
C 266.054791 202.569995 252.460649 214.773055 236.16 221.971597 
C 249.644607 227.926545 264.462358 230.227544 279.117844 228.642376 
C 293.77333 227.057209 307.756378 221.641057 319.655818 212.940519 
C 321.240985 198.285033 318.939986 183.467282 312.985038 169.982675 
C 307.03009 156.498068 297.628491 144.816019 285.729052 136.115481 
" style="fill:#0059b2;opacity:0.4;"/>
   </g>
   <g id="patch_8">
    <path clip-path="url(#pf2f5d094fa)" d="M 186.590948 136.115481 
C 184.674745 153.831528 188.445833 171.70593 197.355521 187.137963 
C 206.265209 202.569995 219.859351 214.773055 236.16 221.971597 
C 252.460649 214.773055 266.054791 202.569995 274.964479 187.137963 
C 283.874167 171.70593 287.645255 153.831528 285.729052 136.115481 
C 271.344607 125.597976 253.979376 119.926634 236.16 119.926634 
C 218.340624 119.926634 200.975393 125.597976 186.590948 136.115481 
" style="fill:#663366;opacity:0.4;"/>
   </g>
   <g id="patch_9">
    <path clip-path="url(#pf2f5d094fa)" d="M 202.233234 229.129366 
C 224.505735 229.129366 245.86901 220.280408 261.618047 204.531371 
C 277.367083 188.782335 286.216041 167.41906 286.216041 145.146559 
C 286.216041 122.874058 277.367083 101.510783 261.618047 85.761746 
C 245.86901 70.01271 224.505735 61.163752 202.233234 61.163752 
C 179.960733 61.163752 158.597458 70.01271 142.848422 85.761746 
C 127.099385 101.510783 118.250427 122.874058 118.250427 145.146559 
C 118.250427 167.41906 127.099385 188.782335 142.848422 204.531371 
C 158.597458 220.280408 179.960733 229.129366 202.233234 229.129366 
z
" style="fill:none;stroke:#000000;stroke-dasharray:7.4,3.2;stroke-dashoffset:0;stroke-linejoin:miter;stroke-width:2;"/>
   </g>
   <g id="patch_10">
    <path clip-path="url(#pf2f5d094fa)" d="M 270.086766 229.129366 
C 292.359267 229.129366 313.722542 220.280408 329.471578 204.531371 
C 345.220615 188.782335 354.069573 167.41906 354.069573 145.146559 
C 354.069573 122.874058 345.220615 101.510783 329.471578 85.761746 
C 313.722542 70.01271 292.359267 61.163752 270.086766 61.163752 
C 247.814265 61.163752 226.45099 70.01271 210.701953 85.761746 
C 194.952917 101.510783 186.103959 122.874058 186.103959 145.146559 
C 186.103959 167.41906 194.952917 188.782335 210.701953 204.531371 
C 226.45099 220.280408 247.814265 229.129366 270.086766 229.129366 
z
" style="fill:none;stroke:#000000;stroke-dasharray:7.4,3.2;stroke-dashoffset:0;stroke-linejoin:miter;stroke-width:2;"/>
   </g>
   <g id="patch_11">
    <path clip-path="url(#pf2f5d094fa)" d="M 236.16 287.892248 
C 258.432501 287.892248 279.795776 279.04329 295.544813 263.294254 
C 311.293849 247.545217 320.142807 226.181942 320.142807 203.909441 
C 320.142807 181.63694 311.293849 160.273665 295.544813 144.524629 
C 279.795776 128.775592 258.432501 119.926634 236.16 119.926634 
C 213.887499 119.926634 192.524224 128.775592 176.775187 144.524629 
C 161.026151 160.273665 152.177193 181.63694 152.177193 203.909441 
C 152.177193 226.181942 161.026151 247.545217 176.775187 263.294254 
C 192.524224 279.04329 213.887499 287.892248 236.16 287.892248 
z
" style="fill:none;stroke:#000000;stroke-dasharray:7.4,3.2;stroke-dashoffset:0;stroke-linejoin:miter;stroke-width:2;"/>
   </g>
   <g id="line2d_1">
    <path clip-path="url(#pf2f5d094fa)" d="M 255.851752 164.734186 
L 446.697178 -1 
" style="fill:none;stroke:#000000;stroke-linecap:square;stroke-width:1.5;"/>
   </g>
   <g id="line2d_2">
    <path clip-path="url(#pf2f5d094fa)" d="M 255.851752 164.734186 
L 447.821222 346.6 
" style="fill:none;stroke:#000000;stroke-linecap:square;stroke-width:1.5;"/>
   </g>
   <g id="text_1">
    <!-- 36 -->
    <g transform="translate(138.673634 121.201089)scale(0.22 -0.22)">
     <defs>
      <path d="M 269 1209 
L 831 1284 
Q 928 806 1161 595 
Q 1394 384 1728 384 
Q 2125 384 2398 659 
Q 2672 934 2672 1341 
Q 2672 1728 2419 1979 
Q 2166 2231 1775 2231 
Q 1616 2231 1378 2169 
L 1441 2663 
Q 1497 2656 1531 2656 
Q 1891 2656 2178 2843 
Q 2466 3031 2466 3422 
Q 2466 3731 2256 3934 
Q 2047 4138 1716 4138 
Q 1388 4138 1169 3931 
Q 950 3725 888 3313 
L 325 3413 
Q 428 3978 793 4289 
Q 1159 4600 1703 4600 
Q 2078 4600 2393 4439 
Q 2709 4278 2876 4000 
Q 3044 3722 3044 3409 
Q 3044 3113 2884 2869 
Q 2725 2625 2413 2481 
Q 2819 2388 3044 2092 
Q 3269 1797 3269 1353 
Q 3269 753 2831 336 
Q 2394 -81 1725 -81 
Q 1122 -81 723 278 
Q 325 638 269 1209 
z
" id="ArialMT-33" transform="scale(0.015625)"/>
      <path d="M 3184 3459 
L 2625 3416 
Q 2550 3747 2413 3897 
Q 2184 4138 1850 4138 
Q 1581 4138 1378 3988 
Q 1113 3794 959 3422 
Q 806 3050 800 2363 
Q 1003 2672 1297 2822 
Q 1591 2972 1913 2972 
Q 2475 2972 2870 2558 
Q 3266 2144 3266 1488 
Q 3266 1056 3080 686 
Q 2894 316 2569 119 
Q 2244 -78 1831 -78 
Q 1128 -78 684 439 
Q 241 956 241 2144 
Q 241 3472 731 4075 
Q 1159 4600 1884 4600 
Q 2425 4600 2770 4297 
Q 3116 3994 3184 3459 
z
M 888 1484 
Q 888 1194 1011 928 
Q 1134 663 1356 523 
Q 1578 384 1822 384 
Q 2178 384 2434 671 
Q 2691 959 2691 1453 
Q 2691 1928 2437 2201 
Q 2184 2475 1800 2475 
Q 1419 2475 1153 2201 
Q 888 1928 888 1484 
z
" id="ArialMT-36" transform="scale(0.015625)"/>
     </defs>
     <use xlink:href="#ArialMT-33"/>
     <use x="55.615234" xlink:href="#ArialMT-36"/>
    </g>
   </g>
   <g id="text_2">
    <!-- 41 -->
    <g transform="translate(309.178241 121.201089)scale(0.22 -0.22)">
     <defs>
      <path d="M 2069 0 
L 2069 1097 
L 81 1097 
L 81 1613 
L 2172 4581 
L 2631 4581 
L 2631 1613 
L 3250 1613 
L 3250 1097 
L 2631 1097 
L 2631 0 
L 2069 0 
z
M 2069 1613 
L 2069 3678 
L 634 1613 
L 2069 1613 
z
" id="ArialMT-34" transform="scale(0.015625)"/>
      <path d="M 2384 0 
L 1822 0 
L 1822 3584 
Q 1619 3391 1289 3197 
Q 959 3003 697 2906 
L 697 3450 
Q 1169 3672 1522 3987 
Q 1875 4303 2022 4600 
L 2384 4600 
L 2384 0 
z
" id="ArialMT-31" transform="scale(0.015625)"/>
     </defs>
     <use xlink:href="#ArialMT-34"/>
     <use x="55.615234" xlink:href="#ArialMT-31"/>
    </g>
   </g>
   <g id="text_3">
    <!-- 39 -->
    <g transform="translate(223.925938 110.423185)scale(0.22 -0.22)">
     <defs>
      <path d="M 350 1059 
L 891 1109 
Q 959 728 1153 556 
Q 1347 384 1650 384 
Q 1909 384 2104 503 
Q 2300 622 2425 820 
Q 2550 1019 2634 1356 
Q 2719 1694 2719 2044 
Q 2719 2081 2716 2156 
Q 2547 1888 2255 1720 
Q 1963 1553 1622 1553 
Q 1053 1553 659 1965 
Q 266 2378 266 3053 
Q 266 3750 677 4175 
Q 1088 4600 1706 4600 
Q 2153 4600 2523 4359 
Q 2894 4119 3086 3673 
Q 3278 3228 3278 2384 
Q 3278 1506 3087 986 
Q 2897 466 2520 194 
Q 2144 -78 1638 -78 
Q 1100 -78 759 220 
Q 419 519 350 1059 
z
M 2653 3081 
Q 2653 3566 2395 3850 
Q 2138 4134 1775 4134 
Q 1400 4134 1122 3828 
Q 844 3522 844 3034 
Q 844 2597 1108 2323 
Q 1372 2050 1759 2050 
Q 2150 2050 2401 2323 
Q 2653 2597 2653 3081 
z
" id="ArialMT-39" transform="scale(0.015625)"/>
     </defs>
     <use xlink:href="#ArialMT-33"/>
     <use x="55.615234" xlink:href="#ArialMT-39"/>
    </g>
   </g>
   <g id="text_4">
    <!-- 75 -->
    <g transform="translate(223.925938 268.862411)scale(0.22 -0.22)">
     <defs>
      <path d="M 303 3981 
L 303 4522 
L 3269 4522 
L 3269 4084 
Q 2831 3619 2401 2847 
Q 1972 2075 1738 1259 
Q 1569 684 1522 0 
L 944 0 
Q 953 541 1156 1306 
Q 1359 2072 1739 2783 
Q 2119 3494 2547 3981 
L 303 3981 
z
" id="ArialMT-37" transform="scale(0.015625)"/>
      <path d="M 266 1200 
L 856 1250 
Q 922 819 1161 601 
Q 1400 384 1738 384 
Q 2144 384 2425 690 
Q 2706 997 2706 1503 
Q 2706 1984 2436 2262 
Q 2166 2541 1728 2541 
Q 1456 2541 1237 2417 
Q 1019 2294 894 2097 
L 366 2166 
L 809 4519 
L 3088 4519 
L 3088 3981 
L 1259 3981 
L 1013 2750 
Q 1425 3038 1878 3038 
Q 2478 3038 2890 2622 
Q 3303 2206 3303 1553 
Q 3303 931 2941 478 
Q 2500 -78 1738 -78 
Q 1113 -78 717 272 
Q 322 622 266 1200 
z
" id="ArialMT-35" transform="scale(0.015625)"/>
     </defs>
     <use xlink:href="#ArialMT-37"/>
     <use x="55.615234" xlink:href="#ArialMT-35"/>
    </g>
   </g>
   <g id="text_5">
    <!-- 7 -->
    <g transform="translate(178.082878 200.420703)scale(0.22 -0.22)">
     <use xlink:href="#ArialMT-37"/>
    </g>
   </g>
   <g id="text_6">
    <!-- 2 -->
    <g transform="translate(282.00306 200.420703)scale(0.22 -0.22)">
     <defs>
      <path d="M 3222 541 
L 3222 0 
L 194 0 
Q 188 203 259 391 
Q 375 700 629 1000 
Q 884 1300 1366 1694 
Q 2113 2306 2375 2664 
Q 2638 3022 2638 3341 
Q 2638 3675 2398 3904 
Q 2159 4134 1775 4134 
Q 1369 4134 1125 3890 
Q 881 3647 878 3216 
L 300 3275 
Q 359 3922 746 4261 
Q 1134 4600 1788 4600 
Q 2447 4600 2831 4234 
Q 3216 3869 3216 3328 
Q 3216 3053 3103 2787 
Q 2991 2522 2730 2228 
Q 2469 1934 1863 1422 
Q 1356 997 1212 845 
Q 1069 694 975 541 
L 3222 541 
z
" id="ArialMT-32" transform="scale(0.015625)"/>
     </defs>
     <use xlink:href="#ArialMT-32"/>
    </g>
   </g>
   <g id="text_7">
    <!-- 15 -->
    <g transform="translate(223.925938 170.42153)scale(0.22 -0.22)">
     <use xlink:href="#ArialMT-31"/>
     <use x="55.615234" xlink:href="#ArialMT-35"/>
    </g>
   </g>
   <g id="text_8">
    <!-- srb10Δ  -->
    <g transform="translate(99.185268 41.862127)scale(0.18 -0.18)">
     <defs>
      <path d="M 197 991 
L 753 1078 
Q 800 744 1014 566 
Q 1228 388 1613 388 
Q 2000 388 2187 545 
Q 2375 703 2375 916 
Q 2375 1106 2209 1216 
Q 2094 1291 1634 1406 
Q 1016 1563 777 1677 
Q 538 1791 414 1992 
Q 291 2194 291 2438 
Q 291 2659 392 2848 
Q 494 3038 669 3163 
Q 800 3259 1026 3326 
Q 1253 3394 1513 3394 
Q 1903 3394 2198 3281 
Q 2494 3169 2634 2976 
Q 2775 2784 2828 2463 
L 2278 2388 
Q 2241 2644 2061 2787 
Q 1881 2931 1553 2931 
Q 1166 2931 1000 2803 
Q 834 2675 834 2503 
Q 834 2394 903 2306 
Q 972 2216 1119 2156 
Q 1203 2125 1616 2013 
Q 2213 1853 2448 1751 
Q 2684 1650 2818 1456 
Q 2953 1263 2953 975 
Q 2953 694 2789 445 
Q 2625 197 2315 61 
Q 2006 -75 1616 -75 
Q 969 -75 630 194 
Q 291 463 197 991 
z
" id="ArialMT-73" transform="scale(0.015625)"/>
      <path d="M 416 0 
L 416 3319 
L 922 3319 
L 922 2816 
Q 1116 3169 1280 3281 
Q 1444 3394 1641 3394 
Q 1925 3394 2219 3213 
L 2025 2691 
Q 1819 2813 1613 2813 
Q 1428 2813 1281 2702 
Q 1134 2591 1072 2394 
Q 978 2094 978 1738 
L 978 0 
L 416 0 
z
" id="ArialMT-72" transform="scale(0.015625)"/>
      <path d="M 941 0 
L 419 0 
L 419 4581 
L 981 4581 
L 981 2947 
Q 1338 3394 1891 3394 
Q 2197 3394 2470 3270 
Q 2744 3147 2920 2923 
Q 3097 2700 3197 2384 
Q 3297 2069 3297 1709 
Q 3297 856 2875 390 
Q 2453 -75 1863 -75 
Q 1275 -75 941 416 
L 941 0 
z
M 934 1684 
Q 934 1088 1097 822 
Q 1363 388 1816 388 
Q 2184 388 2453 708 
Q 2722 1028 2722 1663 
Q 2722 2313 2464 2622 
Q 2206 2931 1841 2931 
Q 1472 2931 1203 2611 
Q 934 2291 934 1684 
z
" id="ArialMT-62" transform="scale(0.015625)"/>
      <path d="M 266 2259 
Q 266 3072 433 3567 
Q 600 4063 929 4331 
Q 1259 4600 1759 4600 
Q 2128 4600 2406 4451 
Q 2684 4303 2865 4023 
Q 3047 3744 3150 3342 
Q 3253 2941 3253 2259 
Q 3253 1453 3087 958 
Q 2922 463 2592 192 
Q 2263 -78 1759 -78 
Q 1097 -78 719 397 
Q 266 969 266 2259 
z
M 844 2259 
Q 844 1131 1108 757 
Q 1372 384 1759 384 
Q 2147 384 2411 759 
Q 2675 1134 2675 2259 
Q 2675 3391 2411 3762 
Q 2147 4134 1753 4134 
Q 1366 4134 1134 3806 
Q 844 3388 844 2259 
z
" id="ArialMT-30" transform="scale(0.015625)"/>
      <path d="M -6 0 
L 1753 4581 
L 2406 4581 
L 4281 0 
L -6 0 
z
M 834 541 
L 3381 541 
L 2391 3150 
Q 2169 3738 2066 4100 
Q 1981 3675 1819 3225 
L 834 541 
z
" id="ArialMT-394" transform="scale(0.015625)"/>
      <path id="ArialMT-20" transform="scale(0.015625)"/>
     </defs>
     <use xlink:href="#ArialMT-73"/>
     <use x="50" xlink:href="#ArialMT-72"/>
     <use x="83.300781" xlink:href="#ArialMT-62"/>
     <use x="138.916016" xlink:href="#ArialMT-31"/>
     <use x="194.53125" xlink:href="#ArialMT-30"/>
     <use x="250.146484" xlink:href="#ArialMT-394"/>
     <use x="311.443359" xlink:href="#ArialMT-20"/>
    </g>
    <!-- (Linder et al., 2008) -->
    <g transform="translate(4.162143 61.163752)scale(0.18 -0.18)">
     <defs>
      <path d="M 1497 -1347 
Q 1031 -759 709 28 
Q 388 816 388 1659 
Q 388 2403 628 3084 
Q 909 3875 1497 4659 
L 1900 4659 
Q 1522 4009 1400 3731 
Q 1209 3300 1100 2831 
Q 966 2247 966 1656 
Q 966 153 1900 -1347 
L 1497 -1347 
z
" id="ArialMT-28" transform="scale(0.015625)"/>
      <path d="M 469 0 
L 469 4581 
L 1075 4581 
L 1075 541 
L 3331 541 
L 3331 0 
L 469 0 
z
" id="ArialMT-4c" transform="scale(0.015625)"/>
      <path d="M 425 3934 
L 425 4581 
L 988 4581 
L 988 3934 
L 425 3934 
z
M 425 0 
L 425 3319 
L 988 3319 
L 988 0 
L 425 0 
z
" id="ArialMT-69" transform="scale(0.015625)"/>
      <path d="M 422 0 
L 422 3319 
L 928 3319 
L 928 2847 
Q 1294 3394 1984 3394 
Q 2284 3394 2536 3286 
Q 2788 3178 2913 3003 
Q 3038 2828 3088 2588 
Q 3119 2431 3119 2041 
L 3119 0 
L 2556 0 
L 2556 2019 
Q 2556 2363 2490 2533 
Q 2425 2703 2258 2804 
Q 2091 2906 1866 2906 
Q 1506 2906 1245 2678 
Q 984 2450 984 1813 
L 984 0 
L 422 0 
z
" id="ArialMT-6e" transform="scale(0.015625)"/>
      <path d="M 2575 0 
L 2575 419 
Q 2259 -75 1647 -75 
Q 1250 -75 917 144 
Q 584 363 401 755 
Q 219 1147 219 1656 
Q 219 2153 384 2558 
Q 550 2963 881 3178 
Q 1213 3394 1622 3394 
Q 1922 3394 2156 3267 
Q 2391 3141 2538 2938 
L 2538 4581 
L 3097 4581 
L 3097 0 
L 2575 0 
z
M 797 1656 
Q 797 1019 1065 703 
Q 1334 388 1700 388 
Q 2069 388 2326 689 
Q 2584 991 2584 1609 
Q 2584 2291 2321 2609 
Q 2059 2928 1675 2928 
Q 1300 2928 1048 2622 
Q 797 2316 797 1656 
z
" id="ArialMT-64" transform="scale(0.015625)"/>
      <path d="M 2694 1069 
L 3275 997 
Q 3138 488 2766 206 
Q 2394 -75 1816 -75 
Q 1088 -75 661 373 
Q 234 822 234 1631 
Q 234 2469 665 2931 
Q 1097 3394 1784 3394 
Q 2450 3394 2872 2941 
Q 3294 2488 3294 1666 
Q 3294 1616 3291 1516 
L 816 1516 
Q 847 969 1125 678 
Q 1403 388 1819 388 
Q 2128 388 2347 550 
Q 2566 713 2694 1069 
z
M 847 1978 
L 2700 1978 
Q 2663 2397 2488 2606 
Q 2219 2931 1791 2931 
Q 1403 2931 1139 2672 
Q 875 2413 847 1978 
z
" id="ArialMT-65" transform="scale(0.015625)"/>
      <path d="M 1650 503 
L 1731 6 
Q 1494 -44 1306 -44 
Q 1000 -44 831 53 
Q 663 150 594 308 
Q 525 466 525 972 
L 525 2881 
L 113 2881 
L 113 3319 
L 525 3319 
L 525 4141 
L 1084 4478 
L 1084 3319 
L 1650 3319 
L 1650 2881 
L 1084 2881 
L 1084 941 
Q 1084 700 1114 631 
Q 1144 563 1211 522 
Q 1278 481 1403 481 
Q 1497 481 1650 503 
z
" id="ArialMT-74" transform="scale(0.015625)"/>
      <path d="M 2588 409 
Q 2275 144 1986 34 
Q 1697 -75 1366 -75 
Q 819 -75 525 192 
Q 231 459 231 875 
Q 231 1119 342 1320 
Q 453 1522 633 1644 
Q 813 1766 1038 1828 
Q 1203 1872 1538 1913 
Q 2219 1994 2541 2106 
Q 2544 2222 2544 2253 
Q 2544 2597 2384 2738 
Q 2169 2928 1744 2928 
Q 1347 2928 1158 2789 
Q 969 2650 878 2297 
L 328 2372 
Q 403 2725 575 2942 
Q 747 3159 1072 3276 
Q 1397 3394 1825 3394 
Q 2250 3394 2515 3294 
Q 2781 3194 2906 3042 
Q 3031 2891 3081 2659 
Q 3109 2516 3109 2141 
L 3109 1391 
Q 3109 606 3145 398 
Q 3181 191 3288 0 
L 2700 0 
Q 2613 175 2588 409 
z
M 2541 1666 
Q 2234 1541 1622 1453 
Q 1275 1403 1131 1340 
Q 988 1278 909 1158 
Q 831 1038 831 891 
Q 831 666 1001 516 
Q 1172 366 1500 366 
Q 1825 366 2078 508 
Q 2331 650 2450 897 
Q 2541 1088 2541 1459 
L 2541 1666 
z
" id="ArialMT-61" transform="scale(0.015625)"/>
      <path d="M 409 0 
L 409 4581 
L 972 4581 
L 972 0 
L 409 0 
z
" id="ArialMT-6c" transform="scale(0.015625)"/>
      <path d="M 581 0 
L 581 641 
L 1222 641 
L 1222 0 
L 581 0 
z
" id="ArialMT-2e" transform="scale(0.015625)"/>
      <path d="M 569 0 
L 569 641 
L 1209 641 
L 1209 0 
Q 1209 -353 1084 -570 
Q 959 -788 688 -906 
L 531 -666 
Q 709 -588 793 -436 
Q 878 -284 888 0 
L 569 0 
z
" id="ArialMT-2c" transform="scale(0.015625)"/>
      <path d="M 1131 2484 
Q 781 2613 612 2850 
Q 444 3088 444 3419 
Q 444 3919 803 4259 
Q 1163 4600 1759 4600 
Q 2359 4600 2725 4251 
Q 3091 3903 3091 3403 
Q 3091 3084 2923 2848 
Q 2756 2613 2416 2484 
Q 2838 2347 3058 2040 
Q 3278 1734 3278 1309 
Q 3278 722 2862 322 
Q 2447 -78 1769 -78 
Q 1091 -78 675 323 
Q 259 725 259 1325 
Q 259 1772 486 2073 
Q 713 2375 1131 2484 
z
M 1019 3438 
Q 1019 3113 1228 2906 
Q 1438 2700 1772 2700 
Q 2097 2700 2305 2904 
Q 2513 3109 2513 3406 
Q 2513 3716 2298 3927 
Q 2084 4138 1766 4138 
Q 1444 4138 1231 3931 
Q 1019 3725 1019 3438 
z
M 838 1322 
Q 838 1081 952 856 
Q 1066 631 1291 507 
Q 1516 384 1775 384 
Q 2178 384 2440 643 
Q 2703 903 2703 1303 
Q 2703 1709 2433 1975 
Q 2163 2241 1756 2241 
Q 1359 2241 1098 1978 
Q 838 1716 838 1322 
z
" id="ArialMT-38" transform="scale(0.015625)"/>
      <path d="M 791 -1347 
L 388 -1347 
Q 1322 153 1322 1656 
Q 1322 2244 1188 2822 
Q 1081 3291 891 3722 
Q 769 4003 388 4659 
L 791 4659 
Q 1378 3875 1659 3084 
Q 1900 2403 1900 1659 
Q 1900 816 1576 28 
Q 1253 -759 791 -1347 
z
" id="ArialMT-29" transform="scale(0.015625)"/>
     </defs>
     <use xlink:href="#ArialMT-28"/>
     <use x="33.300781" xlink:href="#ArialMT-4c"/>
     <use x="88.916016" xlink:href="#ArialMT-69"/>
     <use x="111.132812" xlink:href="#ArialMT-6e"/>
     <use x="166.748047" xlink:href="#ArialMT-64"/>
     <use x="222.363281" xlink:href="#ArialMT-65"/>
     <use x="277.978516" xlink:href="#ArialMT-72"/>
     <use x="311.279297" xlink:href="#ArialMT-20"/>
     <use x="339.0625" xlink:href="#ArialMT-65"/>
     <use x="394.677734" xlink:href="#ArialMT-74"/>
     <use x="422.460938" xlink:href="#ArialMT-20"/>
     <use x="450.244141" xlink:href="#ArialMT-61"/>
     <use x="505.859375" xlink:href="#ArialMT-6c"/>
     <use x="528.076172" xlink:href="#ArialMT-2e"/>
     <use x="555.859375" xlink:href="#ArialMT-2c"/>
     <use x="583.642578" xlink:href="#ArialMT-20"/>
     <use x="611.425781" xlink:href="#ArialMT-32"/>
     <use x="667.041016" xlink:href="#ArialMT-30"/>
     <use x="722.65625" xlink:href="#ArialMT-30"/>
     <use x="778.271484" xlink:href="#ArialMT-38"/>
     <use x="833.886719" xlink:href="#ArialMT-29"/>
    </g>
   </g>
   <g id="text_9">
    <!-- med12Δ  -->
    <g transform="translate(312.07817 41.862127)scale(0.18 -0.18)">
     <defs>
      <path d="M 422 0 
L 422 3319 
L 925 3319 
L 925 2853 
Q 1081 3097 1340 3245 
Q 1600 3394 1931 3394 
Q 2300 3394 2536 3241 
Q 2772 3088 2869 2813 
Q 3263 3394 3894 3394 
Q 4388 3394 4653 3120 
Q 4919 2847 4919 2278 
L 4919 0 
L 4359 0 
L 4359 2091 
Q 4359 2428 4304 2576 
Q 4250 2725 4106 2815 
Q 3963 2906 3769 2906 
Q 3419 2906 3187 2673 
Q 2956 2441 2956 1928 
L 2956 0 
L 2394 0 
L 2394 2156 
Q 2394 2531 2256 2718 
Q 2119 2906 1806 2906 
Q 1569 2906 1367 2781 
Q 1166 2656 1075 2415 
Q 984 2175 984 1722 
L 984 0 
L 422 0 
z
" id="ArialMT-6d" transform="scale(0.015625)"/>
     </defs>
     <use xlink:href="#ArialMT-6d"/>
     <use x="83.300781" xlink:href="#ArialMT-65"/>
     <use x="138.916016" xlink:href="#ArialMT-64"/>
     <use x="194.53125" xlink:href="#ArialMT-31"/>
     <use x="250.146484" xlink:href="#ArialMT-32"/>
     <use x="305.761719" xlink:href="#ArialMT-394"/>
     <use x="367.058594" xlink:href="#ArialMT-20"/>
    </g>
    <!-- (Linder et al., 2008) -->
    <g transform="translate(312.07817 61.163752)scale(0.18 -0.18)">
     <use xlink:href="#ArialMT-28"/>
     <use x="33.300781" xlink:href="#ArialMT-4c"/>
     <use x="88.916016" xlink:href="#ArialMT-69"/>
     <use x="111.132812" xlink:href="#ArialMT-6e"/>
     <use x="166.748047" xlink:href="#ArialMT-64"/>
     <use x="222.363281" xlink:href="#ArialMT-65"/>
     <use x="277.978516" xlink:href="#ArialMT-72"/>
     <use x="311.279297" xlink:href="#ArialMT-20"/>
     <use x="339.0625" xlink:href="#ArialMT-65"/>
     <use x="394.677734" xlink:href="#ArialMT-74"/>
     <use x="422.460938" xlink:href="#ArialMT-20"/>
     <use x="450.244141" xlink:href="#ArialMT-61"/>
     <use x="505.859375" xlink:href="#ArialMT-6c"/>
     <use x="528.076172" xlink:href="#ArialMT-2e"/>
     <use x="555.859375" xlink:href="#ArialMT-2c"/>
     <use x="583.642578" xlink:href="#ArialMT-20"/>
     <use x="611.425781" xlink:href="#ArialMT-32"/>
     <use x="667.041016" xlink:href="#ArialMT-30"/>
     <use x="722.65625" xlink:href="#ArialMT-30"/>
     <use x="778.271484" xlink:href="#ArialMT-38"/>
     <use x="833.886719" xlink:href="#ArialMT-29"/>
    </g>
   </g>
   <g id="text_10">
    <!-- truncated srb11 -->
    <g transform="translate(174.290625 309.174592)scale(0.18 -0.18)">
     <defs>
      <path d="M 2597 0 
L 2597 488 
Q 2209 -75 1544 -75 
Q 1250 -75 995 37 
Q 741 150 617 320 
Q 494 491 444 738 
Q 409 903 409 1263 
L 409 3319 
L 972 3319 
L 972 1478 
Q 972 1038 1006 884 
Q 1059 663 1231 536 
Q 1403 409 1656 409 
Q 1909 409 2131 539 
Q 2353 669 2445 892 
Q 2538 1116 2538 1541 
L 2538 3319 
L 3100 3319 
L 3100 0 
L 2597 0 
z
" id="ArialMT-75" transform="scale(0.015625)"/>
      <path d="M 2588 1216 
L 3141 1144 
Q 3050 572 2676 248 
Q 2303 -75 1759 -75 
Q 1078 -75 664 370 
Q 250 816 250 1647 
Q 250 2184 428 2587 
Q 606 2991 970 3192 
Q 1334 3394 1763 3394 
Q 2303 3394 2647 3120 
Q 2991 2847 3088 2344 
L 2541 2259 
Q 2463 2594 2264 2762 
Q 2066 2931 1784 2931 
Q 1359 2931 1093 2626 
Q 828 2322 828 1663 
Q 828 994 1084 691 
Q 1341 388 1753 388 
Q 2084 388 2306 591 
Q 2528 794 2588 1216 
z
" id="ArialMT-63" transform="scale(0.015625)"/>
     </defs>
     <use xlink:href="#ArialMT-74"/>
     <use x="27.783203" xlink:href="#ArialMT-72"/>
     <use x="61.083984" xlink:href="#ArialMT-75"/>
     <use x="116.699219" xlink:href="#ArialMT-6e"/>
     <use x="172.314453" xlink:href="#ArialMT-63"/>
     <use x="222.314453" xlink:href="#ArialMT-61"/>
     <use x="277.929688" xlink:href="#ArialMT-74"/>
     <use x="305.712891" xlink:href="#ArialMT-65"/>
     <use x="361.328125" xlink:href="#ArialMT-64"/>
     <use x="416.943359" xlink:href="#ArialMT-20"/>
     <use x="444.726562" xlink:href="#ArialMT-73"/>
     <use x="494.726562" xlink:href="#ArialMT-72"/>
     <use x="528.027344" xlink:href="#ArialMT-62"/>
     <use x="583.642578" xlink:href="#ArialMT-31"/>
     <use x="631.882812" xlink:href="#ArialMT-31"/>
    </g>
   </g>
   <g id="text_11">
    <!-- SPAC4H3.08 -->
    <g transform="translate(354.310509 85.96718)scale(0.13 -0.13)">
     <defs>
      <path d="M 450 1481 
L 1050 1538 
L 1044 1378 
Q 1044 1113 1166 892 
Q 1288 672 1569 551 
Q 1850 431 2238 431 
Q 2788 431 3077 672 
Q 3366 913 3366 1222 
Q 3366 1438 3213 1616 
Q 3056 1791 2359 2091 
Q 1819 2325 1622 2450 
Q 1313 2653 1166 2892 
Q 1019 3131 1019 3438 
Q 1019 3791 1212 4075 
Q 1406 4359 1779 4509 
Q 2153 4659 2622 4659 
Q 3181 4659 3565 4471 
Q 3950 4284 4123 3971 
Q 4297 3659 4297 3375 
Q 4297 3347 4294 3281 
L 3703 3234 
Q 3703 3428 3669 3538 
Q 3606 3728 3475 3859 
Q 3344 3991 3114 4070 
Q 2884 4150 2600 4150 
Q 2100 4150 1822 3925 
Q 1609 3753 1609 3469 
Q 1609 3300 1696 3167 
Q 1784 3034 2013 2906 
Q 2175 2816 2784 2547 
Q 3278 2328 3466 2203 
Q 3716 2038 3850 1802 
Q 3984 1566 3984 1266 
Q 3984 894 3757 580 
Q 3531 266 3131 94 
Q 2731 -78 2216 -78 
Q 1438 -78 945 261 
Q 453 600 450 1481 
z
" id="Arial-ItalicMT-53" transform="scale(0.015625)"/>
      <path d="M 275 0 
L 1234 4581 
L 3147 4581 
Q 3644 4581 3892 4467 
Q 4141 4353 4303 4076 
Q 4466 3800 4466 3456 
Q 4466 3172 4350 2878 
Q 4234 2584 4057 2393 
Q 3881 2203 3700 2106 
Q 3519 2009 3313 1963 
Q 2872 1859 2422 1859 
L 1275 1859 
L 888 0 
L 275 0 
z
M 1384 2378 
L 2394 2378 
Q 2981 2378 3256 2504 
Q 3531 2631 3697 2890 
Q 3863 3150 3863 3441 
Q 3863 3666 3775 3808 
Q 3688 3950 3528 4017 
Q 3369 4084 2916 4084 
L 1741 4084 
L 1384 2378 
z
" id="Arial-ItalicMT-50" transform="scale(0.015625)"/>
      <path d="M -128 0 
L 2469 4581 
L 3191 4581 
L 3947 0 
L 3353 0 
L 3131 1319 
L 1278 1319 
L 544 0 
L -128 0 
z
M 1541 1791 
L 3056 1791 
L 2878 2941 
Q 2775 3625 2750 4081 
Q 2594 3688 2294 3147 
L 1541 1791 
z
" id="Arial-ItalicMT-41" transform="scale(0.015625)"/>
      <path d="M 3859 1613 
L 4466 1528 
Q 4178 734 3628 328 
Q 3078 -78 2394 -78 
Q 1559 -78 1070 431 
Q 581 941 581 1891 
Q 581 3128 1325 3938 
Q 1988 4659 2972 4659 
Q 3700 4659 4151 4268 
Q 4603 3878 4675 3219 
L 4103 3166 
Q 4013 3663 3730 3908 
Q 3447 4153 3000 4153 
Q 2159 4153 1641 3406 
Q 1191 2763 1191 1878 
Q 1191 1172 1537 800 
Q 1884 428 2441 428 
Q 2916 428 3300 737 
Q 3684 1047 3859 1613 
z
" id="Arial-ItalicMT-43" transform="scale(0.015625)"/>
      <path d="M 1913 0 
L 2159 1169 
L 291 1169 
L 409 1728 
L 2975 4581 
L 3438 4581 
L 2828 1669 
L 3472 1669 
L 3369 1169 
L 2725 1169 
L 2478 0 
L 1913 0 
z
M 2263 1669 
L 2663 3581 
L 956 1669 
L 2263 1669 
z
" id="Arial-ItalicMT-34" transform="scale(0.015625)"/>
      <path d="M 269 0 
L 1228 4581 
L 1838 4581 
L 1441 2678 
L 3816 2678 
L 4213 4581 
L 4825 4581 
L 3869 0 
L 3256 0 
L 3706 2159 
L 1334 2159 
L 881 0 
L 269 0 
z
" id="Arial-ItalicMT-48" transform="scale(0.015625)"/>
      <path d="M 350 1200 
L 900 1269 
Q 963 788 1177 580 
Q 1391 372 1738 372 
Q 2156 372 2461 672 
Q 2766 972 2766 1359 
Q 2766 1697 2537 1917 
Q 2309 2138 1925 2138 
Q 1881 2138 1744 2125 
L 1841 2597 
Q 1922 2584 1997 2584 
Q 2481 2584 2742 2820 
Q 3003 3056 3003 3400 
Q 3003 3716 2789 3931 
Q 2575 4147 2266 4147 
Q 1963 4147 1720 3926 
Q 1478 3706 1409 3303 
L 853 3416 
Q 991 3981 1381 4290 
Q 1772 4600 2306 4600 
Q 2869 4600 3217 4259 
Q 3566 3919 3566 3422 
Q 3566 3059 3377 2789 
Q 3188 2519 2809 2341 
Q 3078 2181 3211 1956 
Q 3344 1731 3344 1441 
Q 3344 825 2883 373 
Q 2422 -78 1781 -78 
Q 1159 -78 776 270 
Q 394 619 350 1200 
z
" id="Arial-ItalicMT-33" transform="scale(0.015625)"/>
      <path d="M 369 0 
L 503 641 
L 1144 641 
L 1006 0 
L 369 0 
z
" id="Arial-ItalicMT-2e" transform="scale(0.015625)"/>
      <path d="M 453 1503 
Q 453 2084 626 2684 
Q 800 3284 1012 3643 
Q 1225 4003 1453 4206 
Q 1681 4409 1901 4504 
Q 2122 4600 2391 4600 
Q 2916 4600 3267 4209 
Q 3619 3819 3619 3081 
Q 3619 2322 3375 1578 
Q 3088 697 2575 256 
Q 2181 -78 1678 -78 
Q 1163 -78 808 326 
Q 453 731 453 1503 
z
M 1000 1359 
Q 1000 938 1141 700 
Q 1331 372 1706 372 
Q 2034 372 2303 669 
Q 2691 1088 2886 1895 
Q 3081 2703 3081 3216 
Q 3081 3709 2892 3928 
Q 2703 4147 2394 4147 
Q 2169 4147 1973 4031 
Q 1778 3916 1600 3634 
Q 1347 3238 1159 2447 
Q 1000 1772 1000 1359 
z
" id="Arial-ItalicMT-30" transform="scale(0.015625)"/>
      <path d="M 1444 2519 
Q 1188 2659 1059 2879 
Q 931 3100 931 3353 
Q 931 3769 1231 4122 
Q 1631 4600 2316 4600 
Q 2919 4600 3266 4276 
Q 3613 3953 3613 3484 
Q 3613 3150 3425 2881 
Q 3238 2613 2838 2453 
Q 3113 2281 3231 2088 
Q 3384 1834 3384 1497 
Q 3384 881 2948 400 
Q 2513 -81 1788 -81 
Q 1209 -81 843 275 
Q 478 631 478 1166 
Q 478 1669 737 2030 
Q 997 2391 1444 2519 
z
M 1488 3328 
Q 1488 3034 1677 2854 
Q 1866 2675 2197 2675 
Q 2584 2675 2826 2911 
Q 3069 3147 3069 3491 
Q 3069 3781 2880 3964 
Q 2691 4147 2359 4147 
Q 2109 4147 1900 4031 
Q 1691 3916 1589 3717 
Q 1488 3519 1488 3328 
z
M 1047 1119 
Q 1047 928 1139 753 
Q 1231 578 1418 475 
Q 1606 372 1847 372 
Q 2306 372 2591 803 
Q 2816 1141 2816 1531 
Q 2816 1850 2608 2053 
Q 2400 2256 2063 2256 
Q 1638 2256 1342 1940 
Q 1047 1625 1047 1119 
z
" id="Arial-ItalicMT-38" transform="scale(0.015625)"/>
     </defs>
     <use xlink:href="#Arial-ItalicMT-53"/>
     <use x="66.699219" xlink:href="#Arial-ItalicMT-50"/>
     <use x="126.023438" xlink:href="#Arial-ItalicMT-41"/>
     <use x="192.722656" xlink:href="#Arial-ItalicMT-43"/>
     <use x="264.939453" xlink:href="#Arial-ItalicMT-34"/>
     <use x="320.554688" xlink:href="#Arial-ItalicMT-48"/>
     <use x="392.771484" xlink:href="#Arial-ItalicMT-33"/>
     <use x="448.386719" xlink:href="#Arial-ItalicMT-2e"/>
     <use x="476.169922" xlink:href="#Arial-ItalicMT-30"/>
     <use x="531.785156" xlink:href="#Arial-ItalicMT-38"/>
    </g>
   </g>
   <g id="text_12">
    <!-- shu1 -->
    <g transform="translate(354.310509 97.782231)scale(0.13 -0.13)">
     <defs>
      <path d="M 266 1134 
L 831 1169 
Q 831 925 906 753 
Q 981 581 1182 472 
Q 1384 363 1653 363 
Q 2028 363 2215 513 
Q 2403 663 2403 866 
Q 2403 1013 2291 1144 
Q 2175 1275 1726 1467 
Q 1278 1659 1153 1738 
Q 944 1866 837 2039 
Q 731 2213 731 2438 
Q 731 2831 1043 3112 
Q 1356 3394 1919 3394 
Q 2544 3394 2870 3105 
Q 3197 2816 3209 2344 
L 2656 2306 
Q 2644 2606 2444 2781 
Q 2244 2956 1878 2956 
Q 1584 2956 1421 2822 
Q 1259 2688 1259 2531 
Q 1259 2375 1400 2256 
Q 1494 2175 1884 2006 
Q 2534 1725 2703 1563 
Q 2972 1303 2972 931 
Q 2972 684 2820 446 
Q 2669 209 2358 67 
Q 2047 -75 1625 -75 
Q 1050 -75 647 209 
Q 244 494 266 1134 
z
" id="Arial-ItalicMT-73" transform="scale(0.015625)"/>
      <path d="M 213 0 
L 1169 4581 
L 1734 4581 
L 1369 2822 
Q 1684 3128 1956 3261 
Q 2228 3394 2516 3394 
Q 2928 3394 3156 3176 
Q 3384 2959 3384 2603 
Q 3384 2428 3284 1959 
L 2875 0 
L 2309 0 
L 2731 2009 
Q 2822 2447 2822 2559 
Q 2822 2722 2709 2825 
Q 2597 2928 2384 2928 
Q 2078 2928 1800 2767 
Q 1522 2606 1364 2326 
Q 1206 2047 1075 1425 
L 778 0 
L 213 0 
z
" id="Arial-ItalicMT-68" transform="scale(0.015625)"/>
      <path d="M 2478 600 
Q 1881 -75 1256 -75 
Q 872 -75 636 145 
Q 400 366 400 684 
Q 400 894 506 1403 
L 906 3319 
L 1472 3319 
L 1028 1197 
Q 972 931 972 784 
Q 972 597 1086 492 
Q 1200 388 1422 388 
Q 1659 388 1886 503 
Q 2113 619 2277 816 
Q 2441 1013 2544 1281 
Q 2613 1453 2703 1884 
L 3003 3319 
L 3569 3319 
L 2875 0 
L 2353 0 
L 2478 600 
z
" id="Arial-ItalicMT-75" transform="scale(0.015625)"/>
      <path d="M 1541 0 
L 2266 3459 
Q 1797 3091 947 2869 
L 1053 3381 
Q 1475 3550 1886 3822 
Q 2297 4094 2503 4297 
Q 2628 4422 2741 4600 
L 3069 4600 
L 2109 0 
L 1541 0 
z
" id="Arial-ItalicMT-31" transform="scale(0.015625)"/>
     </defs>
     <use xlink:href="#Arial-ItalicMT-73"/>
     <use x="50" xlink:href="#Arial-ItalicMT-68"/>
     <use x="105.615234" xlink:href="#Arial-ItalicMT-75"/>
     <use x="161.230469" xlink:href="#Arial-ItalicMT-31"/>
    </g>
   </g>
   <g id="text_13">
    <!-- inv1 -->
    <g transform="translate(354.310509 109.597282)scale(0.13 -0.13)">
     <defs>
      <path d="M 1016 3941 
L 1150 4581 
L 1713 4581 
L 1578 3941 
L 1016 3941 
z
M 191 0 
L 884 3319 
L 1450 3319 
L 756 0 
L 191 0 
z
" id="Arial-ItalicMT-69" transform="scale(0.015625)"/>
      <path d="M 213 0 
L 906 3319 
L 1419 3319 
L 1297 2741 
Q 1631 3081 1922 3237 
Q 2213 3394 2516 3394 
Q 2919 3394 3148 3175 
Q 3378 2956 3378 2591 
Q 3378 2406 3297 2009 
L 2875 0 
L 2309 0 
L 2750 2103 
Q 2816 2409 2816 2556 
Q 2816 2722 2702 2825 
Q 2588 2928 2372 2928 
Q 1938 2928 1598 2615 
Q 1259 2303 1100 1544 
L 778 0 
L 213 0 
z
" id="Arial-ItalicMT-6e" transform="scale(0.015625)"/>
      <path d="M 1050 0 
L 506 3319 
L 1056 3319 
L 1341 1491 
Q 1388 1191 1456 513 
Q 1619 866 1872 1322 
L 2981 3319 
L 3578 3319 
L 1678 0 
L 1050 0 
z
" id="Arial-ItalicMT-76" transform="scale(0.015625)"/>
     </defs>
     <use xlink:href="#Arial-ItalicMT-69"/>
     <use x="22.216797" xlink:href="#Arial-ItalicMT-6e"/>
     <use x="77.832031" xlink:href="#Arial-ItalicMT-76"/>
     <use x="127.832031" xlink:href="#Arial-ItalicMT-31"/>
    </g>
   </g>
   <g id="text_14">
    <!-- spo6 -->
    <g transform="translate(354.310509 121.412333)scale(0.13 -0.13)">
     <defs>
      <path d="M -66 -1272 
L 894 3319 
L 1416 3319 
L 1319 2856 
Q 1609 3159 1839 3276 
Q 2069 3394 2325 3394 
Q 2800 3394 3112 3048 
Q 3425 2703 3425 2059 
Q 3425 1541 3253 1114 
Q 3081 688 2831 428 
Q 2581 169 2325 47 
Q 2069 -75 1800 -75 
Q 1203 -75 875 531 
L 500 -1272 
L -66 -1272 
z
M 1053 1356 
Q 1053 984 1106 841 
Q 1184 638 1362 513 
Q 1541 388 1775 388 
Q 2263 388 2563 936 
Q 2863 1484 2863 2056 
Q 2863 2478 2661 2708 
Q 2459 2938 2159 2938 
Q 1944 2938 1759 2823 
Q 1575 2709 1417 2482 
Q 1259 2256 1156 1928 
Q 1053 1600 1053 1356 
z
" id="Arial-ItalicMT-70" transform="scale(0.015625)"/>
      <path d="M 313 1259 
Q 313 2231 884 2869 
Q 1356 3394 2122 3394 
Q 2722 3394 3089 3019 
Q 3456 2644 3456 2006 
Q 3456 1434 3225 942 
Q 2994 450 2567 187 
Q 2141 -75 1669 -75 
Q 1281 -75 964 90 
Q 647 256 480 559 
Q 313 863 313 1259 
z
M 878 1316 
Q 878 847 1103 605 
Q 1328 363 1675 363 
Q 1856 363 2034 436 
Q 2213 509 2366 659 
Q 2519 809 2626 1001 
Q 2734 1194 2800 1416 
Q 2897 1725 2897 2009 
Q 2897 2459 2670 2707 
Q 2444 2956 2100 2956 
Q 1834 2956 1615 2829 
Q 1397 2703 1220 2459 
Q 1044 2216 961 1892 
Q 878 1569 878 1316 
z
" id="Arial-ItalicMT-6f" transform="scale(0.015625)"/>
      <path d="M 1288 2656 
Q 1525 2853 1761 2951 
Q 1997 3050 2228 3050 
Q 2750 3050 3090 2694 
Q 3431 2338 3431 1734 
Q 3431 956 2925 400 
Q 2488 -78 1863 -78 
Q 1294 -78 914 339 
Q 534 756 534 1528 
Q 534 2219 778 2956 
Q 966 3522 1242 3889 
Q 1519 4256 1830 4428 
Q 2141 4600 2531 4600 
Q 3000 4600 3297 4308 
Q 3594 4016 3634 3472 
L 3109 3422 
Q 3066 3794 2898 3959 
Q 2731 4125 2491 4125 
Q 2238 4125 1981 3928 
Q 1725 3731 1540 3345 
Q 1356 2959 1288 2656 
z
M 1091 1288 
Q 1091 900 1331 636 
Q 1572 372 1875 372 
Q 2088 372 2325 533 
Q 2563 694 2728 1022 
Q 2894 1350 2894 1675 
Q 2894 2094 2664 2345 
Q 2434 2597 2109 2597 
Q 1734 2597 1412 2230 
Q 1091 1863 1091 1288 
z
" id="Arial-ItalicMT-36" transform="scale(0.015625)"/>
     </defs>
     <use xlink:href="#Arial-ItalicMT-73"/>
     <use x="50" xlink:href="#Arial-ItalicMT-70"/>
     <use x="105.615234" xlink:href="#Arial-ItalicMT-6f"/>
     <use x="161.230469" xlink:href="#Arial-ItalicMT-36"/>
    </g>
   </g>
   <g id="text_15">
    <!-- pfl8 -->
    <g transform="translate(354.310509 133.227384)scale(0.13 -0.13)">
     <defs>
      <path d="M 291 0 
L 894 2881 
L 388 2881 
L 478 3319 
L 984 3319 
L 1081 3791 
Q 1156 4144 1236 4300 
Q 1316 4456 1495 4557 
Q 1675 4659 1984 4659 
Q 2200 4659 2609 4569 
L 2506 4075 
Q 2219 4150 2025 4150 
Q 1859 4150 1773 4067 
Q 1688 3984 1625 3675 
L 1550 3319 
L 2181 3319 
L 2091 2881 
L 1459 2881 
L 856 0 
L 291 0 
z
" id="Arial-ItalicMT-66" transform="scale(0.015625)"/>
      <path d="M 169 0 
L 1125 4581 
L 1691 4581 
L 734 0 
L 169 0 
z
" id="Arial-ItalicMT-6c" transform="scale(0.015625)"/>
     </defs>
     <use xlink:href="#Arial-ItalicMT-70"/>
     <use x="55.615234" xlink:href="#Arial-ItalicMT-66"/>
     <use x="83.398438" xlink:href="#Arial-ItalicMT-6c"/>
     <use x="105.615234" xlink:href="#Arial-ItalicMT-38"/>
    </g>
   </g>
   <g id="text_16">
    <!-- pfl8 -->
    <g style="fill:#ff0000;" transform="translate(354.310509 133.227384)scale(0.13 -0.13)">
     <use xlink:href="#Arial-ItalicMT-70"/>
     <use x="55.615234" xlink:href="#Arial-ItalicMT-66"/>
     <use x="83.398438" xlink:href="#Arial-ItalicMT-6c"/>
     <use x="105.615234" xlink:href="#Arial-ItalicMT-38"/>
    </g>
   </g>
   <g id="text_17">
    <!-- mbx2 -->
    <g transform="translate(354.310509 145.042435)scale(0.13 -0.13)">
     <defs>
      <path d="M 209 0 
L 903 3319 
L 1469 3319 
L 1353 2772 
Q 1669 3125 1917 3259 
Q 2166 3394 2456 3394 
Q 2766 3394 2973 3230 
Q 3181 3066 3247 2772 
Q 3500 3084 3779 3239 
Q 4059 3394 4369 3394 
Q 4784 3394 4992 3197 
Q 5200 3000 5200 2644 
Q 5200 2491 5128 2138 
L 4681 0 
L 4116 0 
L 4572 2194 
Q 4631 2463 4631 2578 
Q 4631 2741 4528 2834 
Q 4425 2928 4238 2928 
Q 3984 2928 3721 2775 
Q 3459 2622 3314 2373 
Q 3169 2125 3059 1609 
L 2722 0 
L 2156 0 
L 2625 2241 
Q 2675 2469 2675 2566 
Q 2675 2728 2573 2828 
Q 2472 2928 2309 2928 
Q 2069 2928 1805 2775 
Q 1541 2622 1375 2348 
Q 1209 2075 1103 1569 
L 775 0 
L 209 0 
z
" id="Arial-ItalicMT-6d" transform="scale(0.015625)"/>
      <path d="M 213 0 
L 1169 4581 
L 1734 4581 
L 1394 2944 
Q 1663 3191 1881 3292 
Q 2100 3394 2338 3394 
Q 2803 3394 3114 3047 
Q 3425 2700 3425 2038 
Q 3425 1597 3300 1231 
Q 3175 866 2990 617 
Q 2806 369 2609 220 
Q 2413 72 2206 -1 
Q 2000 -75 1809 -75 
Q 1481 -75 1231 98 
Q 981 272 841 628 
L 709 0 
L 213 0 
z
M 1050 1363 
L 1047 1256 
Q 1047 831 1250 609 
Q 1453 388 1756 388 
Q 2053 388 2301 595 
Q 2550 803 2709 1243 
Q 2869 1684 2869 2056 
Q 2869 2475 2667 2706 
Q 2466 2938 2169 2938 
Q 1863 2938 1606 2702 
Q 1350 2466 1178 1975 
Q 1050 1609 1050 1363 
z
" id="Arial-ItalicMT-62" transform="scale(0.015625)"/>
      <path d="M -9 0 
L 1434 1684 
L 606 3319 
L 1231 3319 
L 1513 2728 
Q 1669 2397 1794 2094 
L 2750 3319 
L 3441 3319 
L 2047 1641 
L 2884 0 
L 2259 0 
L 1928 675 
Q 1822 891 1688 1209 
L 700 0 
L -9 0 
z
" id="Arial-ItalicMT-78" transform="scale(0.015625)"/>
      <path d="M 375 0 
Q 463 409 617 686 
Q 772 963 1028 1211 
Q 1284 1459 2016 2044 
Q 2459 2397 2622 2566 
Q 2856 2809 2963 3044 
Q 3034 3203 3034 3391 
Q 3034 3706 2811 3926 
Q 2588 4147 2263 4147 
Q 1941 4147 1700 3923 
Q 1459 3700 1356 3206 
L 803 3288 
Q 884 3897 1276 4248 
Q 1669 4600 2253 4600 
Q 2644 4600 2961 4437 
Q 3278 4275 3437 3981 
Q 3597 3688 3597 3375 
Q 3597 2919 3272 2497 
Q 3072 2234 2097 1463 
Q 1678 1131 1473 918 
Q 1269 706 1166 519 
L 3216 519 
L 3106 0 
L 375 0 
z
" id="Arial-ItalicMT-32" transform="scale(0.015625)"/>
     </defs>
     <use xlink:href="#Arial-ItalicMT-6d"/>
     <use x="83.300781" xlink:href="#Arial-ItalicMT-62"/>
     <use x="138.916016" xlink:href="#Arial-ItalicMT-78"/>
     <use x="188.916016" xlink:href="#Arial-ItalicMT-32"/>
    </g>
   </g>
   <g id="text_18">
    <!-- mbx2 -->
    <g style="fill:#ff0000;" transform="translate(354.310509 145.042435)scale(0.13 -0.13)">
     <use xlink:href="#Arial-ItalicMT-6d"/>
     <use x="83.300781" xlink:href="#Arial-ItalicMT-62"/>
     <use x="138.916016" xlink:href="#Arial-ItalicMT-78"/>
     <use x="188.916016" xlink:href="#Arial-ItalicMT-32"/>
    </g>
   </g>
   <g id="text_19">
    <!-- SPAPB15E9.02c -->
    <g transform="translate(354.310509 156.857486)scale(0.13 -0.13)">
     <defs>
      <path d="M 278 0 
L 1238 4581 
L 2656 4581 
Q 3044 4581 3231 4550 
Q 3538 4497 3748 4364 
Q 3959 4231 4075 4001 
Q 4191 3772 4191 3494 
Q 4191 3116 3983 2828 
Q 3775 2541 3347 2391 
Q 3719 2269 3903 2023 
Q 4088 1778 4088 1450 
Q 4088 1072 3870 725 
Q 3653 378 3295 189 
Q 2938 0 2497 0 
L 278 0 
z
M 1441 2625 
L 2369 2625 
Q 3034 2625 3326 2837 
Q 3619 3050 3619 3456 
Q 3619 3650 3528 3790 
Q 3438 3931 3286 3995 
Q 3134 4059 2716 4059 
L 1741 4059 
L 1441 2625 
z
M 1000 519 
L 2044 519 
Q 2459 519 2603 547 
Q 2894 597 3075 717 
Q 3256 838 3359 1034 
Q 3463 1231 3463 1447 
Q 3463 1769 3261 1936 
Q 3059 2103 2494 2103 
L 1331 2103 
L 1000 519 
z
" id="Arial-ItalicMT-42" transform="scale(0.015625)"/>
      <path d="M 447 1309 
L 1022 1366 
Q 1016 1244 1016 1219 
Q 1016 1013 1120 803 
Q 1225 594 1404 483 
Q 1584 372 1784 372 
Q 2047 372 2319 553 
Q 2591 734 2759 1081 
Q 2928 1428 2928 1769 
Q 2928 2153 2701 2384 
Q 2475 2616 2106 2616 
Q 1859 2616 1639 2497 
Q 1419 2378 1228 2141 
L 734 2175 
L 1425 4519 
L 3663 4519 
L 3553 4000 
L 1813 4000 
L 1469 2834 
Q 1663 2975 1867 3045 
Q 2072 3116 2288 3116 
Q 2813 3116 3150 2769 
Q 3488 2422 3488 1819 
Q 3488 1291 3256 845 
Q 3025 400 2620 161 
Q 2216 -78 1747 -78 
Q 1353 -78 1050 100 
Q 747 278 595 590 
Q 444 903 444 1216 
Q 444 1247 447 1309 
z
" id="Arial-ItalicMT-35" transform="scale(0.015625)"/>
      <path d="M 288 0 
L 1247 4581 
L 4553 4581 
L 4444 4059 
L 1750 4059 
L 1450 2634 
L 4075 2634 
L 3966 2113 
L 1341 2113 
L 1009 519 
L 3894 519 
L 3784 0 
L 288 0 
z
" id="Arial-ItalicMT-45" transform="scale(0.015625)"/>
      <path d="M 431 1050 
L 963 1103 
Q 1016 719 1181 556 
Q 1347 394 1575 394 
Q 1900 394 2178 675 
Q 2588 1088 2781 1859 
Q 2497 1647 2276 1556 
Q 2056 1466 1825 1466 
Q 1406 1466 1075 1747 
Q 638 2113 638 2797 
Q 638 3572 1144 4125 
Q 1578 4600 2209 4600 
Q 2778 4600 3153 4179 
Q 3528 3759 3528 2991 
Q 3528 2244 3278 1516 
Q 2981 659 2475 253 
Q 2063 -78 1547 -78 
Q 1072 -78 770 217 
Q 469 513 431 1050 
z
M 1184 2863 
Q 1184 2431 1414 2175 
Q 1644 1919 1959 1919 
Q 2194 1919 2425 2078 
Q 2656 2238 2822 2555 
Q 2988 2872 2988 3206 
Q 2988 3469 2878 3694 
Q 2769 3919 2580 4033 
Q 2391 4147 2197 4147 
Q 2009 4147 1828 4047 
Q 1647 3947 1492 3753 
Q 1338 3559 1261 3307 
Q 1184 3056 1184 2863 
z
" id="Arial-ItalicMT-39" transform="scale(0.015625)"/>
      <path d="M 2503 1209 
L 3069 1150 
Q 2856 528 2464 226 
Q 2072 -75 1572 -75 
Q 1031 -75 695 275 
Q 359 625 359 1253 
Q 359 1797 575 2322 
Q 791 2847 1192 3120 
Q 1594 3394 2109 3394 
Q 2644 3394 2956 3092 
Q 3269 2791 3269 2294 
L 2713 2256 
Q 2709 2572 2529 2750 
Q 2350 2928 2056 2928 
Q 1716 2928 1466 2712 
Q 1216 2497 1073 2058 
Q 931 1619 931 1213 
Q 931 788 1118 575 
Q 1306 363 1581 363 
Q 1856 363 2107 572 
Q 2359 781 2503 1209 
z
" id="Arial-ItalicMT-63" transform="scale(0.015625)"/>
     </defs>
     <use xlink:href="#Arial-ItalicMT-53"/>
     <use x="66.699219" xlink:href="#Arial-ItalicMT-50"/>
     <use x="126.023438" xlink:href="#Arial-ItalicMT-41"/>
     <use x="192.722656" xlink:href="#Arial-ItalicMT-50"/>
     <use x="259.421875" xlink:href="#Arial-ItalicMT-42"/>
     <use x="326.121094" xlink:href="#Arial-ItalicMT-31"/>
     <use x="381.736328" xlink:href="#Arial-ItalicMT-35"/>
     <use x="437.351562" xlink:href="#Arial-ItalicMT-45"/>
     <use x="504.050781" xlink:href="#Arial-ItalicMT-39"/>
     <use x="559.666016" xlink:href="#Arial-ItalicMT-2e"/>
     <use x="587.449219" xlink:href="#Arial-ItalicMT-30"/>
     <use x="643.064453" xlink:href="#Arial-ItalicMT-32"/>
     <use x="698.679688" xlink:href="#Arial-ItalicMT-63"/>
    </g>
   </g>
   <g id="text_20">
    <!-- pfl9 -->
    <g transform="translate(354.310509 168.672537)scale(0.13 -0.13)">
     <use xlink:href="#Arial-ItalicMT-70"/>
     <use x="55.615234" xlink:href="#Arial-ItalicMT-66"/>
     <use x="83.398438" xlink:href="#Arial-ItalicMT-6c"/>
     <use x="105.615234" xlink:href="#Arial-ItalicMT-39"/>
    </g>
   </g>
   <g id="text_21">
    <!-- pfl9 -->
    <g style="fill:#ff0000;" transform="translate(354.310509 168.672537)scale(0.13 -0.13)">
     <use xlink:href="#Arial-ItalicMT-70"/>
     <use x="55.615234" xlink:href="#Arial-ItalicMT-66"/>
     <use x="83.398438" xlink:href="#Arial-ItalicMT-6c"/>
     <use x="105.615234" xlink:href="#Arial-ItalicMT-39"/>
    </g>
   </g>
   <g id="text_22">
    <!-- gsf2 -->
    <g transform="translate(354.310509 180.487588)scale(0.13 -0.13)">
     <defs>
      <path d="M 181 -300 
L 753 -353 
Q 747 -547 800 -644 
Q 853 -741 969 -794 
Q 1122 -863 1366 -863 
Q 1878 -863 2103 -597 
Q 2250 -419 2375 178 
L 2431 447 
Q 1991 0 1494 0 
Q 991 0 652 370 
Q 313 741 313 1419 
Q 313 1978 580 2447 
Q 847 2916 1215 3155 
Q 1584 3394 1975 3394 
Q 2628 3394 2981 2775 
L 3094 3319 
L 3613 3319 
L 2944 116 
Q 2834 -413 2656 -708 
Q 2478 -1003 2161 -1165 
Q 1844 -1328 1428 -1328 
Q 1028 -1328 739 -1225 
Q 450 -1122 308 -923 
Q 166 -725 166 -469 
Q 166 -391 181 -300 
z
M 888 1469 
Q 888 1128 953 956 
Q 1047 716 1220 589 
Q 1394 463 1606 463 
Q 1884 463 2159 658 
Q 2434 853 2604 1262 
Q 2775 1672 2775 2044 
Q 2775 2453 2548 2695 
Q 2322 2938 1988 2938 
Q 1781 2938 1587 2827 
Q 1394 2716 1226 2489 
Q 1059 2263 973 1947 
Q 888 1631 888 1469 
z
" id="Arial-ItalicMT-67" transform="scale(0.015625)"/>
     </defs>
     <use xlink:href="#Arial-ItalicMT-67"/>
     <use x="55.615234" xlink:href="#Arial-ItalicMT-73"/>
     <use x="105.615234" xlink:href="#Arial-ItalicMT-66"/>
     <use x="133.398438" xlink:href="#Arial-ItalicMT-32"/>
    </g>
   </g>
   <g id="text_23">
    <!-- gsf2 -->
    <g style="fill:#ff0000;" transform="translate(354.310509 180.487588)scale(0.13 -0.13)">
     <use xlink:href="#Arial-ItalicMT-67"/>
     <use x="55.615234" xlink:href="#Arial-ItalicMT-73"/>
     <use x="105.615234" xlink:href="#Arial-ItalicMT-66"/>
     <use x="133.398438" xlink:href="#Arial-ItalicMT-32"/>
    </g>
   </g>
   <g id="text_24">
    <!-- SPAC56F8.13 -->
    <g transform="translate(354.310509 192.302639)scale(0.13 -0.13)">
     <defs>
      <path d="M 291 0 
L 1247 4581 
L 4225 4581 
L 4116 4059 
L 1750 4059 
L 1447 2600 
L 3856 2600 
L 3747 2078 
L 1338 2078 
L 903 0 
L 291 0 
z
" id="Arial-ItalicMT-46" transform="scale(0.015625)"/>
     </defs>
     <use xlink:href="#Arial-ItalicMT-53"/>
     <use x="66.699219" xlink:href="#Arial-ItalicMT-50"/>
     <use x="126.023438" xlink:href="#Arial-ItalicMT-41"/>
     <use x="192.722656" xlink:href="#Arial-ItalicMT-43"/>
     <use x="264.939453" xlink:href="#Arial-ItalicMT-35"/>
     <use x="320.554688" xlink:href="#Arial-ItalicMT-36"/>
     <use x="376.169922" xlink:href="#Arial-ItalicMT-46"/>
     <use x="437.253906" xlink:href="#Arial-ItalicMT-38"/>
     <use x="492.869141" xlink:href="#Arial-ItalicMT-2e"/>
     <use x="520.652344" xlink:href="#Arial-ItalicMT-31"/>
     <use x="576.267578" xlink:href="#Arial-ItalicMT-33"/>
    </g>
   </g>
   <g id="text_25">
    <!-- frg1 -->
    <g transform="translate(354.310509 204.117689)scale(0.13 -0.13)">
     <defs>
      <path d="M 213 0 
L 906 3319 
L 1406 3319 
L 1266 2641 
Q 1522 3025 1767 3209 
Q 2013 3394 2269 3394 
Q 2438 3394 2684 3272 
L 2453 2747 
Q 2306 2853 2131 2853 
Q 1834 2853 1521 2522 
Q 1209 2191 1031 1331 
L 750 0 
L 213 0 
z
" id="Arial-ItalicMT-72" transform="scale(0.015625)"/>
     </defs>
     <use xlink:href="#Arial-ItalicMT-66"/>
     <use x="27.783203" xlink:href="#Arial-ItalicMT-72"/>
     <use x="61.083984" xlink:href="#Arial-ItalicMT-67"/>
     <use x="116.699219" xlink:href="#Arial-ItalicMT-31"/>
    </g>
   </g>
   <g id="text_26">
    <!-- psu2 -->
    <g transform="translate(354.310509 215.93274)scale(0.13 -0.13)">
     <use xlink:href="#Arial-ItalicMT-70"/>
     <use x="55.615234" xlink:href="#Arial-ItalicMT-73"/>
     <use x="105.615234" xlink:href="#Arial-ItalicMT-75"/>
     <use x="161.230469" xlink:href="#Arial-ItalicMT-32"/>
    </g>
   </g>
   <g id="text_27">
    <!-- SPAC27D7.09c -->
    <g transform="translate(354.310509 227.747791)scale(0.13 -0.13)">
     <defs>
      <path d="M 928 0 
Q 1003 463 1247 1113 
Q 1538 1897 2009 2670 
Q 2481 3444 3059 4000 
L 775 4000 
L 884 4519 
L 3809 4519 
L 3703 4000 
Q 2959 3347 2403 2316 
Q 1756 1125 1519 0 
L 928 0 
z
" id="Arial-ItalicMT-37" transform="scale(0.015625)"/>
      <path d="M 284 0 
L 1241 4581 
L 2622 4581 
Q 3119 4581 3381 4509 
Q 3756 4413 4022 4164 
Q 4288 3916 4422 3544 
Q 4556 3172 4556 2709 
Q 4556 2156 4389 1701 
Q 4222 1247 3951 901 
Q 3681 556 3386 361 
Q 3091 166 2688 72 
Q 2381 0 1934 0 
L 284 0 
z
M 1006 519 
L 1731 519 
Q 2222 519 2603 609 
Q 2841 666 3009 775 
Q 3231 916 3413 1147 
Q 3650 1453 3792 1845 
Q 3934 2238 3934 2738 
Q 3934 3294 3740 3592 
Q 3547 3891 3247 3988 
Q 3025 4059 2556 4059 
L 1747 4059 
L 1006 519 
z
" id="Arial-ItalicMT-44" transform="scale(0.015625)"/>
     </defs>
     <use xlink:href="#Arial-ItalicMT-53"/>
     <use x="66.699219" xlink:href="#Arial-ItalicMT-50"/>
     <use x="126.023438" xlink:href="#Arial-ItalicMT-41"/>
     <use x="192.722656" xlink:href="#Arial-ItalicMT-43"/>
     <use x="264.939453" xlink:href="#Arial-ItalicMT-32"/>
     <use x="320.554688" xlink:href="#Arial-ItalicMT-37"/>
     <use x="376.169922" xlink:href="#Arial-ItalicMT-44"/>
     <use x="448.386719" xlink:href="#Arial-ItalicMT-37"/>
     <use x="504.001953" xlink:href="#Arial-ItalicMT-2e"/>
     <use x="531.785156" xlink:href="#Arial-ItalicMT-30"/>
     <use x="587.400391" xlink:href="#Arial-ItalicMT-39"/>
     <use x="643.015625" xlink:href="#Arial-ItalicMT-63"/>
    </g>
   </g>
   <g id="text_28">
    <!-- SPAPB24D3.07c -->
    <g transform="translate(354.310509 239.562842)scale(0.13 -0.13)">
     <use xlink:href="#Arial-ItalicMT-53"/>
     <use x="66.699219" xlink:href="#Arial-ItalicMT-50"/>
     <use x="126.023438" xlink:href="#Arial-ItalicMT-41"/>
     <use x="192.722656" xlink:href="#Arial-ItalicMT-50"/>
     <use x="259.421875" xlink:href="#Arial-ItalicMT-42"/>
     <use x="326.121094" xlink:href="#Arial-ItalicMT-32"/>
     <use x="381.736328" xlink:href="#Arial-ItalicMT-34"/>
     <use x="437.351562" xlink:href="#Arial-ItalicMT-44"/>
     <use x="509.568359" xlink:href="#Arial-ItalicMT-33"/>
     <use x="565.183594" xlink:href="#Arial-ItalicMT-2e"/>
     <use x="592.966797" xlink:href="#Arial-ItalicMT-30"/>
     <use x="648.582031" xlink:href="#Arial-ItalicMT-37"/>
     <use x="704.197266" xlink:href="#Arial-ItalicMT-63"/>
    </g>
   </g>
   <g id="text_29">
    <!-- pfl3 -->
    <g transform="translate(354.310509 251.377893)scale(0.13 -0.13)">
     <use xlink:href="#Arial-ItalicMT-70"/>
     <use x="55.615234" xlink:href="#Arial-ItalicMT-66"/>
     <use x="83.398438" xlink:href="#Arial-ItalicMT-6c"/>
     <use x="105.615234" xlink:href="#Arial-ItalicMT-33"/>
    </g>
   </g>
   <g id="text_30">
    <!-- pfl3 -->
    <g style="fill:#ff0000;" transform="translate(354.310509 251.377893)scale(0.13 -0.13)">
     <use xlink:href="#Arial-ItalicMT-70"/>
     <use x="55.615234" xlink:href="#Arial-ItalicMT-66"/>
     <use x="83.398438" xlink:href="#Arial-ItalicMT-6c"/>
     <use x="105.615234" xlink:href="#Arial-ItalicMT-33"/>
    </g>
   </g>
  </g>
 </g>
 <defs>
  <clipPath id="pf2f5d094fa">
   <rect height="266.112" width="275.20265" x="98.558675" y="41.472"/>
  </clipPath>
 </defs>
</svg>
