<?xml version="1.0" encoding="utf-8" standalone="no"?>
<!DOCTYPE svg PUBLIC "-//W3C//DTD SVG 1.1//EN"
  "http://www.w3.org/Graphics/SVG/1.1/DTD/svg11.dtd">
<svg height="571.142661pt" version="1.1" viewBox="0 0 880.411931 571.142661" width="880.411931pt" xmlns="http://www.w3.org/2000/svg" xmlns:xlink="http://www.w3.org/1999/xlink">
 <metadata>
  <rdf:RDF xmlns:cc="http://creativecommons.org/ns#" xmlns:dc="http://purl.org/dc/elements/1.1/" xmlns:rdf="http://www.w3.org/1999/02/22-rdf-syntax-ns#">
   <cc:Work>
    <dc:type rdf:resource="http://purl.org/dc/dcmitype/StillImage"/>
    <dc:date>2023-08-23T20:02:03.221261</dc:date>
    <dc:format>image/svg+xml</dc:format>
    <dc:creator>
     <cc:Agent>
      <dc:title>Matplotlib v3.4.3, https://matplotlib.org/</dc:title>
     </cc:Agent>
    </dc:creator>
   </cc:Work>
  </rdf:RDF>
 </metadata>
 <defs>
  <style type="text/css">*{stroke-linecap:butt;stroke-linejoin:round;}</style>
 </defs>
 <g id="figure_1">
  <g id="patch_1">
   <path d="M 0 571.142661 
L 880.411931 571.142661 
L 880.411931 0 
L 0 0 
z
" style="fill:#ffffff;"/>
  </g>
  <g id="axes_1">
   <g id="patch_2">
    <path clip-path="url(#pcab751996c)" d="M 448.457841 76.375626 
C 410.056333 59.417106 366.70795 57.243867 326.802857 70.276545 
C 286.897763 83.309222 253.188088 110.648993 232.198404 147.004191 
C 211.208721 183.359388 204.386623 226.222709 213.05254 267.297872 
C 221.718457 308.373036 245.274729 344.827217 279.161992 369.604638 
C 275.947912 339.889222 280.613409 309.844799 292.687643 282.503453 
C 304.761876 255.162108 323.824527 231.475623 347.951792 213.83444 
C 351.165872 184.119024 362.147644 155.767041 379.788827 131.639776 
C 397.43001 107.512511 421.116495 88.449859 448.457841 76.375626 
" style="fill:#678aec;opacity:0.4;stroke:#000000;stroke-linejoin:miter;"/>
   </g>
   <g id="patch_3">
    <path clip-path="url(#pcab751996c)" d="M 448.457841 76.375626 
C 475.799186 88.449859 499.485671 107.512511 517.126854 131.639776 
C 534.768037 155.767041 545.749809 184.119024 548.963889 213.83444 
C 573.091154 231.475623 592.153806 255.162108 604.228039 282.503453 
C 616.302272 309.844799 620.96777 339.889222 617.75369 369.604638 
C 651.640953 344.827217 675.197224 308.373036 683.863141 267.297872 
C 692.529058 226.222709 685.70696 183.359388 664.717277 147.004191 
C 643.727594 110.648993 610.017919 83.309222 570.112825 70.276545 
C 530.207731 57.243867 486.859348 59.417106 448.457841 76.375626 
" style="fill:#1057cb;opacity:0.4;stroke:#000000;stroke-linejoin:miter;"/>
   </g>
   <g id="patch_4">
    <path clip-path="url(#pcab751996c)" d="M 448.457841 76.375626 
C 421.116495 88.449859 397.43001 107.512511 379.788827 131.639776 
C 362.147644 155.767041 351.165872 184.119024 347.951792 213.83444 
C 377.117646 192.509182 412.327331 181.009986 448.457841 181.009986 
C 484.58835 181.009986 519.798035 192.509182 548.963889 213.83444 
C 545.749809 184.119024 534.768037 155.767041 517.126854 131.639776 
C 499.485671 107.512511 475.799186 88.449859 448.457841 76.375626 
" style="fill:#0d05bd;opacity:0.4;stroke:#000000;stroke-linejoin:miter;"/>
   </g>
   <g id="patch_5">
    <path clip-path="url(#pcab751996c)" d="M 279.161992 369.604638 
C 283.676236 411.34058 303.468348 449.968 334.707524 478.010486 
C 365.946701 506.052972 406.478474 521.576522 448.457841 521.576522 
C 490.437207 521.576522 530.96898 506.052972 562.208157 478.010486 
C 593.447334 449.968 613.239445 411.34058 617.75369 369.604638 
C 593.626425 387.245821 565.274442 398.227593 535.559026 401.441673 
C 505.843609 404.655753 475.799186 399.990256 448.457841 387.916023 
C 421.116495 399.990256 391.072072 404.655753 361.356656 401.441673 
C 331.64124 398.227593 303.289257 387.245821 279.161992 369.604638 
" style="fill:#7787fb;opacity:0.4;stroke:#000000;stroke-linejoin:miter;"/>
   </g>
   <g id="patch_6">
    <path clip-path="url(#pcab751996c)" d="M 279.161992 369.604638 
C 303.289257 387.245821 331.64124 398.227593 361.356656 401.441673 
C 391.072072 404.655753 421.116495 399.990256 448.457841 387.916023 
C 415.406698 373.320281 387.84326 348.577397 369.778005 317.287458 
C 351.712751 285.997519 344.066504 249.75544 347.951792 213.83444 
C 323.824527 231.475623 304.761876 255.162108 292.687643 282.503453 
C 280.613409 309.844799 275.947912 339.889222 279.161992 369.604638 
" style="fill:#1c0c7c;opacity:0.4;stroke:#000000;stroke-linejoin:miter;"/>
   </g>
   <g id="patch_7">
    <path clip-path="url(#pcab751996c)" d="M 548.963889 213.83444 
C 552.849178 249.75544 545.202931 285.997519 527.137676 317.287458 
C 509.072421 348.577397 481.508983 373.320281 448.457841 387.916023 
C 475.799186 399.990256 505.843609 404.655753 535.559026 401.441673 
C 565.274442 398.227593 593.626425 387.245821 617.75369 369.604638 
C 620.96777 339.889222 616.302272 309.844799 604.228039 282.503453 
C 592.153806 255.162108 573.091154 231.475623 548.963889 213.83444 
" style="fill:#421cec;opacity:0.4;stroke:#000000;stroke-linejoin:miter;"/>
   </g>
   <g id="patch_8">
    <path clip-path="url(#pcab751996c)" d="M 347.951792 213.83444 
C 344.066504 249.75544 351.712751 285.997519 369.778005 317.287458 
C 387.84326 348.577397 415.406698 373.320281 448.457841 387.916023 
C 481.508983 373.320281 509.072421 348.577397 527.137676 317.287458 
C 545.202931 285.997519 552.849178 249.75544 548.963889 213.83444 
C 519.798035 192.509182 484.58835 181.009986 448.457841 181.009986 
C 412.327331 181.009986 377.117646 192.509182 347.951792 213.83444 
" style="fill:#4c2cf4;opacity:0.4;stroke:#000000;stroke-linejoin:miter;"/>
   </g>
   <g id="text_1">
    <!-- 631 -->
    <g transform="translate(596.290917 179.817897)scale(0.3 -0.3)">
     <defs>
      <path d="M 3184 3459 
L 2625 3416 
Q 2550 3747 2413 3897 
Q 2184 4138 1850 4138 
Q 1581 4138 1378 3988 
Q 1113 3794 959 3422 
Q 806 3050 800 2363 
Q 1003 2672 1297 2822 
Q 1591 2972 1913 2972 
Q 2475 2972 2870 2558 
Q 3266 2144 3266 1488 
Q 3266 1056 3080 686 
Q 2894 316 2569 119 
Q 2244 -78 1831 -78 
Q 1128 -78 684 439 
Q 241 956 241 2144 
Q 241 3472 731 4075 
Q 1159 4600 1884 4600 
Q 2425 4600 2770 4297 
Q 3116 3994 3184 3459 
z
M 888 1484 
Q 888 1194 1011 928 
Q 1134 663 1356 523 
Q 1578 384 1822 384 
Q 2178 384 2434 671 
Q 2691 959 2691 1453 
Q 2691 1928 2437 2201 
Q 2184 2475 1800 2475 
Q 1419 2475 1153 2201 
Q 888 1928 888 1484 
z
" id="ArialMT-36" transform="scale(0.015625)"/>
      <path d="M 269 1209 
L 831 1284 
Q 928 806 1161 595 
Q 1394 384 1728 384 
Q 2125 384 2398 659 
Q 2672 934 2672 1341 
Q 2672 1728 2419 1979 
Q 2166 2231 1775 2231 
Q 1616 2231 1378 2169 
L 1441 2663 
Q 1497 2656 1531 2656 
Q 1891 2656 2178 2843 
Q 2466 3031 2466 3422 
Q 2466 3731 2256 3934 
Q 2047 4138 1716 4138 
Q 1388 4138 1169 3931 
Q 950 3725 888 3313 
L 325 3413 
Q 428 3978 793 4289 
Q 1159 4600 1703 4600 
Q 2078 4600 2393 4439 
Q 2709 4278 2876 4000 
Q 3044 3722 3044 3409 
Q 3044 3113 2884 2869 
Q 2725 2625 2413 2481 
Q 2819 2388 3044 2092 
Q 3269 1797 3269 1353 
Q 3269 753 2831 336 
Q 2394 -81 1725 -81 
Q 1122 -81 723 278 
Q 325 638 269 1209 
z
" id="ArialMT-33" transform="scale(0.015625)"/>
      <path d="M 2384 0 
L 1822 0 
L 1822 3584 
Q 1619 3391 1289 3197 
Q 959 3003 697 2906 
L 697 3450 
Q 1169 3672 1522 3987 
Q 1875 4303 2022 4600 
L 2384 4600 
L 2384 0 
z
" id="ArialMT-31" transform="scale(0.015625)"/>
     </defs>
     <use xlink:href="#ArialMT-36"/>
     <use x="55.615234" xlink:href="#ArialMT-33"/>
     <use x="111.230469" xlink:href="#ArialMT-31"/>
    </g>
   </g>
   <g id="text_2">
    <!-- 371 -->
    <g transform="translate(423.433622 479.215515)scale(0.3 -0.3)">
     <defs>
      <path d="M 303 3981 
L 303 4522 
L 3269 4522 
L 3269 4084 
Q 2831 3619 2401 2847 
Q 1972 2075 1738 1259 
Q 1569 684 1522 0 
L 944 0 
Q 953 541 1156 1306 
Q 1359 2072 1739 2783 
Q 2119 3494 2547 3981 
L 303 3981 
z
" id="ArialMT-37" transform="scale(0.015625)"/>
     </defs>
     <use xlink:href="#ArialMT-33"/>
     <use x="55.615234" xlink:href="#ArialMT-37"/>
     <use x="111.230469" xlink:href="#ArialMT-31"/>
    </g>
   </g>
   <g id="text_3">
    <!-- 212 -->
    <g transform="translate(528.787734 340.443328)scale(0.3 -0.3)">
     <defs>
      <path d="M 3222 541 
L 3222 0 
L 194 0 
Q 188 203 259 391 
Q 375 700 629 1000 
Q 884 1300 1366 1694 
Q 2113 2306 2375 2664 
Q 2638 3022 2638 3341 
Q 2638 3675 2398 3904 
Q 2159 4134 1775 4134 
Q 1369 4134 1125 3890 
Q 881 3647 878 3216 
L 300 3275 
Q 359 3922 746 4261 
Q 1134 4600 1788 4600 
Q 2447 4600 2831 4234 
Q 3216 3869 3216 3328 
Q 3216 3053 3103 2787 
Q 2991 2522 2730 2228 
Q 2469 1934 1863 1422 
Q 1356 997 1212 845 
Q 1069 694 975 541 
L 3222 541 
z
" id="ArialMT-32" transform="scale(0.015625)"/>
     </defs>
     <use xlink:href="#ArialMT-32"/>
     <use x="55.615234" xlink:href="#ArialMT-31"/>
     <use x="111.230469" xlink:href="#ArialMT-32"/>
    </g>
   </g>
   <g id="text_4">
    <!-- S. pombe (GO + FYPO) -->
    <g transform="translate(7.2 61.862557)scale(0.27 -0.27)">
     <defs>
      <path d="M 450 1481 
L 1050 1538 
L 1044 1378 
Q 1044 1113 1166 892 
Q 1288 672 1569 551 
Q 1850 431 2238 431 
Q 2788 431 3077 672 
Q 3366 913 3366 1222 
Q 3366 1438 3213 1616 
Q 3056 1791 2359 2091 
Q 1819 2325 1622 2450 
Q 1313 2653 1166 2892 
Q 1019 3131 1019 3438 
Q 1019 3791 1212 4075 
Q 1406 4359 1779 4509 
Q 2153 4659 2622 4659 
Q 3181 4659 3565 4471 
Q 3950 4284 4123 3971 
Q 4297 3659 4297 3375 
Q 4297 3347 4294 3281 
L 3703 3234 
Q 3703 3428 3669 3538 
Q 3606 3728 3475 3859 
Q 3344 3991 3114 4070 
Q 2884 4150 2600 4150 
Q 2100 4150 1822 3925 
Q 1609 3753 1609 3469 
Q 1609 3300 1696 3167 
Q 1784 3034 2013 2906 
Q 2175 2816 2784 2547 
Q 3278 2328 3466 2203 
Q 3716 2038 3850 1802 
Q 3984 1566 3984 1266 
Q 3984 894 3757 580 
Q 3531 266 3131 94 
Q 2731 -78 2216 -78 
Q 1438 -78 945 261 
Q 453 600 450 1481 
z
" id="Arial-ItalicMT-53" transform="scale(0.015625)"/>
      <path d="M 369 0 
L 503 641 
L 1144 641 
L 1006 0 
L 369 0 
z
" id="Arial-ItalicMT-2e" transform="scale(0.015625)"/>
      <path id="Arial-ItalicMT-20" transform="scale(0.015625)"/>
      <path d="M -66 -1272 
L 894 3319 
L 1416 3319 
L 1319 2856 
Q 1609 3159 1839 3276 
Q 2069 3394 2325 3394 
Q 2800 3394 3112 3048 
Q 3425 2703 3425 2059 
Q 3425 1541 3253 1114 
Q 3081 688 2831 428 
Q 2581 169 2325 47 
Q 2069 -75 1800 -75 
Q 1203 -75 875 531 
L 500 -1272 
L -66 -1272 
z
M 1053 1356 
Q 1053 984 1106 841 
Q 1184 638 1362 513 
Q 1541 388 1775 388 
Q 2263 388 2563 936 
Q 2863 1484 2863 2056 
Q 2863 2478 2661 2708 
Q 2459 2938 2159 2938 
Q 1944 2938 1759 2823 
Q 1575 2709 1417 2482 
Q 1259 2256 1156 1928 
Q 1053 1600 1053 1356 
z
" id="Arial-ItalicMT-70" transform="scale(0.015625)"/>
      <path d="M 313 1259 
Q 313 2231 884 2869 
Q 1356 3394 2122 3394 
Q 2722 3394 3089 3019 
Q 3456 2644 3456 2006 
Q 3456 1434 3225 942 
Q 2994 450 2567 187 
Q 2141 -75 1669 -75 
Q 1281 -75 964 90 
Q 647 256 480 559 
Q 313 863 313 1259 
z
M 878 1316 
Q 878 847 1103 605 
Q 1328 363 1675 363 
Q 1856 363 2034 436 
Q 2213 509 2366 659 
Q 2519 809 2626 1001 
Q 2734 1194 2800 1416 
Q 2897 1725 2897 2009 
Q 2897 2459 2670 2707 
Q 2444 2956 2100 2956 
Q 1834 2956 1615 2829 
Q 1397 2703 1220 2459 
Q 1044 2216 961 1892 
Q 878 1569 878 1316 
z
" id="Arial-ItalicMT-6f" transform="scale(0.015625)"/>
      <path d="M 209 0 
L 903 3319 
L 1469 3319 
L 1353 2772 
Q 1669 3125 1917 3259 
Q 2166 3394 2456 3394 
Q 2766 3394 2973 3230 
Q 3181 3066 3247 2772 
Q 3500 3084 3779 3239 
Q 4059 3394 4369 3394 
Q 4784 3394 4992 3197 
Q 5200 3000 5200 2644 
Q 5200 2491 5128 2138 
L 4681 0 
L 4116 0 
L 4572 2194 
Q 4631 2463 4631 2578 
Q 4631 2741 4528 2834 
Q 4425 2928 4238 2928 
Q 3984 2928 3721 2775 
Q 3459 2622 3314 2373 
Q 3169 2125 3059 1609 
L 2722 0 
L 2156 0 
L 2625 2241 
Q 2675 2469 2675 2566 
Q 2675 2728 2573 2828 
Q 2472 2928 2309 2928 
Q 2069 2928 1805 2775 
Q 1541 2622 1375 2348 
Q 1209 2075 1103 1569 
L 775 0 
L 209 0 
z
" id="Arial-ItalicMT-6d" transform="scale(0.015625)"/>
      <path d="M 213 0 
L 1169 4581 
L 1734 4581 
L 1394 2944 
Q 1663 3191 1881 3292 
Q 2100 3394 2338 3394 
Q 2803 3394 3114 3047 
Q 3425 2700 3425 2038 
Q 3425 1597 3300 1231 
Q 3175 866 2990 617 
Q 2806 369 2609 220 
Q 2413 72 2206 -1 
Q 2000 -75 1809 -75 
Q 1481 -75 1231 98 
Q 981 272 841 628 
L 709 0 
L 213 0 
z
M 1050 1363 
L 1047 1256 
Q 1047 831 1250 609 
Q 1453 388 1756 388 
Q 2053 388 2301 595 
Q 2550 803 2709 1243 
Q 2869 1684 2869 2056 
Q 2869 2475 2667 2706 
Q 2466 2938 2169 2938 
Q 1863 2938 1606 2702 
Q 1350 2466 1178 1975 
Q 1050 1609 1050 1363 
z
" id="Arial-ItalicMT-62" transform="scale(0.015625)"/>
      <path d="M 2650 1128 
L 3200 1072 
Q 3081 663 2654 294 
Q 2228 -75 1638 -75 
Q 1269 -75 961 95 
Q 653 266 492 591 
Q 331 916 331 1331 
Q 331 1875 582 2386 
Q 834 2897 1234 3145 
Q 1634 3394 2100 3394 
Q 2694 3394 3048 3025 
Q 3403 2656 3403 2019 
Q 3403 1775 3359 1519 
L 916 1519 
Q 903 1422 903 1344 
Q 903 878 1117 633 
Q 1331 388 1641 388 
Q 1931 388 2212 578 
Q 2494 769 2650 1128 
z
M 1006 1950 
L 2869 1950 
Q 2872 2038 2872 2075 
Q 2872 2500 2659 2726 
Q 2447 2953 2113 2953 
Q 1750 2953 1451 2703 
Q 1153 2453 1006 1950 
z
" id="Arial-ItalicMT-65" transform="scale(0.015625)"/>
      <path d="M 1031 -1347 
Q 541 -272 541 863 
Q 541 1619 739 2270 
Q 938 2922 1344 3559 
Q 1613 3984 2203 4659 
L 2644 4659 
Q 2278 4269 1870 3559 
Q 1463 2850 1278 2165 
Q 1094 1481 1094 791 
Q 1094 -241 1453 -1347 
L 1031 -1347 
z
" id="Arial-ItalicMT-28" transform="scale(0.015625)"/>
      <path d="M 2622 1806 
L 2731 2325 
L 4738 2325 
L 4347 459 
Q 3969 222 3484 72 
Q 3000 -78 2531 -78 
Q 1531 -78 1038 525 
Q 622 1034 622 1834 
Q 622 2659 986 3336 
Q 1350 4013 1904 4336 
Q 2459 4659 3138 4659 
Q 3625 4659 4012 4482 
Q 4400 4306 4606 4011 
Q 4813 3716 4903 3241 
L 4303 3175 
Q 4206 3647 3901 3898 
Q 3597 4150 3119 4150 
Q 2622 4150 2190 3879 
Q 1759 3609 1501 3064 
Q 1244 2519 1244 1825 
Q 1244 1134 1584 781 
Q 1925 428 2525 428 
Q 3122 428 3809 822 
L 4016 1806 
L 2622 1806 
z
" id="Arial-ItalicMT-47" transform="scale(0.015625)"/>
      <path d="M 584 1919 
Q 584 3144 1292 3901 
Q 2000 4659 3009 4659 
Q 3866 4659 4405 4101 
Q 4944 3544 4944 2606 
Q 4944 1938 4672 1366 
Q 4469 938 4159 627 
Q 3850 316 3497 147 
Q 3028 -78 2503 -78 
Q 1953 -78 1501 184 
Q 1050 447 817 917 
Q 584 1388 584 1919 
z
M 1188 1888 
Q 1188 1484 1355 1146 
Q 1522 809 1853 618 
Q 2184 428 2550 428 
Q 2903 428 3222 595 
Q 3541 763 3792 1061 
Q 4044 1359 4189 1795 
Q 4334 2231 4334 2653 
Q 4334 3338 3951 3744 
Q 3569 4150 3006 4150 
Q 2288 4150 1738 3536 
Q 1188 2922 1188 1888 
z
" id="Arial-ItalicMT-4f" transform="scale(0.015625)"/>
      <path d="M 1822 741 
L 1822 1997 
L 575 1997 
L 575 2522 
L 1822 2522 
L 1822 3769 
L 2353 3769 
L 2353 2522 
L 3600 2522 
L 3600 1997 
L 2353 1997 
L 2353 741 
L 1822 741 
z
" id="Arial-ItalicMT-2b" transform="scale(0.015625)"/>
      <path d="M 291 0 
L 1247 4581 
L 4225 4581 
L 4116 4059 
L 1750 4059 
L 1447 2600 
L 3856 2600 
L 3747 2078 
L 1338 2078 
L 903 0 
L 291 0 
z
" id="Arial-ItalicMT-46" transform="scale(0.015625)"/>
      <path d="M 1788 0 
L 2156 1772 
L 747 4581 
L 1403 4581 
L 2078 3244 
Q 2300 2806 2509 2306 
Q 2741 2731 3141 3234 
L 4216 4581 
L 4947 4581 
L 2759 1725 
L 2400 0 
L 1788 0 
z
" id="Arial-ItalicMT-59" transform="scale(0.015625)"/>
      <path d="M 275 0 
L 1234 4581 
L 3147 4581 
Q 3644 4581 3892 4467 
Q 4141 4353 4303 4076 
Q 4466 3800 4466 3456 
Q 4466 3172 4350 2878 
Q 4234 2584 4057 2393 
Q 3881 2203 3700 2106 
Q 3519 2009 3313 1963 
Q 2872 1859 2422 1859 
L 1275 1859 
L 888 0 
L 275 0 
z
M 1384 2378 
L 2394 2378 
Q 2981 2378 3256 2504 
Q 3531 2631 3697 2890 
Q 3863 3150 3863 3441 
Q 3863 3666 3775 3808 
Q 3688 3950 3528 4017 
Q 3369 4084 2916 4084 
L 1741 4084 
L 1384 2378 
z
" id="Arial-ItalicMT-50" transform="scale(0.015625)"/>
      <path d="M 1269 4659 
Q 1763 3584 1763 2453 
Q 1763 1694 1564 1044 
Q 1366 394 959 -247 
Q 688 -672 100 -1347 
L -341 -1347 
Q 22 -953 431 -243 
Q 841 466 1023 1148 
Q 1206 1831 1206 2525 
Q 1206 3556 847 4659 
L 1269 4659 
z
" id="Arial-ItalicMT-29" transform="scale(0.015625)"/>
     </defs>
     <use xlink:href="#Arial-ItalicMT-53"/>
     <use x="66.699219" xlink:href="#Arial-ItalicMT-2e"/>
     <use x="94.482422" xlink:href="#Arial-ItalicMT-20"/>
     <use x="122.265625" xlink:href="#Arial-ItalicMT-70"/>
     <use x="177.880859" xlink:href="#Arial-ItalicMT-6f"/>
     <use x="233.496094" xlink:href="#Arial-ItalicMT-6d"/>
     <use x="316.796875" xlink:href="#Arial-ItalicMT-62"/>
     <use x="372.412109" xlink:href="#Arial-ItalicMT-65"/>
     <use x="428.027344" xlink:href="#Arial-ItalicMT-20"/>
     <use x="455.810547" xlink:href="#Arial-ItalicMT-28"/>
     <use x="489.111328" xlink:href="#Arial-ItalicMT-47"/>
     <use x="566.894531" xlink:href="#Arial-ItalicMT-4f"/>
     <use x="644.677734" xlink:href="#Arial-ItalicMT-20"/>
     <use x="672.460938" xlink:href="#Arial-ItalicMT-2b"/>
     <use x="730.859375" xlink:href="#Arial-ItalicMT-20"/>
     <use x="758.642578" xlink:href="#Arial-ItalicMT-46"/>
     <use x="819.726562" xlink:href="#Arial-ItalicMT-59"/>
     <use x="886.425781" xlink:href="#Arial-ItalicMT-50"/>
     <use x="953.125" xlink:href="#Arial-ItalicMT-4f"/>
     <use x="1030.908203" xlink:href="#Arial-ItalicMT-29"/>
    </g>
   </g>
   <g id="text_5">
    <!-- S. cerevisiae (GO + P) -->
    <g transform="translate(602.389275 61.862557)scale(0.27 -0.27)">
     <defs>
      <path d="M 2503 1209 
L 3069 1150 
Q 2856 528 2464 226 
Q 2072 -75 1572 -75 
Q 1031 -75 695 275 
Q 359 625 359 1253 
Q 359 1797 575 2322 
Q 791 2847 1192 3120 
Q 1594 3394 2109 3394 
Q 2644 3394 2956 3092 
Q 3269 2791 3269 2294 
L 2713 2256 
Q 2709 2572 2529 2750 
Q 2350 2928 2056 2928 
Q 1716 2928 1466 2712 
Q 1216 2497 1073 2058 
Q 931 1619 931 1213 
Q 931 788 1118 575 
Q 1306 363 1581 363 
Q 1856 363 2107 572 
Q 2359 781 2503 1209 
z
" id="Arial-ItalicMT-63" transform="scale(0.015625)"/>
      <path d="M 213 0 
L 906 3319 
L 1406 3319 
L 1266 2641 
Q 1522 3025 1767 3209 
Q 2013 3394 2269 3394 
Q 2438 3394 2684 3272 
L 2453 2747 
Q 2306 2853 2131 2853 
Q 1834 2853 1521 2522 
Q 1209 2191 1031 1331 
L 750 0 
L 213 0 
z
" id="Arial-ItalicMT-72" transform="scale(0.015625)"/>
      <path d="M 1050 0 
L 506 3319 
L 1056 3319 
L 1341 1491 
Q 1388 1191 1456 513 
Q 1619 866 1872 1322 
L 2981 3319 
L 3578 3319 
L 1678 0 
L 1050 0 
z
" id="Arial-ItalicMT-76" transform="scale(0.015625)"/>
      <path d="M 1016 3941 
L 1150 4581 
L 1713 4581 
L 1578 3941 
L 1016 3941 
z
M 191 0 
L 884 3319 
L 1450 3319 
L 756 0 
L 191 0 
z
" id="Arial-ItalicMT-69" transform="scale(0.015625)"/>
      <path d="M 266 1134 
L 831 1169 
Q 831 925 906 753 
Q 981 581 1182 472 
Q 1384 363 1653 363 
Q 2028 363 2215 513 
Q 2403 663 2403 866 
Q 2403 1013 2291 1144 
Q 2175 1275 1726 1467 
Q 1278 1659 1153 1738 
Q 944 1866 837 2039 
Q 731 2213 731 2438 
Q 731 2831 1043 3112 
Q 1356 3394 1919 3394 
Q 2544 3394 2870 3105 
Q 3197 2816 3209 2344 
L 2656 2306 
Q 2644 2606 2444 2781 
Q 2244 2956 1878 2956 
Q 1584 2956 1421 2822 
Q 1259 2688 1259 2531 
Q 1259 2375 1400 2256 
Q 1494 2175 1884 2006 
Q 2534 1725 2703 1563 
Q 2972 1303 2972 931 
Q 2972 684 2820 446 
Q 2669 209 2358 67 
Q 2047 -75 1625 -75 
Q 1050 -75 647 209 
Q 244 494 266 1134 
z
" id="Arial-ItalicMT-73" transform="scale(0.015625)"/>
      <path d="M 2450 413 
Q 2156 159 1884 42 
Q 1613 -75 1303 -75 
Q 844 -75 562 195 
Q 281 466 281 888 
Q 281 1166 407 1380 
Q 534 1594 743 1723 
Q 953 1853 1256 1909 
Q 1447 1947 1980 1969 
Q 2513 1991 2744 2081 
Q 2809 2313 2809 2466 
Q 2809 2663 2666 2775 
Q 2469 2931 2091 2931 
Q 1734 2931 1507 2773 
Q 1281 2616 1178 2325 
L 606 2375 
Q 781 2869 1161 3131 
Q 1541 3394 2119 3394 
Q 2734 3394 3094 3100 
Q 3369 2881 3369 2531 
Q 3369 2266 3291 1916 
L 3106 1091 
Q 3019 697 3019 450 
Q 3019 294 3088 0 
L 2516 0 
Q 2469 163 2450 413 
z
M 2659 1681 
Q 2541 1634 2405 1609 
Q 2269 1584 1950 1556 
Q 1456 1513 1253 1445 
Q 1050 1378 947 1231 
Q 844 1084 844 906 
Q 844 669 1008 516 
Q 1172 363 1475 363 
Q 1756 363 2015 511 
Q 2275 659 2425 925 
Q 2575 1191 2659 1681 
z
" id="Arial-ItalicMT-61" transform="scale(0.015625)"/>
     </defs>
     <use xlink:href="#Arial-ItalicMT-53"/>
     <use x="66.699219" xlink:href="#Arial-ItalicMT-2e"/>
     <use x="94.482422" xlink:href="#Arial-ItalicMT-20"/>
     <use x="122.265625" xlink:href="#Arial-ItalicMT-63"/>
     <use x="172.265625" xlink:href="#Arial-ItalicMT-65"/>
     <use x="227.880859" xlink:href="#Arial-ItalicMT-72"/>
     <use x="261.181641" xlink:href="#Arial-ItalicMT-65"/>
     <use x="316.796875" xlink:href="#Arial-ItalicMT-76"/>
     <use x="366.796875" xlink:href="#Arial-ItalicMT-69"/>
     <use x="389.013672" xlink:href="#Arial-ItalicMT-73"/>
     <use x="439.013672" xlink:href="#Arial-ItalicMT-69"/>
     <use x="461.230469" xlink:href="#Arial-ItalicMT-61"/>
     <use x="516.845703" xlink:href="#Arial-ItalicMT-65"/>
     <use x="572.460938" xlink:href="#Arial-ItalicMT-20"/>
     <use x="600.244141" xlink:href="#Arial-ItalicMT-28"/>
     <use x="633.544922" xlink:href="#Arial-ItalicMT-47"/>
     <use x="711.328125" xlink:href="#Arial-ItalicMT-4f"/>
     <use x="789.111328" xlink:href="#Arial-ItalicMT-20"/>
     <use x="816.894531" xlink:href="#Arial-ItalicMT-2b"/>
     <use x="875.292969" xlink:href="#Arial-ItalicMT-20"/>
     <use x="903.076172" xlink:href="#Arial-ItalicMT-50"/>
     <use x="969.775391" xlink:href="#Arial-ItalicMT-29"/>
    </g>
   </g>
   <g id="text_6">
    <!-- C. albicans (GO + P) -->
    <g transform="translate(323.546981 558.260005)scale(0.27 -0.27)">
     <defs>
      <path d="M 3859 1613 
L 4466 1528 
Q 4178 734 3628 328 
Q 3078 -78 2394 -78 
Q 1559 -78 1070 431 
Q 581 941 581 1891 
Q 581 3128 1325 3938 
Q 1988 4659 2972 4659 
Q 3700 4659 4151 4268 
Q 4603 3878 4675 3219 
L 4103 3166 
Q 4013 3663 3730 3908 
Q 3447 4153 3000 4153 
Q 2159 4153 1641 3406 
Q 1191 2763 1191 1878 
Q 1191 1172 1537 800 
Q 1884 428 2441 428 
Q 2916 428 3300 737 
Q 3684 1047 3859 1613 
z
" id="Arial-ItalicMT-43" transform="scale(0.015625)"/>
      <path d="M 169 0 
L 1125 4581 
L 1691 4581 
L 734 0 
L 169 0 
z
" id="Arial-ItalicMT-6c" transform="scale(0.015625)"/>
      <path d="M 213 0 
L 906 3319 
L 1419 3319 
L 1297 2741 
Q 1631 3081 1922 3237 
Q 2213 3394 2516 3394 
Q 2919 3394 3148 3175 
Q 3378 2956 3378 2591 
Q 3378 2406 3297 2009 
L 2875 0 
L 2309 0 
L 2750 2103 
Q 2816 2409 2816 2556 
Q 2816 2722 2702 2825 
Q 2588 2928 2372 2928 
Q 1938 2928 1598 2615 
Q 1259 2303 1100 1544 
L 778 0 
L 213 0 
z
" id="Arial-ItalicMT-6e" transform="scale(0.015625)"/>
     </defs>
     <use xlink:href="#Arial-ItalicMT-43"/>
     <use x="72.216797" xlink:href="#Arial-ItalicMT-2e"/>
     <use x="100" xlink:href="#Arial-ItalicMT-20"/>
     <use x="127.783203" xlink:href="#Arial-ItalicMT-61"/>
     <use x="183.398438" xlink:href="#Arial-ItalicMT-6c"/>
     <use x="205.615234" xlink:href="#Arial-ItalicMT-62"/>
     <use x="261.230469" xlink:href="#Arial-ItalicMT-69"/>
     <use x="283.447266" xlink:href="#Arial-ItalicMT-63"/>
     <use x="333.447266" xlink:href="#Arial-ItalicMT-61"/>
     <use x="389.0625" xlink:href="#Arial-ItalicMT-6e"/>
     <use x="444.677734" xlink:href="#Arial-ItalicMT-73"/>
     <use x="494.677734" xlink:href="#Arial-ItalicMT-20"/>
     <use x="522.460938" xlink:href="#Arial-ItalicMT-28"/>
     <use x="555.761719" xlink:href="#Arial-ItalicMT-47"/>
     <use x="633.544922" xlink:href="#Arial-ItalicMT-4f"/>
     <use x="711.328125" xlink:href="#Arial-ItalicMT-20"/>
     <use x="739.111328" xlink:href="#Arial-ItalicMT-2b"/>
     <use x="797.509766" xlink:href="#Arial-ItalicMT-20"/>
     <use x="825.292969" xlink:href="#Arial-ItalicMT-50"/>
     <use x="891.992188" xlink:href="#Arial-ItalicMT-29"/>
    </g>
   </g>
   <g id="text_7">
    <!-- arp42 -->
    <g transform="translate(229.684574 128.142804)scale(0.167829 -0.167829)">
     <defs>
      <path d="M 1913 0 
L 2159 1169 
L 291 1169 
L 409 1728 
L 2975 4581 
L 3438 4581 
L 2828 1669 
L 3472 1669 
L 3369 1169 
L 2725 1169 
L 2478 0 
L 1913 0 
z
M 2263 1669 
L 2663 3581 
L 956 1669 
L 2263 1669 
z
" id="Arial-ItalicMT-34" transform="scale(0.015625)"/>
      <path d="M 375 0 
Q 463 409 617 686 
Q 772 963 1028 1211 
Q 1284 1459 2016 2044 
Q 2459 2397 2622 2566 
Q 2856 2809 2963 3044 
Q 3034 3203 3034 3391 
Q 3034 3706 2811 3926 
Q 2588 4147 2263 4147 
Q 1941 4147 1700 3923 
Q 1459 3700 1356 3206 
L 803 3288 
Q 884 3897 1276 4248 
Q 1669 4600 2253 4600 
Q 2644 4600 2961 4437 
Q 3278 4275 3437 3981 
Q 3597 3688 3597 3375 
Q 3597 2919 3272 2497 
Q 3072 2234 2097 1463 
Q 1678 1131 1473 918 
Q 1269 706 1166 519 
L 3216 519 
L 3106 0 
L 375 0 
z
" id="Arial-ItalicMT-32" transform="scale(0.015625)"/>
     </defs>
     <use xlink:href="#Arial-ItalicMT-61"/>
     <use x="55.615234" xlink:href="#Arial-ItalicMT-72"/>
     <use x="88.916016" xlink:href="#Arial-ItalicMT-70"/>
     <use x="144.53125" xlink:href="#Arial-ItalicMT-34"/>
     <use x="200.146484" xlink:href="#Arial-ItalicMT-32"/>
    </g>
   </g>
   <g id="text_8">
    <!-- gas2 -->
    <g transform="translate(229.684574 142.575529)scale(0.167829 -0.167829)">
     <defs>
      <path d="M 181 -300 
L 753 -353 
Q 747 -547 800 -644 
Q 853 -741 969 -794 
Q 1122 -863 1366 -863 
Q 1878 -863 2103 -597 
Q 2250 -419 2375 178 
L 2431 447 
Q 1991 0 1494 0 
Q 991 0 652 370 
Q 313 741 313 1419 
Q 313 1978 580 2447 
Q 847 2916 1215 3155 
Q 1584 3394 1975 3394 
Q 2628 3394 2981 2775 
L 3094 3319 
L 3613 3319 
L 2944 116 
Q 2834 -413 2656 -708 
Q 2478 -1003 2161 -1165 
Q 1844 -1328 1428 -1328 
Q 1028 -1328 739 -1225 
Q 450 -1122 308 -923 
Q 166 -725 166 -469 
Q 166 -391 181 -300 
z
M 888 1469 
Q 888 1128 953 956 
Q 1047 716 1220 589 
Q 1394 463 1606 463 
Q 1884 463 2159 658 
Q 2434 853 2604 1262 
Q 2775 1672 2775 2044 
Q 2775 2453 2548 2695 
Q 2322 2938 1988 2938 
Q 1781 2938 1587 2827 
Q 1394 2716 1226 2489 
Q 1059 2263 973 1947 
Q 888 1631 888 1469 
z
" id="Arial-ItalicMT-67" transform="scale(0.015625)"/>
     </defs>
     <use xlink:href="#Arial-ItalicMT-67"/>
     <use x="55.615234" xlink:href="#Arial-ItalicMT-61"/>
     <use x="111.230469" xlink:href="#Arial-ItalicMT-73"/>
     <use x="161.230469" xlink:href="#Arial-ItalicMT-32"/>
    </g>
   </g>
   <g id="text_9">
    <!-- gms1 -->
    <g transform="translate(229.684574 157.008254)scale(0.167829 -0.167829)">
     <defs>
      <path d="M 1541 0 
L 2266 3459 
Q 1797 3091 947 2869 
L 1053 3381 
Q 1475 3550 1886 3822 
Q 2297 4094 2503 4297 
Q 2628 4422 2741 4600 
L 3069 4600 
L 2109 0 
L 1541 0 
z
" id="Arial-ItalicMT-31" transform="scale(0.015625)"/>
     </defs>
     <use xlink:href="#Arial-ItalicMT-67"/>
     <use x="55.615234" xlink:href="#Arial-ItalicMT-6d"/>
     <use x="138.916016" xlink:href="#Arial-ItalicMT-73"/>
     <use x="188.916016" xlink:href="#Arial-ItalicMT-31"/>
    </g>
   </g>
   <g id="text_10">
    <!-- ivn1 -->
    <g transform="translate(229.684574 171.440979)scale(0.167829 -0.167829)">
     <use xlink:href="#Arial-ItalicMT-69"/>
     <use x="22.216797" xlink:href="#Arial-ItalicMT-76"/>
     <use x="72.216797" xlink:href="#Arial-ItalicMT-6e"/>
     <use x="127.832031" xlink:href="#Arial-ItalicMT-31"/>
    </g>
   </g>
   <g id="text_11">
    <!-- mal3 -->
    <g transform="translate(229.684574 185.873705)scale(0.167829 -0.167829)">
     <defs>
      <path d="M 350 1200 
L 900 1269 
Q 963 788 1177 580 
Q 1391 372 1738 372 
Q 2156 372 2461 672 
Q 2766 972 2766 1359 
Q 2766 1697 2537 1917 
Q 2309 2138 1925 2138 
Q 1881 2138 1744 2125 
L 1841 2597 
Q 1922 2584 1997 2584 
Q 2481 2584 2742 2820 
Q 3003 3056 3003 3400 
Q 3003 3716 2789 3931 
Q 2575 4147 2266 4147 
Q 1963 4147 1720 3926 
Q 1478 3706 1409 3303 
L 853 3416 
Q 991 3981 1381 4290 
Q 1772 4600 2306 4600 
Q 2869 4600 3217 4259 
Q 3566 3919 3566 3422 
Q 3566 3059 3377 2789 
Q 3188 2519 2809 2341 
Q 3078 2181 3211 1956 
Q 3344 1731 3344 1441 
Q 3344 825 2883 373 
Q 2422 -78 1781 -78 
Q 1159 -78 776 270 
Q 394 619 350 1200 
z
" id="Arial-ItalicMT-33" transform="scale(0.015625)"/>
     </defs>
     <use xlink:href="#Arial-ItalicMT-6d"/>
     <use x="83.300781" xlink:href="#Arial-ItalicMT-61"/>
     <use x="138.916016" xlink:href="#Arial-ItalicMT-6c"/>
     <use x="161.132812" xlink:href="#Arial-ItalicMT-33"/>
    </g>
   </g>
   <g id="text_12">
    <!-- par1 -->
    <g transform="translate(229.684574 200.30643)scale(0.167829 -0.167829)">
     <use xlink:href="#Arial-ItalicMT-70"/>
     <use x="55.615234" xlink:href="#Arial-ItalicMT-61"/>
     <use x="111.230469" xlink:href="#Arial-ItalicMT-72"/>
     <use x="144.53125" xlink:href="#Arial-ItalicMT-31"/>
    </g>
   </g>
   <g id="text_13">
    <!-- plr1 -->
    <g transform="translate(229.684574 214.739155)scale(0.167829 -0.167829)">
     <use xlink:href="#Arial-ItalicMT-70"/>
     <use x="55.615234" xlink:href="#Arial-ItalicMT-6c"/>
     <use x="77.832031" xlink:href="#Arial-ItalicMT-72"/>
     <use x="111.132812" xlink:href="#Arial-ItalicMT-31"/>
    </g>
   </g>
   <g id="text_14">
    <!-- ppr3 -->
    <g transform="translate(229.684574 229.17188)scale(0.167829 -0.167829)">
     <use xlink:href="#Arial-ItalicMT-70"/>
     <use x="55.615234" xlink:href="#Arial-ItalicMT-70"/>
     <use x="111.230469" xlink:href="#Arial-ItalicMT-72"/>
     <use x="144.53125" xlink:href="#Arial-ItalicMT-33"/>
    </g>
   </g>
   <g id="text_15">
    <!-- ppr4 -->
    <g transform="translate(293.567665 147.337246)scale(0.167829 -0.167829)">
     <use xlink:href="#Arial-ItalicMT-70"/>
     <use x="55.615234" xlink:href="#Arial-ItalicMT-70"/>
     <use x="111.230469" xlink:href="#Arial-ItalicMT-72"/>
     <use x="144.53125" xlink:href="#Arial-ItalicMT-34"/>
    </g>
   </g>
   <g id="text_16">
    <!-- spo20 -->
    <g transform="translate(293.567665 161.769971)scale(0.167829 -0.167829)">
     <defs>
      <path d="M 453 1503 
Q 453 2084 626 2684 
Q 800 3284 1012 3643 
Q 1225 4003 1453 4206 
Q 1681 4409 1901 4504 
Q 2122 4600 2391 4600 
Q 2916 4600 3267 4209 
Q 3619 3819 3619 3081 
Q 3619 2322 3375 1578 
Q 3088 697 2575 256 
Q 2181 -78 1678 -78 
Q 1163 -78 808 326 
Q 453 731 453 1503 
z
M 1000 1359 
Q 1000 938 1141 700 
Q 1331 372 1706 372 
Q 2034 372 2303 669 
Q 2691 1088 2886 1895 
Q 3081 2703 3081 3216 
Q 3081 3709 2892 3928 
Q 2703 4147 2394 4147 
Q 2169 4147 1973 4031 
Q 1778 3916 1600 3634 
Q 1347 3238 1159 2447 
Q 1000 1772 1000 1359 
z
" id="Arial-ItalicMT-30" transform="scale(0.015625)"/>
     </defs>
     <use xlink:href="#Arial-ItalicMT-73"/>
     <use x="50" xlink:href="#Arial-ItalicMT-70"/>
     <use x="105.615234" xlink:href="#Arial-ItalicMT-6f"/>
     <use x="161.230469" xlink:href="#Arial-ItalicMT-32"/>
     <use x="216.845703" xlink:href="#Arial-ItalicMT-30"/>
    </g>
   </g>
   <g id="text_17">
    <!-- srb8 -->
    <g transform="translate(293.567665 176.202696)scale(0.167829 -0.167829)">
     <defs>
      <path d="M 1444 2519 
Q 1188 2659 1059 2879 
Q 931 3100 931 3353 
Q 931 3769 1231 4122 
Q 1631 4600 2316 4600 
Q 2919 4600 3266 4276 
Q 3613 3953 3613 3484 
Q 3613 3150 3425 2881 
Q 3238 2613 2838 2453 
Q 3113 2281 3231 2088 
Q 3384 1834 3384 1497 
Q 3384 881 2948 400 
Q 2513 -81 1788 -81 
Q 1209 -81 843 275 
Q 478 631 478 1166 
Q 478 1669 737 2030 
Q 997 2391 1444 2519 
z
M 1488 3328 
Q 1488 3034 1677 2854 
Q 1866 2675 2197 2675 
Q 2584 2675 2826 2911 
Q 3069 3147 3069 3491 
Q 3069 3781 2880 3964 
Q 2691 4147 2359 4147 
Q 2109 4147 1900 4031 
Q 1691 3916 1589 3717 
Q 1488 3519 1488 3328 
z
M 1047 1119 
Q 1047 928 1139 753 
Q 1231 578 1418 475 
Q 1606 372 1847 372 
Q 2306 372 2591 803 
Q 2816 1141 2816 1531 
Q 2816 1850 2608 2053 
Q 2400 2256 2063 2256 
Q 1638 2256 1342 1940 
Q 1047 1625 1047 1119 
z
" id="Arial-ItalicMT-38" transform="scale(0.015625)"/>
     </defs>
     <use xlink:href="#Arial-ItalicMT-73"/>
     <use x="50" xlink:href="#Arial-ItalicMT-72"/>
     <use x="83.300781" xlink:href="#Arial-ItalicMT-62"/>
     <use x="138.916016" xlink:href="#Arial-ItalicMT-38"/>
    </g>
   </g>
   <g id="text_18">
    <!-- str1 -->
    <g transform="translate(293.567665 190.635421)scale(0.167829 -0.167829)">
     <defs>
      <path d="M 1534 459 
L 1441 -3 
Q 1238 -56 1047 -56 
Q 709 -56 509 109 
Q 359 234 359 450 
Q 359 559 441 953 
L 844 2881 
L 397 2881 
L 488 3319 
L 934 3319 
L 1106 4134 
L 1753 4525 
L 1500 3319 
L 2056 3319 
L 1963 2881 
L 1409 2881 
L 1025 1047 
Q 953 697 953 628 
Q 953 528 1011 475 
Q 1069 422 1200 422 
Q 1388 422 1534 459 
z
" id="Arial-ItalicMT-74" transform="scale(0.015625)"/>
     </defs>
     <use xlink:href="#Arial-ItalicMT-73"/>
     <use x="50" xlink:href="#Arial-ItalicMT-74"/>
     <use x="77.783203" xlink:href="#Arial-ItalicMT-72"/>
     <use x="111.083984" xlink:href="#Arial-ItalicMT-31"/>
    </g>
   </g>
   <g id="text_19">
    <!-- tea2 -->
    <g transform="translate(293.567665 205.068147)scale(0.167829 -0.167829)">
     <use xlink:href="#Arial-ItalicMT-74"/>
     <use x="27.783203" xlink:href="#Arial-ItalicMT-65"/>
     <use x="83.398438" xlink:href="#Arial-ItalicMT-61"/>
     <use x="139.013672" xlink:href="#Arial-ItalicMT-32"/>
    </g>
   </g>
   <g id="text_20">
    <!-- tip1 -->
    <g transform="translate(293.567665 219.500872)scale(0.167829 -0.167829)">
     <use xlink:href="#Arial-ItalicMT-74"/>
     <use x="27.783203" xlink:href="#Arial-ItalicMT-69"/>
     <use x="50" xlink:href="#Arial-ItalicMT-70"/>
     <use x="105.615234" xlink:href="#Arial-ItalicMT-31"/>
    </g>
   </g>
   <g id="text_21">
    <!-- tlg2 -->
    <g transform="translate(293.567665 233.933597)scale(0.167829 -0.167829)">
     <use xlink:href="#Arial-ItalicMT-74"/>
     <use x="27.783203" xlink:href="#Arial-ItalicMT-6c"/>
     <use x="50" xlink:href="#Arial-ItalicMT-67"/>
     <use x="105.615234" xlink:href="#Arial-ItalicMT-32"/>
    </g>
   </g>
   <g id="text_22">
    <!-- anp1 -->
    <g transform="translate(402.541869 102.296866)scale(0.216667 -0.216667)">
     <use xlink:href="#Arial-ItalicMT-61"/>
     <use x="55.615234" xlink:href="#Arial-ItalicMT-6e"/>
     <use x="111.230469" xlink:href="#Arial-ItalicMT-70"/>
     <use x="166.845703" xlink:href="#Arial-ItalicMT-31"/>
    </g>
   </g>
   <g id="text_23">
    <!-- fip1 -->
    <g transform="translate(402.541869 120.929434)scale(0.216667 -0.216667)">
     <defs>
      <path d="M 291 0 
L 894 2881 
L 388 2881 
L 478 3319 
L 984 3319 
L 1081 3791 
Q 1156 4144 1236 4300 
Q 1316 4456 1495 4557 
Q 1675 4659 1984 4659 
Q 2200 4659 2609 4569 
L 2506 4075 
Q 2219 4150 2025 4150 
Q 1859 4150 1773 4067 
Q 1688 3984 1625 3675 
L 1550 3319 
L 2181 3319 
L 2091 2881 
L 1459 2881 
L 856 0 
L 291 0 
z
" id="Arial-ItalicMT-66" transform="scale(0.015625)"/>
     </defs>
     <use xlink:href="#Arial-ItalicMT-66"/>
     <use x="27.783203" xlink:href="#Arial-ItalicMT-69"/>
     <use x="50" xlink:href="#Arial-ItalicMT-70"/>
     <use x="105.615234" xlink:href="#Arial-ItalicMT-31"/>
    </g>
   </g>
   <g id="text_24">
    <!-- kin1 -->
    <g transform="translate(402.541869 139.562002)scale(0.216667 -0.216667)">
     <defs>
      <path d="M 219 0 
L 1178 4581 
L 1741 4581 
L 1147 1741 
L 2797 3319 
L 3544 3319 
L 2128 2081 
L 2984 0 
L 2366 0 
L 1703 1703 
L 1016 1109 
L 784 0 
L 219 0 
z
" id="Arial-ItalicMT-6b" transform="scale(0.015625)"/>
     </defs>
     <use xlink:href="#Arial-ItalicMT-6b"/>
     <use x="50" xlink:href="#Arial-ItalicMT-69"/>
     <use x="72.216797" xlink:href="#Arial-ItalicMT-6e"/>
     <use x="127.832031" xlink:href="#Arial-ItalicMT-31"/>
    </g>
   </g>
   <g id="text_25">
    <!-- lkh1 -->
    <g transform="translate(402.541869 158.19457)scale(0.216667 -0.216667)">
     <defs>
      <path d="M 213 0 
L 1169 4581 
L 1734 4581 
L 1369 2822 
Q 1684 3128 1956 3261 
Q 2228 3394 2516 3394 
Q 2928 3394 3156 3176 
Q 3384 2959 3384 2603 
Q 3384 2428 3284 1959 
L 2875 0 
L 2309 0 
L 2731 2009 
Q 2822 2447 2822 2559 
Q 2822 2722 2709 2825 
Q 2597 2928 2384 2928 
Q 2078 2928 1800 2767 
Q 1522 2606 1364 2326 
Q 1206 2047 1075 1425 
L 778 0 
L 213 0 
z
" id="Arial-ItalicMT-68" transform="scale(0.015625)"/>
     </defs>
     <use xlink:href="#Arial-ItalicMT-6c"/>
     <use x="22.216797" xlink:href="#Arial-ItalicMT-6b"/>
     <use x="72.216797" xlink:href="#Arial-ItalicMT-68"/>
     <use x="127.832031" xlink:href="#Arial-ItalicMT-31"/>
    </g>
   </g>
   <g id="text_26">
    <!-- mtf2 -->
    <g transform="translate(402.541869 176.827138)scale(0.216667 -0.216667)">
     <use xlink:href="#Arial-ItalicMT-6d"/>
     <use x="83.300781" xlink:href="#Arial-ItalicMT-74"/>
     <use x="111.083984" xlink:href="#Arial-ItalicMT-66"/>
     <use x="138.867188" xlink:href="#Arial-ItalicMT-32"/>
    </g>
   </g>
   <g id="text_27">
    <!-- sgf73 -->
    <g transform="translate(466.42496 123.59123)scale(0.216667 -0.216667)">
     <defs>
      <path d="M 928 0 
Q 1003 463 1247 1113 
Q 1538 1897 2009 2670 
Q 2481 3444 3059 4000 
L 775 4000 
L 884 4519 
L 3809 4519 
L 3703 4000 
Q 2959 3347 2403 2316 
Q 1756 1125 1519 0 
L 928 0 
z
" id="Arial-ItalicMT-37" transform="scale(0.015625)"/>
     </defs>
     <use xlink:href="#Arial-ItalicMT-73"/>
     <use x="50" xlink:href="#Arial-ItalicMT-67"/>
     <use x="105.615234" xlink:href="#Arial-ItalicMT-66"/>
     <use x="133.398438" xlink:href="#Arial-ItalicMT-37"/>
     <use x="189.013672" xlink:href="#Arial-ItalicMT-33"/>
    </g>
   </g>
   <g id="text_28">
    <!-- tea4 -->
    <g transform="translate(466.42496 142.223798)scale(0.216667 -0.216667)">
     <use xlink:href="#Arial-ItalicMT-74"/>
     <use x="27.783203" xlink:href="#Arial-ItalicMT-65"/>
     <use x="83.398438" xlink:href="#Arial-ItalicMT-61"/>
     <use x="139.013672" xlink:href="#Arial-ItalicMT-34"/>
    </g>
   </g>
   <g id="text_29">
    <!-- yox1 -->
    <g transform="translate(466.42496 160.856366)scale(0.216667 -0.216667)">
     <defs>
      <path d="M 0 -1281 
L 34 -750 
Q 209 -800 375 -800 
Q 547 -800 653 -722 
Q 791 -619 953 -334 
L 1134 -9 
L 581 3319 
L 1138 3319 
L 1388 1641 
Q 1463 1144 1516 647 
L 3000 3319 
L 3591 3319 
L 1475 -441 
Q 1169 -991 931 -1169 
Q 694 -1347 384 -1347 
Q 188 -1347 0 -1281 
z
" id="Arial-ItalicMT-79" transform="scale(0.015625)"/>
      <path d="M -9 0 
L 1434 1684 
L 606 3319 
L 1231 3319 
L 1513 2728 
Q 1669 2397 1794 2094 
L 2750 3319 
L 3441 3319 
L 2047 1641 
L 2884 0 
L 2259 0 
L 1928 675 
Q 1822 891 1688 1209 
L 700 0 
L -9 0 
z
" id="Arial-ItalicMT-78" transform="scale(0.015625)"/>
     </defs>
     <use xlink:href="#Arial-ItalicMT-79"/>
     <use x="50" xlink:href="#Arial-ItalicMT-6f"/>
     <use x="105.615234" xlink:href="#Arial-ItalicMT-78"/>
     <use x="155.615234" xlink:href="#Arial-ItalicMT-31"/>
    </g>
   </g>
   <g id="text_30">
    <!-- zfs1 -->
    <g transform="translate(466.42496 179.488934)scale(0.216667 -0.216667)">
     <defs>
      <path d="M 125 0 
L 216 438 
L 2000 2447 
Q 2191 2659 2425 2888 
Q 2022 2847 1847 2847 
L 613 2847 
L 713 3319 
L 3278 3319 
L 3203 2963 
L 1403 941 
Q 1250 769 947 469 
Q 1419 497 1594 497 
L 2900 497 
L 2797 0 
L 125 0 
z
" id="Arial-ItalicMT-7a" transform="scale(0.015625)"/>
     </defs>
     <use xlink:href="#Arial-ItalicMT-7a"/>
     <use x="50" xlink:href="#Arial-ItalicMT-66"/>
     <use x="77.783203" xlink:href="#Arial-ItalicMT-73"/>
     <use x="127.783203" xlink:href="#Arial-ItalicMT-31"/>
    </g>
   </g>
   <g id="text_31">
    <!-- cyr1 -->
    <g transform="translate(303.176797 288.768235)scale(0.2 -0.2)">
     <use xlink:href="#Arial-ItalicMT-63"/>
     <use x="50" xlink:href="#Arial-ItalicMT-79"/>
     <use x="100" xlink:href="#Arial-ItalicMT-72"/>
     <use x="133.300781" xlink:href="#Arial-ItalicMT-31"/>
    </g>
   </g>
   <g id="text_32">
    <!-- fio1 -->
    <g transform="translate(303.176797 310.728047)scale(0.2 -0.2)">
     <use xlink:href="#Arial-ItalicMT-66"/>
     <use x="27.783203" xlink:href="#Arial-ItalicMT-69"/>
     <use x="50" xlink:href="#Arial-ItalicMT-6f"/>
     <use x="105.615234" xlink:href="#Arial-ItalicMT-31"/>
    </g>
   </g>
   <g id="text_33">
    <!-- mug27 -->
    <g transform="translate(303.176797 332.687859)scale(0.2 -0.2)">
     <defs>
      <path d="M 2478 600 
Q 1881 -75 1256 -75 
Q 872 -75 636 145 
Q 400 366 400 684 
Q 400 894 506 1403 
L 906 3319 
L 1472 3319 
L 1028 1197 
Q 972 931 972 784 
Q 972 597 1086 492 
Q 1200 388 1422 388 
Q 1659 388 1886 503 
Q 2113 619 2277 816 
Q 2441 1013 2544 1281 
Q 2613 1453 2703 1884 
L 3003 3319 
L 3569 3319 
L 2875 0 
L 2353 0 
L 2478 600 
z
" id="Arial-ItalicMT-75" transform="scale(0.015625)"/>
     </defs>
     <use xlink:href="#Arial-ItalicMT-6d"/>
     <use x="83.300781" xlink:href="#Arial-ItalicMT-75"/>
     <use x="138.916016" xlink:href="#Arial-ItalicMT-67"/>
     <use x="194.53125" xlink:href="#Arial-ItalicMT-32"/>
     <use x="250.146484" xlink:href="#Arial-ItalicMT-37"/>
    </g>
   </g>
   <g id="text_34">
    <!-- adn3 -->
    <g transform="translate(402.541869 223.949316)scale(0.153206 -0.153206)">
     <defs>
      <path d="M 2450 481 
Q 1966 -75 1438 -75 
Q 966 -75 652 273 
Q 338 622 338 1284 
Q 338 1891 586 2392 
Q 834 2894 1207 3144 
Q 1581 3394 1956 3394 
Q 2575 3394 2891 2797 
L 3266 4581 
L 3828 4581 
L 2872 0 
L 2350 0 
L 2450 481 
z
M 900 1391 
Q 900 1044 969 844 
Q 1038 644 1203 511 
Q 1369 378 1600 378 
Q 1984 378 2297 778 
Q 2716 1309 2716 2091 
Q 2716 2484 2509 2706 
Q 2303 2928 1991 2928 
Q 1788 2928 1620 2837 
Q 1453 2747 1289 2530 
Q 1125 2313 1012 1978 
Q 900 1644 900 1391 
z
" id="Arial-ItalicMT-64" transform="scale(0.015625)"/>
     </defs>
     <use xlink:href="#Arial-ItalicMT-61"/>
     <use x="55.615234" xlink:href="#Arial-ItalicMT-64"/>
     <use x="111.230469" xlink:href="#Arial-ItalicMT-6e"/>
     <use x="166.845703" xlink:href="#Arial-ItalicMT-33"/>
    </g>
   </g>
   <g id="text_35">
    <!-- frp2 -->
    <g transform="translate(402.541869 237.124532)scale(0.153206 -0.153206)">
     <use xlink:href="#Arial-ItalicMT-66"/>
     <use x="27.783203" xlink:href="#Arial-ItalicMT-72"/>
     <use x="61.083984" xlink:href="#Arial-ItalicMT-70"/>
     <use x="116.699219" xlink:href="#Arial-ItalicMT-32"/>
    </g>
   </g>
   <g id="text_36">
    <!-- git3 -->
    <g transform="translate(402.541869 250.299747)scale(0.153206 -0.153206)">
     <use xlink:href="#Arial-ItalicMT-67"/>
     <use x="55.615234" xlink:href="#Arial-ItalicMT-69"/>
     <use x="77.832031" xlink:href="#Arial-ItalicMT-74"/>
     <use x="105.615234" xlink:href="#Arial-ItalicMT-33"/>
    </g>
   </g>
   <g id="text_37">
    <!-- git5 -->
    <g transform="translate(402.541869 263.474962)scale(0.153206 -0.153206)">
     <defs>
      <path d="M 447 1309 
L 1022 1366 
Q 1016 1244 1016 1219 
Q 1016 1013 1120 803 
Q 1225 594 1404 483 
Q 1584 372 1784 372 
Q 2047 372 2319 553 
Q 2591 734 2759 1081 
Q 2928 1428 2928 1769 
Q 2928 2153 2701 2384 
Q 2475 2616 2106 2616 
Q 1859 2616 1639 2497 
Q 1419 2378 1228 2141 
L 734 2175 
L 1425 4519 
L 3663 4519 
L 3553 4000 
L 1813 4000 
L 1469 2834 
Q 1663 2975 1867 3045 
Q 2072 3116 2288 3116 
Q 2813 3116 3150 2769 
Q 3488 2422 3488 1819 
Q 3488 1291 3256 845 
Q 3025 400 2620 161 
Q 2216 -78 1747 -78 
Q 1353 -78 1050 100 
Q 747 278 595 590 
Q 444 903 444 1216 
Q 444 1247 447 1309 
z
" id="Arial-ItalicMT-35" transform="scale(0.015625)"/>
     </defs>
     <use xlink:href="#Arial-ItalicMT-67"/>
     <use x="55.615234" xlink:href="#Arial-ItalicMT-69"/>
     <use x="77.832031" xlink:href="#Arial-ItalicMT-74"/>
     <use x="105.615234" xlink:href="#Arial-ItalicMT-35"/>
    </g>
   </g>
   <g id="text_38">
    <!-- gpa2 -->
    <g transform="translate(402.541869 276.650177)scale(0.153206 -0.153206)">
     <use xlink:href="#Arial-ItalicMT-67"/>
     <use x="55.615234" xlink:href="#Arial-ItalicMT-70"/>
     <use x="111.230469" xlink:href="#Arial-ItalicMT-61"/>
     <use x="166.845703" xlink:href="#Arial-ItalicMT-32"/>
    </g>
   </g>
   <g id="text_39">
    <!-- ldb1 -->
    <g transform="translate(402.541869 289.825393)scale(0.153206 -0.153206)">
     <use xlink:href="#Arial-ItalicMT-6c"/>
     <use x="22.216797" xlink:href="#Arial-ItalicMT-64"/>
     <use x="77.832031" xlink:href="#Arial-ItalicMT-62"/>
     <use x="133.447266" xlink:href="#Arial-ItalicMT-31"/>
    </g>
   </g>
   <g id="text_40">
    <!-- mbx2 -->
    <g transform="translate(402.541869 303.000608)scale(0.153206 -0.153206)">
     <use xlink:href="#Arial-ItalicMT-6d"/>
     <use x="83.300781" xlink:href="#Arial-ItalicMT-62"/>
     <use x="138.916016" xlink:href="#Arial-ItalicMT-78"/>
     <use x="188.916016" xlink:href="#Arial-ItalicMT-32"/>
    </g>
   </g>
   <g id="text_41">
    <!-- med13 -->
    <g transform="translate(402.541869 316.175823)scale(0.153206 -0.153206)">
     <use xlink:href="#Arial-ItalicMT-6d"/>
     <use x="83.300781" xlink:href="#Arial-ItalicMT-65"/>
     <use x="138.916016" xlink:href="#Arial-ItalicMT-64"/>
     <use x="194.53125" xlink:href="#Arial-ItalicMT-31"/>
     <use x="250.146484" xlink:href="#Arial-ItalicMT-33"/>
    </g>
   </g>
   <g id="text_42">
    <!-- mnn9 -->
    <g transform="translate(402.541869 329.351038)scale(0.153206 -0.153206)">
     <defs>
      <path d="M 431 1050 
L 963 1103 
Q 1016 719 1181 556 
Q 1347 394 1575 394 
Q 1900 394 2178 675 
Q 2588 1088 2781 1859 
Q 2497 1647 2276 1556 
Q 2056 1466 1825 1466 
Q 1406 1466 1075 1747 
Q 638 2113 638 2797 
Q 638 3572 1144 4125 
Q 1578 4600 2209 4600 
Q 2778 4600 3153 4179 
Q 3528 3759 3528 2991 
Q 3528 2244 3278 1516 
Q 2981 659 2475 253 
Q 2063 -78 1547 -78 
Q 1072 -78 770 217 
Q 469 513 431 1050 
z
M 1184 2863 
Q 1184 2431 1414 2175 
Q 1644 1919 1959 1919 
Q 2194 1919 2425 2078 
Q 2656 2238 2822 2555 
Q 2988 2872 2988 3206 
Q 2988 3469 2878 3694 
Q 2769 3919 2580 4033 
Q 2391 4147 2197 4147 
Q 2009 4147 1828 4047 
Q 1647 3947 1492 3753 
Q 1338 3559 1261 3307 
Q 1184 3056 1184 2863 
z
" id="Arial-ItalicMT-39" transform="scale(0.015625)"/>
     </defs>
     <use xlink:href="#Arial-ItalicMT-6d"/>
     <use x="83.300781" xlink:href="#Arial-ItalicMT-6e"/>
     <use x="138.916016" xlink:href="#Arial-ItalicMT-6e"/>
     <use x="194.53125" xlink:href="#Arial-ItalicMT-39"/>
    </g>
   </g>
   <g id="text_43">
    <!-- pka1 -->
    <g transform="translate(466.42496 235.927396)scale(0.153206 -0.153206)">
     <use xlink:href="#Arial-ItalicMT-70"/>
     <use x="55.615234" xlink:href="#Arial-ItalicMT-6b"/>
     <use x="105.615234" xlink:href="#Arial-ItalicMT-61"/>
     <use x="161.230469" xlink:href="#Arial-ItalicMT-31"/>
    </g>
   </g>
   <g id="text_44">
    <!-- psu2 -->
    <g transform="translate(466.42496 249.102611)scale(0.153206 -0.153206)">
     <use xlink:href="#Arial-ItalicMT-70"/>
     <use x="55.615234" xlink:href="#Arial-ItalicMT-73"/>
     <use x="105.615234" xlink:href="#Arial-ItalicMT-75"/>
     <use x="161.230469" xlink:href="#Arial-ItalicMT-32"/>
    </g>
   </g>
   <g id="text_45">
    <!-- ral2 -->
    <g transform="translate(466.42496 262.277826)scale(0.153206 -0.153206)">
     <use xlink:href="#Arial-ItalicMT-72"/>
     <use x="33.300781" xlink:href="#Arial-ItalicMT-61"/>
     <use x="88.916016" xlink:href="#Arial-ItalicMT-6c"/>
     <use x="111.132812" xlink:href="#Arial-ItalicMT-32"/>
    </g>
   </g>
   <g id="text_46">
    <!-- rst2 -->
    <g transform="translate(466.42496 275.453042)scale(0.153206 -0.153206)">
     <use xlink:href="#Arial-ItalicMT-72"/>
     <use x="33.300781" xlink:href="#Arial-ItalicMT-73"/>
     <use x="83.300781" xlink:href="#Arial-ItalicMT-74"/>
     <use x="111.083984" xlink:href="#Arial-ItalicMT-32"/>
    </g>
   </g>
   <g id="text_47">
    <!-- snf5 -->
    <g transform="translate(466.42496 288.628257)scale(0.153206 -0.153206)">
     <use xlink:href="#Arial-ItalicMT-73"/>
     <use x="50" xlink:href="#Arial-ItalicMT-6e"/>
     <use x="105.615234" xlink:href="#Arial-ItalicMT-66"/>
     <use x="133.398438" xlink:href="#Arial-ItalicMT-35"/>
    </g>
   </g>
   <g id="text_48">
    <!-- srb10 -->
    <g transform="translate(466.42496 301.803472)scale(0.153206 -0.153206)">
     <use xlink:href="#Arial-ItalicMT-73"/>
     <use x="50" xlink:href="#Arial-ItalicMT-72"/>
     <use x="83.300781" xlink:href="#Arial-ItalicMT-62"/>
     <use x="138.916016" xlink:href="#Arial-ItalicMT-31"/>
     <use x="194.53125" xlink:href="#Arial-ItalicMT-30"/>
    </g>
   </g>
   <g id="text_49">
    <!-- tea1 -->
    <g transform="translate(466.42496 314.978687)scale(0.153206 -0.153206)">
     <use xlink:href="#Arial-ItalicMT-74"/>
     <use x="27.783203" xlink:href="#Arial-ItalicMT-65"/>
     <use x="83.398438" xlink:href="#Arial-ItalicMT-61"/>
     <use x="139.013672" xlink:href="#Arial-ItalicMT-31"/>
    </g>
   </g>
   <g id="text_50">
    <!-- tup12 -->
    <g transform="translate(466.42496 328.153903)scale(0.153206 -0.153206)">
     <use xlink:href="#Arial-ItalicMT-74"/>
     <use x="27.783203" xlink:href="#Arial-ItalicMT-75"/>
     <use x="83.398438" xlink:href="#Arial-ItalicMT-70"/>
     <use x="139.013672" xlink:href="#Arial-ItalicMT-31"/>
     <use x="194.628906" xlink:href="#Arial-ItalicMT-32"/>
    </g>
   </g>
   <g id="text_51">
    <!-- ubr1 -->
    <g transform="translate(466.42496 341.329118)scale(0.153206 -0.153206)">
     <use xlink:href="#Arial-ItalicMT-75"/>
     <use x="55.615234" xlink:href="#Arial-ItalicMT-62"/>
     <use x="111.230469" xlink:href="#Arial-ItalicMT-72"/>
     <use x="144.53125" xlink:href="#Arial-ItalicMT-31"/>
    </g>
   </g>
   <g id="text_52">
    <!-- Venn diagram of functional orthologs -->
    <g transform="translate(351.066591 15.935625)scale(0.12 -0.12)">
     <defs>
      <path d="M 1803 0 
L 28 4581 
L 684 4581 
L 1875 1253 
Q 2019 853 2116 503 
Q 2222 878 2363 1253 
L 3600 4581 
L 4219 4581 
L 2425 0 
L 1803 0 
z
" id="ArialMT-56" transform="scale(0.015625)"/>
      <path d="M 2694 1069 
L 3275 997 
Q 3138 488 2766 206 
Q 2394 -75 1816 -75 
Q 1088 -75 661 373 
Q 234 822 234 1631 
Q 234 2469 665 2931 
Q 1097 3394 1784 3394 
Q 2450 3394 2872 2941 
Q 3294 2488 3294 1666 
Q 3294 1616 3291 1516 
L 816 1516 
Q 847 969 1125 678 
Q 1403 388 1819 388 
Q 2128 388 2347 550 
Q 2566 713 2694 1069 
z
M 847 1978 
L 2700 1978 
Q 2663 2397 2488 2606 
Q 2219 2931 1791 2931 
Q 1403 2931 1139 2672 
Q 875 2413 847 1978 
z
" id="ArialMT-65" transform="scale(0.015625)"/>
      <path d="M 422 0 
L 422 3319 
L 928 3319 
L 928 2847 
Q 1294 3394 1984 3394 
Q 2284 3394 2536 3286 
Q 2788 3178 2913 3003 
Q 3038 2828 3088 2588 
Q 3119 2431 3119 2041 
L 3119 0 
L 2556 0 
L 2556 2019 
Q 2556 2363 2490 2533 
Q 2425 2703 2258 2804 
Q 2091 2906 1866 2906 
Q 1506 2906 1245 2678 
Q 984 2450 984 1813 
L 984 0 
L 422 0 
z
" id="ArialMT-6e" transform="scale(0.015625)"/>
      <path id="ArialMT-20" transform="scale(0.015625)"/>
      <path d="M 2575 0 
L 2575 419 
Q 2259 -75 1647 -75 
Q 1250 -75 917 144 
Q 584 363 401 755 
Q 219 1147 219 1656 
Q 219 2153 384 2558 
Q 550 2963 881 3178 
Q 1213 3394 1622 3394 
Q 1922 3394 2156 3267 
Q 2391 3141 2538 2938 
L 2538 4581 
L 3097 4581 
L 3097 0 
L 2575 0 
z
M 797 1656 
Q 797 1019 1065 703 
Q 1334 388 1700 388 
Q 2069 388 2326 689 
Q 2584 991 2584 1609 
Q 2584 2291 2321 2609 
Q 2059 2928 1675 2928 
Q 1300 2928 1048 2622 
Q 797 2316 797 1656 
z
" id="ArialMT-64" transform="scale(0.015625)"/>
      <path d="M 425 3934 
L 425 4581 
L 988 4581 
L 988 3934 
L 425 3934 
z
M 425 0 
L 425 3319 
L 988 3319 
L 988 0 
L 425 0 
z
" id="ArialMT-69" transform="scale(0.015625)"/>
      <path d="M 2588 409 
Q 2275 144 1986 34 
Q 1697 -75 1366 -75 
Q 819 -75 525 192 
Q 231 459 231 875 
Q 231 1119 342 1320 
Q 453 1522 633 1644 
Q 813 1766 1038 1828 
Q 1203 1872 1538 1913 
Q 2219 1994 2541 2106 
Q 2544 2222 2544 2253 
Q 2544 2597 2384 2738 
Q 2169 2928 1744 2928 
Q 1347 2928 1158 2789 
Q 969 2650 878 2297 
L 328 2372 
Q 403 2725 575 2942 
Q 747 3159 1072 3276 
Q 1397 3394 1825 3394 
Q 2250 3394 2515 3294 
Q 2781 3194 2906 3042 
Q 3031 2891 3081 2659 
Q 3109 2516 3109 2141 
L 3109 1391 
Q 3109 606 3145 398 
Q 3181 191 3288 0 
L 2700 0 
Q 2613 175 2588 409 
z
M 2541 1666 
Q 2234 1541 1622 1453 
Q 1275 1403 1131 1340 
Q 988 1278 909 1158 
Q 831 1038 831 891 
Q 831 666 1001 516 
Q 1172 366 1500 366 
Q 1825 366 2078 508 
Q 2331 650 2450 897 
Q 2541 1088 2541 1459 
L 2541 1666 
z
" id="ArialMT-61" transform="scale(0.015625)"/>
      <path d="M 319 -275 
L 866 -356 
Q 900 -609 1056 -725 
Q 1266 -881 1628 -881 
Q 2019 -881 2231 -725 
Q 2444 -569 2519 -288 
Q 2563 -116 2559 434 
Q 2191 0 1641 0 
Q 956 0 581 494 
Q 206 988 206 1678 
Q 206 2153 378 2554 
Q 550 2956 876 3175 
Q 1203 3394 1644 3394 
Q 2231 3394 2613 2919 
L 2613 3319 
L 3131 3319 
L 3131 450 
Q 3131 -325 2973 -648 
Q 2816 -972 2473 -1159 
Q 2131 -1347 1631 -1347 
Q 1038 -1347 672 -1080 
Q 306 -813 319 -275 
z
M 784 1719 
Q 784 1066 1043 766 
Q 1303 466 1694 466 
Q 2081 466 2343 764 
Q 2606 1063 2606 1700 
Q 2606 2309 2336 2618 
Q 2066 2928 1684 2928 
Q 1309 2928 1046 2623 
Q 784 2319 784 1719 
z
" id="ArialMT-67" transform="scale(0.015625)"/>
      <path d="M 416 0 
L 416 3319 
L 922 3319 
L 922 2816 
Q 1116 3169 1280 3281 
Q 1444 3394 1641 3394 
Q 1925 3394 2219 3213 
L 2025 2691 
Q 1819 2813 1613 2813 
Q 1428 2813 1281 2702 
Q 1134 2591 1072 2394 
Q 978 2094 978 1738 
L 978 0 
L 416 0 
z
" id="ArialMT-72" transform="scale(0.015625)"/>
      <path d="M 422 0 
L 422 3319 
L 925 3319 
L 925 2853 
Q 1081 3097 1340 3245 
Q 1600 3394 1931 3394 
Q 2300 3394 2536 3241 
Q 2772 3088 2869 2813 
Q 3263 3394 3894 3394 
Q 4388 3394 4653 3120 
Q 4919 2847 4919 2278 
L 4919 0 
L 4359 0 
L 4359 2091 
Q 4359 2428 4304 2576 
Q 4250 2725 4106 2815 
Q 3963 2906 3769 2906 
Q 3419 2906 3187 2673 
Q 2956 2441 2956 1928 
L 2956 0 
L 2394 0 
L 2394 2156 
Q 2394 2531 2256 2718 
Q 2119 2906 1806 2906 
Q 1569 2906 1367 2781 
Q 1166 2656 1075 2415 
Q 984 2175 984 1722 
L 984 0 
L 422 0 
z
" id="ArialMT-6d" transform="scale(0.015625)"/>
      <path d="M 213 1659 
Q 213 2581 725 3025 
Q 1153 3394 1769 3394 
Q 2453 3394 2887 2945 
Q 3322 2497 3322 1706 
Q 3322 1066 3130 698 
Q 2938 331 2570 128 
Q 2203 -75 1769 -75 
Q 1072 -75 642 372 
Q 213 819 213 1659 
z
M 791 1659 
Q 791 1022 1069 705 
Q 1347 388 1769 388 
Q 2188 388 2466 706 
Q 2744 1025 2744 1678 
Q 2744 2294 2464 2611 
Q 2184 2928 1769 2928 
Q 1347 2928 1069 2612 
Q 791 2297 791 1659 
z
" id="ArialMT-6f" transform="scale(0.015625)"/>
      <path d="M 556 0 
L 556 2881 
L 59 2881 
L 59 3319 
L 556 3319 
L 556 3672 
Q 556 4006 616 4169 
Q 697 4388 901 4523 
Q 1106 4659 1475 4659 
Q 1713 4659 2000 4603 
L 1916 4113 
Q 1741 4144 1584 4144 
Q 1328 4144 1222 4034 
Q 1116 3925 1116 3625 
L 1116 3319 
L 1763 3319 
L 1763 2881 
L 1116 2881 
L 1116 0 
L 556 0 
z
" id="ArialMT-66" transform="scale(0.015625)"/>
      <path d="M 2597 0 
L 2597 488 
Q 2209 -75 1544 -75 
Q 1250 -75 995 37 
Q 741 150 617 320 
Q 494 491 444 738 
Q 409 903 409 1263 
L 409 3319 
L 972 3319 
L 972 1478 
Q 972 1038 1006 884 
Q 1059 663 1231 536 
Q 1403 409 1656 409 
Q 1909 409 2131 539 
Q 2353 669 2445 892 
Q 2538 1116 2538 1541 
L 2538 3319 
L 3100 3319 
L 3100 0 
L 2597 0 
z
" id="ArialMT-75" transform="scale(0.015625)"/>
      <path d="M 2588 1216 
L 3141 1144 
Q 3050 572 2676 248 
Q 2303 -75 1759 -75 
Q 1078 -75 664 370 
Q 250 816 250 1647 
Q 250 2184 428 2587 
Q 606 2991 970 3192 
Q 1334 3394 1763 3394 
Q 2303 3394 2647 3120 
Q 2991 2847 3088 2344 
L 2541 2259 
Q 2463 2594 2264 2762 
Q 2066 2931 1784 2931 
Q 1359 2931 1093 2626 
Q 828 2322 828 1663 
Q 828 994 1084 691 
Q 1341 388 1753 388 
Q 2084 388 2306 591 
Q 2528 794 2588 1216 
z
" id="ArialMT-63" transform="scale(0.015625)"/>
      <path d="M 1650 503 
L 1731 6 
Q 1494 -44 1306 -44 
Q 1000 -44 831 53 
Q 663 150 594 308 
Q 525 466 525 972 
L 525 2881 
L 113 2881 
L 113 3319 
L 525 3319 
L 525 4141 
L 1084 4478 
L 1084 3319 
L 1650 3319 
L 1650 2881 
L 1084 2881 
L 1084 941 
Q 1084 700 1114 631 
Q 1144 563 1211 522 
Q 1278 481 1403 481 
Q 1497 481 1650 503 
z
" id="ArialMT-74" transform="scale(0.015625)"/>
      <path d="M 409 0 
L 409 4581 
L 972 4581 
L 972 0 
L 409 0 
z
" id="ArialMT-6c" transform="scale(0.015625)"/>
      <path d="M 422 0 
L 422 4581 
L 984 4581 
L 984 2938 
Q 1378 3394 1978 3394 
Q 2347 3394 2619 3248 
Q 2891 3103 3008 2847 
Q 3125 2591 3125 2103 
L 3125 0 
L 2563 0 
L 2563 2103 
Q 2563 2525 2380 2717 
Q 2197 2909 1863 2909 
Q 1613 2909 1392 2779 
Q 1172 2650 1078 2428 
Q 984 2206 984 1816 
L 984 0 
L 422 0 
z
" id="ArialMT-68" transform="scale(0.015625)"/>
      <path d="M 197 991 
L 753 1078 
Q 800 744 1014 566 
Q 1228 388 1613 388 
Q 2000 388 2187 545 
Q 2375 703 2375 916 
Q 2375 1106 2209 1216 
Q 2094 1291 1634 1406 
Q 1016 1563 777 1677 
Q 538 1791 414 1992 
Q 291 2194 291 2438 
Q 291 2659 392 2848 
Q 494 3038 669 3163 
Q 800 3259 1026 3326 
Q 1253 3394 1513 3394 
Q 1903 3394 2198 3281 
Q 2494 3169 2634 2976 
Q 2775 2784 2828 2463 
L 2278 2388 
Q 2241 2644 2061 2787 
Q 1881 2931 1553 2931 
Q 1166 2931 1000 2803 
Q 834 2675 834 2503 
Q 834 2394 903 2306 
Q 972 2216 1119 2156 
Q 1203 2125 1616 2013 
Q 2213 1853 2448 1751 
Q 2684 1650 2818 1456 
Q 2953 1263 2953 975 
Q 2953 694 2789 445 
Q 2625 197 2315 61 
Q 2006 -75 1616 -75 
Q 969 -75 630 194 
Q 291 463 197 991 
z
" id="ArialMT-73" transform="scale(0.015625)"/>
     </defs>
     <use xlink:href="#ArialMT-56"/>
     <use x="61.199219" xlink:href="#ArialMT-65"/>
     <use x="116.814453" xlink:href="#ArialMT-6e"/>
     <use x="172.429688" xlink:href="#ArialMT-6e"/>
     <use x="228.044922" xlink:href="#ArialMT-20"/>
     <use x="255.828125" xlink:href="#ArialMT-64"/>
     <use x="311.443359" xlink:href="#ArialMT-69"/>
     <use x="333.660156" xlink:href="#ArialMT-61"/>
     <use x="389.275391" xlink:href="#ArialMT-67"/>
     <use x="444.890625" xlink:href="#ArialMT-72"/>
     <use x="478.191406" xlink:href="#ArialMT-61"/>
     <use x="533.806641" xlink:href="#ArialMT-6d"/>
     <use x="617.107422" xlink:href="#ArialMT-20"/>
     <use x="644.890625" xlink:href="#ArialMT-6f"/>
     <use x="700.505859" xlink:href="#ArialMT-66"/>
     <use x="728.289062" xlink:href="#ArialMT-20"/>
     <use x="756.072266" xlink:href="#ArialMT-66"/>
     <use x="783.855469" xlink:href="#ArialMT-75"/>
     <use x="839.470703" xlink:href="#ArialMT-6e"/>
     <use x="895.085938" xlink:href="#ArialMT-63"/>
     <use x="945.085938" xlink:href="#ArialMT-74"/>
     <use x="972.869141" xlink:href="#ArialMT-69"/>
     <use x="995.085938" xlink:href="#ArialMT-6f"/>
     <use x="1050.701172" xlink:href="#ArialMT-6e"/>
     <use x="1106.316406" xlink:href="#ArialMT-61"/>
     <use x="1161.931641" xlink:href="#ArialMT-6c"/>
     <use x="1184.148438" xlink:href="#ArialMT-20"/>
     <use x="1211.931641" xlink:href="#ArialMT-6f"/>
     <use x="1267.546875" xlink:href="#ArialMT-72"/>
     <use x="1300.847656" xlink:href="#ArialMT-74"/>
     <use x="1328.630859" xlink:href="#ArialMT-68"/>
     <use x="1384.246094" xlink:href="#ArialMT-6f"/>
     <use x="1439.861328" xlink:href="#ArialMT-6c"/>
     <use x="1462.078125" xlink:href="#ArialMT-6f"/>
     <use x="1517.693359" xlink:href="#ArialMT-67"/>
     <use x="1573.308594" xlink:href="#ArialMT-73"/>
    </g>
   </g>
  </g>
 </g>
 <defs>
  <clipPath id="pcab751996c">
   <rect height="539.567828" width="558" x="169.457841" y="21.935625"/>
  </clipPath>
 </defs>
</svg>
