<?xml version="1.0" encoding="utf-8" standalone="no"?>
<!DOCTYPE svg PUBLIC "-//W3C//DTD SVG 1.1//EN"
  "http://www.w3.org/Graphics/SVG/1.1/DTD/svg11.dtd">
<svg height="504pt" version="1.1" viewBox="0 0 504 504" width="504pt" xmlns="http://www.w3.org/2000/svg" xmlns:xlink="http://www.w3.org/1999/xlink">
 <metadata>
  <rdf:RDF xmlns:cc="http://creativecommons.org/ns#" xmlns:dc="http://purl.org/dc/elements/1.1/" xmlns:rdf="http://www.w3.org/1999/02/22-rdf-syntax-ns#">
   <cc:Work>
    <dc:type rdf:resource="http://purl.org/dc/dcmitype/StillImage"/>
    <dc:date>2023-08-20T21:18:48.587171</dc:date>
    <dc:format>image/svg+xml</dc:format>
    <dc:creator>
     <cc:Agent>
      <dc:title>Matplotlib v3.4.3, https://matplotlib.org/</dc:title>
     </cc:Agent>
    </dc:creator>
   </cc:Work>
  </rdf:RDF>
 </metadata>
 <defs>
  <style type="text/css">*{stroke-linecap:butt;stroke-linejoin:round;}</style>
 </defs>
 <g id="figure_1">
  <g id="patch_1">
   <path d="M 0 504 
L 504 504 
L 504 0 
L 0 0 
z
" style="fill:#ffffff;"/>
  </g>
  <g id="axes_1">
   <g id="patch_2">
    <path d="M 63 448.56 
L 453.6 448.56 
L 453.6 60.48 
L 63 60.48 
z
" style="fill:#ffffff;"/>
   </g>
   <g id="matplotlib.axis_1">
    <g id="xtick_1">
     <g id="line2d_1">
      <defs>
       <path d="M 0 0 
L 0 3.5 
" id="m67f6d60344" style="stroke:#000000;stroke-width:0.8;"/>
      </defs>
      <g>
       <use style="stroke:#000000;stroke-width:0.8;" x="123.752569" xlink:href="#m67f6d60344" y="448.56"/>
      </g>
     </g>
     <g id="text_1">
      <!-- 0.2 -->
      <g transform="translate(111.242569 468.444063)scale(0.18 -0.18)">
       <defs>
        <path d="M 266 2259 
Q 266 3072 433 3567 
Q 600 4063 929 4331 
Q 1259 4600 1759 4600 
Q 2128 4600 2406 4451 
Q 2684 4303 2865 4023 
Q 3047 3744 3150 3342 
Q 3253 2941 3253 2259 
Q 3253 1453 3087 958 
Q 2922 463 2592 192 
Q 2263 -78 1759 -78 
Q 1097 -78 719 397 
Q 266 969 266 2259 
z
M 844 2259 
Q 844 1131 1108 757 
Q 1372 384 1759 384 
Q 2147 384 2411 759 
Q 2675 1134 2675 2259 
Q 2675 3391 2411 3762 
Q 2147 4134 1753 4134 
Q 1366 4134 1134 3806 
Q 844 3388 844 2259 
z
" id="ArialMT-30" transform="scale(0.015625)"/>
        <path d="M 581 0 
L 581 641 
L 1222 641 
L 1222 0 
L 581 0 
z
" id="ArialMT-2e" transform="scale(0.015625)"/>
        <path d="M 3222 541 
L 3222 0 
L 194 0 
Q 188 203 259 391 
Q 375 700 629 1000 
Q 884 1300 1366 1694 
Q 2113 2306 2375 2664 
Q 2638 3022 2638 3341 
Q 2638 3675 2398 3904 
Q 2159 4134 1775 4134 
Q 1369 4134 1125 3890 
Q 881 3647 878 3216 
L 300 3275 
Q 359 3922 746 4261 
Q 1134 4600 1788 4600 
Q 2447 4600 2831 4234 
Q 3216 3869 3216 3328 
Q 3216 3053 3103 2787 
Q 2991 2522 2730 2228 
Q 2469 1934 1863 1422 
Q 1356 997 1212 845 
Q 1069 694 975 541 
L 3222 541 
z
" id="ArialMT-32" transform="scale(0.015625)"/>
       </defs>
       <use xlink:href="#ArialMT-30"/>
       <use x="55.615234" xlink:href="#ArialMT-2e"/>
       <use x="83.398438" xlink:href="#ArialMT-32"/>
      </g>
     </g>
    </g>
    <g id="xtick_2">
     <g id="line2d_2">
      <g>
       <use style="stroke:#000000;stroke-width:0.8;" x="202.460285" xlink:href="#m67f6d60344" y="448.56"/>
      </g>
     </g>
     <g id="text_2">
      <!-- 0.4 -->
      <g transform="translate(189.950285 468.444063)scale(0.18 -0.18)">
       <defs>
        <path d="M 2069 0 
L 2069 1097 
L 81 1097 
L 81 1613 
L 2172 4581 
L 2631 4581 
L 2631 1613 
L 3250 1613 
L 3250 1097 
L 2631 1097 
L 2631 0 
L 2069 0 
z
M 2069 1613 
L 2069 3678 
L 634 1613 
L 2069 1613 
z
" id="ArialMT-34" transform="scale(0.015625)"/>
       </defs>
       <use xlink:href="#ArialMT-30"/>
       <use x="55.615234" xlink:href="#ArialMT-2e"/>
       <use x="83.398438" xlink:href="#ArialMT-34"/>
      </g>
     </g>
    </g>
    <g id="xtick_3">
     <g id="line2d_3">
      <g>
       <use style="stroke:#000000;stroke-width:0.8;" x="281.168" xlink:href="#m67f6d60344" y="448.56"/>
      </g>
     </g>
     <g id="text_3">
      <!-- 0.6 -->
      <g transform="translate(268.658 468.444063)scale(0.18 -0.18)">
       <defs>
        <path d="M 3184 3459 
L 2625 3416 
Q 2550 3747 2413 3897 
Q 2184 4138 1850 4138 
Q 1581 4138 1378 3988 
Q 1113 3794 959 3422 
Q 806 3050 800 2363 
Q 1003 2672 1297 2822 
Q 1591 2972 1913 2972 
Q 2475 2972 2870 2558 
Q 3266 2144 3266 1488 
Q 3266 1056 3080 686 
Q 2894 316 2569 119 
Q 2244 -78 1831 -78 
Q 1128 -78 684 439 
Q 241 956 241 2144 
Q 241 3472 731 4075 
Q 1159 4600 1884 4600 
Q 2425 4600 2770 4297 
Q 3116 3994 3184 3459 
z
M 888 1484 
Q 888 1194 1011 928 
Q 1134 663 1356 523 
Q 1578 384 1822 384 
Q 2178 384 2434 671 
Q 2691 959 2691 1453 
Q 2691 1928 2437 2201 
Q 2184 2475 1800 2475 
Q 1419 2475 1153 2201 
Q 888 1928 888 1484 
z
" id="ArialMT-36" transform="scale(0.015625)"/>
       </defs>
       <use xlink:href="#ArialMT-30"/>
       <use x="55.615234" xlink:href="#ArialMT-2e"/>
       <use x="83.398438" xlink:href="#ArialMT-36"/>
      </g>
     </g>
    </g>
    <g id="xtick_4">
     <g id="line2d_4">
      <g>
       <use style="stroke:#000000;stroke-width:0.8;" x="359.875716" xlink:href="#m67f6d60344" y="448.56"/>
      </g>
     </g>
     <g id="text_4">
      <!-- 0.8 -->
      <g transform="translate(347.365716 468.444063)scale(0.18 -0.18)">
       <defs>
        <path d="M 1131 2484 
Q 781 2613 612 2850 
Q 444 3088 444 3419 
Q 444 3919 803 4259 
Q 1163 4600 1759 4600 
Q 2359 4600 2725 4251 
Q 3091 3903 3091 3403 
Q 3091 3084 2923 2848 
Q 2756 2613 2416 2484 
Q 2838 2347 3058 2040 
Q 3278 1734 3278 1309 
Q 3278 722 2862 322 
Q 2447 -78 1769 -78 
Q 1091 -78 675 323 
Q 259 725 259 1325 
Q 259 1772 486 2073 
Q 713 2375 1131 2484 
z
M 1019 3438 
Q 1019 3113 1228 2906 
Q 1438 2700 1772 2700 
Q 2097 2700 2305 2904 
Q 2513 3109 2513 3406 
Q 2513 3716 2298 3927 
Q 2084 4138 1766 4138 
Q 1444 4138 1231 3931 
Q 1019 3725 1019 3438 
z
M 838 1322 
Q 838 1081 952 856 
Q 1066 631 1291 507 
Q 1516 384 1775 384 
Q 2178 384 2440 643 
Q 2703 903 2703 1303 
Q 2703 1709 2433 1975 
Q 2163 2241 1756 2241 
Q 1359 2241 1098 1978 
Q 838 1716 838 1322 
z
" id="ArialMT-38" transform="scale(0.015625)"/>
       </defs>
       <use xlink:href="#ArialMT-30"/>
       <use x="55.615234" xlink:href="#ArialMT-2e"/>
       <use x="83.398438" xlink:href="#ArialMT-38"/>
      </g>
     </g>
    </g>
    <g id="xtick_5">
     <g id="line2d_5">
      <g>
       <use style="stroke:#000000;stroke-width:0.8;" x="438.583431" xlink:href="#m67f6d60344" y="448.56"/>
      </g>
     </g>
     <g id="text_5">
      <!-- 1.0 -->
      <g transform="translate(426.073431 468.444063)scale(0.18 -0.18)">
       <defs>
        <path d="M 2384 0 
L 1822 0 
L 1822 3584 
Q 1619 3391 1289 3197 
Q 959 3003 697 2906 
L 697 3450 
Q 1169 3672 1522 3987 
Q 1875 4303 2022 4600 
L 2384 4600 
L 2384 0 
z
" id="ArialMT-31" transform="scale(0.015625)"/>
       </defs>
       <use xlink:href="#ArialMT-31"/>
       <use x="55.615234" xlink:href="#ArialMT-2e"/>
       <use x="83.398438" xlink:href="#ArialMT-30"/>
      </g>
     </g>
    </g>
    <g id="text_6">
     <!-- Flocculation (plate-reader assay, CV) -->
     <g transform="translate(93.979688 490.580938)scale(0.2 -0.2)">
      <defs>
       <path d="M 525 0 
L 525 4581 
L 3616 4581 
L 3616 4041 
L 1131 4041 
L 1131 2622 
L 3281 2622 
L 3281 2081 
L 1131 2081 
L 1131 0 
L 525 0 
z
" id="ArialMT-46" transform="scale(0.015625)"/>
       <path d="M 409 0 
L 409 4581 
L 972 4581 
L 972 0 
L 409 0 
z
" id="ArialMT-6c" transform="scale(0.015625)"/>
       <path d="M 213 1659 
Q 213 2581 725 3025 
Q 1153 3394 1769 3394 
Q 2453 3394 2887 2945 
Q 3322 2497 3322 1706 
Q 3322 1066 3130 698 
Q 2938 331 2570 128 
Q 2203 -75 1769 -75 
Q 1072 -75 642 372 
Q 213 819 213 1659 
z
M 791 1659 
Q 791 1022 1069 705 
Q 1347 388 1769 388 
Q 2188 388 2466 706 
Q 2744 1025 2744 1678 
Q 2744 2294 2464 2611 
Q 2184 2928 1769 2928 
Q 1347 2928 1069 2612 
Q 791 2297 791 1659 
z
" id="ArialMT-6f" transform="scale(0.015625)"/>
       <path d="M 2588 1216 
L 3141 1144 
Q 3050 572 2676 248 
Q 2303 -75 1759 -75 
Q 1078 -75 664 370 
Q 250 816 250 1647 
Q 250 2184 428 2587 
Q 606 2991 970 3192 
Q 1334 3394 1763 3394 
Q 2303 3394 2647 3120 
Q 2991 2847 3088 2344 
L 2541 2259 
Q 2463 2594 2264 2762 
Q 2066 2931 1784 2931 
Q 1359 2931 1093 2626 
Q 828 2322 828 1663 
Q 828 994 1084 691 
Q 1341 388 1753 388 
Q 2084 388 2306 591 
Q 2528 794 2588 1216 
z
" id="ArialMT-63" transform="scale(0.015625)"/>
       <path d="M 2597 0 
L 2597 488 
Q 2209 -75 1544 -75 
Q 1250 -75 995 37 
Q 741 150 617 320 
Q 494 491 444 738 
Q 409 903 409 1263 
L 409 3319 
L 972 3319 
L 972 1478 
Q 972 1038 1006 884 
Q 1059 663 1231 536 
Q 1403 409 1656 409 
Q 1909 409 2131 539 
Q 2353 669 2445 892 
Q 2538 1116 2538 1541 
L 2538 3319 
L 3100 3319 
L 3100 0 
L 2597 0 
z
" id="ArialMT-75" transform="scale(0.015625)"/>
       <path d="M 2588 409 
Q 2275 144 1986 34 
Q 1697 -75 1366 -75 
Q 819 -75 525 192 
Q 231 459 231 875 
Q 231 1119 342 1320 
Q 453 1522 633 1644 
Q 813 1766 1038 1828 
Q 1203 1872 1538 1913 
Q 2219 1994 2541 2106 
Q 2544 2222 2544 2253 
Q 2544 2597 2384 2738 
Q 2169 2928 1744 2928 
Q 1347 2928 1158 2789 
Q 969 2650 878 2297 
L 328 2372 
Q 403 2725 575 2942 
Q 747 3159 1072 3276 
Q 1397 3394 1825 3394 
Q 2250 3394 2515 3294 
Q 2781 3194 2906 3042 
Q 3031 2891 3081 2659 
Q 3109 2516 3109 2141 
L 3109 1391 
Q 3109 606 3145 398 
Q 3181 191 3288 0 
L 2700 0 
Q 2613 175 2588 409 
z
M 2541 1666 
Q 2234 1541 1622 1453 
Q 1275 1403 1131 1340 
Q 988 1278 909 1158 
Q 831 1038 831 891 
Q 831 666 1001 516 
Q 1172 366 1500 366 
Q 1825 366 2078 508 
Q 2331 650 2450 897 
Q 2541 1088 2541 1459 
L 2541 1666 
z
" id="ArialMT-61" transform="scale(0.015625)"/>
       <path d="M 1650 503 
L 1731 6 
Q 1494 -44 1306 -44 
Q 1000 -44 831 53 
Q 663 150 594 308 
Q 525 466 525 972 
L 525 2881 
L 113 2881 
L 113 3319 
L 525 3319 
L 525 4141 
L 1084 4478 
L 1084 3319 
L 1650 3319 
L 1650 2881 
L 1084 2881 
L 1084 941 
Q 1084 700 1114 631 
Q 1144 563 1211 522 
Q 1278 481 1403 481 
Q 1497 481 1650 503 
z
" id="ArialMT-74" transform="scale(0.015625)"/>
       <path d="M 425 3934 
L 425 4581 
L 988 4581 
L 988 3934 
L 425 3934 
z
M 425 0 
L 425 3319 
L 988 3319 
L 988 0 
L 425 0 
z
" id="ArialMT-69" transform="scale(0.015625)"/>
       <path d="M 422 0 
L 422 3319 
L 928 3319 
L 928 2847 
Q 1294 3394 1984 3394 
Q 2284 3394 2536 3286 
Q 2788 3178 2913 3003 
Q 3038 2828 3088 2588 
Q 3119 2431 3119 2041 
L 3119 0 
L 2556 0 
L 2556 2019 
Q 2556 2363 2490 2533 
Q 2425 2703 2258 2804 
Q 2091 2906 1866 2906 
Q 1506 2906 1245 2678 
Q 984 2450 984 1813 
L 984 0 
L 422 0 
z
" id="ArialMT-6e" transform="scale(0.015625)"/>
       <path id="ArialMT-20" transform="scale(0.015625)"/>
       <path d="M 1497 -1347 
Q 1031 -759 709 28 
Q 388 816 388 1659 
Q 388 2403 628 3084 
Q 909 3875 1497 4659 
L 1900 4659 
Q 1522 4009 1400 3731 
Q 1209 3300 1100 2831 
Q 966 2247 966 1656 
Q 966 153 1900 -1347 
L 1497 -1347 
z
" id="ArialMT-28" transform="scale(0.015625)"/>
       <path d="M 422 -1272 
L 422 3319 
L 934 3319 
L 934 2888 
Q 1116 3141 1344 3267 
Q 1572 3394 1897 3394 
Q 2322 3394 2647 3175 
Q 2972 2956 3137 2557 
Q 3303 2159 3303 1684 
Q 3303 1175 3120 767 
Q 2938 359 2589 142 
Q 2241 -75 1856 -75 
Q 1575 -75 1351 44 
Q 1128 163 984 344 
L 984 -1272 
L 422 -1272 
z
M 931 1641 
Q 931 1000 1190 694 
Q 1450 388 1819 388 
Q 2194 388 2461 705 
Q 2728 1022 2728 1688 
Q 2728 2322 2467 2637 
Q 2206 2953 1844 2953 
Q 1484 2953 1207 2617 
Q 931 2281 931 1641 
z
" id="ArialMT-70" transform="scale(0.015625)"/>
       <path d="M 2694 1069 
L 3275 997 
Q 3138 488 2766 206 
Q 2394 -75 1816 -75 
Q 1088 -75 661 373 
Q 234 822 234 1631 
Q 234 2469 665 2931 
Q 1097 3394 1784 3394 
Q 2450 3394 2872 2941 
Q 3294 2488 3294 1666 
Q 3294 1616 3291 1516 
L 816 1516 
Q 847 969 1125 678 
Q 1403 388 1819 388 
Q 2128 388 2347 550 
Q 2566 713 2694 1069 
z
M 847 1978 
L 2700 1978 
Q 2663 2397 2488 2606 
Q 2219 2931 1791 2931 
Q 1403 2931 1139 2672 
Q 875 2413 847 1978 
z
" id="ArialMT-65" transform="scale(0.015625)"/>
       <path d="M 203 1375 
L 203 1941 
L 1931 1941 
L 1931 1375 
L 203 1375 
z
" id="ArialMT-2d" transform="scale(0.015625)"/>
       <path d="M 416 0 
L 416 3319 
L 922 3319 
L 922 2816 
Q 1116 3169 1280 3281 
Q 1444 3394 1641 3394 
Q 1925 3394 2219 3213 
L 2025 2691 
Q 1819 2813 1613 2813 
Q 1428 2813 1281 2702 
Q 1134 2591 1072 2394 
Q 978 2094 978 1738 
L 978 0 
L 416 0 
z
" id="ArialMT-72" transform="scale(0.015625)"/>
       <path d="M 2575 0 
L 2575 419 
Q 2259 -75 1647 -75 
Q 1250 -75 917 144 
Q 584 363 401 755 
Q 219 1147 219 1656 
Q 219 2153 384 2558 
Q 550 2963 881 3178 
Q 1213 3394 1622 3394 
Q 1922 3394 2156 3267 
Q 2391 3141 2538 2938 
L 2538 4581 
L 3097 4581 
L 3097 0 
L 2575 0 
z
M 797 1656 
Q 797 1019 1065 703 
Q 1334 388 1700 388 
Q 2069 388 2326 689 
Q 2584 991 2584 1609 
Q 2584 2291 2321 2609 
Q 2059 2928 1675 2928 
Q 1300 2928 1048 2622 
Q 797 2316 797 1656 
z
" id="ArialMT-64" transform="scale(0.015625)"/>
       <path d="M 197 991 
L 753 1078 
Q 800 744 1014 566 
Q 1228 388 1613 388 
Q 2000 388 2187 545 
Q 2375 703 2375 916 
Q 2375 1106 2209 1216 
Q 2094 1291 1634 1406 
Q 1016 1563 777 1677 
Q 538 1791 414 1992 
Q 291 2194 291 2438 
Q 291 2659 392 2848 
Q 494 3038 669 3163 
Q 800 3259 1026 3326 
Q 1253 3394 1513 3394 
Q 1903 3394 2198 3281 
Q 2494 3169 2634 2976 
Q 2775 2784 2828 2463 
L 2278 2388 
Q 2241 2644 2061 2787 
Q 1881 2931 1553 2931 
Q 1166 2931 1000 2803 
Q 834 2675 834 2503 
Q 834 2394 903 2306 
Q 972 2216 1119 2156 
Q 1203 2125 1616 2013 
Q 2213 1853 2448 1751 
Q 2684 1650 2818 1456 
Q 2953 1263 2953 975 
Q 2953 694 2789 445 
Q 2625 197 2315 61 
Q 2006 -75 1616 -75 
Q 969 -75 630 194 
Q 291 463 197 991 
z
" id="ArialMT-73" transform="scale(0.015625)"/>
       <path d="M 397 -1278 
L 334 -750 
Q 519 -800 656 -800 
Q 844 -800 956 -737 
Q 1069 -675 1141 -563 
Q 1194 -478 1313 -144 
Q 1328 -97 1363 -6 
L 103 3319 
L 709 3319 
L 1400 1397 
Q 1534 1031 1641 628 
Q 1738 1016 1872 1384 
L 2581 3319 
L 3144 3319 
L 1881 -56 
Q 1678 -603 1566 -809 
Q 1416 -1088 1222 -1217 
Q 1028 -1347 759 -1347 
Q 597 -1347 397 -1278 
z
" id="ArialMT-79" transform="scale(0.015625)"/>
       <path d="M 569 0 
L 569 641 
L 1209 641 
L 1209 0 
Q 1209 -353 1084 -570 
Q 959 -788 688 -906 
L 531 -666 
Q 709 -588 793 -436 
Q 878 -284 888 0 
L 569 0 
z
" id="ArialMT-2c" transform="scale(0.015625)"/>
       <path d="M 3763 1606 
L 4369 1453 
Q 4178 706 3683 314 
Q 3188 -78 2472 -78 
Q 1731 -78 1267 223 
Q 803 525 561 1097 
Q 319 1669 319 2325 
Q 319 3041 592 3573 
Q 866 4106 1370 4382 
Q 1875 4659 2481 4659 
Q 3169 4659 3637 4309 
Q 4106 3959 4291 3325 
L 3694 3184 
Q 3534 3684 3231 3912 
Q 2928 4141 2469 4141 
Q 1941 4141 1586 3887 
Q 1231 3634 1087 3207 
Q 944 2781 944 2328 
Q 944 1744 1114 1308 
Q 1284 872 1643 656 
Q 2003 441 2422 441 
Q 2931 441 3284 734 
Q 3638 1028 3763 1606 
z
" id="ArialMT-43" transform="scale(0.015625)"/>
       <path d="M 1803 0 
L 28 4581 
L 684 4581 
L 1875 1253 
Q 2019 853 2116 503 
Q 2222 878 2363 1253 
L 3600 4581 
L 4219 4581 
L 2425 0 
L 1803 0 
z
" id="ArialMT-56" transform="scale(0.015625)"/>
       <path d="M 791 -1347 
L 388 -1347 
Q 1322 153 1322 1656 
Q 1322 2244 1188 2822 
Q 1081 3291 891 3722 
Q 769 4003 388 4659 
L 791 4659 
Q 1378 3875 1659 3084 
Q 1900 2403 1900 1659 
Q 1900 816 1576 28 
Q 1253 -759 791 -1347 
z
" id="ArialMT-29" transform="scale(0.015625)"/>
      </defs>
      <use xlink:href="#ArialMT-46"/>
      <use x="61.083984" xlink:href="#ArialMT-6c"/>
      <use x="83.300781" xlink:href="#ArialMT-6f"/>
      <use x="138.916016" xlink:href="#ArialMT-63"/>
      <use x="188.916016" xlink:href="#ArialMT-63"/>
      <use x="238.916016" xlink:href="#ArialMT-75"/>
      <use x="294.53125" xlink:href="#ArialMT-6c"/>
      <use x="316.748047" xlink:href="#ArialMT-61"/>
      <use x="372.363281" xlink:href="#ArialMT-74"/>
      <use x="400.146484" xlink:href="#ArialMT-69"/>
      <use x="422.363281" xlink:href="#ArialMT-6f"/>
      <use x="477.978516" xlink:href="#ArialMT-6e"/>
      <use x="533.59375" xlink:href="#ArialMT-20"/>
      <use x="561.376953" xlink:href="#ArialMT-28"/>
      <use x="594.677734" xlink:href="#ArialMT-70"/>
      <use x="650.292969" xlink:href="#ArialMT-6c"/>
      <use x="672.509766" xlink:href="#ArialMT-61"/>
      <use x="728.125" xlink:href="#ArialMT-74"/>
      <use x="755.908203" xlink:href="#ArialMT-65"/>
      <use x="811.523438" xlink:href="#ArialMT-2d"/>
      <use x="844.824219" xlink:href="#ArialMT-72"/>
      <use x="878.125" xlink:href="#ArialMT-65"/>
      <use x="933.740234" xlink:href="#ArialMT-61"/>
      <use x="989.355469" xlink:href="#ArialMT-64"/>
      <use x="1044.970703" xlink:href="#ArialMT-65"/>
      <use x="1100.585938" xlink:href="#ArialMT-72"/>
      <use x="1133.886719" xlink:href="#ArialMT-20"/>
      <use x="1161.669922" xlink:href="#ArialMT-61"/>
      <use x="1217.285156" xlink:href="#ArialMT-73"/>
      <use x="1267.285156" xlink:href="#ArialMT-73"/>
      <use x="1317.285156" xlink:href="#ArialMT-61"/>
      <use x="1372.900391" xlink:href="#ArialMT-79"/>
      <use x="1415.525391" xlink:href="#ArialMT-2c"/>
      <use x="1443.308594" xlink:href="#ArialMT-20"/>
      <use x="1471.091797" xlink:href="#ArialMT-43"/>
      <use x="1543.308594" xlink:href="#ArialMT-56"/>
      <use x="1610.007812" xlink:href="#ArialMT-29"/>
     </g>
    </g>
   </g>
   <g id="matplotlib.axis_2">
    <g id="ytick_1">
     <g id="line2d_6">
      <defs>
       <path d="M 0 0 
L -3.5 0 
" id="mfb359a38d5" style="stroke:#000000;stroke-width:0.8;"/>
      </defs>
      <g>
       <use style="stroke:#000000;stroke-width:0.8;" x="63" xlink:href="#mfb359a38d5" y="433.889109"/>
      </g>
     </g>
     <g id="text_7">
      <!-- 0.0 -->
      <g transform="translate(30.98 440.331141)scale(0.18 -0.18)">
       <use xlink:href="#ArialMT-30"/>
       <use x="55.615234" xlink:href="#ArialMT-2e"/>
       <use x="83.398438" xlink:href="#ArialMT-30"/>
      </g>
     </g>
    </g>
    <g id="ytick_2">
     <g id="line2d_7">
      <g>
       <use style="stroke:#000000;stroke-width:0.8;" x="63" xlink:href="#mfb359a38d5" y="361.841608"/>
      </g>
     </g>
     <g id="text_8">
      <!-- 0.2 -->
      <g transform="translate(30.98 368.283639)scale(0.18 -0.18)">
       <use xlink:href="#ArialMT-30"/>
       <use x="55.615234" xlink:href="#ArialMT-2e"/>
       <use x="83.398438" xlink:href="#ArialMT-32"/>
      </g>
     </g>
    </g>
    <g id="ytick_3">
     <g id="line2d_8">
      <g>
       <use style="stroke:#000000;stroke-width:0.8;" x="63" xlink:href="#mfb359a38d5" y="289.794106"/>
      </g>
     </g>
     <g id="text_9">
      <!-- 0.4 -->
      <g transform="translate(30.98 296.236137)scale(0.18 -0.18)">
       <use xlink:href="#ArialMT-30"/>
       <use x="55.615234" xlink:href="#ArialMT-2e"/>
       <use x="83.398438" xlink:href="#ArialMT-34"/>
      </g>
     </g>
    </g>
    <g id="ytick_4">
     <g id="line2d_9">
      <g>
       <use style="stroke:#000000;stroke-width:0.8;" x="63" xlink:href="#mfb359a38d5" y="217.746604"/>
      </g>
     </g>
     <g id="text_10">
      <!-- 0.6 -->
      <g transform="translate(30.98 224.188635)scale(0.18 -0.18)">
       <use xlink:href="#ArialMT-30"/>
       <use x="55.615234" xlink:href="#ArialMT-2e"/>
       <use x="83.398438" xlink:href="#ArialMT-36"/>
      </g>
     </g>
    </g>
    <g id="ytick_5">
     <g id="line2d_10">
      <g>
       <use style="stroke:#000000;stroke-width:0.8;" x="63" xlink:href="#mfb359a38d5" y="145.699102"/>
      </g>
     </g>
     <g id="text_11">
      <!-- 0.8 -->
      <g transform="translate(30.98 152.141133)scale(0.18 -0.18)">
       <use xlink:href="#ArialMT-30"/>
       <use x="55.615234" xlink:href="#ArialMT-2e"/>
       <use x="83.398438" xlink:href="#ArialMT-38"/>
      </g>
     </g>
    </g>
    <g id="ytick_6">
     <g id="line2d_11">
      <g>
       <use style="stroke:#000000;stroke-width:0.8;" x="63" xlink:href="#mfb359a38d5" y="73.6516"/>
      </g>
     </g>
     <g id="text_12">
      <!-- 1.0 -->
      <g transform="translate(30.98 80.093631)scale(0.18 -0.18)">
       <use xlink:href="#ArialMT-31"/>
       <use x="55.615234" xlink:href="#ArialMT-2e"/>
       <use x="83.398438" xlink:href="#ArialMT-30"/>
      </g>
     </g>
    </g>
    <g id="text_13">
     <!-- Adhesion (washing assay) -->
     <g transform="translate(22.770625 371.241875)rotate(-90)scale(0.2 -0.2)">
      <defs>
       <path d="M -9 0 
L 1750 4581 
L 2403 4581 
L 4278 0 
L 3588 0 
L 3053 1388 
L 1138 1388 
L 634 0 
L -9 0 
z
M 1313 1881 
L 2866 1881 
L 2388 3150 
Q 2169 3728 2063 4100 
Q 1975 3659 1816 3225 
L 1313 1881 
z
" id="ArialMT-41" transform="scale(0.015625)"/>
       <path d="M 422 0 
L 422 4581 
L 984 4581 
L 984 2938 
Q 1378 3394 1978 3394 
Q 2347 3394 2619 3248 
Q 2891 3103 3008 2847 
Q 3125 2591 3125 2103 
L 3125 0 
L 2563 0 
L 2563 2103 
Q 2563 2525 2380 2717 
Q 2197 2909 1863 2909 
Q 1613 2909 1392 2779 
Q 1172 2650 1078 2428 
Q 984 2206 984 1816 
L 984 0 
L 422 0 
z
" id="ArialMT-68" transform="scale(0.015625)"/>
       <path d="M 1034 0 
L 19 3319 
L 600 3319 
L 1128 1403 
L 1325 691 
Q 1338 744 1497 1375 
L 2025 3319 
L 2603 3319 
L 3100 1394 
L 3266 759 
L 3456 1400 
L 4025 3319 
L 4572 3319 
L 3534 0 
L 2950 0 
L 2422 1988 
L 2294 2553 
L 1622 0 
L 1034 0 
z
" id="ArialMT-77" transform="scale(0.015625)"/>
       <path d="M 319 -275 
L 866 -356 
Q 900 -609 1056 -725 
Q 1266 -881 1628 -881 
Q 2019 -881 2231 -725 
Q 2444 -569 2519 -288 
Q 2563 -116 2559 434 
Q 2191 0 1641 0 
Q 956 0 581 494 
Q 206 988 206 1678 
Q 206 2153 378 2554 
Q 550 2956 876 3175 
Q 1203 3394 1644 3394 
Q 2231 3394 2613 2919 
L 2613 3319 
L 3131 3319 
L 3131 450 
Q 3131 -325 2973 -648 
Q 2816 -972 2473 -1159 
Q 2131 -1347 1631 -1347 
Q 1038 -1347 672 -1080 
Q 306 -813 319 -275 
z
M 784 1719 
Q 784 1066 1043 766 
Q 1303 466 1694 466 
Q 2081 466 2343 764 
Q 2606 1063 2606 1700 
Q 2606 2309 2336 2618 
Q 2066 2928 1684 2928 
Q 1309 2928 1046 2623 
Q 784 2319 784 1719 
z
" id="ArialMT-67" transform="scale(0.015625)"/>
      </defs>
      <use xlink:href="#ArialMT-41"/>
      <use x="66.699219" xlink:href="#ArialMT-64"/>
      <use x="122.314453" xlink:href="#ArialMT-68"/>
      <use x="177.929688" xlink:href="#ArialMT-65"/>
      <use x="233.544922" xlink:href="#ArialMT-73"/>
      <use x="283.544922" xlink:href="#ArialMT-69"/>
      <use x="305.761719" xlink:href="#ArialMT-6f"/>
      <use x="361.376953" xlink:href="#ArialMT-6e"/>
      <use x="416.992188" xlink:href="#ArialMT-20"/>
      <use x="444.775391" xlink:href="#ArialMT-28"/>
      <use x="478.076172" xlink:href="#ArialMT-77"/>
      <use x="550.292969" xlink:href="#ArialMT-61"/>
      <use x="605.908203" xlink:href="#ArialMT-73"/>
      <use x="655.908203" xlink:href="#ArialMT-68"/>
      <use x="711.523438" xlink:href="#ArialMT-69"/>
      <use x="733.740234" xlink:href="#ArialMT-6e"/>
      <use x="789.355469" xlink:href="#ArialMT-67"/>
      <use x="844.970703" xlink:href="#ArialMT-20"/>
      <use x="872.753906" xlink:href="#ArialMT-61"/>
      <use x="928.369141" xlink:href="#ArialMT-73"/>
      <use x="978.369141" xlink:href="#ArialMT-73"/>
      <use x="1028.369141" xlink:href="#ArialMT-61"/>
      <use x="1083.984375" xlink:href="#ArialMT-79"/>
      <use x="1133.984375" xlink:href="#ArialMT-29"/>
     </g>
    </g>
   </g>
   <g id="LineCollection_1">
    <path clip-path="url(#p38c2f1c3e8)" d="M 115.94677 406.593901 
L 124.466769 406.593901 
" style="fill:none;stroke:#0000ff;stroke-width:1.5;"/>
    <path clip-path="url(#p38c2f1c3e8)" d="M 138.08688 320.345853 
L 149.037005 320.345853 
" style="fill:none;stroke:#0000ff;stroke-width:1.5;"/>
    <path clip-path="url(#p38c2f1c3e8)" d="M 94.57704 408.492757 
L 135.916203 408.492757 
" style="fill:none;stroke:#0000ff;stroke-width:1.5;"/>
    <path clip-path="url(#p38c2f1c3e8)" d="M 160.848253 234.927922 
L 220.05839 234.927922 
" style="fill:none;stroke:#0000ff;stroke-width:1.5;"/>
    <path clip-path="url(#p38c2f1c3e8)" d="M 101.758483 397.838339 
L 141.017687 397.838339 
" style="fill:none;stroke:#0000ff;stroke-width:1.5;"/>
    <path clip-path="url(#p38c2f1c3e8)" d="M 94.00992 398.216749 
L 124.709566 398.216749 
" style="fill:none;stroke:#0000ff;stroke-width:1.5;"/>
    <path clip-path="url(#p38c2f1c3e8)" d="M 94.256138 402.145306 
L 130.53222 402.145306 
" style="fill:none;stroke:#0000ff;stroke-width:1.5;"/>
    <path clip-path="url(#p38c2f1c3e8)" d="M 103.231546 371.390781 
L 144.926136 371.390781 
" style="fill:none;stroke:#0000ff;stroke-width:1.5;"/>
    <path clip-path="url(#p38c2f1c3e8)" d="M 102.138975 405.547293 
L 137.099053 405.547293 
" style="fill:none;stroke:#0000ff;stroke-width:1.5;"/>
    <path clip-path="url(#p38c2f1c3e8)" d="M 114.932813 419.130006 
L 165.944517 419.130006 
" style="fill:none;stroke:#0000ff;stroke-width:1.5;"/>
    <path clip-path="url(#p38c2f1c3e8)" d="M 99.52592 426.708098 
L 131.41022 426.708098 
" style="fill:none;stroke:#0000ff;stroke-width:1.5;"/>
    <path clip-path="url(#p38c2f1c3e8)" d="M 107.045644 426.823469 
L 153.30132 426.823469 
" style="fill:none;stroke:#0000ff;stroke-width:1.5;"/>
    <path clip-path="url(#p38c2f1c3e8)" d="M 98.964658 419.059952 
L 131.613763 419.059952 
" style="fill:none;stroke:#0000ff;stroke-width:1.5;"/>
    <path clip-path="url(#p38c2f1c3e8)" d="M 105.365748 388.752307 
L 143.126545 388.752307 
" style="fill:none;stroke:#0000ff;stroke-width:1.5;"/>
    <path clip-path="url(#p38c2f1c3e8)" d="M 95.145713 418.511709 
L 125.928179 418.511709 
" style="fill:none;stroke:#0000ff;stroke-width:1.5;"/>
    <path clip-path="url(#p38c2f1c3e8)" d="M 103.60785 425.829444 
L 138.934228 425.829444 
" style="fill:none;stroke:#0000ff;stroke-width:1.5;"/>
    <path clip-path="url(#p38c2f1c3e8)" d="M 95.686636 426.003926 
L 122.715484 426.003926 
" style="fill:none;stroke:#0000ff;stroke-width:1.5;"/>
    <path clip-path="url(#p38c2f1c3e8)" d="M 100.433712 423.115599 
L 142.987232 423.115599 
" style="fill:none;stroke:#0000ff;stroke-width:1.5;"/>
    <path clip-path="url(#p38c2f1c3e8)" d="M 124.482778 394.409892 
L 241.574548 394.409892 
" style="fill:none;stroke:#0000ff;stroke-width:1.5;"/>
    <path clip-path="url(#p38c2f1c3e8)" d="M 95.081899 422.653646 
L 121.44693 422.653646 
" style="fill:none;stroke:#0000ff;stroke-width:1.5;"/>
    <path clip-path="url(#p38c2f1c3e8)" d="M 102.69078 405.604669 
L 139.85639 405.604669 
" style="fill:none;stroke:#0000ff;stroke-width:1.5;"/>
    <path clip-path="url(#p38c2f1c3e8)" d="M 100.129514 398.597643 
L 138.332927 398.597643 
" style="fill:none;stroke:#0000ff;stroke-width:1.5;"/>
    <path clip-path="url(#p38c2f1c3e8)" d="M 88.870341 422.010913 
L 119.970714 422.010913 
" style="fill:none;stroke:#0000ff;stroke-width:1.5;"/>
    <path clip-path="url(#p38c2f1c3e8)" d="M 89.054266 424.10665 
L 118.917497 424.10665 
" style="fill:none;stroke:#0000ff;stroke-width:1.5;"/>
    <path clip-path="url(#p38c2f1c3e8)" d="M 90.302462 318.472393 
L 121.627224 318.472393 
" style="fill:none;stroke:#0000ff;stroke-width:1.5;"/>
    <path clip-path="url(#p38c2f1c3e8)" d="M 84.18639 391.448541 
L 108.122966 391.448541 
" style="fill:none;stroke:#0000ff;stroke-width:1.5;"/>
    <path clip-path="url(#p38c2f1c3e8)" d="M 102.880203 411.560142 
L 149.087963 411.560142 
" style="fill:none;stroke:#0000ff;stroke-width:1.5;"/>
    <path clip-path="url(#p38c2f1c3e8)" d="M 92.273685 420.796062 
L 125.12515 420.796062 
" style="fill:none;stroke:#0000ff;stroke-width:1.5;"/>
    <path clip-path="url(#p38c2f1c3e8)" d="M 102.956257 384.243318 
L 146.082288 384.243318 
" style="fill:none;stroke:#0000ff;stroke-width:1.5;"/>
    <path clip-path="url(#p38c2f1c3e8)" d="M 112.226934 429.315479 
L 138.484272 429.315479 
" style="fill:none;stroke:#0000ff;stroke-width:1.5;"/>
    <path clip-path="url(#p38c2f1c3e8)" d="M 100.698089 383.706097 
L 134.469862 383.706097 
" style="fill:none;stroke:#0000ff;stroke-width:1.5;"/>
    <path clip-path="url(#p38c2f1c3e8)" d="M 126.236102 357.094848 
L 197.070102 357.094848 
" style="fill:none;stroke:#0000ff;stroke-width:1.5;"/>
    <path clip-path="url(#p38c2f1c3e8)" d="M 94.40775 392.1213 
L 122.150731 392.1213 
" style="fill:none;stroke:#0000ff;stroke-width:1.5;"/>
    <path clip-path="url(#p38c2f1c3e8)" d="M 199.734139 83.41167 
L 435.845455 83.41167 
" style="fill:none;stroke:#0000ff;stroke-width:1.5;"/>
    <path clip-path="url(#p38c2f1c3e8)" d="M 90.9661 302.53582 
L 112.834319 302.53582 
" style="fill:none;stroke:#0000ff;stroke-width:1.5;"/>
    <path clip-path="url(#p38c2f1c3e8)" d="M 81.922835 427.122243 
L 103.53626 427.122243 
" style="fill:none;stroke:#0000ff;stroke-width:1.5;"/>
    <path clip-path="url(#p38c2f1c3e8)" d="M 105.490632 418.982733 
L 129.109007 418.982733 
" style="fill:none;stroke:#0000ff;stroke-width:1.5;"/>
    <path clip-path="url(#p38c2f1c3e8)" d="M 92.81554 400.602441 
L 116.87125 400.602441 
" style="fill:none;stroke:#0000ff;stroke-width:1.5;"/>
    <path clip-path="url(#p38c2f1c3e8)" d="M 93.252853 429.240514 
L 113.053433 429.240514 
" style="fill:none;stroke:#0000ff;stroke-width:1.5;"/>
    <path clip-path="url(#p38c2f1c3e8)" d="M 100.501625 427.495131 
L 121.755837 427.495131 
" style="fill:none;stroke:#0000ff;stroke-width:1.5;"/>
    <path clip-path="url(#p38c2f1c3e8)" d="M 107.202203 423.845577 
L 156.160989 423.845577 
" style="fill:none;stroke:#0000ff;stroke-width:1.5;"/>
    <path clip-path="url(#p38c2f1c3e8)" d="M 103.139233 396.554384 
L 127.977622 396.554384 
" style="fill:none;stroke:#0000ff;stroke-width:1.5;"/>
    <path clip-path="url(#p38c2f1c3e8)" d="M 97.592532 392.22703 
L 130.67031 392.22703 
" style="fill:none;stroke:#0000ff;stroke-width:1.5;"/>
    <path clip-path="url(#p38c2f1c3e8)" d="M 93.480676 404.16377 
L 133.62517 404.16377 
" style="fill:none;stroke:#0000ff;stroke-width:1.5;"/>
    <path clip-path="url(#p38c2f1c3e8)" d="M 135.149968 365.719697 
L 170.280198 365.719697 
" style="fill:none;stroke:#0000ff;stroke-width:1.5;"/>
    <path clip-path="url(#p38c2f1c3e8)" d="M 114.908109 410.955662 
L 157.418044 410.955662 
" style="fill:none;stroke:#0000ff;stroke-width:1.5;"/>
    <path clip-path="url(#p38c2f1c3e8)" d="M 201.89165 94.139473 
L 277.368636 94.139473 
" style="fill:none;stroke:#0000ff;stroke-width:1.5;"/>
    <path clip-path="url(#p38c2f1c3e8)" d="M 98.060077 391.409085 
L 124.477169 391.409085 
" style="fill:none;stroke:#0000ff;stroke-width:1.5;"/>
    <path clip-path="url(#p38c2f1c3e8)" d="M 91.392883 411.452329 
L 111.827833 411.452329 
" style="fill:none;stroke:#0000ff;stroke-width:1.5;"/>
    <path clip-path="url(#p38c2f1c3e8)" d="M 95.577333 425.796614 
L 112.807456 425.796614 
" style="fill:none;stroke:#0000ff;stroke-width:1.5;"/>
    <path clip-path="url(#p38c2f1c3e8)" d="M 125.768616 419.401346 
L 237.457872 419.401346 
" style="fill:none;stroke:#0000ff;stroke-width:1.5;"/>
    <path clip-path="url(#p38c2f1c3e8)" d="M 98.497101 412.767989 
L 131.584902 412.767989 
" style="fill:none;stroke:#0000ff;stroke-width:1.5;"/>
    <path clip-path="url(#p38c2f1c3e8)" d="M 96.378636 409.876318 
L 139.388705 409.876318 
" style="fill:none;stroke:#0000ff;stroke-width:1.5;"/>
    <path clip-path="url(#p38c2f1c3e8)" d="M 107.780129 320.985537 
L 157.239486 320.985537 
" style="fill:none;stroke:#0000ff;stroke-width:1.5;"/>
    <path clip-path="url(#p38c2f1c3e8)" d="M 93.433727 367.586244 
L 130.943703 367.586244 
" style="fill:none;stroke:#0000ff;stroke-width:1.5;"/>
    <path clip-path="url(#p38c2f1c3e8)" d="M 80.754545 383.115361 
L 103.205464 383.115361 
" style="fill:none;stroke:#0000ff;stroke-width:1.5;"/>
    <path clip-path="url(#p38c2f1c3e8)" d="M 84.235354 416.103367 
L 107.951489 416.103367 
" style="fill:none;stroke:#0000ff;stroke-width:1.5;"/>
    <path clip-path="url(#p38c2f1c3e8)" d="M 88.53639 424.834285 
L 114.615453 424.834285 
" style="fill:none;stroke:#0000ff;stroke-width:1.5;"/>
    <path clip-path="url(#p38c2f1c3e8)" d="M 115.996269 342.186991 
L 165.095971 342.186991 
" style="fill:none;stroke:#0000ff;stroke-width:1.5;"/>
   </g>
   <g id="LineCollection_2">
    <path clip-path="url(#p38c2f1c3e8)" d="M 120.206769 414.573797 
L 120.206769 398.614005 
" style="fill:none;stroke:#0000ff;stroke-width:1.5;"/>
    <path clip-path="url(#p38c2f1c3e8)" d="M 143.561943 326.014172 
L 143.561943 314.677534 
" style="fill:none;stroke:#0000ff;stroke-width:1.5;"/>
    <path clip-path="url(#p38c2f1c3e8)" d="M 115.246622 413.105203 
L 115.246622 403.880312 
" style="fill:none;stroke:#0000ff;stroke-width:1.5;"/>
    <path clip-path="url(#p38c2f1c3e8)" d="M 190.453321 261.543735 
L 190.453321 208.312108 
" style="fill:none;stroke:#0000ff;stroke-width:1.5;"/>
    <path clip-path="url(#p38c2f1c3e8)" d="M 121.388085 416.070755 
L 121.388085 379.605922 
" style="fill:none;stroke:#0000ff;stroke-width:1.5;"/>
    <path clip-path="url(#p38c2f1c3e8)" d="M 109.359743 419.401085 
L 109.359743 377.032413 
" style="fill:none;stroke:#0000ff;stroke-width:1.5;"/>
    <path clip-path="url(#p38c2f1c3e8)" d="M 112.394179 418.345375 
L 112.394179 385.945238 
" style="fill:none;stroke:#0000ff;stroke-width:1.5;"/>
    <path clip-path="url(#p38c2f1c3e8)" d="M 124.078841 385.208746 
L 124.078841 357.572816 
" style="fill:none;stroke:#0000ff;stroke-width:1.5;"/>
    <path clip-path="url(#p38c2f1c3e8)" d="M 119.619014 410.704294 
L 119.619014 400.390292 
" style="fill:none;stroke:#0000ff;stroke-width:1.5;"/>
    <path clip-path="url(#p38c2f1c3e8)" d="M 140.438665 422.717539 
L 140.438665 415.542474 
" style="fill:none;stroke:#0000ff;stroke-width:1.5;"/>
    <path clip-path="url(#p38c2f1c3e8)" d="M 115.46807 427.779634 
L 115.46807 425.636563 
" style="fill:none;stroke:#0000ff;stroke-width:1.5;"/>
    <path clip-path="url(#p38c2f1c3e8)" d="M 130.173482 428.632311 
L 130.173482 425.014627 
" style="fill:none;stroke:#0000ff;stroke-width:1.5;"/>
    <path clip-path="url(#p38c2f1c3e8)" d="M 115.28921 422.057296 
L 115.28921 416.062608 
" style="fill:none;stroke:#0000ff;stroke-width:1.5;"/>
    <path clip-path="url(#p38c2f1c3e8)" d="M 124.246147 397.181913 
L 124.246147 380.322702 
" style="fill:none;stroke:#0000ff;stroke-width:1.5;"/>
    <path clip-path="url(#p38c2f1c3e8)" d="M 110.536946 420.304005 
L 110.536946 416.719413 
" style="fill:none;stroke:#0000ff;stroke-width:1.5;"/>
    <path clip-path="url(#p38c2f1c3e8)" d="M 121.271039 428.557988 
L 121.271039 423.1009 
" style="fill:none;stroke:#0000ff;stroke-width:1.5;"/>
    <path clip-path="url(#p38c2f1c3e8)" d="M 109.20106 427.727062 
L 109.20106 424.280791 
" style="fill:none;stroke:#0000ff;stroke-width:1.5;"/>
    <path clip-path="url(#p38c2f1c3e8)" d="M 121.710472 425.27464 
L 121.710472 420.956558 
" style="fill:none;stroke:#0000ff;stroke-width:1.5;"/>
    <path clip-path="url(#p38c2f1c3e8)" d="M 183.028663 395.48653 
L 183.028663 393.333254 
" style="fill:none;stroke:#0000ff;stroke-width:1.5;"/>
    <path clip-path="url(#p38c2f1c3e8)" d="M 108.264414 425.097251 
L 108.264414 420.21004 
" style="fill:none;stroke:#0000ff;stroke-width:1.5;"/>
    <path clip-path="url(#p38c2f1c3e8)" d="M 121.273585 407.997017 
L 121.273585 403.212321 
" style="fill:none;stroke:#0000ff;stroke-width:1.5;"/>
    <path clip-path="url(#p38c2f1c3e8)" d="M 119.23122 402.382244 
L 119.23122 394.813043 
" style="fill:none;stroke:#0000ff;stroke-width:1.5;"/>
    <path clip-path="url(#p38c2f1c3e8)" d="M 104.420527 424.060497 
L 104.420527 419.961329 
" style="fill:none;stroke:#0000ff;stroke-width:1.5;"/>
    <path clip-path="url(#p38c2f1c3e8)" d="M 103.985881 424.841443 
L 103.985881 423.371858 
" style="fill:none;stroke:#0000ff;stroke-width:1.5;"/>
    <path clip-path="url(#p38c2f1c3e8)" d="M 105.964843 353.375679 
L 105.964843 283.569108 
" style="fill:none;stroke:#0000ff;stroke-width:1.5;"/>
    <path clip-path="url(#p38c2f1c3e8)" d="M 96.154678 417.059012 
L 96.154678 365.83807 
" style="fill:none;stroke:#0000ff;stroke-width:1.5;"/>
    <path clip-path="url(#p38c2f1c3e8)" d="M 125.984083 413.815134 
L 125.984083 409.30515 
" style="fill:none;stroke:#0000ff;stroke-width:1.5;"/>
    <path clip-path="url(#p38c2f1c3e8)" d="M 108.699418 422.031866 
L 108.699418 419.560258 
" style="fill:none;stroke:#0000ff;stroke-width:1.5;"/>
    <path clip-path="url(#p38c2f1c3e8)" d="M 124.519273 394.895133 
L 124.519273 373.591504 
" style="fill:none;stroke:#0000ff;stroke-width:1.5;"/>
    <path clip-path="url(#p38c2f1c3e8)" d="M 125.355603 430.589817 
L 125.355603 428.04114 
" style="fill:none;stroke:#0000ff;stroke-width:1.5;"/>
    <path clip-path="url(#p38c2f1c3e8)" d="M 117.583975 390.818201 
L 117.583975 376.593992 
" style="fill:none;stroke:#0000ff;stroke-width:1.5;"/>
    <path clip-path="url(#p38c2f1c3e8)" d="M 161.653102 363.81755 
L 161.653102 350.372147 
" style="fill:none;stroke:#0000ff;stroke-width:1.5;"/>
    <path clip-path="url(#p38c2f1c3e8)" d="M 108.27924 414.327284 
L 108.27924 369.915315 
" style="fill:none;stroke:#0000ff;stroke-width:1.5;"/>
    <path clip-path="url(#p38c2f1c3e8)" d="M 317.789797 88.703341 
L 317.789797 78.12 
" style="fill:none;stroke:#0000ff;stroke-width:1.5;"/>
    <path clip-path="url(#p38c2f1c3e8)" d="M 101.900209 339.939364 
L 101.900209 265.132275 
" style="fill:none;stroke:#0000ff;stroke-width:1.5;"/>
    <path clip-path="url(#p38c2f1c3e8)" d="M 92.729547 428.490848 
L 92.729547 425.753638 
" style="fill:none;stroke:#0000ff;stroke-width:1.5;"/>
    <path clip-path="url(#p38c2f1c3e8)" d="M 117.29982 420.154243 
L 117.29982 417.811223 
" style="fill:none;stroke:#0000ff;stroke-width:1.5;"/>
    <path clip-path="url(#p38c2f1c3e8)" d="M 104.843395 409.408749 
L 104.843395 391.796133 
" style="fill:none;stroke:#0000ff;stroke-width:1.5;"/>
    <path clip-path="url(#p38c2f1c3e8)" d="M 103.153143 430.92 
L 103.153143 427.561028 
" style="fill:none;stroke:#0000ff;stroke-width:1.5;"/>
    <path clip-path="url(#p38c2f1c3e8)" d="M 111.128731 428.879371 
L 111.128731 426.110891 
" style="fill:none;stroke:#0000ff;stroke-width:1.5;"/>
    <path clip-path="url(#p38c2f1c3e8)" d="M 131.681596 425.125256 
L 131.681596 422.565897 
" style="fill:none;stroke:#0000ff;stroke-width:1.5;"/>
    <path clip-path="url(#p38c2f1c3e8)" d="M 115.558428 421.210799 
L 115.558428 371.897969 
" style="fill:none;stroke:#0000ff;stroke-width:1.5;"/>
    <path clip-path="url(#p38c2f1c3e8)" d="M 114.131421 418.634494 
L 114.131421 365.819566 
" style="fill:none;stroke:#0000ff;stroke-width:1.5;"/>
    <path clip-path="url(#p38c2f1c3e8)" d="M 113.552923 421.035875 
L 113.552923 387.291665 
" style="fill:none;stroke:#0000ff;stroke-width:1.5;"/>
    <path clip-path="url(#p38c2f1c3e8)" d="M 152.715083 390.356017 
L 152.715083 341.083378 
" style="fill:none;stroke:#0000ff;stroke-width:1.5;"/>
    <path clip-path="url(#p38c2f1c3e8)" d="M 136.163077 418.105958 
L 136.163077 403.805366 
" style="fill:none;stroke:#0000ff;stroke-width:1.5;"/>
    <path clip-path="url(#p38c2f1c3e8)" d="M 239.630143 102.141177 
L 239.630143 86.137769 
" style="fill:none;stroke:#0000ff;stroke-width:1.5;"/>
    <path clip-path="url(#p38c2f1c3e8)" d="M 111.268623 399.858719 
L 111.268623 382.959451 
" style="fill:none;stroke:#0000ff;stroke-width:1.5;"/>
    <path clip-path="url(#p38c2f1c3e8)" d="M 101.610358 421.111203 
L 101.610358 401.793455 
" style="fill:none;stroke:#0000ff;stroke-width:1.5;"/>
    <path clip-path="url(#p38c2f1c3e8)" d="M 104.192394 428.149837 
L 104.192394 423.44339 
" style="fill:none;stroke:#0000ff;stroke-width:1.5;"/>
    <path clip-path="url(#p38c2f1c3e8)" d="M 181.613244 421.617921 
L 181.613244 417.184771 
" style="fill:none;stroke:#0000ff;stroke-width:1.5;"/>
    <path clip-path="url(#p38c2f1c3e8)" d="M 115.041001 423.787256 
L 115.041001 401.748721 
" style="fill:none;stroke:#0000ff;stroke-width:1.5;"/>
    <path clip-path="url(#p38c2f1c3e8)" d="M 117.883671 426.762047 
L 117.883671 392.990589 
" style="fill:none;stroke:#0000ff;stroke-width:1.5;"/>
    <path clip-path="url(#p38c2f1c3e8)" d="M 132.509807 356.001377 
L 132.509807 285.969697 
" style="fill:none;stroke:#0000ff;stroke-width:1.5;"/>
    <path clip-path="url(#p38c2f1c3e8)" d="M 112.188715 387.171498 
L 112.188715 348.000989 
" style="fill:none;stroke:#0000ff;stroke-width:1.5;"/>
    <path clip-path="url(#p38c2f1c3e8)" d="M 91.980005 408.122838 
L 91.980005 358.107884 
" style="fill:none;stroke:#0000ff;stroke-width:1.5;"/>
    <path clip-path="url(#p38c2f1c3e8)" d="M 96.093422 420.059598 
L 96.093422 412.147136 
" style="fill:none;stroke:#0000ff;stroke-width:1.5;"/>
    <path clip-path="url(#p38c2f1c3e8)" d="M 101.575922 426.206738 
L 101.575922 423.461833 
" style="fill:none;stroke:#0000ff;stroke-width:1.5;"/>
    <path clip-path="url(#p38c2f1c3e8)" d="M 140.54612 362.635507 
L 140.54612 321.738475 
" style="fill:none;stroke:#0000ff;stroke-width:1.5;"/>
   </g>
   <g id="line2d_12">
    <defs>
     <path d="M 0 3 
C 0.795609 3 1.55874 2.683901 2.12132 2.12132 
C 2.683901 1.55874 3 0.795609 3 0 
C 3 -0.795609 2.683901 -1.55874 2.12132 -2.12132 
C 1.55874 -2.683901 0.795609 -3 0 -3 
C -0.795609 -3 -1.55874 -2.683901 -2.12132 -2.12132 
C -2.683901 -1.55874 -3 -0.795609 -3 0 
C -3 0.795609 -2.683901 1.55874 -2.12132 2.12132 
C -1.55874 2.683901 -0.795609 3 0 3 
z
" id="m5a2837348a" style="stroke:#0000ff;"/>
    </defs>
    <g clip-path="url(#p38c2f1c3e8)">
     <use style="fill:#0000ff;stroke:#0000ff;" x="120.206769" xlink:href="#m5a2837348a" y="406.593901"/>
     <use style="fill:#0000ff;stroke:#0000ff;" x="143.561943" xlink:href="#m5a2837348a" y="320.345853"/>
     <use style="fill:#0000ff;stroke:#0000ff;" x="115.246622" xlink:href="#m5a2837348a" y="408.492757"/>
     <use style="fill:#0000ff;stroke:#0000ff;" x="190.453321" xlink:href="#m5a2837348a" y="234.927922"/>
     <use style="fill:#0000ff;stroke:#0000ff;" x="121.388085" xlink:href="#m5a2837348a" y="397.838339"/>
     <use style="fill:#0000ff;stroke:#0000ff;" x="109.359743" xlink:href="#m5a2837348a" y="398.216749"/>
     <use style="fill:#0000ff;stroke:#0000ff;" x="112.394179" xlink:href="#m5a2837348a" y="402.145306"/>
     <use style="fill:#0000ff;stroke:#0000ff;" x="124.078841" xlink:href="#m5a2837348a" y="371.390781"/>
     <use style="fill:#0000ff;stroke:#0000ff;" x="119.619014" xlink:href="#m5a2837348a" y="405.547293"/>
     <use style="fill:#0000ff;stroke:#0000ff;" x="140.438665" xlink:href="#m5a2837348a" y="419.130006"/>
     <use style="fill:#0000ff;stroke:#0000ff;" x="115.46807" xlink:href="#m5a2837348a" y="426.708098"/>
     <use style="fill:#0000ff;stroke:#0000ff;" x="130.173482" xlink:href="#m5a2837348a" y="426.823469"/>
     <use style="fill:#0000ff;stroke:#0000ff;" x="115.28921" xlink:href="#m5a2837348a" y="419.059952"/>
     <use style="fill:#0000ff;stroke:#0000ff;" x="124.246147" xlink:href="#m5a2837348a" y="388.752307"/>
     <use style="fill:#0000ff;stroke:#0000ff;" x="110.536946" xlink:href="#m5a2837348a" y="418.511709"/>
     <use style="fill:#0000ff;stroke:#0000ff;" x="121.271039" xlink:href="#m5a2837348a" y="425.829444"/>
     <use style="fill:#0000ff;stroke:#0000ff;" x="109.20106" xlink:href="#m5a2837348a" y="426.003926"/>
     <use style="fill:#0000ff;stroke:#0000ff;" x="121.710472" xlink:href="#m5a2837348a" y="423.115599"/>
     <use style="fill:#0000ff;stroke:#0000ff;" x="183.028663" xlink:href="#m5a2837348a" y="394.409892"/>
     <use style="fill:#0000ff;stroke:#0000ff;" x="108.264414" xlink:href="#m5a2837348a" y="422.653646"/>
     <use style="fill:#0000ff;stroke:#0000ff;" x="121.273585" xlink:href="#m5a2837348a" y="405.604669"/>
     <use style="fill:#0000ff;stroke:#0000ff;" x="119.23122" xlink:href="#m5a2837348a" y="398.597643"/>
     <use style="fill:#0000ff;stroke:#0000ff;" x="104.420527" xlink:href="#m5a2837348a" y="422.010913"/>
     <use style="fill:#0000ff;stroke:#0000ff;" x="103.985881" xlink:href="#m5a2837348a" y="424.10665"/>
     <use style="fill:#0000ff;stroke:#0000ff;" x="105.964843" xlink:href="#m5a2837348a" y="318.472393"/>
     <use style="fill:#0000ff;stroke:#0000ff;" x="96.154678" xlink:href="#m5a2837348a" y="391.448541"/>
     <use style="fill:#0000ff;stroke:#0000ff;" x="125.984083" xlink:href="#m5a2837348a" y="411.560142"/>
     <use style="fill:#0000ff;stroke:#0000ff;" x="108.699418" xlink:href="#m5a2837348a" y="420.796062"/>
     <use style="fill:#0000ff;stroke:#0000ff;" x="124.519273" xlink:href="#m5a2837348a" y="384.243318"/>
     <use style="fill:#0000ff;stroke:#0000ff;" x="125.355603" xlink:href="#m5a2837348a" y="429.315479"/>
     <use style="fill:#0000ff;stroke:#0000ff;" x="117.583975" xlink:href="#m5a2837348a" y="383.706097"/>
     <use style="fill:#0000ff;stroke:#0000ff;" x="161.653102" xlink:href="#m5a2837348a" y="357.094848"/>
     <use style="fill:#0000ff;stroke:#0000ff;" x="108.27924" xlink:href="#m5a2837348a" y="392.1213"/>
     <use style="fill:#0000ff;stroke:#0000ff;" x="317.789797" xlink:href="#m5a2837348a" y="83.41167"/>
     <use style="fill:#0000ff;stroke:#0000ff;" x="101.900209" xlink:href="#m5a2837348a" y="302.53582"/>
     <use style="fill:#0000ff;stroke:#0000ff;" x="92.729547" xlink:href="#m5a2837348a" y="427.122243"/>
     <use style="fill:#0000ff;stroke:#0000ff;" x="117.29982" xlink:href="#m5a2837348a" y="418.982733"/>
     <use style="fill:#0000ff;stroke:#0000ff;" x="104.843395" xlink:href="#m5a2837348a" y="400.602441"/>
     <use style="fill:#0000ff;stroke:#0000ff;" x="103.153143" xlink:href="#m5a2837348a" y="429.240514"/>
     <use style="fill:#0000ff;stroke:#0000ff;" x="111.128731" xlink:href="#m5a2837348a" y="427.495131"/>
     <use style="fill:#0000ff;stroke:#0000ff;" x="131.681596" xlink:href="#m5a2837348a" y="423.845577"/>
     <use style="fill:#0000ff;stroke:#0000ff;" x="115.558428" xlink:href="#m5a2837348a" y="396.554384"/>
     <use style="fill:#0000ff;stroke:#0000ff;" x="114.131421" xlink:href="#m5a2837348a" y="392.22703"/>
     <use style="fill:#0000ff;stroke:#0000ff;" x="113.552923" xlink:href="#m5a2837348a" y="404.16377"/>
     <use style="fill:#0000ff;stroke:#0000ff;" x="152.715083" xlink:href="#m5a2837348a" y="365.719697"/>
     <use style="fill:#0000ff;stroke:#0000ff;" x="136.163077" xlink:href="#m5a2837348a" y="410.955662"/>
     <use style="fill:#0000ff;stroke:#0000ff;" x="239.630143" xlink:href="#m5a2837348a" y="94.139473"/>
     <use style="fill:#0000ff;stroke:#0000ff;" x="111.268623" xlink:href="#m5a2837348a" y="391.409085"/>
     <use style="fill:#0000ff;stroke:#0000ff;" x="101.610358" xlink:href="#m5a2837348a" y="411.452329"/>
     <use style="fill:#0000ff;stroke:#0000ff;" x="104.192394" xlink:href="#m5a2837348a" y="425.796614"/>
     <use style="fill:#0000ff;stroke:#0000ff;" x="181.613244" xlink:href="#m5a2837348a" y="419.401346"/>
     <use style="fill:#0000ff;stroke:#0000ff;" x="115.041001" xlink:href="#m5a2837348a" y="412.767989"/>
     <use style="fill:#0000ff;stroke:#0000ff;" x="117.883671" xlink:href="#m5a2837348a" y="409.876318"/>
     <use style="fill:#0000ff;stroke:#0000ff;" x="132.509807" xlink:href="#m5a2837348a" y="320.985537"/>
     <use style="fill:#0000ff;stroke:#0000ff;" x="112.188715" xlink:href="#m5a2837348a" y="367.586244"/>
     <use style="fill:#0000ff;stroke:#0000ff;" x="91.980005" xlink:href="#m5a2837348a" y="383.115361"/>
     <use style="fill:#0000ff;stroke:#0000ff;" x="96.093422" xlink:href="#m5a2837348a" y="416.103367"/>
     <use style="fill:#0000ff;stroke:#0000ff;" x="101.575922" xlink:href="#m5a2837348a" y="424.834285"/>
     <use style="fill:#0000ff;stroke:#0000ff;" x="140.54612" xlink:href="#m5a2837348a" y="342.186991"/>
    </g>
   </g>
   <g id="patch_3">
    <path d="M 63 448.56 
L 63 60.48 
" style="fill:none;stroke:#000000;stroke-linecap:square;stroke-linejoin:miter;stroke-width:0.8;"/>
   </g>
   <g id="patch_4">
    <path d="M 453.6 448.56 
L 453.6 60.48 
" style="fill:none;stroke:#000000;stroke-linecap:square;stroke-linejoin:miter;stroke-width:0.8;"/>
   </g>
   <g id="patch_5">
    <path d="M 63 448.56 
L 453.6 448.56 
" style="fill:none;stroke:#000000;stroke-linecap:square;stroke-linejoin:miter;stroke-width:0.8;"/>
   </g>
   <g id="patch_6">
    <path d="M 63 60.48 
L 453.6 60.48 
" style="fill:none;stroke:#000000;stroke-linecap:square;stroke-linejoin:miter;stroke-width:0.8;"/>
   </g>
   <g id="text_14">
    <!-- Pearson correlation coefficient: 0.8 -->
    <g transform="translate(123.752569 109.675351)scale(0.16 -0.16)">
     <defs>
      <path d="M 494 0 
L 494 4581 
L 2222 4581 
Q 2678 4581 2919 4538 
Q 3256 4481 3484 4323 
Q 3713 4166 3852 3881 
Q 3991 3597 3991 3256 
Q 3991 2672 3619 2267 
Q 3247 1863 2275 1863 
L 1100 1863 
L 1100 0 
L 494 0 
z
M 1100 2403 
L 2284 2403 
Q 2872 2403 3119 2622 
Q 3366 2841 3366 3238 
Q 3366 3525 3220 3729 
Q 3075 3934 2838 4000 
Q 2684 4041 2272 4041 
L 1100 4041 
L 1100 2403 
z
" id="ArialMT-50" transform="scale(0.015625)"/>
      <path d="M 556 0 
L 556 2881 
L 59 2881 
L 59 3319 
L 556 3319 
L 556 3672 
Q 556 4006 616 4169 
Q 697 4388 901 4523 
Q 1106 4659 1475 4659 
Q 1713 4659 2000 4603 
L 1916 4113 
Q 1741 4144 1584 4144 
Q 1328 4144 1222 4034 
Q 1116 3925 1116 3625 
L 1116 3319 
L 1763 3319 
L 1763 2881 
L 1116 2881 
L 1116 0 
L 556 0 
z
" id="ArialMT-66" transform="scale(0.015625)"/>
      <path d="M 578 2678 
L 578 3319 
L 1219 3319 
L 1219 2678 
L 578 2678 
z
M 578 0 
L 578 641 
L 1219 641 
L 1219 0 
L 578 0 
z
" id="ArialMT-3a" transform="scale(0.015625)"/>
     </defs>
     <use xlink:href="#ArialMT-50"/>
     <use x="66.699219" xlink:href="#ArialMT-65"/>
     <use x="122.314453" xlink:href="#ArialMT-61"/>
     <use x="177.929688" xlink:href="#ArialMT-72"/>
     <use x="211.230469" xlink:href="#ArialMT-73"/>
     <use x="261.230469" xlink:href="#ArialMT-6f"/>
     <use x="316.845703" xlink:href="#ArialMT-6e"/>
     <use x="372.460938" xlink:href="#ArialMT-20"/>
     <use x="400.244141" xlink:href="#ArialMT-63"/>
     <use x="450.244141" xlink:href="#ArialMT-6f"/>
     <use x="505.859375" xlink:href="#ArialMT-72"/>
     <use x="539.160156" xlink:href="#ArialMT-72"/>
     <use x="572.460938" xlink:href="#ArialMT-65"/>
     <use x="628.076172" xlink:href="#ArialMT-6c"/>
     <use x="650.292969" xlink:href="#ArialMT-61"/>
     <use x="705.908203" xlink:href="#ArialMT-74"/>
     <use x="733.691406" xlink:href="#ArialMT-69"/>
     <use x="755.908203" xlink:href="#ArialMT-6f"/>
     <use x="811.523438" xlink:href="#ArialMT-6e"/>
     <use x="867.138672" xlink:href="#ArialMT-20"/>
     <use x="894.921875" xlink:href="#ArialMT-63"/>
     <use x="944.921875" xlink:href="#ArialMT-6f"/>
     <use x="1000.537109" xlink:href="#ArialMT-65"/>
     <use x="1056.152344" xlink:href="#ArialMT-66"/>
     <use x="1082.185547" xlink:href="#ArialMT-66"/>
     <use x="1109.96875" xlink:href="#ArialMT-69"/>
     <use x="1132.185547" xlink:href="#ArialMT-63"/>
     <use x="1182.185547" xlink:href="#ArialMT-69"/>
     <use x="1204.402344" xlink:href="#ArialMT-65"/>
     <use x="1260.017578" xlink:href="#ArialMT-6e"/>
     <use x="1315.632812" xlink:href="#ArialMT-74"/>
     <use x="1343.416016" xlink:href="#ArialMT-3a"/>
     <use x="1371.199219" xlink:href="#ArialMT-20"/>
     <use x="1398.982422" xlink:href="#ArialMT-30"/>
     <use x="1454.597656" xlink:href="#ArialMT-2e"/>
     <use x="1482.380859" xlink:href="#ArialMT-38"/>
    </g>
   </g>
   <g id="text_15">
    <!-- P-value: 4.062887e-14 -->
    <g transform="translate(123.752569 145.699102)scale(0.16 -0.16)">
     <defs>
      <path d="M 1344 0 
L 81 3319 
L 675 3319 
L 1388 1331 
Q 1503 1009 1600 663 
Q 1675 925 1809 1294 
L 2547 3319 
L 3125 3319 
L 1869 0 
L 1344 0 
z
" id="ArialMT-76" transform="scale(0.015625)"/>
      <path d="M 303 3981 
L 303 4522 
L 3269 4522 
L 3269 4084 
Q 2831 3619 2401 2847 
Q 1972 2075 1738 1259 
Q 1569 684 1522 0 
L 944 0 
Q 953 541 1156 1306 
Q 1359 2072 1739 2783 
Q 2119 3494 2547 3981 
L 303 3981 
z
" id="ArialMT-37" transform="scale(0.015625)"/>
     </defs>
     <use xlink:href="#ArialMT-50"/>
     <use x="66.699219" xlink:href="#ArialMT-2d"/>
     <use x="100" xlink:href="#ArialMT-76"/>
     <use x="150" xlink:href="#ArialMT-61"/>
     <use x="205.615234" xlink:href="#ArialMT-6c"/>
     <use x="227.832031" xlink:href="#ArialMT-75"/>
     <use x="283.447266" xlink:href="#ArialMT-65"/>
     <use x="339.0625" xlink:href="#ArialMT-3a"/>
     <use x="366.845703" xlink:href="#ArialMT-20"/>
     <use x="394.628906" xlink:href="#ArialMT-34"/>
     <use x="450.244141" xlink:href="#ArialMT-2e"/>
     <use x="478.027344" xlink:href="#ArialMT-30"/>
     <use x="533.642578" xlink:href="#ArialMT-36"/>
     <use x="589.257812" xlink:href="#ArialMT-32"/>
     <use x="644.873047" xlink:href="#ArialMT-38"/>
     <use x="700.488281" xlink:href="#ArialMT-38"/>
     <use x="756.103516" xlink:href="#ArialMT-37"/>
     <use x="811.71875" xlink:href="#ArialMT-65"/>
     <use x="867.333984" xlink:href="#ArialMT-2d"/>
     <use x="900.634766" xlink:href="#ArialMT-31"/>
     <use x="956.25" xlink:href="#ArialMT-34"/>
    </g>
   </g>
   <g id="text_16">
    <!-- Wild isolates, EMM -->
    <g transform="translate(173.2875 54.48)scale(0.2 -0.2)">
     <defs>
      <path d="M 1294 0 
L 78 4581 
L 700 4581 
L 1397 1578 
Q 1509 1106 1591 641 
Q 1766 1375 1797 1488 
L 2669 4581 
L 3400 4581 
L 4056 2263 
Q 4303 1400 4413 641 
Q 4500 1075 4641 1638 
L 5359 4581 
L 5969 4581 
L 4713 0 
L 4128 0 
L 3163 3491 
Q 3041 3928 3019 4028 
Q 2947 3713 2884 3491 
L 1913 0 
L 1294 0 
z
" id="ArialMT-57" transform="scale(0.015625)"/>
      <path d="M 506 0 
L 506 4581 
L 3819 4581 
L 3819 4041 
L 1113 4041 
L 1113 2638 
L 3647 2638 
L 3647 2100 
L 1113 2100 
L 1113 541 
L 3925 541 
L 3925 0 
L 506 0 
z
" id="ArialMT-45" transform="scale(0.015625)"/>
      <path d="M 475 0 
L 475 4581 
L 1388 4581 
L 2472 1338 
Q 2622 884 2691 659 
Q 2769 909 2934 1394 
L 4031 4581 
L 4847 4581 
L 4847 0 
L 4263 0 
L 4263 3834 
L 2931 0 
L 2384 0 
L 1059 3900 
L 1059 0 
L 475 0 
z
" id="ArialMT-4d" transform="scale(0.015625)"/>
     </defs>
     <use xlink:href="#ArialMT-57"/>
     <use x="94.384766" xlink:href="#ArialMT-69"/>
     <use x="116.601562" xlink:href="#ArialMT-6c"/>
     <use x="138.818359" xlink:href="#ArialMT-64"/>
     <use x="194.433594" xlink:href="#ArialMT-20"/>
     <use x="222.216797" xlink:href="#ArialMT-69"/>
     <use x="244.433594" xlink:href="#ArialMT-73"/>
     <use x="294.433594" xlink:href="#ArialMT-6f"/>
     <use x="350.048828" xlink:href="#ArialMT-6c"/>
     <use x="372.265625" xlink:href="#ArialMT-61"/>
     <use x="427.880859" xlink:href="#ArialMT-74"/>
     <use x="455.664062" xlink:href="#ArialMT-65"/>
     <use x="511.279297" xlink:href="#ArialMT-73"/>
     <use x="561.279297" xlink:href="#ArialMT-2c"/>
     <use x="589.0625" xlink:href="#ArialMT-20"/>
     <use x="616.845703" xlink:href="#ArialMT-45"/>
     <use x="683.544922" xlink:href="#ArialMT-4d"/>
     <use x="766.845703" xlink:href="#ArialMT-4d"/>
    </g>
   </g>
  </g>
 </g>
 <defs>
  <clipPath id="p38c2f1c3e8">
   <rect height="388.08" width="390.6" x="63" y="60.48"/>
  </clipPath>
 </defs>
</svg>
