<?xml version="1.0" encoding="utf-8" standalone="no"?>
<!DOCTYPE svg PUBLIC "-//W3C//DTD SVG 1.1//EN"
  "http://www.w3.org/Graphics/SVG/1.1/DTD/svg11.dtd">
<svg xmlns:xlink="http://www.w3.org/1999/xlink" width="504pt" height="504pt" viewBox="0 0 504 504" xmlns="http://www.w3.org/2000/svg" version="1.1">
 <metadata>
  <rdf:RDF xmlns:dc="http://purl.org/dc/elements/1.1/" xmlns:cc="http://creativecommons.org/ns#" xmlns:rdf="http://www.w3.org/1999/02/22-rdf-syntax-ns#">
   <cc:Work>
    <dc:type rdf:resource="http://purl.org/dc/dcmitype/StillImage"/>
    <dc:date>2023-11-06T22:39:41.690549</dc:date>
    <dc:format>image/svg+xml</dc:format>
    <dc:creator>
     <cc:Agent>
      <dc:title>Matplotlib v3.8.0, https://matplotlib.org/</dc:title>
     </cc:Agent>
    </dc:creator>
   </cc:Work>
  </rdf:RDF>
 </metadata>
 <defs>
  <style type="text/css">*{stroke-linejoin: round; stroke-linecap: butt}</style>
 </defs>
 <g id="figure_1">
  <g id="patch_1">
   <path d="M 0 504 
L 504 504 
L 504 0 
L 0 0 
z
" style="fill: #ffffff"/>
  </g>
  <g id="axes_1">
   <g id="patch_2">
    <path d="M 63 448.56 
L 453.6 448.56 
L 453.6 60.48 
L 63 60.48 
z
" style="fill: #ffffff"/>
   </g>
   <g id="matplotlib.axis_1">
    <g id="xtick_1">
     <g id="line2d_1">
      <defs>
       <path id="m9dc94a6502" d="M 0 0 
L 0 3.5 
" style="stroke: #000000; stroke-width: 0.8"/>
      </defs>
      <g>
       <use xlink:href="#m9dc94a6502" x="123.752569" y="448.56" style="stroke: #000000; stroke-width: 0.8"/>
      </g>
     </g>
     <g id="text_1">
      <!-- 0.2 -->
      <g transform="translate(109.852569 469.875625) scale(0.2 -0.2)">
       <defs>
        <path id="ArialMT-30" d="M 266 2259 
Q 266 3072 433 3567 
Q 600 4063 929 4331 
Q 1259 4600 1759 4600 
Q 2128 4600 2406 4451 
Q 2684 4303 2865 4023 
Q 3047 3744 3150 3342 
Q 3253 2941 3253 2259 
Q 3253 1453 3087 958 
Q 2922 463 2592 192 
Q 2263 -78 1759 -78 
Q 1097 -78 719 397 
Q 266 969 266 2259 
z
M 844 2259 
Q 844 1131 1108 757 
Q 1372 384 1759 384 
Q 2147 384 2411 759 
Q 2675 1134 2675 2259 
Q 2675 3391 2411 3762 
Q 2147 4134 1753 4134 
Q 1366 4134 1134 3806 
Q 844 3388 844 2259 
z
" transform="scale(0.015625)"/>
        <path id="ArialMT-2e" d="M 581 0 
L 581 641 
L 1222 641 
L 1222 0 
L 581 0 
z
" transform="scale(0.015625)"/>
        <path id="ArialMT-32" d="M 3222 541 
L 3222 0 
L 194 0 
Q 188 203 259 391 
Q 375 700 629 1000 
Q 884 1300 1366 1694 
Q 2113 2306 2375 2664 
Q 2638 3022 2638 3341 
Q 2638 3675 2398 3904 
Q 2159 4134 1775 4134 
Q 1369 4134 1125 3890 
Q 881 3647 878 3216 
L 300 3275 
Q 359 3922 746 4261 
Q 1134 4600 1788 4600 
Q 2447 4600 2831 4234 
Q 3216 3869 3216 3328 
Q 3216 3053 3103 2787 
Q 2991 2522 2730 2228 
Q 2469 1934 1863 1422 
Q 1356 997 1212 845 
Q 1069 694 975 541 
L 3222 541 
z
" transform="scale(0.015625)"/>
       </defs>
       <use xlink:href="#ArialMT-30"/>
       <use xlink:href="#ArialMT-2e" x="55.615234"/>
       <use xlink:href="#ArialMT-32" x="83.398438"/>
      </g>
     </g>
    </g>
    <g id="xtick_2">
     <g id="line2d_2">
      <g>
       <use xlink:href="#m9dc94a6502" x="202.460285" y="448.56" style="stroke: #000000; stroke-width: 0.8"/>
      </g>
     </g>
     <g id="text_2">
      <!-- 0.4 -->
      <g transform="translate(188.560285 469.875625) scale(0.2 -0.2)">
       <defs>
        <path id="ArialMT-34" d="M 2069 0 
L 2069 1097 
L 81 1097 
L 81 1613 
L 2172 4581 
L 2631 4581 
L 2631 1613 
L 3250 1613 
L 3250 1097 
L 2631 1097 
L 2631 0 
L 2069 0 
z
M 2069 1613 
L 2069 3678 
L 634 1613 
L 2069 1613 
z
" transform="scale(0.015625)"/>
       </defs>
       <use xlink:href="#ArialMT-30"/>
       <use xlink:href="#ArialMT-2e" x="55.615234"/>
       <use xlink:href="#ArialMT-34" x="83.398438"/>
      </g>
     </g>
    </g>
    <g id="xtick_3">
     <g id="line2d_3">
      <g>
       <use xlink:href="#m9dc94a6502" x="281.168" y="448.56" style="stroke: #000000; stroke-width: 0.8"/>
      </g>
     </g>
     <g id="text_3">
      <!-- 0.6 -->
      <g transform="translate(267.268 469.875625) scale(0.2 -0.2)">
       <defs>
        <path id="ArialMT-36" d="M 3184 3459 
L 2625 3416 
Q 2550 3747 2413 3897 
Q 2184 4138 1850 4138 
Q 1581 4138 1378 3988 
Q 1113 3794 959 3422 
Q 806 3050 800 2363 
Q 1003 2672 1297 2822 
Q 1591 2972 1913 2972 
Q 2475 2972 2870 2558 
Q 3266 2144 3266 1488 
Q 3266 1056 3080 686 
Q 2894 316 2569 119 
Q 2244 -78 1831 -78 
Q 1128 -78 684 439 
Q 241 956 241 2144 
Q 241 3472 731 4075 
Q 1159 4600 1884 4600 
Q 2425 4600 2770 4297 
Q 3116 3994 3184 3459 
z
M 888 1484 
Q 888 1194 1011 928 
Q 1134 663 1356 523 
Q 1578 384 1822 384 
Q 2178 384 2434 671 
Q 2691 959 2691 1453 
Q 2691 1928 2437 2201 
Q 2184 2475 1800 2475 
Q 1419 2475 1153 2201 
Q 888 1928 888 1484 
z
" transform="scale(0.015625)"/>
       </defs>
       <use xlink:href="#ArialMT-30"/>
       <use xlink:href="#ArialMT-2e" x="55.615234"/>
       <use xlink:href="#ArialMT-36" x="83.398438"/>
      </g>
     </g>
    </g>
    <g id="xtick_4">
     <g id="line2d_4">
      <g>
       <use xlink:href="#m9dc94a6502" x="359.875716" y="448.56" style="stroke: #000000; stroke-width: 0.8"/>
      </g>
     </g>
     <g id="text_4">
      <!-- 0.8 -->
      <g transform="translate(345.975716 469.875625) scale(0.2 -0.2)">
       <defs>
        <path id="ArialMT-38" d="M 1131 2484 
Q 781 2613 612 2850 
Q 444 3088 444 3419 
Q 444 3919 803 4259 
Q 1163 4600 1759 4600 
Q 2359 4600 2725 4251 
Q 3091 3903 3091 3403 
Q 3091 3084 2923 2848 
Q 2756 2613 2416 2484 
Q 2838 2347 3058 2040 
Q 3278 1734 3278 1309 
Q 3278 722 2862 322 
Q 2447 -78 1769 -78 
Q 1091 -78 675 323 
Q 259 725 259 1325 
Q 259 1772 486 2073 
Q 713 2375 1131 2484 
z
M 1019 3438 
Q 1019 3113 1228 2906 
Q 1438 2700 1772 2700 
Q 2097 2700 2305 2904 
Q 2513 3109 2513 3406 
Q 2513 3716 2298 3927 
Q 2084 4138 1766 4138 
Q 1444 4138 1231 3931 
Q 1019 3725 1019 3438 
z
M 838 1322 
Q 838 1081 952 856 
Q 1066 631 1291 507 
Q 1516 384 1775 384 
Q 2178 384 2440 643 
Q 2703 903 2703 1303 
Q 2703 1709 2433 1975 
Q 2163 2241 1756 2241 
Q 1359 2241 1098 1978 
Q 838 1716 838 1322 
z
" transform="scale(0.015625)"/>
       </defs>
       <use xlink:href="#ArialMT-30"/>
       <use xlink:href="#ArialMT-2e" x="55.615234"/>
       <use xlink:href="#ArialMT-38" x="83.398438"/>
      </g>
     </g>
    </g>
    <g id="xtick_5">
     <g id="line2d_5">
      <g>
       <use xlink:href="#m9dc94a6502" x="438.583431" y="448.56" style="stroke: #000000; stroke-width: 0.8"/>
      </g>
     </g>
     <g id="text_5">
      <!-- 1.0 -->
      <g transform="translate(424.683431 469.875625) scale(0.2 -0.2)">
       <defs>
        <path id="ArialMT-31" d="M 2384 0 
L 1822 0 
L 1822 3584 
Q 1619 3391 1289 3197 
Q 959 3003 697 2906 
L 697 3450 
Q 1169 3672 1522 3987 
Q 1875 4303 2022 4600 
L 2384 4600 
L 2384 0 
z
" transform="scale(0.015625)"/>
       </defs>
       <use xlink:href="#ArialMT-31"/>
       <use xlink:href="#ArialMT-2e" x="55.615234"/>
       <use xlink:href="#ArialMT-30" x="83.398438"/>
      </g>
     </g>
    </g>
    <g id="text_6">
     <!-- Flocculation (plate-reader assay, CV) -->
     <g transform="translate(93.979688 492.41) scale(0.2 -0.2)">
      <defs>
       <path id="ArialMT-46" d="M 525 0 
L 525 4581 
L 3616 4581 
L 3616 4041 
L 1131 4041 
L 1131 2622 
L 3281 2622 
L 3281 2081 
L 1131 2081 
L 1131 0 
L 525 0 
z
" transform="scale(0.015625)"/>
       <path id="ArialMT-6c" d="M 409 0 
L 409 4581 
L 972 4581 
L 972 0 
L 409 0 
z
" transform="scale(0.015625)"/>
       <path id="ArialMT-6f" d="M 213 1659 
Q 213 2581 725 3025 
Q 1153 3394 1769 3394 
Q 2453 3394 2887 2945 
Q 3322 2497 3322 1706 
Q 3322 1066 3130 698 
Q 2938 331 2570 128 
Q 2203 -75 1769 -75 
Q 1072 -75 642 372 
Q 213 819 213 1659 
z
M 791 1659 
Q 791 1022 1069 705 
Q 1347 388 1769 388 
Q 2188 388 2466 706 
Q 2744 1025 2744 1678 
Q 2744 2294 2464 2611 
Q 2184 2928 1769 2928 
Q 1347 2928 1069 2612 
Q 791 2297 791 1659 
z
" transform="scale(0.015625)"/>
       <path id="ArialMT-63" d="M 2588 1216 
L 3141 1144 
Q 3050 572 2676 248 
Q 2303 -75 1759 -75 
Q 1078 -75 664 370 
Q 250 816 250 1647 
Q 250 2184 428 2587 
Q 606 2991 970 3192 
Q 1334 3394 1763 3394 
Q 2303 3394 2647 3120 
Q 2991 2847 3088 2344 
L 2541 2259 
Q 2463 2594 2264 2762 
Q 2066 2931 1784 2931 
Q 1359 2931 1093 2626 
Q 828 2322 828 1663 
Q 828 994 1084 691 
Q 1341 388 1753 388 
Q 2084 388 2306 591 
Q 2528 794 2588 1216 
z
" transform="scale(0.015625)"/>
       <path id="ArialMT-75" d="M 2597 0 
L 2597 488 
Q 2209 -75 1544 -75 
Q 1250 -75 995 37 
Q 741 150 617 320 
Q 494 491 444 738 
Q 409 903 409 1263 
L 409 3319 
L 972 3319 
L 972 1478 
Q 972 1038 1006 884 
Q 1059 663 1231 536 
Q 1403 409 1656 409 
Q 1909 409 2131 539 
Q 2353 669 2445 892 
Q 2538 1116 2538 1541 
L 2538 3319 
L 3100 3319 
L 3100 0 
L 2597 0 
z
" transform="scale(0.015625)"/>
       <path id="ArialMT-61" d="M 2588 409 
Q 2275 144 1986 34 
Q 1697 -75 1366 -75 
Q 819 -75 525 192 
Q 231 459 231 875 
Q 231 1119 342 1320 
Q 453 1522 633 1644 
Q 813 1766 1038 1828 
Q 1203 1872 1538 1913 
Q 2219 1994 2541 2106 
Q 2544 2222 2544 2253 
Q 2544 2597 2384 2738 
Q 2169 2928 1744 2928 
Q 1347 2928 1158 2789 
Q 969 2650 878 2297 
L 328 2372 
Q 403 2725 575 2942 
Q 747 3159 1072 3276 
Q 1397 3394 1825 3394 
Q 2250 3394 2515 3294 
Q 2781 3194 2906 3042 
Q 3031 2891 3081 2659 
Q 3109 2516 3109 2141 
L 3109 1391 
Q 3109 606 3145 398 
Q 3181 191 3288 0 
L 2700 0 
Q 2613 175 2588 409 
z
M 2541 1666 
Q 2234 1541 1622 1453 
Q 1275 1403 1131 1340 
Q 988 1278 909 1158 
Q 831 1038 831 891 
Q 831 666 1001 516 
Q 1172 366 1500 366 
Q 1825 366 2078 508 
Q 2331 650 2450 897 
Q 2541 1088 2541 1459 
L 2541 1666 
z
" transform="scale(0.015625)"/>
       <path id="ArialMT-74" d="M 1650 503 
L 1731 6 
Q 1494 -44 1306 -44 
Q 1000 -44 831 53 
Q 663 150 594 308 
Q 525 466 525 972 
L 525 2881 
L 113 2881 
L 113 3319 
L 525 3319 
L 525 4141 
L 1084 4478 
L 1084 3319 
L 1650 3319 
L 1650 2881 
L 1084 2881 
L 1084 941 
Q 1084 700 1114 631 
Q 1144 563 1211 522 
Q 1278 481 1403 481 
Q 1497 481 1650 503 
z
" transform="scale(0.015625)"/>
       <path id="ArialMT-69" d="M 425 3934 
L 425 4581 
L 988 4581 
L 988 3934 
L 425 3934 
z
M 425 0 
L 425 3319 
L 988 3319 
L 988 0 
L 425 0 
z
" transform="scale(0.015625)"/>
       <path id="ArialMT-6e" d="M 422 0 
L 422 3319 
L 928 3319 
L 928 2847 
Q 1294 3394 1984 3394 
Q 2284 3394 2536 3286 
Q 2788 3178 2913 3003 
Q 3038 2828 3088 2588 
Q 3119 2431 3119 2041 
L 3119 0 
L 2556 0 
L 2556 2019 
Q 2556 2363 2490 2533 
Q 2425 2703 2258 2804 
Q 2091 2906 1866 2906 
Q 1506 2906 1245 2678 
Q 984 2450 984 1813 
L 984 0 
L 422 0 
z
" transform="scale(0.015625)"/>
       <path id="ArialMT-20" transform="scale(0.015625)"/>
       <path id="ArialMT-28" d="M 1497 -1347 
Q 1031 -759 709 28 
Q 388 816 388 1659 
Q 388 2403 628 3084 
Q 909 3875 1497 4659 
L 1900 4659 
Q 1522 4009 1400 3731 
Q 1209 3300 1100 2831 
Q 966 2247 966 1656 
Q 966 153 1900 -1347 
L 1497 -1347 
z
" transform="scale(0.015625)"/>
       <path id="ArialMT-70" d="M 422 -1272 
L 422 3319 
L 934 3319 
L 934 2888 
Q 1116 3141 1344 3267 
Q 1572 3394 1897 3394 
Q 2322 3394 2647 3175 
Q 2972 2956 3137 2557 
Q 3303 2159 3303 1684 
Q 3303 1175 3120 767 
Q 2938 359 2589 142 
Q 2241 -75 1856 -75 
Q 1575 -75 1351 44 
Q 1128 163 984 344 
L 984 -1272 
L 422 -1272 
z
M 931 1641 
Q 931 1000 1190 694 
Q 1450 388 1819 388 
Q 2194 388 2461 705 
Q 2728 1022 2728 1688 
Q 2728 2322 2467 2637 
Q 2206 2953 1844 2953 
Q 1484 2953 1207 2617 
Q 931 2281 931 1641 
z
" transform="scale(0.015625)"/>
       <path id="ArialMT-65" d="M 2694 1069 
L 3275 997 
Q 3138 488 2766 206 
Q 2394 -75 1816 -75 
Q 1088 -75 661 373 
Q 234 822 234 1631 
Q 234 2469 665 2931 
Q 1097 3394 1784 3394 
Q 2450 3394 2872 2941 
Q 3294 2488 3294 1666 
Q 3294 1616 3291 1516 
L 816 1516 
Q 847 969 1125 678 
Q 1403 388 1819 388 
Q 2128 388 2347 550 
Q 2566 713 2694 1069 
z
M 847 1978 
L 2700 1978 
Q 2663 2397 2488 2606 
Q 2219 2931 1791 2931 
Q 1403 2931 1139 2672 
Q 875 2413 847 1978 
z
" transform="scale(0.015625)"/>
       <path id="ArialMT-2d" d="M 203 1375 
L 203 1941 
L 1931 1941 
L 1931 1375 
L 203 1375 
z
" transform="scale(0.015625)"/>
       <path id="ArialMT-72" d="M 416 0 
L 416 3319 
L 922 3319 
L 922 2816 
Q 1116 3169 1280 3281 
Q 1444 3394 1641 3394 
Q 1925 3394 2219 3213 
L 2025 2691 
Q 1819 2813 1613 2813 
Q 1428 2813 1281 2702 
Q 1134 2591 1072 2394 
Q 978 2094 978 1738 
L 978 0 
L 416 0 
z
" transform="scale(0.015625)"/>
       <path id="ArialMT-64" d="M 2575 0 
L 2575 419 
Q 2259 -75 1647 -75 
Q 1250 -75 917 144 
Q 584 363 401 755 
Q 219 1147 219 1656 
Q 219 2153 384 2558 
Q 550 2963 881 3178 
Q 1213 3394 1622 3394 
Q 1922 3394 2156 3267 
Q 2391 3141 2538 2938 
L 2538 4581 
L 3097 4581 
L 3097 0 
L 2575 0 
z
M 797 1656 
Q 797 1019 1065 703 
Q 1334 388 1700 388 
Q 2069 388 2326 689 
Q 2584 991 2584 1609 
Q 2584 2291 2321 2609 
Q 2059 2928 1675 2928 
Q 1300 2928 1048 2622 
Q 797 2316 797 1656 
z
" transform="scale(0.015625)"/>
       <path id="ArialMT-73" d="M 197 991 
L 753 1078 
Q 800 744 1014 566 
Q 1228 388 1613 388 
Q 2000 388 2187 545 
Q 2375 703 2375 916 
Q 2375 1106 2209 1216 
Q 2094 1291 1634 1406 
Q 1016 1563 777 1677 
Q 538 1791 414 1992 
Q 291 2194 291 2438 
Q 291 2659 392 2848 
Q 494 3038 669 3163 
Q 800 3259 1026 3326 
Q 1253 3394 1513 3394 
Q 1903 3394 2198 3281 
Q 2494 3169 2634 2976 
Q 2775 2784 2828 2463 
L 2278 2388 
Q 2241 2644 2061 2787 
Q 1881 2931 1553 2931 
Q 1166 2931 1000 2803 
Q 834 2675 834 2503 
Q 834 2394 903 2306 
Q 972 2216 1119 2156 
Q 1203 2125 1616 2013 
Q 2213 1853 2448 1751 
Q 2684 1650 2818 1456 
Q 2953 1263 2953 975 
Q 2953 694 2789 445 
Q 2625 197 2315 61 
Q 2006 -75 1616 -75 
Q 969 -75 630 194 
Q 291 463 197 991 
z
" transform="scale(0.015625)"/>
       <path id="ArialMT-79" d="M 397 -1278 
L 334 -750 
Q 519 -800 656 -800 
Q 844 -800 956 -737 
Q 1069 -675 1141 -563 
Q 1194 -478 1313 -144 
Q 1328 -97 1363 -6 
L 103 3319 
L 709 3319 
L 1400 1397 
Q 1534 1031 1641 628 
Q 1738 1016 1872 1384 
L 2581 3319 
L 3144 3319 
L 1881 -56 
Q 1678 -603 1566 -809 
Q 1416 -1088 1222 -1217 
Q 1028 -1347 759 -1347 
Q 597 -1347 397 -1278 
z
" transform="scale(0.015625)"/>
       <path id="ArialMT-2c" d="M 569 0 
L 569 641 
L 1209 641 
L 1209 0 
Q 1209 -353 1084 -570 
Q 959 -788 688 -906 
L 531 -666 
Q 709 -588 793 -436 
Q 878 -284 888 0 
L 569 0 
z
" transform="scale(0.015625)"/>
       <path id="ArialMT-43" d="M 3763 1606 
L 4369 1453 
Q 4178 706 3683 314 
Q 3188 -78 2472 -78 
Q 1731 -78 1267 223 
Q 803 525 561 1097 
Q 319 1669 319 2325 
Q 319 3041 592 3573 
Q 866 4106 1370 4382 
Q 1875 4659 2481 4659 
Q 3169 4659 3637 4309 
Q 4106 3959 4291 3325 
L 3694 3184 
Q 3534 3684 3231 3912 
Q 2928 4141 2469 4141 
Q 1941 4141 1586 3887 
Q 1231 3634 1087 3207 
Q 944 2781 944 2328 
Q 944 1744 1114 1308 
Q 1284 872 1643 656 
Q 2003 441 2422 441 
Q 2931 441 3284 734 
Q 3638 1028 3763 1606 
z
" transform="scale(0.015625)"/>
       <path id="ArialMT-56" d="M 1803 0 
L 28 4581 
L 684 4581 
L 1875 1253 
Q 2019 853 2116 503 
Q 2222 878 2363 1253 
L 3600 4581 
L 4219 4581 
L 2425 0 
L 1803 0 
z
" transform="scale(0.015625)"/>
       <path id="ArialMT-29" d="M 791 -1347 
L 388 -1347 
Q 1322 153 1322 1656 
Q 1322 2244 1188 2822 
Q 1081 3291 891 3722 
Q 769 4003 388 4659 
L 791 4659 
Q 1378 3875 1659 3084 
Q 1900 2403 1900 1659 
Q 1900 816 1576 28 
Q 1253 -759 791 -1347 
z
" transform="scale(0.015625)"/>
      </defs>
      <use xlink:href="#ArialMT-46"/>
      <use xlink:href="#ArialMT-6c" x="61.083984"/>
      <use xlink:href="#ArialMT-6f" x="83.300781"/>
      <use xlink:href="#ArialMT-63" x="138.916016"/>
      <use xlink:href="#ArialMT-63" x="188.916016"/>
      <use xlink:href="#ArialMT-75" x="238.916016"/>
      <use xlink:href="#ArialMT-6c" x="294.53125"/>
      <use xlink:href="#ArialMT-61" x="316.748047"/>
      <use xlink:href="#ArialMT-74" x="372.363281"/>
      <use xlink:href="#ArialMT-69" x="400.146484"/>
      <use xlink:href="#ArialMT-6f" x="422.363281"/>
      <use xlink:href="#ArialMT-6e" x="477.978516"/>
      <use xlink:href="#ArialMT-20" x="533.59375"/>
      <use xlink:href="#ArialMT-28" x="561.376953"/>
      <use xlink:href="#ArialMT-70" x="594.677734"/>
      <use xlink:href="#ArialMT-6c" x="650.292969"/>
      <use xlink:href="#ArialMT-61" x="672.509766"/>
      <use xlink:href="#ArialMT-74" x="728.125"/>
      <use xlink:href="#ArialMT-65" x="755.908203"/>
      <use xlink:href="#ArialMT-2d" x="811.523438"/>
      <use xlink:href="#ArialMT-72" x="844.824219"/>
      <use xlink:href="#ArialMT-65" x="878.125"/>
      <use xlink:href="#ArialMT-61" x="933.740234"/>
      <use xlink:href="#ArialMT-64" x="989.355469"/>
      <use xlink:href="#ArialMT-65" x="1044.970703"/>
      <use xlink:href="#ArialMT-72" x="1100.585938"/>
      <use xlink:href="#ArialMT-20" x="1133.886719"/>
      <use xlink:href="#ArialMT-61" x="1161.669922"/>
      <use xlink:href="#ArialMT-73" x="1217.285156"/>
      <use xlink:href="#ArialMT-73" x="1267.285156"/>
      <use xlink:href="#ArialMT-61" x="1317.285156"/>
      <use xlink:href="#ArialMT-79" x="1372.900391"/>
      <use xlink:href="#ArialMT-2c" x="1415.525391"/>
      <use xlink:href="#ArialMT-20" x="1443.308594"/>
      <use xlink:href="#ArialMT-43" x="1471.091797"/>
      <use xlink:href="#ArialMT-56" x="1543.308594"/>
      <use xlink:href="#ArialMT-29" x="1610.007812"/>
     </g>
    </g>
   </g>
   <g id="matplotlib.axis_2">
    <g id="ytick_1">
     <g id="line2d_6">
      <defs>
       <path id="m8fbc0c11a5" d="M 0 0 
L -3.5 0 
" style="stroke: #000000; stroke-width: 0.8"/>
      </defs>
      <g>
       <use xlink:href="#m8fbc0c11a5" x="63" y="433.878965" style="stroke: #000000; stroke-width: 0.8"/>
      </g>
     </g>
     <g id="text_7">
      <!-- 0.0 -->
      <g transform="translate(28.2 441.036778) scale(0.2 -0.2)">
       <use xlink:href="#ArialMT-30"/>
       <use xlink:href="#ArialMT-2e" x="55.615234"/>
       <use xlink:href="#ArialMT-30" x="83.398438"/>
      </g>
     </g>
    </g>
    <g id="ytick_2">
     <g id="line2d_7">
      <g>
       <use xlink:href="#m8fbc0c11a5" x="63" y="361.83434" style="stroke: #000000; stroke-width: 0.8"/>
      </g>
     </g>
     <g id="text_8">
      <!-- 0.2 -->
      <g transform="translate(28.2 368.992152) scale(0.2 -0.2)">
       <use xlink:href="#ArialMT-30"/>
       <use xlink:href="#ArialMT-2e" x="55.615234"/>
       <use xlink:href="#ArialMT-32" x="83.398438"/>
      </g>
     </g>
    </g>
    <g id="ytick_3">
     <g id="line2d_8">
      <g>
       <use xlink:href="#m8fbc0c11a5" x="63" y="289.789715" style="stroke: #000000; stroke-width: 0.8"/>
      </g>
     </g>
     <g id="text_9">
      <!-- 0.4 -->
      <g transform="translate(28.2 296.947527) scale(0.2 -0.2)">
       <use xlink:href="#ArialMT-30"/>
       <use xlink:href="#ArialMT-2e" x="55.615234"/>
       <use xlink:href="#ArialMT-34" x="83.398438"/>
      </g>
     </g>
    </g>
    <g id="ytick_4">
     <g id="line2d_9">
      <g>
       <use xlink:href="#m8fbc0c11a5" x="63" y="217.74509" style="stroke: #000000; stroke-width: 0.8"/>
      </g>
     </g>
     <g id="text_10">
      <!-- 0.6 -->
      <g transform="translate(28.2 224.902902) scale(0.2 -0.2)">
       <use xlink:href="#ArialMT-30"/>
       <use xlink:href="#ArialMT-2e" x="55.615234"/>
       <use xlink:href="#ArialMT-36" x="83.398438"/>
      </g>
     </g>
    </g>
    <g id="ytick_5">
     <g id="line2d_10">
      <g>
       <use xlink:href="#m8fbc0c11a5" x="63" y="145.700465" style="stroke: #000000; stroke-width: 0.8"/>
      </g>
     </g>
     <g id="text_11">
      <!-- 0.8 -->
      <g transform="translate(28.2 152.858277) scale(0.2 -0.2)">
       <use xlink:href="#ArialMT-30"/>
       <use xlink:href="#ArialMT-2e" x="55.615234"/>
       <use xlink:href="#ArialMT-38" x="83.398438"/>
      </g>
     </g>
    </g>
    <g id="ytick_6">
     <g id="line2d_11">
      <g>
       <use xlink:href="#m8fbc0c11a5" x="63" y="73.655839" style="stroke: #000000; stroke-width: 0.8"/>
      </g>
     </g>
     <g id="text_12">
      <!-- 1.0 -->
      <g transform="translate(28.2 80.813652) scale(0.2 -0.2)">
       <use xlink:href="#ArialMT-31"/>
       <use xlink:href="#ArialMT-2e" x="55.615234"/>
       <use xlink:href="#ArialMT-30" x="83.398438"/>
      </g>
     </g>
    </g>
    <g id="text_13">
     <!-- Adhesion (washing assay) -->
     <g transform="translate(19.990625 371.241875) rotate(-90) scale(0.2 -0.2)">
      <defs>
       <path id="ArialMT-41" d="M -9 0 
L 1750 4581 
L 2403 4581 
L 4278 0 
L 3588 0 
L 3053 1388 
L 1138 1388 
L 634 0 
L -9 0 
z
M 1313 1881 
L 2866 1881 
L 2388 3150 
Q 2169 3728 2063 4100 
Q 1975 3659 1816 3225 
L 1313 1881 
z
" transform="scale(0.015625)"/>
       <path id="ArialMT-68" d="M 422 0 
L 422 4581 
L 984 4581 
L 984 2938 
Q 1378 3394 1978 3394 
Q 2347 3394 2619 3248 
Q 2891 3103 3008 2847 
Q 3125 2591 3125 2103 
L 3125 0 
L 2563 0 
L 2563 2103 
Q 2563 2525 2380 2717 
Q 2197 2909 1863 2909 
Q 1613 2909 1392 2779 
Q 1172 2650 1078 2428 
Q 984 2206 984 1816 
L 984 0 
L 422 0 
z
" transform="scale(0.015625)"/>
       <path id="ArialMT-77" d="M 1034 0 
L 19 3319 
L 600 3319 
L 1128 1403 
L 1325 691 
Q 1338 744 1497 1375 
L 2025 3319 
L 2603 3319 
L 3100 1394 
L 3266 759 
L 3456 1400 
L 4025 3319 
L 4572 3319 
L 3534 0 
L 2950 0 
L 2422 1988 
L 2294 2553 
L 1622 0 
L 1034 0 
z
" transform="scale(0.015625)"/>
       <path id="ArialMT-67" d="M 319 -275 
L 866 -356 
Q 900 -609 1056 -725 
Q 1266 -881 1628 -881 
Q 2019 -881 2231 -725 
Q 2444 -569 2519 -288 
Q 2563 -116 2559 434 
Q 2191 0 1641 0 
Q 956 0 581 494 
Q 206 988 206 1678 
Q 206 2153 378 2554 
Q 550 2956 876 3175 
Q 1203 3394 1644 3394 
Q 2231 3394 2613 2919 
L 2613 3319 
L 3131 3319 
L 3131 450 
Q 3131 -325 2973 -648 
Q 2816 -972 2473 -1159 
Q 2131 -1347 1631 -1347 
Q 1038 -1347 672 -1080 
Q 306 -813 319 -275 
z
M 784 1719 
Q 784 1066 1043 766 
Q 1303 466 1694 466 
Q 2081 466 2343 764 
Q 2606 1063 2606 1700 
Q 2606 2309 2336 2618 
Q 2066 2928 1684 2928 
Q 1309 2928 1046 2623 
Q 784 2319 784 1719 
z
" transform="scale(0.015625)"/>
      </defs>
      <use xlink:href="#ArialMT-41"/>
      <use xlink:href="#ArialMT-64" x="66.699219"/>
      <use xlink:href="#ArialMT-68" x="122.314453"/>
      <use xlink:href="#ArialMT-65" x="177.929688"/>
      <use xlink:href="#ArialMT-73" x="233.544922"/>
      <use xlink:href="#ArialMT-69" x="283.544922"/>
      <use xlink:href="#ArialMT-6f" x="305.761719"/>
      <use xlink:href="#ArialMT-6e" x="361.376953"/>
      <use xlink:href="#ArialMT-20" x="416.992188"/>
      <use xlink:href="#ArialMT-28" x="444.775391"/>
      <use xlink:href="#ArialMT-77" x="478.076172"/>
      <use xlink:href="#ArialMT-61" x="550.292969"/>
      <use xlink:href="#ArialMT-73" x="605.908203"/>
      <use xlink:href="#ArialMT-68" x="655.908203"/>
      <use xlink:href="#ArialMT-69" x="711.523438"/>
      <use xlink:href="#ArialMT-6e" x="733.740234"/>
      <use xlink:href="#ArialMT-67" x="789.355469"/>
      <use xlink:href="#ArialMT-20" x="844.970703"/>
      <use xlink:href="#ArialMT-61" x="872.753906"/>
      <use xlink:href="#ArialMT-73" x="928.369141"/>
      <use xlink:href="#ArialMT-73" x="978.369141"/>
      <use xlink:href="#ArialMT-61" x="1028.369141"/>
      <use xlink:href="#ArialMT-79" x="1083.984375"/>
      <use xlink:href="#ArialMT-29" x="1133.984375"/>
     </g>
    </g>
   </g>
   <g id="LineCollection_1">
    <path d="M 115.94677 406.749278 
L 124.466769 406.749278 
" clip-path="url(#p8b2e6e091f)" style="fill: none; stroke: #0000ff; stroke-width: 1.5"/>
    <path d="M 138.08688 320.490255 
L 149.037005 320.490255 
" clip-path="url(#p8b2e6e091f)" style="fill: none; stroke: #0000ff; stroke-width: 1.5"/>
    <path d="M 94.57704 408.46908 
L 135.916203 408.46908 
" clip-path="url(#p8b2e6e091f)" style="fill: none; stroke: #0000ff; stroke-width: 1.5"/>
    <path d="M 160.848253 235.332682 
L 220.05839 235.332682 
" clip-path="url(#p8b2e6e091f)" style="fill: none; stroke: #0000ff; stroke-width: 1.5"/>
    <path d="M 101.758483 397.803513 
L 141.017687 397.803513 
" clip-path="url(#p8b2e6e091f)" style="fill: none; stroke: #0000ff; stroke-width: 1.5"/>
    <path d="M 94.00992 398.240536 
L 124.709566 398.240536 
" clip-path="url(#p8b2e6e091f)" style="fill: none; stroke: #0000ff; stroke-width: 1.5"/>
    <path d="M 94.256138 402.100431 
L 130.53222 402.100431 
" clip-path="url(#p8b2e6e091f)" style="fill: none; stroke: #0000ff; stroke-width: 1.5"/>
    <path d="M 103.231546 371.34631 
L 144.926136 371.34631 
" clip-path="url(#p8b2e6e091f)" style="fill: none; stroke: #0000ff; stroke-width: 1.5"/>
    <path d="M 102.138975 405.556159 
L 137.099053 405.556159 
" clip-path="url(#p8b2e6e091f)" style="fill: none; stroke: #0000ff; stroke-width: 1.5"/>
    <path d="M 114.932813 419.134723 
L 165.944517 419.134723 
" clip-path="url(#p8b2e6e091f)" style="fill: none; stroke: #0000ff; stroke-width: 1.5"/>
    <path d="M 99.52592 426.685804 
L 131.41022 426.685804 
" clip-path="url(#p8b2e6e091f)" style="fill: none; stroke: #0000ff; stroke-width: 1.5"/>
    <path d="M 107.045644 426.819447 
L 153.30132 426.819447 
" clip-path="url(#p8b2e6e091f)" style="fill: none; stroke: #0000ff; stroke-width: 1.5"/>
    <path d="M 98.964658 419.017138 
L 131.613763 419.017138 
" clip-path="url(#p8b2e6e091f)" style="fill: none; stroke: #0000ff; stroke-width: 1.5"/>
    <path d="M 105.365748 388.881835 
L 143.126545 388.881835 
" clip-path="url(#p8b2e6e091f)" style="fill: none; stroke: #0000ff; stroke-width: 1.5"/>
    <path d="M 95.145713 418.502785 
L 125.928179 418.502785 
" clip-path="url(#p8b2e6e091f)" style="fill: none; stroke: #0000ff; stroke-width: 1.5"/>
    <path d="M 103.60785 425.800995 
L 138.934228 425.800995 
" clip-path="url(#p8b2e6e091f)" style="fill: none; stroke: #0000ff; stroke-width: 1.5"/>
    <path d="M 95.686636 425.975164 
L 122.715484 425.975164 
" clip-path="url(#p8b2e6e091f)" style="fill: none; stroke: #0000ff; stroke-width: 1.5"/>
    <path d="M 100.433712 423.119802 
L 142.987232 423.119802 
" clip-path="url(#p8b2e6e091f)" style="fill: none; stroke: #0000ff; stroke-width: 1.5"/>
    <path d="M 124.482778 394.420061 
L 241.574548 394.420061 
" clip-path="url(#p8b2e6e091f)" style="fill: none; stroke: #0000ff; stroke-width: 1.5"/>
    <path d="M 95.081899 422.634557 
L 121.44693 422.634557 
" clip-path="url(#p8b2e6e091f)" style="fill: none; stroke: #0000ff; stroke-width: 1.5"/>
    <path d="M 102.69078 405.632694 
L 139.85639 405.632694 
" clip-path="url(#p8b2e6e091f)" style="fill: none; stroke: #0000ff; stroke-width: 1.5"/>
    <path d="M 100.129514 398.548841 
L 138.332927 398.548841 
" clip-path="url(#p8b2e6e091f)" style="fill: none; stroke: #0000ff; stroke-width: 1.5"/>
    <path d="M 88.870341 422.030151 
L 119.970714 422.030151 
" clip-path="url(#p8b2e6e091f)" style="fill: none; stroke: #0000ff; stroke-width: 1.5"/>
    <path d="M 89.054266 424.117558 
L 118.917497 424.117558 
" clip-path="url(#p8b2e6e091f)" style="fill: none; stroke: #0000ff; stroke-width: 1.5"/>
    <path d="M 90.302462 318.502042 
L 121.627224 318.502042 
" clip-path="url(#p8b2e6e091f)" style="fill: none; stroke: #0000ff; stroke-width: 1.5"/>
    <path d="M 84.18639 391.344204 
L 108.122966 391.344204 
" clip-path="url(#p8b2e6e091f)" style="fill: none; stroke: #0000ff; stroke-width: 1.5"/>
    <path d="M 102.880203 411.573698 
L 149.087963 411.573698 
" clip-path="url(#p8b2e6e091f)" style="fill: none; stroke: #0000ff; stroke-width: 1.5"/>
    <path d="M 92.273685 420.799794 
L 125.12515 420.799794 
" clip-path="url(#p8b2e6e091f)" style="fill: none; stroke: #0000ff; stroke-width: 1.5"/>
    <path d="M 102.956257 384.256172 
L 146.082288 384.256172 
" clip-path="url(#p8b2e6e091f)" style="fill: none; stroke: #0000ff; stroke-width: 1.5"/>
    <path d="M 112.226934 429.297471 
L 138.484272 429.297471 
" clip-path="url(#p8b2e6e091f)" style="fill: none; stroke: #0000ff; stroke-width: 1.5"/>
    <path d="M 100.698089 383.833819 
L 134.469862 383.833819 
" clip-path="url(#p8b2e6e091f)" style="fill: none; stroke: #0000ff; stroke-width: 1.5"/>
    <path d="M 126.236102 357.104069 
L 197.070102 357.104069 
" clip-path="url(#p8b2e6e091f)" style="fill: none; stroke: #0000ff; stroke-width: 1.5"/>
    <path d="M 94.40775 392.357506 
L 122.150731 392.357506 
" clip-path="url(#p8b2e6e091f)" style="fill: none; stroke: #0000ff; stroke-width: 1.5"/>
    <path d="M 199.734139 83.421464 
L 435.845455 83.421464 
" clip-path="url(#p8b2e6e091f)" style="fill: none; stroke: #0000ff; stroke-width: 1.5"/>
    <path d="M 90.9661 302.586585 
L 112.834319 302.586585 
" clip-path="url(#p8b2e6e091f)" style="fill: none; stroke: #0000ff; stroke-width: 1.5"/>
    <path d="M 81.922835 427.266253 
L 103.53626 427.266253 
" clip-path="url(#p8b2e6e091f)" style="fill: none; stroke: #0000ff; stroke-width: 1.5"/>
    <path d="M 105.490632 419.01536 
L 129.109007 419.01536 
" clip-path="url(#p8b2e6e091f)" style="fill: none; stroke: #0000ff; stroke-width: 1.5"/>
    <path d="M 92.81554 400.639207 
L 116.87125 400.639207 
" clip-path="url(#p8b2e6e091f)" style="fill: none; stroke: #0000ff; stroke-width: 1.5"/>
    <path d="M 93.252853 429.248997 
L 113.053433 429.248997 
" clip-path="url(#p8b2e6e091f)" style="fill: none; stroke: #0000ff; stroke-width: 1.5"/>
    <path d="M 100.501625 427.477133 
L 121.755837 427.477133 
" clip-path="url(#p8b2e6e091f)" style="fill: none; stroke: #0000ff; stroke-width: 1.5"/>
    <path d="M 107.202203 423.847162 
L 156.160989 423.847162 
" clip-path="url(#p8b2e6e091f)" style="fill: none; stroke: #0000ff; stroke-width: 1.5"/>
    <path d="M 103.139233 396.624057 
L 127.977622 396.624057 
" clip-path="url(#p8b2e6e091f)" style="fill: none; stroke: #0000ff; stroke-width: 1.5"/>
    <path d="M 97.592532 392.270435 
L 130.67031 392.270435 
" clip-path="url(#p8b2e6e091f)" style="fill: none; stroke: #0000ff; stroke-width: 1.5"/>
    <path d="M 93.480676 404.224556 
L 133.62517 404.224556 
" clip-path="url(#p8b2e6e091f)" style="fill: none; stroke: #0000ff; stroke-width: 1.5"/>
    <path d="M 135.149968 365.670713 
L 170.280198 365.670713 
" clip-path="url(#p8b2e6e091f)" style="fill: none; stroke: #0000ff; stroke-width: 1.5"/>
    <path d="M 114.908109 410.992957 
L 157.418044 410.992957 
" clip-path="url(#p8b2e6e091f)" style="fill: none; stroke: #0000ff; stroke-width: 1.5"/>
    <path d="M 201.89165 94.387864 
L 277.368636 94.387864 
" clip-path="url(#p8b2e6e091f)" style="fill: none; stroke: #0000ff; stroke-width: 1.5"/>
    <path d="M 98.060077 391.482726 
L 124.477169 391.482726 
" clip-path="url(#p8b2e6e091f)" style="fill: none; stroke: #0000ff; stroke-width: 1.5"/>
    <path d="M 91.392883 411.498724 
L 111.827833 411.498724 
" clip-path="url(#p8b2e6e091f)" style="fill: none; stroke: #0000ff; stroke-width: 1.5"/>
    <path d="M 95.577333 425.819119 
L 112.807456 425.819119 
" clip-path="url(#p8b2e6e091f)" style="fill: none; stroke: #0000ff; stroke-width: 1.5"/>
    <path d="M 125.768616 419.409081 
L 237.457872 419.409081 
" clip-path="url(#p8b2e6e091f)" style="fill: none; stroke: #0000ff; stroke-width: 1.5"/>
    <path d="M 98.497101 412.750838 
L 131.584902 412.750838 
" clip-path="url(#p8b2e6e091f)" style="fill: none; stroke: #0000ff; stroke-width: 1.5"/>
    <path d="M 96.378636 409.896367 
L 139.388705 409.896367 
" clip-path="url(#p8b2e6e091f)" style="fill: none; stroke: #0000ff; stroke-width: 1.5"/>
    <path d="M 107.780129 321.1526 
L 157.239486 321.1526 
" clip-path="url(#p8b2e6e091f)" style="fill: none; stroke: #0000ff; stroke-width: 1.5"/>
    <path d="M 93.433727 367.403357 
L 130.943703 367.403357 
" clip-path="url(#p8b2e6e091f)" style="fill: none; stroke: #0000ff; stroke-width: 1.5"/>
    <path d="M 80.754545 383.311445 
L 103.205464 383.311445 
" clip-path="url(#p8b2e6e091f)" style="fill: none; stroke: #0000ff; stroke-width: 1.5"/>
    <path d="M 84.235354 416.097604 
L 107.951489 416.097604 
" clip-path="url(#p8b2e6e091f)" style="fill: none; stroke: #0000ff; stroke-width: 1.5"/>
    <path d="M 88.53639 424.823316 
L 114.615453 424.823316 
" clip-path="url(#p8b2e6e091f)" style="fill: none; stroke: #0000ff; stroke-width: 1.5"/>
    <path d="M 115.996269 342.582825 
L 165.095971 342.582825 
" clip-path="url(#p8b2e6e091f)" style="fill: none; stroke: #0000ff; stroke-width: 1.5"/>
   </g>
   <g id="LineCollection_2">
    <path d="M 120.206769 414.639255 
L 120.206769 398.859301 
" clip-path="url(#p8b2e6e091f)" style="fill: none; stroke: #0000ff; stroke-width: 1.5"/>
    <path d="M 143.561943 326.113751 
L 143.561943 314.86676 
" clip-path="url(#p8b2e6e091f)" style="fill: none; stroke: #0000ff; stroke-width: 1.5"/>
    <path d="M 115.246622 413.090465 
L 115.246622 403.847695 
" clip-path="url(#p8b2e6e091f)" style="fill: none; stroke: #0000ff; stroke-width: 1.5"/>
    <path d="M 190.453321 261.971024 
L 190.453321 208.694341 
" clip-path="url(#p8b2e6e091f)" style="fill: none; stroke: #0000ff; stroke-width: 1.5"/>
    <path d="M 121.388085 416.062472 
L 121.388085 379.544555 
" clip-path="url(#p8b2e6e091f)" style="fill: none; stroke: #0000ff; stroke-width: 1.5"/>
    <path d="M 109.359743 419.385591 
L 109.359743 377.095481 
" clip-path="url(#p8b2e6e091f)" style="fill: none; stroke: #0000ff; stroke-width: 1.5"/>
    <path d="M 112.394179 418.330148 
L 112.394179 385.870714 
" clip-path="url(#p8b2e6e091f)" style="fill: none; stroke: #0000ff; stroke-width: 1.5"/>
    <path d="M 124.078841 385.10258 
L 124.078841 357.590041 
" clip-path="url(#p8b2e6e091f)" style="fill: none; stroke: #0000ff; stroke-width: 1.5"/>
    <path d="M 119.619014 410.706486 
L 119.619014 400.405832 
" clip-path="url(#p8b2e6e091f)" style="fill: none; stroke: #0000ff; stroke-width: 1.5"/>
    <path d="M 140.438665 422.720084 
L 140.438665 415.549363 
" clip-path="url(#p8b2e6e091f)" style="fill: none; stroke: #0000ff; stroke-width: 1.5"/>
    <path d="M 115.46807 427.757203 
L 115.46807 425.614406 
" clip-path="url(#p8b2e6e091f)" style="fill: none; stroke: #0000ff; stroke-width: 1.5"/>
    <path d="M 130.173482 428.630316 
L 130.173482 425.008578 
" clip-path="url(#p8b2e6e091f)" style="fill: none; stroke: #0000ff; stroke-width: 1.5"/>
    <path d="M 115.28921 422.013292 
L 115.28921 416.020985 
" clip-path="url(#p8b2e6e091f)" style="fill: none; stroke: #0000ff; stroke-width: 1.5"/>
    <path d="M 124.246147 397.209157 
L 124.246147 380.554513 
" clip-path="url(#p8b2e6e091f)" style="fill: none; stroke: #0000ff; stroke-width: 1.5"/>
    <path d="M 110.536946 420.29885 
L 110.536946 416.706721 
" clip-path="url(#p8b2e6e091f)" style="fill: none; stroke: #0000ff; stroke-width: 1.5"/>
    <path d="M 121.271039 428.53325 
L 121.271039 423.06874 
" clip-path="url(#p8b2e6e091f)" style="fill: none; stroke: #0000ff; stroke-width: 1.5"/>
    <path d="M 109.20106 427.701554 
L 109.20106 424.248775 
" clip-path="url(#p8b2e6e091f)" style="fill: none; stroke: #0000ff; stroke-width: 1.5"/>
    <path d="M 121.710472 425.27574 
L 121.710472 420.963864 
" clip-path="url(#p8b2e6e091f)" style="fill: none; stroke: #0000ff; stroke-width: 1.5"/>
    <path d="M 183.028663 395.503533 
L 183.028663 393.336589 
" clip-path="url(#p8b2e6e091f)" style="fill: none; stroke: #0000ff; stroke-width: 1.5"/>
    <path d="M 108.264414 425.070841 
L 108.264414 420.198274 
" clip-path="url(#p8b2e6e091f)" style="fill: none; stroke: #0000ff; stroke-width: 1.5"/>
    <path d="M 121.273585 408.013562 
L 121.273585 403.251826 
" clip-path="url(#p8b2e6e091f)" style="fill: none; stroke: #0000ff; stroke-width: 1.5"/>
    <path d="M 119.23122 402.324172 
L 119.23122 394.77351 
" clip-path="url(#p8b2e6e091f)" style="fill: none; stroke: #0000ff; stroke-width: 1.5"/>
    <path d="M 104.420527 424.064846 
L 104.420527 419.995455 
" clip-path="url(#p8b2e6e091f)" style="fill: none; stroke: #0000ff; stroke-width: 1.5"/>
    <path d="M 103.985881 424.845202 
L 103.985881 423.389915 
" clip-path="url(#p8b2e6e091f)" style="fill: none; stroke: #0000ff; stroke-width: 1.5"/>
    <path d="M 105.964843 353.37888 
L 105.964843 283.625203 
" clip-path="url(#p8b2e6e091f)" style="fill: none; stroke: #0000ff; stroke-width: 1.5"/>
    <path d="M 96.154678 417.063352 
L 96.154678 365.625057 
" clip-path="url(#p8b2e6e091f)" style="fill: none; stroke: #0000ff; stroke-width: 1.5"/>
    <path d="M 125.984083 413.816447 
L 125.984083 409.330948 
" clip-path="url(#p8b2e6e091f)" style="fill: none; stroke: #0000ff; stroke-width: 1.5"/>
    <path d="M 108.699418 422.028582 
L 108.699418 419.571006 
" clip-path="url(#p8b2e6e091f)" style="fill: none; stroke: #0000ff; stroke-width: 1.5"/>
    <path d="M 124.519273 394.899204 
L 124.519273 373.613141 
" clip-path="url(#p8b2e6e091f)" style="fill: none; stroke: #0000ff; stroke-width: 1.5"/>
    <path d="M 125.355603 430.568606 
L 125.355603 428.026337 
" clip-path="url(#p8b2e6e091f)" style="fill: none; stroke: #0000ff; stroke-width: 1.5"/>
    <path d="M 117.583975 390.944002 
L 117.583975 376.723637 
" clip-path="url(#p8b2e6e091f)" style="fill: none; stroke: #0000ff; stroke-width: 1.5"/>
    <path d="M 161.653102 363.732325 
L 161.653102 350.475812 
" clip-path="url(#p8b2e6e091f)" style="fill: none; stroke: #0000ff; stroke-width: 1.5"/>
    <path d="M 108.27924 414.370474 
L 108.27924 370.344539 
" clip-path="url(#p8b2e6e091f)" style="fill: none; stroke: #0000ff; stroke-width: 1.5"/>
    <path d="M 317.789797 88.722928 
L 317.789797 78.12 
" clip-path="url(#p8b2e6e091f)" style="fill: none; stroke: #0000ff; stroke-width: 1.5"/>
    <path d="M 101.900209 340.105578 
L 101.900209 265.067593 
" clip-path="url(#p8b2e6e091f)" style="fill: none; stroke: #0000ff; stroke-width: 1.5"/>
    <path d="M 92.729547 428.632308 
L 92.729547 425.900198 
" clip-path="url(#p8b2e6e091f)" style="fill: none; stroke: #0000ff; stroke-width: 1.5"/>
    <path d="M 117.29982 420.176088 
L 117.29982 417.854633 
" clip-path="url(#p8b2e6e091f)" style="fill: none; stroke: #0000ff; stroke-width: 1.5"/>
    <path d="M 104.843395 409.420679 
L 104.843395 391.857734 
" clip-path="url(#p8b2e6e091f)" style="fill: none; stroke: #0000ff; stroke-width: 1.5"/>
    <path d="M 103.153143 430.92 
L 103.153143 427.577995 
" clip-path="url(#p8b2e6e091f)" style="fill: none; stroke: #0000ff; stroke-width: 1.5"/>
    <path d="M 111.128731 428.861281 
L 111.128731 426.092984 
" clip-path="url(#p8b2e6e091f)" style="fill: none; stroke: #0000ff; stroke-width: 1.5"/>
    <path d="M 131.681596 425.123326 
L 131.681596 422.570999 
" clip-path="url(#p8b2e6e091f)" style="fill: none; stroke: #0000ff; stroke-width: 1.5"/>
    <path d="M 115.558428 421.181044 
L 115.558428 372.06707 
" clip-path="url(#p8b2e6e091f)" style="fill: none; stroke: #0000ff; stroke-width: 1.5"/>
    <path d="M 114.131421 418.667739 
L 114.131421 365.873131 
" clip-path="url(#p8b2e6e091f)" style="fill: none; stroke: #0000ff; stroke-width: 1.5"/>
    <path d="M 113.552923 421.039682 
L 113.552923 387.409429 
" clip-path="url(#p8b2e6e091f)" style="fill: none; stroke: #0000ff; stroke-width: 1.5"/>
    <path d="M 152.715083 390.28139 
L 152.715083 341.060037 
" clip-path="url(#p8b2e6e091f)" style="fill: none; stroke: #0000ff; stroke-width: 1.5"/>
    <path d="M 136.163077 418.132712 
L 136.163077 403.853202 
" clip-path="url(#p8b2e6e091f)" style="fill: none; stroke: #0000ff; stroke-width: 1.5"/>
    <path d="M 239.630143 102.384532 
L 239.630143 86.391195 
" clip-path="url(#p8b2e6e091f)" style="fill: none; stroke: #0000ff; stroke-width: 1.5"/>
    <path d="M 111.268623 399.910862 
L 111.268623 383.05459 
" clip-path="url(#p8b2e6e091f)" style="fill: none; stroke: #0000ff; stroke-width: 1.5"/>
    <path d="M 101.610358 421.116096 
L 101.610358 401.881352 
" clip-path="url(#p8b2e6e091f)" style="fill: none; stroke: #0000ff; stroke-width: 1.5"/>
    <path d="M 104.192394 428.160568 
L 104.192394 423.477669 
" clip-path="url(#p8b2e6e091f)" style="fill: none; stroke: #0000ff; stroke-width: 1.5"/>
    <path d="M 181.613244 421.618401 
L 181.613244 417.19976 
" clip-path="url(#p8b2e6e091f)" style="fill: none; stroke: #0000ff; stroke-width: 1.5"/>
    <path d="M 115.041001 423.760757 
L 115.041001 401.740919 
" clip-path="url(#p8b2e6e091f)" style="fill: none; stroke: #0000ff; stroke-width: 1.5"/>
    <path d="M 117.883671 426.781691 
L 117.883671 393.011042 
" clip-path="url(#p8b2e6e091f)" style="fill: none; stroke: #0000ff; stroke-width: 1.5"/>
    <path d="M 132.509807 356.091909 
L 132.509807 286.21329 
" clip-path="url(#p8b2e6e091f)" style="fill: none; stroke: #0000ff; stroke-width: 1.5"/>
    <path d="M 112.188715 387.032085 
L 112.188715 347.774629 
" clip-path="url(#p8b2e6e091f)" style="fill: none; stroke: #0000ff; stroke-width: 1.5"/>
    <path d="M 91.980005 408.31633 
L 91.980005 358.306561 
" clip-path="url(#p8b2e6e091f)" style="fill: none; stroke: #0000ff; stroke-width: 1.5"/>
    <path d="M 96.093422 420.045177 
L 96.093422 412.150031 
" clip-path="url(#p8b2e6e091f)" style="fill: none; stroke: #0000ff; stroke-width: 1.5"/>
    <path d="M 101.575922 426.185736 
L 101.575922 423.460896 
" clip-path="url(#p8b2e6e091f)" style="fill: none; stroke: #0000ff; stroke-width: 1.5"/>
    <path d="M 140.54612 362.832336 
L 140.54612 322.333315 
" clip-path="url(#p8b2e6e091f)" style="fill: none; stroke: #0000ff; stroke-width: 1.5"/>
   </g>
   <g id="line2d_12">
    <defs>
     <path id="m388c83d58e" d="M 0 3 
C 0.795609 3 1.55874 2.683901 2.12132 2.12132 
C 2.683901 1.55874 3 0.795609 3 0 
C 3 -0.795609 2.683901 -1.55874 2.12132 -2.12132 
C 1.55874 -2.683901 0.795609 -3 0 -3 
C -0.795609 -3 -1.55874 -2.683901 -2.12132 -2.12132 
C -2.683901 -1.55874 -3 -0.795609 -3 0 
C -3 0.795609 -2.683901 1.55874 -2.12132 2.12132 
C -1.55874 2.683901 -0.795609 3 0 3 
z
" style="stroke: #0000ff"/>
    </defs>
    <g clip-path="url(#p8b2e6e091f)">
     <use xlink:href="#m388c83d58e" x="120.206769" y="406.749278" style="fill: #0000ff; stroke: #0000ff"/>
     <use xlink:href="#m388c83d58e" x="143.561943" y="320.490255" style="fill: #0000ff; stroke: #0000ff"/>
     <use xlink:href="#m388c83d58e" x="115.246622" y="408.46908" style="fill: #0000ff; stroke: #0000ff"/>
     <use xlink:href="#m388c83d58e" x="190.453321" y="235.332682" style="fill: #0000ff; stroke: #0000ff"/>
     <use xlink:href="#m388c83d58e" x="121.388085" y="397.803513" style="fill: #0000ff; stroke: #0000ff"/>
     <use xlink:href="#m388c83d58e" x="109.359743" y="398.240536" style="fill: #0000ff; stroke: #0000ff"/>
     <use xlink:href="#m388c83d58e" x="112.394179" y="402.100431" style="fill: #0000ff; stroke: #0000ff"/>
     <use xlink:href="#m388c83d58e" x="124.078841" y="371.34631" style="fill: #0000ff; stroke: #0000ff"/>
     <use xlink:href="#m388c83d58e" x="119.619014" y="405.556159" style="fill: #0000ff; stroke: #0000ff"/>
     <use xlink:href="#m388c83d58e" x="140.438665" y="419.134723" style="fill: #0000ff; stroke: #0000ff"/>
     <use xlink:href="#m388c83d58e" x="115.46807" y="426.685804" style="fill: #0000ff; stroke: #0000ff"/>
     <use xlink:href="#m388c83d58e" x="130.173482" y="426.819447" style="fill: #0000ff; stroke: #0000ff"/>
     <use xlink:href="#m388c83d58e" x="115.28921" y="419.017138" style="fill: #0000ff; stroke: #0000ff"/>
     <use xlink:href="#m388c83d58e" x="124.246147" y="388.881835" style="fill: #0000ff; stroke: #0000ff"/>
     <use xlink:href="#m388c83d58e" x="110.536946" y="418.502785" style="fill: #0000ff; stroke: #0000ff"/>
     <use xlink:href="#m388c83d58e" x="121.271039" y="425.800995" style="fill: #0000ff; stroke: #0000ff"/>
     <use xlink:href="#m388c83d58e" x="109.20106" y="425.975164" style="fill: #0000ff; stroke: #0000ff"/>
     <use xlink:href="#m388c83d58e" x="121.710472" y="423.119802" style="fill: #0000ff; stroke: #0000ff"/>
     <use xlink:href="#m388c83d58e" x="183.028663" y="394.420061" style="fill: #0000ff; stroke: #0000ff"/>
     <use xlink:href="#m388c83d58e" x="108.264414" y="422.634557" style="fill: #0000ff; stroke: #0000ff"/>
     <use xlink:href="#m388c83d58e" x="121.273585" y="405.632694" style="fill: #0000ff; stroke: #0000ff"/>
     <use xlink:href="#m388c83d58e" x="119.23122" y="398.548841" style="fill: #0000ff; stroke: #0000ff"/>
     <use xlink:href="#m388c83d58e" x="104.420527" y="422.030151" style="fill: #0000ff; stroke: #0000ff"/>
     <use xlink:href="#m388c83d58e" x="103.985881" y="424.117558" style="fill: #0000ff; stroke: #0000ff"/>
     <use xlink:href="#m388c83d58e" x="105.964843" y="318.502042" style="fill: #0000ff; stroke: #0000ff"/>
     <use xlink:href="#m388c83d58e" x="96.154678" y="391.344204" style="fill: #0000ff; stroke: #0000ff"/>
     <use xlink:href="#m388c83d58e" x="125.984083" y="411.573698" style="fill: #0000ff; stroke: #0000ff"/>
     <use xlink:href="#m388c83d58e" x="108.699418" y="420.799794" style="fill: #0000ff; stroke: #0000ff"/>
     <use xlink:href="#m388c83d58e" x="124.519273" y="384.256172" style="fill: #0000ff; stroke: #0000ff"/>
     <use xlink:href="#m388c83d58e" x="125.355603" y="429.297471" style="fill: #0000ff; stroke: #0000ff"/>
     <use xlink:href="#m388c83d58e" x="117.583975" y="383.833819" style="fill: #0000ff; stroke: #0000ff"/>
     <use xlink:href="#m388c83d58e" x="161.653102" y="357.104069" style="fill: #0000ff; stroke: #0000ff"/>
     <use xlink:href="#m388c83d58e" x="108.27924" y="392.357506" style="fill: #0000ff; stroke: #0000ff"/>
     <use xlink:href="#m388c83d58e" x="317.789797" y="83.421464" style="fill: #0000ff; stroke: #0000ff"/>
     <use xlink:href="#m388c83d58e" x="101.900209" y="302.586585" style="fill: #0000ff; stroke: #0000ff"/>
     <use xlink:href="#m388c83d58e" x="92.729547" y="427.266253" style="fill: #0000ff; stroke: #0000ff"/>
     <use xlink:href="#m388c83d58e" x="117.29982" y="419.01536" style="fill: #0000ff; stroke: #0000ff"/>
     <use xlink:href="#m388c83d58e" x="104.843395" y="400.639207" style="fill: #0000ff; stroke: #0000ff"/>
     <use xlink:href="#m388c83d58e" x="103.153143" y="429.248997" style="fill: #0000ff; stroke: #0000ff"/>
     <use xlink:href="#m388c83d58e" x="111.128731" y="427.477133" style="fill: #0000ff; stroke: #0000ff"/>
     <use xlink:href="#m388c83d58e" x="131.681596" y="423.847162" style="fill: #0000ff; stroke: #0000ff"/>
     <use xlink:href="#m388c83d58e" x="115.558428" y="396.624057" style="fill: #0000ff; stroke: #0000ff"/>
     <use xlink:href="#m388c83d58e" x="114.131421" y="392.270435" style="fill: #0000ff; stroke: #0000ff"/>
     <use xlink:href="#m388c83d58e" x="113.552923" y="404.224556" style="fill: #0000ff; stroke: #0000ff"/>
     <use xlink:href="#m388c83d58e" x="152.715083" y="365.670713" style="fill: #0000ff; stroke: #0000ff"/>
     <use xlink:href="#m388c83d58e" x="136.163077" y="410.992957" style="fill: #0000ff; stroke: #0000ff"/>
     <use xlink:href="#m388c83d58e" x="239.630143" y="94.387864" style="fill: #0000ff; stroke: #0000ff"/>
     <use xlink:href="#m388c83d58e" x="111.268623" y="391.482726" style="fill: #0000ff; stroke: #0000ff"/>
     <use xlink:href="#m388c83d58e" x="101.610358" y="411.498724" style="fill: #0000ff; stroke: #0000ff"/>
     <use xlink:href="#m388c83d58e" x="104.192394" y="425.819119" style="fill: #0000ff; stroke: #0000ff"/>
     <use xlink:href="#m388c83d58e" x="181.613244" y="419.409081" style="fill: #0000ff; stroke: #0000ff"/>
     <use xlink:href="#m388c83d58e" x="115.041001" y="412.750838" style="fill: #0000ff; stroke: #0000ff"/>
     <use xlink:href="#m388c83d58e" x="117.883671" y="409.896367" style="fill: #0000ff; stroke: #0000ff"/>
     <use xlink:href="#m388c83d58e" x="132.509807" y="321.1526" style="fill: #0000ff; stroke: #0000ff"/>
     <use xlink:href="#m388c83d58e" x="112.188715" y="367.403357" style="fill: #0000ff; stroke: #0000ff"/>
     <use xlink:href="#m388c83d58e" x="91.980005" y="383.311445" style="fill: #0000ff; stroke: #0000ff"/>
     <use xlink:href="#m388c83d58e" x="96.093422" y="416.097604" style="fill: #0000ff; stroke: #0000ff"/>
     <use xlink:href="#m388c83d58e" x="101.575922" y="424.823316" style="fill: #0000ff; stroke: #0000ff"/>
     <use xlink:href="#m388c83d58e" x="140.54612" y="342.582825" style="fill: #0000ff; stroke: #0000ff"/>
    </g>
   </g>
   <g id="patch_3">
    <path d="M 63 448.56 
L 63 60.48 
" style="fill: none; stroke: #000000; stroke-width: 0.8; stroke-linejoin: miter; stroke-linecap: square"/>
   </g>
   <g id="patch_4">
    <path d="M 453.6 448.56 
L 453.6 60.48 
" style="fill: none; stroke: #000000; stroke-width: 0.8; stroke-linejoin: miter; stroke-linecap: square"/>
   </g>
   <g id="patch_5">
    <path d="M 63 448.56 
L 453.6 448.56 
" style="fill: none; stroke: #000000; stroke-width: 0.8; stroke-linejoin: miter; stroke-linecap: square"/>
   </g>
   <g id="patch_6">
    <path d="M 63 60.48 
L 453.6 60.48 
" style="fill: none; stroke: #000000; stroke-width: 0.8; stroke-linejoin: miter; stroke-linecap: square"/>
   </g>
   <g id="text_14">
    <!-- Pearson correlation coefficient: 0.8 -->
    <g transform="translate(123.752569 109.678152) scale(0.2 -0.2)">
     <defs>
      <path id="ArialMT-50" d="M 494 0 
L 494 4581 
L 2222 4581 
Q 2678 4581 2919 4538 
Q 3256 4481 3484 4323 
Q 3713 4166 3852 3881 
Q 3991 3597 3991 3256 
Q 3991 2672 3619 2267 
Q 3247 1863 2275 1863 
L 1100 1863 
L 1100 0 
L 494 0 
z
M 1100 2403 
L 2284 2403 
Q 2872 2403 3119 2622 
Q 3366 2841 3366 3238 
Q 3366 3525 3220 3729 
Q 3075 3934 2838 4000 
Q 2684 4041 2272 4041 
L 1100 4041 
L 1100 2403 
z
" transform="scale(0.015625)"/>
      <path id="ArialMT-66" d="M 556 0 
L 556 2881 
L 59 2881 
L 59 3319 
L 556 3319 
L 556 3672 
Q 556 4006 616 4169 
Q 697 4388 901 4523 
Q 1106 4659 1475 4659 
Q 1713 4659 2000 4603 
L 1916 4113 
Q 1741 4144 1584 4144 
Q 1328 4144 1222 4034 
Q 1116 3925 1116 3625 
L 1116 3319 
L 1763 3319 
L 1763 2881 
L 1116 2881 
L 1116 0 
L 556 0 
z
" transform="scale(0.015625)"/>
      <path id="ArialMT-3a" d="M 578 2678 
L 578 3319 
L 1219 3319 
L 1219 2678 
L 578 2678 
z
M 578 0 
L 578 641 
L 1219 641 
L 1219 0 
L 578 0 
z
" transform="scale(0.015625)"/>
     </defs>
     <use xlink:href="#ArialMT-50"/>
     <use xlink:href="#ArialMT-65" x="66.699219"/>
     <use xlink:href="#ArialMT-61" x="122.314453"/>
     <use xlink:href="#ArialMT-72" x="177.929688"/>
     <use xlink:href="#ArialMT-73" x="211.230469"/>
     <use xlink:href="#ArialMT-6f" x="261.230469"/>
     <use xlink:href="#ArialMT-6e" x="316.845703"/>
     <use xlink:href="#ArialMT-20" x="372.460938"/>
     <use xlink:href="#ArialMT-63" x="400.244141"/>
     <use xlink:href="#ArialMT-6f" x="450.244141"/>
     <use xlink:href="#ArialMT-72" x="505.859375"/>
     <use xlink:href="#ArialMT-72" x="539.160156"/>
     <use xlink:href="#ArialMT-65" x="572.460938"/>
     <use xlink:href="#ArialMT-6c" x="628.076172"/>
     <use xlink:href="#ArialMT-61" x="650.292969"/>
     <use xlink:href="#ArialMT-74" x="705.908203"/>
     <use xlink:href="#ArialMT-69" x="733.691406"/>
     <use xlink:href="#ArialMT-6f" x="755.908203"/>
     <use xlink:href="#ArialMT-6e" x="811.523438"/>
     <use xlink:href="#ArialMT-20" x="867.138672"/>
     <use xlink:href="#ArialMT-63" x="894.921875"/>
     <use xlink:href="#ArialMT-6f" x="944.921875"/>
     <use xlink:href="#ArialMT-65" x="1000.537109"/>
     <use xlink:href="#ArialMT-66" x="1056.152344"/>
     <use xlink:href="#ArialMT-66" x="1082.185547"/>
     <use xlink:href="#ArialMT-69" x="1109.96875"/>
     <use xlink:href="#ArialMT-63" x="1132.185547"/>
     <use xlink:href="#ArialMT-69" x="1182.185547"/>
     <use xlink:href="#ArialMT-65" x="1204.402344"/>
     <use xlink:href="#ArialMT-6e" x="1260.017578"/>
     <use xlink:href="#ArialMT-74" x="1315.632812"/>
     <use xlink:href="#ArialMT-3a" x="1343.416016"/>
     <use xlink:href="#ArialMT-20" x="1371.199219"/>
     <use xlink:href="#ArialMT-30" x="1398.982422"/>
     <use xlink:href="#ArialMT-2e" x="1454.597656"/>
     <use xlink:href="#ArialMT-38" x="1482.380859"/>
    </g>
   </g>
   <g id="text_15">
    <!-- P-value: 3.98e-14 -->
    <g transform="translate(123.752569 145.700465) scale(0.2 -0.2)">
     <defs>
      <path id="ArialMT-76" d="M 1344 0 
L 81 3319 
L 675 3319 
L 1388 1331 
Q 1503 1009 1600 663 
Q 1675 925 1809 1294 
L 2547 3319 
L 3125 3319 
L 1869 0 
L 1344 0 
z
" transform="scale(0.015625)"/>
      <path id="ArialMT-33" d="M 269 1209 
L 831 1284 
Q 928 806 1161 595 
Q 1394 384 1728 384 
Q 2125 384 2398 659 
Q 2672 934 2672 1341 
Q 2672 1728 2419 1979 
Q 2166 2231 1775 2231 
Q 1616 2231 1378 2169 
L 1441 2663 
Q 1497 2656 1531 2656 
Q 1891 2656 2178 2843 
Q 2466 3031 2466 3422 
Q 2466 3731 2256 3934 
Q 2047 4138 1716 4138 
Q 1388 4138 1169 3931 
Q 950 3725 888 3313 
L 325 3413 
Q 428 3978 793 4289 
Q 1159 4600 1703 4600 
Q 2078 4600 2393 4439 
Q 2709 4278 2876 4000 
Q 3044 3722 3044 3409 
Q 3044 3113 2884 2869 
Q 2725 2625 2413 2481 
Q 2819 2388 3044 2092 
Q 3269 1797 3269 1353 
Q 3269 753 2831 336 
Q 2394 -81 1725 -81 
Q 1122 -81 723 278 
Q 325 638 269 1209 
z
" transform="scale(0.015625)"/>
      <path id="ArialMT-39" d="M 350 1059 
L 891 1109 
Q 959 728 1153 556 
Q 1347 384 1650 384 
Q 1909 384 2104 503 
Q 2300 622 2425 820 
Q 2550 1019 2634 1356 
Q 2719 1694 2719 2044 
Q 2719 2081 2716 2156 
Q 2547 1888 2255 1720 
Q 1963 1553 1622 1553 
Q 1053 1553 659 1965 
Q 266 2378 266 3053 
Q 266 3750 677 4175 
Q 1088 4600 1706 4600 
Q 2153 4600 2523 4359 
Q 2894 4119 3086 3673 
Q 3278 3228 3278 2384 
Q 3278 1506 3087 986 
Q 2897 466 2520 194 
Q 2144 -78 1638 -78 
Q 1100 -78 759 220 
Q 419 519 350 1059 
z
M 2653 3081 
Q 2653 3566 2395 3850 
Q 2138 4134 1775 4134 
Q 1400 4134 1122 3828 
Q 844 3522 844 3034 
Q 844 2597 1108 2323 
Q 1372 2050 1759 2050 
Q 2150 2050 2401 2323 
Q 2653 2597 2653 3081 
z
" transform="scale(0.015625)"/>
     </defs>
     <use xlink:href="#ArialMT-50"/>
     <use xlink:href="#ArialMT-2d" x="66.699219"/>
     <use xlink:href="#ArialMT-76" x="100"/>
     <use xlink:href="#ArialMT-61" x="150"/>
     <use xlink:href="#ArialMT-6c" x="205.615234"/>
     <use xlink:href="#ArialMT-75" x="227.832031"/>
     <use xlink:href="#ArialMT-65" x="283.447266"/>
     <use xlink:href="#ArialMT-3a" x="339.0625"/>
     <use xlink:href="#ArialMT-20" x="366.845703"/>
     <use xlink:href="#ArialMT-33" x="394.628906"/>
     <use xlink:href="#ArialMT-2e" x="450.244141"/>
     <use xlink:href="#ArialMT-39" x="478.027344"/>
     <use xlink:href="#ArialMT-38" x="533.642578"/>
     <use xlink:href="#ArialMT-65" x="589.257812"/>
     <use xlink:href="#ArialMT-2d" x="644.873047"/>
     <use xlink:href="#ArialMT-31" x="678.173828"/>
     <use xlink:href="#ArialMT-34" x="733.789062"/>
    </g>
   </g>
   <g id="text_16">
    <!-- Wild isolates, EMM -->
    <g transform="translate(173.2875 54.48) scale(0.2 -0.2)">
     <defs>
      <path id="ArialMT-57" d="M 1294 0 
L 78 4581 
L 700 4581 
L 1397 1578 
Q 1509 1106 1591 641 
Q 1766 1375 1797 1488 
L 2669 4581 
L 3400 4581 
L 4056 2263 
Q 4303 1400 4413 641 
Q 4500 1075 4641 1638 
L 5359 4581 
L 5969 4581 
L 4713 0 
L 4128 0 
L 3163 3491 
Q 3041 3928 3019 4028 
Q 2947 3713 2884 3491 
L 1913 0 
L 1294 0 
z
" transform="scale(0.015625)"/>
      <path id="ArialMT-45" d="M 506 0 
L 506 4581 
L 3819 4581 
L 3819 4041 
L 1113 4041 
L 1113 2638 
L 3647 2638 
L 3647 2100 
L 1113 2100 
L 1113 541 
L 3925 541 
L 3925 0 
L 506 0 
z
" transform="scale(0.015625)"/>
      <path id="ArialMT-4d" d="M 475 0 
L 475 4581 
L 1388 4581 
L 2472 1338 
Q 2622 884 2691 659 
Q 2769 909 2934 1394 
L 4031 4581 
L 4847 4581 
L 4847 0 
L 4263 0 
L 4263 3834 
L 2931 0 
L 2384 0 
L 1059 3900 
L 1059 0 
L 475 0 
z
" transform="scale(0.015625)"/>
     </defs>
     <use xlink:href="#ArialMT-57"/>
     <use xlink:href="#ArialMT-69" x="94.384766"/>
     <use xlink:href="#ArialMT-6c" x="116.601562"/>
     <use xlink:href="#ArialMT-64" x="138.818359"/>
     <use xlink:href="#ArialMT-20" x="194.433594"/>
     <use xlink:href="#ArialMT-69" x="222.216797"/>
     <use xlink:href="#ArialMT-73" x="244.433594"/>
     <use xlink:href="#ArialMT-6f" x="294.433594"/>
     <use xlink:href="#ArialMT-6c" x="350.048828"/>
     <use xlink:href="#ArialMT-61" x="372.265625"/>
     <use xlink:href="#ArialMT-74" x="427.880859"/>
     <use xlink:href="#ArialMT-65" x="455.664062"/>
     <use xlink:href="#ArialMT-73" x="511.279297"/>
     <use xlink:href="#ArialMT-2c" x="561.279297"/>
     <use xlink:href="#ArialMT-20" x="589.0625"/>
     <use xlink:href="#ArialMT-45" x="616.845703"/>
     <use xlink:href="#ArialMT-4d" x="683.544922"/>
     <use xlink:href="#ArialMT-4d" x="766.845703"/>
    </g>
   </g>
  </g>
 </g>
 <defs>
  <clipPath id="p8b2e6e091f">
   <rect x="63" y="60.48" width="390.6" height="388.08"/>
  </clipPath>
 </defs>
</svg>
