<svg version="1.1" xmlns="http://www.w3.org/2000/svg" width="574" height="363"><defs><clipPath id="JGbJvcpcMWfE"><path fill="none" stroke="none" d="M 65.5 34.5 L 440.5 34.5 L 440.5 309.5 L 65.5 309.5 L 65.5 34.5"/></clipPath><clipPath id="TTVRTpiBKXQs"><path fill="none" stroke="none" d="M 65.5 34.5 L 440.5 34.5 L 440.5 309.5 L 65.5 309.5 L 65.5 34.5"/></clipPath><clipPath id="hESvduDtrdwC"><path fill="none" stroke="none" d="M 65.5 34.5 L 440.5 34.5 L 440.5 309.5 L 65.5 309.5 L 65.5 34.5"/></clipPath><clipPath id="tvIQTnDfZWpA"><path fill="none" stroke="none" d="M 65.5 34.5 L 440.5 34.5 L 440.5 309.5 L 65.5 309.5 L 65.5 34.5"/></clipPath><clipPath id="nZnHlFJZhsJk"><path fill="none" stroke="none" d="M 65.5 34.5 L 440.5 34.5 L 440.5 309.5 L 65.5 309.5 L 65.5 34.5"/></clipPath><clipPath id="mRCWZlgCaumH"><path fill="none" stroke="none" d="M 65.5 34.5 L 440.5 34.5 L 440.5 309.5 L 65.5 309.5 L 65.5 34.5"/></clipPath><clipPath id="EiFyCNSbvefm"><path fill="none" stroke="none" d="M 65.5 34.5 L 440.5 34.5 L 440.5 309.5 L 65.5 309.5 L 65.5 34.5"/></clipPath><clipPath id="lIviCrmSIgUx"><path fill="none" stroke="none" d="M 65.5 34.5 L 440.5 34.5 L 440.5 309.5 L 65.5 309.5 L 65.5 34.5"/></clipPath><clipPath id="BCteFfQgLfbf"><path fill="none" stroke="none" d="M 65.5 34.5 L 440.5 34.5 L 440.5 309.5 L 65.5 309.5 L 65.5 34.5"/></clipPath><clipPath id="OkakgTJSJSHg"><path fill="none" stroke="none" d="M 65.5 34.5 L 440.5 34.5 L 440.5 309.5 L 65.5 309.5 L 65.5 34.5"/></clipPath><clipPath id="rzkwasimBggN"><path fill="none" stroke="none" d="M 65.5 34.5 L 440.5 34.5 L 440.5 309.5 L 65.5 309.5 L 65.5 34.5"/></clipPath><clipPath id="tBIRHlzzxUFy"><path fill="none" stroke="none" d="M 65.5 34.5 L 440.5 34.5 L 440.5 309.5 L 65.5 309.5 L 65.5 34.5"/></clipPath><clipPath id="gBGASMTddqRI"><path fill="none" stroke="none" d="M 65.5 34.5 L 440.5 34.5 L 440.5 309.5 L 65.5 309.5 L 65.5 34.5"/></clipPath><clipPath id="ndkPcvorTolf"><path fill="none" stroke="none" d="M 65.5 34.5 L 440.5 34.5 L 440.5 309.5 L 65.5 309.5 L 65.5 34.5"/></clipPath><clipPath id="BbqqvZPPtVTQ"><path fill="none" stroke="none" d="M 65.5 34.5 L 440.5 34.5 L 440.5 309.5 L 65.5 309.5 L 65.5 34.5"/></clipPath></defs><path fill="rgb(255,255,255)" stroke="none" paint-order="stroke" d="M 0.5 0.5 L 574.5 0.5 L 574.5 363.5 L 0.5 363.5 L 0.5 0.5" fill-opacity="1"/><rect fill="#FFFFFF" stroke="none" x="65" y="34" width="375" height="275" transform="matrix(1, 0, 0, 1, 0.5, 0.5)"/><path fill="rgb(255,255,255)" stroke="none" paint-order="stroke" d="M 65.5 34.5 L 440.5 34.5 L 440.5 309.5 L 65.5 309.5 L 65.5 34.5" fill-opacity="1"/><path fill="none" stroke="rgb(229,229,229)" paint-order="fill" d="M 65.5 34.5 L 440.5 34.5 L 440.5 309.5 L 65.5 309.5 L 65.5 34.5" stroke-opacity="1" stroke-linejoin="bevel" stroke-miterlimit="10" stroke-dasharray=""/><path fill="none" stroke="rgb(229,229,229)" paint-order="fill" d="M 140.5 309.5 L 140.5 34.5 M 215.5 309.5 L 215.5 34.5 M 290.5 309.5 L 290.5 34.5 M 365.5 309.5 L 365.5 34.5" stroke-opacity="1" stroke-linejoin="bevel" stroke-miterlimit="10" stroke-dasharray="" clip-path="url(#JGbJvcpcMWfE)"/><path fill="none" stroke="rgb(229,229,229)" paint-order="fill" d="M 65.5 297.5 L 440.5 297.5 M 65.5 247.5 L 440.5 247.5 M 65.5 197.5 L 440.5 197.5 M 65.5 147.5 L 440.5 147.5 M 65.5 97.5 L 440.5 97.5 M 65.5 47.5 L 440.5 47.5" stroke-opacity="1" stroke-linejoin="bevel" stroke-miterlimit="10" stroke-dasharray="" clip-path="url(#TTVRTpiBKXQs)"/><path fill="rgb(31,119,179)" stroke="none" paint-order="stroke" d="M 80.57201385498047 297 L 80.57201385498047 276.1666564941406 L 80.57201385498047 276.1666564941406 L 80.57201385498047 255.3333282470703 L 80.57201385498047 255.3333282470703 L 80.57201385498047 234.5 L 86.31478118896484 234.5 L 86.31478118896484 213.6666717529297 L 86.31478118896484 213.6666717529297 L 86.31478118896484 192.8333282470703 L 88.39305114746094 192.8333282470703 L 88.39305114746094 172 L 88.622314453125 172 L 88.622314453125 151.1666717529297 L 95.84229278564453 151.1666717529297 L 95.84229278564453 130.3333282470703 L 97.89666748046875 130.3333282470703 L 97.89666748046875 109.5 L 99.1261978149414 109.5 L 99.1261978149414 88.66666412353516 L 99.71621704101562 88.66666412353516 L 99.71621704101562 67.83333587646484 L 102.14234924316406 67.83333587646484 L 102.14234924316406 47 L 121.27301025390625 47 L 121.27301025390625 67.83333587646484 L 121.27301025390625 67.83333587646484 L 121.27301025390625 88.66666412353516 L 121.27301025390625 88.66666412353516 L 121.27301025390625 109.5 L 110.9764404296875 109.5 L 110.9764404296875 130.3333282470703 L 110.9764404296875 130.3333282470703 L 110.9764404296875 151.1666717529297 L 109.2196273803711 151.1666717529297 L 109.2196273803711 172 L 102.14234924316406 172 L 102.14234924316406 192.8333282470703 L 99.71621704101562 192.8333282470703 L 99.71621704101562 213.6666717529297 L 99.1261978149414 213.6666717529297 L 99.1261978149414 234.5 L 97.89666748046875 234.5 L 97.89666748046875 255.3333282470703 L 95.84229278564453 255.3333282470703 L 95.84229278564453 276.1666564941406 L 88.622314453125 276.1666564941406 L 88.622314453125 297 Z" fill-opacity="0.30196078431372547" clip-path="url(#hESvduDtrdwC)"/><path fill="rgb(31,119,179)" stroke="rgb(31,119,179)" paint-order="fill" d="M 101.71621704101562 130.3333282470703 A 2 2 0 1 1 101.71621604101571 130.33132824740363" fill-opacity="1" clip-path="url(#tvIQTnDfZWpA)" stroke-opacity="1" stroke-linejoin="bevel" stroke-miterlimit="10" stroke-dasharray=""/><path fill="rgb(31,119,179)" stroke="rgb(31,119,179)" paint-order="fill" d="M 88.31478118896484 255.3333282470703 A 2 2 0 1 1 88.31478018896493 255.33132824740363" fill-opacity="1" clip-path="url(#tvIQTnDfZWpA)" stroke-opacity="1" stroke-linejoin="bevel" stroke-miterlimit="10" stroke-dasharray=""/><path fill="rgb(31,119,179)" stroke="rgb(31,119,179)" paint-order="fill" d="M 104.14234924316406 109.5 A 2 2 0 1 1 104.14234824316415 109.49800000033333" fill-opacity="1" clip-path="url(#tvIQTnDfZWpA)" stroke-opacity="1" stroke-linejoin="bevel" stroke-miterlimit="10" stroke-dasharray=""/><path fill="rgb(31,119,179)" stroke="rgb(31,119,179)" paint-order="fill" d="M 97.84229278564453 192.8333282470703 A 2 2 0 1 1 97.84229178564462 192.83132824740363" fill-opacity="1" clip-path="url(#tvIQTnDfZWpA)" stroke-opacity="1" stroke-linejoin="bevel" stroke-miterlimit="10" stroke-dasharray=""/><path fill="rgb(31,119,179)" stroke="rgb(31,119,179)" paint-order="fill" d="M 112.9764404296875 67.83333587646484 A 2 2 0 1 1 112.97643942968759 67.83133587679818" fill-opacity="1" clip-path="url(#tvIQTnDfZWpA)" stroke-opacity="1" stroke-linejoin="bevel" stroke-miterlimit="10" stroke-dasharray=""/><path fill="rgb(31,119,179)" stroke="rgb(31,119,179)" paint-order="fill" d="M 101.1261978149414 151.1666717529297 A 2 2 0 1 1 101.1261968149415 151.164671753263" fill-opacity="1" clip-path="url(#tvIQTnDfZWpA)" stroke-opacity="1" stroke-linejoin="bevel" stroke-miterlimit="10" stroke-dasharray=""/><path fill="rgb(31,119,179)" stroke="rgb(31,119,179)" paint-order="fill" d="M 123.27301025390625 47 A 2 2 0 1 1 123.27300925390634 46.998000000333334" fill-opacity="1" clip-path="url(#tvIQTnDfZWpA)" stroke-opacity="1" stroke-linejoin="bevel" stroke-miterlimit="10" stroke-dasharray=""/><path fill="rgb(31,119,179)" stroke="rgb(31,119,179)" paint-order="fill" d="M 111.2196273803711 88.66666412353516 A 2 2 0 1 1 111.21962638037118 88.66466412386849" fill-opacity="1" clip-path="url(#tvIQTnDfZWpA)" stroke-opacity="1" stroke-linejoin="bevel" stroke-miterlimit="10" stroke-dasharray=""/><path fill="rgb(31,119,179)" stroke="rgb(31,119,179)" paint-order="fill" d="M 90.622314453125 213.6666717529297 A 2 2 0 1 1 90.62231345312509 213.664671753263" fill-opacity="1" clip-path="url(#tvIQTnDfZWpA)" stroke-opacity="1" stroke-linejoin="bevel" stroke-miterlimit="10" stroke-dasharray=""/><path fill="rgb(31,119,179)" stroke="rgb(31,119,179)" paint-order="fill" d="M 82.57201385498047 276.1666564941406 A 2 2 0 1 1 82.57201285498056 276.16465649447395" fill-opacity="1" clip-path="url(#tvIQTnDfZWpA)" stroke-opacity="1" stroke-linejoin="bevel" stroke-miterlimit="10" stroke-dasharray=""/><path fill="rgb(31,119,179)" stroke="rgb(31,119,179)" paint-order="fill" d="M 99.89666748046875 172 A 2 2 0 1 1 99.89666648046884 171.99800000033332" fill-opacity="1" clip-path="url(#tvIQTnDfZWpA)" stroke-opacity="1" stroke-linejoin="bevel" stroke-miterlimit="10" stroke-dasharray=""/><path fill="rgb(31,119,179)" stroke="rgb(31,119,179)" paint-order="fill" d="M 90.39305114746094 234.5 A 2 2 0 1 1 90.39305014746103 234.49800000033332" fill-opacity="1" clip-path="url(#tvIQTnDfZWpA)" stroke-opacity="1" stroke-linejoin="bevel" stroke-miterlimit="10" stroke-dasharray=""/><path fill="rgb(255,126,14)" stroke="none" paint-order="stroke" d="M 72.07308959960938 297 L 72.07308959960938 285.6363525390625 L 72.07308959960938 285.6363525390625 L 72.07308959960938 274.2727355957031 L 72.07308959960938 274.2727355957031 L 72.07308959960938 262.9090881347656 L 79.15193939208984 262.9090881347656 L 79.15193939208984 251.5454559326172 L 79.15193939208984 251.5454559326172 L 79.15193939208984 240.18182373046875 L 80.77946472167969 240.18182373046875 L 80.77946472167969 228.81817626953125 L 80.86935424804688 228.81817626953125 L 80.86935424804688 217.4545440673828 L 80.86935424804688 217.4545440673828 L 80.86935424804688 206.09091186523438 L 82.22781372070312 206.09091186523438 L 82.22781372070312 194.72727966308594 L 82.32621765136719 194.72727966308594 L 82.32621765136719 183.36363220214844 L 83.11041259765625 183.36363220214844 L 83.11041259765625 172 L 83.11041259765625 172 L 83.11041259765625 160.63636779785156 L 83.80452728271484 160.63636779785156 L 83.80452728271484 149.27272033691406 L 84.21017456054688 149.27272033691406 L 84.21017456054688 137.90908813476562 L 87.18111419677734 137.90908813476562 L 87.18111419677734 126.54545593261719 L 87.67088317871094 126.54545593261719 L 87.67088317871094 115.18181610107422 L 92.92520904541016 115.18181610107422 L 92.92520904541016 103.81818389892578 L 93.21131896972656 103.81818389892578 L 93.21131896972656 92.45454406738281 L 93.55327606201172 92.45454406738281 L 93.55327606201172 81.09091186523438 L 93.5951919555664 81.09091186523438 L 93.5951919555664 69.7272720336914 L 95.3375015258789 69.7272720336914 L 95.3375015258789 58.3636360168457 L 95.42589569091797 58.3636360168457 L 95.42589569091797 47 L 107.07137298583984 47 L 107.07137298583984 58.3636360168457 L 107.07137298583984 58.3636360168457 L 107.07137298583984 69.7272720336914 L 107.07137298583984 69.7272720336914 L 107.07137298583984 81.09091186523438 L 106.18169403076172 81.09091186523438 L 106.18169403076172 92.45454406738281 L 106.18169403076172 92.45454406738281 L 106.18169403076172 103.81818389892578 L 96.47173309326172 103.81818389892578 L 96.47173309326172 115.18181610107422 L 95.42589569091797 115.18181610107422 L 95.42589569091797 126.54545593261719 L 95.42589569091797 126.54545593261719 L 95.42589569091797 137.90908813476562 L 95.3375015258789 137.90908813476562 L 95.3375015258789 149.27272033691406 L 93.68077850341797 149.27272033691406 L 93.68077850341797 160.63636779785156 L 93.5951919555664 160.63636779785156 L 93.5951919555664 172 L 93.55327606201172 172 L 93.55327606201172 183.36363220214844 L 93.55327606201172 183.36363220214844 L 93.55327606201172 194.72727966308594 L 93.21131896972656 194.72727966308594 L 93.21131896972656 206.09091186523438 L 92.92520904541016 206.09091186523438 L 92.92520904541016 217.4545440673828 L 89.15483856201172 217.4545440673828 L 89.15483856201172 228.81817626953125 L 87.67088317871094 228.81817626953125 L 87.67088317871094 240.18182373046875 L 84.21017456054688 240.18182373046875 L 84.21017456054688 251.5454559326172 L 83.80452728271484 251.5454559326172 L 83.80452728271484 262.9090881347656 L 83.11041259765625 262.9090881347656 L 83.11041259765625 274.2727355957031 L 82.22781372070312 274.2727355957031 L 82.22781372070312 285.6363525390625 L 80.86935424804688 285.6363525390625 L 80.86935424804688 297 Z" fill-opacity="0.30196078431372547" clip-path="url(#nZnHlFJZhsJk)"/><path fill="rgb(255,126,14)" stroke="rgb(255,126,14)" paint-order="fill" d="M 95.55327606201172 126.54545593261719 A 2 2 0 1 1 95.5532750620118 126.54345593295052" fill-opacity="1" clip-path="url(#mRCWZlgCaumH)" stroke-opacity="1" stroke-linejoin="bevel" stroke-miterlimit="10" stroke-dasharray=""/><path fill="rgb(255,126,14)" stroke="rgb(255,126,14)" paint-order="fill" d="M 95.68077850341797 103.81818389892578 A 2 2 0 1 1 95.68077750341806 103.81618389925912" fill-opacity="1" clip-path="url(#mRCWZlgCaumH)" stroke-opacity="1" stroke-linejoin="bevel" stroke-miterlimit="10" stroke-dasharray=""/><path fill="rgb(255,126,14)" stroke="rgb(255,126,14)" paint-order="fill" d="M 89.18111419677734 183.36363220214844 A 2 2 0 1 1 89.18111319677743 183.36163220248176" fill-opacity="1" clip-path="url(#mRCWZlgCaumH)" stroke-opacity="1" stroke-linejoin="bevel" stroke-miterlimit="10" stroke-dasharray=""/><path fill="rgb(255,126,14)" stroke="rgb(255,126,14)" paint-order="fill" d="M 95.21131896972656 137.90908813476562 A 2 2 0 1 1 95.21131796972665 137.90708813509895" fill-opacity="1" clip-path="url(#mRCWZlgCaumH)" stroke-opacity="1" stroke-linejoin="bevel" stroke-miterlimit="10" stroke-dasharray=""/><path fill="rgb(255,126,14)" stroke="rgb(255,126,14)" paint-order="fill" d="M 98.47173309326172 69.7272720336914 A 2 2 0 1 1 98.4717320932618 69.72527203402474" fill-opacity="1" clip-path="url(#mRCWZlgCaumH)" stroke-opacity="1" stroke-linejoin="bevel" stroke-miterlimit="10" stroke-dasharray=""/><path fill="rgb(255,126,14)" stroke="rgb(255,126,14)" paint-order="fill" d="M 95.5951919555664 115.18181610107422 A 2 2 0 1 1 95.5951909555665 115.17981610140755" fill-opacity="1" clip-path="url(#mRCWZlgCaumH)" stroke-opacity="1" stroke-linejoin="bevel" stroke-miterlimit="10" stroke-dasharray=""/><path fill="rgb(255,126,14)" stroke="rgb(255,126,14)" paint-order="fill" d="M 109.07137298583984 47 A 2 2 0 1 1 109.07137198583993 46.998000000333334" fill-opacity="1" clip-path="url(#mRCWZlgCaumH)" stroke-opacity="1" stroke-linejoin="bevel" stroke-miterlimit="10" stroke-dasharray=""/><path fill="rgb(255,126,14)" stroke="rgb(255,126,14)" paint-order="fill" d="M 108.18169403076172 58.3636360168457 A 2 2 0 1 1 108.1816930307618 58.36163601717904" fill-opacity="1" clip-path="url(#mRCWZlgCaumH)" stroke-opacity="1" stroke-linejoin="bevel" stroke-miterlimit="10" stroke-dasharray=""/><path fill="rgb(255,126,14)" stroke="rgb(255,126,14)" paint-order="fill" d="M 82.77946472167969 262.9090881347656 A 2 2 0 1 1 82.77946372167978 262.90708813509895" fill-opacity="1" clip-path="url(#mRCWZlgCaumH)" stroke-opacity="1" stroke-linejoin="bevel" stroke-miterlimit="10" stroke-dasharray=""/><path fill="rgb(255,126,14)" stroke="rgb(255,126,14)" paint-order="fill" d="M 85.11041259765625 217.4545440673828 A 2 2 0 1 1 85.11041159765634 217.45254406771613" fill-opacity="1" clip-path="url(#mRCWZlgCaumH)" stroke-opacity="1" stroke-linejoin="bevel" stroke-miterlimit="10" stroke-dasharray=""/><path fill="rgb(255,126,14)" stroke="rgb(255,126,14)" paint-order="fill" d="M 94.92520904541016 149.27272033691406 A 2 2 0 1 1 94.92520804541024 149.27072033724738" fill-opacity="1" clip-path="url(#mRCWZlgCaumH)" stroke-opacity="1" stroke-linejoin="bevel" stroke-miterlimit="10" stroke-dasharray=""/><path fill="rgb(255,126,14)" stroke="rgb(255,126,14)" paint-order="fill" d="M 97.3375015258789 92.45454406738281 A 2 2 0 1 1 97.337500525879 92.45254406771615" fill-opacity="1" clip-path="url(#mRCWZlgCaumH)" stroke-opacity="1" stroke-linejoin="bevel" stroke-miterlimit="10" stroke-dasharray=""/><path fill="rgb(255,126,14)" stroke="rgb(255,126,14)" paint-order="fill" d="M 82.86935424804688 251.5454559326172 A 2 2 0 1 1 82.86935324804696 251.5434559329505" fill-opacity="1" clip-path="url(#mRCWZlgCaumH)" stroke-opacity="1" stroke-linejoin="bevel" stroke-miterlimit="10" stroke-dasharray=""/><path fill="rgb(255,126,14)" stroke="rgb(255,126,14)" paint-order="fill" d="M 84.22781372070312 240.18182373046875 A 2 2 0 1 1 84.22781272070321 240.17982373080207" fill-opacity="1" clip-path="url(#mRCWZlgCaumH)" stroke-opacity="1" stroke-linejoin="bevel" stroke-miterlimit="10" stroke-dasharray=""/><path fill="rgb(255,126,14)" stroke="rgb(255,126,14)" paint-order="fill" d="M 89.67088317871094 172 A 2 2 0 1 1 89.67088217871103 171.99800000033332" fill-opacity="1" clip-path="url(#mRCWZlgCaumH)" stroke-opacity="1" stroke-linejoin="bevel" stroke-miterlimit="10" stroke-dasharray=""/><path fill="rgb(255,126,14)" stroke="rgb(255,126,14)" paint-order="fill" d="M 84.32621765136719 228.81817626953125 A 2 2 0 1 1 84.32621665136728 228.81617626986457" fill-opacity="1" clip-path="url(#mRCWZlgCaumH)" stroke-opacity="1" stroke-linejoin="bevel" stroke-miterlimit="10" stroke-dasharray=""/><path fill="rgb(255,126,14)" stroke="rgb(255,126,14)" paint-order="fill" d="M 74.07308959960938 285.6363525390625 A 2 2 0 1 1 74.07308859960946 285.6343525393958" fill-opacity="1" clip-path="url(#mRCWZlgCaumH)" stroke-opacity="1" stroke-linejoin="bevel" stroke-miterlimit="10" stroke-dasharray=""/><path fill="rgb(255,126,14)" stroke="rgb(255,126,14)" paint-order="fill" d="M 81.15193939208984 274.2727355957031 A 2 2 0 1 1 81.15193839208993 274.27073559603645" fill-opacity="1" clip-path="url(#mRCWZlgCaumH)" stroke-opacity="1" stroke-linejoin="bevel" stroke-miterlimit="10" stroke-dasharray=""/><path fill="rgb(255,126,14)" stroke="rgb(255,126,14)" paint-order="fill" d="M 91.15483856201172 160.63636779785156 A 2 2 0 1 1 91.1548375620118 160.63436779818488" fill-opacity="1" clip-path="url(#mRCWZlgCaumH)" stroke-opacity="1" stroke-linejoin="bevel" stroke-miterlimit="10" stroke-dasharray=""/><path fill="rgb(255,126,14)" stroke="rgb(255,126,14)" paint-order="fill" d="M 97.42589569091797 81.09091186523438 A 2 2 0 1 1 97.42589469091806 81.08891186556771" fill-opacity="1" clip-path="url(#mRCWZlgCaumH)" stroke-opacity="1" stroke-linejoin="bevel" stroke-miterlimit="10" stroke-dasharray=""/><path fill="rgb(255,126,14)" stroke="rgb(255,126,14)" paint-order="fill" d="M 86.21017456054688 194.72727966308594 A 2 2 0 1 1 86.21017356054696 194.72527966341926" fill-opacity="1" clip-path="url(#mRCWZlgCaumH)" stroke-opacity="1" stroke-linejoin="bevel" stroke-miterlimit="10" stroke-dasharray=""/><path fill="rgb(255,126,14)" stroke="rgb(255,126,14)" paint-order="fill" d="M 85.80452728271484 206.09091186523438 A 2 2 0 1 1 85.80452628271493 206.0889118655677" fill-opacity="1" clip-path="url(#mRCWZlgCaumH)" stroke-opacity="1" stroke-linejoin="bevel" stroke-miterlimit="10" stroke-dasharray=""/><path fill="rgb(43,160,43)" stroke="none" paint-order="stroke" d="M 73.56024169921875 297 L 73.56024169921875 255.3333282470703 L 73.56024169921875 255.3333282470703 L 73.56024169921875 213.6666717529297 L 73.56024169921875 213.6666717529297 L 73.56024169921875 172 L 73.63288879394531 172 L 73.63288879394531 130.3333282470703 L 75.11914825439453 130.3333282470703 L 75.11914825439453 88.66666412353516 L 79.2267837524414 88.66666412353516 L 79.2267837524414 47 L 102.39383697509766 47 L 102.39383697509766 88.66666412353516 L 102.39383697509766 88.66666412353516 L 102.39383697509766 130.3333282470703 L 102.39383697509766 130.3333282470703 L 102.39383697509766 172 L 87.81987762451172 172 L 87.81987762451172 213.6666717529297 L 79.2267837524414 213.6666717529297 L 79.2267837524414 255.3333282470703 L 75.11914825439453 255.3333282470703 L 75.11914825439453 297 Z" fill-opacity="0.30196078431372547" clip-path="url(#EiFyCNSbvefm)"/><path fill="rgb(43,160,43)" stroke="rgb(43,160,43)" paint-order="fill" d="M 75.56024169921875 255.3333282470703 A 2 2 0 1 1 75.56024069921884 255.33132824740363" fill-opacity="1" clip-path="url(#lIviCrmSIgUx)" stroke-opacity="1" stroke-linejoin="bevel" stroke-miterlimit="10" stroke-dasharray=""/><path fill="rgb(43,160,43)" stroke="rgb(43,160,43)" paint-order="fill" d="M 75.63288879394531 213.6666717529297 A 2 2 0 1 1 75.6328877939454 213.664671753263" fill-opacity="1" clip-path="url(#lIviCrmSIgUx)" stroke-opacity="1" stroke-linejoin="bevel" stroke-miterlimit="10" stroke-dasharray=""/><path fill="rgb(43,160,43)" stroke="rgb(43,160,43)" paint-order="fill" d="M 89.81987762451172 88.66666412353516 A 2 2 0 1 1 89.8198766245118 88.66466412386849" fill-opacity="1" clip-path="url(#lIviCrmSIgUx)" stroke-opacity="1" stroke-linejoin="bevel" stroke-miterlimit="10" stroke-dasharray=""/><path fill="rgb(43,160,43)" stroke="rgb(43,160,43)" paint-order="fill" d="M 104.39383697509766 47 A 2 2 0 1 1 104.39383597509774 46.998000000333334" fill-opacity="1" clip-path="url(#lIviCrmSIgUx)" stroke-opacity="1" stroke-linejoin="bevel" stroke-miterlimit="10" stroke-dasharray=""/><path fill="rgb(43,160,43)" stroke="rgb(43,160,43)" paint-order="fill" d="M 77.11914825439453 172 A 2 2 0 1 1 77.11914725439462 171.99800000033332" fill-opacity="1" clip-path="url(#lIviCrmSIgUx)" stroke-opacity="1" stroke-linejoin="bevel" stroke-miterlimit="10" stroke-dasharray=""/><path fill="rgb(43,160,43)" stroke="rgb(43,160,43)" paint-order="fill" d="M 81.2267837524414 130.3333282470703 A 2 2 0 1 1 81.2267827524415 130.33132824740363" fill-opacity="1" clip-path="url(#lIviCrmSIgUx)" stroke-opacity="1" stroke-linejoin="bevel" stroke-miterlimit="10" stroke-dasharray=""/><path fill="rgb(214,38,40)" stroke="none" paint-order="stroke" d="M 67.42615509033203 297 L 67.42615509033203 276.1666564941406 L 67.42615509033203 276.1666564941406 L 67.42615509033203 255.3333282470703 L 67.42615509033203 255.3333282470703 L 67.42615509033203 234.5 L 68.4157943725586 234.5 L 68.4157943725586 213.6666717529297 L 68.4157943725586 213.6666717529297 L 68.4157943725586 192.8333282470703 L 72.19219970703125 192.8333282470703 L 72.19219970703125 172 L 74.87870025634766 172 L 74.87870025634766 151.1666717529297 L 77.68280792236328 151.1666717529297 L 77.68280792236328 130.3333282470703 L 82.10042572021484 130.3333282470703 L 82.10042572021484 109.5 L 83.05262756347656 109.5 L 83.05262756347656 88.66666412353516 L 83.55712127685547 88.66666412353516 L 83.55712127685547 67.83333587646484 L 84.0462417602539 67.83333587646484 L 84.0462417602539 47 L 88.77103424072266 47 L 88.77103424072266 67.83333587646484 L 88.77103424072266 67.83333587646484 L 88.77103424072266 88.66666412353516 L 88.77103424072266 88.66666412353516 L 88.77103424072266 109.5 L 85.65504455566406 109.5 L 85.65504455566406 130.3333282470703 L 85.65504455566406 130.3333282470703 L 85.65504455566406 151.1666717529297 L 85.31290435791016 151.1666717529297 L 85.31290435791016 172 L 84.0462417602539 172 L 84.0462417602539 192.8333282470703 L 83.55712127685547 192.8333282470703 L 83.55712127685547 213.6666717529297 L 83.05262756347656 213.6666717529297 L 83.05262756347656 234.5 L 82.10042572021484 234.5 L 82.10042572021484 255.3333282470703 L 77.68280792236328 255.3333282470703 L 77.68280792236328 276.1666564941406 L 74.87870025634766 276.1666564941406 L 74.87870025634766 297 Z" fill-opacity="0.30196078431372547" clip-path="url(#BCteFfQgLfbf)"/><path fill="rgb(214,38,40)" stroke="rgb(214,38,40)" paint-order="fill" d="M 85.05262756347656 151.1666717529297 A 2 2 0 1 1 85.05262656347665 151.164671753263" fill-opacity="1" clip-path="url(#OkakgTJSJSHg)" stroke-opacity="1" stroke-linejoin="bevel" stroke-miterlimit="10" stroke-dasharray=""/><path fill="rgb(214,38,40)" stroke="rgb(214,38,40)" paint-order="fill" d="M 84.10042572021484 172 A 2 2 0 1 1 84.10042472021493 171.99800000033332" fill-opacity="1" clip-path="url(#OkakgTJSJSHg)" stroke-opacity="1" stroke-linejoin="bevel" stroke-miterlimit="10" stroke-dasharray=""/><path fill="rgb(214,38,40)" stroke="rgb(214,38,40)" paint-order="fill" d="M 79.68280792236328 192.8333282470703 A 2 2 0 1 1 79.68280692236337 192.83132824740363" fill-opacity="1" clip-path="url(#OkakgTJSJSHg)" stroke-opacity="1" stroke-linejoin="bevel" stroke-miterlimit="10" stroke-dasharray=""/><path fill="rgb(214,38,40)" stroke="rgb(214,38,40)" paint-order="fill" d="M 76.87870025634766 213.6666717529297 A 2 2 0 1 1 76.87869925634774 213.664671753263" fill-opacity="1" clip-path="url(#OkakgTJSJSHg)" stroke-opacity="1" stroke-linejoin="bevel" stroke-miterlimit="10" stroke-dasharray=""/><path fill="rgb(214,38,40)" stroke="rgb(214,38,40)" paint-order="fill" d="M 74.19219970703125 234.5 A 2 2 0 1 1 74.19219870703134 234.49800000033332" fill-opacity="1" clip-path="url(#OkakgTJSJSHg)" stroke-opacity="1" stroke-linejoin="bevel" stroke-miterlimit="10" stroke-dasharray=""/><path fill="rgb(214,38,40)" stroke="rgb(214,38,40)" paint-order="fill" d="M 87.31290435791016 88.66666412353516 A 2 2 0 1 1 87.31290335791024 88.66466412386849" fill-opacity="1" clip-path="url(#OkakgTJSJSHg)" stroke-opacity="1" stroke-linejoin="bevel" stroke-miterlimit="10" stroke-dasharray=""/><path fill="rgb(214,38,40)" stroke="rgb(214,38,40)" paint-order="fill" d="M 85.55712127685547 130.3333282470703 A 2 2 0 1 1 85.55712027685556 130.33132824740363" fill-opacity="1" clip-path="url(#OkakgTJSJSHg)" stroke-opacity="1" stroke-linejoin="bevel" stroke-miterlimit="10" stroke-dasharray=""/><path fill="rgb(214,38,40)" stroke="rgb(214,38,40)" paint-order="fill" d="M 86.0462417602539 109.5 A 2 2 0 1 1 86.046240760254 109.49800000033333" fill-opacity="1" clip-path="url(#OkakgTJSJSHg)" stroke-opacity="1" stroke-linejoin="bevel" stroke-miterlimit="10" stroke-dasharray=""/><path fill="rgb(214,38,40)" stroke="rgb(214,38,40)" paint-order="fill" d="M 70.4157943725586 255.3333282470703 A 2 2 0 1 1 70.41579337255868 255.33132824740363" fill-opacity="1" clip-path="url(#OkakgTJSJSHg)" stroke-opacity="1" stroke-linejoin="bevel" stroke-miterlimit="10" stroke-dasharray=""/><path fill="rgb(214,38,40)" stroke="rgb(214,38,40)" paint-order="fill" d="M 69.42615509033203 276.1666564941406 A 2 2 0 1 1 69.42615409033212 276.16465649447395" fill-opacity="1" clip-path="url(#OkakgTJSJSHg)" stroke-opacity="1" stroke-linejoin="bevel" stroke-miterlimit="10" stroke-dasharray=""/><path fill="rgb(214,38,40)" stroke="rgb(214,38,40)" paint-order="fill" d="M 90.77103424072266 47 A 2 2 0 1 1 90.77103324072274 46.998000000333334" fill-opacity="1" clip-path="url(#OkakgTJSJSHg)" stroke-opacity="1" stroke-linejoin="bevel" stroke-miterlimit="10" stroke-dasharray=""/><path fill="rgb(214,38,40)" stroke="rgb(214,38,40)" paint-order="fill" d="M 87.65504455566406 67.83333587646484 A 2 2 0 1 1 87.65504355566415 67.83133587679818" fill-opacity="1" clip-path="url(#OkakgTJSJSHg)" stroke-opacity="1" stroke-linejoin="bevel" stroke-miterlimit="10" stroke-dasharray=""/><path fill="rgb(147,103,188)" stroke="none" paint-order="stroke" d="M 68.52945709228516 297 L 68.52945709228516 255.3333282470703 L 68.52945709228516 255.3333282470703 L 68.52945709228516 213.6666717529297 L 68.52945709228516 213.6666717529297 L 68.52945709228516 172 L 69.62458038330078 172 L 69.62458038330078 130.3333282470703 L 77.12010955810547 130.3333282470703 L 77.12010955810547 88.66666412353516 L 77.3695297241211 88.66666412353516 L 77.3695297241211 47 L 82.70087432861328 47 L 82.70087432861328 88.66666412353516 L 82.70087432861328 88.66666412353516 L 82.70087432861328 130.3333282470703 L 82.70087432861328 130.3333282470703 L 82.70087432861328 172 L 81.95624542236328 172 L 81.95624542236328 213.6666717529297 L 77.3695297241211 213.6666717529297 L 77.3695297241211 255.3333282470703 L 77.12010955810547 255.3333282470703 L 77.12010955810547 297 Z" fill-opacity="0.30196078431372547" clip-path="url(#rzkwasimBggN)"/><path fill="rgb(147,103,188)" stroke="rgb(147,103,188)" paint-order="fill" d="M 84.70087432861328 47 A 2 2 0 1 1 84.70087332861337 46.998000000333334" fill-opacity="1" clip-path="url(#tBIRHlzzxUFy)" stroke-opacity="1" stroke-linejoin="bevel" stroke-miterlimit="10" stroke-dasharray=""/><path fill="rgb(147,103,188)" stroke="rgb(147,103,188)" paint-order="fill" d="M 79.12010955810547 172 A 2 2 0 1 1 79.12010855810556 171.99800000033332" fill-opacity="1" clip-path="url(#tBIRHlzzxUFy)" stroke-opacity="1" stroke-linejoin="bevel" stroke-miterlimit="10" stroke-dasharray=""/><path fill="rgb(147,103,188)" stroke="rgb(147,103,188)" paint-order="fill" d="M 71.62458038330078 213.6666717529297 A 2 2 0 1 1 71.62457938330087 213.664671753263" fill-opacity="1" clip-path="url(#tBIRHlzzxUFy)" stroke-opacity="1" stroke-linejoin="bevel" stroke-miterlimit="10" stroke-dasharray=""/><path fill="rgb(147,103,188)" stroke="rgb(147,103,188)" paint-order="fill" d="M 79.3695297241211 130.3333282470703 A 2 2 0 1 1 79.36952872412118 130.33132824740363" fill-opacity="1" clip-path="url(#tBIRHlzzxUFy)" stroke-opacity="1" stroke-linejoin="bevel" stroke-miterlimit="10" stroke-dasharray=""/><path fill="rgb(147,103,188)" stroke="rgb(147,103,188)" paint-order="fill" d="M 70.52945709228516 255.3333282470703 A 2 2 0 1 1 70.52945609228524 255.33132824740363" fill-opacity="1" clip-path="url(#tBIRHlzzxUFy)" stroke-opacity="1" stroke-linejoin="bevel" stroke-miterlimit="10" stroke-dasharray=""/><path fill="rgb(147,103,188)" stroke="rgb(147,103,188)" paint-order="fill" d="M 83.95624542236328 88.66666412353516 A 2 2 0 1 1 83.95624442236337 88.66466412386849" fill-opacity="1" clip-path="url(#tBIRHlzzxUFy)" stroke-opacity="1" stroke-linejoin="bevel" stroke-miterlimit="10" stroke-dasharray=""/><path fill="rgb(140,86,75)" stroke="none" paint-order="stroke" d="M 67.56791687011719 297 L 67.56791687011719 255.3333282470703 L 67.56791687011719 255.3333282470703 L 67.56791687011719 213.6666717529297 L 67.56791687011719 213.6666717529297 L 67.56791687011719 172 L 71.23191833496094 172 L 71.23191833496094 130.3333282470703 L 74.4915771484375 130.3333282470703 L 74.4915771484375 88.66666412353516 L 78.62374114990234 88.66666412353516 L 78.62374114990234 47 L 78.64997100830078 47 L 78.64997100830078 88.66666412353516 L 78.64997100830078 88.66666412353516 L 78.64997100830078 130.3333282470703 L 78.64997100830078 130.3333282470703 L 78.64997100830078 172 L 78.62786865234375 172 L 78.62786865234375 213.6666717529297 L 78.62374114990234 213.6666717529297 L 78.62374114990234 255.3333282470703 L 74.4915771484375 255.3333282470703 L 74.4915771484375 297 Z" fill-opacity="0.30196078431372547" clip-path="url(#gBGASMTddqRI)"/><path fill="rgb(140,86,75)" stroke="rgb(140,86,75)" paint-order="fill" d="M 80.62374114990234 130.3333282470703 A 2 2 0 1 1 80.62374014990243 130.33132824740363" fill-opacity="1" clip-path="url(#ndkPcvorTolf)" stroke-opacity="1" stroke-linejoin="bevel" stroke-miterlimit="10" stroke-dasharray=""/><path fill="rgb(140,86,75)" stroke="rgb(140,86,75)" paint-order="fill" d="M 76.4915771484375 172 A 2 2 0 1 1 76.49157614843759 171.99800000033332" fill-opacity="1" clip-path="url(#ndkPcvorTolf)" stroke-opacity="1" stroke-linejoin="bevel" stroke-miterlimit="10" stroke-dasharray=""/><path fill="rgb(140,86,75)" stroke="rgb(140,86,75)" paint-order="fill" d="M 73.23191833496094 213.6666717529297 A 2 2 0 1 1 73.23191733496103 213.664671753263" fill-opacity="1" clip-path="url(#ndkPcvorTolf)" stroke-opacity="1" stroke-linejoin="bevel" stroke-miterlimit="10" stroke-dasharray=""/><path fill="rgb(140,86,75)" stroke="rgb(140,86,75)" paint-order="fill" d="M 80.62786865234375 88.66666412353516 A 2 2 0 1 1 80.62786765234384 88.66466412386849" fill-opacity="1" clip-path="url(#ndkPcvorTolf)" stroke-opacity="1" stroke-linejoin="bevel" stroke-miterlimit="10" stroke-dasharray=""/><path fill="rgb(140,86,75)" stroke="rgb(140,86,75)" paint-order="fill" d="M 69.56791687011719 255.3333282470703 A 2 2 0 1 1 69.56791587011728 255.33132824740363" fill-opacity="1" clip-path="url(#ndkPcvorTolf)" stroke-opacity="1" stroke-linejoin="bevel" stroke-miterlimit="10" stroke-dasharray=""/><path fill="rgb(140,86,75)" stroke="rgb(140,86,75)" paint-order="fill" d="M 80.64997100830078 47 A 2 2 0 1 1 80.64997000830087 46.998000000333334" fill-opacity="1" clip-path="url(#ndkPcvorTolf)" stroke-opacity="1" stroke-linejoin="bevel" stroke-miterlimit="10" stroke-dasharray=""/><path fill="none" stroke="rgb(0,0,0)" paint-order="fill" d="M 65.5 309.5 L 440.5 309.5" stroke-opacity="1" stroke-linejoin="bevel" stroke-miterlimit="10" stroke-dasharray=""/><path fill="none" stroke="rgb(0,0,0)" paint-order="fill" d="M 65.5 315.5 L 65.5 307.5 M 140.5 315.5 L 140.5 307.5 M 215.5 315.5 L 215.5 307.5 M 290.5 315.5 L 290.5 307.5 M 365.5 315.5 L 365.5 307.5 M 440.5 315.5 L 440.5 307.5" stroke-opacity="1" stroke-linejoin="bevel" stroke-miterlimit="10" stroke-dasharray=""/><path fill="none" stroke="rgb(0,0,0)" paint-order="fill" d="M 65.5 313.5 L 65.5 309.5 M 80.5 313.5 L 80.5 309.5 M 95.5 313.5 L 95.5 309.5 M 110.5 313.5 L 110.5 309.5 M 125.5 313.5 L 125.5 309.5 M 140.5 313.5 L 140.5 309.5 M 155.5 313.5 L 155.5 309.5 M 170.5 313.5 L 170.5 309.5 M 185.5 313.5 L 185.5 309.5 M 200.5 313.5 L 200.5 309.5 M 215.5 313.5 L 215.5 309.5 M 230.5 313.5 L 230.5 309.5 M 245.5 313.5 L 245.5 309.5 M 260.5 313.5 L 260.5 309.5 M 275.5 313.5 L 275.5 309.5 M 290.5 313.5 L 290.5 309.5 M 305.5 313.5 L 305.5 309.5 M 320.5 313.5 L 320.5 309.5 M 335.5 313.5 L 335.5 309.5 M 350.5 313.5 L 350.5 309.5 M 365.5 313.5 L 365.5 309.5 M 380.5 313.5 L 380.5 309.5 M 395.5 313.5 L 395.5 309.5 M 410.5 313.5 L 410.5 309.5 M 425.5 313.5 L 425.5 309.5 M 440.5 313.5 L 440.5 309.5" stroke-opacity="1" stroke-linejoin="bevel" stroke-miterlimit="10" stroke-dasharray=""/><text fill="rgb(68,68,68)" stroke="none" font-family="helvetica" font-size="13pt" font-style="normal" font-weight="normal" text-decoration="normal" x="60.18333339691162" y="332.4329427083333" text-anchor="start" dominant-baseline="alphabetic" transform="matrix(1, 0, 0, 1, 0.5, 0.5)" fill-opacity="1">0</text><text fill="rgb(68,68,68)" stroke="none" font-family="helvetica" font-size="13pt" font-style="normal" font-weight="normal" text-decoration="normal" x="127.9583330154419" y="332.4329427083333" text-anchor="start" dominant-baseline="alphabetic" transform="matrix(1, 0, 0, 1, 0.5, 0.5)" fill-opacity="1">0.2</text><text fill="rgb(68,68,68)" stroke="none" font-family="helvetica" font-size="13pt" font-style="normal" font-weight="normal" text-decoration="normal" x="202.9583330154419" y="332.4329427083333" text-anchor="start" dominant-baseline="alphabetic" transform="matrix(1, 0, 0, 1, 0.5, 0.5)" fill-opacity="1">0.4</text><text fill="rgb(68,68,68)" stroke="none" font-family="helvetica" font-size="13pt" font-style="normal" font-weight="normal" text-decoration="normal" x="277.9583330154419" y="332.4329427083333" text-anchor="start" dominant-baseline="alphabetic" transform="matrix(1, 0, 0, 1, 0.5, 0.5)" fill-opacity="1">0.6</text><text fill="rgb(68,68,68)" stroke="none" font-family="helvetica" font-size="13pt" font-style="normal" font-weight="normal" text-decoration="normal" x="352.9583330154419" y="332.4329427083333" text-anchor="start" dominant-baseline="alphabetic" transform="matrix(1, 0, 0, 1, 0.5, 0.5)" fill-opacity="1">0.8</text><text fill="rgb(68,68,68)" stroke="none" font-family="helvetica" font-size="13pt" font-style="normal" font-weight="normal" text-decoration="normal" x="435.1833333969116" y="332.4329427083333" text-anchor="start" dominant-baseline="alphabetic" transform="matrix(1, 0, 0, 1, 0.5, 0.5)" fill-opacity="1">1</text><text fill="rgb(68,68,68)" stroke="none" font-family="arial" font-size="13pt" font-style="normal" font-weight="normal" text-decoration="normal" x="144.64167022705078" y="355.9720062255859" text-anchor="start" dominant-baseline="alphabetic" transform="matrix(1, 0, 0, 1, 0.5, 0.5)" fill-opacity="1">Adhesion ratio (before/after)</text><path fill="none" stroke="rgb(0,0,0)" paint-order="fill" d="M 65.5 309.5 L 65.5 34.5" stroke-opacity="1" stroke-linejoin="bevel" stroke-miterlimit="10" stroke-dasharray=""/><path fill="none" stroke="rgb(0,0,0)" paint-order="fill" d="M 59.5 297.5 L 67.5 297.5 M 59.5 247.5 L 67.5 247.5 M 59.5 197.5 L 67.5 197.5 M 59.5 147.5 L 67.5 147.5 M 59.5 97.5 L 67.5 97.5 M 59.5 47.5 L 67.5 47.5" stroke-opacity="1" stroke-linejoin="bevel" stroke-miterlimit="10" stroke-dasharray=""/><path fill="none" stroke="rgb(0,0,0)" paint-order="fill" d="M 61.5 307.5 L 65.5 307.5 M 61.5 297.5 L 65.5 297.5 M 61.5 287.5 L 65.5 287.5 M 61.5 277.5 L 65.5 277.5 M 61.5 267.5 L 65.5 267.5 M 61.5 257.5 L 65.5 257.5 M 61.5 247.5 L 65.5 247.5 M 61.5 237.5 L 65.5 237.5 M 61.5 227.5 L 65.5 227.5 M 61.5 217.5 L 65.5 217.5 M 61.5 207.5 L 65.5 207.5 M 61.5 197.5 L 65.5 197.5 M 61.5 187.5 L 65.5 187.5 M 61.5 177.5 L 65.5 177.5 M 61.5 167.5 L 65.5 167.5 M 61.5 157.5 L 65.5 157.5 M 61.5 147.5 L 65.5 147.5 M 61.5 137.5 L 65.5 137.5 M 61.5 127.5 L 65.5 127.5 M 61.5 117.5 L 65.5 117.5 M 61.5 107.5 L 65.5 107.5 M 61.5 97.5 L 65.5 97.5 M 61.5 87.5 L 65.5 87.5 M 61.5 77.5 L 65.5 77.5 M 61.5 67.5 L 65.5 67.5 M 61.5 57.5 L 65.5 57.5 M 61.5 47.5 L 65.5 47.5 M 61.5 37.5 L 65.5 37.5" stroke-opacity="1" stroke-linejoin="bevel" stroke-miterlimit="10" stroke-dasharray=""/><text fill="rgb(68,68,68)" stroke="none" font-family="helvetica" font-size="13pt" font-style="normal" font-weight="normal" text-decoration="normal" x="44.36666679382324" y="302.71647135416663" text-anchor="start" dominant-baseline="alphabetic" transform="matrix(1, 0, 0, 1, 0.5, 0.5)" fill-opacity="1">0</text><text fill="rgb(68,68,68)" stroke="none" font-family="helvetica" font-size="13pt" font-style="normal" font-weight="normal" text-decoration="normal" x="29.91666603088379" y="252.71647135416669" text-anchor="start" dominant-baseline="alphabetic" transform="matrix(1, 0, 0, 1, 0.5, 0.5)" fill-opacity="1">0.2</text><text fill="rgb(68,68,68)" stroke="none" font-family="helvetica" font-size="13pt" font-style="normal" font-weight="normal" text-decoration="normal" x="29.91666603088379" y="202.71647135416669" text-anchor="start" dominant-baseline="alphabetic" transform="matrix(1, 0, 0, 1, 0.5, 0.5)" fill-opacity="1">0.4</text><text fill="rgb(68,68,68)" stroke="none" font-family="helvetica" font-size="13pt" font-style="normal" font-weight="normal" text-decoration="normal" x="29.91666603088379" y="152.71647135416669" text-anchor="start" dominant-baseline="alphabetic" transform="matrix(1, 0, 0, 1, 0.5, 0.5)" fill-opacity="1">0.6</text><text fill="rgb(68,68,68)" stroke="none" font-family="helvetica" font-size="13pt" font-style="normal" font-weight="normal" text-decoration="normal" x="29.91666603088379" y="102.71647135416666" text-anchor="start" dominant-baseline="alphabetic" transform="matrix(1, 0, 0, 1, 0.5, 0.5)" fill-opacity="1">0.8</text><text fill="rgb(68,68,68)" stroke="none" font-family="helvetica" font-size="13pt" font-style="normal" font-weight="normal" text-decoration="normal" x="44.36666679382324" y="52.71647135416667" text-anchor="start" dominant-baseline="alphabetic" transform="matrix(1, 0, 0, 1, 0.5, 0.5)" fill-opacity="1">1</text><text fill="rgb(68,68,68)" stroke="none" font-family="arial" font-size="13pt" font-style="normal" font-weight="normal" text-decoration="normal" x="-1.6750011444091797" y="167.85221252441406" text-anchor="start" dominant-baseline="alphabetic" transform="matrix(6.123233995736766e-17, -1, 1, 6.123233995736766e-17, -149.0833339691162, 193.9166660308838)" fill-opacity="1">ECDF</text><path fill="rgb(255,255,255)" stroke="rgb(229,229,229)" paint-order="fill" d="M 450.6500015258789 94.5 L 564.3499984741211 94.5 L 564.3499984741211 249.5 L 450.6500015258789 249.5 L 450.6500015258789 94.5" fill-opacity="0.9490196078431372" stroke-opacity="0.5019607843137255" stroke-linejoin="bevel" stroke-miterlimit="10" stroke-dasharray=""/><text fill="rgb(68,68,68)" stroke="none" font-family="helvetica" font-size="13px" font-style="italic" font-weight="normal" text-decoration="normal" x="485.1500015258789" y="114" text-anchor="start" dominant-baseline="central" transform="matrix(1, 0, 0, 1, 0.5, 0.5)" fill-opacity="1">srb10</text><path fill="rgb(31,119,179)" stroke="rgb(31,119,179)" paint-order="fill" d="M 474.6500015258789 114.5 A 4 4 0 1 1 474.6499995258791 114.49600000066667" fill-opacity="1" stroke-opacity="1" stroke-linejoin="bevel" stroke-miterlimit="10" stroke-dasharray=""/><path fill="rgb(31,119,179)" stroke="none" paint-order="stroke" d="M 462.6500015258789 106.5 L 478.6500015258789 106.5 L 478.6500015258789 122.5 L 462.6500015258789 122.5 L 462.6500015258789 106.5" fill-opacity="0.30196078431372547"/><text fill="rgb(68,68,68)" stroke="none" font-family="helvetica" font-size="13px" font-style="italic" font-weight="normal" text-decoration="normal" x="485.1500015258789" y="137" text-anchor="start" dominant-baseline="central" transform="matrix(1, 0, 0, 1, 0.5, 0.5)" fill-opacity="1">srb11</text><path fill="rgb(255,126,14)" stroke="rgb(255,126,14)" paint-order="fill" d="M 474.6500015258789 137.5 A 4 4 0 1 1 474.6499995258791 137.49600000066667" fill-opacity="1" stroke-opacity="1" stroke-linejoin="bevel" stroke-miterlimit="10" stroke-dasharray=""/><path fill="rgb(255,126,14)" stroke="none" paint-order="stroke" d="M 462.6500015258789 129.5 L 478.6500015258789 129.5 L 478.6500015258789 145.5 L 462.6500015258789 145.5 L 462.6500015258789 129.5" fill-opacity="0.30196078431372547"/><text fill="rgb(68,68,68)" stroke="none" font-family="helvetica" font-size="13px" font-style="italic" font-weight="normal" text-decoration="normal" x="485.1500015258789" y="160" text-anchor="start" dominant-baseline="central" transform="matrix(1, 0, 0, 1, 0.5, 0.5)" fill-opacity="1">nut2/med10</text><path fill="rgb(43,160,43)" stroke="rgb(43,160,43)" paint-order="fill" d="M 474.6500015258789 160.5 A 4 4 0 1 1 474.6499995258791 160.49600000066667" fill-opacity="1" stroke-opacity="1" stroke-linejoin="bevel" stroke-miterlimit="10" stroke-dasharray=""/><path fill="rgb(43,160,43)" stroke="none" paint-order="stroke" d="M 462.6500015258789 152.5 L 478.6500015258789 152.5 L 478.6500015258789 168.5 L 462.6500015258789 168.5 L 462.6500015258789 152.5" fill-opacity="0.30196078431372547"/><text fill="rgb(68,68,68)" stroke="none" font-family="helvetica" font-size="13px" font-style="italic" font-weight="normal" text-decoration="normal" x="485.1500015258789" y="183" text-anchor="start" dominant-baseline="central" transform="matrix(1, 0, 0, 1, 0.5, 0.5)" fill-opacity="1">med13</text><path fill="rgb(214,38,40)" stroke="rgb(214,38,40)" paint-order="fill" d="M 474.6500015258789 183.5 A 4 4 0 1 1 474.6499995258791 183.49600000066667" fill-opacity="1" stroke-opacity="1" stroke-linejoin="bevel" stroke-miterlimit="10" stroke-dasharray=""/><path fill="rgb(214,38,40)" stroke="none" paint-order="stroke" d="M 462.6500015258789 175.5 L 478.6500015258789 175.5 L 478.6500015258789 191.5 L 462.6500015258789 191.5 L 462.6500015258789 175.5" fill-opacity="0.30196078431372547"/><text fill="rgb(68,68,68)" stroke="none" font-family="helvetica" font-size="13px" font-style="italic" font-weight="normal" text-decoration="normal" x="485.1500015258789" y="206" text-anchor="start" dominant-baseline="central" transform="matrix(1, 0, 0, 1, 0.5, 0.5)" fill-opacity="1">rox3</text><path fill="rgb(147,103,188)" stroke="rgb(147,103,188)" paint-order="fill" d="M 474.6500015258789 206.5 A 4 4 0 1 1 474.6499995258791 206.49600000066667" fill-opacity="1" stroke-opacity="1" stroke-linejoin="bevel" stroke-miterlimit="10" stroke-dasharray=""/><path fill="rgb(147,103,188)" stroke="none" paint-order="stroke" d="M 462.6500015258789 198.5 L 478.6500015258789 198.5 L 478.6500015258789 214.5 L 462.6500015258789 214.5 L 462.6500015258789 198.5" fill-opacity="0.30196078431372547"/><text fill="rgb(68,68,68)" stroke="none" font-family="helvetica" font-size="13px" font-style="italic" font-weight="normal" text-decoration="normal" x="485.1500015258789" y="229" text-anchor="start" dominant-baseline="central" transform="matrix(1, 0, 0, 1, 0.5, 0.5)" fill-opacity="1">pmc3</text><path fill="rgb(140,86,75)" stroke="rgb(140,86,75)" paint-order="fill" d="M 474.6500015258789 229.5 A 4 4 0 1 1 474.6499995258791 229.49600000066667" fill-opacity="1" stroke-opacity="1" stroke-linejoin="bevel" stroke-miterlimit="10" stroke-dasharray=""/><path fill="rgb(140,86,75)" stroke="none" paint-order="stroke" d="M 462.6500015258789 221.5 L 478.6500015258789 221.5 L 478.6500015258789 237.5 L 462.6500015258789 237.5 L 462.6500015258789 221.5" fill-opacity="0.30196078431372547"/><text fill="rgb(68,68,68)" stroke="none" font-family="arial" font-size="15pt" font-style="normal" font-weight="normal" text-decoration="normal" x="65" y="24.791015625" text-anchor="start" dominant-baseline="alphabetic" transform="matrix(1, 0, 0, 1, 0.5, 0.5)" fill-opacity="1">Adhesion of Mediator gene deletions on YES</text></svg>