<?xml version="1.0" encoding="UTF-8" standalone="no"?>
<!-- Created with Inkscape (http://www.inkscape.org/) -->

<svg
   width="3840"
   height="2160"
   viewBox="0 0 1016 571.5"
   version="1.1"
   id="svg253506"
   inkscape:version="1.3.2 (091e20e, 2023-11-25)"
   sodipodi:docname="suppfig1.svg"
   xml:space="preserve"
   inkscape:export-filename="suppfig1.png"
   inkscape:export-xdpi="96"
   inkscape:export-ydpi="96"
   xmlns:inkscape="http://www.inkscape.org/namespaces/inkscape"
   xmlns:sodipodi="http://sodipodi.sourceforge.net/DTD/sodipodi-0.dtd"
   xmlns:xlink="http://www.w3.org/1999/xlink"
   xmlns="http://www.w3.org/2000/svg"
   xmlns:svg="http://www.w3.org/2000/svg"><sodipodi:namedview
     id="namedview253508"
     pagecolor="#ffffff"
     bordercolor="#000000"
     borderopacity="0.25"
     inkscape:showpageshadow="2"
     inkscape:pageopacity="0.0"
     inkscape:pagecheckerboard="0"
     inkscape:deskcolor="#d1d1d1"
     inkscape:document-units="mm"
     showgrid="false"
     inkscape:zoom="0.081817263"
     inkscape:cx="2065.5787"
     inkscape:cy="1277.2366"
     inkscape:window-width="1312"
     inkscape:window-height="456"
     inkscape:window-x="0"
     inkscape:window-y="38"
     inkscape:window-maximized="0"
     inkscape:current-layer="svg253506" /><defs
     id="defs253503"><style
       type="text/css"
       id="style1">*{stroke-linejoin: round; stroke-linecap: butt}</style><path
       id="m12c69121fc"
       d="M 0,3 C 0.795609,3 1.55874,2.683901 2.12132,2.12132 2.683901,1.55874 3,0.795609 3,0 3,-0.795609 2.683901,-1.55874 2.12132,-2.12132 1.55874,-2.683901 0.795609,-3 0,-3 -0.795609,-3 -1.55874,-2.683901 -2.12132,-2.12132 -2.683901,-1.55874 -3,-0.795609 -3,0 -3,0.795609 -2.683901,1.55874 -2.12132,2.12132 -1.55874,2.683901 -0.795609,3 0,3 Z"
       style="stroke:#1f77b4" /><path
       id="mdb45193b38"
       d="M 0,0 V 3.5"
       style="stroke:#000000;stroke-width:0.8" /><path
       id="ArialMT-30"
       d="m 266,2259 q 0,813 167,1308 167,496 496,764 330,269 830,269 369,0 647,-149 278,-148 459,-428 182,-279 285,-681 103,-401 103,-1083 0,-806 -166,-1301 Q 2922,463 2592,192 2263,-78 1759,-78 1097,-78 719,397 266,969 266,2259 Z m 578,0 q 0,-1128 264,-1502 264,-373 651,-373 388,0 652,375 264,375 264,1500 0,1132 -264,1503 -264,372 -658,372 -387,0 -619,-328 Q 844,3388 844,2259 Z"
       transform="scale(0.015625)" /><path
       id="ArialMT-32"
       d="M 3222,541 V 0 H 194 q -6,203 65,391 116,309 370,609 255,300 737,694 747,612 1009,970 263,358 263,677 0,334 -240,563 -239,230 -623,230 -406,0 -650,-244 -244,-243 -247,-674 l -578,59 q 59,647 446,986 388,339 1042,339 659,0 1043,-366 385,-365 385,-906 0,-275 -113,-541 Q 2991,2522 2730,2228 2469,1934 1863,1422 1356,997 1212,845 1069,694 975,541 Z"
       transform="scale(0.015625)" /><path
       id="ArialMT-34"
       d="M 2069,0 V 1097 H 81 v 516 l 2091,2968 h 459 V 1613 h 619 V 1097 H 2631 V 0 Z m 0,1613 V 3678 L 634,1613 Z"
       transform="scale(0.015625)" /><path
       id="ArialMT-36"
       d="m 3184,3459 -559,-43 q -75,331 -212,481 -229,241 -563,241 -269,0 -472,-150 -265,-194 -419,-566 -153,-372 -159,-1059 203,309 497,459 294,150 616,150 562,0 957,-414 396,-414 396,-1070 0,-432 -186,-802 Q 2894,316 2569,119 2244,-78 1831,-78 1128,-78 684,439 241,956 241,2144 q 0,1328 490,1931 428,525 1153,525 541,0 886,-303 346,-303 414,-838 z M 888,1484 q 0,-290 123,-556 123,-265 345,-405 222,-139 466,-139 356,0 612,287 257,288 257,782 0,475 -254,748 -253,274 -637,274 -381,0 -647,-274 -265,-273 -265,-717 z"
       transform="scale(0.015625)" /><path
       id="ArialMT-38"
       d="m 1131,2484 q -350,129 -519,366 -168,238 -168,569 0,500 359,840 360,341 956,341 600,0 966,-349 366,-348 366,-848 0,-319 -168,-555 -167,-235 -507,-364 422,-137 642,-444 220,-306 220,-731 0,-587 -416,-987 Q 2447,-78 1769,-78 1091,-78 675,323 259,725 259,1325 q 0,447 227,748 227,302 645,411 z m -112,954 q 0,-325 209,-532 210,-206 544,-206 325,0 533,204 208,205 208,502 0,310 -215,521 -214,211 -532,211 -322,0 -535,-207 -212,-206 -212,-493 z M 838,1322 q 0,-241 114,-466 114,-225 339,-349 225,-123 484,-123 403,0 665,259 263,260 263,660 0,406 -270,672 -270,266 -677,266 -397,0 -658,-263 -260,-262 -260,-656 z"
       transform="scale(0.015625)" /><path
       id="ArialMT-31"
       d="M 2384,0 H 1822 V 3584 Q 1619,3391 1289,3197 959,3003 697,2906 v 544 q 472,222 825,537 353,316 500,613 h 362 z"
       transform="scale(0.015625)" /><path
       id="ArialMT-46"
       d="M 525,0 V 4581 H 3616 V 4041 H 1131 V 2622 H 3281 V 2081 H 1131 V 0 Z"
       transform="scale(0.015625)" /><path
       id="ArialMT-69"
       d="m 425,3934 v 647 H 988 V 3934 Z M 425,0 V 3319 H 988 V 0 Z"
       transform="scale(0.015625)" /><path
       id="ArialMT-6c"
       d="M 409,0 V 4581 H 972 V 0 Z"
       transform="scale(0.015625)" /><path
       id="ArialMT-74"
       d="M 1650,503 1731,6 Q 1494,-44 1306,-44 1000,-44 831,53 663,150 594,308 525,466 525,972 V 2881 H 113 v 438 h 412 v 822 l 559,337 V 3319 h 566 V 2881 H 1084 V 941 q 0,-241 30,-310 30,-68 97,-109 67,-41 192,-41 94,0 247,22 z"
       transform="scale(0.015625)" /><path
       id="ArialMT-65"
       d="m 2694,1069 581,-72 Q 3138,488 2766,206 2394,-75 1816,-75 1088,-75 661,373 234,822 234,1631 q 0,838 431,1300 432,463 1119,463 666,0 1088,-453 422,-453 422,-1275 0,-50 -3,-150 H 816 q 31,-547 309,-838 278,-290 694,-290 309,0 528,162 219,163 347,519 z M 847,1978 h 1853 q -37,419 -212,628 -269,325 -697,325 -388,0 -652,-259 -264,-259 -292,-694 z"
       transform="scale(0.015625)" /><path
       id="ArialMT-72"
       d="m 416,0 v 3319 h 506 v -503 q 194,353 358,465 164,113 361,113 284,0 578,-181 l -194,-522 q -206,122 -412,122 -185,0 -332,-111 -147,-111 -209,-308 -94,-300 -94,-656 V 0 Z"
       transform="scale(0.015625)" /><path
       id="ArialMT-6e"
       d="m 422,0 v 3319 h 506 v -472 q 366,547 1056,547 300,0 552,-108 252,-108 377,-283 125,-175 175,-415 31,-157 31,-547 V 0 h -563 v 2019 q 0,344 -66,514 -65,170 -232,271 -167,102 -392,102 -360,0 -621,-228 Q 984,2450 984,1813 V 0 Z"
       transform="scale(0.015625)" /><path
       id="ArialMT-67"
       d="m 319,-275 547,-81 q 34,-253 190,-369 210,-156 572,-156 391,0 603,156 213,156 288,437 44,172 40,722 Q 2191,0 1641,0 956,0 581,494 206,988 206,1678 q 0,475 172,876 172,402 498,621 327,219 768,219 587,0 969,-475 v 400 h 518 V 450 q 0,-775 -158,-1098 -157,-324 -500,-511 -342,-188 -842,-188 -593,0 -959,267 -366,267 -353,805 z m 465,1994 q 0,-653 259,-953 260,-300 651,-300 387,0 649,298 263,299 263,936 0,609 -270,918 -270,310 -652,310 -375,0 -638,-305 -262,-304 -262,-904 z"
       transform="scale(0.015625)" /><path
       id="ArialMT-20"
       transform="scale(0.015625)"
       d="" /><path
       id="ArialMT-61"
       d="M 2588,409 Q 2275,144 1986,34 1697,-75 1366,-75 819,-75 525,192 231,459 231,875 q 0,244 111,445 111,202 291,324 180,122 405,184 165,44 500,85 681,81 1003,193 3,116 3,147 0,344 -160,485 -215,190 -640,190 -397,0 -586,-139 -189,-139 -280,-492 l -550,75 q 75,353 247,570 172,217 497,334 325,118 753,118 425,0 690,-100 266,-100 391,-252 125,-151 175,-383 28,-143 28,-518 v -750 q 0,-785 36,-993 36,-207 143,-398 h -588 q -87,175 -112,409 z m -47,1257 q -307,-125 -919,-213 -347,-50 -491,-113 -143,-62 -222,-182 -78,-120 -78,-267 0,-225 170,-375 171,-150 499,-150 325,0 578,142 253,142 372,389 91,191 91,562 z"
       transform="scale(0.015625)" /><path
       id="ArialMT-73"
       d="m 197,991 556,87 q 47,-334 261,-512 214,-178 599,-178 387,0 574,157 188,158 188,371 0,190 -166,300 -115,75 -575,190 -618,157 -857,271 -239,114 -363,315 -123,202 -123,446 0,221 101,410 102,190 277,315 131,96 357,163 227,68 487,68 390,0 685,-113 296,-112 436,-305 141,-192 194,-513 l -550,-75 q -37,256 -217,399 -180,144 -508,144 -387,0 -553,-128 -166,-128 -166,-300 0,-109 69,-197 69,-90 216,-150 84,-31 497,-143 597,-160 832,-262 236,-101 370,-295 135,-193 135,-481 0,-281 -164,-530 Q 2625,197 2315,61 2006,-75 1616,-75 969,-75 630,194 291,463 197,991 Z"
       transform="scale(0.015625)" /><path
       id="ArialMT-79"
       d="m 397,-1278 -63,528 q 185,-50 322,-50 188,0 300,63 113,62 185,174 53,85 172,419 15,47 50,138 L 103,3319 h 606 l 691,-1922 q 134,-366 241,-769 97,388 231,756 l 709,1935 h 563 L 1881,-56 q -203,-547 -315,-753 -150,-279 -344,-408 -194,-130 -463,-130 -162,0 -362,69 z"
       transform="scale(0.015625)" /><path
       id="ArialMT-28"
       d="M 1497,-1347 Q 1031,-759 709,28 388,816 388,1659 q 0,744 240,1425 281,791 869,1575 h 403 Q 1522,4009 1400,3731 1209,3300 1100,2831 966,2247 966,1656 966,153 1900,-1347 Z"
       transform="scale(0.015625)" /><path
       id="ArialMT-25"
       d="m 372,3481 q 0,491 247,834 247,344 715,344 432,0 714,-308 283,-307 283,-904 0,-581 -286,-895 -286,-314 -704,-314 -416,0 -693,309 -276,309 -276,934 z m 978,791 q -209,0 -348,-182 -139,-181 -139,-665 0,-441 140,-621 141,-179 347,-179 213,0 352,181 139,182 139,663 0,444 -141,623 -141,180 -350,180 z m 3,-4441 2506,4828 h 457 L 1819,-169 Z m 1981,1244 q 0,494 247,836 247,342 719,342 431,0 714,-308 283,-307 283,-904 0,-582 -286,-896 -286,-314 -708,-314 -415,0 -692,311 -277,311 -277,933 z m 982,791 q -213,0 -352,-182 -139,-181 -139,-665 0,-438 140,-619 141,-181 348,-181 215,0 354,181 139,181 139,663 0,443 -141,623 -140,180 -349,180 z"
       transform="scale(0.015625)" /><path
       id="ArialMT-66"
       d="M 556,0 V 2881 H 59 v 438 h 497 v 353 q 0,334 60,497 81,219 285,354 205,136 574,136 238,0 525,-56 l -84,-490 q -175,31 -332,31 -256,0 -362,-110 -106,-109 -106,-409 v -306 h 647 V 2881 H 1116 V 0 Z"
       transform="scale(0.015625)" /><path
       id="ArialMT-6f"
       d="m 213,1659 q 0,922 512,1366 428,369 1044,369 684,0 1118,-449 435,-448 435,-1239 0,-640 -192,-1008 Q 2938,331 2570,128 2203,-75 1769,-75 1072,-75 642,372 213,819 213,1659 Z m 578,0 q 0,-637 278,-954 278,-317 700,-317 419,0 697,318 278,319 278,972 0,616 -280,933 -280,317 -695,317 -422,0 -700,-316 -278,-315 -278,-953 z"
       transform="scale(0.015625)" /><path
       id="ArialMT-63"
       d="m 2588,1216 553,-72 Q 3050,572 2676,248 2303,-75 1759,-75 1078,-75 664,370 250,816 250,1647 q 0,537 178,940 178,404 542,605 364,202 793,202 540,0 884,-274 344,-273 441,-776 l -547,-85 q -78,335 -277,503 -198,169 -480,169 -425,0 -691,-305 -265,-304 -265,-963 0,-669 256,-972 257,-303 669,-303 331,0 553,203 222,203 282,625 z"
       transform="scale(0.015625)" /><path
       id="ArialMT-75"
       d="M 2597,0 V 488 Q 2209,-75 1544,-75 1250,-75 995,37 741,150 617,320 494,491 444,738 409,903 409,1263 V 3319 H 972 V 1478 q 0,-440 34,-594 53,-221 225,-348 172,-127 425,-127 253,0 475,130 222,130 314,353 93,224 93,649 v 1778 h 562 V 0 Z"
       transform="scale(0.015625)" /><path
       id="ArialMT-29"
       d="M 791,-1347 H 388 q 934,1500 934,3003 0,588 -134,1166 -107,469 -297,900 -122,281 -503,937 h 403 q 587,-784 868,-1575 241,-681 241,-1425 0,-843 -324,-1631 -323,-787 -785,-1375 z"
       transform="scale(0.015625)" /><path
       id="m2e557c0eac"
       d="M 0,0 H -3.5"
       style="stroke:#000000;stroke-width:0.8" /><path
       id="ArialMT-2e"
       d="m 581,0 v 641 h 641 V 0 Z"
       transform="scale(0.015625)" /><path
       id="ArialMT-35"
       d="m 266,1200 590,50 q 66,-431 305,-649 239,-217 577,-217 406,0 687,306 281,307 281,813 0,481 -270,759 -270,279 -708,279 -272,0 -491,-124 -218,-123 -343,-320 l -528,69 443,2353 H 3088 V 3981 H 1259 L 1013,2750 q 412,288 865,288 600,0 1012,-416 413,-416 413,-1069 Q 3303,931 2941,478 2500,-78 1738,-78 1113,-78 717,272 322,622 266,1200 Z"
       transform="scale(0.015625)" /><path
       id="ArialMT-33"
       d="m 269,1209 562,75 q 97,-478 330,-689 233,-211 567,-211 397,0 670,275 274,275 274,682 0,387 -253,638 -253,252 -644,252 -159,0 -397,-62 l 63,494 q 56,-7 90,-7 360,0 647,187 288,188 288,579 0,309 -210,512 -209,204 -540,204 -328,0 -547,-207 -219,-206 -281,-618 l -563,100 q 103,565 468,876 366,311 910,311 375,0 690,-161 316,-161 483,-439 168,-278 168,-591 0,-296 -160,-540 -159,-244 -471,-388 406,-93 631,-389 225,-295 225,-739 Q 3269,753 2831,336 2394,-81 1725,-81 1122,-81 723,278 325,638 269,1209 Z"
       transform="scale(0.015625)" /><path
       id="ArialMT-50"
       d="m 494,0 v 4581 h 1728 q 456,0 697,-43 337,-57 565,-215 229,-157 368,-442 139,-284 139,-625 0,-584 -372,-989 -372,-404 -1344,-404 H 1100 V 0 Z m 606,2403 h 1184 q 588,0 835,219 247,219 247,616 0,287 -146,491 -145,205 -382,271 -154,41 -566,41 H 1100 Z"
       transform="scale(0.015625)" /><path
       id="ArialMT-2d"
       d="m 203,1375 v 566 h 1728 v -566 z"
       transform="scale(0.015625)" /><path
       id="ArialMT-64"
       d="M 2575,0 V 419 Q 2259,-75 1647,-75 1250,-75 917,144 584,363 401,755 q -182,392 -182,901 0,497 165,902 166,405 497,620 332,216 741,216 300,0 534,-127 235,-126 382,-329 v 1643 h 559 V 0 Z M 797,1656 q 0,-637 268,-953 269,-315 635,-315 369,0 626,301 258,302 258,920 0,682 -263,1000 -262,319 -646,319 -375,0 -627,-306 -251,-306 -251,-966 z"
       transform="scale(0.015625)" /><path
       id="ArialMT-43"
       d="m 3763,1606 606,-153 Q 4178,706 3683,314 3188,-78 2472,-78 1731,-78 1267,223 803,525 561,1097 319,1669 319,2325 q 0,716 273,1248 274,533 778,809 505,277 1111,277 688,0 1156,-350 469,-350 654,-984 l -597,-141 q -160,500 -463,728 -303,229 -762,229 -528,0 -883,-254 -355,-253 -499,-680 -143,-426 -143,-879 0,-584 170,-1020 170,-436 529,-652 360,-215 779,-215 509,0 862,293 354,294 479,872 z"
       transform="scale(0.015625)" /><path
       id="ArialMT-56"
       d="M 1803,0 28,4581 H 684 L 1875,1253 q 144,-400 241,-750 106,375 247,750 l 1237,3328 h 619 L 2425,0 Z"
       transform="scale(0.015625)" /><path
       id="ArialMT-3a"
       d="m 578,2678 v 641 h 641 V 2678 Z M 578,0 v 641 h 641 V 0 Z"
       transform="scale(0.015625)" /><path
       id="ArialMT-70"
       d="m 422,-1272 v 4591 h 512 v -431 q 182,253 410,379 228,127 553,127 425,0 750,-219 325,-219 490,-618 166,-398 166,-873 0,-509 -183,-917 Q 2938,359 2589,142 2241,-75 1856,-75 1575,-75 1351,44 1128,163 984,344 v -1616 z m 509,2913 q 0,-641 259,-947 260,-306 629,-306 375,0 642,317 267,317 267,983 0,634 -261,949 -261,316 -623,316 -360,0 -637,-336 -276,-336 -276,-976 z"
       transform="scale(0.015625)" /><path
       id="ArialMT-76"
       d="M 1344,0 81,3319 h 594 l 713,-1988 q 115,-322 212,-668 75,262 209,631 l 738,2025 h 578 L 1869,0 Z"
       transform="scale(0.015625)" /><clipPath
       id="pe186d1d657"><rect
         x="57.599998"
         y="41.472"
         width="357.12"
         height="266.112"
         id="rect240" /></clipPath><style
       type="text/css"
       id="style1-5">*{stroke-linejoin: round; stroke-linecap: butt}</style><path
       id="med6aa5610e"
       d="M 0 5  C 1.326016 5 2.597899 4.473168 3.535534 3.535534  C 4.473168 2.597899 5 1.326016 5 0  C 5 -1.326016 4.473168 -2.597899 3.535534 -3.535534  C 2.597899 -4.473168 1.326016 -5 0 -5  C -1.326016 -5 -2.597899 -4.473168 -3.535534 -3.535534  C -4.473168 -2.597899 -5 -1.326016 -5 0  C -5 1.326016 -4.473168 2.597899 -3.535534 3.535534  C -2.597899 4.473168 -1.326016 5 0 5  z "
       style="stroke: #000000; stroke-opacity: 0.7" /><path
       id="m6ad2635394"
       d="M 0 0  L 0 3.5  "
       style="stroke: #000000; stroke-width: 0.8" /><path
       id="ArialMT-30-1"
       d="M 266 2259  Q 266 3072 433 3567  Q 600 4063 929 4331  Q 1259 4600 1759 4600  Q 2128 4600 2406 4451  Q 2684 4303 2865 4023  Q 3047 3744 3150 3342  Q 3253 2941 3253 2259  Q 3253 1453 3087 958  Q 2922 463 2592 192  Q 2263 -78 1759 -78  Q 1097 -78 719 397  Q 266 969 266 2259  z M 844 2259  Q 844 1131 1108 757  Q 1372 384 1759 384  Q 2147 384 2411 759  Q 2675 1134 2675 2259  Q 2675 3391 2411 3762  Q 2147 4134 1753 4134  Q 1366 4134 1134 3806  Q 844 3388 844 2259  z "
       transform="scale(0.015625)" /><path
       id="ArialMT-32-3"
       d="M 3222 541  L 3222 0  L 194 0  Q 188 203 259 391  Q 375 700 629 1000  Q 884 1300 1366 1694  Q 2113 2306 2375 2664  Q 2638 3022 2638 3341  Q 2638 3675 2398 3904  Q 2159 4134 1775 4134  Q 1369 4134 1125 3890  Q 881 3647 878 3216  L 300 3275  Q 359 3922 746 4261  Q 1134 4600 1788 4600  Q 2447 4600 2831 4234  Q 3216 3869 3216 3328  Q 3216 3053 3103 2787  Q 2991 2522 2730 2228  Q 2469 1934 1863 1422  Q 1356 997 1212 845  Q 1069 694 975 541  L 3222 541  z "
       transform="scale(0.015625)" /><path
       id="ArialMT-34-8"
       d="M 2069 0  L 2069 1097  L 81 1097  L 81 1613  L 2172 4581  L 2631 4581  L 2631 1613  L 3250 1613  L 3250 1097  L 2631 1097  L 2631 0  L 2069 0  z M 2069 1613  L 2069 3678  L 634 1613  L 2069 1613  z "
       transform="scale(0.015625)" /><path
       id="ArialMT-36-4"
       d="M 3184 3459  L 2625 3416  Q 2550 3747 2413 3897  Q 2184 4138 1850 4138  Q 1581 4138 1378 3988  Q 1113 3794 959 3422  Q 806 3050 800 2363  Q 1003 2672 1297 2822  Q 1591 2972 1913 2972  Q 2475 2972 2870 2558  Q 3266 2144 3266 1488  Q 3266 1056 3080 686  Q 2894 316 2569 119  Q 2244 -78 1831 -78  Q 1128 -78 684 439  Q 241 956 241 2144  Q 241 3472 731 4075  Q 1159 4600 1884 4600  Q 2425 4600 2770 4297  Q 3116 3994 3184 3459  z M 888 1484  Q 888 1194 1011 928  Q 1134 663 1356 523  Q 1578 384 1822 384  Q 2178 384 2434 671  Q 2691 959 2691 1453  Q 2691 1928 2437 2201  Q 2184 2475 1800 2475  Q 1419 2475 1153 2201  Q 888 1928 888 1484  z "
       transform="scale(0.015625)" /><path
       id="ArialMT-38-8"
       d="M 1131 2484  Q 781 2613 612 2850  Q 444 3088 444 3419  Q 444 3919 803 4259  Q 1163 4600 1759 4600  Q 2359 4600 2725 4251  Q 3091 3903 3091 3403  Q 3091 3084 2923 2848  Q 2756 2613 2416 2484  Q 2838 2347 3058 2040  Q 3278 1734 3278 1309  Q 3278 722 2862 322  Q 2447 -78 1769 -78  Q 1091 -78 675 323  Q 259 725 259 1325  Q 259 1772 486 2073  Q 713 2375 1131 2484  z M 1019 3438  Q 1019 3113 1228 2906  Q 1438 2700 1772 2700  Q 2097 2700 2305 2904  Q 2513 3109 2513 3406  Q 2513 3716 2298 3927  Q 2084 4138 1766 4138  Q 1444 4138 1231 3931  Q 1019 3725 1019 3438  z M 838 1322  Q 838 1081 952 856  Q 1066 631 1291 507  Q 1516 384 1775 384  Q 2178 384 2440 643  Q 2703 903 2703 1303  Q 2703 1709 2433 1975  Q 2163 2241 1756 2241  Q 1359 2241 1098 1978  Q 838 1716 838 1322  z "
       transform="scale(0.015625)" /><path
       id="ArialMT-31-0"
       d="M 2384 0  L 1822 0  L 1822 3584  Q 1619 3391 1289 3197  Q 959 3003 697 2906  L 697 3450  Q 1169 3672 1522 3987  Q 1875 4303 2022 4600  L 2384 4600  L 2384 0  z "
       transform="scale(0.015625)" /><path
       id="ArialMT-46-4"
       d="M 525 0  L 525 4581  L 3616 4581  L 3616 4041  L 1131 4041  L 1131 2622  L 3281 2622  L 3281 2081  L 1131 2081  L 1131 0  L 525 0  z "
       transform="scale(0.015625)" /><path
       id="ArialMT-69-6"
       d="M 425 3934  L 425 4581  L 988 4581  L 988 3934  L 425 3934  z M 425 0  L 425 3319  L 988 3319  L 988 0  L 425 0  z "
       transform="scale(0.015625)" /><path
       id="ArialMT-6c-0"
       d="M 409 0  L 409 4581  L 972 4581  L 972 0  L 409 0  z "
       transform="scale(0.015625)" /><path
       id="ArialMT-74-3"
       d="M 1650 503  L 1731 6  Q 1494 -44 1306 -44  Q 1000 -44 831 53  Q 663 150 594 308  Q 525 466 525 972  L 525 2881  L 113 2881  L 113 3319  L 525 3319  L 525 4141  L 1084 4478  L 1084 3319  L 1650 3319  L 1650 2881  L 1084 2881  L 1084 941  Q 1084 700 1114 631  Q 1144 563 1211 522  Q 1278 481 1403 481  Q 1497 481 1650 503  z "
       transform="scale(0.015625)" /><path
       id="ArialMT-65-2"
       d="M 2694 1069  L 3275 997  Q 3138 488 2766 206  Q 2394 -75 1816 -75  Q 1088 -75 661 373  Q 234 822 234 1631  Q 234 2469 665 2931  Q 1097 3394 1784 3394  Q 2450 3394 2872 2941  Q 3294 2488 3294 1666  Q 3294 1616 3291 1516  L 816 1516  Q 847 969 1125 678  Q 1403 388 1819 388  Q 2128 388 2347 550  Q 2566 713 2694 1069  z M 847 1978  L 2700 1978  Q 2663 2397 2488 2606  Q 2219 2931 1791 2931  Q 1403 2931 1139 2672  Q 875 2413 847 1978  z "
       transform="scale(0.015625)" /><path
       id="ArialMT-72-6"
       d="M 416 0  L 416 3319  L 922 3319  L 922 2816  Q 1116 3169 1280 3281  Q 1444 3394 1641 3394  Q 1925 3394 2219 3213  L 2025 2691  Q 1819 2813 1613 2813  Q 1428 2813 1281 2702  Q 1134 2591 1072 2394  Q 978 2094 978 1738  L 978 0  L 416 0  z "
       transform="scale(0.015625)" /><path
       id="ArialMT-6e-9"
       d="M 422 0  L 422 3319  L 928 3319  L 928 2847  Q 1294 3394 1984 3394  Q 2284 3394 2536 3286  Q 2788 3178 2913 3003  Q 3038 2828 3088 2588  Q 3119 2431 3119 2041  L 3119 0  L 2556 0  L 2556 2019  Q 2556 2363 2490 2533  Q 2425 2703 2258 2804  Q 2091 2906 1866 2906  Q 1506 2906 1245 2678  Q 984 2450 984 1813  L 984 0  L 422 0  z "
       transform="scale(0.015625)" /><path
       id="ArialMT-67-4"
       d="M 319 -275  L 866 -356  Q 900 -609 1056 -725  Q 1266 -881 1628 -881  Q 2019 -881 2231 -725  Q 2444 -569 2519 -288  Q 2563 -116 2559 434  Q 2191 0 1641 0  Q 956 0 581 494  Q 206 988 206 1678  Q 206 2153 378 2554  Q 550 2956 876 3175  Q 1203 3394 1644 3394  Q 2231 3394 2613 2919  L 2613 3319  L 3131 3319  L 3131 450  Q 3131 -325 2973 -648  Q 2816 -972 2473 -1159  Q 2131 -1347 1631 -1347  Q 1038 -1347 672 -1080  Q 306 -813 319 -275  z M 784 1719  Q 784 1066 1043 766  Q 1303 466 1694 466  Q 2081 466 2343 764  Q 2606 1063 2606 1700  Q 2606 2309 2336 2618  Q 2066 2928 1684 2928  Q 1309 2928 1046 2623  Q 784 2319 784 1719  z "
       transform="scale(0.015625)" /><path
       id="ArialMT-20-1"
       transform="scale(0.015625)" /><path
       id="ArialMT-61-3"
       d="M 2588 409  Q 2275 144 1986 34  Q 1697 -75 1366 -75  Q 819 -75 525 192  Q 231 459 231 875  Q 231 1119 342 1320  Q 453 1522 633 1644  Q 813 1766 1038 1828  Q 1203 1872 1538 1913  Q 2219 1994 2541 2106  Q 2544 2222 2544 2253  Q 2544 2597 2384 2738  Q 2169 2928 1744 2928  Q 1347 2928 1158 2789  Q 969 2650 878 2297  L 328 2372  Q 403 2725 575 2942  Q 747 3159 1072 3276  Q 1397 3394 1825 3394  Q 2250 3394 2515 3294  Q 2781 3194 2906 3042  Q 3031 2891 3081 2659  Q 3109 2516 3109 2141  L 3109 1391  Q 3109 606 3145 398  Q 3181 191 3288 0  L 2700 0  Q 2613 175 2588 409  z M 2541 1666  Q 2234 1541 1622 1453  Q 1275 1403 1131 1340  Q 988 1278 909 1158  Q 831 1038 831 891  Q 831 666 1001 516  Q 1172 366 1500 366  Q 1825 366 2078 508  Q 2331 650 2450 897  Q 2541 1088 2541 1459  L 2541 1666  z "
       transform="scale(0.015625)" /><path
       id="ArialMT-73-7"
       d="M 197 991  L 753 1078  Q 800 744 1014 566  Q 1228 388 1613 388  Q 2000 388 2187 545  Q 2375 703 2375 916  Q 2375 1106 2209 1216  Q 2094 1291 1634 1406  Q 1016 1563 777 1677  Q 538 1791 414 1992  Q 291 2194 291 2438  Q 291 2659 392 2848  Q 494 3038 669 3163  Q 800 3259 1026 3326  Q 1253 3394 1513 3394  Q 1903 3394 2198 3281  Q 2494 3169 2634 2976  Q 2775 2784 2828 2463  L 2278 2388  Q 2241 2644 2061 2787  Q 1881 2931 1553 2931  Q 1166 2931 1000 2803  Q 834 2675 834 2503  Q 834 2394 903 2306  Q 972 2216 1119 2156  Q 1203 2125 1616 2013  Q 2213 1853 2448 1751  Q 2684 1650 2818 1456  Q 2953 1263 2953 975  Q 2953 694 2789 445  Q 2625 197 2315 61  Q 2006 -75 1616 -75  Q 969 -75 630 194  Q 291 463 197 991  z "
       transform="scale(0.015625)" /><path
       id="ArialMT-79-8"
       d="M 397 -1278  L 334 -750  Q 519 -800 656 -800  Q 844 -800 956 -737  Q 1069 -675 1141 -563  Q 1194 -478 1313 -144  Q 1328 -97 1363 -6  L 103 3319  L 709 3319  L 1400 1397  Q 1534 1031 1641 628  Q 1738 1016 1872 1384  L 2581 3319  L 3144 3319  L 1881 -56  Q 1678 -603 1566 -809  Q 1416 -1088 1222 -1217  Q 1028 -1347 759 -1347  Q 597 -1347 397 -1278  z "
       transform="scale(0.015625)" /><path
       id="ArialMT-28-8"
       d="M 1497 -1347  Q 1031 -759 709 28  Q 388 816 388 1659  Q 388 2403 628 3084  Q 909 3875 1497 4659  L 1900 4659  Q 1522 4009 1400 3731  Q 1209 3300 1100 2831  Q 966 2247 966 1656  Q 966 153 1900 -1347  L 1497 -1347  z "
       transform="scale(0.015625)" /><path
       id="ArialMT-25-3"
       d="M 372 3481  Q 372 3972 619 4315  Q 866 4659 1334 4659  Q 1766 4659 2048 4351  Q 2331 4044 2331 3447  Q 2331 2866 2045 2552  Q 1759 2238 1341 2238  Q 925 2238 648 2547  Q 372 2856 372 3481  z M 1350 4272  Q 1141 4272 1002 4090  Q 863 3909 863 3425  Q 863 2984 1003 2804  Q 1144 2625 1350 2625  Q 1563 2625 1702 2806  Q 1841 2988 1841 3469  Q 1841 3913 1700 4092  Q 1559 4272 1350 4272  z M 1353 -169  L 3859 4659  L 4316 4659  L 1819 -169  L 1353 -169  z M 3334 1075  Q 3334 1569 3581 1911  Q 3828 2253 4300 2253  Q 4731 2253 5014 1945  Q 5297 1638 5297 1041  Q 5297 459 5011 145  Q 4725 -169 4303 -169  Q 3888 -169 3611 142  Q 3334 453 3334 1075  z M 4316 1866  Q 4103 1866 3964 1684  Q 3825 1503 3825 1019  Q 3825 581 3965 400  Q 4106 219 4313 219  Q 4528 219 4667 400  Q 4806 581 4806 1063  Q 4806 1506 4665 1686  Q 4525 1866 4316 1866  z "
       transform="scale(0.015625)" /><path
       id="ArialMT-66-8"
       d="M 556 0  L 556 2881  L 59 2881  L 59 3319  L 556 3319  L 556 3672  Q 556 4006 616 4169  Q 697 4388 901 4523  Q 1106 4659 1475 4659  Q 1713 4659 2000 4603  L 1916 4113  Q 1741 4144 1584 4144  Q 1328 4144 1222 4034  Q 1116 3925 1116 3625  L 1116 3319  L 1763 3319  L 1763 2881  L 1116 2881  L 1116 0  L 556 0  z "
       transform="scale(0.015625)" /><path
       id="ArialMT-6f-1"
       d="M 213 1659  Q 213 2581 725 3025  Q 1153 3394 1769 3394  Q 2453 3394 2887 2945  Q 3322 2497 3322 1706  Q 3322 1066 3130 698  Q 2938 331 2570 128  Q 2203 -75 1769 -75  Q 1072 -75 642 372  Q 213 819 213 1659  z M 791 1659  Q 791 1022 1069 705  Q 1347 388 1769 388  Q 2188 388 2466 706  Q 2744 1025 2744 1678  Q 2744 2294 2464 2611  Q 2184 2928 1769 2928  Q 1347 2928 1069 2612  Q 791 2297 791 1659  z "
       transform="scale(0.015625)" /><path
       id="ArialMT-63-5"
       d="M 2588 1216  L 3141 1144  Q 3050 572 2676 248  Q 2303 -75 1759 -75  Q 1078 -75 664 370  Q 250 816 250 1647  Q 250 2184 428 2587  Q 606 2991 970 3192  Q 1334 3394 1763 3394  Q 2303 3394 2647 3120  Q 2991 2847 3088 2344  L 2541 2259  Q 2463 2594 2264 2762  Q 2066 2931 1784 2931  Q 1359 2931 1093 2626  Q 828 2322 828 1663  Q 828 994 1084 691  Q 1341 388 1753 388  Q 2084 388 2306 591  Q 2528 794 2588 1216  z "
       transform="scale(0.015625)" /><path
       id="ArialMT-75-3"
       d="M 2597 0  L 2597 488  Q 2209 -75 1544 -75  Q 1250 -75 995 37  Q 741 150 617 320  Q 494 491 444 738  Q 409 903 409 1263  L 409 3319  L 972 3319  L 972 1478  Q 972 1038 1006 884  Q 1059 663 1231 536  Q 1403 409 1656 409  Q 1909 409 2131 539  Q 2353 669 2445 892  Q 2538 1116 2538 1541  L 2538 3319  L 3100 3319  L 3100 0  L 2597 0  z "
       transform="scale(0.015625)" /><path
       id="ArialMT-29-5"
       d="M 791 -1347  L 388 -1347  Q 1322 153 1322 1656  Q 1322 2244 1188 2822  Q 1081 3291 891 3722  Q 769 4003 388 4659  L 791 4659  Q 1378 3875 1659 3084  Q 1900 2403 1900 1659  Q 1900 816 1576 28  Q 1253 -759 791 -1347  z "
       transform="scale(0.015625)" /><path
       id="m4c7c6d09d1"
       d="M 0 0  L -3.5 0  "
       style="stroke: #000000; stroke-width: 0.8" /><path
       id="ArialMT-2e-4"
       d="M 581 0  L 581 641  L 1222 641  L 1222 0  L 581 0  z "
       transform="scale(0.015625)" /><path
       id="ArialMT-35-3"
       d="M 266 1200  L 856 1250  Q 922 819 1161 601  Q 1400 384 1738 384  Q 2144 384 2425 690  Q 2706 997 2706 1503  Q 2706 1984 2436 2262  Q 2166 2541 1728 2541  Q 1456 2541 1237 2417  Q 1019 2294 894 2097  L 366 2166  L 809 4519  L 3088 4519  L 3088 3981  L 1259 3981  L 1013 2750  Q 1425 3038 1878 3038  Q 2478 3038 2890 2622  Q 3303 2206 3303 1553  Q 3303 931 2941 478  Q 2500 -78 1738 -78  Q 1113 -78 717 272  Q 322 622 266 1200  z "
       transform="scale(0.015625)" /><path
       id="ArialMT-33-6"
       d="M 269 1209  L 831 1284  Q 928 806 1161 595  Q 1394 384 1728 384  Q 2125 384 2398 659  Q 2672 934 2672 1341  Q 2672 1728 2419 1979  Q 2166 2231 1775 2231  Q 1616 2231 1378 2169  L 1441 2663  Q 1497 2656 1531 2656  Q 1891 2656 2178 2843  Q 2466 3031 2466 3422  Q 2466 3731 2256 3934  Q 2047 4138 1716 4138  Q 1388 4138 1169 3931  Q 950 3725 888 3313  L 325 3413  Q 428 3978 793 4289  Q 1159 4600 1703 4600  Q 2078 4600 2393 4439  Q 2709 4278 2876 4000  Q 3044 3722 3044 3409  Q 3044 3113 2884 2869  Q 2725 2625 2413 2481  Q 2819 2388 3044 2092  Q 3269 1797 3269 1353  Q 3269 753 2831 336  Q 2394 -81 1725 -81  Q 1122 -81 723 278  Q 325 638 269 1209  z "
       transform="scale(0.015625)" /><path
       id="ArialMT-50-5"
       d="M 494 0  L 494 4581  L 2222 4581  Q 2678 4581 2919 4538  Q 3256 4481 3484 4323  Q 3713 4166 3852 3881  Q 3991 3597 3991 3256  Q 3991 2672 3619 2267  Q 3247 1863 2275 1863  L 1100 1863  L 1100 0  L 494 0  z M 1100 2403  L 2284 2403  Q 2872 2403 3119 2622  Q 3366 2841 3366 3238  Q 3366 3525 3220 3729  Q 3075 3934 2838 4000  Q 2684 4041 2272 4041  L 1100 4041  L 1100 2403  z "
       transform="scale(0.015625)" /><path
       id="ArialMT-2d-9"
       d="M 203 1375  L 203 1941  L 1931 1941  L 1931 1375  L 203 1375  z "
       transform="scale(0.015625)" /><path
       id="ArialMT-64-5"
       d="M 2575 0  L 2575 419  Q 2259 -75 1647 -75  Q 1250 -75 917 144  Q 584 363 401 755  Q 219 1147 219 1656  Q 219 2153 384 2558  Q 550 2963 881 3178  Q 1213 3394 1622 3394  Q 1922 3394 2156 3267  Q 2391 3141 2538 2938  L 2538 4581  L 3097 4581  L 3097 0  L 2575 0  z M 797 1656  Q 797 1019 1065 703  Q 1334 388 1700 388  Q 2069 388 2326 689  Q 2584 991 2584 1609  Q 2584 2291 2321 2609  Q 2059 2928 1675 2928  Q 1300 2928 1048 2622  Q 797 2316 797 1656  z "
       transform="scale(0.015625)" /><path
       id="ArialMT-43-4"
       d="M 3763 1606  L 4369 1453  Q 4178 706 3683 314  Q 3188 -78 2472 -78  Q 1731 -78 1267 223  Q 803 525 561 1097  Q 319 1669 319 2325  Q 319 3041 592 3573  Q 866 4106 1370 4382  Q 1875 4659 2481 4659  Q 3169 4659 3637 4309  Q 4106 3959 4291 3325  L 3694 3184  Q 3534 3684 3231 3912  Q 2928 4141 2469 4141  Q 1941 4141 1586 3887  Q 1231 3634 1087 3207  Q 944 2781 944 2328  Q 944 1744 1114 1308  Q 1284 872 1643 656  Q 2003 441 2422 441  Q 2931 441 3284 734  Q 3638 1028 3763 1606  z "
       transform="scale(0.015625)" /><path
       id="ArialMT-56-9"
       d="M 1803 0  L 28 4581  L 684 4581  L 1875 1253  Q 2019 853 2116 503  Q 2222 878 2363 1253  L 3600 4581  L 4219 4581  L 2425 0  L 1803 0  z "
       transform="scale(0.015625)" /><path
       id="ArialMT-3a-7"
       d="M 578 2678  L 578 3319  L 1219 3319  L 1219 2678  L 578 2678  z M 578 0  L 578 641  L 1219 641  L 1219 0  L 578 0  z "
       transform="scale(0.015625)" /><path
       id="ArialMT-76-5"
       d="M 1344 0  L 81 3319  L 675 3319  L 1388 1331  Q 1503 1009 1600 663  Q 1675 925 1809 1294  L 2547 3319  L 3125 3319  L 1869 0  L 1344 0  z "
       transform="scale(0.015625)" /><clipPath
       id="pf4e778d0f3"><rect
         x="57.6"
         y="41.472"
         width="357.12"
         height="266.112"
         id="rect230" /></clipPath></defs><g
     inkscape:label="Layer 1"
     inkscape:groupmode="layer"
     id="layer1"><g
       id="figure_1"
       transform="matrix(1.198395,0,0,1.198395,200.88787,65.007801)"><g
         id="patch_1"><path
           d="M 0,345.6 H 460.8 V 0 H 0 Z"
           style="fill:#ffffff"
           id="path1" /></g><g
         id="axes_1"><g
           id="patch_5" /></g></g></g><g
     id="figure_1-8"
     transform="matrix(1.1015659,0,0,1.1015659,257.04341,70.397926)"><g
       id="patch_1-1"><path
         d="M 0,345.6 H 460.8 V 0 H 0 Z"
         style="fill:#ffffff"
         id="path1-4" /></g><g
       id="axes_1-7"><g
         id="patch_2"><path
           d="M 57.6,307.584 H 414.72 V 41.472 H 57.6 Z"
           style="fill:#ffffff"
           id="path2" /></g><g
         id="PathCollection_1"><defs
           id="defs2"><path
             id="path40"
             d="M 0,5 C 1.326016,5 2.597899,4.473168 3.535534,3.535534 4.473168,2.597899 5,1.326016 5,0 5,-1.326016 4.473168,-2.597899 3.535534,-3.535534 2.597899,-4.473168 1.326016,-5 0,-5 -1.326016,-5 -2.597899,-4.473168 -3.535534,-3.535534 -4.473168,-2.597899 -5,-1.326016 -5,0 -5,1.326016 -4.473168,2.597899 -3.535534,3.535534 -2.597899,4.473168 -1.326016,5 0,5 Z"
             style="stroke:#000000;stroke-opacity:0.7" /></defs><g
           clip-path="url(#pf4e778d0f3)"
           id="g55"><use
             xlink:href="#med6aa5610e"
             x="101.85514"
             y="260.22571"
             style="fill:#0000ff;fill-opacity:0.7;stroke:#000000;stroke-opacity:0.7"
             id="use2" /><use
             xlink:href="#med6aa5610e"
             x="390.36893"
             y="98.102692"
             style="fill:#0000ff;fill-opacity:0.7;stroke:#000000;stroke-opacity:0.7"
             id="use3" /><use
             xlink:href="#med6aa5610e"
             x="74.183533"
             y="272.94547"
             style="fill:#0000ff;fill-opacity:0.7;stroke:#000000;stroke-opacity:0.7"
             id="use4" /><use
             xlink:href="#med6aa5610e"
             x="76.338402"
             y="269.77988"
             style="fill:#0000ff;fill-opacity:0.7;stroke:#000000;stroke-opacity:0.7"
             id="use5" /><use
             xlink:href="#med6aa5610e"
             x="75.026001"
             y="276.3172"
             style="fill:#0000ff;fill-opacity:0.7;stroke:#000000;stroke-opacity:0.7"
             id="use6" /><use
             xlink:href="#med6aa5610e"
             x="78.046471"
             y="278.67886"
             style="fill:#0000ff;fill-opacity:0.7;stroke:#000000;stroke-opacity:0.7"
             id="use7" /><use
             xlink:href="#med6aa5610e"
             x="76.326324"
             y="262.89236"
             style="fill:#0000ff;fill-opacity:0.7;stroke:#000000;stroke-opacity:0.7"
             id="use8" /><use
             xlink:href="#med6aa5610e"
             x="94.560501"
             y="268.70734"
             style="fill:#0000ff;fill-opacity:0.7;stroke:#000000;stroke-opacity:0.7"
             id="use9" /><use
             xlink:href="#med6aa5610e"
             x="102.19013"
             y="260.67914"
             style="fill:#0000ff;fill-opacity:0.7;stroke:#000000;stroke-opacity:0.7"
             id="use10" /><use
             xlink:href="#med6aa5610e"
             x="127.08868"
             y="283.50977"
             style="fill:#0000ff;fill-opacity:0.7;stroke:#000000;stroke-opacity:0.7"
             id="use11" /><use
             xlink:href="#med6aa5610e"
             x="104.41769"
             y="280.86761"
             style="fill:#0000ff;fill-opacity:0.7;stroke:#000000;stroke-opacity:0.7"
             id="use12" /><use
             xlink:href="#med6aa5610e"
             x="83.484734"
             y="270.67337"
             style="fill:#0000ff;fill-opacity:0.7;stroke:#000000;stroke-opacity:0.7"
             id="use13" /><use
             xlink:href="#med6aa5610e"
             x="75.356522"
             y="267.30243"
             style="fill:#0000ff;fill-opacity:0.7;stroke:#000000;stroke-opacity:0.7"
             id="use14" /><use
             xlink:href="#med6aa5610e"
             x="74.566757"
             y="270.56729"
             style="fill:#0000ff;fill-opacity:0.7;stroke:#000000;stroke-opacity:0.7"
             id="use15" /><use
             xlink:href="#med6aa5610e"
             x="76.047043"
             y="270.74173"
             style="fill:#0000ff;fill-opacity:0.7;stroke:#000000;stroke-opacity:0.7"
             id="use16" /><use
             xlink:href="#med6aa5610e"
             x="76.120087"
             y="275.13968"
             style="fill:#0000ff;fill-opacity:0.7;stroke:#000000;stroke-opacity:0.7"
             id="use17" /><use
             xlink:href="#med6aa5610e"
             x="85.251991"
             y="260.74164"
             style="fill:#0000ff;fill-opacity:0.7;stroke:#000000;stroke-opacity:0.7"
             id="use18" /><use
             xlink:href="#med6aa5610e"
             x="176.39755"
             y="271.38602"
             style="fill:#0000ff;fill-opacity:0.7;stroke:#000000;stroke-opacity:0.7"
             id="use19" /><use
             xlink:href="#med6aa5610e"
             x="84.993202"
             y="277.77185"
             style="fill:#0000ff;fill-opacity:0.7;stroke:#000000;stroke-opacity:0.7"
             id="use20" /><use
             xlink:href="#med6aa5610e"
             x="77.458397"
             y="278.56705"
             style="fill:#0000ff;fill-opacity:0.7;stroke:#000000;stroke-opacity:0.7"
             id="use21" /><use
             xlink:href="#med6aa5610e"
             x="77.395996"
             y="275.12411"
             style="fill:#0000ff;fill-opacity:0.7;stroke:#000000;stroke-opacity:0.7"
             id="use22" /><use
             xlink:href="#med6aa5610e"
             x="90.230682"
             y="277.95145"
             style="fill:#0000ff;fill-opacity:0.7;stroke:#000000;stroke-opacity:0.7"
             id="use23" /><use
             xlink:href="#med6aa5610e"
             x="78.495995"
             y="272.0535"
             style="fill:#0000ff;fill-opacity:0.7;stroke:#000000;stroke-opacity:0.7"
             id="use24" /><use
             xlink:href="#med6aa5610e"
             x="73.832726"
             y="275.61261"
             style="fill:#0000ff;fill-opacity:0.7;stroke:#000000;stroke-opacity:0.7"
             id="use25" /><use
             xlink:href="#med6aa5610e"
             x="137.01456"
             y="277.8092"
             style="fill:#0000ff;fill-opacity:0.7;stroke:#000000;stroke-opacity:0.7"
             id="use26" /><use
             xlink:href="#med6aa5610e"
             x="398.48727"
             y="53.568001"
             style="fill:#0000ff;fill-opacity:0.7;stroke:#000000;stroke-opacity:0.7"
             id="use27" /><use
             xlink:href="#med6aa5610e"
             x="205.22649"
             y="195.29276"
             style="fill:#0000ff;fill-opacity:0.7;stroke:#000000;stroke-opacity:0.7"
             id="use28" /><use
             xlink:href="#med6aa5610e"
             x="388.09094"
             y="87.055428"
             style="fill:#0000ff;fill-opacity:0.7;stroke:#000000;stroke-opacity:0.7"
             id="use29" /><use
             xlink:href="#med6aa5610e"
             x="84.724182"
             y="267.19595"
             style="fill:#0000ff;fill-opacity:0.7;stroke:#000000;stroke-opacity:0.7"
             id="use30" /><use
             xlink:href="#med6aa5610e"
             x="74.850105"
             y="267.10068"
             style="fill:#0000ff;fill-opacity:0.7;stroke:#000000;stroke-opacity:0.7"
             id="use31" /><use
             xlink:href="#med6aa5610e"
             x="75.83358"
             y="248.77673"
             style="fill:#0000ff;fill-opacity:0.7;stroke:#000000;stroke-opacity:0.7"
             id="use32" /><use
             xlink:href="#med6aa5610e"
             x="75.707863"
             y="276.17212"
             style="fill:#0000ff;fill-opacity:0.7;stroke:#000000;stroke-opacity:0.7"
             id="use33" /><use
             xlink:href="#med6aa5610e"
             x="79.181129"
             y="265.71957"
             style="fill:#0000ff;fill-opacity:0.7;stroke:#000000;stroke-opacity:0.7"
             id="use34" /><use
             xlink:href="#med6aa5610e"
             x="160.06154"
             y="275.54303"
             style="fill:#0000ff;fill-opacity:0.7;stroke:#000000;stroke-opacity:0.7"
             id="use35" /><use
             xlink:href="#med6aa5610e"
             x="75.493813"
             y="262.53909"
             style="fill:#0000ff;fill-opacity:0.7;stroke:#000000;stroke-opacity:0.7"
             id="use36" /><use
             xlink:href="#med6aa5610e"
             x="365.50681"
             y="135.17567"
             style="fill:#0000ff;fill-opacity:0.7;stroke:#000000;stroke-opacity:0.7"
             id="use37" /><use
             xlink:href="#med6aa5610e"
             x="140.43637"
             y="289.46292"
             style="fill:#0000ff;fill-opacity:0.7;stroke:#000000;stroke-opacity:0.7"
             id="use38" /><use
             xlink:href="#med6aa5610e"
             x="88.094879"
             y="261.50662"
             style="fill:#0000ff;fill-opacity:0.7;stroke:#000000;stroke-opacity:0.7"
             id="use39" /><use
             xlink:href="#med6aa5610e"
             x="128.65414"
             y="283.26566"
             style="fill:#0000ff;fill-opacity:0.7;stroke:#000000;stroke-opacity:0.7"
             id="use40" /><use
             xlink:href="#med6aa5610e"
             x="79.401787"
             y="246.38443"
             style="fill:#0000ff;fill-opacity:0.7;stroke:#000000;stroke-opacity:0.7"
             id="use41" /><use
             xlink:href="#med6aa5610e"
             x="80.592186"
             y="249.32043"
             style="fill:#0000ff;fill-opacity:0.7;stroke:#000000;stroke-opacity:0.7"
             id="use42" /><use
             xlink:href="#med6aa5610e"
             x="78.046005"
             y="262.82602"
             style="fill:#0000ff;fill-opacity:0.7;stroke:#000000;stroke-opacity:0.7"
             id="use43" /><use
             xlink:href="#med6aa5610e"
             x="74.571686"
             y="252.78433"
             style="fill:#0000ff;fill-opacity:0.7;stroke:#000000;stroke-opacity:0.7"
             id="use44" /><use
             xlink:href="#med6aa5610e"
             x="112.7418"
             y="262.21753"
             style="fill:#0000ff;fill-opacity:0.7;stroke:#000000;stroke-opacity:0.7"
             id="use45" /><use
             xlink:href="#med6aa5610e"
             x="88.603058"
             y="242.24913"
             style="fill:#0000ff;fill-opacity:0.7;stroke:#000000;stroke-opacity:0.7"
             id="use46" /><use
             xlink:href="#med6aa5610e"
             x="77.996765"
             y="290.55603"
             style="fill:#0000ff;fill-opacity:0.7;stroke:#000000;stroke-opacity:0.7"
             id="use47" /><use
             xlink:href="#med6aa5610e"
             x="357.61618"
             y="227.34756"
             style="fill:#0000ff;fill-opacity:0.7;stroke:#000000;stroke-opacity:0.7"
             id="use48" /><use
             xlink:href="#med6aa5610e"
             x="215.98802"
             y="257.32358"
             style="fill:#0000ff;fill-opacity:0.7;stroke:#000000;stroke-opacity:0.7"
             id="use49" /><use
             xlink:href="#med6aa5610e"
             x="233.0706"
             y="291.62122"
             style="fill:#0000ff;fill-opacity:0.7;stroke:#000000;stroke-opacity:0.7"
             id="use50" /><use
             xlink:href="#med6aa5610e"
             x="73.946243"
             y="262.32355"
             style="fill:#0000ff;fill-opacity:0.7;stroke:#000000;stroke-opacity:0.7"
             id="use51" /><use
             xlink:href="#med6aa5610e"
             x="234.05449"
             y="257.36401"
             style="fill:#0000ff;fill-opacity:0.7;stroke:#000000;stroke-opacity:0.7"
             id="use52" /><use
             xlink:href="#med6aa5610e"
             x="83.305832"
             y="253.73712"
             style="fill:#0000ff;fill-opacity:0.7;stroke:#000000;stroke-opacity:0.7"
             id="use53" /><use
             xlink:href="#med6aa5610e"
             x="91.255966"
             y="295.48801"
             style="fill:#0000ff;fill-opacity:0.7;stroke:#000000;stroke-opacity:0.7"
             id="use54" /><use
             xlink:href="#med6aa5610e"
             x="388.04266"
             y="63.073063"
             style="fill:#0000ff;fill-opacity:0.7;stroke:#000000;stroke-opacity:0.7"
             id="use55" /></g></g><g
         id="matplotlib.axis_1"><g
           id="xtick_1"><g
             id="line2d_1"><defs
               id="defs55"><path
                 id="path41"
                 d="M 0,0 V 3.5"
                 style="stroke:#000000;stroke-width:0.8" /></defs><g
               id="g56"><use
                 xlink:href="#m6ad2635394"
                 x="66.87793"
                 y="307.58401"
                 style="stroke:#000000;stroke-width:0.8"
                 id="use56" /></g></g><g
             id="text_1"><!-- 0 --><g
               transform="matrix(0.18,0,0,-0.18,61.873083,327.46806)"
               id="g57"><defs
                 id="defs56"><path
                   id="path42"
                   d="m 266,2259 q 0,813 167,1308 167,496 496,764 330,269 830,269 369,0 647,-149 278,-148 459,-428 182,-279 285,-681 103,-401 103,-1083 0,-806 -166,-1301 Q 2922,463 2592,192 2263,-78 1759,-78 1097,-78 719,397 266,969 266,2259 Z m 578,0 q 0,-1128 264,-1502 264,-373 651,-373 388,0 652,375 264,375 264,1500 0,1132 -264,1503 -264,372 -658,372 -387,0 -619,-328 Q 844,3388 844,2259 Z"
                   transform="scale(0.015625)" /></defs><use
                 xlink:href="#ArialMT-30-1"
                 id="use57" /></g></g></g><g
           id="xtick_2"><g
             id="line2d_2"><g
               id="g58"><use
                 xlink:href="#m6ad2635394"
                 x="133.90395"
                 y="307.58401"
                 style="stroke:#000000;stroke-width:0.8"
                 id="use58" /></g></g><g
             id="text_2"><!-- 20 --><g
               transform="matrix(0.18,0,0,-0.18,123.89425,327.46806)"
               id="g60"><defs
                 id="defs58"><path
                   id="path43"
                   d="M 3222,541 V 0 H 194 q -6,203 65,391 116,309 370,609 255,300 737,694 747,612 1009,970 263,358 263,677 0,334 -240,563 -239,230 -623,230 -406,0 -650,-244 -244,-243 -247,-674 l -578,59 q 59,647 446,986 388,339 1042,339 659,0 1043,-366 385,-365 385,-906 0,-275 -113,-541 Q 2991,2522 2730,2228 2469,1934 1863,1422 1356,997 1212,845 1069,694 975,541 Z"
                   transform="scale(0.015625)" /></defs><use
                 xlink:href="#ArialMT-32-3"
                 id="use59" /><use
                 xlink:href="#ArialMT-30-1"
                 x="55.615234"
                 id="use60" /></g></g></g><g
           id="xtick_3"><g
             id="line2d_3"><g
               id="g61"><use
                 xlink:href="#m6ad2635394"
                 x="200.92995"
                 y="307.58401"
                 style="stroke:#000000;stroke-width:0.8"
                 id="use61" /></g></g><g
             id="text_3"><!-- 40 --><g
               transform="matrix(0.18,0,0,-0.18,190.92026,327.46806)"
               id="g63"><defs
                 id="defs61"><path
                   id="path44"
                   d="M 2069,0 V 1097 H 81 v 516 l 2091,2968 h 459 V 1613 h 619 V 1097 H 2631 V 0 Z m 0,1613 V 3678 L 634,1613 Z"
                   transform="scale(0.015625)" /></defs><use
                 xlink:href="#ArialMT-34-8"
                 id="use62" /><use
                 xlink:href="#ArialMT-30-1"
                 x="55.615234"
                 id="use63" /></g></g></g><g
           id="xtick_4"><g
             id="line2d_4"><g
               id="g64"><use
                 xlink:href="#m6ad2635394"
                 x="267.95596"
                 y="307.58401"
                 style="stroke:#000000;stroke-width:0.8"
                 id="use64" /></g></g><g
             id="text_4"><!-- 60 --><g
               transform="matrix(0.18,0,0,-0.18,257.94628,327.46806)"
               id="g66"><defs
                 id="defs64"><path
                   id="path45"
                   d="m 3184,3459 -559,-43 q -75,331 -212,481 -229,241 -563,241 -269,0 -472,-150 -265,-194 -419,-566 -153,-372 -159,-1059 203,309 497,459 294,150 616,150 562,0 957,-414 396,-414 396,-1070 0,-432 -186,-802 Q 2894,316 2569,119 2244,-78 1831,-78 1128,-78 684,439 241,956 241,2144 q 0,1328 490,1931 428,525 1153,525 541,0 886,-303 346,-303 414,-838 z M 888,1484 q 0,-290 123,-556 123,-265 345,-405 222,-139 466,-139 356,0 612,287 257,288 257,782 0,475 -254,748 -253,274 -637,274 -381,0 -647,-274 -265,-273 -265,-717 z"
                   transform="scale(0.015625)" /></defs><use
                 xlink:href="#ArialMT-36-4"
                 id="use65" /><use
                 xlink:href="#ArialMT-30-1"
                 x="55.615234"
                 id="use66" /></g></g></g><g
           id="xtick_5"><g
             id="line2d_5"><g
               id="g67"><use
                 xlink:href="#m6ad2635394"
                 x="334.98196"
                 y="307.58401"
                 style="stroke:#000000;stroke-width:0.8"
                 id="use67" /></g></g><g
             id="text_5"><!-- 80 --><g
               transform="matrix(0.18,0,0,-0.18,324.97229,327.46806)"
               id="g69"><defs
                 id="defs67"><path
                   id="path46"
                   d="m 1131,2484 q -350,129 -519,366 -168,238 -168,569 0,500 359,840 360,341 956,341 600,0 966,-349 366,-348 366,-848 0,-319 -168,-555 -167,-235 -507,-364 422,-137 642,-444 220,-306 220,-731 0,-587 -416,-987 Q 2447,-78 1769,-78 1091,-78 675,323 259,725 259,1325 q 0,447 227,748 227,302 645,411 z m -112,954 q 0,-325 209,-532 210,-206 544,-206 325,0 533,204 208,205 208,502 0,310 -215,521 -214,211 -532,211 -322,0 -535,-207 -212,-206 -212,-493 z M 838,1322 q 0,-241 114,-466 114,-225 339,-349 225,-123 484,-123 403,0 665,259 263,260 263,660 0,406 -270,672 -270,266 -677,266 -397,0 -658,-263 -260,-262 -260,-656 z"
                   transform="scale(0.015625)" /></defs><use
                 xlink:href="#ArialMT-38-8"
                 id="use68" /><use
                 xlink:href="#ArialMT-30-1"
                 x="55.615234"
                 id="use69" /></g></g></g><g
           id="xtick_6"><g
             id="line2d_6"><g
               id="g70"><use
                 xlink:href="#m6ad2635394"
                 x="402.008"
                 y="307.58401"
                 style="stroke:#000000;stroke-width:0.8"
                 id="use70" /></g></g><g
             id="text_6"><!-- 100 --><g
               transform="matrix(0.18,0,0,-0.18,386.99345,327.46806)"
               id="g73"><defs
                 id="defs70"><path
                   id="path47"
                   d="M 2384,0 H 1822 V 3584 Q 1619,3391 1289,3197 959,3003 697,2906 v 544 q 472,222 825,537 353,316 500,613 h 362 z"
                   transform="scale(0.015625)" /></defs><use
                 xlink:href="#ArialMT-31-0"
                 id="use71" /><use
                 xlink:href="#ArialMT-30-1"
                 x="55.615234"
                 id="use72" /><use
                 xlink:href="#ArialMT-30-1"
                 x="111.23047"
                 id="use73" /></g></g></g><g
           id="text_7"><!-- Filtering assay (% flocculating) --><g
             transform="matrix(0.22,0,0,-0.22,87.001719,351.06087)"
             id="g105"><defs
               id="defs73"><path
                 id="path48"
                 d="M 525,0 V 4581 H 3616 V 4041 H 1131 V 2622 H 3281 V 2081 H 1131 V 0 Z"
                 transform="scale(0.015625)" /><path
                 id="path49"
                 d="m 425,3934 v 647 H 988 V 3934 Z M 425,0 V 3319 H 988 V 0 Z"
                 transform="scale(0.015625)" /><path
                 id="path50"
                 d="M 409,0 V 4581 H 972 V 0 Z"
                 transform="scale(0.015625)" /><path
                 id="path51"
                 d="M 1650,503 1731,6 Q 1494,-44 1306,-44 1000,-44 831,53 663,150 594,308 525,466 525,972 V 2881 H 113 v 438 h 412 v 822 l 559,337 V 3319 h 566 V 2881 H 1084 V 941 q 0,-241 30,-310 30,-68 97,-109 67,-41 192,-41 94,0 247,22 z"
                 transform="scale(0.015625)" /><path
                 id="path52"
                 d="m 2694,1069 581,-72 Q 3138,488 2766,206 2394,-75 1816,-75 1088,-75 661,373 234,822 234,1631 q 0,838 431,1300 432,463 1119,463 666,0 1088,-453 422,-453 422,-1275 0,-50 -3,-150 H 816 q 31,-547 309,-838 278,-290 694,-290 309,0 528,162 219,163 347,519 z M 847,1978 h 1853 q -37,419 -212,628 -269,325 -697,325 -388,0 -652,-259 -264,-259 -292,-694 z"
                 transform="scale(0.015625)" /><path
                 id="path53"
                 d="m 416,0 v 3319 h 506 v -503 q 194,353 358,465 164,113 361,113 284,0 578,-181 l -194,-522 q -206,122 -412,122 -185,0 -332,-111 -147,-111 -209,-308 -94,-300 -94,-656 V 0 Z"
                 transform="scale(0.015625)" /><path
                 id="path54"
                 d="m 422,0 v 3319 h 506 v -472 q 366,547 1056,547 300,0 552,-108 252,-108 377,-283 125,-175 175,-415 31,-157 31,-547 V 0 h -563 v 2019 q 0,344 -66,514 -65,170 -232,271 -167,102 -392,102 -360,0 -621,-228 Q 984,2450 984,1813 V 0 Z"
                 transform="scale(0.015625)" /><path
                 id="path55"
                 d="m 319,-275 547,-81 q 34,-253 190,-369 210,-156 572,-156 391,0 603,156 213,156 288,437 44,172 40,722 Q 2191,0 1641,0 956,0 581,494 206,988 206,1678 q 0,475 172,876 172,402 498,621 327,219 768,219 587,0 969,-475 v 400 h 518 V 450 q 0,-775 -158,-1098 -157,-324 -500,-511 -342,-188 -842,-188 -593,0 -959,267 -366,267 -353,805 z m 465,1994 q 0,-653 259,-953 260,-300 651,-300 387,0 649,298 263,299 263,936 0,609 -270,918 -270,310 -652,310 -375,0 -638,-305 -262,-304 -262,-904 z"
                 transform="scale(0.015625)" /><path
                 id="path56"
                 transform="scale(0.015625)"
                 d="" /><path
                 id="path57"
                 d="M 2588,409 Q 2275,144 1986,34 1697,-75 1366,-75 819,-75 525,192 231,459 231,875 q 0,244 111,445 111,202 291,324 180,122 405,184 165,44 500,85 681,81 1003,193 3,116 3,147 0,344 -160,485 -215,190 -640,190 -397,0 -586,-139 -189,-139 -280,-492 l -550,75 q 75,353 247,570 172,217 497,334 325,118 753,118 425,0 690,-100 266,-100 391,-252 125,-151 175,-383 28,-143 28,-518 v -750 q 0,-785 36,-993 36,-207 143,-398 h -588 q -87,175 -112,409 z m -47,1257 q -307,-125 -919,-213 -347,-50 -491,-113 -143,-62 -222,-182 -78,-120 -78,-267 0,-225 170,-375 171,-150 499,-150 325,0 578,142 253,142 372,389 91,191 91,562 z"
                 transform="scale(0.015625)" /><path
                 id="path58"
                 d="m 197,991 556,87 q 47,-334 261,-512 214,-178 599,-178 387,0 574,157 188,158 188,371 0,190 -166,300 -115,75 -575,190 -618,157 -857,271 -239,114 -363,315 -123,202 -123,446 0,221 101,410 102,190 277,315 131,96 357,163 227,68 487,68 390,0 685,-113 296,-112 436,-305 141,-192 194,-513 l -550,-75 q -37,256 -217,399 -180,144 -508,144 -387,0 -553,-128 -166,-128 -166,-300 0,-109 69,-197 69,-90 216,-150 84,-31 497,-143 597,-160 832,-262 236,-101 370,-295 135,-193 135,-481 0,-281 -164,-530 Q 2625,197 2315,61 2006,-75 1616,-75 969,-75 630,194 291,463 197,991 Z"
                 transform="scale(0.015625)" /><path
                 id="path59"
                 d="m 397,-1278 -63,528 q 185,-50 322,-50 188,0 300,63 113,62 185,174 53,85 172,419 15,47 50,138 L 103,3319 h 606 l 691,-1922 q 134,-366 241,-769 97,388 231,756 l 709,1935 h 563 L 1881,-56 q -203,-547 -315,-753 -150,-279 -344,-408 -194,-130 -463,-130 -162,0 -362,69 z"
                 transform="scale(0.015625)" /><path
                 id="path60"
                 d="M 1497,-1347 Q 1031,-759 709,28 388,816 388,1659 q 0,744 240,1425 281,791 869,1575 h 403 Q 1522,4009 1400,3731 1209,3300 1100,2831 966,2247 966,1656 966,153 1900,-1347 Z"
                 transform="scale(0.015625)" /><path
                 id="path61"
                 d="m 372,3481 q 0,491 247,834 247,344 715,344 432,0 714,-308 283,-307 283,-904 0,-581 -286,-895 -286,-314 -704,-314 -416,0 -693,309 -276,309 -276,934 z m 978,791 q -209,0 -348,-182 -139,-181 -139,-665 0,-441 140,-621 141,-179 347,-179 213,0 352,181 139,182 139,663 0,444 -141,623 -141,180 -350,180 z m 3,-4441 2506,4828 h 457 L 1819,-169 Z m 1981,1244 q 0,494 247,836 247,342 719,342 431,0 714,-308 283,-307 283,-904 0,-582 -286,-896 -286,-314 -708,-314 -415,0 -692,311 -277,311 -277,933 z m 982,791 q -213,0 -352,-182 -139,-181 -139,-665 0,-438 140,-619 141,-181 348,-181 215,0 354,181 139,181 139,663 0,443 -141,623 -140,180 -349,180 z"
                 transform="scale(0.015625)" /><path
                 id="path62"
                 d="M 556,0 V 2881 H 59 v 438 h 497 v 353 q 0,334 60,497 81,219 285,354 205,136 574,136 238,0 525,-56 l -84,-490 q -175,31 -332,31 -256,0 -362,-110 -106,-109 -106,-409 v -306 h 647 V 2881 H 1116 V 0 Z"
                 transform="scale(0.015625)" /><path
                 id="path63"
                 d="m 213,1659 q 0,922 512,1366 428,369 1044,369 684,0 1118,-449 435,-448 435,-1239 0,-640 -192,-1008 Q 2938,331 2570,128 2203,-75 1769,-75 1072,-75 642,372 213,819 213,1659 Z m 578,0 q 0,-637 278,-954 278,-317 700,-317 419,0 697,318 278,319 278,972 0,616 -280,933 -280,317 -695,317 -422,0 -700,-316 -278,-315 -278,-953 z"
                 transform="scale(0.015625)" /><path
                 id="path64"
                 d="m 2588,1216 553,-72 Q 3050,572 2676,248 2303,-75 1759,-75 1078,-75 664,370 250,816 250,1647 q 0,537 178,940 178,404 542,605 364,202 793,202 540,0 884,-274 344,-273 441,-776 l -547,-85 q -78,335 -277,503 -198,169 -480,169 -425,0 -691,-305 -265,-304 -265,-963 0,-669 256,-972 257,-303 669,-303 331,0 553,203 222,203 282,625 z"
                 transform="scale(0.015625)" /><path
                 id="path65"
                 d="M 2597,0 V 488 Q 2209,-75 1544,-75 1250,-75 995,37 741,150 617,320 494,491 444,738 409,903 409,1263 V 3319 H 972 V 1478 q 0,-440 34,-594 53,-221 225,-348 172,-127 425,-127 253,0 475,130 222,130 314,353 93,224 93,649 v 1778 h 562 V 0 Z"
                 transform="scale(0.015625)" /><path
                 id="path66"
                 d="M 791,-1347 H 388 q 934,1500 934,3003 0,588 -134,1166 -107,469 -297,900 -122,281 -503,937 h 403 q 587,-784 868,-1575 241,-681 241,-1425 0,-843 -324,-1631 -323,-787 -785,-1375 z"
                 transform="scale(0.015625)" /></defs><use
               xlink:href="#ArialMT-46-4"
               id="use74" /><use
               xlink:href="#ArialMT-69-6"
               x="61.083984"
               id="use75" /><use
               xlink:href="#ArialMT-6c-0"
               x="83.300781"
               id="use76" /><use
               xlink:href="#ArialMT-74-3"
               x="105.51758"
               id="use77" /><use
               xlink:href="#ArialMT-65-2"
               x="133.30078"
               id="use78" /><use
               xlink:href="#ArialMT-72-6"
               x="188.91602"
               id="use79" /><use
               xlink:href="#ArialMT-69-6"
               x="222.2168"
               id="use80" /><use
               xlink:href="#ArialMT-6e-9"
               x="244.43359"
               id="use81" /><use
               xlink:href="#ArialMT-67-4"
               x="300.04883"
               id="use82" /><use
               xlink:href="#ArialMT-20-1"
               x="355.66406"
               id="use83" /><use
               xlink:href="#ArialMT-61-3"
               x="383.44727"
               id="use84" /><use
               xlink:href="#ArialMT-73-7"
               x="439.0625"
               id="use85" /><use
               xlink:href="#ArialMT-73-7"
               x="489.0625"
               id="use86" /><use
               xlink:href="#ArialMT-61-3"
               x="539.0625"
               id="use87" /><use
               xlink:href="#ArialMT-79-8"
               x="594.67773"
               id="use88" /><use
               xlink:href="#ArialMT-20-1"
               x="644.67773"
               id="use89" /><use
               xlink:href="#ArialMT-28-8"
               x="672.46094"
               id="use90" /><use
               xlink:href="#ArialMT-25-3"
               x="705.76172"
               id="use91" /><use
               xlink:href="#ArialMT-20-1"
               x="794.67773"
               id="use92" /><use
               xlink:href="#ArialMT-66-8"
               x="822.46094"
               id="use93" /><use
               xlink:href="#ArialMT-6c-0"
               x="850.24414"
               id="use94" /><use
               xlink:href="#ArialMT-6f-1"
               x="872.46094"
               id="use95" /><use
               xlink:href="#ArialMT-63-5"
               x="928.07617"
               id="use96" /><use
               xlink:href="#ArialMT-63-5"
               x="978.07617"
               id="use97" /><use
               xlink:href="#ArialMT-75-3"
               x="1028.0762"
               id="use98" /><use
               xlink:href="#ArialMT-6c-0"
               x="1083.6914"
               id="use99" /><use
               xlink:href="#ArialMT-61-3"
               x="1105.9082"
               id="use100" /><use
               xlink:href="#ArialMT-74-3"
               x="1161.5234"
               id="use101" /><use
               xlink:href="#ArialMT-69-6"
               x="1189.3066"
               id="use102" /><use
               xlink:href="#ArialMT-6e-9"
               x="1211.5234"
               id="use103" /><use
               xlink:href="#ArialMT-67-4"
               x="1267.1387"
               id="use104" /><use
               xlink:href="#ArialMT-29-5"
               x="1322.7539"
               id="use105" /></g></g></g><g
         id="matplotlib.axis_2"><g
           id="ytick_1"><g
             id="line2d_7"><defs
               id="defs105"><path
                 id="path67"
                 d="M 0,0 H -3.5"
                 style="stroke:#000000;stroke-width:0.8" /></defs><g
               id="g106"><use
                 xlink:href="#m4c7c6d09d1"
                 x="57.599998"
                 y="288.9314"
                 style="stroke:#000000;stroke-width:0.8"
                 id="use106" /></g></g><g
             id="text_8"><!-- 0.10 --><g
               transform="matrix(0.18,0,0,-0.18,15.570312,295.37343)"
               id="g110"><defs
                 id="defs106"><path
                   id="path68"
                   d="m 581,0 v 641 h 641 V 0 Z"
                   transform="scale(0.015625)" /></defs><use
                 xlink:href="#ArialMT-30-1"
                 id="use107" /><use
                 xlink:href="#ArialMT-2e-4"
                 x="55.615234"
                 id="use108" /><use
                 xlink:href="#ArialMT-31-0"
                 x="83.398438"
                 id="use109" /><use
                 xlink:href="#ArialMT-30-1"
                 x="139.01367"
                 id="use110" /></g></g></g><g
           id="ytick_2"><g
             id="line2d_8"><g
               id="g111"><use
                 xlink:href="#m4c7c6d09d1"
                 x="57.599998"
                 y="243.37886"
                 style="stroke:#000000;stroke-width:0.8"
                 id="use111" /></g></g><g
             id="text_9"><!-- 0.15 --><g
               transform="matrix(0.18,0,0,-0.18,15.570312,249.82088)"
               id="g115"><defs
                 id="defs111"><path
                   id="path69"
                   d="m 266,1200 590,50 q 66,-431 305,-649 239,-217 577,-217 406,0 687,306 281,307 281,813 0,481 -270,759 -270,279 -708,279 -272,0 -491,-124 -218,-123 -343,-320 l -528,69 443,2353 H 3088 V 3981 H 1259 L 1013,2750 q 412,288 865,288 600,0 1012,-416 413,-416 413,-1069 Q 3303,931 2941,478 2500,-78 1738,-78 1113,-78 717,272 322,622 266,1200 Z"
                   transform="scale(0.015625)" /></defs><use
                 xlink:href="#ArialMT-30-1"
                 id="use112" /><use
                 xlink:href="#ArialMT-2e-4"
                 x="55.615234"
                 id="use113" /><use
                 xlink:href="#ArialMT-31-0"
                 x="83.398438"
                 id="use114" /><use
                 xlink:href="#ArialMT-35-3"
                 x="139.01367"
                 id="use115" /></g></g></g><g
           id="ytick_3"><g
             id="line2d_9"><g
               id="g116"><use
                 xlink:href="#m4c7c6d09d1"
                 x="57.599998"
                 y="197.82631"
                 style="stroke:#000000;stroke-width:0.8"
                 id="use116" /></g></g><g
             id="text_10"><!-- 0.20 --><g
               transform="matrix(0.18,0,0,-0.18,15.570312,204.26834)"
               id="g120"><use
                 xlink:href="#ArialMT-30-1"
                 id="use117" /><use
                 xlink:href="#ArialMT-2e-4"
                 x="55.615234"
                 id="use118" /><use
                 xlink:href="#ArialMT-32-3"
                 x="83.398438"
                 id="use119" /><use
                 xlink:href="#ArialMT-30-1"
                 x="139.01367"
                 id="use120" /></g></g></g><g
           id="ytick_4"><g
             id="line2d_10"><g
               id="g121"><use
                 xlink:href="#m4c7c6d09d1"
                 x="57.599998"
                 y="152.27376"
                 style="stroke:#000000;stroke-width:0.8"
                 id="use121" /></g></g><g
             id="text_11"><!-- 0.25 --><g
               transform="matrix(0.18,0,0,-0.18,15.570312,158.71579)"
               id="g125"><use
                 xlink:href="#ArialMT-30-1"
                 id="use122" /><use
                 xlink:href="#ArialMT-2e-4"
                 x="55.615234"
                 id="use123" /><use
                 xlink:href="#ArialMT-32-3"
                 x="83.398438"
                 id="use124" /><use
                 xlink:href="#ArialMT-35-3"
                 x="139.01367"
                 id="use125" /></g></g></g><g
           id="ytick_5"><g
             id="line2d_11"><g
               id="g126"><use
                 xlink:href="#m4c7c6d09d1"
                 x="57.599998"
                 y="106.72121"
                 style="stroke:#000000;stroke-width:0.8"
                 id="use126" /></g></g><g
             id="text_12"><!-- 0.30 --><g
               transform="matrix(0.18,0,0,-0.18,15.570312,113.16324)"
               id="g130"><defs
                 id="defs126"><path
                   id="path70"
                   d="m 269,1209 562,75 q 97,-478 330,-689 233,-211 567,-211 397,0 670,275 274,275 274,682 0,387 -253,638 -253,252 -644,252 -159,0 -397,-62 l 63,494 q 56,-7 90,-7 360,0 647,187 288,188 288,579 0,309 -210,512 -209,204 -540,204 -328,0 -547,-207 -219,-206 -281,-618 l -563,100 q 103,565 468,876 366,311 910,311 375,0 690,-161 316,-161 483,-439 168,-278 168,-591 0,-296 -160,-540 -159,-244 -471,-388 406,-93 631,-389 225,-295 225,-739 Q 3269,753 2831,336 2394,-81 1725,-81 1122,-81 723,278 325,638 269,1209 Z"
                   transform="scale(0.015625)" /></defs><use
                 xlink:href="#ArialMT-30-1"
                 id="use127" /><use
                 xlink:href="#ArialMT-2e-4"
                 x="55.615234"
                 id="use128" /><use
                 xlink:href="#ArialMT-33-6"
                 x="83.398438"
                 id="use129" /><use
                 xlink:href="#ArialMT-30-1"
                 x="139.01367"
                 id="use130" /></g></g></g><g
           id="ytick_6"><g
             id="line2d_12"><g
               id="g131"><use
                 xlink:href="#m4c7c6d09d1"
                 x="57.599998"
                 y="61.168655"
                 style="stroke:#000000;stroke-width:0.8"
                 id="use131" /></g></g><g
             id="text_13"><!-- 0.35 --><g
               transform="matrix(0.18,0,0,-0.18,15.570312,67.610688)"
               id="g135"><use
                 xlink:href="#ArialMT-30-1"
                 id="use132" /><use
                 xlink:href="#ArialMT-2e-4"
                 x="55.615234"
                 id="use133" /><use
                 xlink:href="#ArialMT-33-6"
                 x="83.398438"
                 id="use134" /><use
                 xlink:href="#ArialMT-35-3"
                 x="139.01367"
                 id="use135" /></g></g></g><g
           id="text_14"><!-- Plate-reader assay (CV) --><g
             transform="matrix(0,-0.22,-0.22,0,6.94,292.50816)"
             id="g158"><defs
               id="defs135"><path
                 id="path71"
                 d="m 494,0 v 4581 h 1728 q 456,0 697,-43 337,-57 565,-215 229,-157 368,-442 139,-284 139,-625 0,-584 -372,-989 -372,-404 -1344,-404 H 1100 V 0 Z m 606,2403 h 1184 q 588,0 835,219 247,219 247,616 0,287 -146,491 -145,205 -382,271 -154,41 -566,41 H 1100 Z"
                 transform="scale(0.015625)" /><path
                 id="path72"
                 d="m 203,1375 v 566 h 1728 v -566 z"
                 transform="scale(0.015625)" /><path
                 id="path73"
                 d="M 2575,0 V 419 Q 2259,-75 1647,-75 1250,-75 917,144 584,363 401,755 q -182,392 -182,901 0,497 165,902 166,405 497,620 332,216 741,216 300,0 534,-127 235,-126 382,-329 v 1643 h 559 V 0 Z M 797,1656 q 0,-637 268,-953 269,-315 635,-315 369,0 626,301 258,302 258,920 0,682 -263,1000 -262,319 -646,319 -375,0 -627,-306 -251,-306 -251,-966 z"
                 transform="scale(0.015625)" /><path
                 id="path74"
                 d="m 3763,1606 606,-153 Q 4178,706 3683,314 3188,-78 2472,-78 1731,-78 1267,223 803,525 561,1097 319,1669 319,2325 q 0,716 273,1248 274,533 778,809 505,277 1111,277 688,0 1156,-350 469,-350 654,-984 l -597,-141 q -160,500 -463,728 -303,229 -762,229 -528,0 -883,-254 -355,-253 -499,-680 -143,-426 -143,-879 0,-584 170,-1020 170,-436 529,-652 360,-215 779,-215 509,0 862,293 354,294 479,872 z"
                 transform="scale(0.015625)" /><path
                 id="path75"
                 d="M 1803,0 28,4581 H 684 L 1875,1253 q 144,-400 241,-750 106,375 247,750 l 1237,3328 h 619 L 2425,0 Z"
                 transform="scale(0.015625)" /></defs><use
               xlink:href="#ArialMT-50-5"
               id="use136" /><use
               xlink:href="#ArialMT-6c-0"
               x="66.699219"
               id="use137" /><use
               xlink:href="#ArialMT-61-3"
               x="88.916016"
               id="use138" /><use
               xlink:href="#ArialMT-74-3"
               x="144.53125"
               id="use139" /><use
               xlink:href="#ArialMT-65-2"
               x="172.31445"
               id="use140" /><use
               xlink:href="#ArialMT-2d-9"
               x="227.92969"
               id="use141" /><use
               xlink:href="#ArialMT-72-6"
               x="261.23047"
               id="use142" /><use
               xlink:href="#ArialMT-65-2"
               x="294.53125"
               id="use143" /><use
               xlink:href="#ArialMT-61-3"
               x="350.14648"
               id="use144" /><use
               xlink:href="#ArialMT-64-5"
               x="405.76172"
               id="use145" /><use
               xlink:href="#ArialMT-65-2"
               x="461.37695"
               id="use146" /><use
               xlink:href="#ArialMT-72-6"
               x="516.99219"
               id="use147" /><use
               xlink:href="#ArialMT-20-1"
               x="550.29297"
               id="use148" /><use
               xlink:href="#ArialMT-61-3"
               x="578.07617"
               id="use149" /><use
               xlink:href="#ArialMT-73-7"
               x="633.69141"
               id="use150" /><use
               xlink:href="#ArialMT-73-7"
               x="683.69141"
               id="use151" /><use
               xlink:href="#ArialMT-61-3"
               x="733.69141"
               id="use152" /><use
               xlink:href="#ArialMT-79-8"
               x="789.30664"
               id="use153" /><use
               xlink:href="#ArialMT-20-1"
               x="839.30664"
               id="use154" /><use
               xlink:href="#ArialMT-28-8"
               x="867.08984"
               id="use155" /><use
               xlink:href="#ArialMT-43-4"
               x="900.39062"
               id="use156" /><use
               xlink:href="#ArialMT-56-9"
               x="972.60742"
               id="use157" /><use
               xlink:href="#ArialMT-29-5"
               x="1039.3066"
               id="use158" /></g></g></g><g
         id="patch_3"><path
           d="M 57.6,307.584 V 41.472"
           style="fill:none;stroke:#000000;stroke-width:0.8;stroke-linecap:square;stroke-linejoin:miter"
           id="path158" /></g><g
         id="patch_4"><path
           d="M 414.72,307.584 V 41.472"
           style="fill:none;stroke:#000000;stroke-width:0.8;stroke-linecap:square;stroke-linejoin:miter"
           id="path159" /></g><g
         id="patch_5-1"><path
           d="M 57.6,307.584 H 414.72"
           style="fill:none;stroke:#000000;stroke-width:0.8;stroke-linecap:square;stroke-linejoin:miter"
           id="path160" /></g><g
         id="patch_6"><path
           d="M 57.6,41.472 H 414.72"
           style="fill:none;stroke:#000000;stroke-width:0.8;stroke-linecap:square;stroke-linejoin:miter"
           id="path161" /></g><g
         id="text_15"><!-- Pearson r: 0.84 --><g
           transform="matrix(0.22,0,0,-0.22,75.456,70.524788)"
           id="g175"><defs
             id="defs161"><path
               id="path76"
               d="m 578,2678 v 641 h 641 V 2678 Z M 578,0 v 641 h 641 V 0 Z"
               transform="scale(0.015625)" /></defs><use
             xlink:href="#ArialMT-50-5"
             id="use161" /><use
             xlink:href="#ArialMT-65-2"
             x="66.699219"
             id="use162" /><use
             xlink:href="#ArialMT-61-3"
             x="122.31445"
             id="use163" /><use
             xlink:href="#ArialMT-72-6"
             x="177.92969"
             id="use164" /><use
             xlink:href="#ArialMT-73-7"
             x="211.23047"
             id="use165" /><use
             xlink:href="#ArialMT-6f-1"
             x="261.23047"
             id="use166" /><use
             xlink:href="#ArialMT-6e-9"
             x="316.8457"
             id="use167" /><use
             xlink:href="#ArialMT-20-1"
             x="372.46094"
             id="use168" /><use
             xlink:href="#ArialMT-72-6"
             x="400.24414"
             id="use169" /><use
             xlink:href="#ArialMT-3a-7"
             x="433.54492"
             id="use170" /><use
             xlink:href="#ArialMT-20-1"
             x="461.32812"
             id="use171" /><use
             xlink:href="#ArialMT-30-1"
             x="489.11133"
             id="use172" /><use
             xlink:href="#ArialMT-2e-4"
             x="544.72656"
             id="use173" /><use
             xlink:href="#ArialMT-38-8"
             x="572.50977"
             id="use174" /><use
             xlink:href="#ArialMT-34-8"
             x="628.125"
             id="use175" /></g></g><g
         id="text_16"><!-- P-value: 1.35e-15 --><g
           transform="matrix(0.22,0,0,-0.22,75.456,97.135987)"
           id="g192"><defs
             id="defs175"><path
               id="path77"
               d="M 1344,0 81,3319 h 594 l 713,-1988 q 115,-322 212,-668 75,262 209,631 l 738,2025 h 578 L 1869,0 Z"
               transform="scale(0.015625)" /></defs><use
             xlink:href="#ArialMT-50-5"
             id="use176" /><use
             xlink:href="#ArialMT-2d-9"
             x="66.699219"
             id="use177" /><use
             xlink:href="#ArialMT-76-5"
             x="100"
             id="use178" /><use
             xlink:href="#ArialMT-61-3"
             x="150"
             id="use179" /><use
             xlink:href="#ArialMT-6c-0"
             x="205.61523"
             id="use180" /><use
             xlink:href="#ArialMT-75-3"
             x="227.83203"
             id="use181" /><use
             xlink:href="#ArialMT-65-2"
             x="283.44727"
             id="use182" /><use
             xlink:href="#ArialMT-3a-7"
             x="339.0625"
             id="use183" /><use
             xlink:href="#ArialMT-20-1"
             x="366.8457"
             id="use184" /><use
             xlink:href="#ArialMT-31-0"
             x="394.62891"
             id="use185" /><use
             xlink:href="#ArialMT-2e-4"
             x="450.24414"
             id="use186" /><use
             xlink:href="#ArialMT-33-6"
             x="478.02734"
             id="use187" /><use
             xlink:href="#ArialMT-35-3"
             x="533.64258"
             id="use188" /><use
             xlink:href="#ArialMT-65-2"
             x="589.25781"
             id="use189" /><use
             xlink:href="#ArialMT-2d-9"
             x="644.87305"
             id="use190" /><use
             xlink:href="#ArialMT-31-0"
             x="678.17383"
             id="use191" /><use
             xlink:href="#ArialMT-35-3"
             x="733.78906"
             id="use192" /></g></g><g
         id="text_17"><!-- Plate-reader assay vs. Filtering assay --><g
           transform="matrix(0.25,0,0,-0.25,27.755703,35.472)"
           id="g230"><use
             xlink:href="#ArialMT-50-5"
             id="use193" /><use
             xlink:href="#ArialMT-6c-0"
             x="66.699219"
             id="use194" /><use
             xlink:href="#ArialMT-61-3"
             x="88.916016"
             id="use195" /><use
             xlink:href="#ArialMT-74-3"
             x="144.53125"
             id="use196" /><use
             xlink:href="#ArialMT-65-2"
             x="172.31445"
             id="use197" /><use
             xlink:href="#ArialMT-2d-9"
             x="227.92969"
             id="use198" /><use
             xlink:href="#ArialMT-72-6"
             x="261.23047"
             id="use199" /><use
             xlink:href="#ArialMT-65-2"
             x="294.53125"
             id="use200" /><use
             xlink:href="#ArialMT-61-3"
             x="350.14648"
             id="use201" /><use
             xlink:href="#ArialMT-64-5"
             x="405.76172"
             id="use202" /><use
             xlink:href="#ArialMT-65-2"
             x="461.37695"
             id="use203" /><use
             xlink:href="#ArialMT-72-6"
             x="516.99219"
             id="use204" /><use
             xlink:href="#ArialMT-20-1"
             x="550.29297"
             id="use205" /><use
             xlink:href="#ArialMT-61-3"
             x="578.07617"
             id="use206" /><use
             xlink:href="#ArialMT-73-7"
             x="633.69141"
             id="use207" /><use
             xlink:href="#ArialMT-73-7"
             x="683.69141"
             id="use208" /><use
             xlink:href="#ArialMT-61-3"
             x="733.69141"
             id="use209" /><use
             xlink:href="#ArialMT-79-8"
             x="789.30664"
             id="use210" /><use
             xlink:href="#ArialMT-20-1"
             x="839.30664"
             id="use211" /><use
             xlink:href="#ArialMT-76-5"
             x="867.08984"
             id="use212" /><use
             xlink:href="#ArialMT-73-7"
             x="917.08984"
             id="use213" /><use
             xlink:href="#ArialMT-2e-4"
             x="967.08984"
             id="use214" /><use
             xlink:href="#ArialMT-20-1"
             x="994.87305"
             id="use215" /><use
             xlink:href="#ArialMT-46-4"
             x="1022.6562"
             id="use216" /><use
             xlink:href="#ArialMT-69-6"
             x="1083.7402"
             id="use217" /><use
             xlink:href="#ArialMT-6c-0"
             x="1105.957"
             id="use218" /><use
             xlink:href="#ArialMT-74-3"
             x="1128.1738"
             id="use219" /><use
             xlink:href="#ArialMT-65-2"
             x="1155.957"
             id="use220" /><use
             xlink:href="#ArialMT-72-6"
             x="1211.5723"
             id="use221" /><use
             xlink:href="#ArialMT-69-6"
             x="1244.873"
             id="use222" /><use
             xlink:href="#ArialMT-6e-9"
             x="1267.0898"
             id="use223" /><use
             xlink:href="#ArialMT-67-4"
             x="1322.7051"
             id="use224" /><use
             xlink:href="#ArialMT-20-1"
             x="1378.3203"
             id="use225" /><use
             xlink:href="#ArialMT-61-3"
             x="1406.1035"
             id="use226" /><use
             xlink:href="#ArialMT-73-7"
             x="1461.7188"
             id="use227" /><use
             xlink:href="#ArialMT-73-7"
             x="1511.7188"
             id="use228" /><use
             xlink:href="#ArialMT-61-3"
             x="1561.7188"
             id="use229" /><use
             xlink:href="#ArialMT-79-8"
             x="1617.334"
             id="use230" /></g></g></g></g></svg>
