<?xml version="1.0" encoding="UTF-8" standalone="no"?>
<!-- Created with Inkscape (http://www.inkscape.org/) -->

<svg
   width="1200"
   height="1500"
   viewBox="0 0 317.49999 396.875"
   version="1.1"
   id="svg91190"
   xml:space="preserve"
   inkscape:version="1.2.2 (b0a84865, 2022-12-01)"
   sodipodi:docname="supp_fig7.svg"
   inkscape:export-filename="supp_fig11.png"
   inkscape:export-xdpi="100"
   inkscape:export-ydpi="100"
   xmlns:inkscape="http://www.inkscape.org/namespaces/inkscape"
   xmlns:sodipodi="http://sodipodi.sourceforge.net/DTD/sodipodi-0.dtd"
   xmlns:xlink="http://www.w3.org/1999/xlink"
   xmlns="http://www.w3.org/2000/svg"
   xmlns:svg="http://www.w3.org/2000/svg"><sodipodi:namedview
     id="namedview91192"
     pagecolor="#ffffff"
     bordercolor="#000000"
     borderopacity="0.25"
     inkscape:showpageshadow="2"
     inkscape:pageopacity="0.0"
     inkscape:pagecheckerboard="0"
     inkscape:deskcolor="#d1d1d1"
     inkscape:document-units="mm"
     showgrid="false"
     inkscape:zoom="0.10692621"
     inkscape:cx="1215.7917"
     inkscape:cy="1019.3946"
     inkscape:window-width="1309"
     inkscape:window-height="456"
     inkscape:window-x="0"
     inkscape:window-y="154"
     inkscape:window-maximized="0"
     inkscape:current-layer="layer1"
     showguides="false" /><defs
     id="defs91187"><rect
       x="160.17323"
       y="1303.4788"
       width="1065.9803"
       height="480.51968"
       id="rect100408" /><rect
       x="270.63751"
       y="1391.8501"
       width="867.14471"
       height="193.31252"
       id="rect100402" /><rect
       x="231.97502"
       y="1430.5126"
       width="734.58752"
       height="353.48575"
       id="rect99708" /><style
       type="text/css"
       id="style91196">*{stroke-linecap:butt;stroke-linejoin:round;}</style><path
       d="m 0,9.354143 c 2.480748,0 4.860225,-0.985611 6.614378,-2.739765 C 8.368532,4.860225 9.354143,2.480748 9.354143,0 c 0,-2.480748 -0.985611,-4.860225 -2.739765,-6.614378 C 4.860225,-8.368532 2.480748,-9.354143 0,-9.354143 c -2.480748,0 -4.860225,0.985611 -6.614378,2.739765 -1.754154,1.754153 -2.739765,4.13363 -2.739765,6.614378 0,2.480748 0.985611,4.860225 2.739765,6.614378 C -4.860225,8.368532 -2.480748,9.354143 0,9.354143 Z"
       id="C0_0_efd4b1f33b" /><path
       d="M 0,0 V 3.5"
       id="mf5576275fb"
       style="stroke:#000000;stroke-width:0.8" /><path
       d="m 2034,4250 q -487,0 -733,-480 -245,-479 -245,-1442 0,-959 245,-1439 246,-480 733,-480 491,0 736,480 246,480 246,1439 0,963 -246,1442 -245,480 -736,480 z m 0,500 q 785,0 1199,-621 414,-620 414,-1801 0,-1178 -414,-1799 -414,-620 -1199,-620 -784,0 -1198,620 -414,621 -414,1799 0,1181 414,1801 414,621 1198,621 z"
       id="DejaVuSans-30"
       transform="scale(0.015625)" /><path
       d="m 684,794 h 660 V 0 H 684 Z"
       id="DejaVuSans-2e"
       transform="scale(0.015625)" /><path
       d="M 794,531 H 1825 V 4091 L 703,3866 v 575 l 1116,225 h 631 V 531 H 3481 V 0 H 794 Z"
       id="DejaVuSans-31"
       transform="scale(0.015625)" /><path
       d="M 1228,531 H 3431 V 0 H 469 v 531 q 359,372 979,998 621,627 780,809 303,340 423,576 121,236 121,464 0,372 -261,606 -261,235 -680,235 -297,0 -627,-103 -329,-103 -704,-313 v 638 q 381,153 712,231 332,78 607,78 725,0 1156,-363 431,-362 431,-968 0,-288 -108,-546 -107,-257 -392,-607 -78,-91 -497,-524 Q 1991,1309 1228,531 Z"
       id="DejaVuSans-32"
       transform="scale(0.015625)" /><path
       d="m 2597,2516 q 453,-97 707,-404 255,-306 255,-756 0,-690 -475,-1069 -475,-378 -1350,-378 -293,0 -604,58 -311,58 -642,174 v 609 q 262,-153 574,-231 313,-78 654,-78 593,0 904,234 311,234 311,681 0,413 -289,645 -289,233 -804,233 h -544 v 519 h 569 q 465,0 712,186 247,186 247,536 0,359 -255,551 -254,193 -729,193 -260,0 -557,-57 -297,-56 -653,-174 v 562 q 360,100 674,150 314,50 592,50 719,0 1137,-327 419,-326 419,-882 0,-388 -222,-655 -222,-267 -631,-370 z"
       id="DejaVuSans-33"
       transform="scale(0.015625)" /><path
       d="M 2419,4116 825,1625 h 1594 z m -166,550 h 794 V 1625 h 666 V 1100 H 3047 V 0 H 2419 V 1100 H 313 v 609 z"
       id="DejaVuSans-34"
       transform="scale(0.015625)" /><path
       d="M 691,4666 H 3169 V 4134 H 1269 V 2991 q 137,47 274,70 138,23 276,23 781,0 1237,-428 457,-428 457,-1159 Q 3513,744 3044,326 2575,-91 1722,-91 1428,-91 1123,-41 819,9 494,109 v 635 q 281,-153 581,-228 300,-75 634,-75 541,0 856,284 316,284 316,772 0,487 -316,771 -315,285 -856,285 -253,0 -505,-56 -251,-56 -513,-175 z"
       id="DejaVuSans-35"
       transform="scale(0.015625)" /><path
       d="m 2113,2584 q -425,0 -674,-291 -248,-290 -248,-796 0,-503 248,-796 249,-292 674,-292 425,0 673,292 248,293 248,796 0,506 -248,796 -248,291 -673,291 z m 1253,1979 v -575 q -238,112 -480,171 -242,60 -480,60 -625,0 -955,-422 -329,-422 -376,-1275 184,272 462,417 279,145 613,145 703,0 1111,-427 408,-426 408,-1160 0,-719 -425,-1154 -425,-434 -1131,-434 -810,0 -1238,620 -428,621 -428,1799 0,1106 525,1764 525,658 1409,658 238,0 480,-47 242,-47 505,-140 z"
       id="DejaVuSans-36"
       transform="scale(0.015625)" /><path
       d="M 525,4666 H 3525 V 4397 L 1831,0 H 1172 L 2766,4134 H 525 Z"
       id="DejaVuSans-37"
       transform="scale(0.015625)" /><path
       d="M 1259,2228 V 519 h 1013 q 509,0 754,211 246,211 246,645 0,438 -246,645 -245,208 -754,208 z m 0,1919 V 2741 h 935 q 462,0 688,173 227,174 227,530 0,353 -227,528 -226,175 -688,175 z m -631,519 h 1613 q 722,0 1112,-300 391,-300 391,-853 0,-429 -200,-682 -200,-253 -588,-315 466,-100 724,-418 258,-317 258,-792 0,-625 -425,-966 Q 3088,0 2303,0 H 628 Z"
       id="DejaVuSans-42"
       transform="scale(0.015625)" /><path
       d="M 3597,1894 V 1613 H 953 q 38,-594 358,-905 320,-311 892,-311 331,0 642,81 311,81 618,244 V 178 Q 3153,47 2828,-22 2503,-91 2169,-91 1331,-91 842,396 353,884 353,1716 q 0,859 464,1363 464,505 1252,505 706,0 1117,-455 411,-454 411,-1235 z m -575,169 q -6,471 -264,752 -258,282 -683,282 -481,0 -770,-272 -289,-272 -333,-766 z"
       id="DejaVuSans-65"
       transform="scale(0.015625)" /><path
       d="m 2375,4863 v -479 h -550 q -309,0 -430,-125 -120,-125 -120,-450 v -309 h 947 V 3053 H 1275 V 0 H 697 V 3053 H 147 v 447 h 550 v 244 q 0,584 272,851 272,268 862,268 z"
       id="DejaVuSans-66"
       transform="scale(0.015625)" /><path
       d="m 1959,3097 q -462,0 -731,-361 -269,-361 -269,-989 0,-628 267,-989 268,-361 733,-361 460,0 728,362 269,363 269,988 0,622 -269,986 -268,364 -728,364 z m 0,487 q 750,0 1178,-488 429,-487 429,-1349 Q 3566,888 3137,398 2709,-91 1959,-91 1206,-91 779,398 353,888 353,1747 q 0,862 426,1349 427,488 1180,488 z"
       id="DejaVuSans-6f"
       transform="scale(0.015625)" /><path
       d="m 2631,2963 q -97,56 -211,82 -114,27 -251,27 -488,0 -749,-317 -261,-317 -261,-911 V 0 H 581 v 3500 h 578 v -544 q 182,319 472,473 291,155 707,155 59,0 131,-8 72,-7 159,-23 z"
       id="DejaVuSans-72"
       transform="scale(0.015625)" /><path
       id="DejaVuSans-20"
       transform="scale(0.015625)"
       d="" /><path
       d="m 269,3500 h 575 l 719,-2731 715,2731 h 678 l 719,-2731 716,2731 h 575 L 4050,0 H 3372 L 2619,2869 1863,0 h -679 z"
       id="DejaVuSans-77"
       transform="scale(0.015625)" /><path
       d="m 2194,1759 q -697,0 -966,-159 -269,-159 -269,-544 0,-306 202,-486 202,-179 548,-179 479,0 768,339 289,339 289,901 v 128 z m 1147,238 V 0 H 2766 V 531 Q 2569,213 2275,61 1981,-91 1556,-91 q -537,0 -855,302 -317,302 -317,808 0,590 395,890 396,300 1180,300 h 807 v 57 q 0,397 -261,614 -261,217 -733,217 -300,0 -585,-72 -284,-72 -546,-216 v 532 q 315,122 612,182 297,61 578,61 760,0 1135,-394 375,-393 375,-1193 z"
       id="DejaVuSans-61"
       transform="scale(0.015625)" /><path
       d="m 2834,3397 v -544 q -243,125 -506,187 -262,63 -544,63 -428,0 -642,-131 -214,-131 -214,-394 0,-200 153,-314 153,-114 616,-217 l 197,-44 q 612,-131 870,-370 258,-239 258,-667 0,-488 -386,-773 Q 2250,-91 1575,-91 1294,-91 989,-36 684,19 347,128 v 594 q 319,-166 628,-249 309,-82 613,-82 406,0 624,139 219,139 219,392 0,234 -158,359 -157,125 -692,241 l -200,47 q -534,112 -772,345 -237,233 -237,639 0,494 350,762 350,269 994,269 318,0 599,-47 282,-46 519,-140 z"
       id="DejaVuSans-73"
       transform="scale(0.015625)" /><path
       d="M 3513,2113 V 0 h -575 v 2094 q 0,497 -194,743 -194,247 -581,247 -466,0 -735,-297 -269,-296 -269,-809 V 0 H 581 v 4863 h 578 V 2956 q 207,316 486,472 280,156 646,156 603,0 912,-373 310,-373 310,-1098 z"
       id="DejaVuSans-68"
       transform="scale(0.015625)" /><path
       d="m 603,3500 h 575 V 0 H 603 Z m 0,1363 h 575 V 4134 H 603 Z"
       id="DejaVuSans-69"
       transform="scale(0.015625)" /><path
       d="M 3513,2113 V 0 h -575 v 2094 q 0,497 -194,743 -194,247 -581,247 -466,0 -735,-297 -269,-296 -269,-809 V 0 H 581 v 3500 h 578 v -544 q 207,316 486,472 280,156 646,156 603,0 912,-373 310,-373 310,-1098 z"
       id="DejaVuSans-6e"
       transform="scale(0.015625)" /><path
       d="M 1172,4494 V 3500 H 2356 V 3053 H 1172 V 1153 q 0,-428 117,-550 117,-122 477,-122 h 590 V 0 H 1766 Q 1100,0 847,248 594,497 594,1153 V 3053 H 172 v 447 h 422 v 994 z"
       id="DejaVuSans-74"
       transform="scale(0.015625)" /><path
       d="m 2059,-325 q -243,-625 -475,-815 -231,-191 -618,-191 H 506 v 481 h 338 q 237,0 368,113 132,112 291,531 L 1606,56 191,3500 H 800 L 1894,763 2988,3500 h 609 z"
       id="DejaVuSans-79"
       transform="scale(0.015625)" /><path
       d="M 0,0 H -3.5"
       id="m7cd78171d7"
       style="stroke:#000000;stroke-width:0.8" /><path
       d="M 2188,4044 1331,1722 h 1716 z m -357,622 h 716 L 4325,0 H 3669 L 3244,1197 H 1141 L 716,0 H 50 Z"
       id="DejaVuSans-41"
       transform="scale(0.015625)" /><path
       d="m 3116,1747 q 0,634 -261,995 -261,361 -717,361 -457,0 -718,-361 -261,-361 -261,-995 0,-634 261,-995 261,-361 718,-361 456,0 717,361 261,361 261,995 z M 1159,2969 q 182,312 458,463 277,152 661,152 638,0 1036,-506 399,-506 399,-1331 Q 3713,922 3314,415 2916,-91 2278,-91 1894,-91 1617,61 1341,213 1159,525 V 0 H 581 v 4863 h 578 z"
       id="DejaVuSans-62"
       transform="scale(0.015625)" /><path
       d="M 191,3500 H 800 L 1894,563 2988,3500 h 609 L 2284,0 h -781 z"
       id="DejaVuSans-76"
       transform="scale(0.015625)" /><path
       d="m 2906,2969 v 1894 h 575 V 0 H 2906 V 525 Q 2725,213 2448,61 2172,-91 1784,-91 1150,-91 751,415 353,922 353,1747 q 0,825 398,1331 399,506 1033,506 388,0 664,-152 277,-151 458,-463 z M 947,1747 q 0,-634 261,-995 261,-361 717,-361 456,0 718,361 263,361 263,995 0,634 -263,995 -262,361 -718,361 -456,0 -717,-361 -261,-361 -261,-995 z"
       id="DejaVuSans-64"
       transform="scale(0.015625)" /><path
       d="m 628,4666 h 941 L 2759,1491 3956,4666 h 941 V 0 H 4281 V 4097 L 3078,897 H 2444 L 1241,4097 V 0 H 628 Z"
       id="DejaVuSans-4d"
       transform="scale(0.015625)" /><path
       d="m 3122,3366 v -538 q -244,135 -489,202 -245,67 -495,67 -560,0 -870,-355 -309,-354 -309,-995 0,-641 309,-996 310,-354 870,-354 250,0 495,67 245,67 489,202 V 134 Q 2881,22 2623,-34 2366,-91 2075,-91 1284,-91 818,406 353,903 353,1747 q 0,856 470,1346 471,491 1290,491 265,0 518,-55 253,-54 491,-163 z"
       id="DejaVuSans-63"
       transform="scale(0.015625)" /><path
       d="m 544,1381 v 2119 h 575 V 1403 q 0,-497 193,-746 194,-248 582,-248 465,0 735,297 271,297 271,810 v 1984 h 575 V 0 H 2900 V 538 Q 2691,219 2414,64 2138,-91 1772,-91 1169,-91 856,284 544,659 544,1381 Z m 1447,2203 z"
       id="DejaVuSans-75"
       transform="scale(0.015625)" /><path
       d="M 313,2009 H 1997 V 1497 H 313 Z"
       id="DejaVuSans-2d"
       transform="scale(0.015625)" /><path
       d="m 750,794 h 659 V 0 H 750 Z m 0,2515 h 659 V 2516 H 750 Z"
       id="DejaVuSans-3a"
       transform="scale(0.015625)" /><path
       d="m 603,4863 h 575 V 0 H 603 Z"
       id="DejaVuSans-6c"
       transform="scale(0.015625)" /><path
       d="m 703,97 v 575 q 238,-113 481,-172 244,-59 479,-59 625,0 954,420 330,420 377,1277 -181,-269 -460,-413 -278,-144 -615,-144 -700,0 -1108,423 -408,424 -408,1159 0,718 425,1152 425,435 1131,435 810,0 1236,-621 427,-620 427,-1801 Q 3622,1225 3098,567 2575,-91 1691,-91 1453,-91 1209,-44 966,3 703,97 Z m 1256,1978 q 425,0 673,290 249,291 249,798 0,503 -249,795 -248,292 -673,292 -425,0 -673,-292 -248,-292 -248,-795 0,-507 248,-798 248,-290 673,-290 z"
       id="DejaVuSans-39"
       transform="scale(0.015625)" /><path
       d="M 1159,525 V -1331 H 581 v 4831 h 578 v -531 q 182,312 458,463 277,152 661,152 638,0 1036,-506 399,-506 399,-1331 0,-825 -399,-1332 -398,-506 -1036,-506 -384,0 -661,152 -276,152 -458,464 z m 1957,1222 q 0,634 -261,995 -261,361 -717,361 -457,0 -718,-361 -261,-361 -261,-995 0,-634 261,-995 261,-361 718,-361 456,0 717,361 261,361 261,995 z"
       id="DejaVuSans-70"
       transform="scale(0.015625)" /><path
       d="M 0,9 C 2.386828,9 4.676219,8.051703 6.363961,6.363961 8.051703,4.676219 9,2.386828 9,0 9,-2.386828 8.051703,-4.676219 6.363961,-6.363961 4.676219,-8.051703 2.386828,-9 0,-9 -2.386828,-9 -4.676219,-8.051703 -6.363961,-6.363961 -8.051703,-4.676219 -9,-2.386828 -9,0 -9,2.386828 -8.051703,4.676219 -6.363961,6.363961 -4.676219,8.051703 -2.386828,9 0,9 Z"
       id="m2f5d11dd76"
       style="stroke:#1f77b4" /><path
       d="M -13,4666 H 666 L 1959,2747 3244,4666 h 678 L 2272,2222 V 0 h -634 v 2222 z"
       id="DejaVuSans-59"
       transform="scale(0.015625)" /><path
       d="M 628,4666 H 3578 V 4134 H 1259 V 2753 H 3481 V 2222 H 1259 V 531 H 3634 V 0 H 628 Z"
       id="DejaVuSans-45"
       transform="scale(0.015625)" /><path
       d="m 3425,4513 v -616 q -359,172 -678,256 -319,85 -616,85 -515,0 -795,-200 -280,-200 -280,-569 0,-310 186,-468 186,-157 705,-254 l 381,-78 q 706,-135 1042,-474 336,-339 336,-907 0,-679 -455,-1029 -454,-350 -1332,-350 -331,0 -705,75 -373,75 -773,222 v 650 q 384,-215 753,-325 369,-109 725,-109 540,0 834,212 294,213 294,607 0,343 -211,537 -211,194 -692,291 l -385,75 q -706,140 -1022,440 -315,300 -315,835 0,619 436,975 436,356 1201,356 329,0 669,-60 341,-59 697,-177 z"
       id="DejaVuSans-53"
       transform="scale(0.015625)" /><path
       d="M 0,9 C 2.386828,9 4.676219,8.051703 6.363961,6.363961 8.051703,4.676219 9,2.386828 9,0 9,-2.386828 8.051703,-4.676219 6.363961,-6.363961 4.676219,-8.051703 2.386828,-9 0,-9 -2.386828,-9 -4.676219,-8.051703 -6.363961,-6.363961 -8.051703,-4.676219 -9,-2.386828 -9,0 -9,2.386828 -8.051703,4.676219 -6.363961,6.363961 -4.676219,8.051703 -2.386828,9 0,9 Z"
       id="m6d353276ea"
       style="stroke:#ff7f0e" /><path
       d="m 4122,4306 v -665 q -319,297 -680,443 -361,147 -767,147 -800,0 -1225,-489 -425,-489 -425,-1414 0,-922 425,-1411 425,-489 1225,-489 406,0 767,147 361,147 680,444 V 359 Q 3791,134 3420,21 3050,-91 2638,-91 1578,-91 968,557 359,1206 359,2328 q 0,1125 609,1773 610,649 1670,649 418,0 788,-111 371,-111 696,-333 z"
       id="DejaVuSans-43"
       transform="scale(0.015625)" /><path
       d="M 0,9 C 2.386828,9 4.676219,8.051703 6.363961,6.363961 8.051703,4.676219 9,2.386828 9,0 9,-2.386828 8.051703,-4.676219 6.363961,-6.363961 4.676219,-8.051703 2.386828,-9 0,-9 -2.386828,-9 -4.676219,-8.051703 -6.363961,-6.363961 -8.051703,-4.676219 -9,-2.386828 -9,0 -9,2.386828 -8.051703,4.676219 -6.363961,6.363961 -4.676219,8.051703 -2.386828,9 0,9 Z"
       id="m5d75b87981"
       style="stroke:#2ca02c" /><path
       d="M 2944,4013 V 2272 H 4684 V 1741 H 2944 V 0 H 2419 V 1741 H 678 v 531 h 1741 v 1741 z"
       id="DejaVuSans-2b"
       transform="scale(0.015625)" /><path
       d="m 2841,2188 q 203,-69 395,-294 192,-225 386,-619 L 4263,0 h -679 l -596,1197 q -232,469 -449,622 -217,153 -592,153 H 1259 V 0 H 628 v 4666 h 1425 q 800,0 1194,-335 394,-334 394,-1009 0,-441 -205,-732 -205,-290 -595,-402 z M 1259,4147 V 2491 h 794 q 456,0 689,211 233,211 233,620 0,409 -233,617 -233,208 -689,208 z"
       id="DejaVuSans-52"
       transform="scale(0.015625)" /><path
       d="M 0,9 C 2.386828,9 4.676219,8.051703 6.363961,6.363961 8.051703,4.676219 9,2.386828 9,0 9,-2.386828 8.051703,-4.676219 6.363961,-6.363961 4.676219,-8.051703 2.386828,-9 0,-9 -2.386828,-9 -4.676219,-8.051703 -6.363961,-6.363961 -8.051703,-4.676219 -9,-2.386828 -9,0 -9,2.386828 -8.051703,4.676219 -6.363961,6.363961 -4.676219,8.051703 -2.386828,9 0,9 Z"
       id="mdc7436418b"
       style="stroke:#d62728" /><path
       d="m 3328,2828 q 216,388 516,572 300,184 706,184 547,0 844,-383 297,-382 297,-1088 V 0 h -578 v 2094 q 0,503 -179,746 -178,244 -543,244 -447,0 -707,-297 -259,-296 -259,-809 V 0 h -578 v 2094 q 0,506 -178,748 -178,242 -550,242 -441,0 -701,-298 -259,-298 -259,-808 V 0 H 581 v 3500 h 578 v -544 q 197,322 472,475 275,153 653,153 382,0 649,-194 267,-193 395,-562 z"
       id="DejaVuSans-6d"
       transform="scale(0.015625)" /><path
       d="M 0,9 C 2.386828,9 4.676219,8.051703 6.363961,6.363961 8.051703,4.676219 9,2.386828 9,0 9,-2.386828 8.051703,-4.676219 6.363961,-6.363961 4.676219,-8.051703 2.386828,-9 0,-9 -2.386828,-9 -4.676219,-8.051703 -6.363961,-6.363961 -8.051703,-4.676219 -9,-2.386828 -9,0 -9,2.386828 -8.051703,4.676219 -6.363961,6.363961 -4.676219,8.051703 -2.386828,9 0,9 Z"
       id="md586a91f89"
       style="stroke:#9467bd" /><path
       d="m 628,4666 h 631 V 2753 h 2294 v 1913 h 631 V 0 H 3553 V 2222 H 1259 V 0 H 628 Z"
       id="DejaVuSans-48"
       transform="scale(0.015625)" /><path
       d="m 2522,4238 q -688,0 -1093,-513 -404,-512 -404,-1397 0,-881 404,-1394 405,-512 1093,-512 687,0 1089,512 402,513 402,1394 0,885 -402,1397 -402,513 -1089,513 z m 0,512 q 981,0 1568,-658 588,-658 588,-1764 0,-1103 -588,-1761 -587,-658 -1568,-658 -984,0 -1574,656 -589,657 -589,1763 0,1106 589,1764 590,658 1574,658 z"
       id="DejaVuSans-4f"
       transform="scale(0.015625)" /><path
       d="M 0,9 C 2.386828,9 4.676219,8.051703 6.363961,6.363961 8.051703,4.676219 9,2.386828 9,0 9,-2.386828 8.051703,-4.676219 6.363961,-6.363961 4.676219,-8.051703 2.386828,-9 0,-9 -2.386828,-9 -4.676219,-8.051703 -6.363961,-6.363961 -8.051703,-4.676219 -9,-2.386828 -9,0 -9,2.386828 -8.051703,4.676219 -6.363961,6.363961 -4.676219,8.051703 -2.386828,9 0,9 Z"
       id="m52443ce5bc"
       style="stroke:#8c564b" /><path
       d="M 0,9 C 2.386828,9 4.676219,8.051703 6.363961,6.363961 8.051703,4.676219 9,2.386828 9,0 9,-2.386828 8.051703,-4.676219 6.363961,-6.363961 4.676219,-8.051703 2.386828,-9 0,-9 -2.386828,-9 -4.676219,-8.051703 -6.363961,-6.363961 -8.051703,-4.676219 -9,-2.386828 -9,0 -9,2.386828 -8.051703,4.676219 -6.363961,6.363961 -4.676219,8.051703 -2.386828,9 0,9 Z"
       id="m1b54ce629c"
       style="stroke:#e377c2" /><path
       d="M 1259,4147 V 2394 h 794 q 441,0 681,228 241,228 241,650 0,419 -241,647 -240,228 -681,228 z m -631,519 h 1425 q 785,0 1186,-355 402,-355 402,-1039 0,-691 -402,-1044 -401,-353 -1186,-353 H 1259 V 0 H 628 Z"
       id="DejaVuSans-50"
       transform="scale(0.015625)" /><path
       d="M 0,9 C 2.386828,9 4.676219,8.051703 6.363961,6.363961 8.051703,4.676219 9,2.386828 9,0 9,-2.386828 8.051703,-4.676219 6.363961,-6.363961 4.676219,-8.051703 2.386828,-9 0,-9 -2.386828,-9 -4.676219,-8.051703 -6.363961,-6.363961 -8.051703,-4.676219 -9,-2.386828 -9,0 -9,2.386828 -8.051703,4.676219 -6.363961,6.363961 -4.676219,8.051703 -2.386828,9 0,9 Z"
       id="ma73bbd2571"
       style="stroke:#7f7f7f" /><path
       d="m 628,4666 h 850 L 3547,763 v 3903 h 612 V 0 H 3309 L 1241,3903 V 0 H 628 Z"
       id="DejaVuSans-4e"
       transform="scale(0.015625)" /><clipPath
       id="p0925e9c2a4"><rect
         height="831.59998"
         width="837"
         x="135"
         y="129.60001"
         id="rect93901" /></clipPath><style
       type="text/css"
       id="style95450">*{stroke-linecap:butt;stroke-linejoin:round;}</style><path
       d="M 0,0 V 3.5"
       id="mc467c63c31"
       style="stroke:#000000;stroke-width:0.8" /><path
       d="M -13,4666 H 666 L 1959,2747 3244,4666 h 678 L 2272,2222 V 0 h -634 v 2222 z"
       id="DejaVuSans-59-5"
       transform="scale(0.015625)" /><path
       d="M 628,4666 H 3578 V 4134 H 1259 V 2753 H 3481 V 2222 H 1259 V 531 H 3634 V 0 H 628 Z"
       id="DejaVuSans-45-5"
       transform="scale(0.015625)" /><path
       d="m 3425,4513 v -616 q -359,172 -678,256 -319,85 -616,85 -515,0 -795,-200 -280,-200 -280,-569 0,-310 186,-468 186,-157 705,-254 l 381,-78 q 706,-135 1042,-474 336,-339 336,-907 0,-679 -455,-1029 -454,-350 -1332,-350 -331,0 -705,75 -373,75 -773,222 v 650 q 384,-215 753,-325 369,-109 725,-109 540,0 834,212 294,213 294,607 0,343 -211,537 -211,194 -692,291 l -385,75 q -706,140 -1022,440 -315,300 -315,835 0,619 436,975 436,356 1201,356 329,0 669,-60 341,-59 697,-177 z"
       id="DejaVuSans-53-8"
       transform="scale(0.015625)" /><path
       id="DejaVuSans-20-5"
       transform="scale(0.015625)"
       d="" /><path
       d="M 3513,2113 V 0 h -575 v 2094 q 0,497 -194,743 -194,247 -581,247 -466,0 -735,-297 -269,-296 -269,-809 V 0 H 581 v 3500 h 578 v -544 q 207,316 486,472 280,156 646,156 603,0 912,-373 310,-373 310,-1098 z"
       id="DejaVuSans-6e-6"
       transform="scale(0.015625)" /><path
       d="M 678,2906 H 4684 V 2381 H 678 Z m 0,-1275 H 4684 V 1100 H 678 Z"
       id="DejaVuSans-3d"
       transform="scale(0.015625)" /><path
       d="m 2034,2216 q -450,0 -708,-241 -257,-241 -257,-662 0,-422 257,-663 258,-241 708,-241 450,0 709,242 260,243 260,662 0,421 -258,662 -257,241 -711,241 z m -631,268 q -406,100 -633,378 -226,279 -226,679 0,559 398,884 399,325 1092,325 697,0 1094,-325 397,-325 397,-884 0,-400 -227,-679 -226,-278 -629,-378 456,-106 710,-416 255,-309 255,-755 Q 3634,634 3220,271 2806,-91 2034,-91 1263,-91 848,271 434,634 434,1313 q 0,446 256,755 257,310 713,416 z m -231,997 q 0,-362 226,-565 227,-203 636,-203 407,0 636,203 230,203 230,565 0,363 -230,566 -229,203 -636,203 -409,0 -636,-203 -226,-203 -226,-566 z"
       id="DejaVuSans-38"
       transform="scale(0.015625)" /><path
       d="m 4122,4306 v -665 q -319,297 -680,443 -361,147 -767,147 -800,0 -1225,-489 -425,-489 -425,-1414 0,-922 425,-1411 425,-489 1225,-489 406,0 767,147 361,147 680,444 V 359 Q 3791,134 3420,21 3050,-91 2638,-91 1578,-91 968,557 359,1206 359,2328 q 0,1125 609,1773 610,649 1670,649 418,0 788,-111 371,-111 696,-333 z"
       id="DejaVuSans-43-1"
       transform="scale(0.015625)" /><path
       d="m 2194,1759 q -697,0 -966,-159 -269,-159 -269,-544 0,-306 202,-486 202,-179 548,-179 479,0 768,339 289,339 289,901 v 128 z m 1147,238 V 0 H 2766 V 531 Q 2569,213 2275,61 1981,-91 1556,-91 q -537,0 -855,302 -317,302 -317,808 0,590 395,890 396,300 1180,300 h 807 v 57 q 0,397 -261,614 -261,217 -733,217 -300,0 -585,-72 -284,-72 -546,-216 v 532 q 315,122 612,182 297,61 578,61 760,0 1135,-394 375,-393 375,-1193 z"
       id="DejaVuSans-61-6"
       transform="scale(0.015625)" /><path
       d="m 2375,4863 v -479 h -550 q -309,0 -430,-125 -120,-125 -120,-450 v -309 h 947 V 3053 H 1275 V 0 H 697 V 3053 H 147 v 447 h 550 v 244 q 0,584 272,851 272,268 862,268 z"
       id="DejaVuSans-66-1"
       transform="scale(0.015625)" /><path
       d="M 3597,1894 V 1613 H 953 q 38,-594 358,-905 320,-311 892,-311 331,0 642,81 311,81 618,244 V 178 Q 3153,47 2828,-22 2503,-91 2169,-91 1331,-91 842,396 353,884 353,1716 q 0,859 464,1363 464,505 1252,505 706,0 1117,-455 411,-454 411,-1235 z m -575,169 q -6,471 -264,752 -258,282 -683,282 -481,0 -770,-272 -289,-272 -333,-766 z"
       id="DejaVuSans-65-2"
       transform="scale(0.015625)" /><path
       d="m 603,3500 h 575 V 0 H 603 Z m 0,1363 h 575 V 4134 H 603 Z"
       id="DejaVuSans-69-0"
       transform="scale(0.015625)" /><path
       d="m 1984,4856 q -418,-718 -622,-1422 -203,-703 -203,-1425 0,-721 205,-1429 205,-708 620,-1424 h -500 q -468,735 -701,1444 -233,709 -233,1409 0,697 231,1403 232,707 703,1444 z"
       id="DejaVuSans-28"
       transform="scale(0.015625)" /><path
       d="M 794,531 H 1825 V 4091 L 703,3866 v 575 l 1116,225 h 631 V 531 H 3481 V 0 H 794 Z"
       id="DejaVuSans-31-4"
       transform="scale(0.015625)" /><path
       d="m 2034,4250 q -487,0 -733,-480 -245,-479 -245,-1442 0,-959 245,-1439 246,-480 733,-480 491,0 736,480 246,480 246,1439 0,963 -246,1442 -245,480 -736,480 z m 0,500 q 785,0 1199,-621 414,-620 414,-1801 0,-1178 -414,-1799 -414,-620 -1199,-620 -784,0 -1198,620 -414,621 -414,1799 0,1181 414,1801 414,621 1198,621 z"
       id="DejaVuSans-30-4"
       transform="scale(0.015625)" /><path
       d="m 3328,2828 q 216,388 516,572 300,184 706,184 547,0 844,-383 297,-382 297,-1088 V 0 h -578 v 2094 q 0,503 -179,746 -178,244 -543,244 -447,0 -707,-297 -259,-296 -259,-809 V 0 h -578 v 2094 q 0,506 -178,748 -178,242 -550,242 -441,0 -701,-298 -259,-298 -259,-808 V 0 H 581 v 3500 h 578 v -544 q 197,322 472,475 275,153 653,153 382,0 649,-194 267,-193 395,-562 z"
       id="DejaVuSans-6d-5"
       transform="scale(0.015625)" /><path
       d="m 628,4666 h 941 L 2759,1491 3956,4666 h 941 V 0 H 4281 V 4097 L 3078,897 H 2444 L 1241,4097 V 0 H 628 Z"
       id="DejaVuSans-4d-9"
       transform="scale(0.015625)" /><path
       d="m 513,4856 h 500 q 468,-737 701,-1444 233,-706 233,-1403 0,-700 -233,-1409 -233,-709 -701,-1444 H 513 q 415,716 620,1424 205,708 205,1429 0,722 -205,1425 -205,704 -620,1422 z"
       id="DejaVuSans-29"
       transform="scale(0.015625)" /><path
       d="M 525,4666 H 3525 V 4397 L 1831,0 H 1172 L 2766,4134 H 525 Z"
       id="DejaVuSans-37-7"
       transform="scale(0.015625)" /><path
       d="M 2944,4013 V 2272 H 4684 V 1741 H 2944 V 0 H 2419 V 1741 H 678 v 531 h 1741 v 1741 z"
       id="DejaVuSans-2b-0"
       transform="scale(0.015625)" /><path
       d="m 2841,2188 q 203,-69 395,-294 192,-225 386,-619 L 4263,0 h -679 l -596,1197 q -232,469 -449,622 -217,153 -592,153 H 1259 V 0 H 628 v 4666 h 1425 q 800,0 1194,-335 394,-334 394,-1009 0,-441 -205,-732 -205,-290 -595,-402 z M 1259,4147 V 2491 h 794 q 456,0 689,211 233,211 233,620 0,409 -233,617 -233,208 -689,208 z"
       id="DejaVuSans-52-5"
       transform="scale(0.015625)" /><path
       d="M 1159,525 V -1331 H 581 v 4831 h 578 v -531 q 182,312 458,463 277,152 661,152 638,0 1036,-506 399,-506 399,-1331 0,-825 -399,-1332 -398,-506 -1036,-506 -384,0 -661,152 -276,152 -458,464 z m 1957,1222 q 0,634 -261,995 -261,361 -717,361 -457,0 -718,-361 -261,-361 -261,-995 0,-634 261,-995 261,-361 718,-361 456,0 717,361 261,361 261,995 z"
       id="DejaVuSans-70-5"
       transform="scale(0.015625)" /><path
       d="m 2059,-325 q -243,-625 -475,-815 -231,-191 -618,-191 H 506 v 481 h 338 q 237,0 368,113 132,112 291,531 L 1606,56 191,3500 H 800 L 1894,763 2988,3500 h 609 z"
       id="DejaVuSans-79-6"
       transform="scale(0.015625)" /><path
       d="m 3122,3366 v -538 q -244,135 -489,202 -245,67 -495,67 -560,0 -870,-355 -309,-354 -309,-995 0,-641 309,-996 310,-354 870,-354 250,0 495,67 245,67 489,202 V 134 Q 2881,22 2623,-34 2366,-91 2075,-91 1284,-91 818,406 353,903 353,1747 q 0,856 470,1346 471,491 1290,491 265,0 518,-55 253,-54 491,-163 z"
       id="DejaVuSans-63-3"
       transform="scale(0.015625)" /><path
       d="M 691,4666 H 3169 V 4134 H 1269 V 2991 q 137,47 274,70 138,23 276,23 781,0 1237,-428 457,-428 457,-1159 Q 3513,744 3044,326 2575,-91 1722,-91 1428,-91 1123,-41 819,9 494,109 v 635 q 281,-153 581,-228 300,-75 634,-75 541,0 856,284 316,284 316,772 0,487 -316,771 -315,285 -856,285 -253,0 -505,-56 -251,-56 -513,-175 z"
       id="DejaVuSans-35-2"
       transform="scale(0.015625)" /><path
       d="m 2906,1791 q 0,625 -258,968 -257,344 -723,344 -462,0 -720,-344 -258,-343 -258,-968 0,-622 258,-966 258,-344 720,-344 466,0 723,344 258,344 258,966 z M 3481,434 q 0,-893 -397,-1329 -396,-436 -1215,-436 -303,0 -572,45 -269,45 -522,139 v 559 q 253,-137 500,-202 247,-66 503,-66 566,0 847,295 281,295 281,892 V 616 Q 2728,306 2450,153 2172,0 1784,0 1141,0 747,490 353,981 353,1791 q 0,812 394,1302 394,491 1037,491 388,0 666,-153 278,-153 456,-462 v 531 h 575 z"
       id="DejaVuSans-67"
       transform="scale(0.015625)" /><path
       d="m 1625,4666 h 531 L 531,-594 H 0 Z"
       id="DejaVuSans-2f"
       transform="scale(0.015625)" /><path
       d="m 603,4863 h 575 V 0 H 603 Z"
       id="DejaVuSans-6c-1"
       transform="scale(0.015625)" /><path
       d="M 1228,531 H 3431 V 0 H 469 v 531 q 359,372 979,998 621,627 780,809 303,340 423,576 121,236 121,464 0,372 -261,606 -261,235 -680,235 -297,0 -627,-103 -329,-103 -704,-313 v 638 q 381,153 712,231 332,78 607,78 725,0 1156,-363 431,-362 431,-968 0,-288 -108,-546 -107,-257 -392,-607 -78,-91 -497,-524 Q 1991,1309 1228,531 Z"
       id="DejaVuSans-32-4"
       transform="scale(0.015625)" /><path
       d="m 628,4666 h 631 V 2753 h 2294 v 1913 h 631 V 0 H 3553 V 2222 H 1259 V 0 H 628 Z"
       id="DejaVuSans-48-1"
       transform="scale(0.015625)" /><path
       d="m 2522,4238 q -688,0 -1093,-513 -404,-512 -404,-1397 0,-881 404,-1394 405,-512 1093,-512 687,0 1089,512 402,513 402,1394 0,885 -402,1397 -402,513 -1089,513 z m 0,512 q 981,0 1568,-658 588,-658 588,-1764 0,-1103 -588,-1761 -587,-658 -1568,-658 -984,0 -1574,656 -589,657 -589,1763 0,1106 589,1764 590,658 1574,658 z"
       id="DejaVuSans-4f-9"
       transform="scale(0.015625)" /><path
       d="m 2597,2516 q 453,-97 707,-404 255,-306 255,-756 0,-690 -475,-1069 -475,-378 -1350,-378 -293,0 -604,58 -311,58 -642,174 v 609 q 262,-153 574,-231 313,-78 654,-78 593,0 904,234 311,234 311,681 0,413 -289,645 -289,233 -804,233 h -544 v 519 h 569 q 465,0 712,186 247,186 247,536 0,359 -255,551 -254,193 -729,193 -260,0 -557,-57 -297,-56 -653,-174 v 562 q 360,100 674,150 314,50 592,50 719,0 1137,-327 419,-326 419,-882 0,-388 -222,-655 -222,-267 -631,-370 z"
       id="DejaVuSans-33-3"
       transform="scale(0.015625)" /><path
       d="M 313,2009 H 1997 V 1497 H 313 Z"
       id="DejaVuSans-2d-0"
       transform="scale(0.015625)" /><path
       d="M 1259,4147 V 2394 h 794 q 441,0 681,228 241,228 241,650 0,419 -241,647 -240,228 -681,228 z m -631,519 h 1425 q 785,0 1186,-355 402,-355 402,-1039 0,-691 -402,-1044 -401,-353 -1186,-353 H 1259 V 0 H 628 Z"
       id="DejaVuSans-50-9"
       transform="scale(0.015625)" /><path
       d="M 2419,4116 825,1625 h 1594 z m -166,550 h 794 V 1625 h 666 V 1100 H 3047 V 0 H 2419 V 1100 H 313 v 609 z"
       id="DejaVuSans-34-3"
       transform="scale(0.015625)" /><path
       d="m 628,4666 h 850 L 3547,763 v 3903 h 612 V 0 H 3309 L 1241,3903 V 0 H 628 Z"
       id="DejaVuSans-4e-5"
       transform="scale(0.015625)" /><path
       d="m 1959,3097 q -462,0 -731,-361 -269,-361 -269,-989 0,-628 267,-989 268,-361 733,-361 460,0 728,362 269,363 269,988 0,622 -269,986 -268,364 -728,364 z m 0,487 q 750,0 1178,-488 429,-487 429,-1349 Q 3566,888 3137,398 2709,-91 1959,-91 1206,-91 779,398 353,888 353,1747 q 0,862 426,1349 427,488 1180,488 z"
       id="DejaVuSans-6f-5"
       transform="scale(0.015625)" /><path
       d="m 2906,2969 v 1894 h 575 V 0 H 2906 V 525 Q 2725,213 2448,61 2172,-91 1784,-91 1150,-91 751,415 353,922 353,1747 q 0,825 398,1331 399,506 1033,506 388,0 664,-152 277,-151 458,-463 z M 947,1747 q 0,-634 261,-995 261,-361 717,-361 456,0 718,361 263,361 263,995 0,634 -263,995 -262,361 -718,361 -456,0 -717,-361 -261,-361 -261,-995 z"
       id="DejaVuSans-64-0"
       transform="scale(0.015625)" /><path
       d="M 1172,4494 V 3500 H 2356 V 3053 H 1172 V 1153 q 0,-428 117,-550 117,-122 477,-122 h 590 V 0 H 1766 Q 1100,0 847,248 594,497 594,1153 V 3053 H 172 v 447 h 422 v 994 z"
       id="DejaVuSans-74-6"
       transform="scale(0.015625)" /><path
       d="M 0,0 H -3.5"
       id="m2b5ad7b4b7"
       style="stroke:#000000;stroke-width:0.8" /><path
       d="m 684,794 h 660 V 0 H 684 Z"
       id="DejaVuSans-2e-0"
       transform="scale(0.015625)" /><path
       d="m 2113,2584 q -425,0 -674,-291 -248,-290 -248,-796 0,-503 248,-796 249,-292 674,-292 425,0 673,292 248,293 248,796 0,506 -248,796 -248,291 -673,291 z m 1253,1979 v -575 q -238,112 -480,171 -242,60 -480,60 -625,0 -955,-422 -329,-422 -376,-1275 184,272 462,417 279,145 613,145 703,0 1111,-427 408,-426 408,-1160 0,-719 -425,-1154 -425,-434 -1131,-434 -810,0 -1238,620 -428,621 -428,1799 0,1106 525,1764 525,658 1409,658 238,0 480,-47 242,-47 505,-140 z"
       id="DejaVuSans-36-7"
       transform="scale(0.015625)" /><path
       d="m 703,97 v 575 q 238,-113 481,-172 244,-59 479,-59 625,0 954,420 330,420 377,1277 -181,-269 -460,-413 -278,-144 -615,-144 -700,0 -1108,423 -408,424 -408,1159 0,718 425,1152 425,435 1131,435 810,0 1236,-621 427,-620 427,-1801 Q 3622,1225 3098,567 2575,-91 1691,-91 1453,-91 1209,-44 966,3 703,97 Z m 1256,1978 q 425,0 673,290 249,291 249,798 0,503 -249,795 -248,292 -673,292 -425,0 -673,-292 -248,-292 -248,-795 0,-507 248,-798 248,-290 673,-290 z"
       id="DejaVuSans-39-6"
       transform="scale(0.015625)" /><path
       d="m 2631,2963 q -97,56 -211,82 -114,27 -251,27 -488,0 -749,-317 -261,-317 -261,-911 V 0 H 581 v 3500 h 578 v -544 q 182,319 472,473 291,155 707,155 59,0 131,-8 72,-7 159,-23 z"
       id="DejaVuSans-72-0"
       transform="scale(0.015625)" /><path
       d="m 3116,1747 q 0,634 -261,995 -261,361 -717,361 -457,0 -718,-361 -261,-361 -261,-995 0,-634 261,-995 261,-361 718,-361 456,0 717,361 261,361 261,995 z M 1159,2969 q 182,312 458,463 277,152 661,152 638,0 1036,-506 399,-506 399,-1331 Q 3713,922 3314,415 2916,-91 2278,-91 1894,-91 1617,61 1341,213 1159,525 V 0 H 581 v 4863 h 578 z"
       id="DejaVuSans-62-6"
       transform="scale(0.015625)" /><path
       d="m 269,3500 h 575 l 719,-2731 715,2731 h 678 l 719,-2731 716,2731 h 575 L 4050,0 H 3372 L 2619,2869 1863,0 h -679 z"
       id="DejaVuSans-77-0"
       transform="scale(0.015625)" /><path
       d="m 2834,3397 v -544 q -243,125 -506,187 -262,63 -544,63 -428,0 -642,-131 -214,-131 -214,-394 0,-200 153,-314 153,-114 616,-217 l 197,-44 q 612,-131 870,-370 258,-239 258,-667 0,-488 -386,-773 Q 2250,-91 1575,-91 1294,-91 989,-36 684,19 347,128 v 594 q 319,-166 628,-249 309,-82 613,-82 406,0 624,139 219,139 219,392 0,234 -158,359 -157,125 -692,241 l -200,47 q -534,112 -772,345 -237,233 -237,639 0,494 350,762 350,269 994,269 318,0 599,-47 282,-46 519,-140 z"
       id="DejaVuSans-73-4"
       transform="scale(0.015625)" /><path
       d="M 3513,2113 V 0 h -575 v 2094 q 0,497 -194,743 -194,247 -581,247 -466,0 -735,-297 -269,-296 -269,-809 V 0 H 581 v 4863 h 578 V 2956 q 207,316 486,472 280,156 646,156 603,0 912,-373 310,-373 310,-1098 z"
       id="DejaVuSans-68-0"
       transform="scale(0.015625)" /><path
       d="M 0,7.5 C 1.989023,7.5 3.896849,6.709753 5.303301,5.303301 6.709753,3.896849 7.5,1.989023 7.5,0 7.5,-1.989023 6.709753,-3.896849 5.303301,-5.303301 3.896849,-6.709753 1.989023,-7.5 0,-7.5 c -1.989023,0 -3.896849,0.790247 -5.303301,2.196699 C -6.709753,-3.896849 -7.5,-1.989023 -7.5,0 c 0,1.989023 0.790247,3.896849 2.196699,5.303301 C -3.896849,6.709753 -1.989023,7.5 0,7.5 Z"
       id="C0_0_e2fb46d04d" /><path
       d="M 0,7.5 C 1.989023,7.5 3.896849,6.709753 5.303301,5.303301 6.709753,3.896849 7.5,1.989023 7.5,0 7.5,-1.989023 6.709753,-3.896849 5.303301,-5.303301 3.896849,-6.709753 1.989023,-7.5 0,-7.5 c -1.989023,0 -3.896849,0.790247 -5.303301,2.196699 C -6.709753,-3.896849 -7.5,-1.989023 -7.5,0 c 0,1.989023 0.790247,3.896849 2.196699,5.303301 C -3.896849,6.709753 -1.989023,7.5 0,7.5 Z"
       id="C1_0_2debbcc794" /><path
       d="M 0,7.5 C 1.989023,7.5 3.896849,6.709753 5.303301,5.303301 6.709753,3.896849 7.5,1.989023 7.5,0 7.5,-1.989023 6.709753,-3.896849 5.303301,-5.303301 3.896849,-6.709753 1.989023,-7.5 0,-7.5 c -1.989023,0 -3.896849,0.790247 -5.303301,2.196699 C -6.709753,-3.896849 -7.5,-1.989023 -7.5,0 c 0,1.989023 0.790247,3.896849 2.196699,5.303301 C -3.896849,6.709753 -1.989023,7.5 0,7.5 Z"
       id="C2_0_8b1bf987bb" /><path
       d="M 0,7.5 C 1.989023,7.5 3.896849,6.709753 5.303301,5.303301 6.709753,3.896849 7.5,1.989023 7.5,0 7.5,-1.989023 6.709753,-3.896849 5.303301,-5.303301 3.896849,-6.709753 1.989023,-7.5 0,-7.5 c -1.989023,0 -3.896849,0.790247 -5.303301,2.196699 C -6.709753,-3.896849 -7.5,-1.989023 -7.5,0 c 0,1.989023 0.790247,3.896849 2.196699,5.303301 C -3.896849,6.709753 -1.989023,7.5 0,7.5 Z"
       id="C3_0_74623eafcc" /><path
       d="M 0,7.5 C 1.989023,7.5 3.896849,6.709753 5.303301,5.303301 6.709753,3.896849 7.5,1.989023 7.5,0 7.5,-1.989023 6.709753,-3.896849 5.303301,-5.303301 3.896849,-6.709753 1.989023,-7.5 0,-7.5 c -1.989023,0 -3.896849,0.790247 -5.303301,2.196699 C -6.709753,-3.896849 -7.5,-1.989023 -7.5,0 c 0,1.989023 0.790247,3.896849 2.196699,5.303301 C -3.896849,6.709753 -1.989023,7.5 0,7.5 Z"
       id="C4_0_beed6ae4b8" /><path
       d="M 0,7.5 C 1.989023,7.5 3.896849,6.709753 5.303301,5.303301 6.709753,3.896849 7.5,1.989023 7.5,0 7.5,-1.989023 6.709753,-3.896849 5.303301,-5.303301 3.896849,-6.709753 1.989023,-7.5 0,-7.5 c -1.989023,0 -3.896849,0.790247 -5.303301,2.196699 C -6.709753,-3.896849 -7.5,-1.989023 -7.5,0 c 0,1.989023 0.790247,3.896849 2.196699,5.303301 C -3.896849,6.709753 -1.989023,7.5 0,7.5 Z"
       id="C5_0_8322cbacc2" /><path
       d="M 0,7.5 C 1.989023,7.5 3.896849,6.709753 5.303301,5.303301 6.709753,3.896849 7.5,1.989023 7.5,0 7.5,-1.989023 6.709753,-3.896849 5.303301,-5.303301 3.896849,-6.709753 1.989023,-7.5 0,-7.5 c -1.989023,0 -3.896849,0.790247 -5.303301,2.196699 C -6.709753,-3.896849 -7.5,-1.989023 -7.5,0 c 0,1.989023 0.790247,3.896849 2.196699,5.303301 C -3.896849,6.709753 -1.989023,7.5 0,7.5 Z"
       id="C6_0_6e4c5a08e7" /><path
       d="M 0,7.5 C 1.989023,7.5 3.896849,6.709753 5.303301,5.303301 6.709753,3.896849 7.5,1.989023 7.5,0 7.5,-1.989023 6.709753,-3.896849 5.303301,-5.303301 3.896849,-6.709753 1.989023,-7.5 0,-7.5 c -1.989023,0 -3.896849,0.790247 -5.303301,2.196699 C -6.709753,-3.896849 -7.5,-1.989023 -7.5,0 c 0,1.989023 0.790247,3.896849 2.196699,5.303301 C -3.896849,6.709753 -1.989023,7.5 0,7.5 Z"
       id="C7_0_30856a3149" /><path
       d="m 628,4666 h 631 V 325 q 0,-844 -320,-1225 -320,-381 -1030,-381 h -240 v 531 h 197 q 418,0 590,235 172,234 172,840 z"
       id="DejaVuSans-4a"
       transform="scale(0.015625)" /><path
       d="M 1259,2228 V 519 h 1013 q 509,0 754,211 246,211 246,645 0,438 -246,645 -245,208 -754,208 z m 0,1919 V 2741 h 935 q 462,0 688,173 227,174 227,530 0,353 -227,528 -226,175 -688,175 z m -631,519 h 1613 q 722,0 1112,-300 391,-300 391,-853 0,-429 -200,-682 -200,-253 -588,-315 466,-100 724,-418 258,-317 258,-792 0,-625 -425,-966 Q 3088,0 2303,0 H 628 Z"
       id="DejaVuSans-42-7"
       transform="scale(0.015625)" /><clipPath
       id="p6f796946c3"><rect
         height="554.40002"
         width="1004.4"
         x="162"
         y="86.400002"
         id="rect98952" /></clipPath><style
       type="text/css"
       id="style100953">*{stroke-linecap:butt;stroke-linejoin:round;}</style><path
       d="M 0,0 V 3.5"
       id="ma44cc097a2"
       style="stroke:#000000;stroke-width:0.8" /><path
       d="m 2034,4250 q -487,0 -733,-480 -245,-479 -245,-1442 0,-959 245,-1439 246,-480 733,-480 491,0 736,480 246,480 246,1439 0,963 -246,1442 -245,480 -736,480 z m 0,500 q 785,0 1199,-621 414,-620 414,-1801 0,-1178 -414,-1799 -414,-620 -1199,-620 -784,0 -1198,620 -414,621 -414,1799 0,1181 414,1801 414,621 1198,621 z"
       id="DejaVuSans-30-0"
       transform="scale(0.015625)" /><path
       d="M 794,531 H 1825 V 4091 L 703,3866 v 575 l 1116,225 h 631 V 531 H 3481 V 0 H 794 Z"
       id="DejaVuSans-31-7"
       transform="scale(0.015625)" /><path
       d="M 1228,531 H 3431 V 0 H 469 v 531 q 359,372 979,998 621,627 780,809 303,340 423,576 121,236 121,464 0,372 -261,606 -261,235 -680,235 -297,0 -627,-103 -329,-103 -704,-313 v 638 q 381,153 712,231 332,78 607,78 725,0 1156,-363 431,-362 431,-968 0,-288 -108,-546 -107,-257 -392,-607 -78,-91 -497,-524 Q 1991,1309 1228,531 Z"
       id="DejaVuSans-32-5"
       transform="scale(0.015625)" /><path
       d="m 2597,2516 q 453,-97 707,-404 255,-306 255,-756 0,-690 -475,-1069 -475,-378 -1350,-378 -293,0 -604,58 -311,58 -642,174 v 609 q 262,-153 574,-231 313,-78 654,-78 593,0 904,234 311,234 311,681 0,413 -289,645 -289,233 -804,233 h -544 v 519 h 569 q 465,0 712,186 247,186 247,536 0,359 -255,551 -254,193 -729,193 -260,0 -557,-57 -297,-56 -653,-174 v 562 q 360,100 674,150 314,50 592,50 719,0 1137,-327 419,-326 419,-882 0,-388 -222,-655 -222,-267 -631,-370 z"
       id="DejaVuSans-33-30"
       transform="scale(0.015625)" /><path
       d="M 2419,4116 825,1625 h 1594 z m -166,550 h 794 V 1625 h 666 V 1100 H 3047 V 0 H 2419 V 1100 H 313 v 609 z"
       id="DejaVuSans-34-9"
       transform="scale(0.015625)" /><path
       d="M 691,4666 H 3169 V 4134 H 1269 V 2991 q 137,47 274,70 138,23 276,23 781,0 1237,-428 457,-428 457,-1159 Q 3513,744 3044,326 2575,-91 1722,-91 1428,-91 1123,-41 819,9 494,109 v 635 q 281,-153 581,-228 300,-75 634,-75 541,0 856,284 316,284 316,772 0,487 -316,771 -315,285 -856,285 -253,0 -505,-56 -251,-56 -513,-175 z"
       id="DejaVuSans-35-7"
       transform="scale(0.015625)" /><path
       d="m 2113,2584 q -425,0 -674,-291 -248,-290 -248,-796 0,-503 248,-796 249,-292 674,-292 425,0 673,292 248,293 248,796 0,506 -248,796 -248,291 -673,291 z m 1253,1979 v -575 q -238,112 -480,171 -242,60 -480,60 -625,0 -955,-422 -329,-422 -376,-1275 184,272 462,417 279,145 613,145 703,0 1111,-427 408,-426 408,-1160 0,-719 -425,-1154 -425,-434 -1131,-434 -810,0 -1238,620 -428,621 -428,1799 0,1106 525,1764 525,658 1409,658 238,0 480,-47 242,-47 505,-140 z"
       id="DejaVuSans-36-79"
       transform="scale(0.015625)" /><path
       d="M 525,4666 H 3525 V 4397 L 1831,0 H 1172 L 2766,4134 H 525 Z"
       id="DejaVuSans-37-3"
       transform="scale(0.015625)" /><path
       d="m 2034,2216 q -450,0 -708,-241 -257,-241 -257,-662 0,-422 257,-663 258,-241 708,-241 450,0 709,242 260,243 260,662 0,421 -258,662 -257,241 -711,241 z m -631,268 q -406,100 -633,378 -226,279 -226,679 0,559 398,884 399,325 1092,325 697,0 1094,-325 397,-325 397,-884 0,-400 -227,-679 -226,-278 -629,-378 456,-106 710,-416 255,-309 255,-755 Q 3634,634 3220,271 2806,-91 2034,-91 1263,-91 848,271 434,634 434,1313 q 0,446 256,755 257,310 713,416 z m -231,997 q 0,-362 226,-565 227,-203 636,-203 407,0 636,203 230,203 230,565 0,363 -230,566 -229,203 -636,203 -409,0 -636,-203 -226,-203 -226,-566 z"
       id="DejaVuSans-38-9"
       transform="scale(0.015625)" /><path
       d="m 628,4666 h 850 L 3547,763 v 3903 h 612 V 0 H 3309 L 1241,3903 V 0 H 628 Z"
       id="DejaVuSans-4e-0"
       transform="scale(0.015625)" /><path
       d="m 544,1381 v 2119 h 575 V 1403 q 0,-497 193,-746 194,-248 582,-248 465,0 735,297 271,297 271,810 v 1984 h 575 V 0 H 2900 V 538 Q 2691,219 2414,64 2138,-91 1772,-91 1169,-91 856,284 544,659 544,1381 Z m 1447,2203 z"
       id="DejaVuSans-75-4"
       transform="scale(0.015625)" /><path
       d="m 3328,2828 q 216,388 516,572 300,184 706,184 547,0 844,-383 297,-382 297,-1088 V 0 h -578 v 2094 q 0,503 -179,746 -178,244 -543,244 -447,0 -707,-297 -259,-296 -259,-809 V 0 h -578 v 2094 q 0,506 -178,748 -178,242 -550,242 -441,0 -701,-298 -259,-298 -259,-808 V 0 H 581 v 3500 h 578 v -544 q 197,322 472,475 275,153 653,153 382,0 649,-194 267,-193 395,-562 z"
       id="DejaVuSans-6d-2"
       transform="scale(0.015625)" /><path
       d="m 3116,1747 q 0,634 -261,995 -261,361 -717,361 -457,0 -718,-361 -261,-361 -261,-995 0,-634 261,-995 261,-361 718,-361 456,0 717,361 261,361 261,995 z M 1159,2969 q 182,312 458,463 277,152 661,152 638,0 1036,-506 399,-506 399,-1331 Q 3713,922 3314,415 2916,-91 2278,-91 1894,-91 1617,61 1341,213 1159,525 V 0 H 581 v 4863 h 578 z"
       id="DejaVuSans-62-3"
       transform="scale(0.015625)" /><path
       d="M 3597,1894 V 1613 H 953 q 38,-594 358,-905 320,-311 892,-311 331,0 642,81 311,81 618,244 V 178 Q 3153,47 2828,-22 2503,-91 2169,-91 1331,-91 842,396 353,884 353,1716 q 0,859 464,1363 464,505 1252,505 706,0 1117,-455 411,-454 411,-1235 z m -575,169 q -6,471 -264,752 -258,282 -683,282 -481,0 -770,-272 -289,-272 -333,-766 z"
       id="DejaVuSans-65-3"
       transform="scale(0.015625)" /><path
       d="m 2631,2963 q -97,56 -211,82 -114,27 -251,27 -488,0 -749,-317 -261,-317 -261,-911 V 0 H 581 v 3500 h 578 v -544 q 182,319 472,473 291,155 707,155 59,0 131,-8 72,-7 159,-23 z"
       id="DejaVuSans-72-7"
       transform="scale(0.015625)" /><path
       id="DejaVuSans-20-0"
       transform="scale(0.015625)"
       d="" /><path
       d="m 1959,3097 q -462,0 -731,-361 -269,-361 -269,-989 0,-628 267,-989 268,-361 733,-361 460,0 728,362 269,363 269,988 0,622 -269,986 -268,364 -728,364 z m 0,487 q 750,0 1178,-488 429,-487 429,-1349 Q 3566,888 3137,398 2709,-91 1959,-91 1206,-91 779,398 353,888 353,1747 q 0,862 426,1349 427,488 1180,488 z"
       id="DejaVuSans-6f-0"
       transform="scale(0.015625)" /><path
       d="m 2375,4863 v -479 h -550 q -309,0 -430,-125 -120,-125 -120,-450 v -309 h 947 V 3053 H 1275 V 0 H 697 V 3053 H 147 v 447 h 550 v 244 q 0,584 272,851 272,268 862,268 z"
       id="DejaVuSans-66-10"
       transform="scale(0.015625)" /><path
       d="m 3122,3366 v -538 q -244,135 -489,202 -245,67 -495,67 -560,0 -870,-355 -309,-354 -309,-995 0,-641 309,-996 310,-354 870,-354 250,0 495,67 245,67 489,202 V 134 Q 2881,22 2623,-34 2366,-91 2075,-91 1284,-91 818,406 353,903 353,1747 q 0,856 470,1346 471,491 1290,491 265,0 518,-55 253,-54 491,-163 z"
       id="DejaVuSans-63-30"
       transform="scale(0.015625)" /><path
       d="M 3513,2113 V 0 h -575 v 2094 q 0,497 -194,743 -194,247 -581,247 -466,0 -735,-297 -269,-296 -269,-809 V 0 H 581 v 3500 h 578 v -544 q 207,316 486,472 280,156 646,156 603,0 912,-373 310,-373 310,-1098 z"
       id="DejaVuSans-6e-0"
       transform="scale(0.015625)" /><path
       d="m 2906,2969 v 1894 h 575 V 0 H 2906 V 525 Q 2725,213 2448,61 2172,-91 1784,-91 1150,-91 751,415 353,922 353,1747 q 0,825 398,1331 399,506 1033,506 388,0 664,-152 277,-151 458,-463 z M 947,1747 q 0,-634 261,-995 261,-361 717,-361 456,0 718,361 263,361 263,995 0,634 -263,995 -262,361 -718,361 -456,0 -717,-361 -261,-361 -261,-995 z"
       id="DejaVuSans-64-3"
       transform="scale(0.015625)" /><path
       d="m 603,3500 h 575 V 0 H 603 Z m 0,1363 h 575 V 4134 H 603 Z"
       id="DejaVuSans-69-8"
       transform="scale(0.015625)" /><path
       d="M 1172,4494 V 3500 H 2356 V 3053 H 1172 V 1153 q 0,-428 117,-550 117,-122 477,-122 h 590 V 0 H 1766 Q 1100,0 847,248 594,497 594,1153 V 3053 H 172 v 447 h 422 v 994 z"
       id="DejaVuSans-74-3"
       transform="scale(0.015625)" /><path
       d="m 2834,3397 v -544 q -243,125 -506,187 -262,63 -544,63 -428,0 -642,-131 -214,-131 -214,-394 0,-200 153,-314 153,-114 616,-217 l 197,-44 q 612,-131 870,-370 258,-239 258,-667 0,-488 -386,-773 Q 2250,-91 1575,-91 1294,-91 989,-36 684,19 347,128 v 594 q 319,-166 628,-249 309,-82 613,-82 406,0 624,139 219,139 219,392 0,234 -158,359 -157,125 -692,241 l -200,47 q -534,112 -772,345 -237,233 -237,639 0,494 350,762 350,269 994,269 318,0 599,-47 282,-46 519,-140 z"
       id="DejaVuSans-73-6"
       transform="scale(0.015625)" /><path
       d="m 269,3500 h 575 l 719,-2731 715,2731 h 678 l 719,-2731 716,2731 h 575 L 4050,0 H 3372 L 2619,2869 1863,0 h -679 z"
       id="DejaVuSans-77-04"
       transform="scale(0.015625)" /><path
       d="M 3513,2113 V 0 h -575 v 2094 q 0,497 -194,743 -194,247 -581,247 -466,0 -735,-297 -269,-296 -269,-809 V 0 H 581 v 4863 h 578 V 2956 q 207,316 486,472 280,156 646,156 603,0 912,-373 310,-373 310,-1098 z"
       id="DejaVuSans-68-09"
       transform="scale(0.015625)" /><path
       d="m 2194,1759 q -697,0 -966,-159 -269,-159 -269,-544 0,-306 202,-486 202,-179 548,-179 479,0 768,339 289,339 289,901 v 128 z m 1147,238 V 0 H 2766 V 531 Q 2569,213 2275,61 1981,-91 1556,-91 q -537,0 -855,302 -317,302 -317,808 0,590 395,890 396,300 1180,300 h 807 v 57 q 0,397 -261,614 -261,217 -733,217 -300,0 -585,-72 -284,-72 -546,-216 v 532 q 315,122 612,182 297,61 578,61 760,0 1135,-394 375,-393 375,-1193 z"
       id="DejaVuSans-61-2"
       transform="scale(0.015625)" /><path
       d="M 0,0 H -3.5"
       id="m3be27c76d3"
       style="stroke:#000000;stroke-width:0.8" /><path
       d="m 628,4666 h 631 V 325 q 0,-844 -320,-1225 -320,-381 -1030,-381 h -240 v 531 h 197 q 418,0 590,235 172,234 172,840 z"
       id="DejaVuSans-4a-5"
       transform="scale(0.015625)" /><path
       d="M 1259,2228 V 519 h 1013 q 509,0 754,211 246,211 246,645 0,438 -246,645 -245,208 -754,208 z m 0,1919 V 2741 h 935 q 462,0 688,173 227,174 227,530 0,353 -227,528 -226,175 -688,175 z m -631,519 h 1613 q 722,0 1112,-300 391,-300 391,-853 0,-429 -200,-682 -200,-253 -588,-315 466,-100 724,-418 258,-317 258,-792 0,-625 -425,-966 Q 3088,0 2303,0 H 628 Z"
       id="DejaVuSans-42-0"
       transform="scale(0.015625)" /><path
       d="m 703,97 v 575 q 238,-113 481,-172 244,-59 479,-59 625,0 954,420 330,420 377,1277 -181,-269 -460,-413 -278,-144 -615,-144 -700,0 -1108,423 -408,424 -408,1159 0,718 425,1152 425,435 1131,435 810,0 1236,-621 427,-620 427,-1801 Q 3622,1225 3098,567 2575,-91 1691,-91 1453,-91 1209,-44 966,3 703,97 Z m 1256,1978 q 425,0 673,290 249,291 249,798 0,503 -249,795 -248,292 -673,292 -425,0 -673,-292 -248,-292 -248,-795 0,-507 248,-798 248,-290 673,-290 z"
       id="DejaVuSans-39-8"
       transform="scale(0.015625)" /><clipPath
       id="p11c7d24d58"><rect
         height="554.40002"
         width="558"
         x="90"
         y="86.400002"
         id="rect101684" /></clipPath><style
       type="text/css"
       id="style102181">*{stroke-linecap:butt;stroke-linejoin:round;}</style><path
       d="M 0,0 V 3.5"
       id="mfaee42b5e1"
       style="stroke:#000000;stroke-width:0.8" /><path
       d="m 2034,4250 q -487,0 -733,-480 -245,-479 -245,-1442 0,-959 245,-1439 246,-480 733,-480 491,0 736,480 246,480 246,1439 0,963 -246,1442 -245,480 -736,480 z m 0,500 q 785,0 1199,-621 414,-620 414,-1801 0,-1178 -414,-1799 -414,-620 -1199,-620 -784,0 -1198,620 -414,621 -414,1799 0,1181 414,1801 414,621 1198,621 z"
       id="DejaVuSans-30-6"
       transform="scale(0.015625)" /><path
       d="m 684,794 h 660 V 0 H 684 Z"
       id="DejaVuSans-2e-03"
       transform="scale(0.015625)" /><path
       d="M 1228,531 H 3431 V 0 H 469 v 531 q 359,372 979,998 621,627 780,809 303,340 423,576 121,236 121,464 0,372 -261,606 -261,235 -680,235 -297,0 -627,-103 -329,-103 -704,-313 v 638 q 381,153 712,231 332,78 607,78 725,0 1156,-363 431,-362 431,-968 0,-288 -108,-546 -107,-257 -392,-607 -78,-91 -497,-524 Q 1991,1309 1228,531 Z"
       id="DejaVuSans-32-3"
       transform="scale(0.015625)" /><path
       d="M 2419,4116 825,1625 h 1594 z m -166,550 h 794 V 1625 h 666 V 1100 H 3047 V 0 H 2419 V 1100 H 313 v 609 z"
       id="DejaVuSans-34-0"
       transform="scale(0.015625)" /><path
       d="m 2113,2584 q -425,0 -674,-291 -248,-290 -248,-796 0,-503 248,-796 249,-292 674,-292 425,0 673,292 248,293 248,796 0,506 -248,796 -248,291 -673,291 z m 1253,1979 v -575 q -238,112 -480,171 -242,60 -480,60 -625,0 -955,-422 -329,-422 -376,-1275 184,272 462,417 279,145 613,145 703,0 1111,-427 408,-426 408,-1160 0,-719 -425,-1154 -425,-434 -1131,-434 -810,0 -1238,620 -428,621 -428,1799 0,1106 525,1764 525,658 1409,658 238,0 480,-47 242,-47 505,-140 z"
       id="DejaVuSans-36-1"
       transform="scale(0.015625)" /><path
       d="m 2034,2216 q -450,0 -708,-241 -257,-241 -257,-662 0,-422 257,-663 258,-241 708,-241 450,0 709,242 260,243 260,662 0,421 -258,662 -257,241 -711,241 z m -631,268 q -406,100 -633,378 -226,279 -226,679 0,559 398,884 399,325 1092,325 697,0 1094,-325 397,-325 397,-884 0,-400 -227,-679 -226,-278 -629,-378 456,-106 710,-416 255,-309 255,-755 Q 3634,634 3220,271 2806,-91 2034,-91 1263,-91 848,271 434,634 434,1313 q 0,446 256,755 257,310 713,416 z m -231,997 q 0,-362 226,-565 227,-203 636,-203 407,0 636,203 230,203 230,565 0,363 -230,566 -229,203 -636,203 -409,0 -636,-203 -226,-203 -226,-566 z"
       id="DejaVuSans-38-7"
       transform="scale(0.015625)" /><path
       d="M 794,531 H 1825 V 4091 L 703,3866 v 575 l 1116,225 h 631 V 531 H 3481 V 0 H 794 Z"
       id="DejaVuSans-31-45"
       transform="scale(0.015625)" /><path
       d="M 2188,4044 1331,1722 h 1716 z m -357,622 h 716 L 4325,0 H 3669 L 3244,1197 H 1141 L 716,0 H 50 Z"
       id="DejaVuSans-41-0"
       transform="scale(0.015625)" /><path
       d="m 2906,2969 v 1894 h 575 V 0 H 2906 V 525 Q 2725,213 2448,61 2172,-91 1784,-91 1150,-91 751,415 353,922 353,1747 q 0,825 398,1331 399,506 1033,506 388,0 664,-152 277,-151 458,-463 z M 947,1747 q 0,-634 261,-995 261,-361 717,-361 456,0 718,361 263,361 263,995 0,634 -263,995 -262,361 -718,361 -456,0 -717,-361 -261,-361 -261,-995 z"
       id="DejaVuSans-64-1"
       transform="scale(0.015625)" /><path
       d="M 3513,2113 V 0 h -575 v 2094 q 0,497 -194,743 -194,247 -581,247 -466,0 -735,-297 -269,-296 -269,-809 V 0 H 581 v 4863 h 578 V 2956 q 207,316 486,472 280,156 646,156 603,0 912,-373 310,-373 310,-1098 z"
       id="DejaVuSans-68-9"
       transform="scale(0.015625)" /><path
       d="M 3597,1894 V 1613 H 953 q 38,-594 358,-905 320,-311 892,-311 331,0 642,81 311,81 618,244 V 178 Q 3153,47 2828,-22 2503,-91 2169,-91 1331,-91 842,396 353,884 353,1716 q 0,859 464,1363 464,505 1252,505 706,0 1117,-455 411,-454 411,-1235 z m -575,169 q -6,471 -264,752 -258,282 -683,282 -481,0 -770,-272 -289,-272 -333,-766 z"
       id="DejaVuSans-65-4"
       transform="scale(0.015625)" /><path
       d="m 2834,3397 v -544 q -243,125 -506,187 -262,63 -544,63 -428,0 -642,-131 -214,-131 -214,-394 0,-200 153,-314 153,-114 616,-217 l 197,-44 q 612,-131 870,-370 258,-239 258,-667 0,-488 -386,-773 Q 2250,-91 1575,-91 1294,-91 989,-36 684,19 347,128 v 594 q 319,-166 628,-249 309,-82 613,-82 406,0 624,139 219,139 219,392 0,234 -158,359 -157,125 -692,241 l -200,47 q -534,112 -772,345 -237,233 -237,639 0,494 350,762 350,269 994,269 318,0 599,-47 282,-46 519,-140 z"
       id="DejaVuSans-73-5"
       transform="scale(0.015625)" /><path
       d="m 603,3500 h 575 V 0 H 603 Z m 0,1363 h 575 V 4134 H 603 Z"
       id="DejaVuSans-69-9"
       transform="scale(0.015625)" /><path
       d="m 1959,3097 q -462,0 -731,-361 -269,-361 -269,-989 0,-628 267,-989 268,-361 733,-361 460,0 728,362 269,363 269,988 0,622 -269,986 -268,364 -728,364 z m 0,487 q 750,0 1178,-488 429,-487 429,-1349 Q 3566,888 3137,398 2709,-91 1959,-91 1206,-91 779,398 353,888 353,1747 q 0,862 426,1349 427,488 1180,488 z"
       id="DejaVuSans-6f-3"
       transform="scale(0.015625)" /><path
       d="M 3513,2113 V 0 h -575 v 2094 q 0,497 -194,743 -194,247 -581,247 -466,0 -735,-297 -269,-296 -269,-809 V 0 H 581 v 3500 h 578 v -544 q 207,316 486,472 280,156 646,156 603,0 912,-373 310,-373 310,-1098 z"
       id="DejaVuSans-6e-9"
       transform="scale(0.015625)" /><path
       id="DejaVuSans-20-6"
       transform="scale(0.015625)"
       d="" /><path
       d="m 2631,2963 q -97,56 -211,82 -114,27 -251,27 -488,0 -749,-317 -261,-317 -261,-911 V 0 H 581 v 3500 h 578 v -544 q 182,319 472,473 291,155 707,155 59,0 131,-8 72,-7 159,-23 z"
       id="DejaVuSans-72-6"
       transform="scale(0.015625)" /><path
       d="m 2194,1759 q -697,0 -966,-159 -269,-159 -269,-544 0,-306 202,-486 202,-179 548,-179 479,0 768,339 289,339 289,901 v 128 z m 1147,238 V 0 H 2766 V 531 Q 2569,213 2275,61 1981,-91 1556,-91 q -537,0 -855,302 -317,302 -317,808 0,590 395,890 396,300 1180,300 h 807 v 57 q 0,397 -261,614 -261,217 -733,217 -300,0 -585,-72 -284,-72 -546,-216 v 532 q 315,122 612,182 297,61 578,61 760,0 1135,-394 375,-393 375,-1193 z"
       id="DejaVuSans-61-4"
       transform="scale(0.015625)" /><path
       d="M 1172,4494 V 3500 H 2356 V 3053 H 1172 V 1153 q 0,-428 117,-550 117,-122 477,-122 h 590 V 0 H 1766 Q 1100,0 847,248 594,497 594,1153 V 3053 H 172 v 447 h 422 v 994 z"
       id="DejaVuSans-74-0"
       transform="scale(0.015625)" /><path
       d="m 603,4863 h 575 V 0 H 603 Z"
       id="DejaVuSans-6c-8"
       transform="scale(0.015625)" /><path
       d="M 0,0 H -3.5"
       id="mbc0b86fbf9"
       style="stroke:#000000;stroke-width:0.8" /><path
       d="m 2597,2516 q 453,-97 707,-404 255,-306 255,-756 0,-690 -475,-1069 -475,-378 -1350,-378 -293,0 -604,58 -311,58 -642,174 v 609 q 262,-153 574,-231 313,-78 654,-78 593,0 904,234 311,234 311,681 0,413 -289,645 -289,233 -804,233 h -544 v 519 h 569 q 465,0 712,186 247,186 247,536 0,359 -255,551 -254,193 -729,193 -260,0 -557,-57 -297,-56 -653,-174 v 562 q 360,100 674,150 314,50 592,50 719,0 1137,-327 419,-326 419,-882 0,-388 -222,-655 -222,-267 -631,-370 z"
       id="DejaVuSans-33-1"
       transform="scale(0.015625)" /><path
       d="M 691,4666 H 3169 V 4134 H 1269 V 2991 q 137,47 274,70 138,23 276,23 781,0 1237,-428 457,-428 457,-1159 Q 3513,744 3044,326 2575,-91 1722,-91 1428,-91 1123,-41 819,9 494,109 v 635 q 281,-153 581,-228 300,-75 634,-75 541,0 856,284 316,284 316,772 0,487 -316,771 -315,285 -856,285 -253,0 -505,-56 -251,-56 -513,-175 z"
       id="DejaVuSans-35-3"
       transform="scale(0.015625)" /><path
       d="m 628,4666 h 941 L 2759,1491 3956,4666 h 941 V 0 H 4281 V 4097 L 3078,897 H 2444 L 1241,4097 V 0 H 628 Z"
       id="DejaVuSans-4d-5"
       transform="scale(0.015625)" /><path
       d="m 628,4666 h 631 V 531 H 3531 V 0 H 628 Z"
       id="DejaVuSans-4c"
       transform="scale(0.015625)" /><path
       d="M 1259,4147 V 2394 h 794 q 441,0 681,228 241,228 241,650 0,419 -241,647 -240,228 -681,228 z m -631,519 h 1425 q 785,0 1186,-355 402,-355 402,-1039 0,-691 -402,-1044 -401,-353 -1186,-353 H 1259 V 0 H 628 Z"
       id="DejaVuSans-50-1"
       transform="scale(0.015625)" /><path
       d="m 2375,4863 v -479 h -550 q -309,0 -430,-125 -120,-125 -120,-450 v -309 h 947 V 3053 H 1275 V 0 H 697 V 3053 H 147 v 447 h 550 v 244 q 0,584 272,851 272,268 862,268 z"
       id="DejaVuSans-66-2"
       transform="scale(0.015625)" /><path
       d="m 3328,2828 q 216,388 516,572 300,184 706,184 547,0 844,-383 297,-382 297,-1088 V 0 h -578 v 2094 q 0,503 -179,746 -178,244 -543,244 -447,0 -707,-297 -259,-296 -259,-809 V 0 h -578 v 2094 q 0,506 -178,748 -178,242 -550,242 -441,0 -701,-298 -259,-298 -259,-808 V 0 H 581 v 3500 h 578 v -544 q 197,322 472,475 275,153 653,153 382,0 649,-194 267,-193 395,-562 z"
       id="DejaVuSans-6d-6"
       transform="scale(0.015625)" /><path
       d="m 2906,1791 q 0,625 -258,968 -257,344 -723,344 -462,0 -720,-344 -258,-343 -258,-968 0,-622 258,-966 258,-344 720,-344 466,0 723,344 258,344 258,966 z M 3481,434 q 0,-893 -397,-1329 -396,-436 -1215,-436 -303,0 -572,45 -269,45 -522,139 v 559 q 253,-137 500,-202 247,-66 503,-66 566,0 847,295 281,295 281,892 V 616 Q 2728,306 2450,153 2172,0 1784,0 1141,0 747,490 353,981 353,1791 q 0,812 394,1302 394,491 1037,491 388,0 666,-153 278,-153 456,-462 v 531 h 575 z"
       id="DejaVuSans-67-6"
       transform="scale(0.015625)" /><clipPath
       id="p46d7197d6f"><rect
         height="554.40002"
         width="558"
         x="90"
         y="86.400002"
         id="rect102538" /></clipPath><clipPath
       clipPathUnits="userSpaceOnUse"
       id="clipPath99696"><rect
         style="fill:#ffd8b6;stroke:#000000;stroke-width:0.132292"
         id="rect99698"
         width="300.62634"
         height="297.62012"
         x="372.7767"
         y="30.062637" /></clipPath><clipPath
       clipPathUnits="userSpaceOnUse"
       id="clipPath99702"><rect
         style="fill:#ffd8b6;stroke:#000000;stroke-width:0.132292"
         id="rect99704"
         width="297.62012"
         height="300.62634"
         x="51.106483"
         y="30.062637" /></clipPath><rect
       x="160.17323"
       y="1303.4788"
       width="1065.9803"
       height="480.51968"
       id="rect100408-8" /></defs><g
     inkscape:label="Layer 1"
     inkscape:groupmode="layer"
     id="layer1"><image
       preserveAspectRatio="none"
       inkscape:svg-dpi="400"
       width="295.26245"
       height="295.26245"
       style="image-rendering:optimizeQuality"
       xlink:href="../All%20figures/l1_distance_ecdf.svg"
       id="image165492"
       x="10.733456"
       y="52.799049" /></g></svg>
